G04 #@! TF.GenerationSoftware,KiCad,Pcbnew,7.0.7*
G04 #@! TF.CreationDate,2023-09-24T13:56:50+10:00*
G04 #@! TF.ProjectId,fyp_nubots_ssl,6679705f-6e75-4626-9f74-735f73736c2e,rev?*
G04 #@! TF.SameCoordinates,Original*
G04 #@! TF.FileFunction,Legend,Bot*
G04 #@! TF.FilePolarity,Positive*
%FSLAX46Y46*%
G04 Gerber Fmt 4.6, Leading zero omitted, Abs format (unit mm)*
G04 Created by KiCad (PCBNEW 7.0.7) date 2023-09-24 13:56:50*
%MOMM*%
%LPD*%
G01*
G04 APERTURE LIST*
G04 Aperture macros list*
%AMRoundRect*
0 Rectangle with rounded corners*
0 $1 Rounding radius*
0 $2 $3 $4 $5 $6 $7 $8 $9 X,Y pos of 4 corners*
0 Add a 4 corners polygon primitive as box body*
4,1,4,$2,$3,$4,$5,$6,$7,$8,$9,$2,$3,0*
0 Add four circle primitives for the rounded corners*
1,1,$1+$1,$2,$3*
1,1,$1+$1,$4,$5*
1,1,$1+$1,$6,$7*
1,1,$1+$1,$8,$9*
0 Add four rect primitives between the rounded corners*
20,1,$1+$1,$2,$3,$4,$5,0*
20,1,$1+$1,$4,$5,$6,$7,0*
20,1,$1+$1,$6,$7,$8,$9,0*
20,1,$1+$1,$8,$9,$2,$3,0*%
G04 Aperture macros list end*
%ADD10C,0.160000*%
%ADD11C,0.120000*%
%ADD12RoundRect,0.288000X-0.600000X-0.675000X0.600000X-0.675000X0.600000X0.675000X-0.600000X0.675000X0*%
%ADD13O,1.776000X1.926000*%
%ADD14RoundRect,0.238000X-0.450000X0.200000X-0.450000X-0.200000X0.450000X-0.200000X0.450000X0.200000X0*%
%ADD15O,1.376000X0.876000*%
%ADD16O,0.976000X1.676000*%
%ADD17RoundRect,0.038000X-0.850000X-0.850000X0.850000X-0.850000X0.850000X0.850000X-0.850000X0.850000X0*%
%ADD18O,1.776000X1.776000*%
%ADD19C,3.276000*%
%ADD20RoundRect,0.038000X1.500000X1.500000X-1.500000X1.500000X-1.500000X-1.500000X1.500000X-1.500000X0*%
%ADD21C,3.076000*%
%ADD22RoundRect,0.038000X0.850000X-0.850000X0.850000X0.850000X-0.850000X0.850000X-0.850000X-0.850000X0*%
%ADD23RoundRect,0.263000X0.250000X-0.225000X0.250000X0.225000X-0.250000X0.225000X-0.250000X-0.225000X0*%
%ADD24RoundRect,0.263000X-0.250000X0.225000X-0.250000X-0.225000X0.250000X-0.225000X0.250000X0.225000X0*%
G04 APERTURE END LIST*
D10*
X122539060Y-94357142D02*
X122586680Y-94309523D01*
X122586680Y-94309523D02*
X122634299Y-94166666D01*
X122634299Y-94166666D02*
X122634299Y-94071428D01*
X122634299Y-94071428D02*
X122586680Y-93928571D01*
X122586680Y-93928571D02*
X122491441Y-93833333D01*
X122491441Y-93833333D02*
X122396203Y-93785714D01*
X122396203Y-93785714D02*
X122205727Y-93738095D01*
X122205727Y-93738095D02*
X122062870Y-93738095D01*
X122062870Y-93738095D02*
X121872394Y-93785714D01*
X121872394Y-93785714D02*
X121777156Y-93833333D01*
X121777156Y-93833333D02*
X121681918Y-93928571D01*
X121681918Y-93928571D02*
X121634299Y-94071428D01*
X121634299Y-94071428D02*
X121634299Y-94166666D01*
X121634299Y-94166666D02*
X121681918Y-94309523D01*
X121681918Y-94309523D02*
X121729537Y-94357142D01*
X121729537Y-94738095D02*
X121681918Y-94785714D01*
X121681918Y-94785714D02*
X121634299Y-94880952D01*
X121634299Y-94880952D02*
X121634299Y-95119047D01*
X121634299Y-95119047D02*
X121681918Y-95214285D01*
X121681918Y-95214285D02*
X121729537Y-95261904D01*
X121729537Y-95261904D02*
X121824775Y-95309523D01*
X121824775Y-95309523D02*
X121920013Y-95309523D01*
X121920013Y-95309523D02*
X122062870Y-95261904D01*
X122062870Y-95261904D02*
X122634299Y-94690476D01*
X122634299Y-94690476D02*
X122634299Y-95309523D01*
X121634299Y-95928571D02*
X121634299Y-96023809D01*
X121634299Y-96023809D02*
X121681918Y-96119047D01*
X121681918Y-96119047D02*
X121729537Y-96166666D01*
X121729537Y-96166666D02*
X121824775Y-96214285D01*
X121824775Y-96214285D02*
X122015251Y-96261904D01*
X122015251Y-96261904D02*
X122253346Y-96261904D01*
X122253346Y-96261904D02*
X122443822Y-96214285D01*
X122443822Y-96214285D02*
X122539060Y-96166666D01*
X122539060Y-96166666D02*
X122586680Y-96119047D01*
X122586680Y-96119047D02*
X122634299Y-96023809D01*
X122634299Y-96023809D02*
X122634299Y-95928571D01*
X122634299Y-95928571D02*
X122586680Y-95833333D01*
X122586680Y-95833333D02*
X122539060Y-95785714D01*
X122539060Y-95785714D02*
X122443822Y-95738095D01*
X122443822Y-95738095D02*
X122253346Y-95690476D01*
X122253346Y-95690476D02*
X122015251Y-95690476D01*
X122015251Y-95690476D02*
X121824775Y-95738095D01*
X121824775Y-95738095D02*
X121729537Y-95785714D01*
X121729537Y-95785714D02*
X121681918Y-95833333D01*
X121681918Y-95833333D02*
X121634299Y-95928571D01*
X114679060Y-89132142D02*
X114726680Y-89084523D01*
X114726680Y-89084523D02*
X114774299Y-88941666D01*
X114774299Y-88941666D02*
X114774299Y-88846428D01*
X114774299Y-88846428D02*
X114726680Y-88703571D01*
X114726680Y-88703571D02*
X114631441Y-88608333D01*
X114631441Y-88608333D02*
X114536203Y-88560714D01*
X114536203Y-88560714D02*
X114345727Y-88513095D01*
X114345727Y-88513095D02*
X114202870Y-88513095D01*
X114202870Y-88513095D02*
X114012394Y-88560714D01*
X114012394Y-88560714D02*
X113917156Y-88608333D01*
X113917156Y-88608333D02*
X113821918Y-88703571D01*
X113821918Y-88703571D02*
X113774299Y-88846428D01*
X113774299Y-88846428D02*
X113774299Y-88941666D01*
X113774299Y-88941666D02*
X113821918Y-89084523D01*
X113821918Y-89084523D02*
X113869537Y-89132142D01*
X114774299Y-90084523D02*
X114774299Y-89513095D01*
X114774299Y-89798809D02*
X113774299Y-89798809D01*
X113774299Y-89798809D02*
X113917156Y-89703571D01*
X113917156Y-89703571D02*
X114012394Y-89608333D01*
X114012394Y-89608333D02*
X114060013Y-89513095D01*
X114202870Y-90655952D02*
X114155251Y-90560714D01*
X114155251Y-90560714D02*
X114107632Y-90513095D01*
X114107632Y-90513095D02*
X114012394Y-90465476D01*
X114012394Y-90465476D02*
X113964775Y-90465476D01*
X113964775Y-90465476D02*
X113869537Y-90513095D01*
X113869537Y-90513095D02*
X113821918Y-90560714D01*
X113821918Y-90560714D02*
X113774299Y-90655952D01*
X113774299Y-90655952D02*
X113774299Y-90846428D01*
X113774299Y-90846428D02*
X113821918Y-90941666D01*
X113821918Y-90941666D02*
X113869537Y-90989285D01*
X113869537Y-90989285D02*
X113964775Y-91036904D01*
X113964775Y-91036904D02*
X114012394Y-91036904D01*
X114012394Y-91036904D02*
X114107632Y-90989285D01*
X114107632Y-90989285D02*
X114155251Y-90941666D01*
X114155251Y-90941666D02*
X114202870Y-90846428D01*
X114202870Y-90846428D02*
X114202870Y-90655952D01*
X114202870Y-90655952D02*
X114250489Y-90560714D01*
X114250489Y-90560714D02*
X114298108Y-90513095D01*
X114298108Y-90513095D02*
X114393346Y-90465476D01*
X114393346Y-90465476D02*
X114583822Y-90465476D01*
X114583822Y-90465476D02*
X114679060Y-90513095D01*
X114679060Y-90513095D02*
X114726680Y-90560714D01*
X114726680Y-90560714D02*
X114774299Y-90655952D01*
X114774299Y-90655952D02*
X114774299Y-90846428D01*
X114774299Y-90846428D02*
X114726680Y-90941666D01*
X114726680Y-90941666D02*
X114679060Y-90989285D01*
X114679060Y-90989285D02*
X114583822Y-91036904D01*
X114583822Y-91036904D02*
X114393346Y-91036904D01*
X114393346Y-91036904D02*
X114298108Y-90989285D01*
X114298108Y-90989285D02*
X114250489Y-90941666D01*
X114250489Y-90941666D02*
X114202870Y-90846428D01*
X110429060Y-89132142D02*
X110476680Y-89084523D01*
X110476680Y-89084523D02*
X110524299Y-88941666D01*
X110524299Y-88941666D02*
X110524299Y-88846428D01*
X110524299Y-88846428D02*
X110476680Y-88703571D01*
X110476680Y-88703571D02*
X110381441Y-88608333D01*
X110381441Y-88608333D02*
X110286203Y-88560714D01*
X110286203Y-88560714D02*
X110095727Y-88513095D01*
X110095727Y-88513095D02*
X109952870Y-88513095D01*
X109952870Y-88513095D02*
X109762394Y-88560714D01*
X109762394Y-88560714D02*
X109667156Y-88608333D01*
X109667156Y-88608333D02*
X109571918Y-88703571D01*
X109571918Y-88703571D02*
X109524299Y-88846428D01*
X109524299Y-88846428D02*
X109524299Y-88941666D01*
X109524299Y-88941666D02*
X109571918Y-89084523D01*
X109571918Y-89084523D02*
X109619537Y-89132142D01*
X110524299Y-90084523D02*
X110524299Y-89513095D01*
X110524299Y-89798809D02*
X109524299Y-89798809D01*
X109524299Y-89798809D02*
X109667156Y-89703571D01*
X109667156Y-89703571D02*
X109762394Y-89608333D01*
X109762394Y-89608333D02*
X109810013Y-89513095D01*
X110524299Y-90560714D02*
X110524299Y-90751190D01*
X110524299Y-90751190D02*
X110476680Y-90846428D01*
X110476680Y-90846428D02*
X110429060Y-90894047D01*
X110429060Y-90894047D02*
X110286203Y-90989285D01*
X110286203Y-90989285D02*
X110095727Y-91036904D01*
X110095727Y-91036904D02*
X109714775Y-91036904D01*
X109714775Y-91036904D02*
X109619537Y-90989285D01*
X109619537Y-90989285D02*
X109571918Y-90941666D01*
X109571918Y-90941666D02*
X109524299Y-90846428D01*
X109524299Y-90846428D02*
X109524299Y-90655952D01*
X109524299Y-90655952D02*
X109571918Y-90560714D01*
X109571918Y-90560714D02*
X109619537Y-90513095D01*
X109619537Y-90513095D02*
X109714775Y-90465476D01*
X109714775Y-90465476D02*
X109952870Y-90465476D01*
X109952870Y-90465476D02*
X110048108Y-90513095D01*
X110048108Y-90513095D02*
X110095727Y-90560714D01*
X110095727Y-90560714D02*
X110143346Y-90655952D01*
X110143346Y-90655952D02*
X110143346Y-90846428D01*
X110143346Y-90846428D02*
X110095727Y-90941666D01*
X110095727Y-90941666D02*
X110048108Y-90989285D01*
X110048108Y-90989285D02*
X109952870Y-91036904D01*
X119109060Y-89132142D02*
X119156680Y-89084523D01*
X119156680Y-89084523D02*
X119204299Y-88941666D01*
X119204299Y-88941666D02*
X119204299Y-88846428D01*
X119204299Y-88846428D02*
X119156680Y-88703571D01*
X119156680Y-88703571D02*
X119061441Y-88608333D01*
X119061441Y-88608333D02*
X118966203Y-88560714D01*
X118966203Y-88560714D02*
X118775727Y-88513095D01*
X118775727Y-88513095D02*
X118632870Y-88513095D01*
X118632870Y-88513095D02*
X118442394Y-88560714D01*
X118442394Y-88560714D02*
X118347156Y-88608333D01*
X118347156Y-88608333D02*
X118251918Y-88703571D01*
X118251918Y-88703571D02*
X118204299Y-88846428D01*
X118204299Y-88846428D02*
X118204299Y-88941666D01*
X118204299Y-88941666D02*
X118251918Y-89084523D01*
X118251918Y-89084523D02*
X118299537Y-89132142D01*
X118299537Y-89513095D02*
X118251918Y-89560714D01*
X118251918Y-89560714D02*
X118204299Y-89655952D01*
X118204299Y-89655952D02*
X118204299Y-89894047D01*
X118204299Y-89894047D02*
X118251918Y-89989285D01*
X118251918Y-89989285D02*
X118299537Y-90036904D01*
X118299537Y-90036904D02*
X118394775Y-90084523D01*
X118394775Y-90084523D02*
X118490013Y-90084523D01*
X118490013Y-90084523D02*
X118632870Y-90036904D01*
X118632870Y-90036904D02*
X119204299Y-89465476D01*
X119204299Y-89465476D02*
X119204299Y-90084523D01*
X118204299Y-90417857D02*
X118204299Y-91036904D01*
X118204299Y-91036904D02*
X118585251Y-90703571D01*
X118585251Y-90703571D02*
X118585251Y-90846428D01*
X118585251Y-90846428D02*
X118632870Y-90941666D01*
X118632870Y-90941666D02*
X118680489Y-90989285D01*
X118680489Y-90989285D02*
X118775727Y-91036904D01*
X118775727Y-91036904D02*
X119013822Y-91036904D01*
X119013822Y-91036904D02*
X119109060Y-90989285D01*
X119109060Y-90989285D02*
X119156680Y-90941666D01*
X119156680Y-90941666D02*
X119204299Y-90846428D01*
X119204299Y-90846428D02*
X119204299Y-90560714D01*
X119204299Y-90560714D02*
X119156680Y-90465476D01*
X119156680Y-90465476D02*
X119109060Y-90417857D01*
D11*
X120240000Y-95140580D02*
X120240000Y-94859420D01*
X121260000Y-95140580D02*
X121260000Y-94859420D01*
X116260000Y-89634420D02*
X116260000Y-89915580D01*
X115240000Y-89634420D02*
X115240000Y-89915580D01*
X112010000Y-89634420D02*
X112010000Y-89915580D01*
X110990000Y-89634420D02*
X110990000Y-89915580D01*
X117760000Y-89634420D02*
X117760000Y-89915580D01*
X116740000Y-89634420D02*
X116740000Y-89915580D01*
%LPC*%
D12*
X87000000Y-64750000D03*
D13*
X89500000Y-64750000D03*
X92000000Y-64750000D03*
X94500000Y-64750000D03*
D14*
X74800000Y-101875000D03*
D15*
X74800000Y-103125000D03*
X74800000Y-104375000D03*
X74800000Y-105625000D03*
D14*
X74800000Y-94125000D03*
D15*
X74800000Y-95375000D03*
X74800000Y-96625000D03*
X74800000Y-97875000D03*
D16*
X148200000Y-111750000D03*
X154800000Y-111750000D03*
D14*
X74800000Y-78625000D03*
D15*
X74800000Y-79875000D03*
X74800000Y-81125000D03*
X74800000Y-82375000D03*
D17*
X165000000Y-62500000D03*
D18*
X167540000Y-62500000D03*
X165000000Y-65040000D03*
X167540000Y-65040000D03*
X165000000Y-67580000D03*
X167540000Y-67580000D03*
X165000000Y-70120000D03*
X167540000Y-70120000D03*
X165000000Y-72660000D03*
X167540000Y-72660000D03*
D19*
X171000000Y-56500000D03*
D14*
X74800000Y-109625000D03*
D15*
X74800000Y-110875000D03*
X74800000Y-112125000D03*
X74800000Y-113375000D03*
D14*
X74800000Y-86375000D03*
D15*
X74800000Y-87625000D03*
X74800000Y-88875000D03*
X74800000Y-90125000D03*
D20*
X80790000Y-64100000D03*
D21*
X75710000Y-64100000D03*
D22*
X125170000Y-111790000D03*
D18*
X125170000Y-109250000D03*
X127710000Y-111790000D03*
X127710000Y-109250000D03*
X130250000Y-111790000D03*
X130250000Y-109250000D03*
X132790000Y-111790000D03*
X132790000Y-109250000D03*
X135330000Y-111790000D03*
X135330000Y-109250000D03*
X137870000Y-111790000D03*
X137870000Y-109250000D03*
D14*
X74800000Y-117375000D03*
D15*
X74800000Y-118625000D03*
X74800000Y-119875000D03*
X74800000Y-121125000D03*
D14*
X74800000Y-125125000D03*
D15*
X74800000Y-126375000D03*
X74800000Y-127625000D03*
X74800000Y-128875000D03*
D19*
X76500000Y-56500000D03*
X105000000Y-128500000D03*
X171000000Y-111000000D03*
D14*
X74800000Y-70875000D03*
D15*
X74800000Y-72125000D03*
X74800000Y-73375000D03*
X74800000Y-74625000D03*
D23*
X120750000Y-95775000D03*
X120750000Y-94225000D03*
D24*
X115750000Y-89000000D03*
X115750000Y-90550000D03*
X111500000Y-89000000D03*
X111500000Y-90550000D03*
X117250000Y-89000000D03*
X117250000Y-90550000D03*
%LPD*%
M02*
