G04 #@! TF.GenerationSoftware,KiCad,Pcbnew,7.0.7*
G04 #@! TF.CreationDate,2023-09-24T13:56:50+10:00*
G04 #@! TF.ProjectId,fyp_nubots_ssl,6679705f-6e75-4626-9f74-735f73736c2e,rev?*
G04 #@! TF.SameCoordinates,Original*
G04 #@! TF.FileFunction,Copper,L4,Bot*
G04 #@! TF.FilePolarity,Positive*
%FSLAX46Y46*%
G04 Gerber Fmt 4.6, Leading zero omitted, Abs format (unit mm)*
G04 Created by KiCad (PCBNEW 7.0.7) date 2023-09-24 13:56:50*
%MOMM*%
%LPD*%
G01*
G04 APERTURE LIST*
G04 Aperture macros list*
%AMRoundRect*
0 Rectangle with rounded corners*
0 $1 Rounding radius*
0 $2 $3 $4 $5 $6 $7 $8 $9 X,Y pos of 4 corners*
0 Add a 4 corners polygon primitive as box body*
4,1,4,$2,$3,$4,$5,$6,$7,$8,$9,$2,$3,0*
0 Add four circle primitives for the rounded corners*
1,1,$1+$1,$2,$3*
1,1,$1+$1,$4,$5*
1,1,$1+$1,$6,$7*
1,1,$1+$1,$8,$9*
0 Add four rect primitives between the rounded corners*
20,1,$1+$1,$2,$3,$4,$5,0*
20,1,$1+$1,$4,$5,$6,$7,0*
20,1,$1+$1,$6,$7,$8,$9,0*
20,1,$1+$1,$8,$9,$2,$3,0*%
G04 Aperture macros list end*
G04 #@! TA.AperFunction,ComponentPad*
%ADD10RoundRect,0.250000X-0.600000X-0.675000X0.600000X-0.675000X0.600000X0.675000X-0.600000X0.675000X0*%
G04 #@! TD*
G04 #@! TA.AperFunction,ComponentPad*
%ADD11O,1.700000X1.850000*%
G04 #@! TD*
G04 #@! TA.AperFunction,ComponentPad*
%ADD12RoundRect,0.200000X-0.450000X0.200000X-0.450000X-0.200000X0.450000X-0.200000X0.450000X0.200000X0*%
G04 #@! TD*
G04 #@! TA.AperFunction,ComponentPad*
%ADD13O,1.300000X0.800000*%
G04 #@! TD*
G04 #@! TA.AperFunction,ComponentPad*
%ADD14O,0.900000X1.600000*%
G04 #@! TD*
G04 #@! TA.AperFunction,ComponentPad*
%ADD15R,1.700000X1.700000*%
G04 #@! TD*
G04 #@! TA.AperFunction,ComponentPad*
%ADD16O,1.700000X1.700000*%
G04 #@! TD*
G04 #@! TA.AperFunction,ComponentPad*
%ADD17R,3.000000X3.000000*%
G04 #@! TD*
G04 #@! TA.AperFunction,ComponentPad*
%ADD18C,3.000000*%
G04 #@! TD*
G04 #@! TA.AperFunction,SMDPad,CuDef*
%ADD19RoundRect,0.225000X0.250000X-0.225000X0.250000X0.225000X-0.250000X0.225000X-0.250000X-0.225000X0*%
G04 #@! TD*
G04 #@! TA.AperFunction,SMDPad,CuDef*
%ADD20RoundRect,0.225000X-0.250000X0.225000X-0.250000X-0.225000X0.250000X-0.225000X0.250000X0.225000X0*%
G04 #@! TD*
G04 #@! TA.AperFunction,ViaPad*
%ADD21C,0.500000*%
G04 #@! TD*
G04 #@! TA.AperFunction,ViaPad*
%ADD22C,0.800000*%
G04 #@! TD*
G04 #@! TA.AperFunction,Conductor*
%ADD23C,0.250000*%
G04 #@! TD*
G04 #@! TA.AperFunction,Conductor*
%ADD24C,0.500000*%
G04 #@! TD*
G04 #@! TA.AperFunction,Conductor*
%ADD25C,1.000000*%
G04 #@! TD*
G04 APERTURE END LIST*
D10*
X87000000Y-64750000D03*
D11*
X89500000Y-64750000D03*
X92000000Y-64750000D03*
X94500000Y-64750000D03*
D12*
X74800000Y-101875000D03*
D13*
X74800000Y-103125000D03*
X74800000Y-104375000D03*
X74800000Y-105625000D03*
D12*
X74800000Y-94125000D03*
D13*
X74800000Y-95375000D03*
X74800000Y-96625000D03*
X74800000Y-97875000D03*
D14*
X148200000Y-111750000D03*
X154800000Y-111750000D03*
D12*
X74800000Y-78625000D03*
D13*
X74800000Y-79875000D03*
X74800000Y-81125000D03*
X74800000Y-82375000D03*
D15*
X165000000Y-62500000D03*
D16*
X167540000Y-62500000D03*
X165000000Y-65040000D03*
X167540000Y-65040000D03*
X165000000Y-67580000D03*
X167540000Y-67580000D03*
X165000000Y-70120000D03*
X167540000Y-70120000D03*
X165000000Y-72660000D03*
X167540000Y-72660000D03*
D12*
X74800000Y-109625000D03*
D13*
X74800000Y-110875000D03*
X74800000Y-112125000D03*
X74800000Y-113375000D03*
D12*
X74800000Y-86375000D03*
D13*
X74800000Y-87625000D03*
X74800000Y-88875000D03*
X74800000Y-90125000D03*
D17*
X80790000Y-64100000D03*
D18*
X75710000Y-64100000D03*
D15*
X125170000Y-111790000D03*
D16*
X125170000Y-109250000D03*
X127710000Y-111790000D03*
X127710000Y-109250000D03*
X130250000Y-111790000D03*
X130250000Y-109250000D03*
X132790000Y-111790000D03*
X132790000Y-109250000D03*
X135330000Y-111790000D03*
X135330000Y-109250000D03*
X137870000Y-111790000D03*
X137870000Y-109250000D03*
D12*
X74800000Y-117375000D03*
D13*
X74800000Y-118625000D03*
X74800000Y-119875000D03*
X74800000Y-121125000D03*
D12*
X74800000Y-125125000D03*
D13*
X74800000Y-126375000D03*
X74800000Y-127625000D03*
X74800000Y-128875000D03*
D12*
X74800000Y-70875000D03*
D13*
X74800000Y-72125000D03*
X74800000Y-73375000D03*
X74800000Y-74625000D03*
D19*
X120750000Y-95775000D03*
X120750000Y-94225000D03*
D20*
X115750000Y-89000000D03*
X115750000Y-90550000D03*
X111500000Y-89000000D03*
X111500000Y-90550000D03*
X117250000Y-89000000D03*
X117250000Y-90550000D03*
D21*
X93250000Y-92500000D03*
X91750000Y-130750000D03*
D22*
X146000000Y-81250000D03*
D21*
X100750000Y-118750000D03*
X82250000Y-107000000D03*
X140500000Y-101000000D03*
D22*
X119447340Y-94245149D03*
D21*
X136750000Y-105750000D03*
D22*
X151750000Y-80500000D03*
D21*
X97750000Y-91250000D03*
X146000000Y-79500000D03*
X88500000Y-86750000D03*
D22*
X109500000Y-60250000D03*
D21*
X83000000Y-77250000D03*
X134750000Y-88000000D03*
X145250000Y-78250000D03*
X90500000Y-72750000D03*
D22*
X88000000Y-122250000D03*
D21*
X142750000Y-105750000D03*
X90250000Y-98500000D03*
D22*
X110000000Y-53500000D03*
D21*
X150000000Y-97750000D03*
X94500000Y-79750000D03*
X80750000Y-121000000D03*
X78750000Y-83250000D03*
X86500000Y-110000000D03*
X133750000Y-85500000D03*
X150500000Y-81000000D03*
X89000000Y-71250000D03*
X136000000Y-90000000D03*
D22*
X112750000Y-115000000D03*
X115250000Y-91500000D03*
D21*
X94750000Y-121500000D03*
X80750000Y-125500000D03*
X97750000Y-92750000D03*
X87250000Y-98500000D03*
X146862299Y-78137701D03*
X116000000Y-107000000D03*
X96000000Y-88250000D03*
X77750000Y-114750000D03*
X139750000Y-105750000D03*
X86000000Y-78750000D03*
X79250000Y-91500000D03*
X100750000Y-111250000D03*
X93000000Y-88250000D03*
D22*
X102000000Y-80000000D03*
D21*
X93250000Y-123000000D03*
D22*
X105500000Y-60250000D03*
D21*
X80500000Y-130000000D03*
D22*
X127500000Y-53500000D03*
X108500000Y-56750000D03*
X115750000Y-111000000D03*
D21*
X80750000Y-90000000D03*
X105250000Y-108250000D03*
X78500000Y-75750000D03*
X96000000Y-85250000D03*
X94500000Y-75000000D03*
D22*
X112725247Y-90699500D03*
D21*
X96250000Y-94250000D03*
X82250000Y-100750000D03*
D22*
X125000000Y-53500000D03*
D21*
X124250000Y-103250000D03*
X127750000Y-91000000D03*
D22*
X93250000Y-124750000D03*
D21*
X90250000Y-130750000D03*
D22*
X106500000Y-56750000D03*
D21*
X80750000Y-114750000D03*
D22*
X111750000Y-55750000D03*
D21*
X82250000Y-122500000D03*
D22*
X145750000Y-83000000D03*
D21*
X97500000Y-88250000D03*
X100750000Y-121750000D03*
X130250000Y-101000000D03*
X95500000Y-116250000D03*
X149250000Y-75500000D03*
X77750000Y-110000000D03*
X97500000Y-82750000D03*
X93250000Y-130750000D03*
X145000000Y-91500000D03*
D22*
X111500000Y-104000000D03*
D21*
X145750000Y-106000000D03*
D22*
X105737701Y-84762299D03*
D21*
X100750000Y-109750000D03*
X95500000Y-112750000D03*
X87500000Y-73000000D03*
D22*
X112000000Y-92500000D03*
X150250000Y-82000000D03*
D21*
X87500000Y-69750000D03*
X146750000Y-75500000D03*
D22*
X117750000Y-91500000D03*
X113000000Y-57000000D03*
X103250000Y-54500000D03*
D21*
X93250000Y-98500000D03*
D22*
X172750000Y-65000000D03*
X128750000Y-53500000D03*
X109750000Y-115000000D03*
D21*
X152500000Y-97750000D03*
D22*
X87750000Y-91250000D03*
D21*
X150500000Y-76250000D03*
D22*
X113000000Y-58250000D03*
D21*
X133250000Y-91500000D03*
X80750000Y-94500000D03*
X91500000Y-96500000D03*
D22*
X93250000Y-109250000D03*
D21*
X77750000Y-125500000D03*
X137500000Y-88500000D03*
X96250000Y-127750000D03*
X94750000Y-129250000D03*
X93000000Y-83750000D03*
D22*
X111750000Y-59500000D03*
D21*
X97750000Y-121500000D03*
D22*
X113000000Y-59500000D03*
D21*
X151750000Y-77250000D03*
X87500000Y-78750000D03*
X145500000Y-76250000D03*
X126500000Y-110500000D03*
X138250000Y-107250000D03*
D22*
X126250000Y-53500000D03*
D21*
X133500000Y-101000000D03*
X100750000Y-114250000D03*
X96000000Y-76500000D03*
D22*
X118250000Y-82500000D03*
X105750000Y-99500000D03*
D21*
X79250000Y-100750000D03*
D22*
X108250000Y-115000000D03*
D21*
X90250000Y-103500000D03*
D22*
X115750000Y-115000000D03*
D21*
X150500000Y-80000000D03*
D22*
X113000000Y-54500000D03*
X102000000Y-54500000D03*
D21*
X146500000Y-82250000D03*
X150000000Y-91500000D03*
D22*
X107500000Y-55500000D03*
D21*
X127750000Y-107750000D03*
X79250000Y-116250000D03*
X135500000Y-99500000D03*
X100750000Y-123250000D03*
X89500000Y-115000000D03*
D22*
X105000000Y-53500000D03*
X114250000Y-82500000D03*
D21*
X100500000Y-81000000D03*
D22*
X107500000Y-53500000D03*
D21*
X77750000Y-117750000D03*
X83750000Y-125500000D03*
D22*
X119250000Y-70475000D03*
D21*
X120750000Y-102500000D03*
X91750000Y-102000000D03*
D22*
X105737701Y-87762299D03*
D21*
X150250000Y-101500000D03*
X97750000Y-118500000D03*
X145000000Y-97750000D03*
D22*
X152500000Y-107100000D03*
D21*
X83750000Y-94500000D03*
X139000000Y-101000000D03*
X135250000Y-84000000D03*
D22*
X105750000Y-105500000D03*
D21*
X122750000Y-101750000D03*
D22*
X105500000Y-58000000D03*
X104500000Y-74500000D03*
D21*
X99250000Y-124750000D03*
D22*
X116000000Y-92250000D03*
D21*
X80750000Y-110000000D03*
D22*
X113505752Y-87975170D03*
X122750000Y-58750000D03*
D21*
X93500000Y-104000000D03*
X100750000Y-112750000D03*
X131250000Y-97250000D03*
D22*
X112250000Y-82500000D03*
X113000000Y-55750000D03*
X132000000Y-57500000D03*
D21*
X97500000Y-78000000D03*
X148000000Y-75250000D03*
D22*
X102000000Y-55750000D03*
X103250000Y-55750000D03*
D21*
X122250000Y-104000000D03*
X130750000Y-88500000D03*
X96250000Y-123000000D03*
D22*
X161000000Y-110000000D03*
D21*
X129000000Y-110500000D03*
X147250000Y-104500000D03*
D22*
X111750000Y-58250000D03*
X122750000Y-57500000D03*
X117250000Y-111000000D03*
D21*
X91000000Y-119250000D03*
D22*
X132000000Y-55000000D03*
D21*
X137750000Y-91500000D03*
X150500000Y-79000000D03*
X139750000Y-82500000D03*
X124750000Y-88250000D03*
X141250000Y-107250000D03*
X80750000Y-105500000D03*
D22*
X111250000Y-115000000D03*
D21*
X90000000Y-88250000D03*
D22*
X105737701Y-90762299D03*
D21*
X145499205Y-77249572D03*
D22*
X105750000Y-102500000D03*
D21*
X88500000Y-85250000D03*
D22*
X105750000Y-96500000D03*
D21*
X80000000Y-74250000D03*
X79250000Y-107000000D03*
D22*
X136750000Y-85250000D03*
X112000000Y-91500000D03*
X109500000Y-55500000D03*
D21*
X97500000Y-86750000D03*
X89500000Y-118000000D03*
X130500000Y-105750000D03*
X88750000Y-102000000D03*
X126500000Y-93000000D03*
X100750000Y-120250000D03*
X97750000Y-126250000D03*
X146750000Y-102750000D03*
D22*
X103250000Y-59500000D03*
D21*
X79500000Y-85500000D03*
D22*
X111750000Y-57000000D03*
D21*
X106750000Y-106750000D03*
X83750000Y-108500000D03*
D22*
X117000000Y-92250000D03*
D21*
X145250000Y-104250000D03*
X81500000Y-75750000D03*
X102250000Y-106750000D03*
X100750000Y-108250000D03*
X86500000Y-94500000D03*
X100750000Y-115750000D03*
X124000000Y-90500000D03*
X94750000Y-95750000D03*
X150250000Y-104500000D03*
X77750000Y-94500000D03*
X129250000Y-99500000D03*
X133250000Y-97250000D03*
X82250000Y-116250000D03*
D22*
X87750000Y-106750000D03*
D21*
X78500000Y-80250000D03*
X88750000Y-100000000D03*
X82500000Y-85500000D03*
D22*
X111000000Y-92000000D03*
D21*
X82250000Y-91500000D03*
X144250000Y-107250000D03*
X78000000Y-87000000D03*
D22*
X160000000Y-87750000D03*
D21*
X132250000Y-87000000D03*
X100750000Y-117250000D03*
X133750000Y-105750000D03*
D22*
X102000000Y-58250000D03*
X102000000Y-59500000D03*
X122750000Y-55000000D03*
X125750000Y-72750000D03*
D21*
X93500000Y-107000000D03*
D22*
X161000000Y-108500000D03*
D21*
X92500000Y-119250000D03*
D22*
X93500000Y-78500000D03*
D21*
X83750000Y-124000000D03*
X152500000Y-91500000D03*
X83000000Y-78750000D03*
D22*
X106500000Y-59250000D03*
D21*
X146750000Y-80250000D03*
D22*
X87750000Y-75750000D03*
D21*
X86500000Y-125500000D03*
X77750000Y-102250000D03*
X99250000Y-91250000D03*
X80750000Y-99250000D03*
X103750000Y-108250000D03*
X93000000Y-73500000D03*
D22*
X93500000Y-94000000D03*
X135250000Y-97000000D03*
D21*
X150250000Y-103500000D03*
D22*
X103250000Y-57000000D03*
X102000000Y-57000000D03*
X105750000Y-93750000D03*
D21*
X130750000Y-91500000D03*
D22*
X157000000Y-88500000D03*
X119250000Y-75750000D03*
D21*
X84500000Y-69750000D03*
X151750000Y-78250000D03*
D22*
X105500000Y-55500000D03*
X115000000Y-92500000D03*
X115000000Y-88000000D03*
D21*
X80000000Y-78750000D03*
X142500000Y-91500000D03*
X133250000Y-89500000D03*
X120500000Y-106500000D03*
D22*
X108500000Y-59250000D03*
D21*
X81750000Y-83250000D03*
X152250000Y-105000000D03*
X90000000Y-83750000D03*
D22*
X130000000Y-53500000D03*
D21*
X131750000Y-99500000D03*
X87750000Y-104000000D03*
D22*
X111750000Y-54500000D03*
D21*
X83750000Y-110000000D03*
X78000000Y-71250000D03*
D22*
X107500000Y-58000000D03*
X132000000Y-58750000D03*
X107500000Y-60250000D03*
D21*
X94000000Y-117750000D03*
X145750000Y-75250000D03*
D22*
X106250000Y-53500000D03*
D21*
X81500000Y-69750000D03*
X142500000Y-97750000D03*
D22*
X128750000Y-71000000D03*
D21*
X77750000Y-99250000D03*
D22*
X103250000Y-58250000D03*
X155750000Y-104250000D03*
D21*
X79000000Y-130000000D03*
D22*
X136750000Y-98250000D03*
D21*
X147500000Y-91500000D03*
X94750000Y-91250000D03*
X92250000Y-76000000D03*
X82000000Y-131500000D03*
X96250000Y-91250000D03*
D22*
X109500000Y-58000000D03*
X116250000Y-82500000D03*
D21*
X79250000Y-122500000D03*
X92500000Y-115000000D03*
D22*
X153250000Y-103000000D03*
D21*
X88000000Y-116500000D03*
X150250000Y-102500000D03*
D22*
X132000000Y-56250000D03*
X108750000Y-53500000D03*
D21*
X83750000Y-93000000D03*
X121750000Y-88250000D03*
D22*
X118000000Y-92500000D03*
D21*
X138250000Y-82500000D03*
D22*
X122750000Y-56250000D03*
D21*
X121000000Y-90250000D03*
X96250000Y-120000000D03*
X99000000Y-88250000D03*
X128750000Y-106500000D03*
X137500000Y-101000000D03*
X94750000Y-124500000D03*
X117750000Y-103750000D03*
X91750000Y-100000000D03*
X122250000Y-108500000D03*
D22*
X93500000Y-80000000D03*
X109500000Y-104000000D03*
X106275000Y-74500000D03*
X117500000Y-66250000D03*
X93500000Y-95500000D03*
X93250000Y-126750000D03*
X110500000Y-88000000D03*
X117500000Y-65000000D03*
X111493134Y-87975480D03*
X117500000Y-67500000D03*
X117500000Y-63750000D03*
X93250000Y-111250000D03*
X116500000Y-87975480D03*
X129750000Y-67500000D03*
X142250000Y-83000000D03*
X171750000Y-61500000D03*
X114250000Y-115000000D03*
X123750000Y-84750000D03*
X142250000Y-79500000D03*
X149017299Y-82017299D03*
X152750000Y-83000000D03*
X157000000Y-85000000D03*
X118750000Y-111000000D03*
X171750000Y-71000000D03*
X159500000Y-90750000D03*
X154750000Y-103000000D03*
X162250000Y-104250000D03*
X128500000Y-67500000D03*
X154250000Y-81250000D03*
X130000000Y-79000000D03*
X131000000Y-67500000D03*
X136750000Y-87250000D03*
X171750000Y-68500000D03*
X136750000Y-100250000D03*
X119447340Y-95745149D03*
X133500000Y-67500000D03*
X132250000Y-67500000D03*
X160000000Y-85750000D03*
X142000000Y-81250000D03*
D21*
X125500000Y-104250000D03*
X136750000Y-108000000D03*
X134500000Y-107250000D03*
X146250000Y-104250000D03*
X127000000Y-94000000D03*
X150250000Y-92750000D03*
X122250000Y-94675500D03*
X143750000Y-104500000D03*
X122750000Y-94000000D03*
X144250000Y-104000000D03*
X144750000Y-103500000D03*
X123250000Y-93500000D03*
X145250000Y-103000000D03*
X123750000Y-93000000D03*
X153750000Y-96250000D03*
X128000000Y-99500000D03*
X130000000Y-97000000D03*
X153250000Y-95750000D03*
X129500000Y-96500000D03*
X152750000Y-95250000D03*
X129000000Y-96000000D03*
X152250000Y-94750000D03*
X128500000Y-95500000D03*
X151750000Y-94250000D03*
X128000000Y-95000000D03*
X151250000Y-93750000D03*
X150750000Y-93250000D03*
X127500000Y-94500000D03*
X145750000Y-102500000D03*
X124250000Y-92500000D03*
X146250000Y-102000000D03*
X124750000Y-92000000D03*
X125250000Y-91500000D03*
X146750000Y-101500000D03*
X147000000Y-98500000D03*
X145750000Y-92500000D03*
X125750000Y-91000000D03*
X149250000Y-98500000D03*
D22*
X116474500Y-105000000D03*
X119987701Y-108512299D03*
D21*
X150000000Y-98750000D03*
D22*
X85000000Y-106250000D03*
X85000000Y-131000000D03*
X85000000Y-121750000D03*
X85000000Y-100000000D03*
X85000000Y-115500000D03*
X85000000Y-75250000D03*
X100500000Y-77250000D03*
X85000000Y-91000000D03*
X85000000Y-84500000D03*
X127000000Y-71000000D03*
X149500000Y-106750000D03*
D23*
X115250000Y-91500000D02*
X115750000Y-91000000D01*
X119447340Y-94245149D02*
X120729851Y-94245149D01*
X117250000Y-91000000D02*
X117250000Y-90550000D01*
X115750000Y-91000000D02*
X115750000Y-90550000D01*
X117750000Y-91500000D02*
X117250000Y-91000000D01*
X112000000Y-91500000D02*
X111500000Y-91000000D01*
X111500000Y-91000000D02*
X111500000Y-90550000D01*
X120729851Y-94245149D02*
X120750000Y-94225000D01*
X117250000Y-88725480D02*
X116500000Y-87975480D01*
X111493134Y-88993134D02*
X111500000Y-89000000D01*
X116500000Y-87975480D02*
X115750000Y-88725480D01*
X117250000Y-89000000D02*
X117250000Y-88725480D01*
X115750000Y-88725480D02*
X115750000Y-89000000D01*
X111493134Y-87975480D02*
X111493134Y-88993134D01*
X119447340Y-95745149D02*
X119477191Y-95775000D01*
X119477191Y-95775000D02*
X120750000Y-95775000D01*
X125170000Y-109250000D02*
X125170000Y-104580000D01*
X125170000Y-104580000D02*
X125500000Y-104250000D01*
X136750000Y-108000000D02*
X134040000Y-108000000D01*
X134040000Y-108000000D02*
X132790000Y-109250000D01*
X134500000Y-107250000D02*
X132250000Y-107250000D01*
X132250000Y-107250000D02*
X130250000Y-109250000D01*
X144000000Y-106500000D02*
X130460000Y-106500000D01*
X146250000Y-104250000D02*
X144000000Y-106500000D01*
X130460000Y-106500000D02*
X127710000Y-109250000D01*
X127750000Y-93250000D02*
X149750000Y-93250000D01*
X127000000Y-94000000D02*
X127750000Y-93250000D01*
X149750000Y-93250000D02*
X150250000Y-92750000D01*
X122750000Y-95175500D02*
X122750000Y-100000000D01*
X122750000Y-100000000D02*
X127750000Y-105000000D01*
X143250000Y-105000000D02*
X143750000Y-104500000D01*
X127750000Y-105000000D02*
X143250000Y-105000000D01*
X122250000Y-94675500D02*
X122750000Y-95175500D01*
X123250000Y-99750000D02*
X128000000Y-104500000D01*
X142750000Y-104500000D02*
X143325000Y-103925000D01*
X122750000Y-94000000D02*
X123250000Y-94500000D01*
X144175000Y-103925000D02*
X144250000Y-104000000D01*
X123250000Y-94500000D02*
X123250000Y-99750000D01*
X128000000Y-104500000D02*
X142750000Y-104500000D01*
X143325000Y-103925000D02*
X144175000Y-103925000D01*
X123750000Y-94000000D02*
X123750000Y-99500000D01*
X142500000Y-104000000D02*
X143075000Y-103425000D01*
X123750000Y-99500000D02*
X128250000Y-104000000D01*
X143075000Y-103425000D02*
X144675000Y-103425000D01*
X123250000Y-93500000D02*
X123750000Y-94000000D01*
X144675000Y-103425000D02*
X144750000Y-103500000D01*
X128250000Y-104000000D02*
X142500000Y-104000000D01*
X128500000Y-103500000D02*
X142250000Y-103500000D01*
X142250000Y-103500000D02*
X142825000Y-102925000D01*
X142825000Y-102925000D02*
X145175000Y-102925000D01*
X123750000Y-93000000D02*
X124250000Y-93500000D01*
X124250000Y-99250000D02*
X128500000Y-103500000D01*
X124250000Y-93500000D02*
X124250000Y-99250000D01*
X145175000Y-102925000D02*
X145250000Y-103000000D01*
X153250000Y-96750000D02*
X153750000Y-96250000D01*
X135500000Y-98250000D02*
X137000000Y-96750000D01*
X137000000Y-96750000D02*
X153250000Y-96750000D01*
X129250000Y-98250000D02*
X135500000Y-98250000D01*
X128000000Y-99500000D02*
X129250000Y-98250000D01*
X130750000Y-96250000D02*
X152750000Y-96250000D01*
X130000000Y-97000000D02*
X130750000Y-96250000D01*
X152750000Y-96250000D02*
X153250000Y-95750000D01*
X130250000Y-95750000D02*
X152250000Y-95750000D01*
X129500000Y-96500000D02*
X130250000Y-95750000D01*
X152250000Y-95750000D02*
X152750000Y-95250000D01*
X129000000Y-96000000D02*
X129750000Y-95250000D01*
X151750000Y-95250000D02*
X152250000Y-94750000D01*
X129750000Y-95250000D02*
X151750000Y-95250000D01*
X128500000Y-95500000D02*
X129250000Y-94750000D01*
X151250000Y-94750000D02*
X151750000Y-94250000D01*
X129250000Y-94750000D02*
X151250000Y-94750000D01*
X128750000Y-94250000D02*
X150750000Y-94250000D01*
X150750000Y-94250000D02*
X151250000Y-93750000D01*
X128000000Y-95000000D02*
X128750000Y-94250000D01*
X150250000Y-93750000D02*
X150750000Y-93250000D01*
X127500000Y-94500000D02*
X128250000Y-93750000D01*
X128250000Y-93750000D02*
X150250000Y-93750000D01*
X124750000Y-99000000D02*
X128750000Y-103000000D01*
X142575000Y-102425000D02*
X145675000Y-102425000D01*
X124250000Y-92500000D02*
X124750000Y-93000000D01*
X124750000Y-93000000D02*
X124750000Y-99000000D01*
X142000000Y-103000000D02*
X142575000Y-102425000D01*
X145675000Y-102425000D02*
X145750000Y-102500000D01*
X128750000Y-103000000D02*
X142000000Y-103000000D01*
X146175000Y-101925000D02*
X146250000Y-102000000D01*
X125250000Y-92500000D02*
X125250000Y-98750000D01*
X125250000Y-98750000D02*
X129000000Y-102500000D01*
X141750000Y-102500000D02*
X142325000Y-101925000D01*
X142325000Y-101925000D02*
X146175000Y-101925000D01*
X129000000Y-102500000D02*
X141750000Y-102500000D01*
X124750000Y-92000000D02*
X125250000Y-92500000D01*
X141500000Y-102000000D02*
X142075000Y-101425000D01*
X125750000Y-92000000D02*
X125750000Y-98500000D01*
X125750000Y-98500000D02*
X129250000Y-102000000D01*
X146675000Y-101425000D02*
X146750000Y-101500000D01*
X142075000Y-101425000D02*
X146675000Y-101425000D01*
X129250000Y-102000000D02*
X141500000Y-102000000D01*
X125250000Y-91500000D02*
X125750000Y-92000000D01*
X148000000Y-99500000D02*
X148000000Y-105000000D01*
X127250000Y-92500000D02*
X145750000Y-92500000D01*
X126425000Y-91675000D02*
X125750000Y-91000000D01*
X126425000Y-91675000D02*
X127250000Y-92500000D01*
X143750000Y-109250000D02*
X137870000Y-109250000D01*
X148000000Y-105000000D02*
X143750000Y-109250000D01*
X148000000Y-99500000D02*
X147000000Y-98500000D01*
X120750000Y-108249293D02*
X120750000Y-109720000D01*
X119037299Y-107787299D02*
X120288006Y-107787299D01*
X120288006Y-107787299D02*
X120750000Y-108249293D01*
X140009925Y-114000000D02*
X149000000Y-105009925D01*
X149000000Y-105009925D02*
X149000000Y-98750000D01*
X116474500Y-105224500D02*
X119037299Y-107787299D01*
X149000000Y-98750000D02*
X149250000Y-98500000D01*
X116474500Y-105000000D02*
X116474500Y-105224500D01*
X120750000Y-109720000D02*
X125030000Y-114000000D01*
X125030000Y-114000000D02*
X140009925Y-114000000D01*
X124250000Y-114500000D02*
X140375000Y-114500000D01*
X140375000Y-114500000D02*
X149500000Y-105375000D01*
X149500000Y-105375000D02*
X149500000Y-99250000D01*
X119987701Y-110237701D02*
X124250000Y-114500000D01*
X149500000Y-99250000D02*
X150000000Y-98750000D01*
X119987701Y-108512299D02*
X119987701Y-110237701D01*
D24*
X85000000Y-131000000D02*
X85000000Y-121750000D01*
X85000000Y-84500000D02*
X85000000Y-75250000D01*
X85000000Y-121750000D02*
X85000000Y-115500000D01*
X85000000Y-100000000D02*
X85000000Y-91000000D01*
X85000000Y-115500000D02*
X85000000Y-106250000D01*
X85000000Y-91000000D02*
X85000000Y-84500000D01*
X96750000Y-81750000D02*
X87750000Y-81750000D01*
X100500000Y-77250000D02*
X100500000Y-78000000D01*
X87750000Y-81750000D02*
X85000000Y-84500000D01*
X85000000Y-106250000D02*
X85000000Y-100000000D01*
X100500000Y-78000000D02*
X96750000Y-81750000D01*
D25*
X158250000Y-94235295D02*
X158250000Y-104055635D01*
X158250000Y-94235295D02*
X148164705Y-84150000D01*
X156305635Y-106000000D02*
X158250000Y-104055635D01*
X150250000Y-106000000D02*
X156305635Y-106000000D01*
X127000000Y-73500000D02*
X127000000Y-71000000D01*
X149500000Y-106750000D02*
X150250000Y-106000000D01*
X148164705Y-84150000D02*
X137650000Y-84150000D01*
X137650000Y-84150000D02*
X127000000Y-73500000D01*
G04 #@! TA.AperFunction,Conductor*
G36*
X143621063Y-109645185D02*
G01*
X143666818Y-109697989D01*
X143676762Y-109767147D01*
X143647737Y-109830703D01*
X143641705Y-109837181D01*
X139890706Y-113588181D01*
X139829383Y-113621666D01*
X139803025Y-113624500D01*
X125236899Y-113624500D01*
X125169860Y-113604815D01*
X125149218Y-113588181D01*
X124898199Y-113337162D01*
X124864714Y-113275839D01*
X124869698Y-113206147D01*
X124898200Y-113161799D01*
X124920000Y-113139999D01*
X124920000Y-112402301D01*
X124939685Y-112335262D01*
X124992489Y-112289507D01*
X125061647Y-112279563D01*
X125134237Y-112290000D01*
X125134238Y-112290000D01*
X125205762Y-112290000D01*
X125205763Y-112290000D01*
X125278353Y-112279563D01*
X125347512Y-112289507D01*
X125400315Y-112335262D01*
X125420000Y-112402301D01*
X125420000Y-113140000D01*
X126067828Y-113140000D01*
X126067844Y-113139999D01*
X126127372Y-113133598D01*
X126127379Y-113133596D01*
X126262086Y-113083354D01*
X126262093Y-113083350D01*
X126377187Y-112997190D01*
X126377190Y-112997187D01*
X126463350Y-112882093D01*
X126463354Y-112882086D01*
X126512614Y-112750013D01*
X126554485Y-112694079D01*
X126619949Y-112669662D01*
X126688222Y-112684513D01*
X126716477Y-112705665D01*
X126838917Y-112828105D01*
X127032421Y-112963600D01*
X127246507Y-113063429D01*
X127246516Y-113063433D01*
X127459998Y-113120635D01*
X127459999Y-113120634D01*
X127459999Y-112402300D01*
X127479684Y-112335261D01*
X127532488Y-112289506D01*
X127601642Y-112279562D01*
X127674237Y-112290000D01*
X127674240Y-112290000D01*
X127745762Y-112290000D01*
X127745763Y-112290000D01*
X127818353Y-112279563D01*
X127887512Y-112289507D01*
X127940315Y-112335262D01*
X127960000Y-112402301D01*
X127960000Y-113120634D01*
X128173483Y-113063433D01*
X128173492Y-113063429D01*
X128387578Y-112963600D01*
X128581082Y-112828105D01*
X128748105Y-112661082D01*
X128878425Y-112474968D01*
X128933002Y-112431344D01*
X129002501Y-112424151D01*
X129064855Y-112455673D01*
X129081575Y-112474968D01*
X129211894Y-112661082D01*
X129378917Y-112828105D01*
X129572421Y-112963600D01*
X129786507Y-113063429D01*
X129786516Y-113063433D01*
X130000000Y-113120634D01*
X130000000Y-112402301D01*
X130019685Y-112335262D01*
X130072489Y-112289507D01*
X130141647Y-112279563D01*
X130214237Y-112290000D01*
X130214238Y-112290000D01*
X130285762Y-112290000D01*
X130285763Y-112290000D01*
X130358352Y-112279563D01*
X130427510Y-112289507D01*
X130480314Y-112335261D01*
X130499999Y-112402301D01*
X130499999Y-113120633D01*
X130713483Y-113063433D01*
X130713492Y-113063429D01*
X130927578Y-112963600D01*
X131121082Y-112828105D01*
X131288105Y-112661082D01*
X131418425Y-112474968D01*
X131473002Y-112431344D01*
X131542501Y-112424151D01*
X131604855Y-112455673D01*
X131621575Y-112474968D01*
X131751894Y-112661082D01*
X131918917Y-112828105D01*
X132112421Y-112963600D01*
X132326507Y-113063429D01*
X132326516Y-113063433D01*
X132540000Y-113120634D01*
X132540000Y-112402301D01*
X132559685Y-112335262D01*
X132612489Y-112289507D01*
X132681647Y-112279563D01*
X132754237Y-112290000D01*
X132754238Y-112290000D01*
X132825762Y-112290000D01*
X132825763Y-112290000D01*
X132898353Y-112279563D01*
X132967512Y-112289507D01*
X133020315Y-112335262D01*
X133040000Y-112402301D01*
X133040000Y-113120634D01*
X133253483Y-113063433D01*
X133253492Y-113063429D01*
X133467578Y-112963600D01*
X133661082Y-112828105D01*
X133828105Y-112661082D01*
X133958425Y-112474968D01*
X134013002Y-112431344D01*
X134082501Y-112424151D01*
X134144855Y-112455673D01*
X134161575Y-112474968D01*
X134291894Y-112661082D01*
X134458917Y-112828105D01*
X134652421Y-112963600D01*
X134866507Y-113063429D01*
X134866516Y-113063433D01*
X135080000Y-113120634D01*
X135080000Y-112402301D01*
X135099685Y-112335262D01*
X135152489Y-112289507D01*
X135221647Y-112279563D01*
X135294237Y-112290000D01*
X135294238Y-112290000D01*
X135365762Y-112290000D01*
X135365763Y-112290000D01*
X135438353Y-112279563D01*
X135507512Y-112289507D01*
X135560315Y-112335262D01*
X135580000Y-112402301D01*
X135580000Y-113120633D01*
X135793483Y-113063433D01*
X135793492Y-113063429D01*
X136007578Y-112963600D01*
X136201082Y-112828105D01*
X136368105Y-112661082D01*
X136498425Y-112474968D01*
X136553002Y-112431344D01*
X136622501Y-112424151D01*
X136684855Y-112455673D01*
X136701575Y-112474968D01*
X136831894Y-112661082D01*
X136998917Y-112828105D01*
X137192421Y-112963600D01*
X137406507Y-113063429D01*
X137406516Y-113063433D01*
X137620000Y-113120634D01*
X137620000Y-112402301D01*
X137639685Y-112335262D01*
X137692489Y-112289507D01*
X137761647Y-112279563D01*
X137834237Y-112290000D01*
X137834238Y-112290000D01*
X137905762Y-112290000D01*
X137905763Y-112290000D01*
X137978353Y-112279563D01*
X138047512Y-112289507D01*
X138100315Y-112335262D01*
X138120000Y-112402301D01*
X138120000Y-113120633D01*
X138333483Y-113063433D01*
X138333492Y-113063429D01*
X138547578Y-112963600D01*
X138741082Y-112828105D01*
X138908105Y-112661082D01*
X139043600Y-112467578D01*
X139143429Y-112253492D01*
X139143432Y-112253486D01*
X139200636Y-112040000D01*
X138483347Y-112040000D01*
X138416308Y-112020315D01*
X138370553Y-111967511D01*
X138360609Y-111898353D01*
X138364369Y-111881067D01*
X138370000Y-111861888D01*
X138370000Y-111718111D01*
X138364369Y-111698933D01*
X138364370Y-111629064D01*
X138402145Y-111570286D01*
X138465701Y-111541262D01*
X138483347Y-111540000D01*
X139200636Y-111540000D01*
X139200635Y-111539999D01*
X139143432Y-111326513D01*
X139143429Y-111326507D01*
X139043600Y-111112422D01*
X139043599Y-111112420D01*
X138908113Y-110918926D01*
X138908108Y-110918920D01*
X138741082Y-110751894D01*
X138547578Y-110616399D01*
X138333492Y-110516570D01*
X138333477Y-110516564D01*
X138294414Y-110506097D01*
X138234754Y-110469732D01*
X138204226Y-110406885D01*
X138212521Y-110337509D01*
X138257007Y-110283632D01*
X138281710Y-110270698D01*
X138362637Y-110239348D01*
X138536041Y-110131981D01*
X138686764Y-109994579D01*
X138809673Y-109831821D01*
X138878186Y-109694226D01*
X138925687Y-109642992D01*
X138989185Y-109625500D01*
X143554024Y-109625500D01*
X143621063Y-109645185D01*
G37*
G04 #@! TD.AperFunction*
G04 #@! TA.AperFunction,Conductor*
G36*
X127163692Y-111559685D02*
G01*
X127209447Y-111612489D01*
X127219391Y-111681647D01*
X127215631Y-111698933D01*
X127210000Y-111718111D01*
X127210000Y-111861888D01*
X127215631Y-111881067D01*
X127215630Y-111950936D01*
X127177855Y-112009714D01*
X127114299Y-112038738D01*
X127096653Y-112040000D01*
X125783347Y-112040000D01*
X125716308Y-112020315D01*
X125670553Y-111967511D01*
X125660609Y-111898353D01*
X125664369Y-111881067D01*
X125670000Y-111861888D01*
X125670000Y-111718111D01*
X125664369Y-111698933D01*
X125664370Y-111629064D01*
X125702145Y-111570286D01*
X125765701Y-111541262D01*
X125783347Y-111540000D01*
X127096653Y-111540000D01*
X127163692Y-111559685D01*
G37*
G04 #@! TD.AperFunction*
G04 #@! TA.AperFunction,Conductor*
G36*
X129703692Y-111559685D02*
G01*
X129749447Y-111612489D01*
X129759391Y-111681647D01*
X129755631Y-111698933D01*
X129750000Y-111718111D01*
X129750000Y-111861888D01*
X129755631Y-111881067D01*
X129755630Y-111950936D01*
X129717855Y-112009714D01*
X129654299Y-112038738D01*
X129636653Y-112040000D01*
X128323347Y-112040000D01*
X128256308Y-112020315D01*
X128210553Y-111967511D01*
X128200609Y-111898353D01*
X128204369Y-111881067D01*
X128210000Y-111861888D01*
X128210000Y-111718111D01*
X128204369Y-111698933D01*
X128204370Y-111629064D01*
X128242145Y-111570286D01*
X128305701Y-111541262D01*
X128323347Y-111540000D01*
X129636653Y-111540000D01*
X129703692Y-111559685D01*
G37*
G04 #@! TD.AperFunction*
G04 #@! TA.AperFunction,Conductor*
G36*
X132243692Y-111559685D02*
G01*
X132289447Y-111612489D01*
X132299391Y-111681647D01*
X132295631Y-111698933D01*
X132290000Y-111718111D01*
X132290000Y-111861888D01*
X132295631Y-111881067D01*
X132295630Y-111950936D01*
X132257855Y-112009714D01*
X132194299Y-112038738D01*
X132176653Y-112040000D01*
X130863347Y-112040000D01*
X130796308Y-112020315D01*
X130750553Y-111967511D01*
X130740609Y-111898353D01*
X130744369Y-111881067D01*
X130750000Y-111861888D01*
X130750000Y-111718111D01*
X130744369Y-111698933D01*
X130744370Y-111629064D01*
X130782145Y-111570286D01*
X130845701Y-111541262D01*
X130863347Y-111540000D01*
X132176653Y-111540000D01*
X132243692Y-111559685D01*
G37*
G04 #@! TD.AperFunction*
G04 #@! TA.AperFunction,Conductor*
G36*
X134783692Y-111559685D02*
G01*
X134829447Y-111612489D01*
X134839391Y-111681647D01*
X134835631Y-111698933D01*
X134830000Y-111718111D01*
X134830000Y-111861888D01*
X134835631Y-111881067D01*
X134835630Y-111950936D01*
X134797855Y-112009714D01*
X134734299Y-112038738D01*
X134716653Y-112040000D01*
X133403347Y-112040000D01*
X133336308Y-112020315D01*
X133290553Y-111967511D01*
X133280609Y-111898353D01*
X133284369Y-111881067D01*
X133290000Y-111861888D01*
X133290000Y-111718111D01*
X133284369Y-111698933D01*
X133284370Y-111629064D01*
X133322145Y-111570286D01*
X133385701Y-111541262D01*
X133403347Y-111540000D01*
X134716653Y-111540000D01*
X134783692Y-111559685D01*
G37*
G04 #@! TD.AperFunction*
G04 #@! TA.AperFunction,Conductor*
G36*
X137323692Y-111559685D02*
G01*
X137369447Y-111612489D01*
X137379391Y-111681647D01*
X137375631Y-111698933D01*
X137370000Y-111718111D01*
X137370000Y-111861888D01*
X137375631Y-111881067D01*
X137375630Y-111950936D01*
X137337855Y-112009714D01*
X137274299Y-112038738D01*
X137256653Y-112040000D01*
X135943347Y-112040000D01*
X135876308Y-112020315D01*
X135830553Y-111967511D01*
X135820609Y-111898353D01*
X135824369Y-111881067D01*
X135830000Y-111861888D01*
X135830000Y-111718111D01*
X135824369Y-111698933D01*
X135824370Y-111629064D01*
X135862145Y-111570286D01*
X135925701Y-111541262D01*
X135943347Y-111540000D01*
X137256653Y-111540000D01*
X137323692Y-111559685D01*
G37*
G04 #@! TD.AperFunction*
G04 #@! TA.AperFunction,Conductor*
G36*
X131861138Y-106895185D02*
G01*
X131906893Y-106947989D01*
X131916837Y-107017147D01*
X131887812Y-107080703D01*
X131881780Y-107087181D01*
X130775028Y-108193933D01*
X130713705Y-108227418D01*
X130644013Y-108222434D01*
X130642554Y-108221879D01*
X130552461Y-108186977D01*
X130552456Y-108186976D01*
X130351976Y-108149500D01*
X130148024Y-108149500D01*
X129947544Y-108186976D01*
X129947541Y-108186976D01*
X129947541Y-108186977D01*
X129757364Y-108260651D01*
X129757357Y-108260655D01*
X129583960Y-108368017D01*
X129583958Y-108368019D01*
X129433237Y-108505418D01*
X129310327Y-108668178D01*
X129219422Y-108850739D01*
X129219417Y-108850752D01*
X129163602Y-109046917D01*
X129144785Y-109249999D01*
X129144785Y-109250000D01*
X129163602Y-109453082D01*
X129219417Y-109649247D01*
X129219422Y-109649260D01*
X129310327Y-109831821D01*
X129433237Y-109994581D01*
X129583958Y-110131980D01*
X129583960Y-110131982D01*
X129683141Y-110193392D01*
X129757363Y-110239348D01*
X129838283Y-110270696D01*
X129893685Y-110313269D01*
X129917276Y-110379035D01*
X129901565Y-110447116D01*
X129851542Y-110495895D01*
X129825586Y-110506097D01*
X129786519Y-110516565D01*
X129786507Y-110516570D01*
X129572422Y-110616399D01*
X129572420Y-110616400D01*
X129378926Y-110751886D01*
X129378920Y-110751891D01*
X129211891Y-110918920D01*
X129211890Y-110918922D01*
X129081575Y-111105031D01*
X129026998Y-111148655D01*
X128957499Y-111155848D01*
X128895145Y-111124326D01*
X128878425Y-111105031D01*
X128748109Y-110918922D01*
X128748108Y-110918920D01*
X128581082Y-110751894D01*
X128387578Y-110616399D01*
X128173492Y-110516570D01*
X128173477Y-110516564D01*
X128134414Y-110506097D01*
X128074754Y-110469732D01*
X128044226Y-110406885D01*
X128052521Y-110337509D01*
X128097007Y-110283632D01*
X128121710Y-110270698D01*
X128202637Y-110239348D01*
X128376041Y-110131981D01*
X128526764Y-109994579D01*
X128649673Y-109831821D01*
X128740582Y-109649250D01*
X128796397Y-109453083D01*
X128815215Y-109250000D01*
X128796397Y-109046917D01*
X128740582Y-108850750D01*
X128740581Y-108850748D01*
X128739013Y-108845237D01*
X128740994Y-108844673D01*
X128735902Y-108784174D01*
X128768614Y-108722435D01*
X128769628Y-108721407D01*
X130579217Y-106911819D01*
X130640541Y-106878334D01*
X130666899Y-106875500D01*
X131794099Y-106875500D01*
X131861138Y-106895185D01*
G37*
G04 #@! TD.AperFunction*
G04 #@! TA.AperFunction,Conductor*
G36*
X126330703Y-92112186D02*
G01*
X126337181Y-92118218D01*
X126947849Y-92728886D01*
X126963977Y-92748745D01*
X126969916Y-92757836D01*
X126997932Y-92779641D01*
X127003693Y-92784730D01*
X127006482Y-92787519D01*
X127025483Y-92801085D01*
X127068811Y-92834809D01*
X127075704Y-92838539D01*
X127082796Y-92842006D01*
X127082801Y-92842010D01*
X127125813Y-92854815D01*
X127135403Y-92857670D01*
X127187338Y-92875500D01*
X127195072Y-92876790D01*
X127202910Y-92877767D01*
X127202912Y-92877768D01*
X127202913Y-92877767D01*
X127202914Y-92877768D01*
X127257756Y-92875500D01*
X127294099Y-92875500D01*
X127361138Y-92895185D01*
X127406893Y-92947989D01*
X127416837Y-93017147D01*
X127387812Y-93080703D01*
X127381780Y-93087181D01*
X127005601Y-93463360D01*
X126944278Y-93496845D01*
X126935571Y-93498416D01*
X126928040Y-93499498D01*
X126789949Y-93540045D01*
X126668873Y-93617856D01*
X126574623Y-93726626D01*
X126574622Y-93726628D01*
X126514834Y-93857543D01*
X126494353Y-94000000D01*
X126514834Y-94142456D01*
X126548214Y-94215547D01*
X126574623Y-94273373D01*
X126668872Y-94382143D01*
X126789947Y-94459953D01*
X126789950Y-94459954D01*
X126789949Y-94459954D01*
X126920887Y-94498400D01*
X126979665Y-94536174D01*
X127008691Y-94599728D01*
X127009815Y-94607543D01*
X127014835Y-94642457D01*
X127053807Y-94727793D01*
X127072608Y-94768962D01*
X127074623Y-94773373D01*
X127168872Y-94882143D01*
X127289947Y-94959953D01*
X127289950Y-94959954D01*
X127289949Y-94959954D01*
X127420887Y-94998400D01*
X127479665Y-95036174D01*
X127508691Y-95099728D01*
X127513397Y-95132453D01*
X127514835Y-95142457D01*
X127574623Y-95273373D01*
X127668872Y-95382143D01*
X127789947Y-95459953D01*
X127789950Y-95459954D01*
X127789949Y-95459954D01*
X127920887Y-95498400D01*
X127979665Y-95536174D01*
X128008691Y-95599728D01*
X128012325Y-95625000D01*
X128014835Y-95642457D01*
X128074623Y-95773373D01*
X128168872Y-95882143D01*
X128289947Y-95959953D01*
X128289950Y-95959954D01*
X128289949Y-95959954D01*
X128420887Y-95998400D01*
X128479665Y-96036174D01*
X128508691Y-96099728D01*
X128513644Y-96134176D01*
X128514835Y-96142457D01*
X128574623Y-96273373D01*
X128668872Y-96382143D01*
X128789947Y-96459953D01*
X128789950Y-96459954D01*
X128789949Y-96459954D01*
X128920887Y-96498400D01*
X128979665Y-96536174D01*
X129008691Y-96599728D01*
X129012397Y-96625500D01*
X129014835Y-96642457D01*
X129074623Y-96773373D01*
X129168872Y-96882143D01*
X129289947Y-96959953D01*
X129289950Y-96959954D01*
X129289949Y-96959954D01*
X129420887Y-96998400D01*
X129479665Y-97036174D01*
X129508691Y-97099728D01*
X129512776Y-97128139D01*
X129514835Y-97142457D01*
X129574623Y-97273373D01*
X129668872Y-97382143D01*
X129789947Y-97459953D01*
X129789950Y-97459954D01*
X129789949Y-97459954D01*
X129928036Y-97500499D01*
X129928038Y-97500500D01*
X129928039Y-97500500D01*
X130071962Y-97500500D01*
X130071962Y-97500499D01*
X130210053Y-97459953D01*
X130331128Y-97382143D01*
X130425377Y-97273373D01*
X130485165Y-97142457D01*
X130495509Y-97070502D01*
X130524533Y-97006949D01*
X130530551Y-97000484D01*
X130869217Y-96661819D01*
X130930541Y-96628334D01*
X130956899Y-96625500D01*
X136294100Y-96625500D01*
X136361139Y-96645185D01*
X136406894Y-96697989D01*
X136416838Y-96767147D01*
X136387813Y-96830703D01*
X136381781Y-96837181D01*
X135380781Y-97838181D01*
X135319458Y-97871666D01*
X135293100Y-97874500D01*
X129301804Y-97874500D01*
X129276359Y-97871861D01*
X129265733Y-97869633D01*
X129265730Y-97869633D01*
X129230508Y-97874023D01*
X129222832Y-97874500D01*
X129218886Y-97874500D01*
X129201615Y-97877381D01*
X129195858Y-97878342D01*
X129141370Y-97885134D01*
X129133857Y-97887371D01*
X129126387Y-97889936D01*
X129078122Y-97916055D01*
X129028792Y-97940171D01*
X129022375Y-97944753D01*
X129016175Y-97949579D01*
X128978992Y-97989970D01*
X128005601Y-98963360D01*
X127944278Y-98996845D01*
X127935571Y-98998416D01*
X127928040Y-98999498D01*
X127789949Y-99040045D01*
X127668873Y-99117856D01*
X127574623Y-99226626D01*
X127574622Y-99226628D01*
X127514834Y-99357543D01*
X127502792Y-99441301D01*
X127473767Y-99504857D01*
X127414988Y-99542631D01*
X127345119Y-99542631D01*
X127292373Y-99511335D01*
X126161819Y-98380781D01*
X126128334Y-98319458D01*
X126125500Y-98293100D01*
X126125500Y-92205899D01*
X126145185Y-92138860D01*
X126197989Y-92093105D01*
X126267147Y-92083161D01*
X126330703Y-92112186D01*
G37*
G04 #@! TD.AperFunction*
G04 #@! TA.AperFunction,Conductor*
G36*
X165177512Y-70619507D02*
G01*
X165230315Y-70665262D01*
X165250000Y-70732301D01*
X165250000Y-72047698D01*
X165230315Y-72114737D01*
X165177511Y-72160492D01*
X165108355Y-72170436D01*
X165035766Y-72160000D01*
X165035763Y-72160000D01*
X164964237Y-72160000D01*
X164964233Y-72160000D01*
X164891645Y-72170436D01*
X164822487Y-72160492D01*
X164769684Y-72114736D01*
X164750000Y-72047698D01*
X164750000Y-70732301D01*
X164769685Y-70665262D01*
X164822489Y-70619507D01*
X164891647Y-70609563D01*
X164964237Y-70620000D01*
X164964238Y-70620000D01*
X165035762Y-70620000D01*
X165035763Y-70620000D01*
X165108353Y-70609563D01*
X165177512Y-70619507D01*
G37*
G04 #@! TD.AperFunction*
G04 #@! TA.AperFunction,Conductor*
G36*
X165177512Y-68079507D02*
G01*
X165230315Y-68125262D01*
X165250000Y-68192301D01*
X165250000Y-69507698D01*
X165230315Y-69574737D01*
X165177511Y-69620492D01*
X165108355Y-69630436D01*
X165035766Y-69620000D01*
X165035763Y-69620000D01*
X164964237Y-69620000D01*
X164964233Y-69620000D01*
X164891645Y-69630436D01*
X164822487Y-69620492D01*
X164769684Y-69574736D01*
X164750000Y-69507698D01*
X164750000Y-68192301D01*
X164769685Y-68125262D01*
X164822489Y-68079507D01*
X164891647Y-68069563D01*
X164964237Y-68080000D01*
X164964238Y-68080000D01*
X165035762Y-68080000D01*
X165035763Y-68080000D01*
X165108353Y-68069563D01*
X165177512Y-68079507D01*
G37*
G04 #@! TD.AperFunction*
G04 #@! TA.AperFunction,Conductor*
G36*
X165177512Y-65539507D02*
G01*
X165230315Y-65585262D01*
X165250000Y-65652301D01*
X165250000Y-66967698D01*
X165230315Y-67034737D01*
X165177511Y-67080492D01*
X165108355Y-67090436D01*
X165035766Y-67080000D01*
X165035763Y-67080000D01*
X164964237Y-67080000D01*
X164964233Y-67080000D01*
X164891645Y-67090436D01*
X164822487Y-67080492D01*
X164769684Y-67034736D01*
X164750000Y-66967698D01*
X164750000Y-65652301D01*
X164769685Y-65585262D01*
X164822489Y-65539507D01*
X164891647Y-65529563D01*
X164964237Y-65540000D01*
X164964238Y-65540000D01*
X165035762Y-65540000D01*
X165035763Y-65540000D01*
X165108353Y-65529563D01*
X165177512Y-65539507D01*
G37*
G04 #@! TD.AperFunction*
G04 #@! TA.AperFunction,Conductor*
G36*
X174443039Y-53019685D02*
G01*
X174488794Y-53072489D01*
X174500000Y-53124000D01*
X174500000Y-114376000D01*
X174480315Y-114443039D01*
X174427511Y-114488794D01*
X174376000Y-114500000D01*
X142000000Y-114500000D01*
X142000000Y-131876000D01*
X141980315Y-131943039D01*
X141927511Y-131988794D01*
X141876000Y-132000000D01*
X73124000Y-132000000D01*
X73056961Y-131980315D01*
X73011206Y-131927511D01*
X73000000Y-131876000D01*
X73000000Y-131000000D01*
X84344722Y-131000000D01*
X84363762Y-131156818D01*
X84419779Y-131304523D01*
X84419780Y-131304523D01*
X84509517Y-131434530D01*
X84627760Y-131539283D01*
X84627762Y-131539284D01*
X84767634Y-131612696D01*
X84921014Y-131650500D01*
X84921015Y-131650500D01*
X85078985Y-131650500D01*
X85232365Y-131612696D01*
X85232364Y-131612695D01*
X85372240Y-131539283D01*
X85490483Y-131434530D01*
X85580220Y-131304523D01*
X85636237Y-131156818D01*
X85655278Y-131000000D01*
X85636237Y-130843182D01*
X85580220Y-130695477D01*
X85522450Y-130611782D01*
X85500567Y-130545427D01*
X85500500Y-130541342D01*
X85500500Y-128567909D01*
X103141779Y-128567909D01*
X103171468Y-128837735D01*
X103171470Y-128837748D01*
X103234178Y-129077613D01*
X103240132Y-129100384D01*
X103346303Y-129350224D01*
X103418588Y-129468668D01*
X103487716Y-129581940D01*
X103487717Y-129581942D01*
X103487719Y-129581944D01*
X103661368Y-129790604D01*
X103863546Y-129971757D01*
X104089947Y-130121542D01*
X104335743Y-130236767D01*
X104595697Y-130314975D01*
X104864268Y-130354500D01*
X104864273Y-130354500D01*
X105067786Y-130354500D01*
X105119394Y-130350722D01*
X105270740Y-130339645D01*
X105381488Y-130314975D01*
X105535702Y-130280623D01*
X105535704Y-130280622D01*
X105535709Y-130280621D01*
X105789261Y-130183646D01*
X106025991Y-130050786D01*
X106240853Y-129884875D01*
X106429269Y-129689447D01*
X106587223Y-129468668D01*
X106711348Y-129227244D01*
X106798998Y-128970320D01*
X106848306Y-128703371D01*
X106858220Y-128432089D01*
X106828530Y-128162253D01*
X106759868Y-127899616D01*
X106653697Y-127649776D01*
X106532740Y-127451580D01*
X106512283Y-127418059D01*
X106512282Y-127418057D01*
X106422814Y-127310551D01*
X106338632Y-127209396D01*
X106269035Y-127147037D01*
X106136454Y-127028243D01*
X105910055Y-126878459D01*
X105910053Y-126878458D01*
X105664257Y-126763233D01*
X105404303Y-126685025D01*
X105404301Y-126685024D01*
X105404299Y-126685024D01*
X105307999Y-126670852D01*
X105135732Y-126645500D01*
X104932219Y-126645500D01*
X104932214Y-126645500D01*
X104729260Y-126660355D01*
X104729246Y-126660357D01*
X104464297Y-126719376D01*
X104464290Y-126719379D01*
X104210736Y-126816355D01*
X103974012Y-126949211D01*
X103759140Y-127115130D01*
X103759139Y-127115132D01*
X103570734Y-127310549D01*
X103570732Y-127310551D01*
X103412778Y-127531329D01*
X103288656Y-127772746D01*
X103288649Y-127772762D01*
X103201005Y-128029666D01*
X103201001Y-128029684D01*
X103151693Y-128296631D01*
X103151693Y-128296633D01*
X103141779Y-128567909D01*
X85500500Y-128567909D01*
X85500500Y-126750000D01*
X92594722Y-126750000D01*
X92613762Y-126906818D01*
X92654932Y-127015373D01*
X92669780Y-127054523D01*
X92759517Y-127184530D01*
X92877760Y-127289283D01*
X92877762Y-127289284D01*
X93017634Y-127362696D01*
X93171014Y-127400500D01*
X93171015Y-127400500D01*
X93328985Y-127400500D01*
X93482365Y-127362696D01*
X93514504Y-127345828D01*
X93622240Y-127289283D01*
X93740483Y-127184530D01*
X93830220Y-127054523D01*
X93886237Y-126906818D01*
X93905278Y-126750000D01*
X93894394Y-126660357D01*
X93886237Y-126593181D01*
X93844584Y-126483353D01*
X93830220Y-126445477D01*
X93740483Y-126315470D01*
X93622240Y-126210717D01*
X93622238Y-126210716D01*
X93622237Y-126210715D01*
X93482365Y-126137303D01*
X93328986Y-126099500D01*
X93328985Y-126099500D01*
X93171015Y-126099500D01*
X93171014Y-126099500D01*
X93017634Y-126137303D01*
X92877762Y-126210715D01*
X92759516Y-126315471D01*
X92669781Y-126445475D01*
X92669780Y-126445476D01*
X92613762Y-126593181D01*
X92594722Y-126749999D01*
X92594722Y-126750000D01*
X85500500Y-126750000D01*
X85500500Y-122208657D01*
X85520185Y-122141618D01*
X85522450Y-122138217D01*
X85580219Y-122054524D01*
X85580220Y-122054523D01*
X85636237Y-121906818D01*
X85655278Y-121750000D01*
X85653412Y-121734627D01*
X85636237Y-121593181D01*
X85591919Y-121476326D01*
X85580220Y-121445477D01*
X85522450Y-121361782D01*
X85500567Y-121295427D01*
X85500500Y-121291342D01*
X85500500Y-115958657D01*
X85520185Y-115891618D01*
X85522450Y-115888217D01*
X85580219Y-115804524D01*
X85580220Y-115804523D01*
X85636237Y-115656818D01*
X85655278Y-115500000D01*
X85636237Y-115343182D01*
X85619077Y-115297936D01*
X85591765Y-115225919D01*
X85580220Y-115195477D01*
X85522450Y-115111782D01*
X85500567Y-115045427D01*
X85500500Y-115041342D01*
X85500500Y-115000000D01*
X113594722Y-115000000D01*
X113613762Y-115156818D01*
X113653958Y-115262804D01*
X113669780Y-115304523D01*
X113759517Y-115434530D01*
X113877760Y-115539283D01*
X113877762Y-115539284D01*
X114017634Y-115612696D01*
X114171014Y-115650500D01*
X114171015Y-115650500D01*
X114328985Y-115650500D01*
X114482365Y-115612696D01*
X114482364Y-115612695D01*
X114622240Y-115539283D01*
X114740483Y-115434530D01*
X114830220Y-115304523D01*
X114886237Y-115156818D01*
X114905278Y-115000000D01*
X114898458Y-114943827D01*
X114886237Y-114843181D01*
X114862138Y-114779638D01*
X114830220Y-114695477D01*
X114740483Y-114565470D01*
X114622240Y-114460717D01*
X114622238Y-114460716D01*
X114622237Y-114460715D01*
X114482365Y-114387303D01*
X114328986Y-114349500D01*
X114328985Y-114349500D01*
X114171015Y-114349500D01*
X114171014Y-114349500D01*
X114017634Y-114387303D01*
X113877762Y-114460715D01*
X113759516Y-114565471D01*
X113669781Y-114695475D01*
X113669780Y-114695476D01*
X113613762Y-114843181D01*
X113594722Y-114999999D01*
X113594722Y-115000000D01*
X85500500Y-115000000D01*
X85500500Y-111250000D01*
X92594722Y-111250000D01*
X92613762Y-111406818D01*
X92654932Y-111515373D01*
X92669780Y-111554523D01*
X92759517Y-111684530D01*
X92877760Y-111789283D01*
X92877762Y-111789284D01*
X93017634Y-111862696D01*
X93171014Y-111900500D01*
X93171015Y-111900500D01*
X93328985Y-111900500D01*
X93482365Y-111862696D01*
X93514504Y-111845828D01*
X93622240Y-111789283D01*
X93740483Y-111684530D01*
X93830220Y-111554523D01*
X93886237Y-111406818D01*
X93905278Y-111250000D01*
X93887257Y-111101578D01*
X93886237Y-111093181D01*
X93850897Y-111000000D01*
X118094721Y-111000000D01*
X118113762Y-111156818D01*
X118149102Y-111250000D01*
X118169780Y-111304523D01*
X118259517Y-111434530D01*
X118377760Y-111539283D01*
X118377762Y-111539284D01*
X118517634Y-111612696D01*
X118671014Y-111650500D01*
X118671015Y-111650500D01*
X118828985Y-111650500D01*
X118982365Y-111612696D01*
X119063169Y-111570286D01*
X119122240Y-111539283D01*
X119240483Y-111434530D01*
X119330220Y-111304523D01*
X119386237Y-111156818D01*
X119405278Y-111000000D01*
X119401945Y-110972545D01*
X119386237Y-110843181D01*
X119347185Y-110740210D01*
X119330220Y-110695477D01*
X119240483Y-110565470D01*
X119122240Y-110460717D01*
X119122238Y-110460716D01*
X119122237Y-110460715D01*
X118982365Y-110387303D01*
X118828986Y-110349500D01*
X118828985Y-110349500D01*
X118671015Y-110349500D01*
X118671014Y-110349500D01*
X118517634Y-110387303D01*
X118377762Y-110460715D01*
X118259516Y-110565471D01*
X118169781Y-110695475D01*
X118169780Y-110695476D01*
X118113762Y-110843181D01*
X118094721Y-110999999D01*
X118094721Y-111000000D01*
X93850897Y-111000000D01*
X93844584Y-110983353D01*
X93830220Y-110945477D01*
X93740483Y-110815470D01*
X93622240Y-110710717D01*
X93622238Y-110710716D01*
X93622237Y-110710715D01*
X93482365Y-110637303D01*
X93328986Y-110599500D01*
X93328985Y-110599500D01*
X93171015Y-110599500D01*
X93171014Y-110599500D01*
X93017634Y-110637303D01*
X92877762Y-110710715D01*
X92759516Y-110815471D01*
X92669781Y-110945475D01*
X92669780Y-110945476D01*
X92613762Y-111093181D01*
X92594722Y-111249999D01*
X92594722Y-111250000D01*
X85500500Y-111250000D01*
X85500500Y-106708657D01*
X85520185Y-106641618D01*
X85522450Y-106638217D01*
X85556954Y-106588229D01*
X85580220Y-106554523D01*
X85636237Y-106406818D01*
X85655278Y-106250000D01*
X85653412Y-106234627D01*
X85636237Y-106093181D01*
X85591919Y-105976326D01*
X85580220Y-105945477D01*
X85522450Y-105861782D01*
X85500567Y-105795427D01*
X85500500Y-105791342D01*
X85500500Y-105000000D01*
X115819222Y-105000000D01*
X115838262Y-105156818D01*
X115886775Y-105284733D01*
X115894280Y-105304523D01*
X115984017Y-105434530D01*
X116102260Y-105539283D01*
X116242135Y-105612696D01*
X116327376Y-105633705D01*
X116385384Y-105666421D01*
X118735148Y-108016185D01*
X118751276Y-108036044D01*
X118757215Y-108045135D01*
X118785231Y-108066940D01*
X118790992Y-108072029D01*
X118793781Y-108074818D01*
X118812782Y-108088384D01*
X118848385Y-108116095D01*
X118856110Y-108122108D01*
X118863003Y-108125838D01*
X118870095Y-108129305D01*
X118870100Y-108129309D01*
X118908252Y-108140667D01*
X118922702Y-108144969D01*
X118974637Y-108162799D01*
X118982371Y-108164089D01*
X118990209Y-108165066D01*
X118990211Y-108165067D01*
X118990212Y-108165066D01*
X118990213Y-108165067D01*
X119045055Y-108162799D01*
X119244893Y-108162799D01*
X119311932Y-108182484D01*
X119357687Y-108235288D01*
X119367631Y-108304446D01*
X119360835Y-108330769D01*
X119351464Y-108355477D01*
X119351464Y-108355479D01*
X119332423Y-108512298D01*
X119332423Y-108512299D01*
X119351463Y-108669117D01*
X119407481Y-108816822D01*
X119407482Y-108816823D01*
X119497218Y-108946830D01*
X119570427Y-109011685D01*
X119607554Y-109070873D01*
X119612201Y-109104501D01*
X119612201Y-110185897D01*
X119609563Y-110211335D01*
X119607334Y-110221969D01*
X119607334Y-110221970D01*
X119607334Y-110221972D01*
X119611724Y-110257192D01*
X119612201Y-110264868D01*
X119612201Y-110268817D01*
X119616043Y-110291842D01*
X119622835Y-110346328D01*
X119625074Y-110353848D01*
X119627635Y-110361309D01*
X119627636Y-110361311D01*
X119646201Y-110395617D01*
X119653756Y-110409578D01*
X119677875Y-110458912D01*
X119682443Y-110465310D01*
X119687283Y-110471528D01*
X119727672Y-110508710D01*
X123947849Y-114728886D01*
X123963977Y-114748745D01*
X123969916Y-114757836D01*
X123997932Y-114779641D01*
X124003693Y-114784730D01*
X124006482Y-114787519D01*
X124025483Y-114801085D01*
X124067700Y-114833944D01*
X124068811Y-114834809D01*
X124075704Y-114838539D01*
X124082796Y-114842006D01*
X124082801Y-114842010D01*
X124086738Y-114843182D01*
X124135403Y-114857670D01*
X124187338Y-114875500D01*
X124195072Y-114876790D01*
X124202910Y-114877767D01*
X124202912Y-114877768D01*
X124202913Y-114877767D01*
X124202914Y-114877768D01*
X124257756Y-114875500D01*
X140323196Y-114875500D01*
X140348641Y-114878139D01*
X140352440Y-114878935D01*
X140359268Y-114880367D01*
X140380225Y-114877754D01*
X140394492Y-114875977D01*
X140402168Y-114875500D01*
X140406112Y-114875500D01*
X140406114Y-114875500D01*
X140406116Y-114875499D01*
X140406122Y-114875499D01*
X140421487Y-114872934D01*
X140429140Y-114871657D01*
X140483626Y-114864866D01*
X140483627Y-114864865D01*
X140483629Y-114864865D01*
X140491141Y-114862628D01*
X140498606Y-114860066D01*
X140498606Y-114860065D01*
X140498610Y-114860065D01*
X140546877Y-114833944D01*
X140596211Y-114809826D01*
X140596213Y-114809823D01*
X140602594Y-114805268D01*
X140608819Y-114800422D01*
X140608826Y-114800419D01*
X140646008Y-114760028D01*
X143263662Y-112142374D01*
X147499500Y-112142374D01*
X147514859Y-112268868D01*
X147514860Y-112268874D01*
X147575182Y-112427931D01*
X147637475Y-112518177D01*
X147671817Y-112567929D01*
X147732332Y-112621540D01*
X147799150Y-112680736D01*
X147949773Y-112759789D01*
X147949775Y-112759790D01*
X148114944Y-112800500D01*
X148285056Y-112800500D01*
X148450225Y-112759790D01*
X148548505Y-112708208D01*
X148600849Y-112680736D01*
X148600850Y-112680734D01*
X148600852Y-112680734D01*
X148728183Y-112567929D01*
X148824818Y-112427930D01*
X148885140Y-112268872D01*
X148900500Y-112142374D01*
X154099500Y-112142374D01*
X154114859Y-112268868D01*
X154114860Y-112268874D01*
X154175182Y-112427931D01*
X154237475Y-112518177D01*
X154271817Y-112567929D01*
X154332332Y-112621540D01*
X154399150Y-112680736D01*
X154549773Y-112759789D01*
X154549775Y-112759790D01*
X154714944Y-112800500D01*
X154885056Y-112800500D01*
X155050225Y-112759790D01*
X155148505Y-112708208D01*
X155200849Y-112680736D01*
X155200850Y-112680734D01*
X155200852Y-112680734D01*
X155328183Y-112567929D01*
X155424818Y-112427930D01*
X155485140Y-112268872D01*
X155500500Y-112142372D01*
X155500500Y-111357628D01*
X155496839Y-111327481D01*
X155485140Y-111231131D01*
X155485139Y-111231125D01*
X155456134Y-111154645D01*
X155424818Y-111072070D01*
X155421947Y-111067911D01*
X155421946Y-111067909D01*
X169141779Y-111067909D01*
X169171468Y-111337735D01*
X169171470Y-111337748D01*
X169236755Y-111587469D01*
X169240132Y-111600384D01*
X169346303Y-111850224D01*
X169407766Y-111950936D01*
X169487716Y-112081940D01*
X169487717Y-112081942D01*
X169538008Y-112142372D01*
X169661368Y-112290604D01*
X169863546Y-112471757D01*
X170089947Y-112621542D01*
X170335743Y-112736767D01*
X170595697Y-112814975D01*
X170864268Y-112854500D01*
X170864273Y-112854500D01*
X171067786Y-112854500D01*
X171119394Y-112850722D01*
X171270740Y-112839645D01*
X171381488Y-112814975D01*
X171535702Y-112780623D01*
X171535704Y-112780622D01*
X171535709Y-112780621D01*
X171789261Y-112683646D01*
X172025991Y-112550786D01*
X172240853Y-112384875D01*
X172429269Y-112189447D01*
X172587223Y-111968668D01*
X172711348Y-111727244D01*
X172758627Y-111588657D01*
X172798994Y-111470333D01*
X172798994Y-111470329D01*
X172798998Y-111470320D01*
X172848306Y-111203371D01*
X172858220Y-110932089D01*
X172828530Y-110662253D01*
X172759868Y-110399616D01*
X172653697Y-110149776D01*
X172512281Y-109918056D01*
X172338632Y-109709396D01*
X172271516Y-109649260D01*
X172136454Y-109528243D01*
X171910055Y-109378459D01*
X171893568Y-109370730D01*
X171664257Y-109263233D01*
X171404303Y-109185025D01*
X171404301Y-109185024D01*
X171404299Y-109185024D01*
X171307999Y-109170852D01*
X171135732Y-109145500D01*
X170932219Y-109145500D01*
X170932214Y-109145500D01*
X170729260Y-109160355D01*
X170729246Y-109160357D01*
X170464297Y-109219376D01*
X170464290Y-109219379D01*
X170210736Y-109316355D01*
X169974012Y-109449211D01*
X169759140Y-109615130D01*
X169759139Y-109615132D01*
X169570734Y-109810549D01*
X169570732Y-109810551D01*
X169412778Y-110031329D01*
X169288656Y-110272746D01*
X169288649Y-110272762D01*
X169201005Y-110529666D01*
X169201001Y-110529684D01*
X169151693Y-110796631D01*
X169151693Y-110796633D01*
X169141779Y-111067909D01*
X155421946Y-111067909D01*
X155375071Y-111000000D01*
X155328183Y-110932071D01*
X155215926Y-110832620D01*
X155200849Y-110819263D01*
X155050226Y-110740210D01*
X154885056Y-110699500D01*
X154714944Y-110699500D01*
X154549773Y-110740210D01*
X154399150Y-110819263D01*
X154271816Y-110932072D01*
X154175182Y-111072068D01*
X154114860Y-111231125D01*
X154114859Y-111231131D01*
X154099500Y-111357625D01*
X154099500Y-112142374D01*
X148900500Y-112142374D01*
X148900500Y-112142372D01*
X148900500Y-111357628D01*
X148896839Y-111327481D01*
X148885140Y-111231131D01*
X148885139Y-111231125D01*
X148856134Y-111154645D01*
X148824818Y-111072070D01*
X148821947Y-111067911D01*
X148775071Y-111000000D01*
X148728183Y-110932071D01*
X148615926Y-110832620D01*
X148600849Y-110819263D01*
X148450226Y-110740210D01*
X148285056Y-110699500D01*
X148114944Y-110699500D01*
X147949773Y-110740210D01*
X147799150Y-110819263D01*
X147671816Y-110932072D01*
X147575182Y-111072068D01*
X147514860Y-111231125D01*
X147514859Y-111231131D01*
X147499500Y-111357625D01*
X147499500Y-112142374D01*
X143263662Y-112142374D01*
X148557002Y-106849034D01*
X148618323Y-106815551D01*
X148688015Y-106820535D01*
X148743948Y-106862407D01*
X148764456Y-106904623D01*
X148797776Y-107028976D01*
X148881041Y-107183399D01*
X148881041Y-107183400D01*
X148997674Y-107314459D01*
X149141388Y-107415088D01*
X149141393Y-107415090D01*
X149141395Y-107415091D01*
X149304429Y-107479861D01*
X149304431Y-107479861D01*
X149304433Y-107479862D01*
X149478023Y-107505289D01*
X149652797Y-107489999D01*
X149819334Y-107434814D01*
X149968656Y-107342712D01*
X150524548Y-106786818D01*
X150585871Y-106753334D01*
X150612229Y-106750500D01*
X156241930Y-106750500D01*
X156259900Y-106751809D01*
X156283658Y-106755289D01*
X156335703Y-106750735D01*
X156341105Y-106750500D01*
X156349339Y-106750500D01*
X156349344Y-106750500D01*
X156360962Y-106749141D01*
X156381911Y-106746693D01*
X156394663Y-106745577D01*
X156458432Y-106739999D01*
X156458440Y-106739996D01*
X156465501Y-106738539D01*
X156465513Y-106738598D01*
X156472878Y-106736965D01*
X156472864Y-106736906D01*
X156479881Y-106735241D01*
X156479890Y-106735241D01*
X156552058Y-106708974D01*
X156624969Y-106684814D01*
X156624978Y-106684807D01*
X156631517Y-106681760D01*
X156631543Y-106681816D01*
X156638325Y-106678532D01*
X156638298Y-106678478D01*
X156644741Y-106675240D01*
X156644752Y-106675237D01*
X156708918Y-106633034D01*
X156774291Y-106592712D01*
X156774297Y-106592705D01*
X156779960Y-106588229D01*
X156779997Y-106588277D01*
X156785839Y-106583518D01*
X156785799Y-106583471D01*
X156791321Y-106578836D01*
X156791331Y-106578830D01*
X156814263Y-106554523D01*
X156844021Y-106522982D01*
X158417433Y-104949568D01*
X158735638Y-104631362D01*
X158749267Y-104619585D01*
X158768530Y-104605245D01*
X158768532Y-104605241D01*
X158768534Y-104605241D01*
X158786663Y-104583634D01*
X158802113Y-104565220D01*
X158805767Y-104561234D01*
X158811589Y-104555413D01*
X158831928Y-104529689D01*
X158842292Y-104517338D01*
X158881302Y-104470849D01*
X158881304Y-104470844D01*
X158885272Y-104464814D01*
X158885323Y-104464847D01*
X158889369Y-104458495D01*
X158889317Y-104458463D01*
X158893109Y-104452314D01*
X158893111Y-104452312D01*
X158925569Y-104382704D01*
X158960040Y-104314068D01*
X158960043Y-104314052D01*
X158962510Y-104307279D01*
X158962568Y-104307300D01*
X158965043Y-104300181D01*
X158964985Y-104300162D01*
X158967256Y-104293307D01*
X158976198Y-104250000D01*
X161594722Y-104250000D01*
X161613762Y-104406818D01*
X161664000Y-104539283D01*
X161669780Y-104554523D01*
X161759517Y-104684530D01*
X161877760Y-104789283D01*
X161877762Y-104789284D01*
X162017634Y-104862696D01*
X162171014Y-104900500D01*
X162171015Y-104900500D01*
X162328985Y-104900500D01*
X162482365Y-104862696D01*
X162500911Y-104852962D01*
X162622240Y-104789283D01*
X162740483Y-104684530D01*
X162830220Y-104554523D01*
X162886237Y-104406818D01*
X162905278Y-104250000D01*
X162901678Y-104220346D01*
X162886237Y-104093181D01*
X162842034Y-103976628D01*
X162830220Y-103945477D01*
X162740483Y-103815470D01*
X162622240Y-103710717D01*
X162622238Y-103710716D01*
X162622237Y-103710715D01*
X162482365Y-103637303D01*
X162328986Y-103599500D01*
X162328985Y-103599500D01*
X162171015Y-103599500D01*
X162171014Y-103599500D01*
X162017634Y-103637303D01*
X161877762Y-103710715D01*
X161759516Y-103815471D01*
X161669781Y-103945475D01*
X161669780Y-103945476D01*
X161613762Y-104093181D01*
X161594722Y-104249999D01*
X161594722Y-104250000D01*
X158976198Y-104250000D01*
X158982784Y-104218102D01*
X159000500Y-104143355D01*
X159001339Y-104136183D01*
X159001397Y-104136189D01*
X159002164Y-104128691D01*
X159002104Y-104128686D01*
X159002733Y-104121495D01*
X159002237Y-104104462D01*
X159000500Y-104044737D01*
X159000500Y-94299000D01*
X159001809Y-94281030D01*
X159002129Y-94278842D01*
X159005289Y-94257272D01*
X159000735Y-94205226D01*
X159000500Y-94199823D01*
X159000500Y-94191592D01*
X159000500Y-94191586D01*
X158996693Y-94159019D01*
X158989999Y-94082498D01*
X158989999Y-94082496D01*
X158988539Y-94075424D01*
X158988597Y-94075411D01*
X158986965Y-94068052D01*
X158986906Y-94068067D01*
X158985241Y-94061046D01*
X158985241Y-94061040D01*
X158958974Y-93988871D01*
X158954916Y-93976626D01*
X158934813Y-93915958D01*
X158931764Y-93909419D01*
X158931817Y-93909394D01*
X158928531Y-93902606D01*
X158928479Y-93902633D01*
X158925236Y-93896177D01*
X158908499Y-93870730D01*
X158883034Y-93832011D01*
X158842712Y-93766639D01*
X158842710Y-93766637D01*
X158838234Y-93760976D01*
X158838280Y-93760938D01*
X158833519Y-93755094D01*
X158833474Y-93755133D01*
X158828834Y-93749603D01*
X158772982Y-93696908D01*
X155826074Y-90750000D01*
X158844722Y-90750000D01*
X158863762Y-90906818D01*
X158914289Y-91040045D01*
X158919780Y-91054523D01*
X159009517Y-91184530D01*
X159127760Y-91289283D01*
X159127762Y-91289284D01*
X159267634Y-91362696D01*
X159421014Y-91400500D01*
X159421015Y-91400500D01*
X159578985Y-91400500D01*
X159732365Y-91362696D01*
X159775362Y-91340129D01*
X159872240Y-91289283D01*
X159990483Y-91184530D01*
X160080220Y-91054523D01*
X160136237Y-90906818D01*
X160155278Y-90750000D01*
X160153412Y-90734627D01*
X160136237Y-90593181D01*
X160091919Y-90476326D01*
X160080220Y-90445477D01*
X159990483Y-90315470D01*
X159872240Y-90210717D01*
X159872238Y-90210716D01*
X159872237Y-90210715D01*
X159732365Y-90137303D01*
X159578986Y-90099500D01*
X159578985Y-90099500D01*
X159421015Y-90099500D01*
X159421014Y-90099500D01*
X159267634Y-90137303D01*
X159127762Y-90210715D01*
X159009516Y-90315471D01*
X158919781Y-90445475D01*
X158919780Y-90445476D01*
X158863762Y-90593181D01*
X158844722Y-90749999D01*
X158844722Y-90750000D01*
X155826074Y-90750000D01*
X150826073Y-85750000D01*
X159344722Y-85750000D01*
X159363762Y-85906818D01*
X159419780Y-86054523D01*
X159509517Y-86184530D01*
X159627760Y-86289283D01*
X159627762Y-86289284D01*
X159767634Y-86362696D01*
X159921014Y-86400500D01*
X159921015Y-86400500D01*
X160078985Y-86400500D01*
X160232365Y-86362696D01*
X160232364Y-86362696D01*
X160372240Y-86289283D01*
X160490483Y-86184530D01*
X160580220Y-86054523D01*
X160636237Y-85906818D01*
X160655278Y-85750000D01*
X160638607Y-85612696D01*
X160636237Y-85593181D01*
X160614992Y-85537163D01*
X160580220Y-85445477D01*
X160490483Y-85315470D01*
X160372240Y-85210717D01*
X160372238Y-85210716D01*
X160372237Y-85210715D01*
X160232365Y-85137303D01*
X160078986Y-85099500D01*
X160078985Y-85099500D01*
X159921015Y-85099500D01*
X159921014Y-85099500D01*
X159767634Y-85137303D01*
X159627762Y-85210715D01*
X159509516Y-85315471D01*
X159419781Y-85445475D01*
X159419780Y-85445476D01*
X159363762Y-85593181D01*
X159344722Y-85749999D01*
X159344722Y-85750000D01*
X150826073Y-85750000D01*
X150076073Y-85000000D01*
X156344722Y-85000000D01*
X156363762Y-85156818D01*
X156384203Y-85210715D01*
X156419780Y-85304523D01*
X156509517Y-85434530D01*
X156627760Y-85539283D01*
X156627762Y-85539284D01*
X156767634Y-85612696D01*
X156921014Y-85650500D01*
X156921015Y-85650500D01*
X157078985Y-85650500D01*
X157232365Y-85612696D01*
X157269547Y-85593181D01*
X157372240Y-85539283D01*
X157490483Y-85434530D01*
X157580220Y-85304523D01*
X157636237Y-85156818D01*
X157655278Y-85000000D01*
X157647607Y-84936819D01*
X157636237Y-84843181D01*
X157594042Y-84731923D01*
X157580220Y-84695477D01*
X157490483Y-84565470D01*
X157372240Y-84460717D01*
X157372238Y-84460716D01*
X157372237Y-84460715D01*
X157232365Y-84387303D01*
X157078986Y-84349500D01*
X157078985Y-84349500D01*
X156921015Y-84349500D01*
X156921014Y-84349500D01*
X156767634Y-84387303D01*
X156627762Y-84460715D01*
X156509516Y-84565471D01*
X156419781Y-84695475D01*
X156419780Y-84695476D01*
X156363762Y-84843181D01*
X156344722Y-84999999D01*
X156344722Y-85000000D01*
X150076073Y-85000000D01*
X148740434Y-83664361D01*
X148728654Y-83650730D01*
X148721187Y-83640701D01*
X148714317Y-83631472D01*
X148691941Y-83612696D01*
X148674292Y-83597886D01*
X148670317Y-83594244D01*
X148667395Y-83591322D01*
X148664485Y-83588411D01*
X148638745Y-83568059D01*
X148579914Y-83518694D01*
X148573885Y-83514729D01*
X148573917Y-83514680D01*
X148567558Y-83510628D01*
X148567527Y-83510679D01*
X148561385Y-83506891D01*
X148561383Y-83506890D01*
X148561382Y-83506889D01*
X148522179Y-83488608D01*
X148491763Y-83474424D01*
X148457599Y-83457267D01*
X148423138Y-83439960D01*
X148423136Y-83439959D01*
X148423135Y-83439959D01*
X148416350Y-83437489D01*
X148416370Y-83437433D01*
X148409254Y-83434959D01*
X148409236Y-83435015D01*
X148402376Y-83432742D01*
X148374546Y-83426996D01*
X148327139Y-83417207D01*
X148278177Y-83405603D01*
X148252424Y-83399499D01*
X148245252Y-83398661D01*
X148245258Y-83398601D01*
X148237760Y-83397835D01*
X148237755Y-83397895D01*
X148230565Y-83397265D01*
X148153788Y-83399500D01*
X142973845Y-83399500D01*
X142906806Y-83379815D01*
X142861051Y-83327011D01*
X142851107Y-83257853D01*
X142857903Y-83231529D01*
X142860132Y-83225649D01*
X142886237Y-83156818D01*
X142905278Y-83000000D01*
X152094722Y-83000000D01*
X152113762Y-83156818D01*
X152168517Y-83301192D01*
X152169780Y-83304523D01*
X152259517Y-83434530D01*
X152377760Y-83539283D01*
X152377762Y-83539284D01*
X152517634Y-83612696D01*
X152671014Y-83650500D01*
X152671015Y-83650500D01*
X152828985Y-83650500D01*
X152982365Y-83612696D01*
X153010569Y-83597893D01*
X153122240Y-83539283D01*
X153240483Y-83434530D01*
X153330220Y-83304523D01*
X153386237Y-83156818D01*
X153405278Y-83000000D01*
X153403412Y-82984627D01*
X153386237Y-82843181D01*
X153341919Y-82726326D01*
X153330220Y-82695477D01*
X153240483Y-82565470D01*
X153122240Y-82460717D01*
X153122238Y-82460716D01*
X153122237Y-82460715D01*
X152982365Y-82387303D01*
X152828986Y-82349500D01*
X152828985Y-82349500D01*
X152671015Y-82349500D01*
X152671014Y-82349500D01*
X152517634Y-82387303D01*
X152377762Y-82460715D01*
X152377759Y-82460717D01*
X152377760Y-82460717D01*
X152269549Y-82556583D01*
X152259516Y-82565471D01*
X152169781Y-82695475D01*
X152169780Y-82695476D01*
X152113762Y-82843181D01*
X152094722Y-82999999D01*
X152094722Y-83000000D01*
X142905278Y-83000000D01*
X142903412Y-82984627D01*
X142886237Y-82843181D01*
X142841919Y-82726326D01*
X142830220Y-82695477D01*
X142740483Y-82565470D01*
X142622240Y-82460717D01*
X142622238Y-82460716D01*
X142622237Y-82460715D01*
X142482365Y-82387303D01*
X142328986Y-82349500D01*
X142328985Y-82349500D01*
X142171015Y-82349500D01*
X142171014Y-82349500D01*
X142017634Y-82387303D01*
X141877762Y-82460715D01*
X141877759Y-82460717D01*
X141877760Y-82460717D01*
X141769549Y-82556583D01*
X141759516Y-82565471D01*
X141669781Y-82695475D01*
X141669780Y-82695476D01*
X141613762Y-82843181D01*
X141594722Y-82999999D01*
X141594722Y-83000000D01*
X141613763Y-83156818D01*
X141642097Y-83231529D01*
X141647464Y-83301192D01*
X141614317Y-83362698D01*
X141553178Y-83396520D01*
X141526155Y-83399500D01*
X138012229Y-83399500D01*
X137945190Y-83379815D01*
X137924548Y-83363181D01*
X136578666Y-82017299D01*
X148362021Y-82017299D01*
X148381061Y-82174117D01*
X148423804Y-82286819D01*
X148437079Y-82321822D01*
X148526816Y-82451829D01*
X148645059Y-82556582D01*
X148645061Y-82556583D01*
X148784933Y-82629995D01*
X148938313Y-82667799D01*
X148938314Y-82667799D01*
X149096284Y-82667799D01*
X149249664Y-82629995D01*
X149349468Y-82577613D01*
X149389539Y-82556582D01*
X149507782Y-82451829D01*
X149597519Y-82321822D01*
X149653536Y-82174117D01*
X149672577Y-82017299D01*
X149653536Y-81860481D01*
X149650893Y-81853513D01*
X149627483Y-81791784D01*
X149597519Y-81712776D01*
X149507782Y-81582769D01*
X149389539Y-81478016D01*
X149389537Y-81478015D01*
X149389536Y-81478014D01*
X149249664Y-81404602D01*
X149096285Y-81366799D01*
X149096284Y-81366799D01*
X148938314Y-81366799D01*
X148938313Y-81366799D01*
X148784933Y-81404602D01*
X148645061Y-81478014D01*
X148645058Y-81478016D01*
X148645059Y-81478016D01*
X148558700Y-81554523D01*
X148526815Y-81582770D01*
X148437080Y-81712774D01*
X148437079Y-81712775D01*
X148381061Y-81860480D01*
X148362021Y-82017298D01*
X148362021Y-82017299D01*
X136578666Y-82017299D01*
X135811367Y-81250000D01*
X141344722Y-81250000D01*
X141363762Y-81406818D01*
X141415387Y-81542940D01*
X141419780Y-81554523D01*
X141509517Y-81684530D01*
X141627760Y-81789283D01*
X141627762Y-81789284D01*
X141767634Y-81862696D01*
X141921014Y-81900500D01*
X141921015Y-81900500D01*
X142078985Y-81900500D01*
X142232365Y-81862696D01*
X142236587Y-81860480D01*
X142372240Y-81789283D01*
X142490483Y-81684530D01*
X142580220Y-81554523D01*
X142636237Y-81406818D01*
X142655278Y-81250000D01*
X153594722Y-81250000D01*
X153613762Y-81406818D01*
X153665387Y-81542940D01*
X153669780Y-81554523D01*
X153759517Y-81684530D01*
X153877760Y-81789283D01*
X153877762Y-81789284D01*
X154017634Y-81862696D01*
X154171014Y-81900500D01*
X154171015Y-81900500D01*
X154328985Y-81900500D01*
X154482365Y-81862696D01*
X154486587Y-81860480D01*
X154622240Y-81789283D01*
X154740483Y-81684530D01*
X154830220Y-81554523D01*
X154886237Y-81406818D01*
X154905278Y-81250000D01*
X154900808Y-81213181D01*
X154886237Y-81093181D01*
X154851709Y-81002139D01*
X154830220Y-80945477D01*
X154740483Y-80815470D01*
X154622240Y-80710717D01*
X154622238Y-80710716D01*
X154622237Y-80710715D01*
X154482365Y-80637303D01*
X154328986Y-80599500D01*
X154328985Y-80599500D01*
X154171015Y-80599500D01*
X154171014Y-80599500D01*
X154017634Y-80637303D01*
X153877762Y-80710715D01*
X153759516Y-80815471D01*
X153669781Y-80945475D01*
X153669780Y-80945476D01*
X153613762Y-81093181D01*
X153594722Y-81249999D01*
X153594722Y-81250000D01*
X142655278Y-81250000D01*
X142650808Y-81213181D01*
X142636237Y-81093181D01*
X142601709Y-81002139D01*
X142580220Y-80945477D01*
X142490483Y-80815470D01*
X142372240Y-80710717D01*
X142372238Y-80710716D01*
X142372237Y-80710715D01*
X142232365Y-80637303D01*
X142078986Y-80599500D01*
X142078985Y-80599500D01*
X141921015Y-80599500D01*
X141921014Y-80599500D01*
X141767634Y-80637303D01*
X141627762Y-80710715D01*
X141509516Y-80815471D01*
X141419781Y-80945475D01*
X141419780Y-80945476D01*
X141363762Y-81093181D01*
X141344722Y-81249999D01*
X141344722Y-81250000D01*
X135811367Y-81250000D01*
X134061367Y-79500000D01*
X141594722Y-79500000D01*
X141613762Y-79656818D01*
X141657897Y-79773191D01*
X141669780Y-79804523D01*
X141759517Y-79934530D01*
X141877760Y-80039283D01*
X141877762Y-80039284D01*
X142017634Y-80112696D01*
X142171014Y-80150500D01*
X142171015Y-80150500D01*
X142328985Y-80150500D01*
X142482365Y-80112696D01*
X142503548Y-80101578D01*
X142622240Y-80039283D01*
X142740483Y-79934530D01*
X142830220Y-79804523D01*
X142886237Y-79656818D01*
X142905278Y-79500000D01*
X142886237Y-79343182D01*
X142830220Y-79195477D01*
X142740483Y-79065470D01*
X142622240Y-78960717D01*
X142622238Y-78960716D01*
X142622237Y-78960715D01*
X142482365Y-78887303D01*
X142328986Y-78849500D01*
X142328985Y-78849500D01*
X142171015Y-78849500D01*
X142171014Y-78849500D01*
X142017634Y-78887303D01*
X141877762Y-78960715D01*
X141759516Y-79065471D01*
X141669781Y-79195475D01*
X141669780Y-79195476D01*
X141613762Y-79343181D01*
X141594722Y-79499999D01*
X141594722Y-79500000D01*
X134061367Y-79500000D01*
X127786819Y-73225451D01*
X127753334Y-73164128D01*
X127750500Y-73137770D01*
X127750500Y-72910000D01*
X163669364Y-72910000D01*
X163726567Y-73123486D01*
X163726570Y-73123492D01*
X163826399Y-73337578D01*
X163961894Y-73531082D01*
X164128917Y-73698105D01*
X164322421Y-73833600D01*
X164536507Y-73933429D01*
X164536516Y-73933433D01*
X164750000Y-73990634D01*
X164750000Y-73272301D01*
X164769685Y-73205262D01*
X164822489Y-73159507D01*
X164891647Y-73149563D01*
X164964237Y-73160000D01*
X164964238Y-73160000D01*
X165035762Y-73160000D01*
X165035763Y-73160000D01*
X165108353Y-73149563D01*
X165177512Y-73159507D01*
X165230315Y-73205262D01*
X165250000Y-73272301D01*
X165250000Y-73990633D01*
X165463483Y-73933433D01*
X165463492Y-73933429D01*
X165677578Y-73833600D01*
X165871082Y-73698105D01*
X166038105Y-73531082D01*
X166173600Y-73337578D01*
X166273429Y-73123492D01*
X166273431Y-73123489D01*
X166282406Y-73089992D01*
X166318770Y-73030331D01*
X166381616Y-72999800D01*
X166450992Y-73008094D01*
X166504871Y-73052578D01*
X166513182Y-73066811D01*
X166600327Y-73241821D01*
X166723237Y-73404581D01*
X166873958Y-73541980D01*
X166873960Y-73541982D01*
X166929344Y-73576274D01*
X167047363Y-73649348D01*
X167237544Y-73723024D01*
X167438024Y-73760500D01*
X167438026Y-73760500D01*
X167641974Y-73760500D01*
X167641976Y-73760500D01*
X167842456Y-73723024D01*
X168032637Y-73649348D01*
X168206041Y-73541981D01*
X168356764Y-73404579D01*
X168479673Y-73241821D01*
X168570582Y-73059250D01*
X168626397Y-72863083D01*
X168645215Y-72660000D01*
X168626397Y-72456917D01*
X168570582Y-72260750D01*
X168555274Y-72230008D01*
X168502986Y-72124999D01*
X168479673Y-72078179D01*
X168356764Y-71915421D01*
X168356762Y-71915418D01*
X168206041Y-71778019D01*
X168206039Y-71778017D01*
X168032642Y-71670655D01*
X168032635Y-71670651D01*
X167883034Y-71612696D01*
X167842456Y-71596976D01*
X167641976Y-71559500D01*
X167438024Y-71559500D01*
X167237544Y-71596976D01*
X167237541Y-71596976D01*
X167237541Y-71596977D01*
X167047364Y-71670651D01*
X167047357Y-71670655D01*
X166873960Y-71778017D01*
X166873958Y-71778019D01*
X166723237Y-71915418D01*
X166600327Y-72078178D01*
X166513182Y-72253188D01*
X166465679Y-72304425D01*
X166398016Y-72321846D01*
X166331676Y-72299920D01*
X166287721Y-72245609D01*
X166282407Y-72230008D01*
X166273434Y-72196518D01*
X166273429Y-72196507D01*
X166173600Y-71982422D01*
X166173599Y-71982420D01*
X166038113Y-71788926D01*
X166038108Y-71788920D01*
X165871082Y-71621894D01*
X165684968Y-71491575D01*
X165641344Y-71436998D01*
X165634151Y-71367499D01*
X165665673Y-71305145D01*
X165684968Y-71288425D01*
X165871082Y-71158105D01*
X166038105Y-70991082D01*
X166173600Y-70797578D01*
X166273429Y-70583492D01*
X166273431Y-70583489D01*
X166282406Y-70549992D01*
X166318770Y-70490331D01*
X166381616Y-70459800D01*
X166450992Y-70468094D01*
X166504871Y-70512578D01*
X166513182Y-70526811D01*
X166600327Y-70701821D01*
X166723237Y-70864581D01*
X166873958Y-71001980D01*
X166873960Y-71001982D01*
X166973141Y-71063392D01*
X167047363Y-71109348D01*
X167237544Y-71183024D01*
X167438024Y-71220500D01*
X167438026Y-71220500D01*
X167641974Y-71220500D01*
X167641976Y-71220500D01*
X167842456Y-71183024D01*
X168032637Y-71109348D01*
X168206041Y-71001981D01*
X168208214Y-71000000D01*
X171094722Y-71000000D01*
X171113762Y-71156818D01*
X171163469Y-71287882D01*
X171169780Y-71304523D01*
X171259517Y-71434530D01*
X171377760Y-71539283D01*
X171377762Y-71539284D01*
X171517634Y-71612696D01*
X171671014Y-71650500D01*
X171671015Y-71650500D01*
X171828985Y-71650500D01*
X171982365Y-71612696D01*
X171982365Y-71612695D01*
X172122240Y-71539283D01*
X172240483Y-71434530D01*
X172330220Y-71304523D01*
X172386237Y-71156818D01*
X172405278Y-71000000D01*
X172386237Y-70843182D01*
X172379623Y-70825743D01*
X172364992Y-70787164D01*
X172330220Y-70695477D01*
X172240483Y-70565470D01*
X172122240Y-70460717D01*
X172122238Y-70460716D01*
X172122237Y-70460715D01*
X171982365Y-70387303D01*
X171828986Y-70349500D01*
X171828985Y-70349500D01*
X171671015Y-70349500D01*
X171671014Y-70349500D01*
X171517634Y-70387303D01*
X171377762Y-70460715D01*
X171259516Y-70565471D01*
X171169781Y-70695475D01*
X171169780Y-70695476D01*
X171113762Y-70843181D01*
X171094722Y-70999999D01*
X171094722Y-71000000D01*
X168208214Y-71000000D01*
X168356764Y-70864579D01*
X168479673Y-70701821D01*
X168570582Y-70519250D01*
X168626397Y-70323083D01*
X168645215Y-70120000D01*
X168626397Y-69916917D01*
X168570582Y-69720750D01*
X168555274Y-69690008D01*
X168520415Y-69620000D01*
X168479673Y-69538179D01*
X168356764Y-69375421D01*
X168356762Y-69375418D01*
X168206041Y-69238019D01*
X168206039Y-69238017D01*
X168032642Y-69130655D01*
X168032635Y-69130651D01*
X167906767Y-69081890D01*
X167842456Y-69056976D01*
X167641976Y-69019500D01*
X167438024Y-69019500D01*
X167237544Y-69056976D01*
X167237541Y-69056976D01*
X167237541Y-69056977D01*
X167047364Y-69130651D01*
X167047357Y-69130655D01*
X166873960Y-69238017D01*
X166873958Y-69238019D01*
X166723237Y-69375418D01*
X166600327Y-69538178D01*
X166513182Y-69713188D01*
X166465679Y-69764425D01*
X166398016Y-69781846D01*
X166331676Y-69759920D01*
X166287721Y-69705609D01*
X166282407Y-69690008D01*
X166273434Y-69656518D01*
X166273429Y-69656507D01*
X166173600Y-69442422D01*
X166173599Y-69442420D01*
X166038113Y-69248926D01*
X166038108Y-69248920D01*
X165871082Y-69081894D01*
X165684968Y-68951575D01*
X165641344Y-68896998D01*
X165634151Y-68827499D01*
X165665673Y-68765145D01*
X165684968Y-68748425D01*
X165871082Y-68618105D01*
X166038105Y-68451082D01*
X166173600Y-68257578D01*
X166273429Y-68043492D01*
X166273431Y-68043489D01*
X166282406Y-68009992D01*
X166318770Y-67950331D01*
X166381616Y-67919800D01*
X166450992Y-67928094D01*
X166504871Y-67972578D01*
X166513182Y-67986811D01*
X166600327Y-68161821D01*
X166723237Y-68324581D01*
X166873958Y-68461980D01*
X166873960Y-68461982D01*
X166935360Y-68499999D01*
X167047363Y-68569348D01*
X167237544Y-68643024D01*
X167438024Y-68680500D01*
X167438026Y-68680500D01*
X167641974Y-68680500D01*
X167641976Y-68680500D01*
X167842456Y-68643024D01*
X168032637Y-68569348D01*
X168144638Y-68500000D01*
X171094722Y-68500000D01*
X171113762Y-68656818D01*
X171154846Y-68765145D01*
X171169780Y-68804523D01*
X171259517Y-68934530D01*
X171377760Y-69039283D01*
X171377762Y-69039284D01*
X171517634Y-69112696D01*
X171671014Y-69150500D01*
X171671015Y-69150500D01*
X171828985Y-69150500D01*
X171982365Y-69112696D01*
X172122240Y-69039283D01*
X172240483Y-68934530D01*
X172330220Y-68804523D01*
X172386237Y-68656818D01*
X172405278Y-68500000D01*
X172386237Y-68343182D01*
X172330220Y-68195477D01*
X172240483Y-68065470D01*
X172122240Y-67960717D01*
X172122238Y-67960716D01*
X172122237Y-67960715D01*
X171982365Y-67887303D01*
X171828986Y-67849500D01*
X171828985Y-67849500D01*
X171671015Y-67849500D01*
X171671014Y-67849500D01*
X171517634Y-67887303D01*
X171377762Y-67960715D01*
X171259516Y-68065471D01*
X171169781Y-68195475D01*
X171169780Y-68195476D01*
X171113762Y-68343181D01*
X171094722Y-68499999D01*
X171094722Y-68500000D01*
X168144638Y-68500000D01*
X168206041Y-68461981D01*
X168356764Y-68324579D01*
X168479673Y-68161821D01*
X168570582Y-67979250D01*
X168626397Y-67783083D01*
X168645215Y-67580000D01*
X168626397Y-67376917D01*
X168570582Y-67180750D01*
X168562319Y-67164156D01*
X168513179Y-67065468D01*
X168479673Y-66998179D01*
X168395944Y-66887304D01*
X168356762Y-66835418D01*
X168206041Y-66698019D01*
X168206039Y-66698017D01*
X168032642Y-66590655D01*
X168032635Y-66590651D01*
X167906767Y-66541890D01*
X167842456Y-66516976D01*
X167641976Y-66479500D01*
X167438024Y-66479500D01*
X167237544Y-66516976D01*
X167237541Y-66516976D01*
X167237541Y-66516977D01*
X167047364Y-66590651D01*
X167047357Y-66590655D01*
X166873960Y-66698017D01*
X166873958Y-66698019D01*
X166723237Y-66835418D01*
X166600327Y-66998178D01*
X166513182Y-67173188D01*
X166465679Y-67224425D01*
X166398016Y-67241846D01*
X166331676Y-67219920D01*
X166287721Y-67165609D01*
X166282407Y-67150008D01*
X166273434Y-67116518D01*
X166273429Y-67116507D01*
X166173600Y-66902422D01*
X166173599Y-66902420D01*
X166038113Y-66708926D01*
X166038108Y-66708920D01*
X165871082Y-66541894D01*
X165684968Y-66411575D01*
X165641344Y-66356998D01*
X165634151Y-66287499D01*
X165665673Y-66225145D01*
X165684968Y-66208425D01*
X165871082Y-66078105D01*
X166038105Y-65911082D01*
X166173600Y-65717578D01*
X166273429Y-65503492D01*
X166273431Y-65503489D01*
X166282406Y-65469992D01*
X166318770Y-65410331D01*
X166381616Y-65379800D01*
X166450992Y-65388094D01*
X166504871Y-65432578D01*
X166513182Y-65446811D01*
X166600327Y-65621821D01*
X166723237Y-65784581D01*
X166873958Y-65921980D01*
X166873960Y-65921982D01*
X166973141Y-65983392D01*
X167047363Y-66029348D01*
X167237544Y-66103024D01*
X167438024Y-66140500D01*
X167438026Y-66140500D01*
X167641974Y-66140500D01*
X167641976Y-66140500D01*
X167842456Y-66103024D01*
X168032637Y-66029348D01*
X168206041Y-65921981D01*
X168356764Y-65784579D01*
X168479673Y-65621821D01*
X168570582Y-65439250D01*
X168626397Y-65243083D01*
X168645215Y-65040000D01*
X168641508Y-64999999D01*
X168626397Y-64836917D01*
X168613048Y-64790000D01*
X168570582Y-64640750D01*
X168562786Y-64625094D01*
X168510781Y-64520652D01*
X168479673Y-64458179D01*
X168381087Y-64327630D01*
X168356762Y-64295418D01*
X168206041Y-64158019D01*
X168206039Y-64158017D01*
X168032642Y-64050655D01*
X168032635Y-64050651D01*
X167906769Y-64001891D01*
X167842456Y-63976976D01*
X167641976Y-63939500D01*
X167438024Y-63939500D01*
X167237544Y-63976976D01*
X167237541Y-63976976D01*
X167237541Y-63976977D01*
X167047364Y-64050651D01*
X167047357Y-64050655D01*
X166873960Y-64158017D01*
X166873958Y-64158019D01*
X166723237Y-64295418D01*
X166600327Y-64458178D01*
X166513182Y-64633188D01*
X166465679Y-64684425D01*
X166398016Y-64701846D01*
X166331676Y-64679920D01*
X166287721Y-64625609D01*
X166282407Y-64610008D01*
X166273434Y-64576518D01*
X166273429Y-64576507D01*
X166173600Y-64362422D01*
X166173599Y-64362420D01*
X166038113Y-64168926D01*
X166038108Y-64168920D01*
X165871082Y-64001894D01*
X165677578Y-63866399D01*
X165614277Y-63836882D01*
X165561838Y-63790710D01*
X165542686Y-63723516D01*
X165562902Y-63656635D01*
X165616067Y-63611300D01*
X165666682Y-63600500D01*
X165874676Y-63600500D01*
X165874677Y-63600499D01*
X165947740Y-63585966D01*
X166030601Y-63530601D01*
X166085966Y-63447740D01*
X166100500Y-63374674D01*
X166100500Y-62500000D01*
X166434785Y-62500000D01*
X166453602Y-62703082D01*
X166509417Y-62899247D01*
X166509422Y-62899260D01*
X166600327Y-63081821D01*
X166723237Y-63244581D01*
X166873958Y-63381980D01*
X166873960Y-63381982D01*
X166973141Y-63443392D01*
X167047363Y-63489348D01*
X167237544Y-63563024D01*
X167438024Y-63600500D01*
X167438026Y-63600500D01*
X167641974Y-63600500D01*
X167641976Y-63600500D01*
X167842456Y-63563024D01*
X168032637Y-63489348D01*
X168206041Y-63381981D01*
X168356764Y-63244579D01*
X168479673Y-63081821D01*
X168570582Y-62899250D01*
X168626397Y-62703083D01*
X168645215Y-62500000D01*
X168626397Y-62296917D01*
X168570582Y-62100750D01*
X168479673Y-61918179D01*
X168356764Y-61755421D01*
X168356762Y-61755418D01*
X168206041Y-61618019D01*
X168206039Y-61618017D01*
X168032642Y-61510655D01*
X168032635Y-61510651D01*
X168005141Y-61500000D01*
X171094722Y-61500000D01*
X171113762Y-61656818D01*
X171151157Y-61755418D01*
X171169780Y-61804523D01*
X171259517Y-61934530D01*
X171377760Y-62039283D01*
X171377762Y-62039284D01*
X171517634Y-62112696D01*
X171671014Y-62150500D01*
X171671015Y-62150500D01*
X171828985Y-62150500D01*
X171982365Y-62112696D01*
X172006555Y-62100000D01*
X172122240Y-62039283D01*
X172240483Y-61934530D01*
X172330220Y-61804523D01*
X172386237Y-61656818D01*
X172405278Y-61500000D01*
X172401563Y-61469399D01*
X172386237Y-61343181D01*
X172364992Y-61287164D01*
X172330220Y-61195477D01*
X172240483Y-61065470D01*
X172122240Y-60960717D01*
X172122238Y-60960716D01*
X172122237Y-60960715D01*
X171982365Y-60887303D01*
X171828986Y-60849500D01*
X171828985Y-60849500D01*
X171671015Y-60849500D01*
X171671014Y-60849500D01*
X171517634Y-60887303D01*
X171377762Y-60960715D01*
X171259516Y-61065471D01*
X171169781Y-61195475D01*
X171169780Y-61195476D01*
X171113762Y-61343181D01*
X171094722Y-61499999D01*
X171094722Y-61500000D01*
X168005141Y-61500000D01*
X167926150Y-61469399D01*
X167842456Y-61436976D01*
X167641976Y-61399500D01*
X167438024Y-61399500D01*
X167237544Y-61436976D01*
X167237541Y-61436976D01*
X167237541Y-61436977D01*
X167047364Y-61510651D01*
X167047357Y-61510655D01*
X166873960Y-61618017D01*
X166873958Y-61618019D01*
X166723237Y-61755418D01*
X166600327Y-61918178D01*
X166509422Y-62100739D01*
X166509417Y-62100752D01*
X166453602Y-62296917D01*
X166434785Y-62499999D01*
X166434785Y-62500000D01*
X166100500Y-62500000D01*
X166100500Y-61625326D01*
X166100500Y-61625323D01*
X166100499Y-61625321D01*
X166085967Y-61552264D01*
X166085966Y-61552260D01*
X166085966Y-61552259D01*
X166030601Y-61469399D01*
X165947740Y-61414034D01*
X165947739Y-61414033D01*
X165947735Y-61414032D01*
X165874677Y-61399500D01*
X165874674Y-61399500D01*
X164125326Y-61399500D01*
X164125323Y-61399500D01*
X164052264Y-61414032D01*
X164052260Y-61414033D01*
X163969399Y-61469399D01*
X163914033Y-61552260D01*
X163914032Y-61552264D01*
X163899500Y-61625321D01*
X163899499Y-61625323D01*
X163899499Y-63374676D01*
X163899500Y-63374678D01*
X163914032Y-63447735D01*
X163914033Y-63447739D01*
X163914034Y-63447740D01*
X163969399Y-63530601D01*
X164047198Y-63582584D01*
X164052260Y-63585966D01*
X164052264Y-63585967D01*
X164125321Y-63600499D01*
X164125324Y-63600500D01*
X164333318Y-63600500D01*
X164400357Y-63620185D01*
X164446112Y-63672989D01*
X164456056Y-63742147D01*
X164427031Y-63805703D01*
X164385723Y-63836882D01*
X164322422Y-63866399D01*
X164322420Y-63866400D01*
X164128926Y-64001886D01*
X164128920Y-64001891D01*
X163961891Y-64168920D01*
X163961886Y-64168926D01*
X163826400Y-64362420D01*
X163826399Y-64362422D01*
X163726570Y-64576507D01*
X163726567Y-64576513D01*
X163669364Y-64789999D01*
X163669364Y-64790000D01*
X164386653Y-64790000D01*
X164453692Y-64809685D01*
X164499447Y-64862489D01*
X164509391Y-64931647D01*
X164505631Y-64948933D01*
X164500000Y-64968111D01*
X164500000Y-65111888D01*
X164505631Y-65131067D01*
X164505630Y-65200936D01*
X164467855Y-65259714D01*
X164404299Y-65288738D01*
X164386653Y-65290000D01*
X163669364Y-65290000D01*
X163726567Y-65503486D01*
X163726570Y-65503492D01*
X163826399Y-65717578D01*
X163961894Y-65911082D01*
X164128917Y-66078105D01*
X164315031Y-66208425D01*
X164358656Y-66263003D01*
X164365848Y-66332501D01*
X164334326Y-66394856D01*
X164315031Y-66411575D01*
X164128922Y-66541890D01*
X164128920Y-66541891D01*
X163961891Y-66708920D01*
X163961886Y-66708926D01*
X163826400Y-66902420D01*
X163826399Y-66902422D01*
X163726570Y-67116507D01*
X163726567Y-67116513D01*
X163669364Y-67329999D01*
X163669364Y-67330000D01*
X164386653Y-67330000D01*
X164453692Y-67349685D01*
X164499447Y-67402489D01*
X164509391Y-67471647D01*
X164505631Y-67488933D01*
X164500000Y-67508111D01*
X164500000Y-67651888D01*
X164505631Y-67671067D01*
X164505630Y-67740936D01*
X164467855Y-67799714D01*
X164404299Y-67828738D01*
X164386653Y-67830000D01*
X163669364Y-67830000D01*
X163726567Y-68043486D01*
X163726570Y-68043492D01*
X163826399Y-68257578D01*
X163961894Y-68451082D01*
X164128917Y-68618105D01*
X164315031Y-68748425D01*
X164358656Y-68803003D01*
X164365848Y-68872501D01*
X164334326Y-68934856D01*
X164315031Y-68951575D01*
X164128922Y-69081890D01*
X164128920Y-69081891D01*
X163961891Y-69248920D01*
X163961886Y-69248926D01*
X163826400Y-69442420D01*
X163826399Y-69442422D01*
X163726570Y-69656507D01*
X163726567Y-69656513D01*
X163669364Y-69869999D01*
X163669364Y-69870000D01*
X164386653Y-69870000D01*
X164453692Y-69889685D01*
X164499447Y-69942489D01*
X164509391Y-70011647D01*
X164505631Y-70028933D01*
X164500000Y-70048111D01*
X164500000Y-70191888D01*
X164505631Y-70211067D01*
X164505630Y-70280936D01*
X164467855Y-70339714D01*
X164404299Y-70368738D01*
X164386653Y-70370000D01*
X163669364Y-70370000D01*
X163726567Y-70583486D01*
X163726570Y-70583492D01*
X163826399Y-70797578D01*
X163961894Y-70991082D01*
X164128917Y-71158105D01*
X164315031Y-71288425D01*
X164358656Y-71343003D01*
X164365848Y-71412501D01*
X164334326Y-71474856D01*
X164315031Y-71491575D01*
X164128922Y-71621890D01*
X164128920Y-71621891D01*
X163961891Y-71788920D01*
X163961886Y-71788926D01*
X163826400Y-71982420D01*
X163826399Y-71982422D01*
X163726570Y-72196507D01*
X163726567Y-72196513D01*
X163669364Y-72409999D01*
X163669364Y-72410000D01*
X164386653Y-72410000D01*
X164453692Y-72429685D01*
X164499447Y-72482489D01*
X164509391Y-72551647D01*
X164505631Y-72568933D01*
X164500000Y-72588111D01*
X164500000Y-72731888D01*
X164505631Y-72751067D01*
X164505630Y-72820936D01*
X164467855Y-72879714D01*
X164404299Y-72908738D01*
X164386653Y-72910000D01*
X163669364Y-72910000D01*
X127750500Y-72910000D01*
X127750500Y-70956298D01*
X127750500Y-70956291D01*
X127735241Y-70825745D01*
X127675237Y-70660883D01*
X127671595Y-70655346D01*
X127578832Y-70514306D01*
X127578831Y-70514305D01*
X127451221Y-70393910D01*
X127439777Y-70387303D01*
X127299281Y-70306188D01*
X127299282Y-70306188D01*
X127131210Y-70255870D01*
X127131205Y-70255869D01*
X126956066Y-70245669D01*
X126956065Y-70245669D01*
X126898220Y-70255869D01*
X126783293Y-70276134D01*
X126783291Y-70276134D01*
X126783289Y-70276135D01*
X126783285Y-70276136D01*
X126783287Y-70276136D01*
X126622198Y-70345622D01*
X126622190Y-70345626D01*
X126481469Y-70450390D01*
X126368698Y-70584785D01*
X126368697Y-70584787D01*
X126289961Y-70741562D01*
X126289959Y-70741567D01*
X126289960Y-70741567D01*
X126260806Y-70864579D01*
X126249500Y-70912281D01*
X126249500Y-73436294D01*
X126248191Y-73454263D01*
X126244710Y-73478025D01*
X126249264Y-73530064D01*
X126249500Y-73535470D01*
X126249500Y-73543709D01*
X126253306Y-73576274D01*
X126260000Y-73652791D01*
X126261461Y-73659867D01*
X126261403Y-73659878D01*
X126263034Y-73667237D01*
X126263092Y-73667224D01*
X126264757Y-73674250D01*
X126291025Y-73746424D01*
X126315185Y-73819331D01*
X126318236Y-73825874D01*
X126318182Y-73825898D01*
X126321470Y-73832688D01*
X126321521Y-73832663D01*
X126324761Y-73839113D01*
X126324762Y-73839114D01*
X126324763Y-73839117D01*
X126331592Y-73849500D01*
X126366965Y-73903283D01*
X126407287Y-73968655D01*
X126411766Y-73974319D01*
X126411719Y-73974356D01*
X126416482Y-73980202D01*
X126416528Y-73980164D01*
X126421173Y-73985700D01*
X126477018Y-74038386D01*
X137074267Y-84635634D01*
X137086048Y-84649266D01*
X137100390Y-84668530D01*
X137140420Y-84702119D01*
X137144392Y-84705759D01*
X137150223Y-84711590D01*
X137175939Y-84731923D01*
X137234786Y-84781302D01*
X137234788Y-84781303D01*
X137240823Y-84785272D01*
X137240789Y-84785322D01*
X137247144Y-84789370D01*
X137247177Y-84789318D01*
X137253319Y-84793107D01*
X137253323Y-84793110D01*
X137322913Y-84825560D01*
X137322914Y-84825561D01*
X137391558Y-84860036D01*
X137391561Y-84860037D01*
X137391567Y-84860040D01*
X137391572Y-84860041D01*
X137398355Y-84862510D01*
X137398334Y-84862567D01*
X137405451Y-84865040D01*
X137405470Y-84864984D01*
X137412330Y-84867257D01*
X137487532Y-84882784D01*
X137562279Y-84900500D01*
X137562288Y-84900500D01*
X137569452Y-84901338D01*
X137569445Y-84901397D01*
X137576946Y-84902163D01*
X137576952Y-84902104D01*
X137584140Y-84902733D01*
X137584143Y-84902732D01*
X137584144Y-84902733D01*
X137660898Y-84900500D01*
X147802475Y-84900500D01*
X147869514Y-84920185D01*
X147890156Y-84936819D01*
X157463181Y-94509843D01*
X157496666Y-94571166D01*
X157499500Y-94597524D01*
X157499500Y-103693405D01*
X157479815Y-103760444D01*
X157463181Y-103781086D01*
X156031086Y-105213181D01*
X155969763Y-105246666D01*
X155943405Y-105249500D01*
X150313705Y-105249500D01*
X150295735Y-105248191D01*
X150271972Y-105244710D01*
X150226890Y-105248655D01*
X150219933Y-105249264D01*
X150214532Y-105249500D01*
X150206287Y-105249500D01*
X150180222Y-105252546D01*
X150173705Y-105253308D01*
X150168403Y-105253771D01*
X150097201Y-105260001D01*
X150090134Y-105261461D01*
X150090122Y-105261404D01*
X150082753Y-105263038D01*
X150082767Y-105263095D01*
X150075743Y-105264759D01*
X150041908Y-105277074D01*
X149972179Y-105281504D01*
X149911124Y-105247532D01*
X149878128Y-105185945D01*
X149875500Y-105160551D01*
X149875500Y-103000000D01*
X154094722Y-103000000D01*
X154113762Y-103156818D01*
X154157966Y-103273373D01*
X154169780Y-103304523D01*
X154259517Y-103434530D01*
X154377760Y-103539283D01*
X154377762Y-103539284D01*
X154517634Y-103612696D01*
X154671014Y-103650500D01*
X154671015Y-103650500D01*
X154828985Y-103650500D01*
X154982365Y-103612696D01*
X155007067Y-103599731D01*
X155122240Y-103539283D01*
X155240483Y-103434530D01*
X155330220Y-103304523D01*
X155386237Y-103156818D01*
X155405278Y-103000000D01*
X155400416Y-102959953D01*
X155386237Y-102843181D01*
X155359761Y-102773371D01*
X155330220Y-102695477D01*
X155240483Y-102565470D01*
X155122240Y-102460717D01*
X155122238Y-102460716D01*
X155122237Y-102460715D01*
X154982365Y-102387303D01*
X154828986Y-102349500D01*
X154828985Y-102349500D01*
X154671015Y-102349500D01*
X154671014Y-102349500D01*
X154517634Y-102387303D01*
X154377762Y-102460715D01*
X154259516Y-102565471D01*
X154169781Y-102695475D01*
X154169780Y-102695476D01*
X154113762Y-102843181D01*
X154094722Y-102999999D01*
X154094722Y-103000000D01*
X149875500Y-103000000D01*
X149875500Y-99456900D01*
X149895185Y-99389861D01*
X149911819Y-99369219D01*
X149994399Y-99286639D01*
X150055722Y-99253154D01*
X150064436Y-99251582D01*
X150071955Y-99250500D01*
X150071961Y-99250500D01*
X150210053Y-99209953D01*
X150331128Y-99132143D01*
X150425377Y-99023373D01*
X150485165Y-98892457D01*
X150505647Y-98750000D01*
X150485165Y-98607543D01*
X150425377Y-98476627D01*
X150331128Y-98367857D01*
X150210053Y-98290047D01*
X150210051Y-98290046D01*
X150210049Y-98290045D01*
X150210050Y-98290045D01*
X150071963Y-98249500D01*
X150071961Y-98249500D01*
X149928039Y-98249500D01*
X149928035Y-98249500D01*
X149816916Y-98282127D01*
X149747046Y-98282127D01*
X149688268Y-98244352D01*
X149677666Y-98230189D01*
X149675377Y-98226628D01*
X149675377Y-98226627D01*
X149581128Y-98117857D01*
X149460053Y-98040047D01*
X149460051Y-98040046D01*
X149460049Y-98040045D01*
X149460050Y-98040045D01*
X149321963Y-97999500D01*
X149321961Y-97999500D01*
X149178039Y-97999500D01*
X149178036Y-97999500D01*
X149039949Y-98040045D01*
X148918873Y-98117856D01*
X148824623Y-98226626D01*
X148824622Y-98226628D01*
X148764835Y-98357541D01*
X148764834Y-98357545D01*
X148754834Y-98427094D01*
X148729954Y-98485602D01*
X148720367Y-98497920D01*
X148715283Y-98503677D01*
X148714337Y-98504624D01*
X148712480Y-98506481D01*
X148712474Y-98506488D01*
X148698905Y-98525495D01*
X148665192Y-98568808D01*
X148661447Y-98575729D01*
X148657988Y-98582804D01*
X148642329Y-98635403D01*
X148624500Y-98687338D01*
X148623206Y-98695092D01*
X148622231Y-98702911D01*
X148624500Y-98757755D01*
X148624500Y-99477007D01*
X148614334Y-99511626D01*
X148624114Y-99537254D01*
X148624500Y-99547033D01*
X148624500Y-104803025D01*
X148604815Y-104870064D01*
X148588137Y-104890750D01*
X148587137Y-104891749D01*
X148525797Y-104925203D01*
X148456108Y-104920184D01*
X148400196Y-104878285D01*
X148375812Y-104812808D01*
X148375500Y-104804024D01*
X148375500Y-99551803D01*
X148378137Y-99526365D01*
X148379139Y-99521587D01*
X148383043Y-99514307D01*
X148381523Y-99511942D01*
X148377452Y-99492346D01*
X148375977Y-99480508D01*
X148375500Y-99472831D01*
X148375500Y-99468890D01*
X148375499Y-99468881D01*
X148371657Y-99445856D01*
X148364866Y-99391376D01*
X148362621Y-99383837D01*
X148360066Y-99376392D01*
X148333941Y-99328118D01*
X148333940Y-99328118D01*
X148309826Y-99278789D01*
X148309823Y-99278786D01*
X148309823Y-99278785D01*
X148305280Y-99272421D01*
X148300420Y-99266176D01*
X148300419Y-99266174D01*
X148260029Y-99228992D01*
X147530566Y-98499528D01*
X147497081Y-98438205D01*
X147495509Y-98429492D01*
X147495164Y-98427094D01*
X147485165Y-98357543D01*
X147425377Y-98226627D01*
X147331128Y-98117857D01*
X147210053Y-98040047D01*
X147210051Y-98040046D01*
X147210049Y-98040045D01*
X147210050Y-98040045D01*
X147071963Y-97999500D01*
X147071961Y-97999500D01*
X146928039Y-97999500D01*
X146928036Y-97999500D01*
X146789949Y-98040045D01*
X146668873Y-98117856D01*
X146574623Y-98226626D01*
X146574622Y-98226628D01*
X146514834Y-98357543D01*
X146494353Y-98500000D01*
X146514834Y-98642456D01*
X146542444Y-98702912D01*
X146574623Y-98773373D01*
X146668872Y-98882143D01*
X146789947Y-98959953D01*
X146789950Y-98959954D01*
X146789949Y-98959954D01*
X146928037Y-99000500D01*
X146935564Y-99001582D01*
X146999120Y-99030604D01*
X147005602Y-99036639D01*
X147588181Y-99619217D01*
X147621666Y-99680540D01*
X147624500Y-99706898D01*
X147624500Y-104793100D01*
X147604815Y-104860139D01*
X147588181Y-104880781D01*
X143630781Y-108838181D01*
X143569458Y-108871666D01*
X143543100Y-108874500D01*
X138989185Y-108874500D01*
X138922146Y-108854815D01*
X138878186Y-108805774D01*
X138809673Y-108668179D01*
X138686764Y-108505421D01*
X138686762Y-108505418D01*
X138536041Y-108368019D01*
X138536039Y-108368017D01*
X138362642Y-108260655D01*
X138362639Y-108260653D01*
X138362637Y-108260652D01*
X138362636Y-108260651D01*
X138362635Y-108260651D01*
X138262552Y-108221879D01*
X138172456Y-108186976D01*
X137971976Y-108149500D01*
X137768024Y-108149500D01*
X137567544Y-108186976D01*
X137567539Y-108186977D01*
X137406486Y-108249369D01*
X137336863Y-108255231D01*
X137275123Y-108222521D01*
X137240868Y-108161624D01*
X137238955Y-108116095D01*
X137242939Y-108088384D01*
X137255647Y-108000000D01*
X137235165Y-107857543D01*
X137175377Y-107726627D01*
X137081128Y-107617857D01*
X136960053Y-107540047D01*
X136960051Y-107540046D01*
X136960049Y-107540045D01*
X136960050Y-107540045D01*
X136821963Y-107499500D01*
X136821961Y-107499500D01*
X136678039Y-107499500D01*
X136678036Y-107499500D01*
X136539949Y-107540045D01*
X136539948Y-107540046D01*
X136439166Y-107604815D01*
X136372126Y-107624500D01*
X135072142Y-107624500D01*
X135005103Y-107604815D01*
X134959348Y-107552011D01*
X134949404Y-107482853D01*
X134959348Y-107448988D01*
X134974828Y-107415091D01*
X134985165Y-107392457D01*
X135005647Y-107250000D01*
X134985165Y-107107543D01*
X134975866Y-107087181D01*
X134959348Y-107051012D01*
X134949404Y-106981853D01*
X134978429Y-106918297D01*
X135037207Y-106880523D01*
X135072142Y-106875500D01*
X143948196Y-106875500D01*
X143973641Y-106878139D01*
X143977440Y-106878935D01*
X143984268Y-106880367D01*
X144005225Y-106877754D01*
X144019492Y-106875977D01*
X144027168Y-106875500D01*
X144031112Y-106875500D01*
X144031114Y-106875500D01*
X144031116Y-106875499D01*
X144031122Y-106875499D01*
X144046487Y-106872934D01*
X144054140Y-106871657D01*
X144108626Y-106864866D01*
X144108627Y-106864865D01*
X144108629Y-106864865D01*
X144116141Y-106862628D01*
X144123606Y-106860066D01*
X144123606Y-106860065D01*
X144123610Y-106860065D01*
X144171877Y-106833944D01*
X144221211Y-106809826D01*
X144221213Y-106809823D01*
X144227594Y-106805268D01*
X144233819Y-106800422D01*
X144233826Y-106800419D01*
X144271008Y-106760028D01*
X146244399Y-104786637D01*
X146305720Y-104753154D01*
X146314436Y-104751581D01*
X146321954Y-104750500D01*
X146321961Y-104750500D01*
X146321968Y-104750498D01*
X146460050Y-104709954D01*
X146460050Y-104709953D01*
X146460053Y-104709953D01*
X146581128Y-104632143D01*
X146675377Y-104523373D01*
X146735165Y-104392457D01*
X146755647Y-104250000D01*
X146735165Y-104107543D01*
X146675377Y-103976627D01*
X146581128Y-103867857D01*
X146460053Y-103790047D01*
X146460051Y-103790046D01*
X146460049Y-103790045D01*
X146460050Y-103790045D01*
X146321963Y-103749500D01*
X146321961Y-103749500D01*
X146178039Y-103749500D01*
X146178036Y-103749500D01*
X146039949Y-103790045D01*
X145918873Y-103867856D01*
X145824623Y-103976626D01*
X145824622Y-103976628D01*
X145764835Y-104107541D01*
X145764834Y-104107546D01*
X145754489Y-104179496D01*
X145725463Y-104243051D01*
X145719432Y-104249529D01*
X143880781Y-106088181D01*
X143819458Y-106121666D01*
X143793100Y-106124500D01*
X130511804Y-106124500D01*
X130486359Y-106121861D01*
X130475733Y-106119633D01*
X130475729Y-106119633D01*
X130440509Y-106124023D01*
X130432833Y-106124500D01*
X130428886Y-106124500D01*
X130421206Y-106125781D01*
X130405844Y-106128344D01*
X130351373Y-106135134D01*
X130343844Y-106137375D01*
X130336388Y-106139935D01*
X130288114Y-106166060D01*
X130238791Y-106190172D01*
X130232384Y-106194746D01*
X130226175Y-106199579D01*
X130209186Y-106218033D01*
X130188991Y-106239970D01*
X129197932Y-107231029D01*
X128235028Y-108193933D01*
X128173705Y-108227418D01*
X128104013Y-108222434D01*
X128102554Y-108221879D01*
X128012461Y-108186977D01*
X128012456Y-108186976D01*
X127811976Y-108149500D01*
X127608024Y-108149500D01*
X127407544Y-108186976D01*
X127407541Y-108186976D01*
X127407541Y-108186977D01*
X127217364Y-108260651D01*
X127217357Y-108260655D01*
X127043960Y-108368017D01*
X127043958Y-108368019D01*
X126893237Y-108505418D01*
X126770327Y-108668178D01*
X126679422Y-108850739D01*
X126679417Y-108850752D01*
X126623602Y-109046917D01*
X126604785Y-109249999D01*
X126604785Y-109250000D01*
X126623602Y-109453082D01*
X126679417Y-109649247D01*
X126679422Y-109649260D01*
X126770327Y-109831821D01*
X126893237Y-109994581D01*
X127043958Y-110131980D01*
X127043960Y-110131982D01*
X127143141Y-110193392D01*
X127217363Y-110239348D01*
X127298283Y-110270696D01*
X127353685Y-110313269D01*
X127377276Y-110379035D01*
X127361565Y-110447116D01*
X127311542Y-110495895D01*
X127285586Y-110506097D01*
X127246519Y-110516565D01*
X127246507Y-110516570D01*
X127032422Y-110616399D01*
X127032420Y-110616400D01*
X126838926Y-110751886D01*
X126716477Y-110874335D01*
X126655154Y-110907819D01*
X126585462Y-110902835D01*
X126529529Y-110860963D01*
X126512614Y-110829986D01*
X126463354Y-110697913D01*
X126463350Y-110697906D01*
X126377190Y-110582812D01*
X126377187Y-110582809D01*
X126262093Y-110496649D01*
X126262086Y-110496645D01*
X126127379Y-110446403D01*
X126127372Y-110446401D01*
X126067844Y-110440000D01*
X125774388Y-110440000D01*
X125707349Y-110420315D01*
X125661594Y-110367511D01*
X125651650Y-110298353D01*
X125680675Y-110234797D01*
X125709111Y-110210573D01*
X125836039Y-110131982D01*
X125836038Y-110131982D01*
X125836041Y-110131981D01*
X125986764Y-109994579D01*
X126109673Y-109831821D01*
X126200582Y-109649250D01*
X126256397Y-109453083D01*
X126275215Y-109250000D01*
X126256397Y-109046917D01*
X126200582Y-108850750D01*
X126200574Y-108850734D01*
X126156272Y-108761764D01*
X126109673Y-108668179D01*
X125991958Y-108512299D01*
X125986762Y-108505418D01*
X125836041Y-108368019D01*
X125836039Y-108368017D01*
X125662640Y-108260653D01*
X125662628Y-108260647D01*
X125624705Y-108245956D01*
X125569304Y-108203383D01*
X125545714Y-108137616D01*
X125545500Y-108130330D01*
X125545500Y-104851095D01*
X125565185Y-104784056D01*
X125617989Y-104738301D01*
X125634566Y-104732118D01*
X125710050Y-104709954D01*
X125710050Y-104709953D01*
X125710053Y-104709953D01*
X125831128Y-104632143D01*
X125925377Y-104523373D01*
X125985165Y-104392457D01*
X126005647Y-104250000D01*
X125985165Y-104107543D01*
X125983758Y-104104462D01*
X125983276Y-104101110D01*
X125982667Y-104099036D01*
X125982965Y-104098948D01*
X125973815Y-104035303D01*
X126002841Y-103971748D01*
X126061620Y-103933974D01*
X126131490Y-103933975D01*
X126184232Y-103965269D01*
X126818693Y-104599731D01*
X127447850Y-105228888D01*
X127463975Y-105248744D01*
X127469913Y-105257832D01*
X127469916Y-105257836D01*
X127490263Y-105273673D01*
X127497925Y-105279636D01*
X127503687Y-105284725D01*
X127506482Y-105287520D01*
X127525495Y-105301094D01*
X127568811Y-105334809D01*
X127568818Y-105334811D01*
X127575720Y-105338547D01*
X127582796Y-105342006D01*
X127582801Y-105342010D01*
X127603036Y-105348034D01*
X127635403Y-105357670D01*
X127687338Y-105375500D01*
X127695072Y-105376790D01*
X127702910Y-105377767D01*
X127702912Y-105377768D01*
X127702913Y-105377767D01*
X127702914Y-105377768D01*
X127757756Y-105375500D01*
X143198196Y-105375500D01*
X143223641Y-105378139D01*
X143227440Y-105378935D01*
X143234268Y-105380367D01*
X143255225Y-105377754D01*
X143269492Y-105375977D01*
X143277168Y-105375500D01*
X143281112Y-105375500D01*
X143281114Y-105375500D01*
X143281116Y-105375499D01*
X143281122Y-105375499D01*
X143296487Y-105372934D01*
X143304140Y-105371657D01*
X143358626Y-105364866D01*
X143358627Y-105364865D01*
X143358629Y-105364865D01*
X143366141Y-105362628D01*
X143373606Y-105360066D01*
X143373606Y-105360065D01*
X143373610Y-105360065D01*
X143421877Y-105333944D01*
X143471211Y-105309826D01*
X143471213Y-105309823D01*
X143477594Y-105305268D01*
X143483818Y-105300423D01*
X143483826Y-105300419D01*
X143521007Y-105260029D01*
X143686485Y-105094552D01*
X143744399Y-105036639D01*
X143805722Y-105003154D01*
X143814436Y-105001582D01*
X143821955Y-105000500D01*
X143821961Y-105000500D01*
X143960053Y-104959953D01*
X144081128Y-104882143D01*
X144175377Y-104773373D01*
X144235165Y-104642457D01*
X144241307Y-104599731D01*
X144270333Y-104536175D01*
X144329107Y-104498401D01*
X144441492Y-104465403D01*
X144460050Y-104459954D01*
X144460050Y-104459953D01*
X144460053Y-104459953D01*
X144581128Y-104382143D01*
X144675377Y-104273373D01*
X144735165Y-104142457D01*
X144741307Y-104099731D01*
X144770333Y-104036175D01*
X144829107Y-103998401D01*
X144936690Y-103966813D01*
X144960050Y-103959954D01*
X144960050Y-103959953D01*
X144960053Y-103959953D01*
X145081128Y-103882143D01*
X145175377Y-103773373D01*
X145235165Y-103642457D01*
X145241307Y-103599731D01*
X145270333Y-103536175D01*
X145329107Y-103498401D01*
X145460053Y-103459953D01*
X145581128Y-103382143D01*
X145675377Y-103273373D01*
X145735165Y-103142457D01*
X145741307Y-103099731D01*
X145770333Y-103036175D01*
X145829107Y-102998401D01*
X145960053Y-102959953D01*
X146081128Y-102882143D01*
X146175377Y-102773373D01*
X146235165Y-102642457D01*
X146241307Y-102599731D01*
X146270333Y-102536175D01*
X146329107Y-102498401D01*
X146460053Y-102459953D01*
X146581128Y-102382143D01*
X146675377Y-102273373D01*
X146735165Y-102142457D01*
X146741307Y-102099731D01*
X146770333Y-102036175D01*
X146829107Y-101998401D01*
X146960053Y-101959953D01*
X147081128Y-101882143D01*
X147175377Y-101773373D01*
X147235165Y-101642457D01*
X147255647Y-101500000D01*
X147235165Y-101357543D01*
X147175377Y-101226627D01*
X147081128Y-101117857D01*
X146960053Y-101040047D01*
X146960051Y-101040046D01*
X146960049Y-101040045D01*
X146960050Y-101040045D01*
X146821963Y-100999500D01*
X146821961Y-100999500D01*
X146678039Y-100999500D01*
X146678036Y-100999500D01*
X146531437Y-101042545D01*
X146531004Y-101041073D01*
X146492273Y-101049500D01*
X142126803Y-101049500D01*
X142101358Y-101046861D01*
X142090732Y-101044633D01*
X142090729Y-101044633D01*
X142055507Y-101049023D01*
X142047831Y-101049500D01*
X142043886Y-101049500D01*
X142026615Y-101052381D01*
X142020858Y-101053342D01*
X141966370Y-101060134D01*
X141958857Y-101062371D01*
X141951387Y-101064936D01*
X141903122Y-101091055D01*
X141853792Y-101115171D01*
X141847375Y-101119753D01*
X141841175Y-101124579D01*
X141803992Y-101164970D01*
X141380781Y-101588181D01*
X141319458Y-101621666D01*
X141293100Y-101624500D01*
X129456900Y-101624500D01*
X129389861Y-101604815D01*
X129369219Y-101588181D01*
X128031038Y-100250000D01*
X136094722Y-100250000D01*
X136113762Y-100406818D01*
X136169779Y-100554522D01*
X136169780Y-100554523D01*
X136259517Y-100684530D01*
X136377760Y-100789283D01*
X136377762Y-100789284D01*
X136517634Y-100862696D01*
X136671014Y-100900500D01*
X136671015Y-100900500D01*
X136828985Y-100900500D01*
X136982365Y-100862696D01*
X136982364Y-100862696D01*
X137122240Y-100789283D01*
X137240483Y-100684530D01*
X137330220Y-100554523D01*
X137386237Y-100406818D01*
X137405278Y-100250000D01*
X137401783Y-100221211D01*
X137386237Y-100093181D01*
X137364992Y-100037164D01*
X137330220Y-99945477D01*
X137240483Y-99815470D01*
X137122240Y-99710717D01*
X137122238Y-99710716D01*
X137122237Y-99710715D01*
X136982365Y-99637303D01*
X136828986Y-99599500D01*
X136828985Y-99599500D01*
X136671015Y-99599500D01*
X136671014Y-99599500D01*
X136517634Y-99637303D01*
X136377762Y-99710715D01*
X136259516Y-99815471D01*
X136169781Y-99945475D01*
X136169780Y-99945476D01*
X136113762Y-100093181D01*
X136094722Y-100249999D01*
X136094722Y-100250000D01*
X128031038Y-100250000D01*
X127993210Y-100212172D01*
X127959725Y-100150849D01*
X127964709Y-100081157D01*
X128006581Y-100025224D01*
X128063247Y-100001753D01*
X128071962Y-100000500D01*
X128210050Y-99959954D01*
X128210050Y-99959953D01*
X128210053Y-99959953D01*
X128331128Y-99882143D01*
X128425377Y-99773373D01*
X128485165Y-99642457D01*
X128495509Y-99570502D01*
X128524533Y-99506949D01*
X128530551Y-99500484D01*
X129369218Y-98661819D01*
X129430542Y-98628334D01*
X129456900Y-98625500D01*
X135448196Y-98625500D01*
X135473641Y-98628139D01*
X135477440Y-98628935D01*
X135484268Y-98630367D01*
X135505225Y-98627754D01*
X135519492Y-98625977D01*
X135527168Y-98625500D01*
X135531112Y-98625500D01*
X135531114Y-98625500D01*
X135531116Y-98625499D01*
X135531122Y-98625499D01*
X135546487Y-98622934D01*
X135554140Y-98621657D01*
X135608626Y-98614866D01*
X135608627Y-98614865D01*
X135608629Y-98614865D01*
X135616141Y-98612628D01*
X135623606Y-98610066D01*
X135623606Y-98610065D01*
X135623610Y-98610065D01*
X135671877Y-98583944D01*
X135721211Y-98559826D01*
X135721213Y-98559823D01*
X135727594Y-98555268D01*
X135733819Y-98550422D01*
X135733826Y-98550419D01*
X135771008Y-98510028D01*
X136442855Y-97838181D01*
X137119218Y-97161819D01*
X137180541Y-97128334D01*
X137206899Y-97125500D01*
X153198196Y-97125500D01*
X153223641Y-97128139D01*
X153227440Y-97128935D01*
X153234268Y-97130367D01*
X153255225Y-97127754D01*
X153269492Y-97125977D01*
X153277168Y-97125500D01*
X153281112Y-97125500D01*
X153281114Y-97125500D01*
X153281116Y-97125499D01*
X153281122Y-97125499D01*
X153296487Y-97122934D01*
X153304140Y-97121657D01*
X153358626Y-97114866D01*
X153358627Y-97114865D01*
X153358629Y-97114865D01*
X153366141Y-97112628D01*
X153373606Y-97110066D01*
X153373606Y-97110065D01*
X153373610Y-97110065D01*
X153421877Y-97083944D01*
X153471211Y-97059826D01*
X153471213Y-97059823D01*
X153477594Y-97055268D01*
X153483818Y-97050423D01*
X153483826Y-97050419D01*
X153521007Y-97010029D01*
X153648894Y-96882143D01*
X153744399Y-96786639D01*
X153805722Y-96753154D01*
X153814436Y-96751582D01*
X153821955Y-96750500D01*
X153821961Y-96750500D01*
X153960053Y-96709953D01*
X154081128Y-96632143D01*
X154175377Y-96523373D01*
X154235165Y-96392457D01*
X154255647Y-96250000D01*
X154235165Y-96107543D01*
X154175377Y-95976627D01*
X154081128Y-95867857D01*
X153960053Y-95790047D01*
X153960051Y-95790046D01*
X153960049Y-95790045D01*
X153960050Y-95790045D01*
X153829112Y-95751599D01*
X153770333Y-95713825D01*
X153741308Y-95650269D01*
X153735165Y-95607543D01*
X153707242Y-95546401D01*
X153675377Y-95476627D01*
X153581128Y-95367857D01*
X153460053Y-95290047D01*
X153460051Y-95290046D01*
X153460049Y-95290045D01*
X153460050Y-95290045D01*
X153329112Y-95251599D01*
X153270333Y-95213825D01*
X153241308Y-95150269D01*
X153235165Y-95107543D01*
X153220075Y-95074501D01*
X153175377Y-94976627D01*
X153081128Y-94867857D01*
X152960053Y-94790047D01*
X152960051Y-94790046D01*
X152960049Y-94790045D01*
X152960050Y-94790045D01*
X152829112Y-94751599D01*
X152770333Y-94713825D01*
X152741308Y-94650269D01*
X152735165Y-94607543D01*
X152707133Y-94546162D01*
X152675377Y-94476627D01*
X152581128Y-94367857D01*
X152460053Y-94290047D01*
X152460051Y-94290046D01*
X152460049Y-94290045D01*
X152460050Y-94290045D01*
X152329112Y-94251599D01*
X152270333Y-94213825D01*
X152241308Y-94150269D01*
X152235165Y-94107543D01*
X152223726Y-94082496D01*
X152175377Y-93976627D01*
X152081128Y-93867857D01*
X151960053Y-93790047D01*
X151960051Y-93790046D01*
X151960049Y-93790045D01*
X151960050Y-93790045D01*
X151829112Y-93751599D01*
X151770333Y-93713825D01*
X151741308Y-93650269D01*
X151735165Y-93607543D01*
X151707639Y-93547271D01*
X151675377Y-93476627D01*
X151581128Y-93367857D01*
X151460053Y-93290047D01*
X151460051Y-93290046D01*
X151460049Y-93290045D01*
X151460050Y-93290045D01*
X151329112Y-93251599D01*
X151270333Y-93213825D01*
X151241308Y-93150269D01*
X151235165Y-93107543D01*
X151186781Y-93001599D01*
X151175377Y-92976627D01*
X151081128Y-92867857D01*
X150960053Y-92790047D01*
X150960051Y-92790046D01*
X150960049Y-92790045D01*
X150960050Y-92790045D01*
X150829112Y-92751599D01*
X150770333Y-92713825D01*
X150741308Y-92650269D01*
X150735165Y-92607543D01*
X150686051Y-92500000D01*
X150675377Y-92476627D01*
X150581128Y-92367857D01*
X150460053Y-92290047D01*
X150460051Y-92290046D01*
X150460049Y-92290045D01*
X150460050Y-92290045D01*
X150321963Y-92249500D01*
X150321961Y-92249500D01*
X150178039Y-92249500D01*
X150178036Y-92249500D01*
X150039949Y-92290045D01*
X149918873Y-92367856D01*
X149824623Y-92476626D01*
X149824622Y-92476628D01*
X149764835Y-92607541D01*
X149764834Y-92607546D01*
X149754489Y-92679494D01*
X149725463Y-92743050D01*
X149719433Y-92749526D01*
X149630781Y-92838180D01*
X149569458Y-92871666D01*
X149543099Y-92874500D01*
X146322142Y-92874500D01*
X146255103Y-92854815D01*
X146209348Y-92802011D01*
X146199404Y-92732853D01*
X146209348Y-92698988D01*
X146235165Y-92642456D01*
X146240184Y-92607546D01*
X146255647Y-92500000D01*
X146235165Y-92357543D01*
X146175377Y-92226627D01*
X146081128Y-92117857D01*
X145960053Y-92040047D01*
X145960051Y-92040046D01*
X145960049Y-92040045D01*
X145960050Y-92040045D01*
X145821963Y-91999500D01*
X145821961Y-91999500D01*
X145678039Y-91999500D01*
X145678036Y-91999500D01*
X145539949Y-92040045D01*
X145539948Y-92040046D01*
X145439166Y-92104815D01*
X145372126Y-92124500D01*
X127456899Y-92124500D01*
X127389860Y-92104815D01*
X127369218Y-92088181D01*
X126666881Y-91385842D01*
X126666850Y-91385813D01*
X126280566Y-90999528D01*
X126247081Y-90938205D01*
X126245509Y-90929492D01*
X126244519Y-90922607D01*
X126235165Y-90857543D01*
X126175377Y-90726627D01*
X126081128Y-90617857D01*
X125960053Y-90540047D01*
X125960051Y-90540046D01*
X125960049Y-90540045D01*
X125960050Y-90540045D01*
X125821963Y-90499500D01*
X125821961Y-90499500D01*
X125678039Y-90499500D01*
X125678036Y-90499500D01*
X125539949Y-90540045D01*
X125418873Y-90617856D01*
X125324623Y-90726626D01*
X125324622Y-90726628D01*
X125264835Y-90857543D01*
X125258691Y-90900271D01*
X125229665Y-90963826D01*
X125170888Y-91001599D01*
X125039948Y-91040045D01*
X124918873Y-91117856D01*
X124824623Y-91226626D01*
X124824622Y-91226628D01*
X124764835Y-91357543D01*
X124758691Y-91400271D01*
X124729665Y-91463826D01*
X124670888Y-91501599D01*
X124539948Y-91540045D01*
X124418873Y-91617856D01*
X124324623Y-91726626D01*
X124324622Y-91726628D01*
X124264835Y-91857543D01*
X124258691Y-91900271D01*
X124229665Y-91963826D01*
X124170888Y-92001599D01*
X124039948Y-92040045D01*
X123918873Y-92117856D01*
X123824623Y-92226626D01*
X123824622Y-92226628D01*
X123764835Y-92357543D01*
X123758691Y-92400271D01*
X123729665Y-92463826D01*
X123670888Y-92501599D01*
X123539948Y-92540045D01*
X123418873Y-92617856D01*
X123324623Y-92726626D01*
X123324622Y-92726628D01*
X123264835Y-92857543D01*
X123258691Y-92900271D01*
X123229665Y-92963826D01*
X123170888Y-93001599D01*
X123039948Y-93040045D01*
X122918873Y-93117856D01*
X122824623Y-93226626D01*
X122824622Y-93226628D01*
X122764835Y-93357543D01*
X122758691Y-93400271D01*
X122729665Y-93463826D01*
X122670888Y-93501599D01*
X122539948Y-93540045D01*
X122418873Y-93617856D01*
X122324623Y-93726626D01*
X122324622Y-93726628D01*
X122264834Y-93857543D01*
X122244353Y-94000000D01*
X122244353Y-94000001D01*
X122250517Y-94042876D01*
X122240573Y-94112035D01*
X122194817Y-94164838D01*
X122162714Y-94179499D01*
X122039948Y-94215545D01*
X121918873Y-94293356D01*
X121824623Y-94402126D01*
X121824447Y-94402513D01*
X121824168Y-94402834D01*
X121819829Y-94409587D01*
X121818857Y-94408962D01*
X121778691Y-94455316D01*
X121711653Y-94475000D01*
X119775001Y-94475000D01*
X119775001Y-94498322D01*
X119785144Y-94597607D01*
X119838452Y-94758481D01*
X119838457Y-94758492D01*
X119927424Y-94902728D01*
X119927427Y-94902732D01*
X120047266Y-95022571D01*
X120105268Y-95058347D01*
X120151992Y-95110295D01*
X120163215Y-95179258D01*
X120139438Y-95238196D01*
X120107147Y-95281332D01*
X120051214Y-95323204D01*
X119981522Y-95328188D01*
X119925654Y-95299838D01*
X119819580Y-95205866D01*
X119819577Y-95205863D01*
X119679705Y-95132452D01*
X119526326Y-95094649D01*
X119526325Y-95094649D01*
X119368355Y-95094649D01*
X119368354Y-95094649D01*
X119214974Y-95132452D01*
X119075102Y-95205864D01*
X118956856Y-95310620D01*
X118867121Y-95440624D01*
X118867120Y-95440625D01*
X118811102Y-95588330D01*
X118792062Y-95745148D01*
X118792062Y-95745149D01*
X118811102Y-95901967D01*
X118854112Y-96015373D01*
X118867120Y-96049672D01*
X118956857Y-96179679D01*
X119075100Y-96284432D01*
X119075102Y-96284433D01*
X119214974Y-96357845D01*
X119368354Y-96395649D01*
X119368355Y-96395649D01*
X119526325Y-96395649D01*
X119679705Y-96357845D01*
X119819577Y-96284434D01*
X119819578Y-96284432D01*
X119819580Y-96284432D01*
X119898784Y-96214263D01*
X119962015Y-96184544D01*
X120031279Y-96193728D01*
X120080276Y-96232770D01*
X120108304Y-96270211D01*
X120160313Y-96339687D01*
X120269774Y-96421628D01*
X120397886Y-96469412D01*
X120454515Y-96475500D01*
X121045484Y-96475499D01*
X121102114Y-96469412D01*
X121230226Y-96421628D01*
X121339687Y-96339687D01*
X121421628Y-96230226D01*
X121469412Y-96102114D01*
X121471687Y-96080944D01*
X121475499Y-96045501D01*
X121475499Y-96045494D01*
X121475500Y-96045485D01*
X121475499Y-95504516D01*
X121469412Y-95447886D01*
X121466703Y-95440624D01*
X121444891Y-95382143D01*
X121421628Y-95319774D01*
X121360558Y-95238194D01*
X121336143Y-95172734D01*
X121350994Y-95104461D01*
X121394731Y-95058348D01*
X121452731Y-95022573D01*
X121572571Y-94902733D01*
X121583403Y-94885173D01*
X121635351Y-94838449D01*
X121704314Y-94827226D01*
X121768396Y-94855070D01*
X121801735Y-94898757D01*
X121824623Y-94948873D01*
X121918872Y-95057643D01*
X122039947Y-95135453D01*
X122039950Y-95135454D01*
X122039949Y-95135454D01*
X122178037Y-95176000D01*
X122185564Y-95177082D01*
X122249120Y-95206104D01*
X122255602Y-95212139D01*
X122338181Y-95294718D01*
X122371666Y-95356041D01*
X122374500Y-95382399D01*
X122374500Y-99948196D01*
X122371862Y-99973634D01*
X122369633Y-99984268D01*
X122369633Y-99984269D01*
X122369633Y-99984271D01*
X122374023Y-100019491D01*
X122374500Y-100027167D01*
X122374500Y-100031116D01*
X122378342Y-100054141D01*
X122385134Y-100108627D01*
X122387373Y-100116147D01*
X122389934Y-100123608D01*
X122389935Y-100123610D01*
X122404676Y-100150849D01*
X122416055Y-100171877D01*
X122440174Y-100221211D01*
X122444742Y-100227609D01*
X122449581Y-100233826D01*
X122489971Y-100271008D01*
X123334134Y-101115171D01*
X125789748Y-103570786D01*
X125823233Y-103632109D01*
X125818249Y-103701801D01*
X125776377Y-103757734D01*
X125710913Y-103782151D01*
X125667133Y-103777444D01*
X125571963Y-103749500D01*
X125571961Y-103749500D01*
X125428039Y-103749500D01*
X125428036Y-103749500D01*
X125289949Y-103790045D01*
X125168873Y-103867856D01*
X125074623Y-103976626D01*
X125074622Y-103976628D01*
X125014835Y-104107541D01*
X125014834Y-104107546D01*
X125004489Y-104179495D01*
X124975463Y-104243051D01*
X124969432Y-104249528D01*
X124941108Y-104277852D01*
X124921254Y-104293976D01*
X124912165Y-104299914D01*
X124912164Y-104299915D01*
X124890363Y-104327923D01*
X124885286Y-104333674D01*
X124882484Y-104336477D01*
X124882474Y-104336488D01*
X124868905Y-104355495D01*
X124835192Y-104398808D01*
X124831447Y-104405729D01*
X124827988Y-104412804D01*
X124812329Y-104465403D01*
X124794500Y-104517338D01*
X124793206Y-104525092D01*
X124792231Y-104532911D01*
X124794500Y-104587755D01*
X124794500Y-108130330D01*
X124774815Y-108197369D01*
X124722011Y-108243124D01*
X124715295Y-108245956D01*
X124677371Y-108260647D01*
X124677359Y-108260653D01*
X124503960Y-108368017D01*
X124503958Y-108368019D01*
X124353237Y-108505418D01*
X124230327Y-108668178D01*
X124139422Y-108850739D01*
X124139417Y-108850752D01*
X124083602Y-109046917D01*
X124064785Y-109249999D01*
X124064785Y-109250000D01*
X124083602Y-109453082D01*
X124139417Y-109649247D01*
X124139422Y-109649260D01*
X124230327Y-109831821D01*
X124353237Y-109994581D01*
X124503958Y-110131980D01*
X124503960Y-110131982D01*
X124630889Y-110210573D01*
X124677525Y-110262601D01*
X124688629Y-110331583D01*
X124660676Y-110395617D01*
X124602541Y-110434373D01*
X124565612Y-110440000D01*
X124272155Y-110440000D01*
X124212627Y-110446401D01*
X124212620Y-110446403D01*
X124077913Y-110496645D01*
X124077906Y-110496649D01*
X123962812Y-110582809D01*
X123962809Y-110582812D01*
X123876649Y-110697906D01*
X123876645Y-110697913D01*
X123826403Y-110832620D01*
X123826401Y-110832627D01*
X123820000Y-110892155D01*
X123820000Y-111540000D01*
X124556653Y-111540000D01*
X124623692Y-111559685D01*
X124669447Y-111612489D01*
X124679391Y-111681647D01*
X124675631Y-111698933D01*
X124670000Y-111718111D01*
X124670000Y-111861888D01*
X124675631Y-111881067D01*
X124675630Y-111950936D01*
X124637855Y-112009714D01*
X124574299Y-112038738D01*
X124556653Y-112040000D01*
X123820000Y-112040000D01*
X123798200Y-112061800D01*
X123736877Y-112095285D01*
X123667185Y-112090301D01*
X123622838Y-112061800D01*
X121161819Y-109600781D01*
X121128334Y-109539458D01*
X121125500Y-109513100D01*
X121125500Y-108301097D01*
X121128139Y-108275652D01*
X121128785Y-108272568D01*
X121130367Y-108265025D01*
X121127637Y-108243124D01*
X121125977Y-108229799D01*
X121125500Y-108222123D01*
X121125500Y-108218182D01*
X121125498Y-108218169D01*
X121121657Y-108195152D01*
X121117785Y-108164089D01*
X121114866Y-108140667D01*
X121114864Y-108140663D01*
X121112622Y-108133133D01*
X121110065Y-108125685D01*
X121110065Y-108125683D01*
X121083944Y-108077415D01*
X121059826Y-108028082D01*
X121059824Y-108028080D01*
X121059824Y-108028079D01*
X121055276Y-108021709D01*
X121050420Y-108015469D01*
X121050419Y-108015467D01*
X121033616Y-107999999D01*
X121010030Y-107978286D01*
X120590155Y-107558410D01*
X120574028Y-107538551D01*
X120568092Y-107529466D01*
X120568089Y-107529462D01*
X120540080Y-107507662D01*
X120534316Y-107502571D01*
X120531521Y-107499776D01*
X120512511Y-107486205D01*
X120469195Y-107452489D01*
X120462280Y-107448747D01*
X120455206Y-107445289D01*
X120402602Y-107429628D01*
X120350664Y-107411798D01*
X120342929Y-107410507D01*
X120335091Y-107409530D01*
X120280250Y-107411799D01*
X119244198Y-107411799D01*
X119177159Y-107392114D01*
X119156517Y-107375480D01*
X117119890Y-105338852D01*
X117086405Y-105277529D01*
X117091389Y-105207837D01*
X117091630Y-105207198D01*
X117110737Y-105156818D01*
X117129778Y-105000000D01*
X117111925Y-104852963D01*
X117110737Y-104843181D01*
X117089293Y-104786639D01*
X117054720Y-104695477D01*
X116964983Y-104565470D01*
X116846740Y-104460717D01*
X116846738Y-104460716D01*
X116846737Y-104460715D01*
X116706865Y-104387303D01*
X116553486Y-104349500D01*
X116553485Y-104349500D01*
X116395515Y-104349500D01*
X116395514Y-104349500D01*
X116242134Y-104387303D01*
X116102262Y-104460715D01*
X115984016Y-104565471D01*
X115894281Y-104695475D01*
X115894280Y-104695476D01*
X115838262Y-104843181D01*
X115819222Y-104999999D01*
X115819222Y-105000000D01*
X85500500Y-105000000D01*
X85500500Y-104000000D01*
X108844722Y-104000000D01*
X108863762Y-104156818D01*
X108915526Y-104293307D01*
X108919780Y-104304523D01*
X109009517Y-104434530D01*
X109127760Y-104539283D01*
X109127762Y-104539284D01*
X109267634Y-104612696D01*
X109421014Y-104650500D01*
X109421015Y-104650500D01*
X109578985Y-104650500D01*
X109732365Y-104612696D01*
X109732364Y-104612695D01*
X109872240Y-104539283D01*
X109990483Y-104434530D01*
X110080220Y-104304523D01*
X110136237Y-104156818D01*
X110155278Y-104000000D01*
X110151249Y-103966813D01*
X110136237Y-103843181D01*
X110093516Y-103730536D01*
X110080220Y-103695477D01*
X109990483Y-103565470D01*
X109872240Y-103460717D01*
X109872238Y-103460716D01*
X109872237Y-103460715D01*
X109732365Y-103387303D01*
X109578986Y-103349500D01*
X109578985Y-103349500D01*
X109421015Y-103349500D01*
X109421014Y-103349500D01*
X109267634Y-103387303D01*
X109127762Y-103460715D01*
X109009516Y-103565471D01*
X108919781Y-103695475D01*
X108919780Y-103695476D01*
X108863762Y-103843181D01*
X108844722Y-103999999D01*
X108844722Y-104000000D01*
X85500500Y-104000000D01*
X85500500Y-100458657D01*
X85520185Y-100391618D01*
X85522450Y-100388217D01*
X85580219Y-100304524D01*
X85580220Y-100304523D01*
X85636237Y-100156818D01*
X85655278Y-100000000D01*
X85650550Y-99961056D01*
X85636237Y-99843181D01*
X85609760Y-99773369D01*
X85580220Y-99695477D01*
X85522450Y-99611782D01*
X85500567Y-99545427D01*
X85500500Y-99541342D01*
X85500500Y-95500000D01*
X92844722Y-95500000D01*
X92863762Y-95656818D01*
X92907966Y-95773373D01*
X92919780Y-95804523D01*
X93009517Y-95934530D01*
X93127760Y-96039283D01*
X93127762Y-96039284D01*
X93267634Y-96112696D01*
X93421014Y-96150500D01*
X93421015Y-96150500D01*
X93578985Y-96150500D01*
X93732365Y-96112696D01*
X93780430Y-96087469D01*
X93872240Y-96039283D01*
X93990483Y-95934530D01*
X94080220Y-95804523D01*
X94136237Y-95656818D01*
X94155278Y-95500000D01*
X94151945Y-95472545D01*
X94136237Y-95343181D01*
X94086539Y-95212139D01*
X94080220Y-95195477D01*
X93990483Y-95065470D01*
X93872240Y-94960717D01*
X93872238Y-94960716D01*
X93872237Y-94960715D01*
X93732365Y-94887303D01*
X93578986Y-94849500D01*
X93578985Y-94849500D01*
X93421015Y-94849500D01*
X93421014Y-94849500D01*
X93267634Y-94887303D01*
X93127762Y-94960715D01*
X93009516Y-95065471D01*
X92919781Y-95195475D01*
X92919780Y-95195476D01*
X92863762Y-95343181D01*
X92844722Y-95499999D01*
X92844722Y-95500000D01*
X85500500Y-95500000D01*
X85500500Y-93975000D01*
X119775000Y-93975000D01*
X120499999Y-93975000D01*
X120499999Y-93275000D01*
X121000000Y-93275000D01*
X121000000Y-93975000D01*
X121724999Y-93975000D01*
X121724999Y-93951692D01*
X121724998Y-93951677D01*
X121714855Y-93852392D01*
X121661547Y-93691518D01*
X121661542Y-93691507D01*
X121572575Y-93547271D01*
X121572572Y-93547267D01*
X121452732Y-93427427D01*
X121452728Y-93427424D01*
X121308492Y-93338457D01*
X121308481Y-93338452D01*
X121147606Y-93285144D01*
X121048322Y-93275000D01*
X121000000Y-93275000D01*
X120499999Y-93275000D01*
X120499998Y-93274999D01*
X120451693Y-93275000D01*
X120451675Y-93275001D01*
X120352392Y-93285144D01*
X120191518Y-93338452D01*
X120191507Y-93338457D01*
X120047271Y-93427424D01*
X120047267Y-93427427D01*
X119927427Y-93547267D01*
X119927424Y-93547271D01*
X119838457Y-93691507D01*
X119838452Y-93691518D01*
X119785144Y-93852393D01*
X119775000Y-93951677D01*
X119775000Y-93975000D01*
X85500500Y-93975000D01*
X85500500Y-91458657D01*
X85520185Y-91391618D01*
X85522450Y-91388217D01*
X85580219Y-91304524D01*
X85580220Y-91304523D01*
X85636237Y-91156818D01*
X85655278Y-91000000D01*
X85636237Y-90843182D01*
X85619860Y-90800000D01*
X110525001Y-90800000D01*
X110525001Y-90823322D01*
X110535144Y-90922607D01*
X110588452Y-91083481D01*
X110588457Y-91083492D01*
X110677424Y-91227728D01*
X110677427Y-91227732D01*
X110797267Y-91347572D01*
X110797271Y-91347575D01*
X110941507Y-91436542D01*
X110941518Y-91436547D01*
X111102393Y-91489855D01*
X111201683Y-91499999D01*
X111249998Y-91499998D01*
X111249999Y-91499998D01*
X111250000Y-90800000D01*
X111750000Y-90800000D01*
X111750000Y-91499999D01*
X111798308Y-91499999D01*
X111798322Y-91499998D01*
X111897607Y-91489855D01*
X112058481Y-91436547D01*
X112058492Y-91436542D01*
X112202728Y-91347575D01*
X112202732Y-91347572D01*
X112322572Y-91227732D01*
X112322575Y-91227728D01*
X112411542Y-91083492D01*
X112411547Y-91083481D01*
X112464855Y-90922606D01*
X112474999Y-90823322D01*
X112475000Y-90823309D01*
X112475000Y-90800000D01*
X114775001Y-90800000D01*
X114775001Y-90823322D01*
X114785144Y-90922607D01*
X114838452Y-91083481D01*
X114838457Y-91083492D01*
X114927424Y-91227728D01*
X114927427Y-91227732D01*
X115047267Y-91347572D01*
X115047271Y-91347575D01*
X115191507Y-91436542D01*
X115191518Y-91436547D01*
X115352393Y-91489855D01*
X115451683Y-91499999D01*
X115999999Y-91499999D01*
X116048308Y-91499999D01*
X116048322Y-91499998D01*
X116147607Y-91489855D01*
X116308481Y-91436547D01*
X116308488Y-91436544D01*
X116434902Y-91358570D01*
X116502295Y-91340129D01*
X116565098Y-91358570D01*
X116691511Y-91436544D01*
X116691518Y-91436547D01*
X116852393Y-91489855D01*
X116951683Y-91499999D01*
X117499999Y-91499999D01*
X117548308Y-91499999D01*
X117548322Y-91499998D01*
X117647607Y-91489855D01*
X117808481Y-91436547D01*
X117808492Y-91436542D01*
X117952728Y-91347575D01*
X117952732Y-91347572D01*
X118072572Y-91227732D01*
X118072575Y-91227728D01*
X118161542Y-91083492D01*
X118161547Y-91083481D01*
X118214855Y-90922606D01*
X118224999Y-90823322D01*
X118225000Y-90823309D01*
X118225000Y-90800000D01*
X117500000Y-90800000D01*
X117499999Y-91499999D01*
X116951683Y-91499999D01*
X116999999Y-91499998D01*
X117000000Y-91499998D01*
X117000000Y-90800000D01*
X116000000Y-90800000D01*
X115999999Y-91499999D01*
X115451683Y-91499999D01*
X115499999Y-91499998D01*
X115500000Y-91499998D01*
X115500000Y-90800000D01*
X114775001Y-90800000D01*
X112475000Y-90800000D01*
X111750000Y-90800000D01*
X111250000Y-90800000D01*
X110525001Y-90800000D01*
X85619860Y-90800000D01*
X85580220Y-90695477D01*
X85522450Y-90611782D01*
X85500567Y-90545427D01*
X85500500Y-90541342D01*
X85500500Y-88000000D01*
X109844722Y-88000000D01*
X109863762Y-88156818D01*
X109916800Y-88296666D01*
X109919780Y-88304523D01*
X110009517Y-88434530D01*
X110127760Y-88539283D01*
X110127762Y-88539284D01*
X110267634Y-88612696D01*
X110421014Y-88650500D01*
X110421015Y-88650500D01*
X110578983Y-88650500D01*
X110578985Y-88650500D01*
X110620826Y-88640187D01*
X110690626Y-88643256D01*
X110747689Y-88683575D01*
X110773894Y-88748345D01*
X110774500Y-88760584D01*
X110774500Y-89270481D01*
X110774501Y-89270490D01*
X110780587Y-89327114D01*
X110828373Y-89455228D01*
X110889438Y-89536802D01*
X110913855Y-89602266D01*
X110899003Y-89670539D01*
X110855270Y-89716649D01*
X110797270Y-89752424D01*
X110677427Y-89872267D01*
X110677424Y-89872271D01*
X110588457Y-90016507D01*
X110588452Y-90016518D01*
X110535144Y-90177393D01*
X110525000Y-90276677D01*
X110525000Y-90300000D01*
X112474999Y-90300000D01*
X114775000Y-90300000D01*
X118224999Y-90300000D01*
X118224999Y-90276692D01*
X118224998Y-90276677D01*
X118214855Y-90177392D01*
X118161547Y-90016518D01*
X118161542Y-90016507D01*
X118072575Y-89872271D01*
X118072572Y-89872267D01*
X117952732Y-89752427D01*
X117952728Y-89752424D01*
X117894730Y-89716650D01*
X117848005Y-89664702D01*
X117836784Y-89595739D01*
X117860558Y-89536805D01*
X117921628Y-89455226D01*
X117969412Y-89327114D01*
X117973086Y-89292940D01*
X117975499Y-89270501D01*
X117975499Y-89270490D01*
X117975500Y-89270485D01*
X117975499Y-88729516D01*
X117969412Y-88672886D01*
X117961062Y-88650500D01*
X117929759Y-88566574D01*
X117921628Y-88544774D01*
X117839687Y-88435313D01*
X117743320Y-88363174D01*
X117730228Y-88353373D01*
X117730226Y-88353372D01*
X117602114Y-88305588D01*
X117602112Y-88305587D01*
X117602110Y-88305587D01*
X117545501Y-88299500D01*
X117545485Y-88299500D01*
X117406419Y-88299500D01*
X117339380Y-88279815D01*
X117318738Y-88263181D01*
X117184517Y-88128960D01*
X117151032Y-88067637D01*
X117149102Y-88026337D01*
X117155278Y-87975480D01*
X117136237Y-87818662D01*
X117080220Y-87670957D01*
X116990483Y-87540950D01*
X116872240Y-87436197D01*
X116872238Y-87436196D01*
X116872237Y-87436195D01*
X116732365Y-87362783D01*
X116578986Y-87324980D01*
X116578985Y-87324980D01*
X116421015Y-87324980D01*
X116421014Y-87324980D01*
X116267634Y-87362783D01*
X116127762Y-87436195D01*
X116009516Y-87540951D01*
X115919781Y-87670955D01*
X115919780Y-87670956D01*
X115863763Y-87818661D01*
X115844722Y-87975480D01*
X115844722Y-87975481D01*
X115850896Y-88026334D01*
X115839435Y-88095257D01*
X115815481Y-88128961D01*
X115681259Y-88263182D01*
X115619936Y-88296666D01*
X115593579Y-88299500D01*
X115454519Y-88299500D01*
X115454509Y-88299501D01*
X115397885Y-88305587D01*
X115269773Y-88353372D01*
X115160313Y-88435313D01*
X115078373Y-88544771D01*
X115030587Y-88672889D01*
X115024500Y-88729498D01*
X115024500Y-89270481D01*
X115024501Y-89270490D01*
X115030587Y-89327114D01*
X115078373Y-89455228D01*
X115139438Y-89536802D01*
X115163855Y-89602266D01*
X115149003Y-89670539D01*
X115105270Y-89716649D01*
X115047270Y-89752424D01*
X114927427Y-89872267D01*
X114927424Y-89872271D01*
X114838457Y-90016507D01*
X114838452Y-90016518D01*
X114785144Y-90177393D01*
X114775000Y-90276677D01*
X114775000Y-90300000D01*
X112474999Y-90300000D01*
X112474999Y-90276692D01*
X112474998Y-90276677D01*
X112464855Y-90177392D01*
X112411547Y-90016518D01*
X112411542Y-90016507D01*
X112322575Y-89872271D01*
X112322572Y-89872267D01*
X112202732Y-89752427D01*
X112202728Y-89752424D01*
X112144730Y-89716650D01*
X112098005Y-89664702D01*
X112086784Y-89595739D01*
X112110558Y-89536805D01*
X112171628Y-89455226D01*
X112219412Y-89327114D01*
X112223086Y-89292940D01*
X112225499Y-89270501D01*
X112225499Y-89270490D01*
X112225500Y-89270485D01*
X112225499Y-88729516D01*
X112219412Y-88672886D01*
X112208360Y-88643256D01*
X112196962Y-88612696D01*
X112171628Y-88544774D01*
X112171626Y-88544771D01*
X112171626Y-88544770D01*
X112089690Y-88435316D01*
X112089680Y-88435306D01*
X112089672Y-88435292D01*
X112084373Y-88428213D01*
X112085390Y-88427451D01*
X112056190Y-88373986D01*
X112061169Y-88304294D01*
X112070259Y-88286858D01*
X112069865Y-88286652D01*
X112073352Y-88280006D01*
X112073352Y-88280005D01*
X112073354Y-88280003D01*
X112129371Y-88132298D01*
X112148412Y-87975480D01*
X112134451Y-87860495D01*
X112129371Y-87818661D01*
X112108126Y-87762643D01*
X112073354Y-87670957D01*
X111983617Y-87540950D01*
X111865374Y-87436197D01*
X111865372Y-87436196D01*
X111865371Y-87436195D01*
X111725499Y-87362783D01*
X111572120Y-87324980D01*
X111572119Y-87324980D01*
X111414149Y-87324980D01*
X111414148Y-87324980D01*
X111260768Y-87362783D01*
X111120895Y-87436195D01*
X111120893Y-87436197D01*
X111064954Y-87485754D01*
X111001721Y-87515475D01*
X110932457Y-87506291D01*
X110900502Y-87485754D01*
X110872243Y-87460719D01*
X110872235Y-87460714D01*
X110732365Y-87387303D01*
X110578986Y-87349500D01*
X110578985Y-87349500D01*
X110421015Y-87349500D01*
X110421014Y-87349500D01*
X110267634Y-87387303D01*
X110127762Y-87460715D01*
X110009516Y-87565471D01*
X109919781Y-87695475D01*
X109919780Y-87695476D01*
X109863762Y-87843181D01*
X109844722Y-87999999D01*
X109844722Y-88000000D01*
X85500500Y-88000000D01*
X85500500Y-87250000D01*
X136094722Y-87250000D01*
X136113762Y-87406818D01*
X136157897Y-87523191D01*
X136169780Y-87554523D01*
X136259517Y-87684530D01*
X136377760Y-87789283D01*
X136377762Y-87789284D01*
X136517634Y-87862696D01*
X136671014Y-87900500D01*
X136671015Y-87900500D01*
X136828985Y-87900500D01*
X136982365Y-87862696D01*
X137019547Y-87843181D01*
X137122240Y-87789283D01*
X137240483Y-87684530D01*
X137330220Y-87554523D01*
X137386237Y-87406818D01*
X137405278Y-87250000D01*
X137386237Y-87093182D01*
X137330220Y-86945477D01*
X137240483Y-86815470D01*
X137122240Y-86710717D01*
X137122238Y-86710716D01*
X137122237Y-86710715D01*
X136982365Y-86637303D01*
X136828986Y-86599500D01*
X136828985Y-86599500D01*
X136671015Y-86599500D01*
X136671014Y-86599500D01*
X136517634Y-86637303D01*
X136377762Y-86710715D01*
X136259516Y-86815471D01*
X136169781Y-86945475D01*
X136169780Y-86945476D01*
X136113762Y-87093181D01*
X136094722Y-87249999D01*
X136094722Y-87250000D01*
X85500500Y-87250000D01*
X85500500Y-84958657D01*
X85520185Y-84891618D01*
X85522450Y-84888217D01*
X85541902Y-84860036D01*
X85580220Y-84804523D01*
X85600898Y-84750000D01*
X123094721Y-84750000D01*
X123113762Y-84906818D01*
X123149102Y-85000000D01*
X123169780Y-85054523D01*
X123259517Y-85184530D01*
X123377760Y-85289283D01*
X123377762Y-85289284D01*
X123517634Y-85362696D01*
X123671014Y-85400500D01*
X123671015Y-85400500D01*
X123828985Y-85400500D01*
X123982365Y-85362696D01*
X123982365Y-85362695D01*
X124122240Y-85289283D01*
X124240483Y-85184530D01*
X124330220Y-85054523D01*
X124386237Y-84906818D01*
X124405278Y-84750000D01*
X124386237Y-84593182D01*
X124373575Y-84559796D01*
X124350897Y-84499999D01*
X124330220Y-84445477D01*
X124240483Y-84315470D01*
X124122240Y-84210717D01*
X124122238Y-84210716D01*
X124122237Y-84210715D01*
X123982365Y-84137303D01*
X123828986Y-84099500D01*
X123828985Y-84099500D01*
X123671015Y-84099500D01*
X123671014Y-84099500D01*
X123517634Y-84137303D01*
X123377762Y-84210715D01*
X123259516Y-84315471D01*
X123169781Y-84445475D01*
X123169780Y-84445476D01*
X123113762Y-84593181D01*
X123094721Y-84749999D01*
X123094721Y-84750000D01*
X85600898Y-84750000D01*
X85636237Y-84656818D01*
X85642859Y-84602273D01*
X85670480Y-84538096D01*
X85678263Y-84529549D01*
X87920994Y-82286818D01*
X87982317Y-82253334D01*
X88008675Y-82250500D01*
X96682857Y-82250500D01*
X96709215Y-82253334D01*
X96713927Y-82254359D01*
X96765671Y-82250657D01*
X96770094Y-82250500D01*
X96785799Y-82250500D01*
X96801342Y-82248264D01*
X96805740Y-82247791D01*
X96857483Y-82244091D01*
X96861992Y-82242408D01*
X96887685Y-82235850D01*
X96892457Y-82235165D01*
X96939646Y-82213613D01*
X96943728Y-82211922D01*
X96972638Y-82201140D01*
X96992329Y-82193797D01*
X96992329Y-82193796D01*
X96992331Y-82193796D01*
X96996189Y-82190907D01*
X97018995Y-82177375D01*
X97023373Y-82175377D01*
X97062564Y-82141416D01*
X97066014Y-82138637D01*
X97068930Y-82136453D01*
X97078593Y-82129221D01*
X97089720Y-82118092D01*
X97092925Y-82115109D01*
X97132143Y-82081128D01*
X97134751Y-82077068D01*
X97151381Y-82056431D01*
X100207812Y-79000000D01*
X129344721Y-79000000D01*
X129363762Y-79156818D01*
X129408773Y-79275500D01*
X129419780Y-79304523D01*
X129509517Y-79434530D01*
X129627760Y-79539283D01*
X129627762Y-79539284D01*
X129767634Y-79612696D01*
X129921014Y-79650500D01*
X129921015Y-79650500D01*
X130078985Y-79650500D01*
X130232365Y-79612696D01*
X130265407Y-79595354D01*
X130372240Y-79539283D01*
X130490483Y-79434530D01*
X130580220Y-79304523D01*
X130636237Y-79156818D01*
X130655278Y-79000000D01*
X130636237Y-78843182D01*
X130580220Y-78695477D01*
X130490483Y-78565470D01*
X130372240Y-78460717D01*
X130372238Y-78460716D01*
X130372237Y-78460715D01*
X130232365Y-78387303D01*
X130078986Y-78349500D01*
X130078985Y-78349500D01*
X129921015Y-78349500D01*
X129921014Y-78349500D01*
X129767634Y-78387303D01*
X129627762Y-78460715D01*
X129509516Y-78565471D01*
X129419781Y-78695475D01*
X129419780Y-78695476D01*
X129363762Y-78843181D01*
X129344721Y-78999999D01*
X129344721Y-79000000D01*
X100207812Y-79000000D01*
X100806431Y-78401381D01*
X100827068Y-78384751D01*
X100831128Y-78382143D01*
X100865109Y-78342925D01*
X100868092Y-78339720D01*
X100879221Y-78328593D01*
X100888637Y-78316014D01*
X100891417Y-78312564D01*
X100925377Y-78273373D01*
X100927375Y-78268995D01*
X100940907Y-78246189D01*
X100943796Y-78242331D01*
X100961922Y-78193728D01*
X100963614Y-78189645D01*
X100985165Y-78142457D01*
X100985850Y-78137685D01*
X100992409Y-78111992D01*
X100994091Y-78107483D01*
X100997791Y-78055740D01*
X100998265Y-78051340D01*
X101000500Y-78035799D01*
X101000500Y-78020094D01*
X101000658Y-78015669D01*
X101004359Y-77963927D01*
X101003332Y-77959206D01*
X101000500Y-77932858D01*
X101000500Y-77708657D01*
X101020185Y-77641618D01*
X101022450Y-77638217D01*
X101080219Y-77554524D01*
X101080220Y-77554523D01*
X101136237Y-77406818D01*
X101155278Y-77250000D01*
X101136237Y-77093182D01*
X101080220Y-76945477D01*
X100990483Y-76815470D01*
X100872240Y-76710717D01*
X100872238Y-76710716D01*
X100872237Y-76710715D01*
X100732365Y-76637303D01*
X100578986Y-76599500D01*
X100578985Y-76599500D01*
X100421015Y-76599500D01*
X100421014Y-76599500D01*
X100267634Y-76637303D01*
X100127762Y-76710715D01*
X100009516Y-76815471D01*
X99919781Y-76945475D01*
X99919780Y-76945476D01*
X99863762Y-77093181D01*
X99844722Y-77249999D01*
X99844722Y-77250000D01*
X99863762Y-77406818D01*
X99919780Y-77554523D01*
X99919780Y-77554524D01*
X99977550Y-77638217D01*
X99999433Y-77704571D01*
X99999500Y-77708657D01*
X99999500Y-77741324D01*
X99979815Y-77808363D01*
X99963181Y-77829005D01*
X96579005Y-81213181D01*
X96517682Y-81246666D01*
X96491324Y-81249500D01*
X87817143Y-81249500D01*
X87790785Y-81246666D01*
X87786074Y-81245641D01*
X87786070Y-81245641D01*
X87747552Y-81248396D01*
X87734328Y-81249342D01*
X87729906Y-81249500D01*
X87714199Y-81249500D01*
X87698656Y-81251734D01*
X87694260Y-81252207D01*
X87642517Y-81255909D01*
X87642513Y-81255910D01*
X87637986Y-81257598D01*
X87612327Y-81264146D01*
X87607550Y-81264833D01*
X87607543Y-81264835D01*
X87560353Y-81286385D01*
X87556264Y-81288078D01*
X87507675Y-81306200D01*
X87507668Y-81306204D01*
X87503800Y-81309100D01*
X87481019Y-81322617D01*
X87476628Y-81324622D01*
X87437428Y-81358587D01*
X87433988Y-81361360D01*
X87421408Y-81370778D01*
X87410298Y-81381886D01*
X87407064Y-81384897D01*
X87367858Y-81418870D01*
X87367856Y-81418873D01*
X87365245Y-81422936D01*
X87348615Y-81443570D01*
X85712181Y-83080005D01*
X85650858Y-83113490D01*
X85581166Y-83108506D01*
X85525233Y-83066634D01*
X85500816Y-83001170D01*
X85500500Y-82992324D01*
X85500500Y-80000000D01*
X92844722Y-80000000D01*
X92863762Y-80156818D01*
X92919780Y-80304522D01*
X92919780Y-80304523D01*
X93009517Y-80434530D01*
X93127760Y-80539283D01*
X93127762Y-80539284D01*
X93267634Y-80612696D01*
X93421014Y-80650500D01*
X93421015Y-80650500D01*
X93578985Y-80650500D01*
X93732365Y-80612696D01*
X93732364Y-80612695D01*
X93872240Y-80539283D01*
X93990483Y-80434530D01*
X94080220Y-80304523D01*
X94136237Y-80156818D01*
X94155278Y-80000000D01*
X94151945Y-79972545D01*
X94136237Y-79843181D01*
X94083300Y-79703599D01*
X94080220Y-79695477D01*
X93990483Y-79565470D01*
X93872240Y-79460717D01*
X93872238Y-79460716D01*
X93872237Y-79460715D01*
X93732365Y-79387303D01*
X93578986Y-79349500D01*
X93578985Y-79349500D01*
X93421015Y-79349500D01*
X93421014Y-79349500D01*
X93267634Y-79387303D01*
X93127762Y-79460715D01*
X93009516Y-79565471D01*
X92919781Y-79695475D01*
X92919780Y-79695476D01*
X92863762Y-79843181D01*
X92844722Y-79999999D01*
X92844722Y-80000000D01*
X85500500Y-80000000D01*
X85500500Y-75708657D01*
X85520185Y-75641618D01*
X85522450Y-75638217D01*
X85580219Y-75554524D01*
X85580220Y-75554523D01*
X85636237Y-75406818D01*
X85655278Y-75250000D01*
X85653412Y-75234627D01*
X85636237Y-75093181D01*
X85591919Y-74976326D01*
X85580220Y-74945477D01*
X85490483Y-74815470D01*
X85372240Y-74710717D01*
X85372238Y-74710716D01*
X85372237Y-74710715D01*
X85232365Y-74637303D01*
X85078986Y-74599500D01*
X85078985Y-74599500D01*
X84921015Y-74599500D01*
X84921014Y-74599500D01*
X84767634Y-74637303D01*
X84627762Y-74710715D01*
X84509516Y-74815471D01*
X84419781Y-74945475D01*
X84419780Y-74945476D01*
X84363762Y-75093181D01*
X84344722Y-75249999D01*
X84344722Y-75250000D01*
X84363762Y-75406818D01*
X84419780Y-75554523D01*
X84419780Y-75554524D01*
X84477550Y-75638217D01*
X84499433Y-75704571D01*
X84499500Y-75708657D01*
X84499500Y-84041342D01*
X84479815Y-84108381D01*
X84477550Y-84111782D01*
X84419781Y-84195475D01*
X84419780Y-84195476D01*
X84363762Y-84343181D01*
X84344722Y-84499999D01*
X84344722Y-84500000D01*
X84363762Y-84656818D01*
X84419780Y-84804523D01*
X84419780Y-84804524D01*
X84477550Y-84888217D01*
X84499433Y-84954571D01*
X84499500Y-84958657D01*
X84499500Y-90541342D01*
X84479815Y-90608381D01*
X84477550Y-90611782D01*
X84419781Y-90695475D01*
X84419780Y-90695476D01*
X84363762Y-90843181D01*
X84344722Y-90999999D01*
X84344722Y-91000000D01*
X84363762Y-91156818D01*
X84419780Y-91304523D01*
X84419780Y-91304524D01*
X84477550Y-91388217D01*
X84499433Y-91454571D01*
X84499500Y-91458657D01*
X84499500Y-99541342D01*
X84479815Y-99608381D01*
X84477550Y-99611782D01*
X84419781Y-99695475D01*
X84419780Y-99695476D01*
X84363762Y-99843181D01*
X84344722Y-99999999D01*
X84344722Y-100000000D01*
X84363762Y-100156818D01*
X84419780Y-100304523D01*
X84419780Y-100304524D01*
X84477550Y-100388217D01*
X84499433Y-100454571D01*
X84499500Y-100458657D01*
X84499500Y-105791342D01*
X84479815Y-105858381D01*
X84477550Y-105861782D01*
X84419781Y-105945475D01*
X84419780Y-105945476D01*
X84363762Y-106093181D01*
X84344722Y-106249999D01*
X84344722Y-106250000D01*
X84363762Y-106406818D01*
X84419780Y-106554523D01*
X84419780Y-106554524D01*
X84477550Y-106638217D01*
X84499433Y-106704571D01*
X84499500Y-106708657D01*
X84499500Y-115041342D01*
X84479815Y-115108381D01*
X84477550Y-115111782D01*
X84419781Y-115195475D01*
X84419780Y-115195476D01*
X84363762Y-115343181D01*
X84344722Y-115499999D01*
X84344722Y-115500000D01*
X84363762Y-115656818D01*
X84419780Y-115804523D01*
X84419780Y-115804524D01*
X84477550Y-115888217D01*
X84499433Y-115954571D01*
X84499500Y-115958657D01*
X84499500Y-121291342D01*
X84479815Y-121358381D01*
X84477550Y-121361782D01*
X84419781Y-121445475D01*
X84419780Y-121445476D01*
X84363762Y-121593181D01*
X84344722Y-121749999D01*
X84344722Y-121750000D01*
X84363762Y-121906818D01*
X84419780Y-122054523D01*
X84419780Y-122054524D01*
X84477550Y-122138217D01*
X84499433Y-122204571D01*
X84499500Y-122208657D01*
X84499500Y-130541342D01*
X84479815Y-130608381D01*
X84477550Y-130611782D01*
X84419781Y-130695475D01*
X84419780Y-130695476D01*
X84363762Y-130843181D01*
X84344722Y-130999999D01*
X84344722Y-131000000D01*
X73000000Y-131000000D01*
X73000000Y-126625000D01*
X73683033Y-126625000D01*
X73689334Y-126654645D01*
X73766286Y-126827481D01*
X73877487Y-126980535D01*
X73996249Y-127087469D01*
X74032898Y-127146956D01*
X74031567Y-127216813D01*
X74008821Y-127258659D01*
X73996402Y-127273670D01*
X73996400Y-127273673D01*
X73996400Y-127273674D01*
X73979048Y-127310549D01*
X73926420Y-127422389D01*
X73911207Y-127502139D01*
X73895624Y-127583830D01*
X73895624Y-127583832D01*
X73895624Y-127583833D01*
X73905944Y-127747860D01*
X73956732Y-127904171D01*
X73956734Y-127904175D01*
X74044798Y-128042940D01*
X74170294Y-128160789D01*
X74168577Y-128162616D01*
X74203733Y-128208208D01*
X74209712Y-128277821D01*
X74177106Y-128339616D01*
X74161068Y-128353513D01*
X74101162Y-128397037D01*
X73996400Y-128523673D01*
X73926420Y-128672387D01*
X73920510Y-128703371D01*
X73895624Y-128833830D01*
X73895624Y-128833832D01*
X73895624Y-128833833D01*
X73905944Y-128997860D01*
X73956732Y-129154171D01*
X73956734Y-129154175D01*
X74044798Y-129292940D01*
X74164603Y-129405445D01*
X74164611Y-129405451D01*
X74308628Y-129484625D01*
X74308632Y-129484627D01*
X74467823Y-129525500D01*
X74467827Y-129525500D01*
X75090923Y-129525500D01*
X75090925Y-129525500D01*
X75090930Y-129525499D01*
X75090934Y-129525499D01*
X75104174Y-129523826D01*
X75213058Y-129510071D01*
X75365871Y-129449568D01*
X75365878Y-129449563D01*
X75498835Y-129352965D01*
X75498835Y-129352963D01*
X75498837Y-129352963D01*
X75603600Y-129226326D01*
X75673579Y-129077613D01*
X75704376Y-128916170D01*
X75694056Y-128752140D01*
X75643268Y-128595829D01*
X75555202Y-128457060D01*
X75444936Y-128353513D01*
X75429706Y-128339211D01*
X75431421Y-128337384D01*
X75396263Y-128291784D01*
X75390288Y-128222170D01*
X75422899Y-128160377D01*
X75438928Y-128146488D01*
X75498837Y-128102963D01*
X75603600Y-127976326D01*
X75673579Y-127827613D01*
X75704376Y-127666170D01*
X75694056Y-127502140D01*
X75643268Y-127345829D01*
X75580706Y-127247247D01*
X75561405Y-127180100D01*
X75581471Y-127113174D01*
X75602431Y-127088657D01*
X75722509Y-126980539D01*
X75722511Y-126980536D01*
X75833717Y-126827477D01*
X75910664Y-126654648D01*
X75916967Y-126625000D01*
X75156265Y-126625000D01*
X75089226Y-126605315D01*
X75043471Y-126552511D01*
X75033527Y-126483353D01*
X75034647Y-126476809D01*
X75040879Y-126445476D01*
X75054898Y-126375000D01*
X75035495Y-126277455D01*
X75034647Y-126273191D01*
X75040875Y-126203599D01*
X75083739Y-126148422D01*
X75149629Y-126125178D01*
X75156265Y-126125000D01*
X75916967Y-126125000D01*
X75910665Y-126095354D01*
X75833713Y-125922518D01*
X75722514Y-125769467D01*
X75661543Y-125714568D01*
X75624895Y-125655081D01*
X75626226Y-125585224D01*
X75644748Y-125548782D01*
X75652793Y-125537882D01*
X75667744Y-125495154D01*
X75697646Y-125409701D01*
X75697646Y-125409699D01*
X75700500Y-125379269D01*
X75700500Y-124870730D01*
X75697646Y-124840300D01*
X75697646Y-124840298D01*
X75652793Y-124712119D01*
X75652792Y-124712117D01*
X75572150Y-124602850D01*
X75462882Y-124522207D01*
X75462880Y-124522206D01*
X75334700Y-124477353D01*
X75304270Y-124474500D01*
X75304266Y-124474500D01*
X74295734Y-124474500D01*
X74295730Y-124474500D01*
X74265300Y-124477353D01*
X74265298Y-124477353D01*
X74137119Y-124522206D01*
X74137117Y-124522207D01*
X74027850Y-124602850D01*
X73947207Y-124712117D01*
X73947206Y-124712119D01*
X73902353Y-124840298D01*
X73902353Y-124840300D01*
X73899500Y-124870730D01*
X73899500Y-125379269D01*
X73902353Y-125409696D01*
X73947207Y-125537882D01*
X73955253Y-125548784D01*
X73979224Y-125614413D01*
X73963908Y-125682584D01*
X73938455Y-125714568D01*
X73877490Y-125769460D01*
X73877488Y-125769463D01*
X73766282Y-125922522D01*
X73689335Y-126095351D01*
X73683033Y-126125000D01*
X74443735Y-126125000D01*
X74510774Y-126144685D01*
X74556529Y-126197489D01*
X74566473Y-126266647D01*
X74565353Y-126273191D01*
X74545102Y-126375000D01*
X74565353Y-126476809D01*
X74559125Y-126546401D01*
X74516261Y-126601578D01*
X74450371Y-126624822D01*
X74443735Y-126625000D01*
X73683033Y-126625000D01*
X73000000Y-126625000D01*
X73000000Y-118875000D01*
X73683033Y-118875000D01*
X73689334Y-118904645D01*
X73766286Y-119077481D01*
X73877487Y-119230535D01*
X73996249Y-119337469D01*
X74032898Y-119396956D01*
X74031567Y-119466813D01*
X74008821Y-119508659D01*
X73996402Y-119523670D01*
X73926420Y-119672389D01*
X73911207Y-119752139D01*
X73895624Y-119833830D01*
X73895624Y-119833832D01*
X73895624Y-119833833D01*
X73905944Y-119997860D01*
X73956732Y-120154171D01*
X73956734Y-120154175D01*
X74044798Y-120292940D01*
X74170294Y-120410789D01*
X74168577Y-120412616D01*
X74203733Y-120458208D01*
X74209712Y-120527821D01*
X74177106Y-120589616D01*
X74161068Y-120603513D01*
X74101162Y-120647037D01*
X73996400Y-120773673D01*
X73926420Y-120922387D01*
X73911207Y-121002139D01*
X73895624Y-121083830D01*
X73895624Y-121083832D01*
X73895624Y-121083833D01*
X73905944Y-121247860D01*
X73956732Y-121404171D01*
X73956734Y-121404175D01*
X74044798Y-121542940D01*
X74164603Y-121655445D01*
X74164611Y-121655451D01*
X74244860Y-121699568D01*
X74308632Y-121734627D01*
X74467823Y-121775500D01*
X74467827Y-121775500D01*
X75090923Y-121775500D01*
X75090925Y-121775500D01*
X75090930Y-121775499D01*
X75090934Y-121775499D01*
X75104174Y-121773826D01*
X75213058Y-121760071D01*
X75365871Y-121699568D01*
X75365878Y-121699563D01*
X75498835Y-121602965D01*
X75498835Y-121602963D01*
X75498837Y-121602963D01*
X75603600Y-121476326D01*
X75673579Y-121327613D01*
X75704376Y-121166170D01*
X75694056Y-121002140D01*
X75643268Y-120845829D01*
X75555202Y-120707060D01*
X75444936Y-120603513D01*
X75429706Y-120589211D01*
X75431421Y-120587384D01*
X75396263Y-120541784D01*
X75390288Y-120472170D01*
X75422899Y-120410377D01*
X75438928Y-120396488D01*
X75498837Y-120352963D01*
X75603600Y-120226326D01*
X75673579Y-120077613D01*
X75704376Y-119916170D01*
X75694056Y-119752140D01*
X75643268Y-119595829D01*
X75580706Y-119497247D01*
X75561405Y-119430100D01*
X75581471Y-119363174D01*
X75602431Y-119338657D01*
X75722509Y-119230539D01*
X75722511Y-119230536D01*
X75833717Y-119077477D01*
X75910664Y-118904648D01*
X75916967Y-118875000D01*
X75156265Y-118875000D01*
X75089226Y-118855315D01*
X75043471Y-118802511D01*
X75033527Y-118733353D01*
X75034647Y-118726809D01*
X75037535Y-118712284D01*
X75054898Y-118625000D01*
X75035495Y-118527455D01*
X75034647Y-118523191D01*
X75040875Y-118453599D01*
X75083739Y-118398422D01*
X75149629Y-118375178D01*
X75156265Y-118375000D01*
X75916967Y-118375000D01*
X75910665Y-118345354D01*
X75833713Y-118172518D01*
X75722514Y-118019467D01*
X75661543Y-117964568D01*
X75624895Y-117905081D01*
X75626226Y-117835224D01*
X75644748Y-117798782D01*
X75652793Y-117787882D01*
X75667743Y-117745154D01*
X75697646Y-117659701D01*
X75697646Y-117659699D01*
X75700500Y-117629269D01*
X75700500Y-117120730D01*
X75697646Y-117090300D01*
X75697646Y-117090298D01*
X75652793Y-116962119D01*
X75652792Y-116962117D01*
X75572150Y-116852850D01*
X75462882Y-116772207D01*
X75462880Y-116772206D01*
X75334700Y-116727353D01*
X75304270Y-116724500D01*
X75304266Y-116724500D01*
X74295734Y-116724500D01*
X74295730Y-116724500D01*
X74265300Y-116727353D01*
X74265298Y-116727353D01*
X74137119Y-116772206D01*
X74137117Y-116772207D01*
X74027850Y-116852850D01*
X73947207Y-116962117D01*
X73947206Y-116962119D01*
X73902353Y-117090298D01*
X73902353Y-117090300D01*
X73899500Y-117120730D01*
X73899500Y-117629269D01*
X73902353Y-117659696D01*
X73947207Y-117787882D01*
X73955253Y-117798784D01*
X73979224Y-117864413D01*
X73963908Y-117932584D01*
X73938455Y-117964568D01*
X73877490Y-118019460D01*
X73877488Y-118019463D01*
X73766282Y-118172522D01*
X73689335Y-118345351D01*
X73683033Y-118375000D01*
X74443735Y-118375000D01*
X74510774Y-118394685D01*
X74556529Y-118447489D01*
X74566473Y-118516647D01*
X74565353Y-118523191D01*
X74545102Y-118624999D01*
X74565353Y-118726809D01*
X74559125Y-118796401D01*
X74516261Y-118851578D01*
X74450371Y-118874822D01*
X74443735Y-118875000D01*
X73683033Y-118875000D01*
X73000000Y-118875000D01*
X73000000Y-111125000D01*
X73683033Y-111125000D01*
X73689334Y-111154645D01*
X73766286Y-111327481D01*
X73877487Y-111480535D01*
X73996249Y-111587469D01*
X74032898Y-111646956D01*
X74031567Y-111716813D01*
X74008821Y-111758659D01*
X73996402Y-111773670D01*
X73996400Y-111773673D01*
X73996400Y-111773674D01*
X73962447Y-111845828D01*
X73926420Y-111922389D01*
X73920975Y-111950936D01*
X73895624Y-112083830D01*
X73895624Y-112083832D01*
X73895624Y-112083833D01*
X73905944Y-112247860D01*
X73956732Y-112404171D01*
X73956734Y-112404175D01*
X74044798Y-112542940D01*
X74170294Y-112660789D01*
X74168577Y-112662616D01*
X74203733Y-112708208D01*
X74209712Y-112777821D01*
X74177106Y-112839616D01*
X74161068Y-112853513D01*
X74101162Y-112897037D01*
X73996400Y-113023673D01*
X73926420Y-113172387D01*
X73911207Y-113252139D01*
X73895624Y-113333830D01*
X73895624Y-113333832D01*
X73895624Y-113333833D01*
X73905944Y-113497860D01*
X73956732Y-113654171D01*
X73956734Y-113654175D01*
X74044798Y-113792940D01*
X74164603Y-113905445D01*
X74164611Y-113905451D01*
X74244860Y-113949568D01*
X74308632Y-113984627D01*
X74467823Y-114025500D01*
X74467827Y-114025500D01*
X75090923Y-114025500D01*
X75090925Y-114025500D01*
X75090930Y-114025499D01*
X75090934Y-114025499D01*
X75104174Y-114023826D01*
X75213058Y-114010071D01*
X75365871Y-113949568D01*
X75365878Y-113949563D01*
X75498835Y-113852965D01*
X75498835Y-113852963D01*
X75498837Y-113852963D01*
X75603600Y-113726326D01*
X75673579Y-113577613D01*
X75704376Y-113416170D01*
X75694056Y-113252140D01*
X75643268Y-113095829D01*
X75555202Y-112957060D01*
X75491284Y-112897037D01*
X75429706Y-112839211D01*
X75431421Y-112837384D01*
X75396263Y-112791784D01*
X75390288Y-112722170D01*
X75422899Y-112660377D01*
X75438928Y-112646488D01*
X75498837Y-112602963D01*
X75603600Y-112476326D01*
X75673579Y-112327613D01*
X75704376Y-112166170D01*
X75694056Y-112002140D01*
X75643268Y-111845829D01*
X75580706Y-111747247D01*
X75561405Y-111680100D01*
X75581471Y-111613174D01*
X75602431Y-111588657D01*
X75722509Y-111480539D01*
X75722511Y-111480536D01*
X75833717Y-111327477D01*
X75910664Y-111154648D01*
X75916967Y-111125000D01*
X75156265Y-111125000D01*
X75089226Y-111105315D01*
X75043471Y-111052511D01*
X75033527Y-110983353D01*
X75034647Y-110976809D01*
X75040879Y-110945476D01*
X75054898Y-110875000D01*
X75035495Y-110777455D01*
X75034647Y-110773191D01*
X75040875Y-110703599D01*
X75083739Y-110648422D01*
X75149629Y-110625178D01*
X75156265Y-110625000D01*
X75916967Y-110625000D01*
X75910665Y-110595354D01*
X75833713Y-110422518D01*
X75722514Y-110269467D01*
X75661543Y-110214568D01*
X75624895Y-110155081D01*
X75626226Y-110085224D01*
X75644748Y-110048782D01*
X75652793Y-110037882D01*
X75669195Y-109991008D01*
X75697646Y-109909701D01*
X75697646Y-109909699D01*
X75700500Y-109879269D01*
X75700500Y-109370730D01*
X75697646Y-109340300D01*
X75697646Y-109340298D01*
X75664006Y-109244163D01*
X75652793Y-109212118D01*
X75572150Y-109102850D01*
X75462882Y-109022207D01*
X75462880Y-109022206D01*
X75334700Y-108977353D01*
X75304270Y-108974500D01*
X75304266Y-108974500D01*
X74295734Y-108974500D01*
X74295730Y-108974500D01*
X74265300Y-108977353D01*
X74265298Y-108977353D01*
X74137119Y-109022206D01*
X74137117Y-109022207D01*
X74027850Y-109102850D01*
X73947207Y-109212117D01*
X73947206Y-109212119D01*
X73902353Y-109340298D01*
X73902353Y-109340300D01*
X73899500Y-109370730D01*
X73899500Y-109879269D01*
X73902353Y-109909696D01*
X73902353Y-109909698D01*
X73902354Y-109909699D01*
X73915348Y-109946834D01*
X73947207Y-110037882D01*
X73955253Y-110048784D01*
X73979224Y-110114413D01*
X73963908Y-110182584D01*
X73938455Y-110214568D01*
X73877490Y-110269460D01*
X73877488Y-110269463D01*
X73766282Y-110422522D01*
X73689335Y-110595351D01*
X73683033Y-110625000D01*
X74443735Y-110625000D01*
X74510774Y-110644685D01*
X74556529Y-110697489D01*
X74566473Y-110766647D01*
X74565353Y-110773191D01*
X74553531Y-110832627D01*
X74545102Y-110875000D01*
X74556128Y-110930433D01*
X74565353Y-110976809D01*
X74559125Y-111046401D01*
X74516261Y-111101578D01*
X74450371Y-111124822D01*
X74443735Y-111125000D01*
X73683033Y-111125000D01*
X73000000Y-111125000D01*
X73000000Y-103375000D01*
X73683033Y-103375000D01*
X73689334Y-103404645D01*
X73766286Y-103577481D01*
X73877487Y-103730535D01*
X73996249Y-103837469D01*
X74032898Y-103896956D01*
X74031567Y-103966813D01*
X74008821Y-104008659D01*
X73996402Y-104023670D01*
X73996400Y-104023673D01*
X73996400Y-104023674D01*
X73986489Y-104044737D01*
X73926420Y-104172389D01*
X73911705Y-104249529D01*
X73895624Y-104333830D01*
X73895624Y-104333832D01*
X73895624Y-104333833D01*
X73905944Y-104497860D01*
X73956732Y-104654171D01*
X73956734Y-104654175D01*
X74044798Y-104792940D01*
X74170294Y-104910789D01*
X74168577Y-104912616D01*
X74203733Y-104958208D01*
X74209712Y-105027821D01*
X74177106Y-105089616D01*
X74161068Y-105103513D01*
X74101162Y-105147037D01*
X73996400Y-105273673D01*
X73926420Y-105422387D01*
X73911207Y-105502139D01*
X73895624Y-105583830D01*
X73895624Y-105583832D01*
X73895624Y-105583833D01*
X73905944Y-105747860D01*
X73956732Y-105904171D01*
X73956734Y-105904175D01*
X74044798Y-106042940D01*
X74164603Y-106155445D01*
X74164611Y-106155451D01*
X74308628Y-106234625D01*
X74308632Y-106234627D01*
X74467823Y-106275500D01*
X74467827Y-106275500D01*
X75090923Y-106275500D01*
X75090925Y-106275500D01*
X75090930Y-106275499D01*
X75090934Y-106275499D01*
X75104174Y-106273826D01*
X75213058Y-106260071D01*
X75365871Y-106199568D01*
X75365878Y-106199563D01*
X75498835Y-106102965D01*
X75498835Y-106102963D01*
X75498837Y-106102963D01*
X75603600Y-105976326D01*
X75673579Y-105827613D01*
X75704376Y-105666170D01*
X75694056Y-105502140D01*
X75643268Y-105345829D01*
X75640844Y-105342010D01*
X75588800Y-105260002D01*
X75555202Y-105207060D01*
X75466778Y-105124024D01*
X75429706Y-105089211D01*
X75431421Y-105087384D01*
X75396263Y-105041784D01*
X75390288Y-104972170D01*
X75422899Y-104910377D01*
X75438928Y-104896488D01*
X75498837Y-104852963D01*
X75603600Y-104726326D01*
X75673579Y-104577613D01*
X75704376Y-104416170D01*
X75694056Y-104252140D01*
X75643268Y-104095829D01*
X75580706Y-103997247D01*
X75561405Y-103930100D01*
X75581471Y-103863174D01*
X75602431Y-103838657D01*
X75722509Y-103730539D01*
X75722511Y-103730536D01*
X75833717Y-103577477D01*
X75910664Y-103404648D01*
X75916967Y-103375000D01*
X75156265Y-103375000D01*
X75089226Y-103355315D01*
X75043471Y-103302511D01*
X75033527Y-103233353D01*
X75034647Y-103226809D01*
X75037115Y-103214400D01*
X75054898Y-103125000D01*
X75035495Y-103027455D01*
X75034647Y-103023191D01*
X75040875Y-102953599D01*
X75083739Y-102898422D01*
X75149629Y-102875178D01*
X75156265Y-102875000D01*
X75916967Y-102875000D01*
X75910665Y-102845354D01*
X75833713Y-102672518D01*
X75722514Y-102519467D01*
X75661543Y-102464568D01*
X75624895Y-102405081D01*
X75626226Y-102335224D01*
X75644748Y-102298782D01*
X75652793Y-102287882D01*
X75667744Y-102245154D01*
X75697646Y-102159701D01*
X75697646Y-102159699D01*
X75700500Y-102129269D01*
X75700500Y-101620730D01*
X75697646Y-101590300D01*
X75697646Y-101590298D01*
X75652793Y-101462119D01*
X75652792Y-101462117D01*
X75572150Y-101352850D01*
X75462882Y-101272207D01*
X75462880Y-101272206D01*
X75334700Y-101227353D01*
X75304270Y-101224500D01*
X75304266Y-101224500D01*
X74295734Y-101224500D01*
X74295730Y-101224500D01*
X74265300Y-101227353D01*
X74265298Y-101227353D01*
X74137119Y-101272206D01*
X74137117Y-101272207D01*
X74027850Y-101352850D01*
X73947207Y-101462117D01*
X73947206Y-101462119D01*
X73902353Y-101590298D01*
X73902353Y-101590300D01*
X73899500Y-101620730D01*
X73899500Y-102129269D01*
X73902353Y-102159696D01*
X73947207Y-102287882D01*
X73955253Y-102298784D01*
X73979224Y-102364413D01*
X73963908Y-102432584D01*
X73938455Y-102464568D01*
X73877490Y-102519460D01*
X73877488Y-102519463D01*
X73766282Y-102672522D01*
X73689335Y-102845351D01*
X73683033Y-102875000D01*
X74443735Y-102875000D01*
X74510774Y-102894685D01*
X74556529Y-102947489D01*
X74566473Y-103016647D01*
X74565353Y-103023191D01*
X74545102Y-103125000D01*
X74565353Y-103226809D01*
X74559125Y-103296401D01*
X74516261Y-103351578D01*
X74450371Y-103374822D01*
X74443735Y-103375000D01*
X73683033Y-103375000D01*
X73000000Y-103375000D01*
X73000000Y-95625000D01*
X73683033Y-95625000D01*
X73689334Y-95654645D01*
X73766286Y-95827481D01*
X73877487Y-95980535D01*
X73996249Y-96087469D01*
X74032898Y-96146956D01*
X74031567Y-96216813D01*
X74008821Y-96258659D01*
X73996402Y-96273670D01*
X73926420Y-96422389D01*
X73916289Y-96475499D01*
X73895624Y-96583830D01*
X73895624Y-96583832D01*
X73895624Y-96583833D01*
X73905944Y-96747860D01*
X73956732Y-96904171D01*
X73956734Y-96904175D01*
X74044798Y-97042940D01*
X74170294Y-97160789D01*
X74168577Y-97162616D01*
X74203733Y-97208208D01*
X74209712Y-97277821D01*
X74177106Y-97339616D01*
X74161068Y-97353513D01*
X74101162Y-97397037D01*
X73996400Y-97523673D01*
X73926420Y-97672387D01*
X73911207Y-97752139D01*
X73895624Y-97833830D01*
X73895624Y-97833832D01*
X73895624Y-97833833D01*
X73905944Y-97997860D01*
X73956732Y-98154171D01*
X73956734Y-98154175D01*
X74044798Y-98292940D01*
X74164603Y-98405445D01*
X74164611Y-98405451D01*
X74282653Y-98470345D01*
X74308632Y-98484627D01*
X74407727Y-98510070D01*
X74467803Y-98525495D01*
X74467823Y-98525500D01*
X74467827Y-98525500D01*
X75090923Y-98525500D01*
X75090925Y-98525500D01*
X75090930Y-98525499D01*
X75090934Y-98525499D01*
X75104174Y-98523826D01*
X75213058Y-98510071D01*
X75365871Y-98449568D01*
X75381511Y-98438205D01*
X75498835Y-98352965D01*
X75498835Y-98352963D01*
X75498837Y-98352963D01*
X75603600Y-98226326D01*
X75673579Y-98077613D01*
X75704376Y-97916170D01*
X75694056Y-97752140D01*
X75643268Y-97595829D01*
X75555202Y-97457060D01*
X75491284Y-97397037D01*
X75429706Y-97339211D01*
X75431421Y-97337384D01*
X75396263Y-97291784D01*
X75390288Y-97222170D01*
X75422899Y-97160377D01*
X75438928Y-97146488D01*
X75498837Y-97102963D01*
X75603600Y-96976326D01*
X75673579Y-96827613D01*
X75704376Y-96666170D01*
X75694056Y-96502140D01*
X75643268Y-96345829D01*
X75580706Y-96247247D01*
X75561405Y-96180100D01*
X75581471Y-96113174D01*
X75602431Y-96088657D01*
X75722509Y-95980539D01*
X75722511Y-95980536D01*
X75833717Y-95827477D01*
X75910664Y-95654648D01*
X75916967Y-95625000D01*
X75156265Y-95625000D01*
X75089226Y-95605315D01*
X75043471Y-95552511D01*
X75033527Y-95483353D01*
X75034647Y-95476809D01*
X75037535Y-95462284D01*
X75054898Y-95375000D01*
X75035495Y-95277455D01*
X75034647Y-95273191D01*
X75040875Y-95203599D01*
X75083739Y-95148422D01*
X75149629Y-95125178D01*
X75156265Y-95125000D01*
X75916967Y-95125000D01*
X75910665Y-95095354D01*
X75833713Y-94922518D01*
X75722514Y-94769467D01*
X75661543Y-94714568D01*
X75624895Y-94655081D01*
X75626226Y-94585224D01*
X75644748Y-94548782D01*
X75646682Y-94546162D01*
X75652793Y-94537882D01*
X75680061Y-94459954D01*
X75697646Y-94409701D01*
X75697646Y-94409699D01*
X75700500Y-94379269D01*
X75700500Y-93870730D01*
X75697646Y-93840300D01*
X75697646Y-93840298D01*
X75657870Y-93726627D01*
X75652793Y-93712118D01*
X75572150Y-93602850D01*
X75462882Y-93522207D01*
X75462880Y-93522206D01*
X75334700Y-93477353D01*
X75304270Y-93474500D01*
X75304266Y-93474500D01*
X74295734Y-93474500D01*
X74295730Y-93474500D01*
X74265300Y-93477353D01*
X74265298Y-93477353D01*
X74137119Y-93522206D01*
X74137117Y-93522207D01*
X74027850Y-93602850D01*
X73947207Y-93712117D01*
X73947206Y-93712119D01*
X73902353Y-93840298D01*
X73902353Y-93840300D01*
X73899500Y-93870730D01*
X73899500Y-94379269D01*
X73902353Y-94409696D01*
X73902353Y-94409698D01*
X73902354Y-94409699D01*
X73937396Y-94509843D01*
X73947207Y-94537882D01*
X73955253Y-94548784D01*
X73979224Y-94614413D01*
X73963908Y-94682584D01*
X73938455Y-94714568D01*
X73877490Y-94769460D01*
X73877488Y-94769463D01*
X73766282Y-94922522D01*
X73689335Y-95095351D01*
X73683033Y-95125000D01*
X74443735Y-95125000D01*
X74510774Y-95144685D01*
X74556529Y-95197489D01*
X74566473Y-95266647D01*
X74565353Y-95273191D01*
X74545102Y-95375000D01*
X74565353Y-95476809D01*
X74559125Y-95546401D01*
X74516261Y-95601578D01*
X74450371Y-95624822D01*
X74443735Y-95625000D01*
X73683033Y-95625000D01*
X73000000Y-95625000D01*
X73000000Y-87875000D01*
X73683033Y-87875000D01*
X73689334Y-87904645D01*
X73766286Y-88077481D01*
X73877487Y-88230535D01*
X73996249Y-88337469D01*
X74032898Y-88396956D01*
X74031567Y-88466813D01*
X74008821Y-88508659D01*
X73996402Y-88523670D01*
X73996400Y-88523673D01*
X73996400Y-88523674D01*
X73986473Y-88544770D01*
X73926420Y-88672389D01*
X73911931Y-88748345D01*
X73895624Y-88833830D01*
X73895624Y-88833832D01*
X73895624Y-88833833D01*
X73905944Y-88997860D01*
X73956732Y-89154171D01*
X73956734Y-89154175D01*
X74044798Y-89292940D01*
X74170294Y-89410789D01*
X74168577Y-89412616D01*
X74203733Y-89458208D01*
X74209712Y-89527821D01*
X74177106Y-89589616D01*
X74161068Y-89603513D01*
X74101162Y-89647037D01*
X73996400Y-89773673D01*
X73926420Y-89922387D01*
X73911207Y-90002139D01*
X73895624Y-90083830D01*
X73895624Y-90083832D01*
X73895624Y-90083833D01*
X73905944Y-90247860D01*
X73956732Y-90404171D01*
X73956734Y-90404175D01*
X74044798Y-90542940D01*
X74164603Y-90655445D01*
X74164611Y-90655451D01*
X74244860Y-90699568D01*
X74308632Y-90734627D01*
X74467823Y-90775500D01*
X74467827Y-90775500D01*
X75090923Y-90775500D01*
X75090925Y-90775500D01*
X75090930Y-90775499D01*
X75090934Y-90775499D01*
X75104174Y-90773826D01*
X75213058Y-90760071D01*
X75365871Y-90699568D01*
X75371505Y-90695475D01*
X75498835Y-90602965D01*
X75498835Y-90602963D01*
X75498837Y-90602963D01*
X75603600Y-90476326D01*
X75673579Y-90327613D01*
X75704376Y-90166170D01*
X75694056Y-90002140D01*
X75643268Y-89845829D01*
X75555202Y-89707060D01*
X75516311Y-89670539D01*
X75429706Y-89589211D01*
X75431421Y-89587384D01*
X75396263Y-89541784D01*
X75390288Y-89472170D01*
X75422899Y-89410377D01*
X75438928Y-89396488D01*
X75498837Y-89352963D01*
X75603600Y-89226326D01*
X75673579Y-89077613D01*
X75704376Y-88916170D01*
X75694056Y-88752140D01*
X75643268Y-88595829D01*
X75580706Y-88497247D01*
X75561405Y-88430100D01*
X75581471Y-88363174D01*
X75602431Y-88338657D01*
X75722509Y-88230539D01*
X75722511Y-88230536D01*
X75833717Y-88077477D01*
X75910664Y-87904648D01*
X75916967Y-87875000D01*
X75156265Y-87875000D01*
X75089226Y-87855315D01*
X75043471Y-87802511D01*
X75033527Y-87733353D01*
X75034647Y-87726809D01*
X75040879Y-87695476D01*
X75054898Y-87625000D01*
X75035495Y-87527455D01*
X75034647Y-87523191D01*
X75040875Y-87453599D01*
X75083739Y-87398422D01*
X75149629Y-87375178D01*
X75156265Y-87375000D01*
X75916967Y-87375000D01*
X75910665Y-87345354D01*
X75833713Y-87172518D01*
X75722514Y-87019467D01*
X75661543Y-86964568D01*
X75624895Y-86905081D01*
X75626226Y-86835224D01*
X75644748Y-86798782D01*
X75652793Y-86787882D01*
X75679795Y-86710715D01*
X75697646Y-86659701D01*
X75697646Y-86659699D01*
X75700500Y-86629269D01*
X75700500Y-86120730D01*
X75697646Y-86090300D01*
X75697646Y-86090298D01*
X75652793Y-85962119D01*
X75652792Y-85962117D01*
X75572150Y-85852850D01*
X75462882Y-85772207D01*
X75462880Y-85772206D01*
X75334700Y-85727353D01*
X75304270Y-85724500D01*
X75304266Y-85724500D01*
X74295734Y-85724500D01*
X74295730Y-85724500D01*
X74265300Y-85727353D01*
X74265298Y-85727353D01*
X74137119Y-85772206D01*
X74137117Y-85772207D01*
X74027850Y-85852850D01*
X73947207Y-85962117D01*
X73947206Y-85962119D01*
X73902353Y-86090298D01*
X73902353Y-86090300D01*
X73899500Y-86120730D01*
X73899500Y-86629269D01*
X73902353Y-86659696D01*
X73947207Y-86787882D01*
X73955253Y-86798784D01*
X73979224Y-86864413D01*
X73963908Y-86932584D01*
X73938455Y-86964568D01*
X73877490Y-87019460D01*
X73877488Y-87019463D01*
X73766282Y-87172522D01*
X73689335Y-87345351D01*
X73683033Y-87375000D01*
X74443735Y-87375000D01*
X74510774Y-87394685D01*
X74556529Y-87447489D01*
X74566473Y-87516647D01*
X74565353Y-87523191D01*
X74545102Y-87624999D01*
X74565353Y-87726809D01*
X74559125Y-87796401D01*
X74516261Y-87851578D01*
X74450371Y-87874822D01*
X74443735Y-87875000D01*
X73683033Y-87875000D01*
X73000000Y-87875000D01*
X73000000Y-80125000D01*
X73683033Y-80125000D01*
X73689334Y-80154645D01*
X73766286Y-80327481D01*
X73877487Y-80480535D01*
X73996249Y-80587469D01*
X74032898Y-80646956D01*
X74031567Y-80716813D01*
X74008821Y-80758659D01*
X73996402Y-80773670D01*
X73926420Y-80922389D01*
X73922016Y-80945477D01*
X73895624Y-81083830D01*
X73895624Y-81083832D01*
X73895624Y-81083833D01*
X73905944Y-81247860D01*
X73956732Y-81404171D01*
X73956734Y-81404175D01*
X74044798Y-81542940D01*
X74170294Y-81660789D01*
X74168577Y-81662616D01*
X74203733Y-81708208D01*
X74209712Y-81777821D01*
X74177106Y-81839616D01*
X74161068Y-81853513D01*
X74101162Y-81897037D01*
X73996400Y-82023673D01*
X73926420Y-82172387D01*
X73911946Y-82248265D01*
X73895624Y-82333830D01*
X73895624Y-82333832D01*
X73895624Y-82333833D01*
X73905944Y-82497860D01*
X73956732Y-82654171D01*
X73956734Y-82654175D01*
X74044798Y-82792940D01*
X74164603Y-82905445D01*
X74164611Y-82905451D01*
X74244860Y-82949568D01*
X74308632Y-82984627D01*
X74467823Y-83025500D01*
X74467827Y-83025500D01*
X75090923Y-83025500D01*
X75090925Y-83025500D01*
X75090930Y-83025499D01*
X75090934Y-83025499D01*
X75104174Y-83023826D01*
X75213058Y-83010071D01*
X75365871Y-82949568D01*
X75365878Y-82949563D01*
X75498835Y-82852965D01*
X75498835Y-82852963D01*
X75498837Y-82852963D01*
X75603600Y-82726326D01*
X75673579Y-82577613D01*
X75704376Y-82416170D01*
X75694056Y-82252140D01*
X75643268Y-82095829D01*
X75633938Y-82081128D01*
X75555201Y-81957059D01*
X75429706Y-81839211D01*
X75431421Y-81837384D01*
X75396263Y-81791784D01*
X75390288Y-81722170D01*
X75422899Y-81660377D01*
X75438928Y-81646488D01*
X75498837Y-81602963D01*
X75603600Y-81476326D01*
X75673579Y-81327613D01*
X75704376Y-81166170D01*
X75694056Y-81002140D01*
X75643268Y-80845829D01*
X75580706Y-80747247D01*
X75561405Y-80680100D01*
X75581471Y-80613174D01*
X75602431Y-80588657D01*
X75722509Y-80480539D01*
X75722511Y-80480536D01*
X75833717Y-80327477D01*
X75910664Y-80154648D01*
X75916967Y-80125000D01*
X75156265Y-80125000D01*
X75089226Y-80105315D01*
X75043471Y-80052511D01*
X75033527Y-79983353D01*
X75034647Y-79976809D01*
X75037115Y-79964400D01*
X75054898Y-79875000D01*
X75035495Y-79777455D01*
X75034647Y-79773191D01*
X75040875Y-79703599D01*
X75083739Y-79648422D01*
X75149629Y-79625178D01*
X75156265Y-79625000D01*
X75916967Y-79625000D01*
X75910665Y-79595354D01*
X75833713Y-79422518D01*
X75722514Y-79269467D01*
X75661543Y-79214568D01*
X75624895Y-79155081D01*
X75626226Y-79085224D01*
X75644748Y-79048782D01*
X75652793Y-79037882D01*
X75679795Y-78960715D01*
X75697646Y-78909701D01*
X75697646Y-78909699D01*
X75700500Y-78879269D01*
X75700500Y-78370730D01*
X75697646Y-78340300D01*
X75697646Y-78340298D01*
X75652793Y-78212119D01*
X75652792Y-78212117D01*
X75636207Y-78189645D01*
X75572150Y-78102850D01*
X75462882Y-78022207D01*
X75462880Y-78022206D01*
X75334700Y-77977353D01*
X75304270Y-77974500D01*
X75304266Y-77974500D01*
X74295734Y-77974500D01*
X74295730Y-77974500D01*
X74265300Y-77977353D01*
X74265298Y-77977353D01*
X74137119Y-78022206D01*
X74137117Y-78022207D01*
X74027850Y-78102850D01*
X73947207Y-78212117D01*
X73947206Y-78212119D01*
X73902353Y-78340298D01*
X73902353Y-78340300D01*
X73899500Y-78370730D01*
X73899500Y-78879269D01*
X73902353Y-78909696D01*
X73947207Y-79037882D01*
X73955253Y-79048784D01*
X73979224Y-79114413D01*
X73963908Y-79182584D01*
X73938455Y-79214568D01*
X73877490Y-79269460D01*
X73877488Y-79269463D01*
X73766282Y-79422522D01*
X73689335Y-79595351D01*
X73683033Y-79625000D01*
X74443735Y-79625000D01*
X74510774Y-79644685D01*
X74556529Y-79697489D01*
X74566473Y-79766647D01*
X74565353Y-79773191D01*
X74545102Y-79875000D01*
X74565353Y-79976809D01*
X74559125Y-80046401D01*
X74516261Y-80101578D01*
X74450371Y-80124822D01*
X74443735Y-80125000D01*
X73683033Y-80125000D01*
X73000000Y-80125000D01*
X73000000Y-72375000D01*
X73683033Y-72375000D01*
X73689334Y-72404645D01*
X73766286Y-72577481D01*
X73877487Y-72730535D01*
X73996249Y-72837469D01*
X74032898Y-72896956D01*
X74031567Y-72966813D01*
X74008821Y-73008659D01*
X73996402Y-73023670D01*
X73996400Y-73023673D01*
X73996400Y-73023674D01*
X73982799Y-73052578D01*
X73926420Y-73172389D01*
X73916298Y-73225451D01*
X73895624Y-73333830D01*
X73895624Y-73333832D01*
X73895624Y-73333833D01*
X73905944Y-73497860D01*
X73956732Y-73654171D01*
X73956734Y-73654175D01*
X74044798Y-73792940D01*
X74170294Y-73910789D01*
X74168577Y-73912616D01*
X74203733Y-73958208D01*
X74209712Y-74027821D01*
X74177106Y-74089616D01*
X74161068Y-74103513D01*
X74101162Y-74147037D01*
X73996400Y-74273673D01*
X73926420Y-74422387D01*
X73911615Y-74500000D01*
X73895624Y-74583830D01*
X73895624Y-74583832D01*
X73895624Y-74583833D01*
X73905944Y-74747860D01*
X73956732Y-74904171D01*
X73956734Y-74904175D01*
X74044798Y-75042940D01*
X74164603Y-75155445D01*
X74164611Y-75155451D01*
X74244860Y-75199568D01*
X74308632Y-75234627D01*
X74467823Y-75275500D01*
X74467827Y-75275500D01*
X75090923Y-75275500D01*
X75090925Y-75275500D01*
X75090930Y-75275499D01*
X75090934Y-75275499D01*
X75104174Y-75273826D01*
X75213058Y-75260071D01*
X75365871Y-75199568D01*
X75365878Y-75199563D01*
X75498835Y-75102965D01*
X75498835Y-75102963D01*
X75498837Y-75102963D01*
X75603600Y-74976326D01*
X75673579Y-74827613D01*
X75704376Y-74666170D01*
X75694056Y-74502140D01*
X75693361Y-74500000D01*
X105619722Y-74500000D01*
X105638762Y-74656818D01*
X105694780Y-74804523D01*
X105784517Y-74934530D01*
X105902760Y-75039283D01*
X105902762Y-75039284D01*
X106042634Y-75112696D01*
X106196014Y-75150500D01*
X106196015Y-75150500D01*
X106353985Y-75150500D01*
X106507365Y-75112696D01*
X106507364Y-75112695D01*
X106647240Y-75039283D01*
X106765483Y-74934530D01*
X106855220Y-74804523D01*
X106911237Y-74656818D01*
X106930278Y-74500000D01*
X106911559Y-74345829D01*
X106911237Y-74343181D01*
X106884876Y-74273673D01*
X106855220Y-74195477D01*
X106765483Y-74065470D01*
X106647240Y-73960717D01*
X106647238Y-73960716D01*
X106647237Y-73960715D01*
X106507365Y-73887303D01*
X106353986Y-73849500D01*
X106353985Y-73849500D01*
X106196015Y-73849500D01*
X106196014Y-73849500D01*
X106042634Y-73887303D01*
X105902762Y-73960715D01*
X105784516Y-74065471D01*
X105694781Y-74195475D01*
X105694780Y-74195476D01*
X105638762Y-74343181D01*
X105619722Y-74499999D01*
X105619722Y-74500000D01*
X75693361Y-74500000D01*
X75643268Y-74345829D01*
X75555202Y-74207060D01*
X75444936Y-74103513D01*
X75429706Y-74089211D01*
X75431421Y-74087384D01*
X75396263Y-74041784D01*
X75390288Y-73972170D01*
X75422899Y-73910377D01*
X75438928Y-73896488D01*
X75498837Y-73852963D01*
X75603600Y-73726326D01*
X75673579Y-73577613D01*
X75704376Y-73416170D01*
X75694056Y-73252140D01*
X75643268Y-73095829D01*
X75580706Y-72997247D01*
X75561405Y-72930100D01*
X75581471Y-72863174D01*
X75602431Y-72838657D01*
X75722509Y-72730539D01*
X75722511Y-72730536D01*
X75833717Y-72577477D01*
X75910664Y-72404648D01*
X75916967Y-72375000D01*
X75156265Y-72375000D01*
X75089226Y-72355315D01*
X75043471Y-72302511D01*
X75033527Y-72233353D01*
X75034647Y-72226809D01*
X75040674Y-72196507D01*
X75054898Y-72125000D01*
X75035495Y-72027455D01*
X75034647Y-72023191D01*
X75040875Y-71953599D01*
X75083739Y-71898422D01*
X75149629Y-71875178D01*
X75156265Y-71875000D01*
X75916967Y-71875000D01*
X75910665Y-71845354D01*
X75833713Y-71672518D01*
X75722514Y-71519467D01*
X75661543Y-71464568D01*
X75624895Y-71405081D01*
X75626226Y-71335224D01*
X75644748Y-71298782D01*
X75652392Y-71288425D01*
X75652793Y-71287882D01*
X75676371Y-71220500D01*
X75697646Y-71159701D01*
X75697646Y-71159699D01*
X75700500Y-71129269D01*
X75700500Y-70620730D01*
X75697646Y-70590300D01*
X75697646Y-70590298D01*
X75652793Y-70462119D01*
X75652792Y-70462117D01*
X75651759Y-70460717D01*
X75572150Y-70352850D01*
X75462882Y-70272207D01*
X75462880Y-70272206D01*
X75334700Y-70227353D01*
X75304270Y-70224500D01*
X75304266Y-70224500D01*
X74295734Y-70224500D01*
X74295730Y-70224500D01*
X74265300Y-70227353D01*
X74265298Y-70227353D01*
X74137119Y-70272206D01*
X74137117Y-70272207D01*
X74027850Y-70352850D01*
X73947207Y-70462117D01*
X73947206Y-70462119D01*
X73902353Y-70590298D01*
X73902353Y-70590300D01*
X73899500Y-70620730D01*
X73899500Y-71129269D01*
X73902353Y-71159696D01*
X73947207Y-71287882D01*
X73955253Y-71298784D01*
X73979224Y-71364413D01*
X73963908Y-71432584D01*
X73938455Y-71464568D01*
X73877490Y-71519460D01*
X73877488Y-71519463D01*
X73766282Y-71672522D01*
X73689335Y-71845351D01*
X73683033Y-71875000D01*
X74443735Y-71875000D01*
X74510774Y-71894685D01*
X74556529Y-71947489D01*
X74566473Y-72016647D01*
X74565353Y-72023191D01*
X74545102Y-72124999D01*
X74565353Y-72226809D01*
X74559125Y-72296401D01*
X74516261Y-72351578D01*
X74450371Y-72374822D01*
X74443735Y-72375000D01*
X73683033Y-72375000D01*
X73000000Y-72375000D01*
X73000000Y-67500000D01*
X116844721Y-67500000D01*
X116863762Y-67656818D01*
X116911649Y-67783083D01*
X116919780Y-67804523D01*
X117009517Y-67934530D01*
X117127760Y-68039283D01*
X117139860Y-68045633D01*
X117267634Y-68112696D01*
X117421014Y-68150500D01*
X117421015Y-68150500D01*
X117578985Y-68150500D01*
X117732365Y-68112696D01*
X117794663Y-68079999D01*
X117872240Y-68039283D01*
X117990483Y-67934530D01*
X118080220Y-67804523D01*
X118136237Y-67656818D01*
X118155278Y-67500000D01*
X127844721Y-67500000D01*
X127863762Y-67656818D01*
X127911649Y-67783083D01*
X127919780Y-67804523D01*
X128009517Y-67934530D01*
X128127760Y-68039283D01*
X128139860Y-68045633D01*
X128267634Y-68112696D01*
X128421014Y-68150500D01*
X128421015Y-68150500D01*
X128578985Y-68150500D01*
X128732365Y-68112696D01*
X128794663Y-68079999D01*
X128872240Y-68039283D01*
X128990483Y-67934530D01*
X129022950Y-67887492D01*
X129077233Y-67843503D01*
X129146681Y-67835843D01*
X129209246Y-67866946D01*
X129227049Y-67887492D01*
X129259517Y-67934530D01*
X129377760Y-68039283D01*
X129389860Y-68045633D01*
X129517634Y-68112696D01*
X129671014Y-68150500D01*
X129671015Y-68150500D01*
X129828985Y-68150500D01*
X129982365Y-68112696D01*
X130044663Y-68079999D01*
X130122240Y-68039283D01*
X130240483Y-67934530D01*
X130272950Y-67887492D01*
X130327233Y-67843503D01*
X130396681Y-67835843D01*
X130459246Y-67866946D01*
X130477049Y-67887492D01*
X130509517Y-67934530D01*
X130627760Y-68039283D01*
X130639860Y-68045633D01*
X130767634Y-68112696D01*
X130921014Y-68150500D01*
X130921015Y-68150500D01*
X131078985Y-68150500D01*
X131232365Y-68112696D01*
X131294663Y-68079999D01*
X131372240Y-68039283D01*
X131490483Y-67934530D01*
X131522949Y-67887493D01*
X131577230Y-67843503D01*
X131646679Y-67835843D01*
X131709244Y-67866945D01*
X131727048Y-67887492D01*
X131759515Y-67934528D01*
X131759516Y-67934529D01*
X131759517Y-67934530D01*
X131877760Y-68039283D01*
X131889860Y-68045633D01*
X132017634Y-68112696D01*
X132171014Y-68150500D01*
X132171015Y-68150500D01*
X132328985Y-68150500D01*
X132482365Y-68112696D01*
X132544663Y-68079999D01*
X132622240Y-68039283D01*
X132740483Y-67934530D01*
X132772949Y-67887493D01*
X132827230Y-67843503D01*
X132896679Y-67835843D01*
X132959244Y-67866945D01*
X132977048Y-67887492D01*
X133009515Y-67934528D01*
X133009516Y-67934529D01*
X133009517Y-67934530D01*
X133127760Y-68039283D01*
X133139860Y-68045633D01*
X133267634Y-68112696D01*
X133421014Y-68150500D01*
X133421015Y-68150500D01*
X133578985Y-68150500D01*
X133732365Y-68112696D01*
X133794663Y-68079999D01*
X133872240Y-68039283D01*
X133990483Y-67934530D01*
X134080220Y-67804523D01*
X134136237Y-67656818D01*
X134155278Y-67500000D01*
X134136237Y-67343182D01*
X134131237Y-67329999D01*
X134097805Y-67241846D01*
X134080220Y-67195477D01*
X133990483Y-67065470D01*
X133872240Y-66960717D01*
X133872238Y-66960716D01*
X133872237Y-66960715D01*
X133732365Y-66887303D01*
X133578986Y-66849500D01*
X133578985Y-66849500D01*
X133421015Y-66849500D01*
X133421014Y-66849500D01*
X133267634Y-66887303D01*
X133127762Y-66960715D01*
X133009517Y-67065469D01*
X132977050Y-67112507D01*
X132922766Y-67156497D01*
X132853318Y-67164156D01*
X132790753Y-67133052D01*
X132772950Y-67112507D01*
X132761087Y-67095320D01*
X132740483Y-67065470D01*
X132622240Y-66960717D01*
X132622238Y-66960716D01*
X132622237Y-66960715D01*
X132482365Y-66887303D01*
X132328986Y-66849500D01*
X132328985Y-66849500D01*
X132171015Y-66849500D01*
X132171014Y-66849500D01*
X132017634Y-66887303D01*
X131877762Y-66960715D01*
X131759516Y-67065470D01*
X131727048Y-67112508D01*
X131672764Y-67156497D01*
X131603315Y-67164155D01*
X131540751Y-67133051D01*
X131522949Y-67112505D01*
X131490485Y-67065472D01*
X131490482Y-67065469D01*
X131372240Y-66960717D01*
X131372238Y-66960716D01*
X131372237Y-66960715D01*
X131232365Y-66887303D01*
X131078986Y-66849500D01*
X131078985Y-66849500D01*
X130921015Y-66849500D01*
X130921014Y-66849500D01*
X130767634Y-66887303D01*
X130627762Y-66960715D01*
X130509517Y-67065469D01*
X130477050Y-67112507D01*
X130422766Y-67156497D01*
X130353318Y-67164156D01*
X130290753Y-67133052D01*
X130272950Y-67112507D01*
X130261087Y-67095320D01*
X130240483Y-67065470D01*
X130122240Y-66960717D01*
X130122238Y-66960716D01*
X130122237Y-66960715D01*
X129982365Y-66887303D01*
X129828986Y-66849500D01*
X129828985Y-66849500D01*
X129671015Y-66849500D01*
X129671014Y-66849500D01*
X129517634Y-66887303D01*
X129377762Y-66960715D01*
X129259517Y-67065469D01*
X129227050Y-67112507D01*
X129172766Y-67156497D01*
X129103318Y-67164156D01*
X129040753Y-67133052D01*
X129022950Y-67112507D01*
X129011087Y-67095320D01*
X128990483Y-67065470D01*
X128872240Y-66960717D01*
X128872238Y-66960716D01*
X128872237Y-66960715D01*
X128732365Y-66887303D01*
X128578986Y-66849500D01*
X128578985Y-66849500D01*
X128421015Y-66849500D01*
X128421014Y-66849500D01*
X128267634Y-66887303D01*
X128127762Y-66960715D01*
X128009516Y-67065471D01*
X127919781Y-67195475D01*
X127919780Y-67195476D01*
X127863762Y-67343181D01*
X127844721Y-67499999D01*
X127844721Y-67500000D01*
X118155278Y-67500000D01*
X118136237Y-67343182D01*
X118131237Y-67329999D01*
X118097805Y-67241846D01*
X118080220Y-67195477D01*
X117990483Y-67065470D01*
X117880251Y-66967814D01*
X117843125Y-66908625D01*
X117843893Y-66838760D01*
X117880251Y-66782185D01*
X117990483Y-66684530D01*
X118080220Y-66554523D01*
X118136237Y-66406818D01*
X118155278Y-66250000D01*
X118141983Y-66140500D01*
X118136237Y-66093181D01*
X118084662Y-65957190D01*
X118080220Y-65945477D01*
X118014662Y-65850499D01*
X117990482Y-65815468D01*
X117880253Y-65717816D01*
X117843126Y-65658627D01*
X117843892Y-65588761D01*
X117880253Y-65532184D01*
X117888724Y-65524680D01*
X117956143Y-65464952D01*
X117990482Y-65434531D01*
X117990483Y-65434530D01*
X118080220Y-65304523D01*
X118136237Y-65156818D01*
X118155278Y-65000000D01*
X118149078Y-64948933D01*
X118136237Y-64843181D01*
X118100896Y-64749996D01*
X118080220Y-64695477D01*
X117998109Y-64576518D01*
X117990482Y-64565468D01*
X117880253Y-64467816D01*
X117843126Y-64408627D01*
X117843892Y-64338761D01*
X117880253Y-64282184D01*
X117900636Y-64264127D01*
X117990483Y-64184530D01*
X118080220Y-64054523D01*
X118136237Y-63906818D01*
X118155278Y-63750000D01*
X118154325Y-63742147D01*
X118136237Y-63593181D01*
X118096858Y-63489348D01*
X118080220Y-63445477D01*
X117990483Y-63315470D01*
X117872240Y-63210717D01*
X117872238Y-63210716D01*
X117872237Y-63210715D01*
X117732365Y-63137303D01*
X117578986Y-63099500D01*
X117578985Y-63099500D01*
X117421015Y-63099500D01*
X117421014Y-63099500D01*
X117267634Y-63137303D01*
X117127762Y-63210715D01*
X117009516Y-63315471D01*
X116919781Y-63445475D01*
X116919780Y-63445476D01*
X116863762Y-63593181D01*
X116844721Y-63749999D01*
X116844721Y-63750000D01*
X116863762Y-63906818D01*
X116919780Y-64054523D01*
X116919781Y-64054524D01*
X116998402Y-64168428D01*
X117009517Y-64184530D01*
X117099364Y-64264127D01*
X117119747Y-64282184D01*
X117156874Y-64341374D01*
X117156106Y-64411239D01*
X117119747Y-64467816D01*
X117009516Y-64565470D01*
X116919781Y-64695475D01*
X116919780Y-64695476D01*
X116863762Y-64843181D01*
X116844721Y-64999999D01*
X116844721Y-65000000D01*
X116863762Y-65156818D01*
X116919780Y-65304523D01*
X116919781Y-65304524D01*
X117008169Y-65432578D01*
X117009517Y-65434530D01*
X117111276Y-65524680D01*
X117119747Y-65532184D01*
X117156874Y-65591374D01*
X117156106Y-65661239D01*
X117119747Y-65717816D01*
X117009516Y-65815470D01*
X116919781Y-65945475D01*
X116919780Y-65945476D01*
X116863762Y-66093181D01*
X116844721Y-66249999D01*
X116844721Y-66250000D01*
X116863762Y-66406818D01*
X116919780Y-66554523D01*
X116919781Y-66554524D01*
X117009517Y-66684531D01*
X117119746Y-66782183D01*
X117156873Y-66841372D01*
X117156107Y-66911238D01*
X117119747Y-66967814D01*
X117009518Y-67065468D01*
X116919781Y-67195475D01*
X116919780Y-67195476D01*
X116863762Y-67343181D01*
X116844721Y-67499999D01*
X116844721Y-67500000D01*
X73000000Y-67500000D01*
X73000000Y-64100004D01*
X73954592Y-64100004D01*
X73974196Y-64361620D01*
X73974197Y-64361625D01*
X74032576Y-64617402D01*
X74032578Y-64617411D01*
X74032580Y-64617416D01*
X74128432Y-64861643D01*
X74259614Y-65088857D01*
X74373368Y-65231500D01*
X74423198Y-65293985D01*
X74561902Y-65422682D01*
X74615521Y-65472433D01*
X74832296Y-65620228D01*
X74832301Y-65620230D01*
X74832302Y-65620231D01*
X74832303Y-65620232D01*
X74957843Y-65680688D01*
X75068673Y-65734061D01*
X75068674Y-65734061D01*
X75068677Y-65734063D01*
X75319385Y-65811396D01*
X75578818Y-65850500D01*
X75841182Y-65850500D01*
X76100615Y-65811396D01*
X76351323Y-65734063D01*
X76530359Y-65647844D01*
X78790000Y-65647844D01*
X78796401Y-65707372D01*
X78796403Y-65707379D01*
X78846645Y-65842086D01*
X78846649Y-65842093D01*
X78932809Y-65957187D01*
X78932812Y-65957190D01*
X79047906Y-66043350D01*
X79047913Y-66043354D01*
X79182620Y-66093596D01*
X79182627Y-66093598D01*
X79242155Y-66099999D01*
X79242172Y-66100000D01*
X80540000Y-66100000D01*
X80540000Y-64978625D01*
X80559685Y-64911586D01*
X80612489Y-64865831D01*
X80681647Y-64855887D01*
X80692589Y-64857966D01*
X80701169Y-64860000D01*
X80701170Y-64860000D01*
X80834260Y-64860000D01*
X80834267Y-64860000D01*
X80901605Y-64852129D01*
X80970475Y-64863897D01*
X81022051Y-64911031D01*
X81040000Y-64975290D01*
X81040000Y-66100000D01*
X82337828Y-66100000D01*
X82337844Y-66099999D01*
X82397372Y-66093598D01*
X82397379Y-66093596D01*
X82532086Y-66043354D01*
X82532093Y-66043350D01*
X82647187Y-65957190D01*
X82647190Y-65957187D01*
X82733350Y-65842093D01*
X82733354Y-65842086D01*
X82783596Y-65707379D01*
X82783598Y-65707372D01*
X82789999Y-65647844D01*
X82790000Y-65647827D01*
X82790000Y-65472870D01*
X85899500Y-65472870D01*
X85899501Y-65472876D01*
X85905908Y-65532483D01*
X85956202Y-65667328D01*
X85956206Y-65667335D01*
X86042452Y-65782544D01*
X86042455Y-65782547D01*
X86157664Y-65868793D01*
X86157671Y-65868797D01*
X86292517Y-65919091D01*
X86292516Y-65919091D01*
X86299444Y-65919835D01*
X86352127Y-65925500D01*
X87647872Y-65925499D01*
X87707483Y-65919091D01*
X87842331Y-65868796D01*
X87957546Y-65782546D01*
X88043796Y-65667331D01*
X88094091Y-65532483D01*
X88100500Y-65472873D01*
X88100500Y-64877425D01*
X88399500Y-64877425D01*
X88414472Y-65034218D01*
X88473684Y-65235875D01*
X88509075Y-65304524D01*
X88569991Y-65422686D01*
X88699905Y-65587883D01*
X88699909Y-65587887D01*
X88858746Y-65725521D01*
X89040750Y-65830601D01*
X89040752Y-65830601D01*
X89040756Y-65830604D01*
X89239367Y-65899344D01*
X89447398Y-65929254D01*
X89657330Y-65919254D01*
X89861576Y-65869704D01*
X89947199Y-65830601D01*
X90052743Y-65782401D01*
X90052746Y-65782399D01*
X90052753Y-65782396D01*
X90223952Y-65660486D01*
X90231757Y-65652301D01*
X90368985Y-65508379D01*
X90372130Y-65503486D01*
X90482613Y-65331572D01*
X90560725Y-65136457D01*
X90600500Y-64930085D01*
X90600500Y-64877425D01*
X90899500Y-64877425D01*
X90914472Y-65034218D01*
X90973684Y-65235875D01*
X91009075Y-65304524D01*
X91069991Y-65422686D01*
X91199905Y-65587883D01*
X91199909Y-65587887D01*
X91358746Y-65725521D01*
X91540750Y-65830601D01*
X91540752Y-65830601D01*
X91540756Y-65830604D01*
X91739367Y-65899344D01*
X91947398Y-65929254D01*
X92157330Y-65919254D01*
X92361576Y-65869704D01*
X92447199Y-65830601D01*
X92552743Y-65782401D01*
X92552746Y-65782399D01*
X92552753Y-65782396D01*
X92723952Y-65660486D01*
X92731757Y-65652301D01*
X92868985Y-65508379D01*
X92872130Y-65503486D01*
X92982613Y-65331572D01*
X92998134Y-65292801D01*
X93041323Y-65237881D01*
X93107349Y-65215029D01*
X93175250Y-65231500D01*
X93223466Y-65282067D01*
X93225633Y-65286483D01*
X93326399Y-65502577D01*
X93326400Y-65502579D01*
X93461886Y-65696073D01*
X93461891Y-65696079D01*
X93628917Y-65863105D01*
X93822421Y-65998600D01*
X94036507Y-66098429D01*
X94036516Y-66098433D01*
X94250000Y-66155634D01*
X94250000Y-65285887D01*
X94269685Y-65218848D01*
X94322489Y-65173093D01*
X94391647Y-65163149D01*
X94393363Y-65163408D01*
X94414314Y-65166726D01*
X94466545Y-65175000D01*
X94466549Y-65175000D01*
X94533455Y-65175000D01*
X94585685Y-65166726D01*
X94606601Y-65163414D01*
X94675894Y-65172368D01*
X94729347Y-65217364D01*
X94749987Y-65284115D01*
X94750000Y-65285887D01*
X94750000Y-66155633D01*
X94963483Y-66098433D01*
X94963492Y-66098429D01*
X95177577Y-65998600D01*
X95177579Y-65998599D01*
X95371073Y-65863113D01*
X95371079Y-65863108D01*
X95538108Y-65696079D01*
X95538113Y-65696073D01*
X95673599Y-65502579D01*
X95673600Y-65502577D01*
X95773429Y-65288492D01*
X95773433Y-65288483D01*
X95834568Y-65060323D01*
X95834568Y-65060319D01*
X95839846Y-65000000D01*
X95035888Y-65000000D01*
X94968849Y-64980315D01*
X94923094Y-64927511D01*
X94913150Y-64858353D01*
X94913415Y-64856603D01*
X94930298Y-64750003D01*
X94930298Y-64749996D01*
X94913415Y-64643397D01*
X94922370Y-64574104D01*
X94967366Y-64520652D01*
X95034118Y-64500013D01*
X95035888Y-64500000D01*
X95839845Y-64500000D01*
X95834568Y-64439680D01*
X95834568Y-64439676D01*
X95773433Y-64211516D01*
X95773429Y-64211507D01*
X95673600Y-63997422D01*
X95673599Y-63997420D01*
X95538113Y-63803926D01*
X95538108Y-63803920D01*
X95371082Y-63636894D01*
X95177578Y-63501399D01*
X94963492Y-63401570D01*
X94963486Y-63401567D01*
X94750000Y-63344364D01*
X94750000Y-64214112D01*
X94730315Y-64281151D01*
X94677511Y-64326906D01*
X94608353Y-64336850D01*
X94606602Y-64336585D01*
X94533456Y-64325000D01*
X94533451Y-64325000D01*
X94466549Y-64325000D01*
X94466544Y-64325000D01*
X94393398Y-64336585D01*
X94324104Y-64327630D01*
X94270652Y-64282634D01*
X94250013Y-64215882D01*
X94250000Y-64214112D01*
X94250000Y-63344364D01*
X94249999Y-63344364D01*
X94036513Y-63401567D01*
X94036507Y-63401570D01*
X93822422Y-63501399D01*
X93822420Y-63501400D01*
X93628926Y-63636886D01*
X93628920Y-63636891D01*
X93461891Y-63803920D01*
X93461886Y-63803926D01*
X93326400Y-63997420D01*
X93326399Y-63997422D01*
X93225379Y-64214060D01*
X93179206Y-64266499D01*
X93112013Y-64285651D01*
X93045132Y-64265435D01*
X93002781Y-64218474D01*
X93001445Y-64215882D01*
X92930011Y-64077318D01*
X92912858Y-64055506D01*
X92800094Y-63912116D01*
X92800090Y-63912112D01*
X92641253Y-63774478D01*
X92459249Y-63669398D01*
X92459245Y-63669396D01*
X92459244Y-63669396D01*
X92260633Y-63600656D01*
X92052602Y-63570746D01*
X92052598Y-63570746D01*
X91842672Y-63580745D01*
X91638421Y-63630296D01*
X91638417Y-63630298D01*
X91447256Y-63717598D01*
X91447251Y-63717601D01*
X91276046Y-63839515D01*
X91276040Y-63839520D01*
X91131014Y-63991620D01*
X91017388Y-64168425D01*
X90939274Y-64363544D01*
X90899500Y-64569914D01*
X90899500Y-64569915D01*
X90899500Y-64877425D01*
X90600500Y-64877425D01*
X90600500Y-64622575D01*
X90585528Y-64465782D01*
X90526316Y-64264125D01*
X90430011Y-64077318D01*
X90430009Y-64077315D01*
X90430008Y-64077313D01*
X90300094Y-63912116D01*
X90300090Y-63912112D01*
X90141253Y-63774478D01*
X89959249Y-63669398D01*
X89959245Y-63669396D01*
X89959244Y-63669396D01*
X89760633Y-63600656D01*
X89552602Y-63570746D01*
X89552598Y-63570746D01*
X89342672Y-63580745D01*
X89138421Y-63630296D01*
X89138417Y-63630298D01*
X88947256Y-63717598D01*
X88947251Y-63717601D01*
X88776046Y-63839515D01*
X88776040Y-63839520D01*
X88631014Y-63991620D01*
X88517388Y-64168425D01*
X88439274Y-64363544D01*
X88399500Y-64569914D01*
X88399500Y-64569915D01*
X88399500Y-64877425D01*
X88100500Y-64877425D01*
X88100499Y-64027128D01*
X88094091Y-63967517D01*
X88093946Y-63967129D01*
X88043797Y-63832671D01*
X88043793Y-63832664D01*
X87957547Y-63717455D01*
X87957544Y-63717452D01*
X87842335Y-63631206D01*
X87842328Y-63631202D01*
X87707482Y-63580908D01*
X87707483Y-63580908D01*
X87647883Y-63574501D01*
X87647881Y-63574500D01*
X87647873Y-63574500D01*
X87647864Y-63574500D01*
X86352129Y-63574500D01*
X86352123Y-63574501D01*
X86292516Y-63580908D01*
X86157671Y-63631202D01*
X86157664Y-63631206D01*
X86042455Y-63717452D01*
X86042452Y-63717455D01*
X85956206Y-63832664D01*
X85956202Y-63832671D01*
X85905908Y-63967517D01*
X85899501Y-64027116D01*
X85899501Y-64027123D01*
X85899500Y-64027135D01*
X85899500Y-65472870D01*
X82790000Y-65472870D01*
X82790000Y-64350000D01*
X81668159Y-64350000D01*
X81601120Y-64330315D01*
X81555365Y-64277511D01*
X81544369Y-64218790D01*
X81544388Y-64218474D01*
X81553879Y-64055509D01*
X81548751Y-64026429D01*
X81543304Y-63995531D01*
X81551048Y-63926092D01*
X81595105Y-63871863D01*
X81661487Y-63850062D01*
X81665420Y-63850000D01*
X82790000Y-63850000D01*
X82790000Y-62552172D01*
X82789999Y-62552155D01*
X82783598Y-62492627D01*
X82783596Y-62492620D01*
X82733354Y-62357913D01*
X82733350Y-62357906D01*
X82647190Y-62242812D01*
X82647187Y-62242809D01*
X82532093Y-62156649D01*
X82532086Y-62156645D01*
X82397379Y-62106403D01*
X82397372Y-62106401D01*
X82337844Y-62100000D01*
X81040000Y-62100000D01*
X81040000Y-63221374D01*
X81020315Y-63288413D01*
X80967511Y-63334168D01*
X80898353Y-63344112D01*
X80887407Y-63342032D01*
X80878832Y-63340000D01*
X80878831Y-63340000D01*
X80745733Y-63340000D01*
X80678393Y-63347870D01*
X80609523Y-63336102D01*
X80557948Y-63288966D01*
X80540000Y-63224709D01*
X80540000Y-62100000D01*
X79242155Y-62100000D01*
X79182627Y-62106401D01*
X79182620Y-62106403D01*
X79047913Y-62156645D01*
X79047906Y-62156649D01*
X78932812Y-62242809D01*
X78932809Y-62242812D01*
X78846649Y-62357906D01*
X78846645Y-62357913D01*
X78796403Y-62492620D01*
X78796401Y-62492627D01*
X78790000Y-62552155D01*
X78790000Y-63850000D01*
X79911841Y-63850000D01*
X79978880Y-63869685D01*
X80024635Y-63922489D01*
X80035630Y-63981209D01*
X80034797Y-63995531D01*
X80026120Y-64144489D01*
X80026121Y-64144491D01*
X80036696Y-64204469D01*
X80028952Y-64273908D01*
X79984895Y-64328137D01*
X79918513Y-64349938D01*
X79914580Y-64350000D01*
X78790000Y-64350000D01*
X78790000Y-65647844D01*
X76530359Y-65647844D01*
X76587704Y-65620228D01*
X76804479Y-65472433D01*
X76956291Y-65331572D01*
X76996801Y-65293985D01*
X76996801Y-65293983D01*
X76996805Y-65293981D01*
X77160386Y-65088857D01*
X77291568Y-64861643D01*
X77387420Y-64617416D01*
X77445802Y-64361630D01*
X77456861Y-64214060D01*
X77465408Y-64100004D01*
X77465408Y-64099995D01*
X77445803Y-63838379D01*
X77445802Y-63838374D01*
X77445802Y-63838370D01*
X77387420Y-63582584D01*
X77291568Y-63338357D01*
X77160386Y-63111143D01*
X76996805Y-62906019D01*
X76996804Y-62906018D01*
X76996801Y-62906014D01*
X76804479Y-62727567D01*
X76804478Y-62727566D01*
X76587704Y-62579772D01*
X76587700Y-62579770D01*
X76587697Y-62579768D01*
X76587696Y-62579767D01*
X76351325Y-62465938D01*
X76351327Y-62465938D01*
X76100623Y-62388606D01*
X76100619Y-62388605D01*
X76100615Y-62388604D01*
X75975823Y-62369794D01*
X75841187Y-62349500D01*
X75841182Y-62349500D01*
X75578818Y-62349500D01*
X75578812Y-62349500D01*
X75417247Y-62373853D01*
X75319385Y-62388604D01*
X75319381Y-62388605D01*
X75319382Y-62388605D01*
X75319376Y-62388606D01*
X75068673Y-62465938D01*
X74832303Y-62579767D01*
X74832302Y-62579768D01*
X74615520Y-62727567D01*
X74423198Y-62906014D01*
X74259614Y-63111143D01*
X74128432Y-63338356D01*
X74032582Y-63582578D01*
X74032576Y-63582597D01*
X73974197Y-63838374D01*
X73974196Y-63838379D01*
X73954592Y-64099995D01*
X73954592Y-64100004D01*
X73000000Y-64100004D01*
X73000000Y-56567909D01*
X74641779Y-56567909D01*
X74671468Y-56837735D01*
X74671470Y-56837748D01*
X74706127Y-56970315D01*
X74740132Y-57100384D01*
X74846303Y-57350224D01*
X74918588Y-57468668D01*
X74987716Y-57581940D01*
X74987717Y-57581942D01*
X74987719Y-57581944D01*
X75161368Y-57790604D01*
X75363546Y-57971757D01*
X75589947Y-58121542D01*
X75835743Y-58236767D01*
X76095697Y-58314975D01*
X76364268Y-58354500D01*
X76364273Y-58354500D01*
X76567786Y-58354500D01*
X76619394Y-58350722D01*
X76770740Y-58339645D01*
X76881488Y-58314975D01*
X77035702Y-58280623D01*
X77035704Y-58280622D01*
X77035709Y-58280621D01*
X77289261Y-58183646D01*
X77525991Y-58050786D01*
X77740853Y-57884875D01*
X77929269Y-57689447D01*
X78087223Y-57468668D01*
X78211348Y-57227244D01*
X78298998Y-56970320D01*
X78348306Y-56703371D01*
X78353256Y-56567909D01*
X169141779Y-56567909D01*
X169171468Y-56837735D01*
X169171470Y-56837748D01*
X169206127Y-56970315D01*
X169240132Y-57100384D01*
X169346303Y-57350224D01*
X169418588Y-57468668D01*
X169487716Y-57581940D01*
X169487717Y-57581942D01*
X169487719Y-57581944D01*
X169661368Y-57790604D01*
X169863546Y-57971757D01*
X170089947Y-58121542D01*
X170335743Y-58236767D01*
X170595697Y-58314975D01*
X170864268Y-58354500D01*
X170864273Y-58354500D01*
X171067786Y-58354500D01*
X171119394Y-58350722D01*
X171270740Y-58339645D01*
X171381488Y-58314975D01*
X171535702Y-58280623D01*
X171535704Y-58280622D01*
X171535709Y-58280621D01*
X171789261Y-58183646D01*
X172025991Y-58050786D01*
X172240853Y-57884875D01*
X172429269Y-57689447D01*
X172587223Y-57468668D01*
X172711348Y-57227244D01*
X172798998Y-56970320D01*
X172848306Y-56703371D01*
X172858220Y-56432089D01*
X172828530Y-56162253D01*
X172759868Y-55899616D01*
X172653697Y-55649776D01*
X172512281Y-55418056D01*
X172338632Y-55209396D01*
X172136454Y-55028243D01*
X171910053Y-54878458D01*
X171664257Y-54763233D01*
X171404303Y-54685025D01*
X171404301Y-54685024D01*
X171404299Y-54685024D01*
X171307999Y-54670852D01*
X171135732Y-54645500D01*
X170932219Y-54645500D01*
X170932214Y-54645500D01*
X170729260Y-54660355D01*
X170729246Y-54660357D01*
X170464297Y-54719376D01*
X170464290Y-54719379D01*
X170210736Y-54816355D01*
X169974012Y-54949211D01*
X169759140Y-55115130D01*
X169759139Y-55115132D01*
X169570734Y-55310549D01*
X169570732Y-55310551D01*
X169412778Y-55531329D01*
X169288656Y-55772746D01*
X169288649Y-55772762D01*
X169201005Y-56029666D01*
X169201001Y-56029684D01*
X169151693Y-56296631D01*
X169151693Y-56296633D01*
X169141779Y-56567909D01*
X78353256Y-56567909D01*
X78358220Y-56432089D01*
X78328530Y-56162253D01*
X78259868Y-55899616D01*
X78153697Y-55649776D01*
X78012281Y-55418056D01*
X77838632Y-55209396D01*
X77636454Y-55028243D01*
X77410053Y-54878458D01*
X77164257Y-54763233D01*
X76904303Y-54685025D01*
X76904301Y-54685024D01*
X76904299Y-54685024D01*
X76807999Y-54670852D01*
X76635732Y-54645500D01*
X76432219Y-54645500D01*
X76432214Y-54645500D01*
X76229260Y-54660355D01*
X76229246Y-54660357D01*
X75964297Y-54719376D01*
X75964290Y-54719379D01*
X75710736Y-54816355D01*
X75474012Y-54949211D01*
X75259140Y-55115130D01*
X75259139Y-55115132D01*
X75070734Y-55310549D01*
X75070732Y-55310551D01*
X74912778Y-55531329D01*
X74788656Y-55772746D01*
X74788649Y-55772762D01*
X74701005Y-56029666D01*
X74701001Y-56029684D01*
X74651693Y-56296631D01*
X74651693Y-56296633D01*
X74641779Y-56567909D01*
X73000000Y-56567909D01*
X73000000Y-53124000D01*
X73019685Y-53056961D01*
X73072489Y-53011206D01*
X73124000Y-53000000D01*
X174376000Y-53000000D01*
X174443039Y-53019685D01*
G37*
G04 #@! TD.AperFunction*
M02*
