%TF.GenerationSoftware,KiCad,Pcbnew,7.0.7*%
%TF.CreationDate,2023-09-24T13:57:46+10:00*%
%TF.ProjectId,fyp_nubots_ssl,6679705f-6e75-4626-9f74-735f73736c2e,rev?*%
%TF.SameCoordinates,Original*%
%TF.FileFunction,Drillmap*%
%TF.FilePolarity,Positive*%
%FSLAX45Y45*%
G04 Gerber Fmt 4.5, Leading zero omitted, Abs format (unit mm)*
G04 Created by KiCad (PCBNEW 7.0.7) date 2023-09-24 13:57:46*
%MOMM*%
%LPD*%
G01*
G04 APERTURE LIST*
%ADD10C,0.100000*%
%ADD11C,0.200000*%
%ADD12C,0.020000*%
%ADD13C,0.040000*%
%ADD14C,0.050000*%
%ADD15C,0.085000*%
%ADD16C,0.152000*%
G04 APERTURE END LIST*
D10*
X17500000Y-11500000D02*
X14250000Y-11500000D01*
X14250000Y-13250000D01*
X7250000Y-13250000D01*
X7250000Y-5250000D01*
X17500000Y-5250000D01*
X17500000Y-11500000D01*
D11*
D12*
X7765000Y-9440000D02*
X7785000Y-9460000D01*
X7785000Y-9440000D02*
X7765000Y-9460000D01*
X7765000Y-9915000D02*
X7785000Y-9935000D01*
X7785000Y-9915000D02*
X7765000Y-9935000D01*
X7765000Y-10215000D02*
X7785000Y-10235000D01*
X7785000Y-10215000D02*
X7765000Y-10235000D01*
X7765000Y-10990000D02*
X7785000Y-11010000D01*
X7785000Y-10990000D02*
X7765000Y-11010000D01*
X7765000Y-11465000D02*
X7785000Y-11485000D01*
X7785000Y-11465000D02*
X7765000Y-11485000D01*
X7765000Y-11765000D02*
X7785000Y-11785000D01*
X7785000Y-11765000D02*
X7765000Y-11785000D01*
X7765000Y-12540000D02*
X7785000Y-12560000D01*
X7785000Y-12540000D02*
X7765000Y-12560000D01*
X7790000Y-7115000D02*
X7810000Y-7135000D01*
X7810000Y-7115000D02*
X7790000Y-7135000D01*
X7790000Y-8690000D02*
X7810000Y-8710000D01*
X7810000Y-8690000D02*
X7790000Y-8710000D01*
X7840000Y-7565000D02*
X7860000Y-7585000D01*
X7860000Y-7565000D02*
X7840000Y-7585000D01*
X7840000Y-8015000D02*
X7860000Y-8035000D01*
X7860000Y-8015000D02*
X7840000Y-8035000D01*
X7865000Y-8315000D02*
X7885000Y-8335000D01*
X7885000Y-8315000D02*
X7865000Y-8335000D01*
X7890000Y-12990000D02*
X7910000Y-13010000D01*
X7910000Y-12990000D02*
X7890000Y-13010000D01*
X7915000Y-9140000D02*
X7935000Y-9160000D01*
X7935000Y-9140000D02*
X7915000Y-9160000D01*
X7915000Y-10065000D02*
X7935000Y-10085000D01*
X7935000Y-10065000D02*
X7915000Y-10085000D01*
X7915000Y-10690000D02*
X7935000Y-10710000D01*
X7935000Y-10690000D02*
X7915000Y-10710000D01*
X7915000Y-11615000D02*
X7935000Y-11635000D01*
X7935000Y-11615000D02*
X7915000Y-11635000D01*
X7915000Y-12240000D02*
X7935000Y-12260000D01*
X7935000Y-12240000D02*
X7915000Y-12260000D01*
X7940000Y-8540000D02*
X7960000Y-8560000D01*
X7960000Y-8540000D02*
X7940000Y-8560000D01*
X7990000Y-7415000D02*
X8010000Y-7435000D01*
X8010000Y-7415000D02*
X7990000Y-7435000D01*
X7990000Y-7865000D02*
X8010000Y-7885000D01*
X8010000Y-7865000D02*
X7990000Y-7885000D01*
X8040000Y-12990000D02*
X8060000Y-13010000D01*
X8060000Y-12990000D02*
X8040000Y-13010000D01*
X8065000Y-8990000D02*
X8085000Y-9010000D01*
X8085000Y-8990000D02*
X8065000Y-9010000D01*
X8065000Y-9440000D02*
X8085000Y-9460000D01*
X8085000Y-9440000D02*
X8065000Y-9460000D01*
X8065000Y-9915000D02*
X8085000Y-9935000D01*
X8085000Y-9915000D02*
X8065000Y-9935000D01*
X8065000Y-10540000D02*
X8085000Y-10560000D01*
X8085000Y-10540000D02*
X8065000Y-10560000D01*
X8065000Y-10990000D02*
X8085000Y-11010000D01*
X8085000Y-10990000D02*
X8065000Y-11010000D01*
X8065000Y-11465000D02*
X8085000Y-11485000D01*
X8085000Y-11465000D02*
X8065000Y-11485000D01*
X8065000Y-12090000D02*
X8085000Y-12110000D01*
X8085000Y-12090000D02*
X8065000Y-12110000D01*
X8065000Y-12540000D02*
X8085000Y-12560000D01*
X8085000Y-12540000D02*
X8065000Y-12560000D01*
X8140000Y-6965000D02*
X8160000Y-6985000D01*
X8160000Y-6965000D02*
X8140000Y-6985000D01*
X8140000Y-7565000D02*
X8160000Y-7585000D01*
X8160000Y-7565000D02*
X8140000Y-7585000D01*
X8165000Y-8315000D02*
X8185000Y-8335000D01*
X8185000Y-8315000D02*
X8165000Y-8335000D01*
X8190000Y-13140000D02*
X8210000Y-13160000D01*
X8210000Y-13140000D02*
X8190000Y-13160000D01*
X8215000Y-9140000D02*
X8235000Y-9160000D01*
X8235000Y-9140000D02*
X8215000Y-9160000D01*
X8215000Y-10065000D02*
X8235000Y-10085000D01*
X8235000Y-10065000D02*
X8215000Y-10085000D01*
X8215000Y-10690000D02*
X8235000Y-10710000D01*
X8235000Y-10690000D02*
X8215000Y-10710000D01*
X8215000Y-11615000D02*
X8235000Y-11635000D01*
X8235000Y-11615000D02*
X8215000Y-11635000D01*
X8215000Y-12240000D02*
X8235000Y-12260000D01*
X8235000Y-12240000D02*
X8215000Y-12260000D01*
X8240000Y-8540000D02*
X8260000Y-8560000D01*
X8260000Y-8540000D02*
X8240000Y-8560000D01*
X8290000Y-7715000D02*
X8310000Y-7735000D01*
X8310000Y-7715000D02*
X8290000Y-7735000D01*
X8290000Y-7865000D02*
X8310000Y-7885000D01*
X8310000Y-7865000D02*
X8290000Y-7885000D01*
X8365000Y-9290000D02*
X8385000Y-9310000D01*
X8385000Y-9290000D02*
X8365000Y-9310000D01*
X8365000Y-9440000D02*
X8385000Y-9460000D01*
X8385000Y-9440000D02*
X8365000Y-9460000D01*
X8365000Y-10840000D02*
X8385000Y-10860000D01*
X8385000Y-10840000D02*
X8365000Y-10860000D01*
X8365000Y-10990000D02*
X8385000Y-11010000D01*
X8385000Y-10990000D02*
X8365000Y-11010000D01*
X8365000Y-12390000D02*
X8385000Y-12410000D01*
X8385000Y-12390000D02*
X8365000Y-12410000D01*
X8365000Y-12540000D02*
X8385000Y-12560000D01*
X8385000Y-12540000D02*
X8365000Y-12560000D01*
X8440000Y-6965000D02*
X8460000Y-6985000D01*
X8460000Y-6965000D02*
X8440000Y-6985000D01*
X8590000Y-7865000D02*
X8610000Y-7885000D01*
X8610000Y-7865000D02*
X8590000Y-7885000D01*
X8640000Y-9440000D02*
X8660000Y-9460000D01*
X8660000Y-9440000D02*
X8640000Y-9460000D01*
X8640000Y-10990000D02*
X8660000Y-11010000D01*
X8660000Y-10990000D02*
X8640000Y-11010000D01*
X8640000Y-12540000D02*
X8660000Y-12560000D01*
X8660000Y-12540000D02*
X8640000Y-12560000D01*
X8715000Y-9840000D02*
X8735000Y-9860000D01*
X8735000Y-9840000D02*
X8715000Y-9860000D01*
X8740000Y-6965000D02*
X8760000Y-6985000D01*
X8760000Y-6965000D02*
X8740000Y-6985000D01*
X8740000Y-7290000D02*
X8760000Y-7310000D01*
X8760000Y-7290000D02*
X8740000Y-7310000D01*
X8740000Y-7865000D02*
X8760000Y-7885000D01*
X8760000Y-7865000D02*
X8740000Y-7885000D01*
X8765000Y-10390000D02*
X8785000Y-10410000D01*
X8785000Y-10390000D02*
X8765000Y-10410000D01*
X8790000Y-11640000D02*
X8810000Y-11660000D01*
X8810000Y-11640000D02*
X8790000Y-11660000D01*
X8840000Y-8515000D02*
X8860000Y-8535000D01*
X8860000Y-8515000D02*
X8840000Y-8535000D01*
X8840000Y-8665000D02*
X8860000Y-8685000D01*
X8860000Y-8665000D02*
X8840000Y-8685000D01*
X8865000Y-9990000D02*
X8885000Y-10010000D01*
X8885000Y-9990000D02*
X8865000Y-10010000D01*
X8865000Y-10190000D02*
X8885000Y-10210000D01*
X8885000Y-10190000D02*
X8865000Y-10210000D01*
X8890000Y-7115000D02*
X8910000Y-7135000D01*
X8910000Y-7115000D02*
X8890000Y-7135000D01*
X8940000Y-11490000D02*
X8960000Y-11510000D01*
X8960000Y-11490000D02*
X8940000Y-11510000D01*
X8940000Y-11790000D02*
X8960000Y-11810000D01*
X8960000Y-11790000D02*
X8940000Y-11810000D01*
X8990000Y-8365000D02*
X9010000Y-8385000D01*
X9010000Y-8365000D02*
X8990000Y-8385000D01*
X8990000Y-8815000D02*
X9010000Y-8835000D01*
X9010000Y-8815000D02*
X8990000Y-8835000D01*
X9015000Y-9840000D02*
X9035000Y-9860000D01*
X9035000Y-9840000D02*
X9015000Y-9860000D01*
X9015000Y-10340000D02*
X9035000Y-10360000D01*
X9035000Y-10340000D02*
X9015000Y-10360000D01*
X9015000Y-13065000D02*
X9035000Y-13085000D01*
X9035000Y-13065000D02*
X9015000Y-13085000D01*
X9040000Y-7265000D02*
X9060000Y-7285000D01*
X9060000Y-7265000D02*
X9040000Y-7285000D01*
X9090000Y-11915000D02*
X9110000Y-11935000D01*
X9110000Y-11915000D02*
X9090000Y-11935000D01*
X9140000Y-9640000D02*
X9160000Y-9660000D01*
X9160000Y-9640000D02*
X9140000Y-9660000D01*
X9165000Y-9990000D02*
X9185000Y-10010000D01*
X9185000Y-9990000D02*
X9165000Y-10010000D01*
X9165000Y-10190000D02*
X9185000Y-10210000D01*
X9185000Y-10190000D02*
X9165000Y-10210000D01*
X9165000Y-13065000D02*
X9185000Y-13085000D01*
X9185000Y-13065000D02*
X9165000Y-13085000D01*
X9215000Y-7590000D02*
X9235000Y-7610000D01*
X9235000Y-7590000D02*
X9215000Y-7610000D01*
X9240000Y-11490000D02*
X9260000Y-11510000D01*
X9260000Y-11490000D02*
X9240000Y-11510000D01*
X9240000Y-11915000D02*
X9260000Y-11935000D01*
X9260000Y-11915000D02*
X9240000Y-11935000D01*
X9290000Y-7340000D02*
X9310000Y-7360000D01*
X9310000Y-7340000D02*
X9290000Y-7360000D01*
X9290000Y-8365000D02*
X9310000Y-8385000D01*
X9310000Y-8365000D02*
X9290000Y-8385000D01*
X9290000Y-8815000D02*
X9310000Y-8835000D01*
X9310000Y-8815000D02*
X9290000Y-8835000D01*
X9315000Y-9240000D02*
X9335000Y-9260000D01*
X9335000Y-9240000D02*
X9315000Y-9260000D01*
X9315000Y-9840000D02*
X9335000Y-9860000D01*
X9335000Y-9840000D02*
X9315000Y-9860000D01*
X9315000Y-12290000D02*
X9335000Y-12310000D01*
X9335000Y-12290000D02*
X9315000Y-12310000D01*
X9315000Y-13065000D02*
X9335000Y-13085000D01*
X9335000Y-13065000D02*
X9315000Y-13085000D01*
X9340000Y-10390000D02*
X9360000Y-10410000D01*
X9360000Y-10390000D02*
X9340000Y-10410000D01*
X9340000Y-10690000D02*
X9360000Y-10710000D01*
X9360000Y-10690000D02*
X9340000Y-10710000D01*
X9390000Y-11765000D02*
X9410000Y-11785000D01*
X9410000Y-11765000D02*
X9390000Y-11785000D01*
X9440000Y-7490000D02*
X9460000Y-7510000D01*
X9460000Y-7490000D02*
X9440000Y-7510000D01*
X9440000Y-7965000D02*
X9460000Y-7985000D01*
X9460000Y-7965000D02*
X9440000Y-7985000D01*
X9465000Y-9115000D02*
X9485000Y-9135000D01*
X9485000Y-9115000D02*
X9465000Y-9135000D01*
X9465000Y-9565000D02*
X9485000Y-9585000D01*
X9485000Y-9565000D02*
X9465000Y-9585000D01*
X9465000Y-12140000D02*
X9485000Y-12160000D01*
X9485000Y-12140000D02*
X9465000Y-12160000D01*
X9465000Y-12440000D02*
X9485000Y-12460000D01*
X9485000Y-12440000D02*
X9465000Y-12460000D01*
X9465000Y-12915000D02*
X9485000Y-12935000D01*
X9485000Y-12915000D02*
X9465000Y-12935000D01*
X9540000Y-11265000D02*
X9560000Y-11285000D01*
X9560000Y-11265000D02*
X9540000Y-11285000D01*
X9540000Y-11615000D02*
X9560000Y-11635000D01*
X9560000Y-11615000D02*
X9540000Y-11635000D01*
X9590000Y-7640000D02*
X9610000Y-7660000D01*
X9610000Y-7640000D02*
X9590000Y-7660000D01*
X9590000Y-8515000D02*
X9610000Y-8535000D01*
X9610000Y-8515000D02*
X9590000Y-8535000D01*
X9590000Y-8815000D02*
X9610000Y-8835000D01*
X9610000Y-8815000D02*
X9590000Y-8835000D01*
X9615000Y-9115000D02*
X9635000Y-9135000D01*
X9635000Y-9115000D02*
X9615000Y-9135000D01*
X9615000Y-9415000D02*
X9635000Y-9435000D01*
X9635000Y-9415000D02*
X9615000Y-9435000D01*
X9615000Y-11990000D02*
X9635000Y-12010000D01*
X9635000Y-11990000D02*
X9615000Y-12010000D01*
X9615000Y-12290000D02*
X9635000Y-12310000D01*
X9635000Y-12290000D02*
X9615000Y-12310000D01*
X9615000Y-12765000D02*
X9635000Y-12785000D01*
X9635000Y-12765000D02*
X9615000Y-12785000D01*
X9740000Y-7790000D02*
X9760000Y-7810000D01*
X9760000Y-7790000D02*
X9740000Y-7810000D01*
X9740000Y-8265000D02*
X9760000Y-8285000D01*
X9760000Y-8265000D02*
X9740000Y-8285000D01*
X9740000Y-8665000D02*
X9760000Y-8685000D01*
X9760000Y-8665000D02*
X9740000Y-8685000D01*
X9740000Y-8815000D02*
X9760000Y-8835000D01*
X9760000Y-8815000D02*
X9740000Y-8835000D01*
X9765000Y-9115000D02*
X9785000Y-9135000D01*
X9785000Y-9115000D02*
X9765000Y-9135000D01*
X9765000Y-9265000D02*
X9785000Y-9285000D01*
X9785000Y-9265000D02*
X9765000Y-9285000D01*
X9765000Y-11840000D02*
X9785000Y-11860000D01*
X9785000Y-11840000D02*
X9765000Y-11860000D01*
X9765000Y-12140000D02*
X9785000Y-12160000D01*
X9785000Y-12140000D02*
X9765000Y-12160000D01*
X9765000Y-12615000D02*
X9785000Y-12635000D01*
X9785000Y-12615000D02*
X9765000Y-12635000D01*
X9890000Y-8815000D02*
X9910000Y-8835000D01*
X9910000Y-8815000D02*
X9890000Y-8835000D01*
X9915000Y-9115000D02*
X9935000Y-9135000D01*
X9935000Y-9115000D02*
X9915000Y-9135000D01*
X9915000Y-12465000D02*
X9935000Y-12485000D01*
X9935000Y-12465000D02*
X9915000Y-12485000D01*
X10040000Y-8090000D02*
X10060000Y-8110000D01*
X10060000Y-8090000D02*
X10040000Y-8110000D01*
X10065000Y-10815000D02*
X10085000Y-10835000D01*
X10085000Y-10815000D02*
X10065000Y-10835000D01*
X10065000Y-10965000D02*
X10085000Y-10985000D01*
X10085000Y-10965000D02*
X10065000Y-10985000D01*
X10065000Y-11115000D02*
X10085000Y-11135000D01*
X10085000Y-11115000D02*
X10065000Y-11135000D01*
X10065000Y-11265000D02*
X10085000Y-11285000D01*
X10085000Y-11265000D02*
X10065000Y-11285000D01*
X10065000Y-11415000D02*
X10085000Y-11435000D01*
X10085000Y-11415000D02*
X10065000Y-11435000D01*
X10065000Y-11565000D02*
X10085000Y-11585000D01*
X10085000Y-11565000D02*
X10065000Y-11585000D01*
X10065000Y-11715000D02*
X10085000Y-11735000D01*
X10085000Y-11715000D02*
X10065000Y-11735000D01*
X10065000Y-11865000D02*
X10085000Y-11885000D01*
X10085000Y-11865000D02*
X10065000Y-11885000D01*
X10065000Y-12015000D02*
X10085000Y-12035000D01*
X10085000Y-12015000D02*
X10065000Y-12035000D01*
X10065000Y-12165000D02*
X10085000Y-12185000D01*
X10085000Y-12165000D02*
X10065000Y-12185000D01*
X10065000Y-12315000D02*
X10085000Y-12335000D01*
X10085000Y-12315000D02*
X10065000Y-12335000D01*
X10215000Y-10665000D02*
X10235000Y-10685000D01*
X10235000Y-10665000D02*
X10215000Y-10685000D01*
X10365000Y-10815000D02*
X10385000Y-10835000D01*
X10385000Y-10815000D02*
X10365000Y-10835000D01*
X10515000Y-10815000D02*
X10535000Y-10835000D01*
X10535000Y-10815000D02*
X10515000Y-10835000D01*
X10665000Y-10665000D02*
X10685000Y-10685000D01*
X10685000Y-10665000D02*
X10665000Y-10685000D01*
X11590000Y-10690000D02*
X11610000Y-10710000D01*
X11610000Y-10690000D02*
X11590000Y-10710000D01*
X11765000Y-10365000D02*
X11785000Y-10385000D01*
X11785000Y-10365000D02*
X11765000Y-10385000D01*
X12040000Y-10640000D02*
X12060000Y-10660000D01*
X12060000Y-10640000D02*
X12040000Y-10660000D01*
X12065000Y-10240000D02*
X12085000Y-10260000D01*
X12085000Y-10240000D02*
X12065000Y-10260000D01*
X12090000Y-9015000D02*
X12110000Y-9035000D01*
X12110000Y-9015000D02*
X12090000Y-9035000D01*
X12165000Y-8815000D02*
X12185000Y-8835000D01*
X12185000Y-8815000D02*
X12165000Y-8835000D01*
X12215000Y-9457550D02*
X12235000Y-9477550D01*
X12235000Y-9457550D02*
X12215000Y-9477550D01*
X12215000Y-10390000D02*
X12235000Y-10410000D01*
X12235000Y-10390000D02*
X12215000Y-10410000D01*
X12215000Y-10840000D02*
X12235000Y-10860000D01*
X12235000Y-10840000D02*
X12215000Y-10860000D01*
X12265000Y-9390000D02*
X12285000Y-9410000D01*
X12285000Y-9390000D02*
X12265000Y-9410000D01*
X12265000Y-10165000D02*
X12285000Y-10185000D01*
X12285000Y-10165000D02*
X12265000Y-10185000D01*
X12315000Y-9340000D02*
X12335000Y-9360000D01*
X12335000Y-9340000D02*
X12315000Y-9360000D01*
X12365000Y-9290000D02*
X12385000Y-9310000D01*
X12385000Y-9290000D02*
X12365000Y-9310000D01*
X12390000Y-9040000D02*
X12410000Y-9060000D01*
X12410000Y-9040000D02*
X12390000Y-9060000D01*
X12415000Y-9240000D02*
X12435000Y-9260000D01*
X12435000Y-9240000D02*
X12415000Y-9260000D01*
X12415000Y-10315000D02*
X12435000Y-10335000D01*
X12435000Y-10315000D02*
X12415000Y-10335000D01*
X12465000Y-8815000D02*
X12485000Y-8835000D01*
X12485000Y-8815000D02*
X12465000Y-8835000D01*
X12465000Y-9190000D02*
X12485000Y-9210000D01*
X12485000Y-9190000D02*
X12465000Y-9210000D01*
X12515000Y-9140000D02*
X12535000Y-9160000D01*
X12535000Y-9140000D02*
X12515000Y-9160000D01*
X12540000Y-10415000D02*
X12560000Y-10435000D01*
X12560000Y-10415000D02*
X12540000Y-10435000D01*
X12565000Y-9090000D02*
X12585000Y-9110000D01*
X12585000Y-9090000D02*
X12565000Y-9110000D01*
X12640000Y-9290000D02*
X12660000Y-9310000D01*
X12660000Y-9290000D02*
X12640000Y-9310000D01*
X12640000Y-11040000D02*
X12660000Y-11060000D01*
X12660000Y-11040000D02*
X12640000Y-11060000D01*
X12690000Y-9390000D02*
X12710000Y-9410000D01*
X12710000Y-9390000D02*
X12690000Y-9410000D01*
X12740000Y-9440000D02*
X12760000Y-9460000D01*
X12760000Y-9440000D02*
X12740000Y-9460000D01*
X12765000Y-9090000D02*
X12785000Y-9110000D01*
X12785000Y-9090000D02*
X12765000Y-9110000D01*
X12765000Y-10765000D02*
X12785000Y-10785000D01*
X12785000Y-10765000D02*
X12765000Y-10785000D01*
X12790000Y-9490000D02*
X12810000Y-9510000D01*
X12810000Y-9490000D02*
X12790000Y-9510000D01*
X12790000Y-9940000D02*
X12810000Y-9960000D01*
X12810000Y-9940000D02*
X12790000Y-9960000D01*
X12840000Y-9540000D02*
X12860000Y-9560000D01*
X12860000Y-9540000D02*
X12840000Y-9560000D01*
X12865000Y-10640000D02*
X12885000Y-10660000D01*
X12885000Y-10640000D02*
X12865000Y-10660000D01*
X12890000Y-9590000D02*
X12910000Y-9610000D01*
X12910000Y-9590000D02*
X12890000Y-9610000D01*
X12890000Y-11040000D02*
X12910000Y-11060000D01*
X12910000Y-11040000D02*
X12890000Y-11060000D01*
X12915000Y-9940000D02*
X12935000Y-9960000D01*
X12935000Y-9940000D02*
X12915000Y-9960000D01*
X12940000Y-9640000D02*
X12960000Y-9660000D01*
X12960000Y-9640000D02*
X12940000Y-9660000D01*
X12990000Y-9690000D02*
X13010000Y-9710000D01*
X13010000Y-9690000D02*
X12990000Y-9710000D01*
X13015000Y-10090000D02*
X13035000Y-10110000D01*
X13035000Y-10090000D02*
X13015000Y-10110000D01*
X13040000Y-10565000D02*
X13060000Y-10585000D01*
X13060000Y-10565000D02*
X13040000Y-10585000D01*
X13065000Y-8840000D02*
X13085000Y-8860000D01*
X13085000Y-8840000D02*
X13065000Y-8860000D01*
X13065000Y-9140000D02*
X13085000Y-9160000D01*
X13085000Y-9140000D02*
X13065000Y-9160000D01*
X13115000Y-9715000D02*
X13135000Y-9735000D01*
X13135000Y-9715000D02*
X13115000Y-9735000D01*
X13165000Y-9940000D02*
X13185000Y-9960000D01*
X13185000Y-9940000D02*
X13165000Y-9960000D01*
X13215000Y-8690000D02*
X13235000Y-8710000D01*
X13235000Y-8690000D02*
X13215000Y-8710000D01*
X13315000Y-8940000D02*
X13335000Y-8960000D01*
X13335000Y-8940000D02*
X13315000Y-8960000D01*
X13315000Y-9140000D02*
X13335000Y-9160000D01*
X13335000Y-9140000D02*
X13315000Y-9160000D01*
X13315000Y-9715000D02*
X13335000Y-9735000D01*
X13335000Y-9715000D02*
X13315000Y-9735000D01*
X13340000Y-10090000D02*
X13360000Y-10110000D01*
X13360000Y-10090000D02*
X13340000Y-10110000D01*
X13365000Y-8540000D02*
X13385000Y-8560000D01*
X13385000Y-8540000D02*
X13365000Y-8560000D01*
X13365000Y-10565000D02*
X13385000Y-10585000D01*
X13385000Y-10565000D02*
X13365000Y-10585000D01*
X13440000Y-10715000D02*
X13460000Y-10735000D01*
X13460000Y-10715000D02*
X13440000Y-10735000D01*
X13465000Y-8790000D02*
X13485000Y-8810000D01*
X13485000Y-8790000D02*
X13465000Y-8810000D01*
X13515000Y-8390000D02*
X13535000Y-8410000D01*
X13535000Y-8390000D02*
X13515000Y-8410000D01*
X13540000Y-9940000D02*
X13560000Y-9960000D01*
X13560000Y-9940000D02*
X13540000Y-9960000D01*
X13590000Y-8990000D02*
X13610000Y-9010000D01*
X13610000Y-8990000D02*
X13590000Y-9010000D01*
X13665000Y-10565000D02*
X13685000Y-10585000D01*
X13685000Y-10565000D02*
X13665000Y-10585000D01*
X13665000Y-10790000D02*
X13685000Y-10810000D01*
X13685000Y-10790000D02*
X13665000Y-10810000D01*
X13740000Y-8840000D02*
X13760000Y-8860000D01*
X13760000Y-8840000D02*
X13740000Y-8860000D01*
X13740000Y-10090000D02*
X13760000Y-10110000D01*
X13760000Y-10090000D02*
X13740000Y-10110000D01*
X13765000Y-9140000D02*
X13785000Y-9160000D01*
X13785000Y-9140000D02*
X13765000Y-9160000D01*
X13815000Y-8240000D02*
X13835000Y-8260000D01*
X13835000Y-8240000D02*
X13815000Y-8260000D01*
X13815000Y-10715000D02*
X13835000Y-10735000D01*
X13835000Y-10715000D02*
X13815000Y-10735000D01*
X13890000Y-10090000D02*
X13910000Y-10110000D01*
X13910000Y-10090000D02*
X13890000Y-10110000D01*
X13965000Y-8240000D02*
X13985000Y-8260000D01*
X13985000Y-8240000D02*
X13965000Y-8260000D01*
X13965000Y-10565000D02*
X13985000Y-10585000D01*
X13985000Y-10565000D02*
X13965000Y-10585000D01*
X14040000Y-10090000D02*
X14060000Y-10110000D01*
X14060000Y-10090000D02*
X14040000Y-10110000D01*
X14115000Y-10715000D02*
X14135000Y-10735000D01*
X14135000Y-10715000D02*
X14115000Y-10735000D01*
X14240000Y-9140000D02*
X14260000Y-9160000D01*
X14260000Y-9140000D02*
X14240000Y-9160000D01*
X14240000Y-9765000D02*
X14260000Y-9785000D01*
X14260000Y-9765000D02*
X14240000Y-9785000D01*
X14265000Y-10565000D02*
X14285000Y-10585000D01*
X14285000Y-10565000D02*
X14265000Y-10585000D01*
X14365000Y-10440000D02*
X14385000Y-10460000D01*
X14385000Y-10440000D02*
X14365000Y-10460000D01*
X14415000Y-10390000D02*
X14435000Y-10410000D01*
X14435000Y-10390000D02*
X14415000Y-10410000D01*
X14415000Y-10715000D02*
X14435000Y-10735000D01*
X14435000Y-10715000D02*
X14415000Y-10735000D01*
X14465000Y-10340000D02*
X14485000Y-10360000D01*
X14485000Y-10340000D02*
X14465000Y-10360000D01*
X14490000Y-9140000D02*
X14510000Y-9160000D01*
X14510000Y-9140000D02*
X14490000Y-9160000D01*
X14490000Y-9765000D02*
X14510000Y-9785000D01*
X14510000Y-9765000D02*
X14490000Y-9785000D01*
X14515000Y-7815000D02*
X14535000Y-7835000D01*
X14535000Y-7815000D02*
X14515000Y-7835000D01*
X14515000Y-10290000D02*
X14535000Y-10310000D01*
X14535000Y-10290000D02*
X14515000Y-10310000D01*
X14515000Y-10415000D02*
X14535000Y-10435000D01*
X14535000Y-10415000D02*
X14515000Y-10435000D01*
X14539920Y-7714957D02*
X14559920Y-7734957D01*
X14559920Y-7714957D02*
X14539920Y-7734957D01*
X14540000Y-7615000D02*
X14560000Y-7635000D01*
X14560000Y-7615000D02*
X14540000Y-7635000D01*
X14565000Y-7515000D02*
X14585000Y-7535000D01*
X14585000Y-7515000D02*
X14565000Y-7535000D01*
X14565000Y-9240000D02*
X14585000Y-9260000D01*
X14585000Y-9240000D02*
X14565000Y-9260000D01*
X14565000Y-10240000D02*
X14585000Y-10260000D01*
X14585000Y-10240000D02*
X14565000Y-10260000D01*
X14565000Y-10590000D02*
X14585000Y-10610000D01*
X14585000Y-10590000D02*
X14565000Y-10610000D01*
X14590000Y-7940000D02*
X14610000Y-7960000D01*
X14610000Y-7940000D02*
X14590000Y-7960000D01*
X14615000Y-10190000D02*
X14635000Y-10210000D01*
X14635000Y-10190000D02*
X14615000Y-10210000D01*
X14615000Y-10415000D02*
X14635000Y-10435000D01*
X14635000Y-10415000D02*
X14615000Y-10435000D01*
X14640000Y-8215000D02*
X14660000Y-8235000D01*
X14660000Y-8215000D02*
X14640000Y-8235000D01*
X14665000Y-7540000D02*
X14685000Y-7560000D01*
X14685000Y-7540000D02*
X14665000Y-7560000D01*
X14665000Y-8015000D02*
X14685000Y-8035000D01*
X14685000Y-8015000D02*
X14665000Y-8035000D01*
X14665000Y-10140000D02*
X14685000Y-10160000D01*
X14685000Y-10140000D02*
X14665000Y-10160000D01*
X14665000Y-10265000D02*
X14685000Y-10285000D01*
X14685000Y-10265000D02*
X14665000Y-10285000D01*
X14676230Y-7803770D02*
X14696230Y-7823770D01*
X14696230Y-7803770D02*
X14676230Y-7823770D01*
X14690000Y-9840000D02*
X14710000Y-9860000D01*
X14710000Y-9840000D02*
X14690000Y-9860000D01*
X14715000Y-10440000D02*
X14735000Y-10460000D01*
X14735000Y-10440000D02*
X14715000Y-10460000D01*
X14740000Y-9140000D02*
X14760000Y-9160000D01*
X14760000Y-9140000D02*
X14740000Y-9160000D01*
X14790000Y-7515000D02*
X14810000Y-7535000D01*
X14810000Y-7515000D02*
X14790000Y-7535000D01*
X14915000Y-7540000D02*
X14935000Y-7560000D01*
X14935000Y-7540000D02*
X14915000Y-7560000D01*
X14915000Y-9840000D02*
X14935000Y-9860000D01*
X14935000Y-9840000D02*
X14915000Y-9860000D01*
X14990000Y-9140000D02*
X15010000Y-9160000D01*
X15010000Y-9140000D02*
X14990000Y-9160000D01*
X14990000Y-9765000D02*
X15010000Y-9785000D01*
X15010000Y-9765000D02*
X14990000Y-9785000D01*
X14990000Y-9865000D02*
X15010000Y-9885000D01*
X15010000Y-9865000D02*
X14990000Y-9885000D01*
X15015000Y-9265000D02*
X15035000Y-9285000D01*
X15035000Y-9265000D02*
X15015000Y-9285000D01*
X15015000Y-10140000D02*
X15035000Y-10160000D01*
X15035000Y-10140000D02*
X15015000Y-10160000D01*
X15015000Y-10240000D02*
X15035000Y-10260000D01*
X15035000Y-10240000D02*
X15015000Y-10260000D01*
X15015000Y-10340000D02*
X15035000Y-10360000D01*
X15035000Y-10340000D02*
X15015000Y-10360000D01*
X15015000Y-10440000D02*
X15035000Y-10460000D01*
X15035000Y-10440000D02*
X15015000Y-10460000D01*
X15040000Y-7615000D02*
X15060000Y-7635000D01*
X15060000Y-7615000D02*
X15040000Y-7635000D01*
X15040000Y-7890000D02*
X15060000Y-7910000D01*
X15060000Y-7890000D02*
X15040000Y-7910000D01*
X15040000Y-7990000D02*
X15060000Y-8010000D01*
X15060000Y-7990000D02*
X15040000Y-8010000D01*
X15040000Y-8090000D02*
X15060000Y-8110000D01*
X15060000Y-8090000D02*
X15040000Y-8110000D01*
X15065000Y-9315000D02*
X15085000Y-9335000D01*
X15085000Y-9315000D02*
X15065000Y-9335000D01*
X15115000Y-9365000D02*
X15135000Y-9385000D01*
X15135000Y-9365000D02*
X15115000Y-9385000D01*
X15165000Y-7715000D02*
X15185000Y-7735000D01*
X15185000Y-7715000D02*
X15165000Y-7735000D01*
X15165000Y-7815000D02*
X15185000Y-7835000D01*
X15185000Y-7815000D02*
X15165000Y-7835000D01*
X15165000Y-9415000D02*
X15185000Y-9435000D01*
X15185000Y-9415000D02*
X15165000Y-9435000D01*
X15215000Y-9465000D02*
X15235000Y-9485000D01*
X15235000Y-9465000D02*
X15215000Y-9485000D01*
X15215000Y-10490000D02*
X15235000Y-10510000D01*
X15235000Y-10490000D02*
X15215000Y-10510000D01*
X15240000Y-9140000D02*
X15260000Y-9160000D01*
X15260000Y-9140000D02*
X15240000Y-9160000D01*
X15240000Y-9765000D02*
X15260000Y-9785000D01*
X15260000Y-9765000D02*
X15240000Y-9785000D01*
X15265000Y-9515000D02*
X15285000Y-9535000D01*
X15285000Y-9515000D02*
X15265000Y-9535000D01*
X15315000Y-9565000D02*
X15335000Y-9585000D01*
X15335000Y-9565000D02*
X15315000Y-9585000D01*
X15365000Y-9615000D02*
X15385000Y-9635000D01*
X15385000Y-9615000D02*
X15365000Y-9635000D01*
D13*
X8520000Y-7525000D02*
G75*
G03*
X8520000Y-7525000I-20000J0D01*
G01*
X8520000Y-8450000D02*
G75*
G03*
X8520000Y-8450000I-20000J0D01*
G01*
X8520000Y-9100000D02*
G75*
G03*
X8520000Y-9100000I-20000J0D01*
G01*
X8520000Y-10000000D02*
G75*
G03*
X8520000Y-10000000I-20000J0D01*
G01*
X8520000Y-10625000D02*
G75*
G03*
X8520000Y-10625000I-20000J0D01*
G01*
X8520000Y-11550000D02*
G75*
G03*
X8520000Y-11550000I-20000J0D01*
G01*
X8520000Y-12175000D02*
G75*
G03*
X8520000Y-12175000I-20000J0D01*
G01*
X8520000Y-13100000D02*
G75*
G03*
X8520000Y-13100000I-20000J0D01*
G01*
X8795000Y-7575000D02*
G75*
G03*
X8795000Y-7575000I-20000J0D01*
G01*
X8795000Y-9125000D02*
G75*
G03*
X8795000Y-9125000I-20000J0D01*
G01*
X8795000Y-10675000D02*
G75*
G03*
X8795000Y-10675000I-20000J0D01*
G01*
X8820000Y-12225000D02*
G75*
G03*
X8820000Y-12225000I-20000J0D01*
G01*
X9345000Y-10925000D02*
G75*
G03*
X9345000Y-10925000I-20000J0D01*
G01*
X9345000Y-11125000D02*
G75*
G03*
X9345000Y-11125000I-20000J0D01*
G01*
X9345000Y-12475000D02*
G75*
G03*
X9345000Y-12475000I-20000J0D01*
G01*
X9345000Y-12675000D02*
G75*
G03*
X9345000Y-12675000I-20000J0D01*
G01*
X9370000Y-7850000D02*
G75*
G03*
X9370000Y-7850000I-20000J0D01*
G01*
X9370000Y-8000000D02*
G75*
G03*
X9370000Y-8000000I-20000J0D01*
G01*
X9370000Y-9400000D02*
G75*
G03*
X9370000Y-9400000I-20000J0D01*
G01*
X9370000Y-9550000D02*
G75*
G03*
X9370000Y-9550000I-20000J0D01*
G01*
X10070000Y-7725000D02*
G75*
G03*
X10070000Y-7725000I-20000J0D01*
G01*
X10220000Y-5450000D02*
G75*
G03*
X10220000Y-5450000I-20000J0D01*
G01*
X10220000Y-5575000D02*
G75*
G03*
X10220000Y-5575000I-20000J0D01*
G01*
X10220000Y-5700000D02*
G75*
G03*
X10220000Y-5700000I-20000J0D01*
G01*
X10220000Y-5825000D02*
G75*
G03*
X10220000Y-5825000I-20000J0D01*
G01*
X10220000Y-5950000D02*
G75*
G03*
X10220000Y-5950000I-20000J0D01*
G01*
X10220000Y-8000000D02*
G75*
G03*
X10220000Y-8000000I-20000J0D01*
G01*
X10345000Y-5450000D02*
G75*
G03*
X10345000Y-5450000I-20000J0D01*
G01*
X10345000Y-5575000D02*
G75*
G03*
X10345000Y-5575000I-20000J0D01*
G01*
X10345000Y-5700000D02*
G75*
G03*
X10345000Y-5700000I-20000J0D01*
G01*
X10345000Y-5825000D02*
G75*
G03*
X10345000Y-5825000I-20000J0D01*
G01*
X10345000Y-5950000D02*
G75*
G03*
X10345000Y-5950000I-20000J0D01*
G01*
X10470000Y-7450000D02*
G75*
G03*
X10470000Y-7450000I-20000J0D01*
G01*
X10520000Y-5350000D02*
G75*
G03*
X10520000Y-5350000I-20000J0D01*
G01*
X10570000Y-5550000D02*
G75*
G03*
X10570000Y-5550000I-20000J0D01*
G01*
X10570000Y-5800000D02*
G75*
G03*
X10570000Y-5800000I-20000J0D01*
G01*
X10570000Y-6025000D02*
G75*
G03*
X10570000Y-6025000I-20000J0D01*
G01*
X10593770Y-8476230D02*
G75*
G03*
X10593770Y-8476230I-20000J0D01*
G01*
X10593770Y-8776230D02*
G75*
G03*
X10593770Y-8776230I-20000J0D01*
G01*
X10593770Y-9076230D02*
G75*
G03*
X10593770Y-9076230I-20000J0D01*
G01*
X10595000Y-9375000D02*
G75*
G03*
X10595000Y-9375000I-20000J0D01*
G01*
X10595000Y-9650000D02*
G75*
G03*
X10595000Y-9650000I-20000J0D01*
G01*
X10595000Y-9950000D02*
G75*
G03*
X10595000Y-9950000I-20000J0D01*
G01*
X10595000Y-10250000D02*
G75*
G03*
X10595000Y-10250000I-20000J0D01*
G01*
X10595000Y-10550000D02*
G75*
G03*
X10595000Y-10550000I-20000J0D01*
G01*
X10645000Y-5350000D02*
G75*
G03*
X10645000Y-5350000I-20000J0D01*
G01*
X10647500Y-7450000D02*
G75*
G03*
X10647500Y-7450000I-20000J0D01*
G01*
X10670000Y-5675000D02*
G75*
G03*
X10670000Y-5675000I-20000J0D01*
G01*
X10670000Y-5925000D02*
G75*
G03*
X10670000Y-5925000I-20000J0D01*
G01*
X10770000Y-5350000D02*
G75*
G03*
X10770000Y-5350000I-20000J0D01*
G01*
X10770000Y-5550000D02*
G75*
G03*
X10770000Y-5550000I-20000J0D01*
G01*
X10770000Y-5800000D02*
G75*
G03*
X10770000Y-5800000I-20000J0D01*
G01*
X10770000Y-6025000D02*
G75*
G03*
X10770000Y-6025000I-20000J0D01*
G01*
X10845000Y-11500000D02*
G75*
G03*
X10845000Y-11500000I-20000J0D01*
G01*
X10870000Y-5675000D02*
G75*
G03*
X10870000Y-5675000I-20000J0D01*
G01*
X10870000Y-5925000D02*
G75*
G03*
X10870000Y-5925000I-20000J0D01*
G01*
X10895000Y-5350000D02*
G75*
G03*
X10895000Y-5350000I-20000J0D01*
G01*
X10970000Y-5550000D02*
G75*
G03*
X10970000Y-5550000I-20000J0D01*
G01*
X10970000Y-5800000D02*
G75*
G03*
X10970000Y-5800000I-20000J0D01*
G01*
X10970000Y-6025000D02*
G75*
G03*
X10970000Y-6025000I-20000J0D01*
G01*
X10970000Y-10400000D02*
G75*
G03*
X10970000Y-10400000I-20000J0D01*
G01*
X10995000Y-11500000D02*
G75*
G03*
X10995000Y-11500000I-20000J0D01*
G01*
X11020000Y-5350000D02*
G75*
G03*
X11020000Y-5350000I-20000J0D01*
G01*
X11070000Y-8800000D02*
G75*
G03*
X11070000Y-8800000I-20000J0D01*
G01*
X11120000Y-9200000D02*
G75*
G03*
X11120000Y-9200000I-20000J0D01*
G01*
X11145000Y-11500000D02*
G75*
G03*
X11145000Y-11500000I-20000J0D01*
G01*
X11169313Y-8797548D02*
G75*
G03*
X11169313Y-8797548I-20000J0D01*
G01*
X11170000Y-10400000D02*
G75*
G03*
X11170000Y-10400000I-20000J0D01*
G01*
X11195000Y-5450000D02*
G75*
G03*
X11195000Y-5450000I-20000J0D01*
G01*
X11195000Y-5575000D02*
G75*
G03*
X11195000Y-5575000I-20000J0D01*
G01*
X11195000Y-5700000D02*
G75*
G03*
X11195000Y-5700000I-20000J0D01*
G01*
X11195000Y-5825000D02*
G75*
G03*
X11195000Y-5825000I-20000J0D01*
G01*
X11195000Y-5950000D02*
G75*
G03*
X11195000Y-5950000I-20000J0D01*
G01*
X11220000Y-9150000D02*
G75*
G03*
X11220000Y-9150000I-20000J0D01*
G01*
X11220000Y-9250000D02*
G75*
G03*
X11220000Y-9250000I-20000J0D01*
G01*
X11245000Y-8250000D02*
G75*
G03*
X11245000Y-8250000I-20000J0D01*
G01*
X11292525Y-9069950D02*
G75*
G03*
X11292525Y-9069950I-20000J0D01*
G01*
X11295000Y-11500000D02*
G75*
G03*
X11295000Y-11500000I-20000J0D01*
G01*
X11320000Y-5450000D02*
G75*
G03*
X11320000Y-5450000I-20000J0D01*
G01*
X11320000Y-5575000D02*
G75*
G03*
X11320000Y-5575000I-20000J0D01*
G01*
X11320000Y-5700000D02*
G75*
G03*
X11320000Y-5700000I-20000J0D01*
G01*
X11320000Y-5825000D02*
G75*
G03*
X11320000Y-5825000I-20000J0D01*
G01*
X11320000Y-5950000D02*
G75*
G03*
X11320000Y-5950000I-20000J0D01*
G01*
X11370575Y-8797517D02*
G75*
G03*
X11370575Y-8797517I-20000J0D01*
G01*
X11445000Y-8250000D02*
G75*
G03*
X11445000Y-8250000I-20000J0D01*
G01*
X11445000Y-11500000D02*
G75*
G03*
X11445000Y-11500000I-20000J0D01*
G01*
X11520000Y-8800000D02*
G75*
G03*
X11520000Y-8800000I-20000J0D01*
G01*
X11520000Y-9250000D02*
G75*
G03*
X11520000Y-9250000I-20000J0D01*
G01*
X11545000Y-9150000D02*
G75*
G03*
X11545000Y-9150000I-20000J0D01*
G01*
X11595000Y-11100000D02*
G75*
G03*
X11595000Y-11100000I-20000J0D01*
G01*
X11595000Y-11500000D02*
G75*
G03*
X11595000Y-11500000I-20000J0D01*
G01*
X11620000Y-9225000D02*
G75*
G03*
X11620000Y-9225000I-20000J0D01*
G01*
X11645000Y-8250000D02*
G75*
G03*
X11645000Y-8250000I-20000J0D01*
G01*
X11667450Y-10500000D02*
G75*
G03*
X11667450Y-10500000I-20000J0D01*
G01*
X11670000Y-8797548D02*
G75*
G03*
X11670000Y-8797548I-20000J0D01*
G01*
X11720000Y-9225000D02*
G75*
G03*
X11720000Y-9225000I-20000J0D01*
G01*
X11745000Y-11100000D02*
G75*
G03*
X11745000Y-11100000I-20000J0D01*
G01*
X11770000Y-6375000D02*
G75*
G03*
X11770000Y-6375000I-20000J0D01*
G01*
X11770000Y-6500000D02*
G75*
G03*
X11770000Y-6500000I-20000J0D01*
G01*
X11770000Y-6625000D02*
G75*
G03*
X11770000Y-6625000I-20000J0D01*
G01*
X11770000Y-6750000D02*
G75*
G03*
X11770000Y-6750000I-20000J0D01*
G01*
X11795000Y-9150000D02*
G75*
G03*
X11795000Y-9150000I-20000J0D01*
G01*
X11820000Y-9250000D02*
G75*
G03*
X11820000Y-9250000I-20000J0D01*
G01*
X11845000Y-8250000D02*
G75*
G03*
X11845000Y-8250000I-20000J0D01*
G01*
X11895000Y-11100000D02*
G75*
G03*
X11895000Y-11100000I-20000J0D01*
G01*
X11945000Y-7047500D02*
G75*
G03*
X11945000Y-7047500I-20000J0D01*
G01*
X11945000Y-7575000D02*
G75*
G03*
X11945000Y-7575000I-20000J0D01*
G01*
X11964734Y-9424515D02*
G75*
G03*
X11964734Y-9424515I-20000J0D01*
G01*
X11964734Y-9574515D02*
G75*
G03*
X11964734Y-9574515I-20000J0D01*
G01*
X12018770Y-10851230D02*
G75*
G03*
X12018770Y-10851230I-20000J0D01*
G01*
X12295000Y-5500000D02*
G75*
G03*
X12295000Y-5500000I-20000J0D01*
G01*
X12295000Y-5625000D02*
G75*
G03*
X12295000Y-5625000I-20000J0D01*
G01*
X12295000Y-5750000D02*
G75*
G03*
X12295000Y-5750000I-20000J0D01*
G01*
X12295000Y-5875000D02*
G75*
G03*
X12295000Y-5875000I-20000J0D01*
G01*
X12395000Y-8475000D02*
G75*
G03*
X12395000Y-8475000I-20000J0D01*
G01*
X12520000Y-5350000D02*
G75*
G03*
X12520000Y-5350000I-20000J0D01*
G01*
X12595000Y-7275000D02*
G75*
G03*
X12595000Y-7275000I-20000J0D01*
G01*
X12645000Y-5350000D02*
G75*
G03*
X12645000Y-5350000I-20000J0D01*
G01*
X12720000Y-7100000D02*
G75*
G03*
X12720000Y-7100000I-20000J0D01*
G01*
X12770000Y-5350000D02*
G75*
G03*
X12770000Y-5350000I-20000J0D01*
G01*
X12870000Y-6750000D02*
G75*
G03*
X12870000Y-6750000I-20000J0D01*
G01*
X12895000Y-5350000D02*
G75*
G03*
X12895000Y-5350000I-20000J0D01*
G01*
X12895000Y-7100000D02*
G75*
G03*
X12895000Y-7100000I-20000J0D01*
G01*
X12995000Y-6750000D02*
G75*
G03*
X12995000Y-6750000I-20000J0D01*
G01*
X13020000Y-5350000D02*
G75*
G03*
X13020000Y-5350000I-20000J0D01*
G01*
X13020000Y-7900000D02*
G75*
G03*
X13020000Y-7900000I-20000J0D01*
G01*
X13120000Y-6750000D02*
G75*
G03*
X13120000Y-6750000I-20000J0D01*
G01*
X13220000Y-5500000D02*
G75*
G03*
X13220000Y-5500000I-20000J0D01*
G01*
X13220000Y-5625000D02*
G75*
G03*
X13220000Y-5625000I-20000J0D01*
G01*
X13220000Y-5750000D02*
G75*
G03*
X13220000Y-5750000I-20000J0D01*
G01*
X13220000Y-5875000D02*
G75*
G03*
X13220000Y-5875000I-20000J0D01*
G01*
X13245000Y-6750000D02*
G75*
G03*
X13245000Y-6750000I-20000J0D01*
G01*
X13370000Y-6750000D02*
G75*
G03*
X13370000Y-6750000I-20000J0D01*
G01*
X13545000Y-9700000D02*
G75*
G03*
X13545000Y-9700000I-20000J0D01*
G01*
X13695000Y-8525000D02*
G75*
G03*
X13695000Y-8525000I-20000J0D01*
G01*
X13695000Y-8725000D02*
G75*
G03*
X13695000Y-8725000I-20000J0D01*
G01*
X13695000Y-9825000D02*
G75*
G03*
X13695000Y-9825000I-20000J0D01*
G01*
X13695000Y-10025000D02*
G75*
G03*
X13695000Y-10025000I-20000J0D01*
G01*
X14220000Y-8125000D02*
G75*
G03*
X14220000Y-8125000I-20000J0D01*
G01*
X14245000Y-7950000D02*
G75*
G03*
X14245000Y-7950000I-20000J0D01*
G01*
X14245000Y-8300000D02*
G75*
G03*
X14245000Y-8300000I-20000J0D01*
G01*
X14595000Y-8300000D02*
G75*
G03*
X14595000Y-8300000I-20000J0D01*
G01*
X14620000Y-8125000D02*
G75*
G03*
X14620000Y-8125000I-20000J0D01*
G01*
X14921730Y-8201730D02*
G75*
G03*
X14921730Y-8201730I-20000J0D01*
G01*
X14970000Y-10675000D02*
G75*
G03*
X14970000Y-10675000I-20000J0D01*
G01*
X15045000Y-8200000D02*
G75*
G03*
X15045000Y-8200000I-20000J0D01*
G01*
X15195000Y-8050000D02*
G75*
G03*
X15195000Y-8050000I-20000J0D01*
G01*
X15270000Y-10710000D02*
G75*
G03*
X15270000Y-10710000I-20000J0D01*
G01*
X15295000Y-8300000D02*
G75*
G03*
X15295000Y-8300000I-20000J0D01*
G01*
X15345000Y-10300000D02*
G75*
G03*
X15345000Y-10300000I-20000J0D01*
G01*
X15445000Y-8125000D02*
G75*
G03*
X15445000Y-8125000I-20000J0D01*
G01*
X15495000Y-10300000D02*
G75*
G03*
X15495000Y-10300000I-20000J0D01*
G01*
X15595000Y-10425000D02*
G75*
G03*
X15595000Y-10425000I-20000J0D01*
G01*
X15720000Y-8500000D02*
G75*
G03*
X15720000Y-8500000I-20000J0D01*
G01*
X15720000Y-8850000D02*
G75*
G03*
X15720000Y-8850000I-20000J0D01*
G01*
X15970000Y-9075000D02*
G75*
G03*
X15970000Y-9075000I-20000J0D01*
G01*
X16020000Y-8575000D02*
G75*
G03*
X16020000Y-8575000I-20000J0D01*
G01*
X16020000Y-8775000D02*
G75*
G03*
X16020000Y-8775000I-20000J0D01*
G01*
X16120000Y-10850000D02*
G75*
G03*
X16120000Y-10850000I-20000J0D01*
G01*
X16120000Y-11000000D02*
G75*
G03*
X16120000Y-11000000I-20000J0D01*
G01*
X16245000Y-10425000D02*
G75*
G03*
X16245000Y-10425000I-20000J0D01*
G01*
X17195000Y-6150000D02*
G75*
G03*
X17195000Y-6150000I-20000J0D01*
G01*
X17195000Y-6850000D02*
G75*
G03*
X17195000Y-6850000I-20000J0D01*
G01*
X17195000Y-7100000D02*
G75*
G03*
X17195000Y-7100000I-20000J0D01*
G01*
X17295000Y-6500000D02*
G75*
G03*
X17295000Y-6500000I-20000J0D01*
G01*
D14*
X7480000Y-7062500D02*
X7480000Y-7112500D01*
X7455000Y-7087500D02*
X7505000Y-7087500D01*
X7480000Y-7187500D02*
X7480000Y-7237500D01*
X7455000Y-7212500D02*
X7505000Y-7212500D01*
X7480000Y-7312500D02*
X7480000Y-7362500D01*
X7455000Y-7337500D02*
X7505000Y-7337500D01*
X7480000Y-7437500D02*
X7480000Y-7487500D01*
X7455000Y-7462500D02*
X7505000Y-7462500D01*
X7480000Y-7837500D02*
X7480000Y-7887500D01*
X7455000Y-7862500D02*
X7505000Y-7862500D01*
X7480000Y-7962500D02*
X7480000Y-8012500D01*
X7455000Y-7987500D02*
X7505000Y-7987500D01*
X7480000Y-8087500D02*
X7480000Y-8137500D01*
X7455000Y-8112500D02*
X7505000Y-8112500D01*
X7480000Y-8212500D02*
X7480000Y-8262500D01*
X7455000Y-8237500D02*
X7505000Y-8237500D01*
X7480000Y-8612500D02*
X7480000Y-8662500D01*
X7455000Y-8637500D02*
X7505000Y-8637500D01*
X7480000Y-8737500D02*
X7480000Y-8787500D01*
X7455000Y-8762500D02*
X7505000Y-8762500D01*
X7480000Y-8862500D02*
X7480000Y-8912500D01*
X7455000Y-8887500D02*
X7505000Y-8887500D01*
X7480000Y-8987500D02*
X7480000Y-9037500D01*
X7455000Y-9012500D02*
X7505000Y-9012500D01*
X7480000Y-9387500D02*
X7480000Y-9437500D01*
X7455000Y-9412500D02*
X7505000Y-9412500D01*
X7480000Y-9512500D02*
X7480000Y-9562500D01*
X7455000Y-9537500D02*
X7505000Y-9537500D01*
X7480000Y-9637500D02*
X7480000Y-9687500D01*
X7455000Y-9662500D02*
X7505000Y-9662500D01*
X7480000Y-9762500D02*
X7480000Y-9812500D01*
X7455000Y-9787500D02*
X7505000Y-9787500D01*
X7480000Y-10162500D02*
X7480000Y-10212500D01*
X7455000Y-10187500D02*
X7505000Y-10187500D01*
X7480000Y-10287500D02*
X7480000Y-10337500D01*
X7455000Y-10312500D02*
X7505000Y-10312500D01*
X7480000Y-10412500D02*
X7480000Y-10462500D01*
X7455000Y-10437500D02*
X7505000Y-10437500D01*
X7480000Y-10537500D02*
X7480000Y-10587500D01*
X7455000Y-10562500D02*
X7505000Y-10562500D01*
X7480000Y-10937500D02*
X7480000Y-10987500D01*
X7455000Y-10962500D02*
X7505000Y-10962500D01*
X7480000Y-11062500D02*
X7480000Y-11112500D01*
X7455000Y-11087500D02*
X7505000Y-11087500D01*
X7480000Y-11187500D02*
X7480000Y-11237500D01*
X7455000Y-11212500D02*
X7505000Y-11212500D01*
X7480000Y-11312500D02*
X7480000Y-11362500D01*
X7455000Y-11337500D02*
X7505000Y-11337500D01*
X7480000Y-11712500D02*
X7480000Y-11762500D01*
X7455000Y-11737500D02*
X7505000Y-11737500D01*
X7480000Y-11837500D02*
X7480000Y-11887500D01*
X7455000Y-11862500D02*
X7505000Y-11862500D01*
X7480000Y-11962500D02*
X7480000Y-12012500D01*
X7455000Y-11987500D02*
X7505000Y-11987500D01*
X7480000Y-12087500D02*
X7480000Y-12137500D01*
X7455000Y-12112500D02*
X7505000Y-12112500D01*
X7480000Y-12487500D02*
X7480000Y-12537500D01*
X7455000Y-12512500D02*
X7505000Y-12512500D01*
X7480000Y-12612500D02*
X7480000Y-12662500D01*
X7455000Y-12637500D02*
X7505000Y-12637500D01*
X7480000Y-12737500D02*
X7480000Y-12787500D01*
X7455000Y-12762500D02*
X7505000Y-12762500D01*
X7480000Y-12862500D02*
X7480000Y-12912500D01*
X7455000Y-12887500D02*
X7505000Y-12887500D01*
X14820000Y-11150000D02*
X14820000Y-11200000D01*
X14795000Y-11175000D02*
X14845000Y-11175000D01*
D11*
X14845000Y-11210000D02*
X14845000Y-11140000D01*
X14845000Y-11140000D02*
G75*
G03*
X14795000Y-11140000I-25000J0D01*
G01*
X14795000Y-11140000D02*
X14795000Y-11210000D01*
X14795000Y-11210000D02*
G75*
G03*
X14845000Y-11210000I25000J0D01*
G01*
D14*
X15480000Y-11150000D02*
X15480000Y-11200000D01*
X15455000Y-11175000D02*
X15505000Y-11175000D01*
D11*
X15505000Y-11210000D02*
X15505000Y-11140000D01*
X15505000Y-11140000D02*
G75*
G03*
X15455000Y-11140000I-25000J0D01*
G01*
X15455000Y-11140000D02*
X15455000Y-11210000D01*
X15455000Y-11210000D02*
G75*
G03*
X15505000Y-11210000I25000J0D01*
G01*
D15*
X8730052Y-6505052D02*
X8730052Y-6444948D01*
X8669948Y-6444948D01*
X8669948Y-6505052D01*
X8730052Y-6505052D01*
X8980052Y-6505052D02*
X8980052Y-6444948D01*
X8919948Y-6444948D01*
X8919948Y-6505052D01*
X8980052Y-6505052D01*
X9230052Y-6505052D02*
X9230052Y-6444948D01*
X9169948Y-6444948D01*
X9169948Y-6505052D01*
X9230052Y-6505052D01*
X9480052Y-6505052D02*
X9480052Y-6444948D01*
X9419948Y-6444948D01*
X9419948Y-6505052D01*
X9480052Y-6505052D01*
D10*
X12517000Y-10975000D02*
X12567000Y-10925000D01*
X12517000Y-10875000D01*
X12467000Y-10925000D01*
X12517000Y-10975000D01*
X12517000Y-11229000D02*
X12567000Y-11179000D01*
X12517000Y-11129000D01*
X12467000Y-11179000D01*
X12517000Y-11229000D01*
X12771000Y-10975000D02*
X12821000Y-10925000D01*
X12771000Y-10875000D01*
X12721000Y-10925000D01*
X12771000Y-10975000D01*
X12771000Y-11229000D02*
X12821000Y-11179000D01*
X12771000Y-11129000D01*
X12721000Y-11179000D01*
X12771000Y-11229000D01*
X13025000Y-10975000D02*
X13075000Y-10925000D01*
X13025000Y-10875000D01*
X12975000Y-10925000D01*
X13025000Y-10975000D01*
X13025000Y-11229000D02*
X13075000Y-11179000D01*
X13025000Y-11129000D01*
X12975000Y-11179000D01*
X13025000Y-11229000D01*
X13279000Y-10975000D02*
X13329000Y-10925000D01*
X13279000Y-10875000D01*
X13229000Y-10925000D01*
X13279000Y-10975000D01*
X13279000Y-11229000D02*
X13329000Y-11179000D01*
X13279000Y-11129000D01*
X13229000Y-11179000D01*
X13279000Y-11229000D01*
X13533000Y-10975000D02*
X13583000Y-10925000D01*
X13533000Y-10875000D01*
X13483000Y-10925000D01*
X13533000Y-10975000D01*
X13533000Y-11229000D02*
X13583000Y-11179000D01*
X13533000Y-11129000D01*
X13483000Y-11179000D01*
X13533000Y-11229000D01*
X13787000Y-10975000D02*
X13837000Y-10925000D01*
X13787000Y-10875000D01*
X13737000Y-10925000D01*
X13787000Y-10975000D01*
X13787000Y-11229000D02*
X13837000Y-11179000D01*
X13787000Y-11129000D01*
X13737000Y-11179000D01*
X13787000Y-11229000D01*
X16500000Y-6300000D02*
X16550000Y-6250000D01*
X16500000Y-6200000D01*
X16450000Y-6250000D01*
X16500000Y-6300000D01*
X16500000Y-6554000D02*
X16550000Y-6504000D01*
X16500000Y-6454000D01*
X16450000Y-6504000D01*
X16500000Y-6554000D01*
X16500000Y-6808000D02*
X16550000Y-6758000D01*
X16500000Y-6708000D01*
X16450000Y-6758000D01*
X16500000Y-6808000D01*
X16500000Y-7062000D02*
X16550000Y-7012000D01*
X16500000Y-6962000D01*
X16450000Y-7012000D01*
X16500000Y-7062000D01*
X16500000Y-7316000D02*
X16550000Y-7266000D01*
X16500000Y-7216000D01*
X16450000Y-7266000D01*
X16500000Y-7316000D01*
X16754000Y-6300000D02*
X16804000Y-6250000D01*
X16754000Y-6200000D01*
X16704000Y-6250000D01*
X16754000Y-6300000D01*
X16754000Y-6554000D02*
X16804000Y-6504000D01*
X16754000Y-6454000D01*
X16704000Y-6504000D01*
X16754000Y-6554000D01*
X16754000Y-6808000D02*
X16804000Y-6758000D01*
X16754000Y-6708000D01*
X16704000Y-6758000D01*
X16754000Y-6808000D01*
X16754000Y-7062000D02*
X16804000Y-7012000D01*
X16754000Y-6962000D01*
X16704000Y-7012000D01*
X16754000Y-7062000D01*
X16754000Y-7316000D02*
X16804000Y-7266000D01*
X16754000Y-7216000D01*
X16704000Y-7266000D01*
X16754000Y-7316000D01*
D16*
X7495000Y-6334000D02*
X7647000Y-6486000D01*
X7647000Y-6334000D02*
X7495000Y-6486000D01*
X7647000Y-6410000D02*
G75*
G03*
X7647000Y-6410000I-76000J0D01*
G01*
X8003000Y-6334000D02*
X8155000Y-6486000D01*
X8155000Y-6334000D02*
X8003000Y-6486000D01*
X8155000Y-6410000D02*
G75*
G03*
X8155000Y-6410000I-76000J0D01*
G01*
D11*
X7505777Y-13566484D02*
X7505777Y-13366484D01*
X7505777Y-13366484D02*
X7553396Y-13366484D01*
X7553396Y-13366484D02*
X7581967Y-13376008D01*
X7581967Y-13376008D02*
X7601015Y-13395055D01*
X7601015Y-13395055D02*
X7610539Y-13414103D01*
X7610539Y-13414103D02*
X7620062Y-13452198D01*
X7620062Y-13452198D02*
X7620062Y-13480769D01*
X7620062Y-13480769D02*
X7610539Y-13518865D01*
X7610539Y-13518865D02*
X7601015Y-13537912D01*
X7601015Y-13537912D02*
X7581967Y-13556960D01*
X7581967Y-13556960D02*
X7553396Y-13566484D01*
X7553396Y-13566484D02*
X7505777Y-13566484D01*
X7705777Y-13566484D02*
X7705777Y-13433150D01*
X7705777Y-13471246D02*
X7715301Y-13452198D01*
X7715301Y-13452198D02*
X7724824Y-13442674D01*
X7724824Y-13442674D02*
X7743872Y-13433150D01*
X7743872Y-13433150D02*
X7762920Y-13433150D01*
X7829586Y-13566484D02*
X7829586Y-13433150D01*
X7829586Y-13366484D02*
X7820062Y-13376008D01*
X7820062Y-13376008D02*
X7829586Y-13385531D01*
X7829586Y-13385531D02*
X7839110Y-13376008D01*
X7839110Y-13376008D02*
X7829586Y-13366484D01*
X7829586Y-13366484D02*
X7829586Y-13385531D01*
X7953396Y-13566484D02*
X7934348Y-13556960D01*
X7934348Y-13556960D02*
X7924824Y-13537912D01*
X7924824Y-13537912D02*
X7924824Y-13366484D01*
X8058158Y-13566484D02*
X8039110Y-13556960D01*
X8039110Y-13556960D02*
X8029586Y-13537912D01*
X8029586Y-13537912D02*
X8029586Y-13366484D01*
X8286729Y-13566484D02*
X8286729Y-13366484D01*
X8286729Y-13366484D02*
X8353396Y-13509341D01*
X8353396Y-13509341D02*
X8420063Y-13366484D01*
X8420063Y-13366484D02*
X8420063Y-13566484D01*
X8601015Y-13566484D02*
X8601015Y-13461722D01*
X8601015Y-13461722D02*
X8591491Y-13442674D01*
X8591491Y-13442674D02*
X8572444Y-13433150D01*
X8572444Y-13433150D02*
X8534348Y-13433150D01*
X8534348Y-13433150D02*
X8515301Y-13442674D01*
X8601015Y-13556960D02*
X8581967Y-13566484D01*
X8581967Y-13566484D02*
X8534348Y-13566484D01*
X8534348Y-13566484D02*
X8515301Y-13556960D01*
X8515301Y-13556960D02*
X8505777Y-13537912D01*
X8505777Y-13537912D02*
X8505777Y-13518865D01*
X8505777Y-13518865D02*
X8515301Y-13499817D01*
X8515301Y-13499817D02*
X8534348Y-13490293D01*
X8534348Y-13490293D02*
X8581967Y-13490293D01*
X8581967Y-13490293D02*
X8601015Y-13480769D01*
X8696253Y-13433150D02*
X8696253Y-13633150D01*
X8696253Y-13442674D02*
X8715301Y-13433150D01*
X8715301Y-13433150D02*
X8753396Y-13433150D01*
X8753396Y-13433150D02*
X8772444Y-13442674D01*
X8772444Y-13442674D02*
X8781967Y-13452198D01*
X8781967Y-13452198D02*
X8791491Y-13471246D01*
X8791491Y-13471246D02*
X8791491Y-13528388D01*
X8791491Y-13528388D02*
X8781967Y-13547436D01*
X8781967Y-13547436D02*
X8772444Y-13556960D01*
X8772444Y-13556960D02*
X8753396Y-13566484D01*
X8753396Y-13566484D02*
X8715301Y-13566484D01*
X8715301Y-13566484D02*
X8696253Y-13556960D01*
X8877205Y-13547436D02*
X8886729Y-13556960D01*
X8886729Y-13556960D02*
X8877205Y-13566484D01*
X8877205Y-13566484D02*
X8867682Y-13556960D01*
X8867682Y-13556960D02*
X8877205Y-13547436D01*
X8877205Y-13547436D02*
X8877205Y-13566484D01*
X8877205Y-13442674D02*
X8886729Y-13452198D01*
X8886729Y-13452198D02*
X8877205Y-13461722D01*
X8877205Y-13461722D02*
X8867682Y-13452198D01*
X8867682Y-13452198D02*
X8877205Y-13442674D01*
X8877205Y-13442674D02*
X8877205Y-13461722D01*
D12*
X7225000Y-13885000D02*
X7245000Y-13905000D01*
X7245000Y-13885000D02*
X7225000Y-13905000D01*
D11*
X7543872Y-13786484D02*
X7562920Y-13786484D01*
X7562920Y-13786484D02*
X7581967Y-13796008D01*
X7581967Y-13796008D02*
X7591491Y-13805531D01*
X7591491Y-13805531D02*
X7601015Y-13824579D01*
X7601015Y-13824579D02*
X7610539Y-13862674D01*
X7610539Y-13862674D02*
X7610539Y-13910293D01*
X7610539Y-13910293D02*
X7601015Y-13948388D01*
X7601015Y-13948388D02*
X7591491Y-13967436D01*
X7591491Y-13967436D02*
X7581967Y-13976960D01*
X7581967Y-13976960D02*
X7562920Y-13986484D01*
X7562920Y-13986484D02*
X7543872Y-13986484D01*
X7543872Y-13986484D02*
X7524824Y-13976960D01*
X7524824Y-13976960D02*
X7515301Y-13967436D01*
X7515301Y-13967436D02*
X7505777Y-13948388D01*
X7505777Y-13948388D02*
X7496253Y-13910293D01*
X7496253Y-13910293D02*
X7496253Y-13862674D01*
X7496253Y-13862674D02*
X7505777Y-13824579D01*
X7505777Y-13824579D02*
X7515301Y-13805531D01*
X7515301Y-13805531D02*
X7524824Y-13796008D01*
X7524824Y-13796008D02*
X7543872Y-13786484D01*
X7696253Y-13967436D02*
X7705777Y-13976960D01*
X7705777Y-13976960D02*
X7696253Y-13986484D01*
X7696253Y-13986484D02*
X7686729Y-13976960D01*
X7686729Y-13976960D02*
X7696253Y-13967436D01*
X7696253Y-13967436D02*
X7696253Y-13986484D01*
X7781967Y-13805531D02*
X7791491Y-13796008D01*
X7791491Y-13796008D02*
X7810539Y-13786484D01*
X7810539Y-13786484D02*
X7858158Y-13786484D01*
X7858158Y-13786484D02*
X7877205Y-13796008D01*
X7877205Y-13796008D02*
X7886729Y-13805531D01*
X7886729Y-13805531D02*
X7896253Y-13824579D01*
X7896253Y-13824579D02*
X7896253Y-13843627D01*
X7896253Y-13843627D02*
X7886729Y-13872198D01*
X7886729Y-13872198D02*
X7772443Y-13986484D01*
X7772443Y-13986484D02*
X7896253Y-13986484D01*
X8020062Y-13786484D02*
X8039110Y-13786484D01*
X8039110Y-13786484D02*
X8058158Y-13796008D01*
X8058158Y-13796008D02*
X8067682Y-13805531D01*
X8067682Y-13805531D02*
X8077205Y-13824579D01*
X8077205Y-13824579D02*
X8086729Y-13862674D01*
X8086729Y-13862674D02*
X8086729Y-13910293D01*
X8086729Y-13910293D02*
X8077205Y-13948388D01*
X8077205Y-13948388D02*
X8067682Y-13967436D01*
X8067682Y-13967436D02*
X8058158Y-13976960D01*
X8058158Y-13976960D02*
X8039110Y-13986484D01*
X8039110Y-13986484D02*
X8020062Y-13986484D01*
X8020062Y-13986484D02*
X8001015Y-13976960D01*
X8001015Y-13976960D02*
X7991491Y-13967436D01*
X7991491Y-13967436D02*
X7981967Y-13948388D01*
X7981967Y-13948388D02*
X7972443Y-13910293D01*
X7972443Y-13910293D02*
X7972443Y-13862674D01*
X7972443Y-13862674D02*
X7981967Y-13824579D01*
X7981967Y-13824579D02*
X7991491Y-13805531D01*
X7991491Y-13805531D02*
X8001015Y-13796008D01*
X8001015Y-13796008D02*
X8020062Y-13786484D01*
X8210539Y-13786484D02*
X8229586Y-13786484D01*
X8229586Y-13786484D02*
X8248634Y-13796008D01*
X8248634Y-13796008D02*
X8258158Y-13805531D01*
X8258158Y-13805531D02*
X8267682Y-13824579D01*
X8267682Y-13824579D02*
X8277205Y-13862674D01*
X8277205Y-13862674D02*
X8277205Y-13910293D01*
X8277205Y-13910293D02*
X8267682Y-13948388D01*
X8267682Y-13948388D02*
X8258158Y-13967436D01*
X8258158Y-13967436D02*
X8248634Y-13976960D01*
X8248634Y-13976960D02*
X8229586Y-13986484D01*
X8229586Y-13986484D02*
X8210539Y-13986484D01*
X8210539Y-13986484D02*
X8191491Y-13976960D01*
X8191491Y-13976960D02*
X8181967Y-13967436D01*
X8181967Y-13967436D02*
X8172443Y-13948388D01*
X8172443Y-13948388D02*
X8162920Y-13910293D01*
X8162920Y-13910293D02*
X8162920Y-13862674D01*
X8162920Y-13862674D02*
X8172443Y-13824579D01*
X8172443Y-13824579D02*
X8181967Y-13805531D01*
X8181967Y-13805531D02*
X8191491Y-13796008D01*
X8191491Y-13796008D02*
X8210539Y-13786484D01*
X8362920Y-13986484D02*
X8362920Y-13853150D01*
X8362920Y-13872198D02*
X8372443Y-13862674D01*
X8372443Y-13862674D02*
X8391491Y-13853150D01*
X8391491Y-13853150D02*
X8420063Y-13853150D01*
X8420063Y-13853150D02*
X8439110Y-13862674D01*
X8439110Y-13862674D02*
X8448634Y-13881722D01*
X8448634Y-13881722D02*
X8448634Y-13986484D01*
X8448634Y-13881722D02*
X8458158Y-13862674D01*
X8458158Y-13862674D02*
X8477205Y-13853150D01*
X8477205Y-13853150D02*
X8505777Y-13853150D01*
X8505777Y-13853150D02*
X8524825Y-13862674D01*
X8524825Y-13862674D02*
X8534348Y-13881722D01*
X8534348Y-13881722D02*
X8534348Y-13986484D01*
X8629586Y-13986484D02*
X8629586Y-13853150D01*
X8629586Y-13872198D02*
X8639110Y-13862674D01*
X8639110Y-13862674D02*
X8658158Y-13853150D01*
X8658158Y-13853150D02*
X8686729Y-13853150D01*
X8686729Y-13853150D02*
X8705777Y-13862674D01*
X8705777Y-13862674D02*
X8715301Y-13881722D01*
X8715301Y-13881722D02*
X8715301Y-13986484D01*
X8715301Y-13881722D02*
X8724825Y-13862674D01*
X8724825Y-13862674D02*
X8743872Y-13853150D01*
X8743872Y-13853150D02*
X8772444Y-13853150D01*
X8772444Y-13853150D02*
X8791491Y-13862674D01*
X8791491Y-13862674D02*
X8801015Y-13881722D01*
X8801015Y-13881722D02*
X8801015Y-13986484D01*
X9191491Y-13776960D02*
X9020063Y-14034103D01*
X9448634Y-13786484D02*
X9467682Y-13786484D01*
X9467682Y-13786484D02*
X9486729Y-13796008D01*
X9486729Y-13796008D02*
X9496253Y-13805531D01*
X9496253Y-13805531D02*
X9505777Y-13824579D01*
X9505777Y-13824579D02*
X9515301Y-13862674D01*
X9515301Y-13862674D02*
X9515301Y-13910293D01*
X9515301Y-13910293D02*
X9505777Y-13948388D01*
X9505777Y-13948388D02*
X9496253Y-13967436D01*
X9496253Y-13967436D02*
X9486729Y-13976960D01*
X9486729Y-13976960D02*
X9467682Y-13986484D01*
X9467682Y-13986484D02*
X9448634Y-13986484D01*
X9448634Y-13986484D02*
X9429587Y-13976960D01*
X9429587Y-13976960D02*
X9420063Y-13967436D01*
X9420063Y-13967436D02*
X9410539Y-13948388D01*
X9410539Y-13948388D02*
X9401015Y-13910293D01*
X9401015Y-13910293D02*
X9401015Y-13862674D01*
X9401015Y-13862674D02*
X9410539Y-13824579D01*
X9410539Y-13824579D02*
X9420063Y-13805531D01*
X9420063Y-13805531D02*
X9429587Y-13796008D01*
X9429587Y-13796008D02*
X9448634Y-13786484D01*
X9601015Y-13967436D02*
X9610539Y-13976960D01*
X9610539Y-13976960D02*
X9601015Y-13986484D01*
X9601015Y-13986484D02*
X9591491Y-13976960D01*
X9591491Y-13976960D02*
X9601015Y-13967436D01*
X9601015Y-13967436D02*
X9601015Y-13986484D01*
X9734348Y-13786484D02*
X9753396Y-13786484D01*
X9753396Y-13786484D02*
X9772444Y-13796008D01*
X9772444Y-13796008D02*
X9781968Y-13805531D01*
X9781968Y-13805531D02*
X9791491Y-13824579D01*
X9791491Y-13824579D02*
X9801015Y-13862674D01*
X9801015Y-13862674D02*
X9801015Y-13910293D01*
X9801015Y-13910293D02*
X9791491Y-13948388D01*
X9791491Y-13948388D02*
X9781968Y-13967436D01*
X9781968Y-13967436D02*
X9772444Y-13976960D01*
X9772444Y-13976960D02*
X9753396Y-13986484D01*
X9753396Y-13986484D02*
X9734348Y-13986484D01*
X9734348Y-13986484D02*
X9715301Y-13976960D01*
X9715301Y-13976960D02*
X9705777Y-13967436D01*
X9705777Y-13967436D02*
X9696253Y-13948388D01*
X9696253Y-13948388D02*
X9686729Y-13910293D01*
X9686729Y-13910293D02*
X9686729Y-13862674D01*
X9686729Y-13862674D02*
X9696253Y-13824579D01*
X9696253Y-13824579D02*
X9705777Y-13805531D01*
X9705777Y-13805531D02*
X9715301Y-13796008D01*
X9715301Y-13796008D02*
X9734348Y-13786484D01*
X9924825Y-13786484D02*
X9943872Y-13786484D01*
X9943872Y-13786484D02*
X9962920Y-13796008D01*
X9962920Y-13796008D02*
X9972444Y-13805531D01*
X9972444Y-13805531D02*
X9981968Y-13824579D01*
X9981968Y-13824579D02*
X9991491Y-13862674D01*
X9991491Y-13862674D02*
X9991491Y-13910293D01*
X9991491Y-13910293D02*
X9981968Y-13948388D01*
X9981968Y-13948388D02*
X9972444Y-13967436D01*
X9972444Y-13967436D02*
X9962920Y-13976960D01*
X9962920Y-13976960D02*
X9943872Y-13986484D01*
X9943872Y-13986484D02*
X9924825Y-13986484D01*
X9924825Y-13986484D02*
X9905777Y-13976960D01*
X9905777Y-13976960D02*
X9896253Y-13967436D01*
X9896253Y-13967436D02*
X9886729Y-13948388D01*
X9886729Y-13948388D02*
X9877206Y-13910293D01*
X9877206Y-13910293D02*
X9877206Y-13862674D01*
X9877206Y-13862674D02*
X9886729Y-13824579D01*
X9886729Y-13824579D02*
X9896253Y-13805531D01*
X9896253Y-13805531D02*
X9905777Y-13796008D01*
X9905777Y-13796008D02*
X9924825Y-13786484D01*
X10058158Y-13786484D02*
X10191491Y-13786484D01*
X10191491Y-13786484D02*
X10105777Y-13986484D01*
X10277206Y-13986484D02*
X10315301Y-13986484D01*
X10315301Y-13986484D02*
X10334349Y-13976960D01*
X10334349Y-13976960D02*
X10343872Y-13967436D01*
X10343872Y-13967436D02*
X10362920Y-13938865D01*
X10362920Y-13938865D02*
X10372444Y-13900769D01*
X10372444Y-13900769D02*
X10372444Y-13824579D01*
X10372444Y-13824579D02*
X10362920Y-13805531D01*
X10362920Y-13805531D02*
X10353396Y-13796008D01*
X10353396Y-13796008D02*
X10334349Y-13786484D01*
X10334349Y-13786484D02*
X10296253Y-13786484D01*
X10296253Y-13786484D02*
X10277206Y-13796008D01*
X10277206Y-13796008D02*
X10267682Y-13805531D01*
X10267682Y-13805531D02*
X10258158Y-13824579D01*
X10258158Y-13824579D02*
X10258158Y-13872198D01*
X10258158Y-13872198D02*
X10267682Y-13891246D01*
X10267682Y-13891246D02*
X10277206Y-13900769D01*
X10277206Y-13900769D02*
X10296253Y-13910293D01*
X10296253Y-13910293D02*
X10334349Y-13910293D01*
X10334349Y-13910293D02*
X10353396Y-13900769D01*
X10353396Y-13900769D02*
X10362920Y-13891246D01*
X10362920Y-13891246D02*
X10372444Y-13872198D01*
X10448634Y-13786484D02*
X10448634Y-13824579D01*
X10524825Y-13786484D02*
X10524825Y-13824579D01*
X10820063Y-14062674D02*
X10810539Y-14053150D01*
X10810539Y-14053150D02*
X10791491Y-14024579D01*
X10791491Y-14024579D02*
X10781968Y-14005531D01*
X10781968Y-14005531D02*
X10772444Y-13976960D01*
X10772444Y-13976960D02*
X10762920Y-13929341D01*
X10762920Y-13929341D02*
X10762920Y-13891246D01*
X10762920Y-13891246D02*
X10772444Y-13843627D01*
X10772444Y-13843627D02*
X10781968Y-13815055D01*
X10781968Y-13815055D02*
X10791491Y-13796008D01*
X10791491Y-13796008D02*
X10810539Y-13767436D01*
X10810539Y-13767436D02*
X10820063Y-13757912D01*
X10886730Y-13805531D02*
X10896253Y-13796008D01*
X10896253Y-13796008D02*
X10915301Y-13786484D01*
X10915301Y-13786484D02*
X10962920Y-13786484D01*
X10962920Y-13786484D02*
X10981968Y-13796008D01*
X10981968Y-13796008D02*
X10991491Y-13805531D01*
X10991491Y-13805531D02*
X11001015Y-13824579D01*
X11001015Y-13824579D02*
X11001015Y-13843627D01*
X11001015Y-13843627D02*
X10991491Y-13872198D01*
X10991491Y-13872198D02*
X10877206Y-13986484D01*
X10877206Y-13986484D02*
X11001015Y-13986484D01*
X11181968Y-13786484D02*
X11086730Y-13786484D01*
X11086730Y-13786484D02*
X11077206Y-13881722D01*
X11077206Y-13881722D02*
X11086730Y-13872198D01*
X11086730Y-13872198D02*
X11105777Y-13862674D01*
X11105777Y-13862674D02*
X11153396Y-13862674D01*
X11153396Y-13862674D02*
X11172444Y-13872198D01*
X11172444Y-13872198D02*
X11181968Y-13881722D01*
X11181968Y-13881722D02*
X11191491Y-13900769D01*
X11191491Y-13900769D02*
X11191491Y-13948388D01*
X11191491Y-13948388D02*
X11181968Y-13967436D01*
X11181968Y-13967436D02*
X11172444Y-13976960D01*
X11172444Y-13976960D02*
X11153396Y-13986484D01*
X11153396Y-13986484D02*
X11105777Y-13986484D01*
X11105777Y-13986484D02*
X11086730Y-13976960D01*
X11086730Y-13976960D02*
X11077206Y-13967436D01*
X11305777Y-13872198D02*
X11286729Y-13862674D01*
X11286729Y-13862674D02*
X11277206Y-13853150D01*
X11277206Y-13853150D02*
X11267682Y-13834103D01*
X11267682Y-13834103D02*
X11267682Y-13824579D01*
X11267682Y-13824579D02*
X11277206Y-13805531D01*
X11277206Y-13805531D02*
X11286729Y-13796008D01*
X11286729Y-13796008D02*
X11305777Y-13786484D01*
X11305777Y-13786484D02*
X11343872Y-13786484D01*
X11343872Y-13786484D02*
X11362920Y-13796008D01*
X11362920Y-13796008D02*
X11372444Y-13805531D01*
X11372444Y-13805531D02*
X11381968Y-13824579D01*
X11381968Y-13824579D02*
X11381968Y-13834103D01*
X11381968Y-13834103D02*
X11372444Y-13853150D01*
X11372444Y-13853150D02*
X11362920Y-13862674D01*
X11362920Y-13862674D02*
X11343872Y-13872198D01*
X11343872Y-13872198D02*
X11305777Y-13872198D01*
X11305777Y-13872198D02*
X11286729Y-13881722D01*
X11286729Y-13881722D02*
X11277206Y-13891246D01*
X11277206Y-13891246D02*
X11267682Y-13910293D01*
X11267682Y-13910293D02*
X11267682Y-13948388D01*
X11267682Y-13948388D02*
X11277206Y-13967436D01*
X11277206Y-13967436D02*
X11286729Y-13976960D01*
X11286729Y-13976960D02*
X11305777Y-13986484D01*
X11305777Y-13986484D02*
X11343872Y-13986484D01*
X11343872Y-13986484D02*
X11362920Y-13976960D01*
X11362920Y-13976960D02*
X11372444Y-13967436D01*
X11372444Y-13967436D02*
X11381968Y-13948388D01*
X11381968Y-13948388D02*
X11381968Y-13910293D01*
X11381968Y-13910293D02*
X11372444Y-13891246D01*
X11372444Y-13891246D02*
X11362920Y-13881722D01*
X11362920Y-13881722D02*
X11343872Y-13872198D01*
X11620063Y-13986484D02*
X11620063Y-13786484D01*
X11705777Y-13986484D02*
X11705777Y-13881722D01*
X11705777Y-13881722D02*
X11696253Y-13862674D01*
X11696253Y-13862674D02*
X11677206Y-13853150D01*
X11677206Y-13853150D02*
X11648634Y-13853150D01*
X11648634Y-13853150D02*
X11629587Y-13862674D01*
X11629587Y-13862674D02*
X11620063Y-13872198D01*
X11829587Y-13986484D02*
X11810539Y-13976960D01*
X11810539Y-13976960D02*
X11801015Y-13967436D01*
X11801015Y-13967436D02*
X11791491Y-13948388D01*
X11791491Y-13948388D02*
X11791491Y-13891246D01*
X11791491Y-13891246D02*
X11801015Y-13872198D01*
X11801015Y-13872198D02*
X11810539Y-13862674D01*
X11810539Y-13862674D02*
X11829587Y-13853150D01*
X11829587Y-13853150D02*
X11858158Y-13853150D01*
X11858158Y-13853150D02*
X11877206Y-13862674D01*
X11877206Y-13862674D02*
X11886730Y-13872198D01*
X11886730Y-13872198D02*
X11896253Y-13891246D01*
X11896253Y-13891246D02*
X11896253Y-13948388D01*
X11896253Y-13948388D02*
X11886730Y-13967436D01*
X11886730Y-13967436D02*
X11877206Y-13976960D01*
X11877206Y-13976960D02*
X11858158Y-13986484D01*
X11858158Y-13986484D02*
X11829587Y-13986484D01*
X12010539Y-13986484D02*
X11991491Y-13976960D01*
X11991491Y-13976960D02*
X11981968Y-13957912D01*
X11981968Y-13957912D02*
X11981968Y-13786484D01*
X12162920Y-13976960D02*
X12143872Y-13986484D01*
X12143872Y-13986484D02*
X12105777Y-13986484D01*
X12105777Y-13986484D02*
X12086730Y-13976960D01*
X12086730Y-13976960D02*
X12077206Y-13957912D01*
X12077206Y-13957912D02*
X12077206Y-13881722D01*
X12077206Y-13881722D02*
X12086730Y-13862674D01*
X12086730Y-13862674D02*
X12105777Y-13853150D01*
X12105777Y-13853150D02*
X12143872Y-13853150D01*
X12143872Y-13853150D02*
X12162920Y-13862674D01*
X12162920Y-13862674D02*
X12172444Y-13881722D01*
X12172444Y-13881722D02*
X12172444Y-13900769D01*
X12172444Y-13900769D02*
X12077206Y-13919817D01*
X12248634Y-13976960D02*
X12267682Y-13986484D01*
X12267682Y-13986484D02*
X12305777Y-13986484D01*
X12305777Y-13986484D02*
X12324825Y-13976960D01*
X12324825Y-13976960D02*
X12334349Y-13957912D01*
X12334349Y-13957912D02*
X12334349Y-13948388D01*
X12334349Y-13948388D02*
X12324825Y-13929341D01*
X12324825Y-13929341D02*
X12305777Y-13919817D01*
X12305777Y-13919817D02*
X12277206Y-13919817D01*
X12277206Y-13919817D02*
X12258158Y-13910293D01*
X12258158Y-13910293D02*
X12248634Y-13891246D01*
X12248634Y-13891246D02*
X12248634Y-13881722D01*
X12248634Y-13881722D02*
X12258158Y-13862674D01*
X12258158Y-13862674D02*
X12277206Y-13853150D01*
X12277206Y-13853150D02*
X12305777Y-13853150D01*
X12305777Y-13853150D02*
X12324825Y-13862674D01*
X12401015Y-14062674D02*
X12410539Y-14053150D01*
X12410539Y-14053150D02*
X12429587Y-14024579D01*
X12429587Y-14024579D02*
X12439111Y-14005531D01*
X12439111Y-14005531D02*
X12448634Y-13976960D01*
X12448634Y-13976960D02*
X12458158Y-13929341D01*
X12458158Y-13929341D02*
X12458158Y-13891246D01*
X12458158Y-13891246D02*
X12448634Y-13843627D01*
X12448634Y-13843627D02*
X12439111Y-13815055D01*
X12439111Y-13815055D02*
X12429587Y-13796008D01*
X12429587Y-13796008D02*
X12410539Y-13767436D01*
X12410539Y-13767436D02*
X12401015Y-13757912D01*
D13*
X7245000Y-14159000D02*
G75*
G03*
X7245000Y-14159000I-20000J0D01*
G01*
D11*
X7543872Y-14050484D02*
X7562920Y-14050484D01*
X7562920Y-14050484D02*
X7581967Y-14060008D01*
X7581967Y-14060008D02*
X7591491Y-14069531D01*
X7591491Y-14069531D02*
X7601015Y-14088579D01*
X7601015Y-14088579D02*
X7610539Y-14126674D01*
X7610539Y-14126674D02*
X7610539Y-14174293D01*
X7610539Y-14174293D02*
X7601015Y-14212388D01*
X7601015Y-14212388D02*
X7591491Y-14231436D01*
X7591491Y-14231436D02*
X7581967Y-14240960D01*
X7581967Y-14240960D02*
X7562920Y-14250484D01*
X7562920Y-14250484D02*
X7543872Y-14250484D01*
X7543872Y-14250484D02*
X7524824Y-14240960D01*
X7524824Y-14240960D02*
X7515301Y-14231436D01*
X7515301Y-14231436D02*
X7505777Y-14212388D01*
X7505777Y-14212388D02*
X7496253Y-14174293D01*
X7496253Y-14174293D02*
X7496253Y-14126674D01*
X7496253Y-14126674D02*
X7505777Y-14088579D01*
X7505777Y-14088579D02*
X7515301Y-14069531D01*
X7515301Y-14069531D02*
X7524824Y-14060008D01*
X7524824Y-14060008D02*
X7543872Y-14050484D01*
X7696253Y-14231436D02*
X7705777Y-14240960D01*
X7705777Y-14240960D02*
X7696253Y-14250484D01*
X7696253Y-14250484D02*
X7686729Y-14240960D01*
X7686729Y-14240960D02*
X7696253Y-14231436D01*
X7696253Y-14231436D02*
X7696253Y-14250484D01*
X7877205Y-14117150D02*
X7877205Y-14250484D01*
X7829586Y-14040960D02*
X7781967Y-14183817D01*
X7781967Y-14183817D02*
X7905777Y-14183817D01*
X8020062Y-14050484D02*
X8039110Y-14050484D01*
X8039110Y-14050484D02*
X8058158Y-14060008D01*
X8058158Y-14060008D02*
X8067682Y-14069531D01*
X8067682Y-14069531D02*
X8077205Y-14088579D01*
X8077205Y-14088579D02*
X8086729Y-14126674D01*
X8086729Y-14126674D02*
X8086729Y-14174293D01*
X8086729Y-14174293D02*
X8077205Y-14212388D01*
X8077205Y-14212388D02*
X8067682Y-14231436D01*
X8067682Y-14231436D02*
X8058158Y-14240960D01*
X8058158Y-14240960D02*
X8039110Y-14250484D01*
X8039110Y-14250484D02*
X8020062Y-14250484D01*
X8020062Y-14250484D02*
X8001015Y-14240960D01*
X8001015Y-14240960D02*
X7991491Y-14231436D01*
X7991491Y-14231436D02*
X7981967Y-14212388D01*
X7981967Y-14212388D02*
X7972443Y-14174293D01*
X7972443Y-14174293D02*
X7972443Y-14126674D01*
X7972443Y-14126674D02*
X7981967Y-14088579D01*
X7981967Y-14088579D02*
X7991491Y-14069531D01*
X7991491Y-14069531D02*
X8001015Y-14060008D01*
X8001015Y-14060008D02*
X8020062Y-14050484D01*
X8210539Y-14050484D02*
X8229586Y-14050484D01*
X8229586Y-14050484D02*
X8248634Y-14060008D01*
X8248634Y-14060008D02*
X8258158Y-14069531D01*
X8258158Y-14069531D02*
X8267682Y-14088579D01*
X8267682Y-14088579D02*
X8277205Y-14126674D01*
X8277205Y-14126674D02*
X8277205Y-14174293D01*
X8277205Y-14174293D02*
X8267682Y-14212388D01*
X8267682Y-14212388D02*
X8258158Y-14231436D01*
X8258158Y-14231436D02*
X8248634Y-14240960D01*
X8248634Y-14240960D02*
X8229586Y-14250484D01*
X8229586Y-14250484D02*
X8210539Y-14250484D01*
X8210539Y-14250484D02*
X8191491Y-14240960D01*
X8191491Y-14240960D02*
X8181967Y-14231436D01*
X8181967Y-14231436D02*
X8172443Y-14212388D01*
X8172443Y-14212388D02*
X8162920Y-14174293D01*
X8162920Y-14174293D02*
X8162920Y-14126674D01*
X8162920Y-14126674D02*
X8172443Y-14088579D01*
X8172443Y-14088579D02*
X8181967Y-14069531D01*
X8181967Y-14069531D02*
X8191491Y-14060008D01*
X8191491Y-14060008D02*
X8210539Y-14050484D01*
X8362920Y-14250484D02*
X8362920Y-14117150D01*
X8362920Y-14136198D02*
X8372443Y-14126674D01*
X8372443Y-14126674D02*
X8391491Y-14117150D01*
X8391491Y-14117150D02*
X8420063Y-14117150D01*
X8420063Y-14117150D02*
X8439110Y-14126674D01*
X8439110Y-14126674D02*
X8448634Y-14145722D01*
X8448634Y-14145722D02*
X8448634Y-14250484D01*
X8448634Y-14145722D02*
X8458158Y-14126674D01*
X8458158Y-14126674D02*
X8477205Y-14117150D01*
X8477205Y-14117150D02*
X8505777Y-14117150D01*
X8505777Y-14117150D02*
X8524825Y-14126674D01*
X8524825Y-14126674D02*
X8534348Y-14145722D01*
X8534348Y-14145722D02*
X8534348Y-14250484D01*
X8629586Y-14250484D02*
X8629586Y-14117150D01*
X8629586Y-14136198D02*
X8639110Y-14126674D01*
X8639110Y-14126674D02*
X8658158Y-14117150D01*
X8658158Y-14117150D02*
X8686729Y-14117150D01*
X8686729Y-14117150D02*
X8705777Y-14126674D01*
X8705777Y-14126674D02*
X8715301Y-14145722D01*
X8715301Y-14145722D02*
X8715301Y-14250484D01*
X8715301Y-14145722D02*
X8724825Y-14126674D01*
X8724825Y-14126674D02*
X8743872Y-14117150D01*
X8743872Y-14117150D02*
X8772444Y-14117150D01*
X8772444Y-14117150D02*
X8791491Y-14126674D01*
X8791491Y-14126674D02*
X8801015Y-14145722D01*
X8801015Y-14145722D02*
X8801015Y-14250484D01*
X9191491Y-14040960D02*
X9020063Y-14298103D01*
X9448634Y-14050484D02*
X9467682Y-14050484D01*
X9467682Y-14050484D02*
X9486729Y-14060008D01*
X9486729Y-14060008D02*
X9496253Y-14069531D01*
X9496253Y-14069531D02*
X9505777Y-14088579D01*
X9505777Y-14088579D02*
X9515301Y-14126674D01*
X9515301Y-14126674D02*
X9515301Y-14174293D01*
X9515301Y-14174293D02*
X9505777Y-14212388D01*
X9505777Y-14212388D02*
X9496253Y-14231436D01*
X9496253Y-14231436D02*
X9486729Y-14240960D01*
X9486729Y-14240960D02*
X9467682Y-14250484D01*
X9467682Y-14250484D02*
X9448634Y-14250484D01*
X9448634Y-14250484D02*
X9429587Y-14240960D01*
X9429587Y-14240960D02*
X9420063Y-14231436D01*
X9420063Y-14231436D02*
X9410539Y-14212388D01*
X9410539Y-14212388D02*
X9401015Y-14174293D01*
X9401015Y-14174293D02*
X9401015Y-14126674D01*
X9401015Y-14126674D02*
X9410539Y-14088579D01*
X9410539Y-14088579D02*
X9420063Y-14069531D01*
X9420063Y-14069531D02*
X9429587Y-14060008D01*
X9429587Y-14060008D02*
X9448634Y-14050484D01*
X9601015Y-14231436D02*
X9610539Y-14240960D01*
X9610539Y-14240960D02*
X9601015Y-14250484D01*
X9601015Y-14250484D02*
X9591491Y-14240960D01*
X9591491Y-14240960D02*
X9601015Y-14231436D01*
X9601015Y-14231436D02*
X9601015Y-14250484D01*
X9734348Y-14050484D02*
X9753396Y-14050484D01*
X9753396Y-14050484D02*
X9772444Y-14060008D01*
X9772444Y-14060008D02*
X9781968Y-14069531D01*
X9781968Y-14069531D02*
X9791491Y-14088579D01*
X9791491Y-14088579D02*
X9801015Y-14126674D01*
X9801015Y-14126674D02*
X9801015Y-14174293D01*
X9801015Y-14174293D02*
X9791491Y-14212388D01*
X9791491Y-14212388D02*
X9781968Y-14231436D01*
X9781968Y-14231436D02*
X9772444Y-14240960D01*
X9772444Y-14240960D02*
X9753396Y-14250484D01*
X9753396Y-14250484D02*
X9734348Y-14250484D01*
X9734348Y-14250484D02*
X9715301Y-14240960D01*
X9715301Y-14240960D02*
X9705777Y-14231436D01*
X9705777Y-14231436D02*
X9696253Y-14212388D01*
X9696253Y-14212388D02*
X9686729Y-14174293D01*
X9686729Y-14174293D02*
X9686729Y-14126674D01*
X9686729Y-14126674D02*
X9696253Y-14088579D01*
X9696253Y-14088579D02*
X9705777Y-14069531D01*
X9705777Y-14069531D02*
X9715301Y-14060008D01*
X9715301Y-14060008D02*
X9734348Y-14050484D01*
X9991491Y-14250484D02*
X9877206Y-14250484D01*
X9934348Y-14250484D02*
X9934348Y-14050484D01*
X9934348Y-14050484D02*
X9915301Y-14079055D01*
X9915301Y-14079055D02*
X9896253Y-14098103D01*
X9896253Y-14098103D02*
X9877206Y-14107627D01*
X10172444Y-14050484D02*
X10077206Y-14050484D01*
X10077206Y-14050484D02*
X10067682Y-14145722D01*
X10067682Y-14145722D02*
X10077206Y-14136198D01*
X10077206Y-14136198D02*
X10096253Y-14126674D01*
X10096253Y-14126674D02*
X10143872Y-14126674D01*
X10143872Y-14126674D02*
X10162920Y-14136198D01*
X10162920Y-14136198D02*
X10172444Y-14145722D01*
X10172444Y-14145722D02*
X10181968Y-14164769D01*
X10181968Y-14164769D02*
X10181968Y-14212388D01*
X10181968Y-14212388D02*
X10172444Y-14231436D01*
X10172444Y-14231436D02*
X10162920Y-14240960D01*
X10162920Y-14240960D02*
X10143872Y-14250484D01*
X10143872Y-14250484D02*
X10096253Y-14250484D01*
X10096253Y-14250484D02*
X10077206Y-14240960D01*
X10077206Y-14240960D02*
X10067682Y-14231436D01*
X10248634Y-14050484D02*
X10381968Y-14050484D01*
X10381968Y-14050484D02*
X10296253Y-14250484D01*
X10448634Y-14050484D02*
X10448634Y-14088579D01*
X10524825Y-14050484D02*
X10524825Y-14088579D01*
X10820063Y-14326674D02*
X10810539Y-14317150D01*
X10810539Y-14317150D02*
X10791491Y-14288579D01*
X10791491Y-14288579D02*
X10781968Y-14269531D01*
X10781968Y-14269531D02*
X10772444Y-14240960D01*
X10772444Y-14240960D02*
X10762920Y-14193341D01*
X10762920Y-14193341D02*
X10762920Y-14155246D01*
X10762920Y-14155246D02*
X10772444Y-14107627D01*
X10772444Y-14107627D02*
X10781968Y-14079055D01*
X10781968Y-14079055D02*
X10791491Y-14060008D01*
X10791491Y-14060008D02*
X10810539Y-14031436D01*
X10810539Y-14031436D02*
X10820063Y-14021912D01*
X11001015Y-14250484D02*
X10886730Y-14250484D01*
X10943872Y-14250484D02*
X10943872Y-14050484D01*
X10943872Y-14050484D02*
X10924825Y-14079055D01*
X10924825Y-14079055D02*
X10905777Y-14098103D01*
X10905777Y-14098103D02*
X10886730Y-14107627D01*
X11172444Y-14050484D02*
X11134349Y-14050484D01*
X11134349Y-14050484D02*
X11115301Y-14060008D01*
X11115301Y-14060008D02*
X11105777Y-14069531D01*
X11105777Y-14069531D02*
X11086730Y-14098103D01*
X11086730Y-14098103D02*
X11077206Y-14136198D01*
X11077206Y-14136198D02*
X11077206Y-14212388D01*
X11077206Y-14212388D02*
X11086730Y-14231436D01*
X11086730Y-14231436D02*
X11096253Y-14240960D01*
X11096253Y-14240960D02*
X11115301Y-14250484D01*
X11115301Y-14250484D02*
X11153396Y-14250484D01*
X11153396Y-14250484D02*
X11172444Y-14240960D01*
X11172444Y-14240960D02*
X11181968Y-14231436D01*
X11181968Y-14231436D02*
X11191491Y-14212388D01*
X11191491Y-14212388D02*
X11191491Y-14164769D01*
X11191491Y-14164769D02*
X11181968Y-14145722D01*
X11181968Y-14145722D02*
X11172444Y-14136198D01*
X11172444Y-14136198D02*
X11153396Y-14126674D01*
X11153396Y-14126674D02*
X11115301Y-14126674D01*
X11115301Y-14126674D02*
X11096253Y-14136198D01*
X11096253Y-14136198D02*
X11086730Y-14145722D01*
X11086730Y-14145722D02*
X11077206Y-14164769D01*
X11372444Y-14050484D02*
X11277206Y-14050484D01*
X11277206Y-14050484D02*
X11267682Y-14145722D01*
X11267682Y-14145722D02*
X11277206Y-14136198D01*
X11277206Y-14136198D02*
X11296253Y-14126674D01*
X11296253Y-14126674D02*
X11343872Y-14126674D01*
X11343872Y-14126674D02*
X11362920Y-14136198D01*
X11362920Y-14136198D02*
X11372444Y-14145722D01*
X11372444Y-14145722D02*
X11381968Y-14164769D01*
X11381968Y-14164769D02*
X11381968Y-14212388D01*
X11381968Y-14212388D02*
X11372444Y-14231436D01*
X11372444Y-14231436D02*
X11362920Y-14240960D01*
X11362920Y-14240960D02*
X11343872Y-14250484D01*
X11343872Y-14250484D02*
X11296253Y-14250484D01*
X11296253Y-14250484D02*
X11277206Y-14240960D01*
X11277206Y-14240960D02*
X11267682Y-14231436D01*
X11620063Y-14250484D02*
X11620063Y-14050484D01*
X11705777Y-14250484D02*
X11705777Y-14145722D01*
X11705777Y-14145722D02*
X11696253Y-14126674D01*
X11696253Y-14126674D02*
X11677206Y-14117150D01*
X11677206Y-14117150D02*
X11648634Y-14117150D01*
X11648634Y-14117150D02*
X11629587Y-14126674D01*
X11629587Y-14126674D02*
X11620063Y-14136198D01*
X11829587Y-14250484D02*
X11810539Y-14240960D01*
X11810539Y-14240960D02*
X11801015Y-14231436D01*
X11801015Y-14231436D02*
X11791491Y-14212388D01*
X11791491Y-14212388D02*
X11791491Y-14155246D01*
X11791491Y-14155246D02*
X11801015Y-14136198D01*
X11801015Y-14136198D02*
X11810539Y-14126674D01*
X11810539Y-14126674D02*
X11829587Y-14117150D01*
X11829587Y-14117150D02*
X11858158Y-14117150D01*
X11858158Y-14117150D02*
X11877206Y-14126674D01*
X11877206Y-14126674D02*
X11886730Y-14136198D01*
X11886730Y-14136198D02*
X11896253Y-14155246D01*
X11896253Y-14155246D02*
X11896253Y-14212388D01*
X11896253Y-14212388D02*
X11886730Y-14231436D01*
X11886730Y-14231436D02*
X11877206Y-14240960D01*
X11877206Y-14240960D02*
X11858158Y-14250484D01*
X11858158Y-14250484D02*
X11829587Y-14250484D01*
X12010539Y-14250484D02*
X11991491Y-14240960D01*
X11991491Y-14240960D02*
X11981968Y-14221912D01*
X11981968Y-14221912D02*
X11981968Y-14050484D01*
X12162920Y-14240960D02*
X12143872Y-14250484D01*
X12143872Y-14250484D02*
X12105777Y-14250484D01*
X12105777Y-14250484D02*
X12086730Y-14240960D01*
X12086730Y-14240960D02*
X12077206Y-14221912D01*
X12077206Y-14221912D02*
X12077206Y-14145722D01*
X12077206Y-14145722D02*
X12086730Y-14126674D01*
X12086730Y-14126674D02*
X12105777Y-14117150D01*
X12105777Y-14117150D02*
X12143872Y-14117150D01*
X12143872Y-14117150D02*
X12162920Y-14126674D01*
X12162920Y-14126674D02*
X12172444Y-14145722D01*
X12172444Y-14145722D02*
X12172444Y-14164769D01*
X12172444Y-14164769D02*
X12077206Y-14183817D01*
X12248634Y-14240960D02*
X12267682Y-14250484D01*
X12267682Y-14250484D02*
X12305777Y-14250484D01*
X12305777Y-14250484D02*
X12324825Y-14240960D01*
X12324825Y-14240960D02*
X12334349Y-14221912D01*
X12334349Y-14221912D02*
X12334349Y-14212388D01*
X12334349Y-14212388D02*
X12324825Y-14193341D01*
X12324825Y-14193341D02*
X12305777Y-14183817D01*
X12305777Y-14183817D02*
X12277206Y-14183817D01*
X12277206Y-14183817D02*
X12258158Y-14174293D01*
X12258158Y-14174293D02*
X12248634Y-14155246D01*
X12248634Y-14155246D02*
X12248634Y-14145722D01*
X12248634Y-14145722D02*
X12258158Y-14126674D01*
X12258158Y-14126674D02*
X12277206Y-14117150D01*
X12277206Y-14117150D02*
X12305777Y-14117150D01*
X12305777Y-14117150D02*
X12324825Y-14126674D01*
X12401015Y-14326674D02*
X12410539Y-14317150D01*
X12410539Y-14317150D02*
X12429587Y-14288579D01*
X12429587Y-14288579D02*
X12439111Y-14269531D01*
X12439111Y-14269531D02*
X12448634Y-14240960D01*
X12448634Y-14240960D02*
X12458158Y-14193341D01*
X12458158Y-14193341D02*
X12458158Y-14155246D01*
X12458158Y-14155246D02*
X12448634Y-14107627D01*
X12448634Y-14107627D02*
X12439111Y-14079055D01*
X12439111Y-14079055D02*
X12429587Y-14060008D01*
X12429587Y-14060008D02*
X12410539Y-14031436D01*
X12410539Y-14031436D02*
X12401015Y-14021912D01*
D14*
X7220000Y-14398000D02*
X7220000Y-14448000D01*
X7195000Y-14423000D02*
X7245000Y-14423000D01*
D11*
X7543872Y-14314484D02*
X7562920Y-14314484D01*
X7562920Y-14314484D02*
X7581967Y-14324008D01*
X7581967Y-14324008D02*
X7591491Y-14333531D01*
X7591491Y-14333531D02*
X7601015Y-14352579D01*
X7601015Y-14352579D02*
X7610539Y-14390674D01*
X7610539Y-14390674D02*
X7610539Y-14438293D01*
X7610539Y-14438293D02*
X7601015Y-14476388D01*
X7601015Y-14476388D02*
X7591491Y-14495436D01*
X7591491Y-14495436D02*
X7581967Y-14504960D01*
X7581967Y-14504960D02*
X7562920Y-14514484D01*
X7562920Y-14514484D02*
X7543872Y-14514484D01*
X7543872Y-14514484D02*
X7524824Y-14504960D01*
X7524824Y-14504960D02*
X7515301Y-14495436D01*
X7515301Y-14495436D02*
X7505777Y-14476388D01*
X7505777Y-14476388D02*
X7496253Y-14438293D01*
X7496253Y-14438293D02*
X7496253Y-14390674D01*
X7496253Y-14390674D02*
X7505777Y-14352579D01*
X7505777Y-14352579D02*
X7515301Y-14333531D01*
X7515301Y-14333531D02*
X7524824Y-14324008D01*
X7524824Y-14324008D02*
X7543872Y-14314484D01*
X7696253Y-14495436D02*
X7705777Y-14504960D01*
X7705777Y-14504960D02*
X7696253Y-14514484D01*
X7696253Y-14514484D02*
X7686729Y-14504960D01*
X7686729Y-14504960D02*
X7696253Y-14495436D01*
X7696253Y-14495436D02*
X7696253Y-14514484D01*
X7886729Y-14314484D02*
X7791491Y-14314484D01*
X7791491Y-14314484D02*
X7781967Y-14409722D01*
X7781967Y-14409722D02*
X7791491Y-14400198D01*
X7791491Y-14400198D02*
X7810539Y-14390674D01*
X7810539Y-14390674D02*
X7858158Y-14390674D01*
X7858158Y-14390674D02*
X7877205Y-14400198D01*
X7877205Y-14400198D02*
X7886729Y-14409722D01*
X7886729Y-14409722D02*
X7896253Y-14428769D01*
X7896253Y-14428769D02*
X7896253Y-14476388D01*
X7896253Y-14476388D02*
X7886729Y-14495436D01*
X7886729Y-14495436D02*
X7877205Y-14504960D01*
X7877205Y-14504960D02*
X7858158Y-14514484D01*
X7858158Y-14514484D02*
X7810539Y-14514484D01*
X7810539Y-14514484D02*
X7791491Y-14504960D01*
X7791491Y-14504960D02*
X7781967Y-14495436D01*
X8020062Y-14314484D02*
X8039110Y-14314484D01*
X8039110Y-14314484D02*
X8058158Y-14324008D01*
X8058158Y-14324008D02*
X8067682Y-14333531D01*
X8067682Y-14333531D02*
X8077205Y-14352579D01*
X8077205Y-14352579D02*
X8086729Y-14390674D01*
X8086729Y-14390674D02*
X8086729Y-14438293D01*
X8086729Y-14438293D02*
X8077205Y-14476388D01*
X8077205Y-14476388D02*
X8067682Y-14495436D01*
X8067682Y-14495436D02*
X8058158Y-14504960D01*
X8058158Y-14504960D02*
X8039110Y-14514484D01*
X8039110Y-14514484D02*
X8020062Y-14514484D01*
X8020062Y-14514484D02*
X8001015Y-14504960D01*
X8001015Y-14504960D02*
X7991491Y-14495436D01*
X7991491Y-14495436D02*
X7981967Y-14476388D01*
X7981967Y-14476388D02*
X7972443Y-14438293D01*
X7972443Y-14438293D02*
X7972443Y-14390674D01*
X7972443Y-14390674D02*
X7981967Y-14352579D01*
X7981967Y-14352579D02*
X7991491Y-14333531D01*
X7991491Y-14333531D02*
X8001015Y-14324008D01*
X8001015Y-14324008D02*
X8020062Y-14314484D01*
X8210539Y-14314484D02*
X8229586Y-14314484D01*
X8229586Y-14314484D02*
X8248634Y-14324008D01*
X8248634Y-14324008D02*
X8258158Y-14333531D01*
X8258158Y-14333531D02*
X8267682Y-14352579D01*
X8267682Y-14352579D02*
X8277205Y-14390674D01*
X8277205Y-14390674D02*
X8277205Y-14438293D01*
X8277205Y-14438293D02*
X8267682Y-14476388D01*
X8267682Y-14476388D02*
X8258158Y-14495436D01*
X8258158Y-14495436D02*
X8248634Y-14504960D01*
X8248634Y-14504960D02*
X8229586Y-14514484D01*
X8229586Y-14514484D02*
X8210539Y-14514484D01*
X8210539Y-14514484D02*
X8191491Y-14504960D01*
X8191491Y-14504960D02*
X8181967Y-14495436D01*
X8181967Y-14495436D02*
X8172443Y-14476388D01*
X8172443Y-14476388D02*
X8162920Y-14438293D01*
X8162920Y-14438293D02*
X8162920Y-14390674D01*
X8162920Y-14390674D02*
X8172443Y-14352579D01*
X8172443Y-14352579D02*
X8181967Y-14333531D01*
X8181967Y-14333531D02*
X8191491Y-14324008D01*
X8191491Y-14324008D02*
X8210539Y-14314484D01*
X8362920Y-14514484D02*
X8362920Y-14381150D01*
X8362920Y-14400198D02*
X8372443Y-14390674D01*
X8372443Y-14390674D02*
X8391491Y-14381150D01*
X8391491Y-14381150D02*
X8420063Y-14381150D01*
X8420063Y-14381150D02*
X8439110Y-14390674D01*
X8439110Y-14390674D02*
X8448634Y-14409722D01*
X8448634Y-14409722D02*
X8448634Y-14514484D01*
X8448634Y-14409722D02*
X8458158Y-14390674D01*
X8458158Y-14390674D02*
X8477205Y-14381150D01*
X8477205Y-14381150D02*
X8505777Y-14381150D01*
X8505777Y-14381150D02*
X8524825Y-14390674D01*
X8524825Y-14390674D02*
X8534348Y-14409722D01*
X8534348Y-14409722D02*
X8534348Y-14514484D01*
X8629586Y-14514484D02*
X8629586Y-14381150D01*
X8629586Y-14400198D02*
X8639110Y-14390674D01*
X8639110Y-14390674D02*
X8658158Y-14381150D01*
X8658158Y-14381150D02*
X8686729Y-14381150D01*
X8686729Y-14381150D02*
X8705777Y-14390674D01*
X8705777Y-14390674D02*
X8715301Y-14409722D01*
X8715301Y-14409722D02*
X8715301Y-14514484D01*
X8715301Y-14409722D02*
X8724825Y-14390674D01*
X8724825Y-14390674D02*
X8743872Y-14381150D01*
X8743872Y-14381150D02*
X8772444Y-14381150D01*
X8772444Y-14381150D02*
X8791491Y-14390674D01*
X8791491Y-14390674D02*
X8801015Y-14409722D01*
X8801015Y-14409722D02*
X8801015Y-14514484D01*
X9191491Y-14304960D02*
X9020063Y-14562103D01*
X9448634Y-14314484D02*
X9467682Y-14314484D01*
X9467682Y-14314484D02*
X9486729Y-14324008D01*
X9486729Y-14324008D02*
X9496253Y-14333531D01*
X9496253Y-14333531D02*
X9505777Y-14352579D01*
X9505777Y-14352579D02*
X9515301Y-14390674D01*
X9515301Y-14390674D02*
X9515301Y-14438293D01*
X9515301Y-14438293D02*
X9505777Y-14476388D01*
X9505777Y-14476388D02*
X9496253Y-14495436D01*
X9496253Y-14495436D02*
X9486729Y-14504960D01*
X9486729Y-14504960D02*
X9467682Y-14514484D01*
X9467682Y-14514484D02*
X9448634Y-14514484D01*
X9448634Y-14514484D02*
X9429587Y-14504960D01*
X9429587Y-14504960D02*
X9420063Y-14495436D01*
X9420063Y-14495436D02*
X9410539Y-14476388D01*
X9410539Y-14476388D02*
X9401015Y-14438293D01*
X9401015Y-14438293D02*
X9401015Y-14390674D01*
X9401015Y-14390674D02*
X9410539Y-14352579D01*
X9410539Y-14352579D02*
X9420063Y-14333531D01*
X9420063Y-14333531D02*
X9429587Y-14324008D01*
X9429587Y-14324008D02*
X9448634Y-14314484D01*
X9601015Y-14495436D02*
X9610539Y-14504960D01*
X9610539Y-14504960D02*
X9601015Y-14514484D01*
X9601015Y-14514484D02*
X9591491Y-14504960D01*
X9591491Y-14504960D02*
X9601015Y-14495436D01*
X9601015Y-14495436D02*
X9601015Y-14514484D01*
X9734348Y-14314484D02*
X9753396Y-14314484D01*
X9753396Y-14314484D02*
X9772444Y-14324008D01*
X9772444Y-14324008D02*
X9781968Y-14333531D01*
X9781968Y-14333531D02*
X9791491Y-14352579D01*
X9791491Y-14352579D02*
X9801015Y-14390674D01*
X9801015Y-14390674D02*
X9801015Y-14438293D01*
X9801015Y-14438293D02*
X9791491Y-14476388D01*
X9791491Y-14476388D02*
X9781968Y-14495436D01*
X9781968Y-14495436D02*
X9772444Y-14504960D01*
X9772444Y-14504960D02*
X9753396Y-14514484D01*
X9753396Y-14514484D02*
X9734348Y-14514484D01*
X9734348Y-14514484D02*
X9715301Y-14504960D01*
X9715301Y-14504960D02*
X9705777Y-14495436D01*
X9705777Y-14495436D02*
X9696253Y-14476388D01*
X9696253Y-14476388D02*
X9686729Y-14438293D01*
X9686729Y-14438293D02*
X9686729Y-14390674D01*
X9686729Y-14390674D02*
X9696253Y-14352579D01*
X9696253Y-14352579D02*
X9705777Y-14333531D01*
X9705777Y-14333531D02*
X9715301Y-14324008D01*
X9715301Y-14324008D02*
X9734348Y-14314484D01*
X9991491Y-14514484D02*
X9877206Y-14514484D01*
X9934348Y-14514484D02*
X9934348Y-14314484D01*
X9934348Y-14314484D02*
X9915301Y-14343055D01*
X9915301Y-14343055D02*
X9896253Y-14362103D01*
X9896253Y-14362103D02*
X9877206Y-14371627D01*
X10086729Y-14514484D02*
X10124825Y-14514484D01*
X10124825Y-14514484D02*
X10143872Y-14504960D01*
X10143872Y-14504960D02*
X10153396Y-14495436D01*
X10153396Y-14495436D02*
X10172444Y-14466865D01*
X10172444Y-14466865D02*
X10181968Y-14428769D01*
X10181968Y-14428769D02*
X10181968Y-14352579D01*
X10181968Y-14352579D02*
X10172444Y-14333531D01*
X10172444Y-14333531D02*
X10162920Y-14324008D01*
X10162920Y-14324008D02*
X10143872Y-14314484D01*
X10143872Y-14314484D02*
X10105777Y-14314484D01*
X10105777Y-14314484D02*
X10086729Y-14324008D01*
X10086729Y-14324008D02*
X10077206Y-14333531D01*
X10077206Y-14333531D02*
X10067682Y-14352579D01*
X10067682Y-14352579D02*
X10067682Y-14400198D01*
X10067682Y-14400198D02*
X10077206Y-14419246D01*
X10077206Y-14419246D02*
X10086729Y-14428769D01*
X10086729Y-14428769D02*
X10105777Y-14438293D01*
X10105777Y-14438293D02*
X10143872Y-14438293D01*
X10143872Y-14438293D02*
X10162920Y-14428769D01*
X10162920Y-14428769D02*
X10172444Y-14419246D01*
X10172444Y-14419246D02*
X10181968Y-14400198D01*
X10248634Y-14314484D02*
X10381968Y-14314484D01*
X10381968Y-14314484D02*
X10296253Y-14514484D01*
X10448634Y-14314484D02*
X10448634Y-14352579D01*
X10524825Y-14314484D02*
X10524825Y-14352579D01*
X10820063Y-14590674D02*
X10810539Y-14581150D01*
X10810539Y-14581150D02*
X10791491Y-14552579D01*
X10791491Y-14552579D02*
X10781968Y-14533531D01*
X10781968Y-14533531D02*
X10772444Y-14504960D01*
X10772444Y-14504960D02*
X10762920Y-14457341D01*
X10762920Y-14457341D02*
X10762920Y-14419246D01*
X10762920Y-14419246D02*
X10772444Y-14371627D01*
X10772444Y-14371627D02*
X10781968Y-14343055D01*
X10781968Y-14343055D02*
X10791491Y-14324008D01*
X10791491Y-14324008D02*
X10810539Y-14295436D01*
X10810539Y-14295436D02*
X10820063Y-14285912D01*
X10877206Y-14314484D02*
X11001015Y-14314484D01*
X11001015Y-14314484D02*
X10934349Y-14390674D01*
X10934349Y-14390674D02*
X10962920Y-14390674D01*
X10962920Y-14390674D02*
X10981968Y-14400198D01*
X10981968Y-14400198D02*
X10991491Y-14409722D01*
X10991491Y-14409722D02*
X11001015Y-14428769D01*
X11001015Y-14428769D02*
X11001015Y-14476388D01*
X11001015Y-14476388D02*
X10991491Y-14495436D01*
X10991491Y-14495436D02*
X10981968Y-14504960D01*
X10981968Y-14504960D02*
X10962920Y-14514484D01*
X10962920Y-14514484D02*
X10905777Y-14514484D01*
X10905777Y-14514484D02*
X10886730Y-14504960D01*
X10886730Y-14504960D02*
X10877206Y-14495436D01*
X11077206Y-14333531D02*
X11086730Y-14324008D01*
X11086730Y-14324008D02*
X11105777Y-14314484D01*
X11105777Y-14314484D02*
X11153396Y-14314484D01*
X11153396Y-14314484D02*
X11172444Y-14324008D01*
X11172444Y-14324008D02*
X11181968Y-14333531D01*
X11181968Y-14333531D02*
X11191491Y-14352579D01*
X11191491Y-14352579D02*
X11191491Y-14371627D01*
X11191491Y-14371627D02*
X11181968Y-14400198D01*
X11181968Y-14400198D02*
X11067682Y-14514484D01*
X11067682Y-14514484D02*
X11191491Y-14514484D01*
X11429587Y-14514484D02*
X11429587Y-14314484D01*
X11515301Y-14514484D02*
X11515301Y-14409722D01*
X11515301Y-14409722D02*
X11505777Y-14390674D01*
X11505777Y-14390674D02*
X11486730Y-14381150D01*
X11486730Y-14381150D02*
X11458158Y-14381150D01*
X11458158Y-14381150D02*
X11439110Y-14390674D01*
X11439110Y-14390674D02*
X11429587Y-14400198D01*
X11639110Y-14514484D02*
X11620063Y-14504960D01*
X11620063Y-14504960D02*
X11610539Y-14495436D01*
X11610539Y-14495436D02*
X11601015Y-14476388D01*
X11601015Y-14476388D02*
X11601015Y-14419246D01*
X11601015Y-14419246D02*
X11610539Y-14400198D01*
X11610539Y-14400198D02*
X11620063Y-14390674D01*
X11620063Y-14390674D02*
X11639110Y-14381150D01*
X11639110Y-14381150D02*
X11667682Y-14381150D01*
X11667682Y-14381150D02*
X11686730Y-14390674D01*
X11686730Y-14390674D02*
X11696253Y-14400198D01*
X11696253Y-14400198D02*
X11705777Y-14419246D01*
X11705777Y-14419246D02*
X11705777Y-14476388D01*
X11705777Y-14476388D02*
X11696253Y-14495436D01*
X11696253Y-14495436D02*
X11686730Y-14504960D01*
X11686730Y-14504960D02*
X11667682Y-14514484D01*
X11667682Y-14514484D02*
X11639110Y-14514484D01*
X11820063Y-14514484D02*
X11801015Y-14504960D01*
X11801015Y-14504960D02*
X11791491Y-14485912D01*
X11791491Y-14485912D02*
X11791491Y-14314484D01*
X11972444Y-14504960D02*
X11953396Y-14514484D01*
X11953396Y-14514484D02*
X11915301Y-14514484D01*
X11915301Y-14514484D02*
X11896253Y-14504960D01*
X11896253Y-14504960D02*
X11886730Y-14485912D01*
X11886730Y-14485912D02*
X11886730Y-14409722D01*
X11886730Y-14409722D02*
X11896253Y-14390674D01*
X11896253Y-14390674D02*
X11915301Y-14381150D01*
X11915301Y-14381150D02*
X11953396Y-14381150D01*
X11953396Y-14381150D02*
X11972444Y-14390674D01*
X11972444Y-14390674D02*
X11981968Y-14409722D01*
X11981968Y-14409722D02*
X11981968Y-14428769D01*
X11981968Y-14428769D02*
X11886730Y-14447817D01*
X12058158Y-14504960D02*
X12077206Y-14514484D01*
X12077206Y-14514484D02*
X12115301Y-14514484D01*
X12115301Y-14514484D02*
X12134349Y-14504960D01*
X12134349Y-14504960D02*
X12143872Y-14485912D01*
X12143872Y-14485912D02*
X12143872Y-14476388D01*
X12143872Y-14476388D02*
X12134349Y-14457341D01*
X12134349Y-14457341D02*
X12115301Y-14447817D01*
X12115301Y-14447817D02*
X12086730Y-14447817D01*
X12086730Y-14447817D02*
X12067682Y-14438293D01*
X12067682Y-14438293D02*
X12058158Y-14419246D01*
X12058158Y-14419246D02*
X12058158Y-14409722D01*
X12058158Y-14409722D02*
X12067682Y-14390674D01*
X12067682Y-14390674D02*
X12086730Y-14381150D01*
X12086730Y-14381150D02*
X12115301Y-14381150D01*
X12115301Y-14381150D02*
X12134349Y-14390674D01*
X12381968Y-14438293D02*
X12534349Y-14438293D01*
X12458158Y-14514484D02*
X12458158Y-14362103D01*
X12772444Y-14333531D02*
X12781968Y-14324008D01*
X12781968Y-14324008D02*
X12801015Y-14314484D01*
X12801015Y-14314484D02*
X12848634Y-14314484D01*
X12848634Y-14314484D02*
X12867682Y-14324008D01*
X12867682Y-14324008D02*
X12877206Y-14333531D01*
X12877206Y-14333531D02*
X12886730Y-14352579D01*
X12886730Y-14352579D02*
X12886730Y-14371627D01*
X12886730Y-14371627D02*
X12877206Y-14400198D01*
X12877206Y-14400198D02*
X12762920Y-14514484D01*
X12762920Y-14514484D02*
X12886730Y-14514484D01*
X13115301Y-14504960D02*
X13134349Y-14514484D01*
X13134349Y-14514484D02*
X13172444Y-14514484D01*
X13172444Y-14514484D02*
X13191492Y-14504960D01*
X13191492Y-14504960D02*
X13201015Y-14485912D01*
X13201015Y-14485912D02*
X13201015Y-14476388D01*
X13201015Y-14476388D02*
X13191492Y-14457341D01*
X13191492Y-14457341D02*
X13172444Y-14447817D01*
X13172444Y-14447817D02*
X13143873Y-14447817D01*
X13143873Y-14447817D02*
X13124825Y-14438293D01*
X13124825Y-14438293D02*
X13115301Y-14419246D01*
X13115301Y-14419246D02*
X13115301Y-14409722D01*
X13115301Y-14409722D02*
X13124825Y-14390674D01*
X13124825Y-14390674D02*
X13143873Y-14381150D01*
X13143873Y-14381150D02*
X13172444Y-14381150D01*
X13172444Y-14381150D02*
X13191492Y-14390674D01*
X13315301Y-14514484D02*
X13296254Y-14504960D01*
X13296254Y-14504960D02*
X13286730Y-14485912D01*
X13286730Y-14485912D02*
X13286730Y-14314484D01*
X13420063Y-14514484D02*
X13401015Y-14504960D01*
X13401015Y-14504960D02*
X13391492Y-14495436D01*
X13391492Y-14495436D02*
X13381968Y-14476388D01*
X13381968Y-14476388D02*
X13381968Y-14419246D01*
X13381968Y-14419246D02*
X13391492Y-14400198D01*
X13391492Y-14400198D02*
X13401015Y-14390674D01*
X13401015Y-14390674D02*
X13420063Y-14381150D01*
X13420063Y-14381150D02*
X13448635Y-14381150D01*
X13448635Y-14381150D02*
X13467682Y-14390674D01*
X13467682Y-14390674D02*
X13477206Y-14400198D01*
X13477206Y-14400198D02*
X13486730Y-14419246D01*
X13486730Y-14419246D02*
X13486730Y-14476388D01*
X13486730Y-14476388D02*
X13477206Y-14495436D01*
X13477206Y-14495436D02*
X13467682Y-14504960D01*
X13467682Y-14504960D02*
X13448635Y-14514484D01*
X13448635Y-14514484D02*
X13420063Y-14514484D01*
X13543873Y-14381150D02*
X13620063Y-14381150D01*
X13572444Y-14314484D02*
X13572444Y-14485912D01*
X13572444Y-14485912D02*
X13581968Y-14504960D01*
X13581968Y-14504960D02*
X13601015Y-14514484D01*
X13601015Y-14514484D02*
X13620063Y-14514484D01*
X13677206Y-14504960D02*
X13696254Y-14514484D01*
X13696254Y-14514484D02*
X13734349Y-14514484D01*
X13734349Y-14514484D02*
X13753396Y-14504960D01*
X13753396Y-14504960D02*
X13762920Y-14485912D01*
X13762920Y-14485912D02*
X13762920Y-14476388D01*
X13762920Y-14476388D02*
X13753396Y-14457341D01*
X13753396Y-14457341D02*
X13734349Y-14447817D01*
X13734349Y-14447817D02*
X13705777Y-14447817D01*
X13705777Y-14447817D02*
X13686730Y-14438293D01*
X13686730Y-14438293D02*
X13677206Y-14419246D01*
X13677206Y-14419246D02*
X13677206Y-14409722D01*
X13677206Y-14409722D02*
X13686730Y-14390674D01*
X13686730Y-14390674D02*
X13705777Y-14381150D01*
X13705777Y-14381150D02*
X13734349Y-14381150D01*
X13734349Y-14381150D02*
X13753396Y-14390674D01*
X13829587Y-14590674D02*
X13839111Y-14581150D01*
X13839111Y-14581150D02*
X13858158Y-14552579D01*
X13858158Y-14552579D02*
X13867682Y-14533531D01*
X13867682Y-14533531D02*
X13877206Y-14504960D01*
X13877206Y-14504960D02*
X13886730Y-14457341D01*
X13886730Y-14457341D02*
X13886730Y-14419246D01*
X13886730Y-14419246D02*
X13877206Y-14371627D01*
X13877206Y-14371627D02*
X13867682Y-14343055D01*
X13867682Y-14343055D02*
X13858158Y-14324008D01*
X13858158Y-14324008D02*
X13839111Y-14295436D01*
X13839111Y-14295436D02*
X13829587Y-14285912D01*
D15*
X7232552Y-14717052D02*
X7232552Y-14656948D01*
X7172448Y-14656948D01*
X7172448Y-14717052D01*
X7232552Y-14717052D01*
D11*
X7543872Y-14578484D02*
X7562920Y-14578484D01*
X7562920Y-14578484D02*
X7581967Y-14588008D01*
X7581967Y-14588008D02*
X7591491Y-14597531D01*
X7591491Y-14597531D02*
X7601015Y-14616579D01*
X7601015Y-14616579D02*
X7610539Y-14654674D01*
X7610539Y-14654674D02*
X7610539Y-14702293D01*
X7610539Y-14702293D02*
X7601015Y-14740388D01*
X7601015Y-14740388D02*
X7591491Y-14759436D01*
X7591491Y-14759436D02*
X7581967Y-14768960D01*
X7581967Y-14768960D02*
X7562920Y-14778484D01*
X7562920Y-14778484D02*
X7543872Y-14778484D01*
X7543872Y-14778484D02*
X7524824Y-14768960D01*
X7524824Y-14768960D02*
X7515301Y-14759436D01*
X7515301Y-14759436D02*
X7505777Y-14740388D01*
X7505777Y-14740388D02*
X7496253Y-14702293D01*
X7496253Y-14702293D02*
X7496253Y-14654674D01*
X7496253Y-14654674D02*
X7505777Y-14616579D01*
X7505777Y-14616579D02*
X7515301Y-14597531D01*
X7515301Y-14597531D02*
X7524824Y-14588008D01*
X7524824Y-14588008D02*
X7543872Y-14578484D01*
X7696253Y-14759436D02*
X7705777Y-14768960D01*
X7705777Y-14768960D02*
X7696253Y-14778484D01*
X7696253Y-14778484D02*
X7686729Y-14768960D01*
X7686729Y-14768960D02*
X7696253Y-14759436D01*
X7696253Y-14759436D02*
X7696253Y-14778484D01*
X7820062Y-14664198D02*
X7801015Y-14654674D01*
X7801015Y-14654674D02*
X7791491Y-14645150D01*
X7791491Y-14645150D02*
X7781967Y-14626103D01*
X7781967Y-14626103D02*
X7781967Y-14616579D01*
X7781967Y-14616579D02*
X7791491Y-14597531D01*
X7791491Y-14597531D02*
X7801015Y-14588008D01*
X7801015Y-14588008D02*
X7820062Y-14578484D01*
X7820062Y-14578484D02*
X7858158Y-14578484D01*
X7858158Y-14578484D02*
X7877205Y-14588008D01*
X7877205Y-14588008D02*
X7886729Y-14597531D01*
X7886729Y-14597531D02*
X7896253Y-14616579D01*
X7896253Y-14616579D02*
X7896253Y-14626103D01*
X7896253Y-14626103D02*
X7886729Y-14645150D01*
X7886729Y-14645150D02*
X7877205Y-14654674D01*
X7877205Y-14654674D02*
X7858158Y-14664198D01*
X7858158Y-14664198D02*
X7820062Y-14664198D01*
X7820062Y-14664198D02*
X7801015Y-14673722D01*
X7801015Y-14673722D02*
X7791491Y-14683246D01*
X7791491Y-14683246D02*
X7781967Y-14702293D01*
X7781967Y-14702293D02*
X7781967Y-14740388D01*
X7781967Y-14740388D02*
X7791491Y-14759436D01*
X7791491Y-14759436D02*
X7801015Y-14768960D01*
X7801015Y-14768960D02*
X7820062Y-14778484D01*
X7820062Y-14778484D02*
X7858158Y-14778484D01*
X7858158Y-14778484D02*
X7877205Y-14768960D01*
X7877205Y-14768960D02*
X7886729Y-14759436D01*
X7886729Y-14759436D02*
X7896253Y-14740388D01*
X7896253Y-14740388D02*
X7896253Y-14702293D01*
X7896253Y-14702293D02*
X7886729Y-14683246D01*
X7886729Y-14683246D02*
X7877205Y-14673722D01*
X7877205Y-14673722D02*
X7858158Y-14664198D01*
X8077205Y-14578484D02*
X7981967Y-14578484D01*
X7981967Y-14578484D02*
X7972443Y-14673722D01*
X7972443Y-14673722D02*
X7981967Y-14664198D01*
X7981967Y-14664198D02*
X8001015Y-14654674D01*
X8001015Y-14654674D02*
X8048634Y-14654674D01*
X8048634Y-14654674D02*
X8067682Y-14664198D01*
X8067682Y-14664198D02*
X8077205Y-14673722D01*
X8077205Y-14673722D02*
X8086729Y-14692769D01*
X8086729Y-14692769D02*
X8086729Y-14740388D01*
X8086729Y-14740388D02*
X8077205Y-14759436D01*
X8077205Y-14759436D02*
X8067682Y-14768960D01*
X8067682Y-14768960D02*
X8048634Y-14778484D01*
X8048634Y-14778484D02*
X8001015Y-14778484D01*
X8001015Y-14778484D02*
X7981967Y-14768960D01*
X7981967Y-14768960D02*
X7972443Y-14759436D01*
X8210539Y-14578484D02*
X8229586Y-14578484D01*
X8229586Y-14578484D02*
X8248634Y-14588008D01*
X8248634Y-14588008D02*
X8258158Y-14597531D01*
X8258158Y-14597531D02*
X8267682Y-14616579D01*
X8267682Y-14616579D02*
X8277205Y-14654674D01*
X8277205Y-14654674D02*
X8277205Y-14702293D01*
X8277205Y-14702293D02*
X8267682Y-14740388D01*
X8267682Y-14740388D02*
X8258158Y-14759436D01*
X8258158Y-14759436D02*
X8248634Y-14768960D01*
X8248634Y-14768960D02*
X8229586Y-14778484D01*
X8229586Y-14778484D02*
X8210539Y-14778484D01*
X8210539Y-14778484D02*
X8191491Y-14768960D01*
X8191491Y-14768960D02*
X8181967Y-14759436D01*
X8181967Y-14759436D02*
X8172443Y-14740388D01*
X8172443Y-14740388D02*
X8162920Y-14702293D01*
X8162920Y-14702293D02*
X8162920Y-14654674D01*
X8162920Y-14654674D02*
X8172443Y-14616579D01*
X8172443Y-14616579D02*
X8181967Y-14597531D01*
X8181967Y-14597531D02*
X8191491Y-14588008D01*
X8191491Y-14588008D02*
X8210539Y-14578484D01*
X8362920Y-14778484D02*
X8362920Y-14645150D01*
X8362920Y-14664198D02*
X8372443Y-14654674D01*
X8372443Y-14654674D02*
X8391491Y-14645150D01*
X8391491Y-14645150D02*
X8420063Y-14645150D01*
X8420063Y-14645150D02*
X8439110Y-14654674D01*
X8439110Y-14654674D02*
X8448634Y-14673722D01*
X8448634Y-14673722D02*
X8448634Y-14778484D01*
X8448634Y-14673722D02*
X8458158Y-14654674D01*
X8458158Y-14654674D02*
X8477205Y-14645150D01*
X8477205Y-14645150D02*
X8505777Y-14645150D01*
X8505777Y-14645150D02*
X8524825Y-14654674D01*
X8524825Y-14654674D02*
X8534348Y-14673722D01*
X8534348Y-14673722D02*
X8534348Y-14778484D01*
X8629586Y-14778484D02*
X8629586Y-14645150D01*
X8629586Y-14664198D02*
X8639110Y-14654674D01*
X8639110Y-14654674D02*
X8658158Y-14645150D01*
X8658158Y-14645150D02*
X8686729Y-14645150D01*
X8686729Y-14645150D02*
X8705777Y-14654674D01*
X8705777Y-14654674D02*
X8715301Y-14673722D01*
X8715301Y-14673722D02*
X8715301Y-14778484D01*
X8715301Y-14673722D02*
X8724825Y-14654674D01*
X8724825Y-14654674D02*
X8743872Y-14645150D01*
X8743872Y-14645150D02*
X8772444Y-14645150D01*
X8772444Y-14645150D02*
X8791491Y-14654674D01*
X8791491Y-14654674D02*
X8801015Y-14673722D01*
X8801015Y-14673722D02*
X8801015Y-14778484D01*
X9191491Y-14568960D02*
X9020063Y-14826103D01*
X9448634Y-14578484D02*
X9467682Y-14578484D01*
X9467682Y-14578484D02*
X9486729Y-14588008D01*
X9486729Y-14588008D02*
X9496253Y-14597531D01*
X9496253Y-14597531D02*
X9505777Y-14616579D01*
X9505777Y-14616579D02*
X9515301Y-14654674D01*
X9515301Y-14654674D02*
X9515301Y-14702293D01*
X9515301Y-14702293D02*
X9505777Y-14740388D01*
X9505777Y-14740388D02*
X9496253Y-14759436D01*
X9496253Y-14759436D02*
X9486729Y-14768960D01*
X9486729Y-14768960D02*
X9467682Y-14778484D01*
X9467682Y-14778484D02*
X9448634Y-14778484D01*
X9448634Y-14778484D02*
X9429587Y-14768960D01*
X9429587Y-14768960D02*
X9420063Y-14759436D01*
X9420063Y-14759436D02*
X9410539Y-14740388D01*
X9410539Y-14740388D02*
X9401015Y-14702293D01*
X9401015Y-14702293D02*
X9401015Y-14654674D01*
X9401015Y-14654674D02*
X9410539Y-14616579D01*
X9410539Y-14616579D02*
X9420063Y-14597531D01*
X9420063Y-14597531D02*
X9429587Y-14588008D01*
X9429587Y-14588008D02*
X9448634Y-14578484D01*
X9601015Y-14759436D02*
X9610539Y-14768960D01*
X9610539Y-14768960D02*
X9601015Y-14778484D01*
X9601015Y-14778484D02*
X9591491Y-14768960D01*
X9591491Y-14768960D02*
X9601015Y-14759436D01*
X9601015Y-14759436D02*
X9601015Y-14778484D01*
X9734348Y-14578484D02*
X9753396Y-14578484D01*
X9753396Y-14578484D02*
X9772444Y-14588008D01*
X9772444Y-14588008D02*
X9781968Y-14597531D01*
X9781968Y-14597531D02*
X9791491Y-14616579D01*
X9791491Y-14616579D02*
X9801015Y-14654674D01*
X9801015Y-14654674D02*
X9801015Y-14702293D01*
X9801015Y-14702293D02*
X9791491Y-14740388D01*
X9791491Y-14740388D02*
X9781968Y-14759436D01*
X9781968Y-14759436D02*
X9772444Y-14768960D01*
X9772444Y-14768960D02*
X9753396Y-14778484D01*
X9753396Y-14778484D02*
X9734348Y-14778484D01*
X9734348Y-14778484D02*
X9715301Y-14768960D01*
X9715301Y-14768960D02*
X9705777Y-14759436D01*
X9705777Y-14759436D02*
X9696253Y-14740388D01*
X9696253Y-14740388D02*
X9686729Y-14702293D01*
X9686729Y-14702293D02*
X9686729Y-14654674D01*
X9686729Y-14654674D02*
X9696253Y-14616579D01*
X9696253Y-14616579D02*
X9705777Y-14597531D01*
X9705777Y-14597531D02*
X9715301Y-14588008D01*
X9715301Y-14588008D02*
X9734348Y-14578484D01*
X9867682Y-14578484D02*
X9991491Y-14578484D01*
X9991491Y-14578484D02*
X9924825Y-14654674D01*
X9924825Y-14654674D02*
X9953396Y-14654674D01*
X9953396Y-14654674D02*
X9972444Y-14664198D01*
X9972444Y-14664198D02*
X9981968Y-14673722D01*
X9981968Y-14673722D02*
X9991491Y-14692769D01*
X9991491Y-14692769D02*
X9991491Y-14740388D01*
X9991491Y-14740388D02*
X9981968Y-14759436D01*
X9981968Y-14759436D02*
X9972444Y-14768960D01*
X9972444Y-14768960D02*
X9953396Y-14778484D01*
X9953396Y-14778484D02*
X9896253Y-14778484D01*
X9896253Y-14778484D02*
X9877206Y-14768960D01*
X9877206Y-14768960D02*
X9867682Y-14759436D01*
X10058158Y-14578484D02*
X10181968Y-14578484D01*
X10181968Y-14578484D02*
X10115301Y-14654674D01*
X10115301Y-14654674D02*
X10143872Y-14654674D01*
X10143872Y-14654674D02*
X10162920Y-14664198D01*
X10162920Y-14664198D02*
X10172444Y-14673722D01*
X10172444Y-14673722D02*
X10181968Y-14692769D01*
X10181968Y-14692769D02*
X10181968Y-14740388D01*
X10181968Y-14740388D02*
X10172444Y-14759436D01*
X10172444Y-14759436D02*
X10162920Y-14768960D01*
X10162920Y-14768960D02*
X10143872Y-14778484D01*
X10143872Y-14778484D02*
X10086729Y-14778484D01*
X10086729Y-14778484D02*
X10067682Y-14768960D01*
X10067682Y-14768960D02*
X10058158Y-14759436D01*
X10362920Y-14578484D02*
X10267682Y-14578484D01*
X10267682Y-14578484D02*
X10258158Y-14673722D01*
X10258158Y-14673722D02*
X10267682Y-14664198D01*
X10267682Y-14664198D02*
X10286729Y-14654674D01*
X10286729Y-14654674D02*
X10334349Y-14654674D01*
X10334349Y-14654674D02*
X10353396Y-14664198D01*
X10353396Y-14664198D02*
X10362920Y-14673722D01*
X10362920Y-14673722D02*
X10372444Y-14692769D01*
X10372444Y-14692769D02*
X10372444Y-14740388D01*
X10372444Y-14740388D02*
X10362920Y-14759436D01*
X10362920Y-14759436D02*
X10353396Y-14768960D01*
X10353396Y-14768960D02*
X10334349Y-14778484D01*
X10334349Y-14778484D02*
X10286729Y-14778484D01*
X10286729Y-14778484D02*
X10267682Y-14768960D01*
X10267682Y-14768960D02*
X10258158Y-14759436D01*
X10448634Y-14578484D02*
X10448634Y-14616579D01*
X10524825Y-14578484D02*
X10524825Y-14616579D01*
X10820063Y-14854674D02*
X10810539Y-14845150D01*
X10810539Y-14845150D02*
X10791491Y-14816579D01*
X10791491Y-14816579D02*
X10781968Y-14797531D01*
X10781968Y-14797531D02*
X10772444Y-14768960D01*
X10772444Y-14768960D02*
X10762920Y-14721341D01*
X10762920Y-14721341D02*
X10762920Y-14683246D01*
X10762920Y-14683246D02*
X10772444Y-14635627D01*
X10772444Y-14635627D02*
X10781968Y-14607055D01*
X10781968Y-14607055D02*
X10791491Y-14588008D01*
X10791491Y-14588008D02*
X10810539Y-14559436D01*
X10810539Y-14559436D02*
X10820063Y-14549912D01*
X10981968Y-14645150D02*
X10981968Y-14778484D01*
X10934349Y-14568960D02*
X10886730Y-14711817D01*
X10886730Y-14711817D02*
X11010539Y-14711817D01*
X11239110Y-14778484D02*
X11239110Y-14578484D01*
X11324825Y-14778484D02*
X11324825Y-14673722D01*
X11324825Y-14673722D02*
X11315301Y-14654674D01*
X11315301Y-14654674D02*
X11296253Y-14645150D01*
X11296253Y-14645150D02*
X11267682Y-14645150D01*
X11267682Y-14645150D02*
X11248634Y-14654674D01*
X11248634Y-14654674D02*
X11239110Y-14664198D01*
X11448634Y-14778484D02*
X11429587Y-14768960D01*
X11429587Y-14768960D02*
X11420063Y-14759436D01*
X11420063Y-14759436D02*
X11410539Y-14740388D01*
X11410539Y-14740388D02*
X11410539Y-14683246D01*
X11410539Y-14683246D02*
X11420063Y-14664198D01*
X11420063Y-14664198D02*
X11429587Y-14654674D01*
X11429587Y-14654674D02*
X11448634Y-14645150D01*
X11448634Y-14645150D02*
X11477206Y-14645150D01*
X11477206Y-14645150D02*
X11496253Y-14654674D01*
X11496253Y-14654674D02*
X11505777Y-14664198D01*
X11505777Y-14664198D02*
X11515301Y-14683246D01*
X11515301Y-14683246D02*
X11515301Y-14740388D01*
X11515301Y-14740388D02*
X11505777Y-14759436D01*
X11505777Y-14759436D02*
X11496253Y-14768960D01*
X11496253Y-14768960D02*
X11477206Y-14778484D01*
X11477206Y-14778484D02*
X11448634Y-14778484D01*
X11629587Y-14778484D02*
X11610539Y-14768960D01*
X11610539Y-14768960D02*
X11601015Y-14749912D01*
X11601015Y-14749912D02*
X11601015Y-14578484D01*
X11781968Y-14768960D02*
X11762920Y-14778484D01*
X11762920Y-14778484D02*
X11724825Y-14778484D01*
X11724825Y-14778484D02*
X11705777Y-14768960D01*
X11705777Y-14768960D02*
X11696253Y-14749912D01*
X11696253Y-14749912D02*
X11696253Y-14673722D01*
X11696253Y-14673722D02*
X11705777Y-14654674D01*
X11705777Y-14654674D02*
X11724825Y-14645150D01*
X11724825Y-14645150D02*
X11762920Y-14645150D01*
X11762920Y-14645150D02*
X11781968Y-14654674D01*
X11781968Y-14654674D02*
X11791491Y-14673722D01*
X11791491Y-14673722D02*
X11791491Y-14692769D01*
X11791491Y-14692769D02*
X11696253Y-14711817D01*
X11867682Y-14768960D02*
X11886730Y-14778484D01*
X11886730Y-14778484D02*
X11924825Y-14778484D01*
X11924825Y-14778484D02*
X11943872Y-14768960D01*
X11943872Y-14768960D02*
X11953396Y-14749912D01*
X11953396Y-14749912D02*
X11953396Y-14740388D01*
X11953396Y-14740388D02*
X11943872Y-14721341D01*
X11943872Y-14721341D02*
X11924825Y-14711817D01*
X11924825Y-14711817D02*
X11896253Y-14711817D01*
X11896253Y-14711817D02*
X11877206Y-14702293D01*
X11877206Y-14702293D02*
X11867682Y-14683246D01*
X11867682Y-14683246D02*
X11867682Y-14673722D01*
X11867682Y-14673722D02*
X11877206Y-14654674D01*
X11877206Y-14654674D02*
X11896253Y-14645150D01*
X11896253Y-14645150D02*
X11924825Y-14645150D01*
X11924825Y-14645150D02*
X11943872Y-14654674D01*
X12020063Y-14854674D02*
X12029587Y-14845150D01*
X12029587Y-14845150D02*
X12048634Y-14816579D01*
X12048634Y-14816579D02*
X12058158Y-14797531D01*
X12058158Y-14797531D02*
X12067682Y-14768960D01*
X12067682Y-14768960D02*
X12077206Y-14721341D01*
X12077206Y-14721341D02*
X12077206Y-14683246D01*
X12077206Y-14683246D02*
X12067682Y-14635627D01*
X12067682Y-14635627D02*
X12058158Y-14607055D01*
X12058158Y-14607055D02*
X12048634Y-14588008D01*
X12048634Y-14588008D02*
X12029587Y-14559436D01*
X12029587Y-14559436D02*
X12020063Y-14549912D01*
D10*
X7195000Y-15001000D02*
X7245000Y-14951000D01*
X7195000Y-14901000D01*
X7145000Y-14951000D01*
X7195000Y-15001000D01*
D11*
X7610539Y-15042484D02*
X7496253Y-15042484D01*
X7553396Y-15042484D02*
X7553396Y-14842484D01*
X7553396Y-14842484D02*
X7534348Y-14871055D01*
X7534348Y-14871055D02*
X7515301Y-14890103D01*
X7515301Y-14890103D02*
X7496253Y-14899627D01*
X7696253Y-15023436D02*
X7705777Y-15032960D01*
X7705777Y-15032960D02*
X7696253Y-15042484D01*
X7696253Y-15042484D02*
X7686729Y-15032960D01*
X7686729Y-15032960D02*
X7696253Y-15023436D01*
X7696253Y-15023436D02*
X7696253Y-15042484D01*
X7829586Y-14842484D02*
X7848634Y-14842484D01*
X7848634Y-14842484D02*
X7867682Y-14852008D01*
X7867682Y-14852008D02*
X7877205Y-14861531D01*
X7877205Y-14861531D02*
X7886729Y-14880579D01*
X7886729Y-14880579D02*
X7896253Y-14918674D01*
X7896253Y-14918674D02*
X7896253Y-14966293D01*
X7896253Y-14966293D02*
X7886729Y-15004388D01*
X7886729Y-15004388D02*
X7877205Y-15023436D01*
X7877205Y-15023436D02*
X7867682Y-15032960D01*
X7867682Y-15032960D02*
X7848634Y-15042484D01*
X7848634Y-15042484D02*
X7829586Y-15042484D01*
X7829586Y-15042484D02*
X7810539Y-15032960D01*
X7810539Y-15032960D02*
X7801015Y-15023436D01*
X7801015Y-15023436D02*
X7791491Y-15004388D01*
X7791491Y-15004388D02*
X7781967Y-14966293D01*
X7781967Y-14966293D02*
X7781967Y-14918674D01*
X7781967Y-14918674D02*
X7791491Y-14880579D01*
X7791491Y-14880579D02*
X7801015Y-14861531D01*
X7801015Y-14861531D02*
X7810539Y-14852008D01*
X7810539Y-14852008D02*
X7829586Y-14842484D01*
X8020062Y-14842484D02*
X8039110Y-14842484D01*
X8039110Y-14842484D02*
X8058158Y-14852008D01*
X8058158Y-14852008D02*
X8067682Y-14861531D01*
X8067682Y-14861531D02*
X8077205Y-14880579D01*
X8077205Y-14880579D02*
X8086729Y-14918674D01*
X8086729Y-14918674D02*
X8086729Y-14966293D01*
X8086729Y-14966293D02*
X8077205Y-15004388D01*
X8077205Y-15004388D02*
X8067682Y-15023436D01*
X8067682Y-15023436D02*
X8058158Y-15032960D01*
X8058158Y-15032960D02*
X8039110Y-15042484D01*
X8039110Y-15042484D02*
X8020062Y-15042484D01*
X8020062Y-15042484D02*
X8001015Y-15032960D01*
X8001015Y-15032960D02*
X7991491Y-15023436D01*
X7991491Y-15023436D02*
X7981967Y-15004388D01*
X7981967Y-15004388D02*
X7972443Y-14966293D01*
X7972443Y-14966293D02*
X7972443Y-14918674D01*
X7972443Y-14918674D02*
X7981967Y-14880579D01*
X7981967Y-14880579D02*
X7991491Y-14861531D01*
X7991491Y-14861531D02*
X8001015Y-14852008D01*
X8001015Y-14852008D02*
X8020062Y-14842484D01*
X8210539Y-14842484D02*
X8229586Y-14842484D01*
X8229586Y-14842484D02*
X8248634Y-14852008D01*
X8248634Y-14852008D02*
X8258158Y-14861531D01*
X8258158Y-14861531D02*
X8267682Y-14880579D01*
X8267682Y-14880579D02*
X8277205Y-14918674D01*
X8277205Y-14918674D02*
X8277205Y-14966293D01*
X8277205Y-14966293D02*
X8267682Y-15004388D01*
X8267682Y-15004388D02*
X8258158Y-15023436D01*
X8258158Y-15023436D02*
X8248634Y-15032960D01*
X8248634Y-15032960D02*
X8229586Y-15042484D01*
X8229586Y-15042484D02*
X8210539Y-15042484D01*
X8210539Y-15042484D02*
X8191491Y-15032960D01*
X8191491Y-15032960D02*
X8181967Y-15023436D01*
X8181967Y-15023436D02*
X8172443Y-15004388D01*
X8172443Y-15004388D02*
X8162920Y-14966293D01*
X8162920Y-14966293D02*
X8162920Y-14918674D01*
X8162920Y-14918674D02*
X8172443Y-14880579D01*
X8172443Y-14880579D02*
X8181967Y-14861531D01*
X8181967Y-14861531D02*
X8191491Y-14852008D01*
X8191491Y-14852008D02*
X8210539Y-14842484D01*
X8362920Y-15042484D02*
X8362920Y-14909150D01*
X8362920Y-14928198D02*
X8372443Y-14918674D01*
X8372443Y-14918674D02*
X8391491Y-14909150D01*
X8391491Y-14909150D02*
X8420063Y-14909150D01*
X8420063Y-14909150D02*
X8439110Y-14918674D01*
X8439110Y-14918674D02*
X8448634Y-14937722D01*
X8448634Y-14937722D02*
X8448634Y-15042484D01*
X8448634Y-14937722D02*
X8458158Y-14918674D01*
X8458158Y-14918674D02*
X8477205Y-14909150D01*
X8477205Y-14909150D02*
X8505777Y-14909150D01*
X8505777Y-14909150D02*
X8524825Y-14918674D01*
X8524825Y-14918674D02*
X8534348Y-14937722D01*
X8534348Y-14937722D02*
X8534348Y-15042484D01*
X8629586Y-15042484D02*
X8629586Y-14909150D01*
X8629586Y-14928198D02*
X8639110Y-14918674D01*
X8639110Y-14918674D02*
X8658158Y-14909150D01*
X8658158Y-14909150D02*
X8686729Y-14909150D01*
X8686729Y-14909150D02*
X8705777Y-14918674D01*
X8705777Y-14918674D02*
X8715301Y-14937722D01*
X8715301Y-14937722D02*
X8715301Y-15042484D01*
X8715301Y-14937722D02*
X8724825Y-14918674D01*
X8724825Y-14918674D02*
X8743872Y-14909150D01*
X8743872Y-14909150D02*
X8772444Y-14909150D01*
X8772444Y-14909150D02*
X8791491Y-14918674D01*
X8791491Y-14918674D02*
X8801015Y-14937722D01*
X8801015Y-14937722D02*
X8801015Y-15042484D01*
X9191491Y-14832960D02*
X9020063Y-15090103D01*
X9448634Y-14842484D02*
X9467682Y-14842484D01*
X9467682Y-14842484D02*
X9486729Y-14852008D01*
X9486729Y-14852008D02*
X9496253Y-14861531D01*
X9496253Y-14861531D02*
X9505777Y-14880579D01*
X9505777Y-14880579D02*
X9515301Y-14918674D01*
X9515301Y-14918674D02*
X9515301Y-14966293D01*
X9515301Y-14966293D02*
X9505777Y-15004388D01*
X9505777Y-15004388D02*
X9496253Y-15023436D01*
X9496253Y-15023436D02*
X9486729Y-15032960D01*
X9486729Y-15032960D02*
X9467682Y-15042484D01*
X9467682Y-15042484D02*
X9448634Y-15042484D01*
X9448634Y-15042484D02*
X9429587Y-15032960D01*
X9429587Y-15032960D02*
X9420063Y-15023436D01*
X9420063Y-15023436D02*
X9410539Y-15004388D01*
X9410539Y-15004388D02*
X9401015Y-14966293D01*
X9401015Y-14966293D02*
X9401015Y-14918674D01*
X9401015Y-14918674D02*
X9410539Y-14880579D01*
X9410539Y-14880579D02*
X9420063Y-14861531D01*
X9420063Y-14861531D02*
X9429587Y-14852008D01*
X9429587Y-14852008D02*
X9448634Y-14842484D01*
X9601015Y-15023436D02*
X9610539Y-15032960D01*
X9610539Y-15032960D02*
X9601015Y-15042484D01*
X9601015Y-15042484D02*
X9591491Y-15032960D01*
X9591491Y-15032960D02*
X9601015Y-15023436D01*
X9601015Y-15023436D02*
X9601015Y-15042484D01*
X9734348Y-14842484D02*
X9753396Y-14842484D01*
X9753396Y-14842484D02*
X9772444Y-14852008D01*
X9772444Y-14852008D02*
X9781968Y-14861531D01*
X9781968Y-14861531D02*
X9791491Y-14880579D01*
X9791491Y-14880579D02*
X9801015Y-14918674D01*
X9801015Y-14918674D02*
X9801015Y-14966293D01*
X9801015Y-14966293D02*
X9791491Y-15004388D01*
X9791491Y-15004388D02*
X9781968Y-15023436D01*
X9781968Y-15023436D02*
X9772444Y-15032960D01*
X9772444Y-15032960D02*
X9753396Y-15042484D01*
X9753396Y-15042484D02*
X9734348Y-15042484D01*
X9734348Y-15042484D02*
X9715301Y-15032960D01*
X9715301Y-15032960D02*
X9705777Y-15023436D01*
X9705777Y-15023436D02*
X9696253Y-15004388D01*
X9696253Y-15004388D02*
X9686729Y-14966293D01*
X9686729Y-14966293D02*
X9686729Y-14918674D01*
X9686729Y-14918674D02*
X9696253Y-14880579D01*
X9696253Y-14880579D02*
X9705777Y-14861531D01*
X9705777Y-14861531D02*
X9715301Y-14852008D01*
X9715301Y-14852008D02*
X9734348Y-14842484D01*
X9867682Y-14842484D02*
X9991491Y-14842484D01*
X9991491Y-14842484D02*
X9924825Y-14918674D01*
X9924825Y-14918674D02*
X9953396Y-14918674D01*
X9953396Y-14918674D02*
X9972444Y-14928198D01*
X9972444Y-14928198D02*
X9981968Y-14937722D01*
X9981968Y-14937722D02*
X9991491Y-14956769D01*
X9991491Y-14956769D02*
X9991491Y-15004388D01*
X9991491Y-15004388D02*
X9981968Y-15023436D01*
X9981968Y-15023436D02*
X9972444Y-15032960D01*
X9972444Y-15032960D02*
X9953396Y-15042484D01*
X9953396Y-15042484D02*
X9896253Y-15042484D01*
X9896253Y-15042484D02*
X9877206Y-15032960D01*
X9877206Y-15032960D02*
X9867682Y-15023436D01*
X10086729Y-15042484D02*
X10124825Y-15042484D01*
X10124825Y-15042484D02*
X10143872Y-15032960D01*
X10143872Y-15032960D02*
X10153396Y-15023436D01*
X10153396Y-15023436D02*
X10172444Y-14994865D01*
X10172444Y-14994865D02*
X10181968Y-14956769D01*
X10181968Y-14956769D02*
X10181968Y-14880579D01*
X10181968Y-14880579D02*
X10172444Y-14861531D01*
X10172444Y-14861531D02*
X10162920Y-14852008D01*
X10162920Y-14852008D02*
X10143872Y-14842484D01*
X10143872Y-14842484D02*
X10105777Y-14842484D01*
X10105777Y-14842484D02*
X10086729Y-14852008D01*
X10086729Y-14852008D02*
X10077206Y-14861531D01*
X10077206Y-14861531D02*
X10067682Y-14880579D01*
X10067682Y-14880579D02*
X10067682Y-14928198D01*
X10067682Y-14928198D02*
X10077206Y-14947246D01*
X10077206Y-14947246D02*
X10086729Y-14956769D01*
X10086729Y-14956769D02*
X10105777Y-14966293D01*
X10105777Y-14966293D02*
X10143872Y-14966293D01*
X10143872Y-14966293D02*
X10162920Y-14956769D01*
X10162920Y-14956769D02*
X10172444Y-14947246D01*
X10172444Y-14947246D02*
X10181968Y-14928198D01*
X10353396Y-14909150D02*
X10353396Y-15042484D01*
X10305777Y-14832960D02*
X10258158Y-14975817D01*
X10258158Y-14975817D02*
X10381968Y-14975817D01*
X10448634Y-14842484D02*
X10448634Y-14880579D01*
X10524825Y-14842484D02*
X10524825Y-14880579D01*
X10820063Y-15118674D02*
X10810539Y-15109150D01*
X10810539Y-15109150D02*
X10791491Y-15080579D01*
X10791491Y-15080579D02*
X10781968Y-15061531D01*
X10781968Y-15061531D02*
X10772444Y-15032960D01*
X10772444Y-15032960D02*
X10762920Y-14985341D01*
X10762920Y-14985341D02*
X10762920Y-14947246D01*
X10762920Y-14947246D02*
X10772444Y-14899627D01*
X10772444Y-14899627D02*
X10781968Y-14871055D01*
X10781968Y-14871055D02*
X10791491Y-14852008D01*
X10791491Y-14852008D02*
X10810539Y-14823436D01*
X10810539Y-14823436D02*
X10820063Y-14813912D01*
X10886730Y-14861531D02*
X10896253Y-14852008D01*
X10896253Y-14852008D02*
X10915301Y-14842484D01*
X10915301Y-14842484D02*
X10962920Y-14842484D01*
X10962920Y-14842484D02*
X10981968Y-14852008D01*
X10981968Y-14852008D02*
X10991491Y-14861531D01*
X10991491Y-14861531D02*
X11001015Y-14880579D01*
X11001015Y-14880579D02*
X11001015Y-14899627D01*
X11001015Y-14899627D02*
X10991491Y-14928198D01*
X10991491Y-14928198D02*
X10877206Y-15042484D01*
X10877206Y-15042484D02*
X11001015Y-15042484D01*
X11077206Y-14861531D02*
X11086730Y-14852008D01*
X11086730Y-14852008D02*
X11105777Y-14842484D01*
X11105777Y-14842484D02*
X11153396Y-14842484D01*
X11153396Y-14842484D02*
X11172444Y-14852008D01*
X11172444Y-14852008D02*
X11181968Y-14861531D01*
X11181968Y-14861531D02*
X11191491Y-14880579D01*
X11191491Y-14880579D02*
X11191491Y-14899627D01*
X11191491Y-14899627D02*
X11181968Y-14928198D01*
X11181968Y-14928198D02*
X11067682Y-15042484D01*
X11067682Y-15042484D02*
X11191491Y-15042484D01*
X11429587Y-15042484D02*
X11429587Y-14842484D01*
X11515301Y-15042484D02*
X11515301Y-14937722D01*
X11515301Y-14937722D02*
X11505777Y-14918674D01*
X11505777Y-14918674D02*
X11486730Y-14909150D01*
X11486730Y-14909150D02*
X11458158Y-14909150D01*
X11458158Y-14909150D02*
X11439110Y-14918674D01*
X11439110Y-14918674D02*
X11429587Y-14928198D01*
X11639110Y-15042484D02*
X11620063Y-15032960D01*
X11620063Y-15032960D02*
X11610539Y-15023436D01*
X11610539Y-15023436D02*
X11601015Y-15004388D01*
X11601015Y-15004388D02*
X11601015Y-14947246D01*
X11601015Y-14947246D02*
X11610539Y-14928198D01*
X11610539Y-14928198D02*
X11620063Y-14918674D01*
X11620063Y-14918674D02*
X11639110Y-14909150D01*
X11639110Y-14909150D02*
X11667682Y-14909150D01*
X11667682Y-14909150D02*
X11686730Y-14918674D01*
X11686730Y-14918674D02*
X11696253Y-14928198D01*
X11696253Y-14928198D02*
X11705777Y-14947246D01*
X11705777Y-14947246D02*
X11705777Y-15004388D01*
X11705777Y-15004388D02*
X11696253Y-15023436D01*
X11696253Y-15023436D02*
X11686730Y-15032960D01*
X11686730Y-15032960D02*
X11667682Y-15042484D01*
X11667682Y-15042484D02*
X11639110Y-15042484D01*
X11820063Y-15042484D02*
X11801015Y-15032960D01*
X11801015Y-15032960D02*
X11791491Y-15013912D01*
X11791491Y-15013912D02*
X11791491Y-14842484D01*
X11972444Y-15032960D02*
X11953396Y-15042484D01*
X11953396Y-15042484D02*
X11915301Y-15042484D01*
X11915301Y-15042484D02*
X11896253Y-15032960D01*
X11896253Y-15032960D02*
X11886730Y-15013912D01*
X11886730Y-15013912D02*
X11886730Y-14937722D01*
X11886730Y-14937722D02*
X11896253Y-14918674D01*
X11896253Y-14918674D02*
X11915301Y-14909150D01*
X11915301Y-14909150D02*
X11953396Y-14909150D01*
X11953396Y-14909150D02*
X11972444Y-14918674D01*
X11972444Y-14918674D02*
X11981968Y-14937722D01*
X11981968Y-14937722D02*
X11981968Y-14956769D01*
X11981968Y-14956769D02*
X11886730Y-14975817D01*
X12058158Y-15032960D02*
X12077206Y-15042484D01*
X12077206Y-15042484D02*
X12115301Y-15042484D01*
X12115301Y-15042484D02*
X12134349Y-15032960D01*
X12134349Y-15032960D02*
X12143872Y-15013912D01*
X12143872Y-15013912D02*
X12143872Y-15004388D01*
X12143872Y-15004388D02*
X12134349Y-14985341D01*
X12134349Y-14985341D02*
X12115301Y-14975817D01*
X12115301Y-14975817D02*
X12086730Y-14975817D01*
X12086730Y-14975817D02*
X12067682Y-14966293D01*
X12067682Y-14966293D02*
X12058158Y-14947246D01*
X12058158Y-14947246D02*
X12058158Y-14937722D01*
X12058158Y-14937722D02*
X12067682Y-14918674D01*
X12067682Y-14918674D02*
X12086730Y-14909150D01*
X12086730Y-14909150D02*
X12115301Y-14909150D01*
X12115301Y-14909150D02*
X12134349Y-14918674D01*
X12210539Y-15118674D02*
X12220063Y-15109150D01*
X12220063Y-15109150D02*
X12239111Y-15080579D01*
X12239111Y-15080579D02*
X12248634Y-15061531D01*
X12248634Y-15061531D02*
X12258158Y-15032960D01*
X12258158Y-15032960D02*
X12267682Y-14985341D01*
X12267682Y-14985341D02*
X12267682Y-14947246D01*
X12267682Y-14947246D02*
X12258158Y-14899627D01*
X12258158Y-14899627D02*
X12248634Y-14871055D01*
X12248634Y-14871055D02*
X12239111Y-14852008D01*
X12239111Y-14852008D02*
X12220063Y-14823436D01*
X12220063Y-14823436D02*
X12210539Y-14813912D01*
D16*
X7093000Y-15139000D02*
X7245000Y-15291000D01*
X7245000Y-15139000D02*
X7093000Y-15291000D01*
X7245000Y-15215000D02*
G75*
G03*
X7245000Y-15215000I-76000J0D01*
G01*
D11*
X7610539Y-15306484D02*
X7496253Y-15306484D01*
X7553396Y-15306484D02*
X7553396Y-15106484D01*
X7553396Y-15106484D02*
X7534348Y-15135055D01*
X7534348Y-15135055D02*
X7515301Y-15154103D01*
X7515301Y-15154103D02*
X7496253Y-15163627D01*
X7696253Y-15287436D02*
X7705777Y-15296960D01*
X7705777Y-15296960D02*
X7696253Y-15306484D01*
X7696253Y-15306484D02*
X7686729Y-15296960D01*
X7686729Y-15296960D02*
X7696253Y-15287436D01*
X7696253Y-15287436D02*
X7696253Y-15306484D01*
X7886729Y-15106484D02*
X7791491Y-15106484D01*
X7791491Y-15106484D02*
X7781967Y-15201722D01*
X7781967Y-15201722D02*
X7791491Y-15192198D01*
X7791491Y-15192198D02*
X7810539Y-15182674D01*
X7810539Y-15182674D02*
X7858158Y-15182674D01*
X7858158Y-15182674D02*
X7877205Y-15192198D01*
X7877205Y-15192198D02*
X7886729Y-15201722D01*
X7886729Y-15201722D02*
X7896253Y-15220769D01*
X7896253Y-15220769D02*
X7896253Y-15268388D01*
X7896253Y-15268388D02*
X7886729Y-15287436D01*
X7886729Y-15287436D02*
X7877205Y-15296960D01*
X7877205Y-15296960D02*
X7858158Y-15306484D01*
X7858158Y-15306484D02*
X7810539Y-15306484D01*
X7810539Y-15306484D02*
X7791491Y-15296960D01*
X7791491Y-15296960D02*
X7781967Y-15287436D01*
X7972443Y-15125531D02*
X7981967Y-15116008D01*
X7981967Y-15116008D02*
X8001015Y-15106484D01*
X8001015Y-15106484D02*
X8048634Y-15106484D01*
X8048634Y-15106484D02*
X8067682Y-15116008D01*
X8067682Y-15116008D02*
X8077205Y-15125531D01*
X8077205Y-15125531D02*
X8086729Y-15144579D01*
X8086729Y-15144579D02*
X8086729Y-15163627D01*
X8086729Y-15163627D02*
X8077205Y-15192198D01*
X8077205Y-15192198D02*
X7962920Y-15306484D01*
X7962920Y-15306484D02*
X8086729Y-15306484D01*
X8210539Y-15106484D02*
X8229586Y-15106484D01*
X8229586Y-15106484D02*
X8248634Y-15116008D01*
X8248634Y-15116008D02*
X8258158Y-15125531D01*
X8258158Y-15125531D02*
X8267682Y-15144579D01*
X8267682Y-15144579D02*
X8277205Y-15182674D01*
X8277205Y-15182674D02*
X8277205Y-15230293D01*
X8277205Y-15230293D02*
X8267682Y-15268388D01*
X8267682Y-15268388D02*
X8258158Y-15287436D01*
X8258158Y-15287436D02*
X8248634Y-15296960D01*
X8248634Y-15296960D02*
X8229586Y-15306484D01*
X8229586Y-15306484D02*
X8210539Y-15306484D01*
X8210539Y-15306484D02*
X8191491Y-15296960D01*
X8191491Y-15296960D02*
X8181967Y-15287436D01*
X8181967Y-15287436D02*
X8172443Y-15268388D01*
X8172443Y-15268388D02*
X8162920Y-15230293D01*
X8162920Y-15230293D02*
X8162920Y-15182674D01*
X8162920Y-15182674D02*
X8172443Y-15144579D01*
X8172443Y-15144579D02*
X8181967Y-15125531D01*
X8181967Y-15125531D02*
X8191491Y-15116008D01*
X8191491Y-15116008D02*
X8210539Y-15106484D01*
X8362920Y-15306484D02*
X8362920Y-15173150D01*
X8362920Y-15192198D02*
X8372443Y-15182674D01*
X8372443Y-15182674D02*
X8391491Y-15173150D01*
X8391491Y-15173150D02*
X8420063Y-15173150D01*
X8420063Y-15173150D02*
X8439110Y-15182674D01*
X8439110Y-15182674D02*
X8448634Y-15201722D01*
X8448634Y-15201722D02*
X8448634Y-15306484D01*
X8448634Y-15201722D02*
X8458158Y-15182674D01*
X8458158Y-15182674D02*
X8477205Y-15173150D01*
X8477205Y-15173150D02*
X8505777Y-15173150D01*
X8505777Y-15173150D02*
X8524825Y-15182674D01*
X8524825Y-15182674D02*
X8534348Y-15201722D01*
X8534348Y-15201722D02*
X8534348Y-15306484D01*
X8629586Y-15306484D02*
X8629586Y-15173150D01*
X8629586Y-15192198D02*
X8639110Y-15182674D01*
X8639110Y-15182674D02*
X8658158Y-15173150D01*
X8658158Y-15173150D02*
X8686729Y-15173150D01*
X8686729Y-15173150D02*
X8705777Y-15182674D01*
X8705777Y-15182674D02*
X8715301Y-15201722D01*
X8715301Y-15201722D02*
X8715301Y-15306484D01*
X8715301Y-15201722D02*
X8724825Y-15182674D01*
X8724825Y-15182674D02*
X8743872Y-15173150D01*
X8743872Y-15173150D02*
X8772444Y-15173150D01*
X8772444Y-15173150D02*
X8791491Y-15182674D01*
X8791491Y-15182674D02*
X8801015Y-15201722D01*
X8801015Y-15201722D02*
X8801015Y-15306484D01*
X9191491Y-15096960D02*
X9020063Y-15354103D01*
X9448634Y-15106484D02*
X9467682Y-15106484D01*
X9467682Y-15106484D02*
X9486729Y-15116008D01*
X9486729Y-15116008D02*
X9496253Y-15125531D01*
X9496253Y-15125531D02*
X9505777Y-15144579D01*
X9505777Y-15144579D02*
X9515301Y-15182674D01*
X9515301Y-15182674D02*
X9515301Y-15230293D01*
X9515301Y-15230293D02*
X9505777Y-15268388D01*
X9505777Y-15268388D02*
X9496253Y-15287436D01*
X9496253Y-15287436D02*
X9486729Y-15296960D01*
X9486729Y-15296960D02*
X9467682Y-15306484D01*
X9467682Y-15306484D02*
X9448634Y-15306484D01*
X9448634Y-15306484D02*
X9429587Y-15296960D01*
X9429587Y-15296960D02*
X9420063Y-15287436D01*
X9420063Y-15287436D02*
X9410539Y-15268388D01*
X9410539Y-15268388D02*
X9401015Y-15230293D01*
X9401015Y-15230293D02*
X9401015Y-15182674D01*
X9401015Y-15182674D02*
X9410539Y-15144579D01*
X9410539Y-15144579D02*
X9420063Y-15125531D01*
X9420063Y-15125531D02*
X9429587Y-15116008D01*
X9429587Y-15116008D02*
X9448634Y-15106484D01*
X9601015Y-15287436D02*
X9610539Y-15296960D01*
X9610539Y-15296960D02*
X9601015Y-15306484D01*
X9601015Y-15306484D02*
X9591491Y-15296960D01*
X9591491Y-15296960D02*
X9601015Y-15287436D01*
X9601015Y-15287436D02*
X9601015Y-15306484D01*
X9734348Y-15106484D02*
X9753396Y-15106484D01*
X9753396Y-15106484D02*
X9772444Y-15116008D01*
X9772444Y-15116008D02*
X9781968Y-15125531D01*
X9781968Y-15125531D02*
X9791491Y-15144579D01*
X9791491Y-15144579D02*
X9801015Y-15182674D01*
X9801015Y-15182674D02*
X9801015Y-15230293D01*
X9801015Y-15230293D02*
X9791491Y-15268388D01*
X9791491Y-15268388D02*
X9781968Y-15287436D01*
X9781968Y-15287436D02*
X9772444Y-15296960D01*
X9772444Y-15296960D02*
X9753396Y-15306484D01*
X9753396Y-15306484D02*
X9734348Y-15306484D01*
X9734348Y-15306484D02*
X9715301Y-15296960D01*
X9715301Y-15296960D02*
X9705777Y-15287436D01*
X9705777Y-15287436D02*
X9696253Y-15268388D01*
X9696253Y-15268388D02*
X9686729Y-15230293D01*
X9686729Y-15230293D02*
X9686729Y-15182674D01*
X9686729Y-15182674D02*
X9696253Y-15144579D01*
X9696253Y-15144579D02*
X9705777Y-15125531D01*
X9705777Y-15125531D02*
X9715301Y-15116008D01*
X9715301Y-15116008D02*
X9734348Y-15106484D01*
X9981968Y-15106484D02*
X9886729Y-15106484D01*
X9886729Y-15106484D02*
X9877206Y-15201722D01*
X9877206Y-15201722D02*
X9886729Y-15192198D01*
X9886729Y-15192198D02*
X9905777Y-15182674D01*
X9905777Y-15182674D02*
X9953396Y-15182674D01*
X9953396Y-15182674D02*
X9972444Y-15192198D01*
X9972444Y-15192198D02*
X9981968Y-15201722D01*
X9981968Y-15201722D02*
X9991491Y-15220769D01*
X9991491Y-15220769D02*
X9991491Y-15268388D01*
X9991491Y-15268388D02*
X9981968Y-15287436D01*
X9981968Y-15287436D02*
X9972444Y-15296960D01*
X9972444Y-15296960D02*
X9953396Y-15306484D01*
X9953396Y-15306484D02*
X9905777Y-15306484D01*
X9905777Y-15306484D02*
X9886729Y-15296960D01*
X9886729Y-15296960D02*
X9877206Y-15287436D01*
X10086729Y-15306484D02*
X10124825Y-15306484D01*
X10124825Y-15306484D02*
X10143872Y-15296960D01*
X10143872Y-15296960D02*
X10153396Y-15287436D01*
X10153396Y-15287436D02*
X10172444Y-15258865D01*
X10172444Y-15258865D02*
X10181968Y-15220769D01*
X10181968Y-15220769D02*
X10181968Y-15144579D01*
X10181968Y-15144579D02*
X10172444Y-15125531D01*
X10172444Y-15125531D02*
X10162920Y-15116008D01*
X10162920Y-15116008D02*
X10143872Y-15106484D01*
X10143872Y-15106484D02*
X10105777Y-15106484D01*
X10105777Y-15106484D02*
X10086729Y-15116008D01*
X10086729Y-15116008D02*
X10077206Y-15125531D01*
X10077206Y-15125531D02*
X10067682Y-15144579D01*
X10067682Y-15144579D02*
X10067682Y-15192198D01*
X10067682Y-15192198D02*
X10077206Y-15211246D01*
X10077206Y-15211246D02*
X10086729Y-15220769D01*
X10086729Y-15220769D02*
X10105777Y-15230293D01*
X10105777Y-15230293D02*
X10143872Y-15230293D01*
X10143872Y-15230293D02*
X10162920Y-15220769D01*
X10162920Y-15220769D02*
X10172444Y-15211246D01*
X10172444Y-15211246D02*
X10181968Y-15192198D01*
X10296253Y-15192198D02*
X10277206Y-15182674D01*
X10277206Y-15182674D02*
X10267682Y-15173150D01*
X10267682Y-15173150D02*
X10258158Y-15154103D01*
X10258158Y-15154103D02*
X10258158Y-15144579D01*
X10258158Y-15144579D02*
X10267682Y-15125531D01*
X10267682Y-15125531D02*
X10277206Y-15116008D01*
X10277206Y-15116008D02*
X10296253Y-15106484D01*
X10296253Y-15106484D02*
X10334349Y-15106484D01*
X10334349Y-15106484D02*
X10353396Y-15116008D01*
X10353396Y-15116008D02*
X10362920Y-15125531D01*
X10362920Y-15125531D02*
X10372444Y-15144579D01*
X10372444Y-15144579D02*
X10372444Y-15154103D01*
X10372444Y-15154103D02*
X10362920Y-15173150D01*
X10362920Y-15173150D02*
X10353396Y-15182674D01*
X10353396Y-15182674D02*
X10334349Y-15192198D01*
X10334349Y-15192198D02*
X10296253Y-15192198D01*
X10296253Y-15192198D02*
X10277206Y-15201722D01*
X10277206Y-15201722D02*
X10267682Y-15211246D01*
X10267682Y-15211246D02*
X10258158Y-15230293D01*
X10258158Y-15230293D02*
X10258158Y-15268388D01*
X10258158Y-15268388D02*
X10267682Y-15287436D01*
X10267682Y-15287436D02*
X10277206Y-15296960D01*
X10277206Y-15296960D02*
X10296253Y-15306484D01*
X10296253Y-15306484D02*
X10334349Y-15306484D01*
X10334349Y-15306484D02*
X10353396Y-15296960D01*
X10353396Y-15296960D02*
X10362920Y-15287436D01*
X10362920Y-15287436D02*
X10372444Y-15268388D01*
X10372444Y-15268388D02*
X10372444Y-15230293D01*
X10372444Y-15230293D02*
X10362920Y-15211246D01*
X10362920Y-15211246D02*
X10353396Y-15201722D01*
X10353396Y-15201722D02*
X10334349Y-15192198D01*
X10448634Y-15106484D02*
X10448634Y-15144579D01*
X10524825Y-15106484D02*
X10524825Y-15144579D01*
X10820063Y-15382674D02*
X10810539Y-15373150D01*
X10810539Y-15373150D02*
X10791491Y-15344579D01*
X10791491Y-15344579D02*
X10781968Y-15325531D01*
X10781968Y-15325531D02*
X10772444Y-15296960D01*
X10772444Y-15296960D02*
X10762920Y-15249341D01*
X10762920Y-15249341D02*
X10762920Y-15211246D01*
X10762920Y-15211246D02*
X10772444Y-15163627D01*
X10772444Y-15163627D02*
X10781968Y-15135055D01*
X10781968Y-15135055D02*
X10791491Y-15116008D01*
X10791491Y-15116008D02*
X10810539Y-15087436D01*
X10810539Y-15087436D02*
X10820063Y-15077912D01*
X10886730Y-15125531D02*
X10896253Y-15116008D01*
X10896253Y-15116008D02*
X10915301Y-15106484D01*
X10915301Y-15106484D02*
X10962920Y-15106484D01*
X10962920Y-15106484D02*
X10981968Y-15116008D01*
X10981968Y-15116008D02*
X10991491Y-15125531D01*
X10991491Y-15125531D02*
X11001015Y-15144579D01*
X11001015Y-15144579D02*
X11001015Y-15163627D01*
X11001015Y-15163627D02*
X10991491Y-15192198D01*
X10991491Y-15192198D02*
X10877206Y-15306484D01*
X10877206Y-15306484D02*
X11001015Y-15306484D01*
X11239110Y-15306484D02*
X11239110Y-15106484D01*
X11324825Y-15306484D02*
X11324825Y-15201722D01*
X11324825Y-15201722D02*
X11315301Y-15182674D01*
X11315301Y-15182674D02*
X11296253Y-15173150D01*
X11296253Y-15173150D02*
X11267682Y-15173150D01*
X11267682Y-15173150D02*
X11248634Y-15182674D01*
X11248634Y-15182674D02*
X11239110Y-15192198D01*
X11448634Y-15306484D02*
X11429587Y-15296960D01*
X11429587Y-15296960D02*
X11420063Y-15287436D01*
X11420063Y-15287436D02*
X11410539Y-15268388D01*
X11410539Y-15268388D02*
X11410539Y-15211246D01*
X11410539Y-15211246D02*
X11420063Y-15192198D01*
X11420063Y-15192198D02*
X11429587Y-15182674D01*
X11429587Y-15182674D02*
X11448634Y-15173150D01*
X11448634Y-15173150D02*
X11477206Y-15173150D01*
X11477206Y-15173150D02*
X11496253Y-15182674D01*
X11496253Y-15182674D02*
X11505777Y-15192198D01*
X11505777Y-15192198D02*
X11515301Y-15211246D01*
X11515301Y-15211246D02*
X11515301Y-15268388D01*
X11515301Y-15268388D02*
X11505777Y-15287436D01*
X11505777Y-15287436D02*
X11496253Y-15296960D01*
X11496253Y-15296960D02*
X11477206Y-15306484D01*
X11477206Y-15306484D02*
X11448634Y-15306484D01*
X11629587Y-15306484D02*
X11610539Y-15296960D01*
X11610539Y-15296960D02*
X11601015Y-15277912D01*
X11601015Y-15277912D02*
X11601015Y-15106484D01*
X11781968Y-15296960D02*
X11762920Y-15306484D01*
X11762920Y-15306484D02*
X11724825Y-15306484D01*
X11724825Y-15306484D02*
X11705777Y-15296960D01*
X11705777Y-15296960D02*
X11696253Y-15277912D01*
X11696253Y-15277912D02*
X11696253Y-15201722D01*
X11696253Y-15201722D02*
X11705777Y-15182674D01*
X11705777Y-15182674D02*
X11724825Y-15173150D01*
X11724825Y-15173150D02*
X11762920Y-15173150D01*
X11762920Y-15173150D02*
X11781968Y-15182674D01*
X11781968Y-15182674D02*
X11791491Y-15201722D01*
X11791491Y-15201722D02*
X11791491Y-15220769D01*
X11791491Y-15220769D02*
X11696253Y-15239817D01*
X11867682Y-15296960D02*
X11886730Y-15306484D01*
X11886730Y-15306484D02*
X11924825Y-15306484D01*
X11924825Y-15306484D02*
X11943872Y-15296960D01*
X11943872Y-15296960D02*
X11953396Y-15277912D01*
X11953396Y-15277912D02*
X11953396Y-15268388D01*
X11953396Y-15268388D02*
X11943872Y-15249341D01*
X11943872Y-15249341D02*
X11924825Y-15239817D01*
X11924825Y-15239817D02*
X11896253Y-15239817D01*
X11896253Y-15239817D02*
X11877206Y-15230293D01*
X11877206Y-15230293D02*
X11867682Y-15211246D01*
X11867682Y-15211246D02*
X11867682Y-15201722D01*
X11867682Y-15201722D02*
X11877206Y-15182674D01*
X11877206Y-15182674D02*
X11896253Y-15173150D01*
X11896253Y-15173150D02*
X11924825Y-15173150D01*
X11924825Y-15173150D02*
X11943872Y-15182674D01*
X12020063Y-15382674D02*
X12029587Y-15373150D01*
X12029587Y-15373150D02*
X12048634Y-15344579D01*
X12048634Y-15344579D02*
X12058158Y-15325531D01*
X12058158Y-15325531D02*
X12067682Y-15296960D01*
X12067682Y-15296960D02*
X12077206Y-15249341D01*
X12077206Y-15249341D02*
X12077206Y-15211246D01*
X12077206Y-15211246D02*
X12067682Y-15163627D01*
X12067682Y-15163627D02*
X12058158Y-15135055D01*
X12058158Y-15135055D02*
X12048634Y-15116008D01*
X12048634Y-15116008D02*
X12029587Y-15087436D01*
X12029587Y-15087436D02*
X12020063Y-15077912D01*
M02*
