M48
; DRILL file {KiCad 7.0.7} date Sun 24 Sep 2023 13:57:42
; FORMAT={-:-/ absolute / metric / decimal}
; #@! TF.CreationDate,2023-09-24T13:57:42+10:00
; #@! TF.GenerationSoftware,Kicad,Pcbnew,7.0.7
; #@! TF.FileFunction,Plated,1,4,PTH
FMAT,2
METRIC
; #@! TA.AperFunction,Plated,PTH,ViaDrill
T1C0.200
; #@! TA.AperFunction,Plated,PTH,ViaDrill
T2C0.400
; #@! TA.AperFunction,Plated,PTH,ComponentDrill
T3C0.500
; #@! TA.AperFunction,Plated,PTH,ComponentDrill
T4C0.850
; #@! TA.AperFunction,Plated,PTH,ComponentDrill
T5C1.000
; #@! TA.AperFunction,Plated,PTH,ComponentDrill
T6C1.520
%
G90
G05
T1
X77.75Y-94.5
X77.75Y-99.25
X77.75Y-102.25
X77.75Y-110.0
X77.75Y-114.75
X77.75Y-117.75
X77.75Y-125.5
X78.0Y-71.25
X78.0Y-87.0
X78.5Y-75.75
X78.5Y-80.25
X78.75Y-83.25
X79.0Y-130.0
X79.25Y-91.5
X79.25Y-100.75
X79.25Y-107.0
X79.25Y-116.25
X79.25Y-122.5
X79.5Y-85.5
X80.0Y-74.25
X80.0Y-78.75
X80.5Y-130.0
X80.75Y-90.0
X80.75Y-94.5
X80.75Y-99.25
X80.75Y-105.5
X80.75Y-110.0
X80.75Y-114.75
X80.75Y-121.0
X80.75Y-125.5
X81.5Y-69.75
X81.5Y-75.75
X81.75Y-83.25
X82.0Y-131.5
X82.25Y-91.5
X82.25Y-100.75
X82.25Y-107.0
X82.25Y-116.25
X82.25Y-122.5
X82.5Y-85.5
X83.0Y-77.25
X83.0Y-78.75
X83.75Y-93.0
X83.75Y-94.5
X83.75Y-108.5
X83.75Y-110.0
X83.75Y-124.0
X83.75Y-125.5
X84.5Y-69.75
X86.0Y-78.75
X86.5Y-94.5
X86.5Y-110.0
X86.5Y-125.5
X87.25Y-98.5
X87.5Y-69.75
X87.5Y-73.0
X87.5Y-78.75
X87.75Y-104.0
X88.0Y-116.5
X88.5Y-85.25
X88.5Y-86.75
X88.75Y-100.0
X88.75Y-102.0
X89.0Y-71.25
X89.5Y-115.0
X89.5Y-118.0
X90.0Y-83.75
X90.0Y-88.25
X90.25Y-98.5
X90.25Y-103.5
X90.25Y-130.75
X90.5Y-72.75
X91.0Y-119.25
X91.5Y-96.5
X91.75Y-100.0
X91.75Y-102.0
X91.75Y-130.75
X92.25Y-76.0
X92.5Y-115.0
X92.5Y-119.25
X93.0Y-73.5
X93.0Y-83.75
X93.0Y-88.25
X93.25Y-92.5
X93.25Y-98.5
X93.25Y-123.0
X93.25Y-130.75
X93.5Y-104.0
X93.5Y-107.0
X94.0Y-117.75
X94.5Y-75.0
X94.5Y-79.75
X94.75Y-91.25
X94.75Y-95.75
X94.75Y-121.5
X94.75Y-124.5
X94.75Y-129.25
X95.5Y-112.75
X95.5Y-116.25
X96.0Y-76.5
X96.0Y-85.25
X96.0Y-88.25
X96.25Y-91.25
X96.25Y-94.25
X96.25Y-120.0
X96.25Y-123.0
X96.25Y-127.75
X97.5Y-78.0
X97.5Y-82.75
X97.5Y-86.75
X97.5Y-88.25
X97.75Y-91.25
X97.75Y-92.75
X97.75Y-118.5
X97.75Y-121.5
X97.75Y-126.25
X99.0Y-88.25
X99.25Y-91.25
X99.25Y-124.75
X100.5Y-81.0
X100.75Y-108.25
X100.75Y-109.75
X100.75Y-111.25
X100.75Y-112.75
X100.75Y-114.25
X100.75Y-115.75
X100.75Y-117.25
X100.75Y-118.75
X100.75Y-120.25
X100.75Y-121.75
X100.75Y-123.25
X102.25Y-106.75
X103.75Y-108.25
X105.25Y-108.25
X106.75Y-106.75
X116.0Y-107.0
X117.75Y-103.75
X120.5Y-106.5
X120.75Y-102.5
X121.0Y-90.25
X121.75Y-88.25
X122.25Y-94.675
X122.25Y-104.0
X122.25Y-108.5
X122.75Y-94.0
X122.75Y-101.75
X123.25Y-93.5
X123.75Y-93.0
X124.0Y-90.5
X124.25Y-92.5
X124.25Y-103.25
X124.75Y-88.25
X124.75Y-92.0
X125.25Y-91.5
X125.5Y-104.25
X125.75Y-91.0
X126.5Y-93.0
X126.5Y-110.5
X127.0Y-94.0
X127.5Y-94.5
X127.75Y-91.0
X127.75Y-107.75
X128.0Y-95.0
X128.0Y-99.5
X128.5Y-95.5
X128.75Y-106.5
X129.0Y-96.0
X129.0Y-110.5
X129.25Y-99.5
X129.5Y-96.5
X130.0Y-97.0
X130.25Y-101.0
X130.5Y-105.75
X130.75Y-88.5
X130.75Y-91.5
X131.25Y-97.25
X131.75Y-99.5
X132.25Y-87.0
X133.25Y-89.5
X133.25Y-91.5
X133.25Y-97.25
X133.5Y-101.0
X133.75Y-85.5
X133.75Y-105.75
X134.5Y-107.25
X134.75Y-88.0
X135.25Y-84.0
X135.5Y-99.5
X136.0Y-90.0
X136.75Y-105.75
X136.75Y-108.0
X137.5Y-88.5
X137.5Y-101.0
X137.75Y-91.5
X138.25Y-82.5
X138.25Y-107.25
X139.0Y-101.0
X139.75Y-82.5
X139.75Y-105.75
X140.5Y-101.0
X141.25Y-107.25
X142.5Y-91.5
X142.5Y-97.75
X142.75Y-105.75
X143.75Y-104.5
X144.25Y-104.0
X144.25Y-107.25
X144.75Y-103.5
X145.0Y-91.5
X145.0Y-97.75
X145.25Y-78.25
X145.25Y-103.0
X145.25Y-104.25
X145.499Y-77.25
X145.5Y-76.25
X145.75Y-75.25
X145.75Y-92.5
X145.75Y-102.5
X145.75Y-106.0
X146.0Y-79.5
X146.25Y-102.0
X146.25Y-104.25
X146.5Y-82.25
X146.75Y-75.5
X146.75Y-80.25
X146.75Y-101.5
X146.75Y-102.75
X146.862Y-78.138
X147.0Y-98.5
X147.25Y-104.5
X147.5Y-91.5
X148.0Y-75.25
X149.25Y-75.5
X149.25Y-98.5
X150.0Y-91.5
X150.0Y-97.75
X150.0Y-98.75
X150.25Y-92.75
X150.25Y-101.5
X150.25Y-102.5
X150.25Y-103.5
X150.25Y-104.5
X150.5Y-76.25
X150.5Y-79.0
X150.5Y-80.0
X150.5Y-81.0
X150.75Y-93.25
X151.25Y-93.75
X151.75Y-77.25
X151.75Y-78.25
X151.75Y-94.25
X152.25Y-94.75
X152.25Y-105.0
X152.5Y-91.5
X152.5Y-97.75
X152.75Y-95.25
X153.25Y-95.75
X153.75Y-96.25
T2
X85.0Y-75.25
X85.0Y-84.5
X85.0Y-91.0
X85.0Y-100.0
X85.0Y-106.25
X85.0Y-115.5
X85.0Y-121.75
X85.0Y-131.0
X87.75Y-75.75
X87.75Y-91.25
X87.75Y-106.75
X88.0Y-122.25
X93.25Y-109.25
X93.25Y-111.25
X93.25Y-124.75
X93.25Y-126.75
X93.5Y-78.5
X93.5Y-80.0
X93.5Y-94.0
X93.5Y-95.5
X100.5Y-77.25
X102.0Y-54.5
X102.0Y-55.75
X102.0Y-57.0
X102.0Y-58.25
X102.0Y-59.5
X102.0Y-80.0
X103.25Y-54.5
X103.25Y-55.75
X103.25Y-57.0
X103.25Y-58.25
X103.25Y-59.5
X104.5Y-74.5
X105.0Y-53.5
X105.5Y-55.5
X105.5Y-58.0
X105.5Y-60.25
X105.738Y-84.762
X105.738Y-87.762
X105.738Y-90.762
X105.75Y-93.75
X105.75Y-96.5
X105.75Y-99.5
X105.75Y-102.5
X105.75Y-105.5
X106.25Y-53.5
X106.275Y-74.5
X106.5Y-56.75
X106.5Y-59.25
X107.5Y-53.5
X107.5Y-55.5
X107.5Y-58.0
X107.5Y-60.25
X108.25Y-115.0
X108.5Y-56.75
X108.5Y-59.25
X108.75Y-53.5
X109.5Y-55.5
X109.5Y-58.0
X109.5Y-60.25
X109.5Y-104.0
X109.75Y-115.0
X110.0Y-53.5
X110.5Y-88.0
X111.0Y-92.0
X111.25Y-115.0
X111.493Y-87.975
X111.5Y-104.0
X111.75Y-54.5
X111.75Y-55.75
X111.75Y-57.0
X111.75Y-58.25
X111.75Y-59.5
X112.0Y-91.5
X112.0Y-92.5
X112.25Y-82.5
X112.725Y-90.7
X112.75Y-115.0
X113.0Y-54.5
X113.0Y-55.75
X113.0Y-57.0
X113.0Y-58.25
X113.0Y-59.5
X113.506Y-87.975
X114.25Y-82.5
X114.25Y-115.0
X115.0Y-88.0
X115.0Y-92.5
X115.25Y-91.5
X115.75Y-111.0
X115.75Y-115.0
X116.0Y-92.25
X116.25Y-82.5
X116.474Y-105.0
X116.5Y-87.975
X117.0Y-92.25
X117.25Y-111.0
X117.5Y-63.75
X117.5Y-65.0
X117.5Y-66.25
X117.5Y-67.5
X117.75Y-91.5
X118.0Y-92.5
X118.25Y-82.5
X118.75Y-111.0
X119.25Y-70.475
X119.25Y-75.75
X119.447Y-94.245
X119.447Y-95.745
X119.988Y-108.512
X122.75Y-55.0
X122.75Y-56.25
X122.75Y-57.5
X122.75Y-58.75
X123.75Y-84.75
X125.0Y-53.5
X125.75Y-72.75
X126.25Y-53.5
X127.0Y-71.0
X127.5Y-53.5
X128.5Y-67.5
X128.75Y-53.5
X128.75Y-71.0
X129.75Y-67.5
X130.0Y-53.5
X130.0Y-79.0
X131.0Y-67.5
X132.0Y-55.0
X132.0Y-56.25
X132.0Y-57.5
X132.0Y-58.75
X132.25Y-67.5
X133.5Y-67.5
X135.25Y-97.0
X136.75Y-85.25
X136.75Y-87.25
X136.75Y-98.25
X136.75Y-100.25
X142.0Y-81.25
X142.25Y-79.5
X142.25Y-83.0
X145.75Y-83.0
X146.0Y-81.25
X149.017Y-82.017
X149.5Y-106.75
X150.25Y-82.0
X151.75Y-80.5
X152.5Y-107.1
X152.75Y-83.0
X153.25Y-103.0
X154.25Y-81.25
X154.75Y-103.0
X155.75Y-104.25
X157.0Y-85.0
X157.0Y-88.5
X159.5Y-90.75
X160.0Y-85.75
X160.0Y-87.75
X161.0Y-108.5
X161.0Y-110.0
X162.25Y-104.25
X171.75Y-61.5
X171.75Y-68.5
X171.75Y-71.0
X172.75Y-65.0
T3
X74.8Y-70.875
X74.8Y-72.125
X74.8Y-73.375
X74.8Y-74.625
X74.8Y-78.625
X74.8Y-79.875
X74.8Y-81.125
X74.8Y-82.375
X74.8Y-86.375
X74.8Y-87.625
X74.8Y-88.875
X74.8Y-90.125
X74.8Y-94.125
X74.8Y-95.375
X74.8Y-96.625
X74.8Y-97.875
X74.8Y-101.875
X74.8Y-103.125
X74.8Y-104.375
X74.8Y-105.625
X74.8Y-109.625
X74.8Y-110.875
X74.8Y-112.125
X74.8Y-113.375
X74.8Y-117.375
X74.8Y-118.625
X74.8Y-119.875
X74.8Y-121.125
X74.8Y-125.125
X74.8Y-126.375
X74.8Y-127.625
X74.8Y-128.875
T4
X87.0Y-64.75
X89.5Y-64.75
X92.0Y-64.75
X94.5Y-64.75
T5
X125.17Y-109.25
X125.17Y-111.79
X127.71Y-109.25
X127.71Y-111.79
X130.25Y-109.25
X130.25Y-111.79
X132.79Y-109.25
X132.79Y-111.79
X135.33Y-109.25
X135.33Y-111.79
X137.87Y-109.25
X137.87Y-111.79
X165.0Y-62.5
X165.0Y-65.04
X165.0Y-67.58
X165.0Y-70.12
X165.0Y-72.66
X167.54Y-62.5
X167.54Y-65.04
X167.54Y-67.58
X167.54Y-70.12
X167.54Y-72.66
T6
X75.71Y-64.1
X80.79Y-64.1
T3
X148.2Y-112.1G85X148.2Y-111.4
G05
X154.8Y-112.1G85X154.8Y-111.4
G05
T0
M30
