%TF.GenerationSoftware,KiCad,Pcbnew,7.0.7*%
%TF.CreationDate,2023-09-24T13:57:46+10:00*%
%TF.ProjectId,fyp_nubots_ssl,6679705f-6e75-4626-9f74-735f73736c2e,rev?*%
%TF.SameCoordinates,Original*%
%TF.FileFunction,Drillmap*%
%TF.FilePolarity,Positive*%
%FSLAX45Y45*%
G04 Gerber Fmt 4.5, Leading zero omitted, Abs format (unit mm)*
G04 Created by KiCad (PCBNEW 7.0.7) date 2023-09-24 13:57:46*
%MOMM*%
%LPD*%
G01*
G04 APERTURE LIST*
%ADD10C,0.100000*%
%ADD11C,0.200000*%
%ADD12C,0.320000*%
G04 APERTURE END LIST*
D10*
X17500000Y-11500000D02*
X14250000Y-11500000D01*
X14250000Y-13250000D01*
X7250000Y-13250000D01*
X7250000Y-5250000D01*
X17500000Y-5250000D01*
X17500000Y-11500000D01*
D11*
D12*
X7490000Y-5490000D02*
X7810000Y-5810000D01*
X7810000Y-5490000D02*
X7490000Y-5810000D01*
X10340000Y-12690000D02*
X10660000Y-13010000D01*
X10660000Y-12690000D02*
X10340000Y-13010000D01*
X16940000Y-5490000D02*
X17260000Y-5810000D01*
X17260000Y-5490000D02*
X16940000Y-5810000D01*
X16940000Y-10940000D02*
X17260000Y-11260000D01*
X17260000Y-10940000D02*
X16940000Y-11260000D01*
D11*
X7505777Y-13566484D02*
X7505777Y-13366484D01*
X7505777Y-13366484D02*
X7553396Y-13366484D01*
X7553396Y-13366484D02*
X7581967Y-13376008D01*
X7581967Y-13376008D02*
X7601015Y-13395055D01*
X7601015Y-13395055D02*
X7610539Y-13414103D01*
X7610539Y-13414103D02*
X7620062Y-13452198D01*
X7620062Y-13452198D02*
X7620062Y-13480769D01*
X7620062Y-13480769D02*
X7610539Y-13518865D01*
X7610539Y-13518865D02*
X7601015Y-13537912D01*
X7601015Y-13537912D02*
X7581967Y-13556960D01*
X7581967Y-13556960D02*
X7553396Y-13566484D01*
X7553396Y-13566484D02*
X7505777Y-13566484D01*
X7705777Y-13566484D02*
X7705777Y-13433150D01*
X7705777Y-13471246D02*
X7715301Y-13452198D01*
X7715301Y-13452198D02*
X7724824Y-13442674D01*
X7724824Y-13442674D02*
X7743872Y-13433150D01*
X7743872Y-13433150D02*
X7762920Y-13433150D01*
X7829586Y-13566484D02*
X7829586Y-13433150D01*
X7829586Y-13366484D02*
X7820062Y-13376008D01*
X7820062Y-13376008D02*
X7829586Y-13385531D01*
X7829586Y-13385531D02*
X7839110Y-13376008D01*
X7839110Y-13376008D02*
X7829586Y-13366484D01*
X7829586Y-13366484D02*
X7829586Y-13385531D01*
X7953396Y-13566484D02*
X7934348Y-13556960D01*
X7934348Y-13556960D02*
X7924824Y-13537912D01*
X7924824Y-13537912D02*
X7924824Y-13366484D01*
X8058158Y-13566484D02*
X8039110Y-13556960D01*
X8039110Y-13556960D02*
X8029586Y-13537912D01*
X8029586Y-13537912D02*
X8029586Y-13366484D01*
X8286729Y-13566484D02*
X8286729Y-13366484D01*
X8286729Y-13366484D02*
X8353396Y-13509341D01*
X8353396Y-13509341D02*
X8420063Y-13366484D01*
X8420063Y-13366484D02*
X8420063Y-13566484D01*
X8601015Y-13566484D02*
X8601015Y-13461722D01*
X8601015Y-13461722D02*
X8591491Y-13442674D01*
X8591491Y-13442674D02*
X8572444Y-13433150D01*
X8572444Y-13433150D02*
X8534348Y-13433150D01*
X8534348Y-13433150D02*
X8515301Y-13442674D01*
X8601015Y-13556960D02*
X8581967Y-13566484D01*
X8581967Y-13566484D02*
X8534348Y-13566484D01*
X8534348Y-13566484D02*
X8515301Y-13556960D01*
X8515301Y-13556960D02*
X8505777Y-13537912D01*
X8505777Y-13537912D02*
X8505777Y-13518865D01*
X8505777Y-13518865D02*
X8515301Y-13499817D01*
X8515301Y-13499817D02*
X8534348Y-13490293D01*
X8534348Y-13490293D02*
X8581967Y-13490293D01*
X8581967Y-13490293D02*
X8601015Y-13480769D01*
X8696253Y-13433150D02*
X8696253Y-13633150D01*
X8696253Y-13442674D02*
X8715301Y-13433150D01*
X8715301Y-13433150D02*
X8753396Y-13433150D01*
X8753396Y-13433150D02*
X8772444Y-13442674D01*
X8772444Y-13442674D02*
X8781967Y-13452198D01*
X8781967Y-13452198D02*
X8791491Y-13471246D01*
X8791491Y-13471246D02*
X8791491Y-13528388D01*
X8791491Y-13528388D02*
X8781967Y-13547436D01*
X8781967Y-13547436D02*
X8772444Y-13556960D01*
X8772444Y-13556960D02*
X8753396Y-13566484D01*
X8753396Y-13566484D02*
X8715301Y-13566484D01*
X8715301Y-13566484D02*
X8696253Y-13556960D01*
X8877205Y-13547436D02*
X8886729Y-13556960D01*
X8886729Y-13556960D02*
X8877205Y-13566484D01*
X8877205Y-13566484D02*
X8867682Y-13556960D01*
X8867682Y-13556960D02*
X8877205Y-13547436D01*
X8877205Y-13547436D02*
X8877205Y-13566484D01*
X8877205Y-13442674D02*
X8886729Y-13452198D01*
X8886729Y-13452198D02*
X8877205Y-13461722D01*
X8877205Y-13461722D02*
X8867682Y-13452198D01*
X8867682Y-13452198D02*
X8877205Y-13442674D01*
X8877205Y-13442674D02*
X8877205Y-13461722D01*
X7045000Y-13795000D02*
X7245000Y-13995000D01*
X7245000Y-13795000D02*
X7045000Y-13995000D01*
X7486729Y-13786484D02*
X7610539Y-13786484D01*
X7610539Y-13786484D02*
X7543872Y-13862674D01*
X7543872Y-13862674D02*
X7572443Y-13862674D01*
X7572443Y-13862674D02*
X7591491Y-13872198D01*
X7591491Y-13872198D02*
X7601015Y-13881722D01*
X7601015Y-13881722D02*
X7610539Y-13900769D01*
X7610539Y-13900769D02*
X7610539Y-13948388D01*
X7610539Y-13948388D02*
X7601015Y-13967436D01*
X7601015Y-13967436D02*
X7591491Y-13976960D01*
X7591491Y-13976960D02*
X7572443Y-13986484D01*
X7572443Y-13986484D02*
X7515301Y-13986484D01*
X7515301Y-13986484D02*
X7496253Y-13976960D01*
X7496253Y-13976960D02*
X7486729Y-13967436D01*
X7696253Y-13967436D02*
X7705777Y-13976960D01*
X7705777Y-13976960D02*
X7696253Y-13986484D01*
X7696253Y-13986484D02*
X7686729Y-13976960D01*
X7686729Y-13976960D02*
X7696253Y-13967436D01*
X7696253Y-13967436D02*
X7696253Y-13986484D01*
X7781967Y-13805531D02*
X7791491Y-13796008D01*
X7791491Y-13796008D02*
X7810539Y-13786484D01*
X7810539Y-13786484D02*
X7858158Y-13786484D01*
X7858158Y-13786484D02*
X7877205Y-13796008D01*
X7877205Y-13796008D02*
X7886729Y-13805531D01*
X7886729Y-13805531D02*
X7896253Y-13824579D01*
X7896253Y-13824579D02*
X7896253Y-13843627D01*
X7896253Y-13843627D02*
X7886729Y-13872198D01*
X7886729Y-13872198D02*
X7772443Y-13986484D01*
X7772443Y-13986484D02*
X7896253Y-13986484D01*
X8020062Y-13786484D02*
X8039110Y-13786484D01*
X8039110Y-13786484D02*
X8058158Y-13796008D01*
X8058158Y-13796008D02*
X8067682Y-13805531D01*
X8067682Y-13805531D02*
X8077205Y-13824579D01*
X8077205Y-13824579D02*
X8086729Y-13862674D01*
X8086729Y-13862674D02*
X8086729Y-13910293D01*
X8086729Y-13910293D02*
X8077205Y-13948388D01*
X8077205Y-13948388D02*
X8067682Y-13967436D01*
X8067682Y-13967436D02*
X8058158Y-13976960D01*
X8058158Y-13976960D02*
X8039110Y-13986484D01*
X8039110Y-13986484D02*
X8020062Y-13986484D01*
X8020062Y-13986484D02*
X8001015Y-13976960D01*
X8001015Y-13976960D02*
X7991491Y-13967436D01*
X7991491Y-13967436D02*
X7981967Y-13948388D01*
X7981967Y-13948388D02*
X7972443Y-13910293D01*
X7972443Y-13910293D02*
X7972443Y-13862674D01*
X7972443Y-13862674D02*
X7981967Y-13824579D01*
X7981967Y-13824579D02*
X7991491Y-13805531D01*
X7991491Y-13805531D02*
X8001015Y-13796008D01*
X8001015Y-13796008D02*
X8020062Y-13786484D01*
X8210539Y-13786484D02*
X8229586Y-13786484D01*
X8229586Y-13786484D02*
X8248634Y-13796008D01*
X8248634Y-13796008D02*
X8258158Y-13805531D01*
X8258158Y-13805531D02*
X8267682Y-13824579D01*
X8267682Y-13824579D02*
X8277205Y-13862674D01*
X8277205Y-13862674D02*
X8277205Y-13910293D01*
X8277205Y-13910293D02*
X8267682Y-13948388D01*
X8267682Y-13948388D02*
X8258158Y-13967436D01*
X8258158Y-13967436D02*
X8248634Y-13976960D01*
X8248634Y-13976960D02*
X8229586Y-13986484D01*
X8229586Y-13986484D02*
X8210539Y-13986484D01*
X8210539Y-13986484D02*
X8191491Y-13976960D01*
X8191491Y-13976960D02*
X8181967Y-13967436D01*
X8181967Y-13967436D02*
X8172443Y-13948388D01*
X8172443Y-13948388D02*
X8162920Y-13910293D01*
X8162920Y-13910293D02*
X8162920Y-13862674D01*
X8162920Y-13862674D02*
X8172443Y-13824579D01*
X8172443Y-13824579D02*
X8181967Y-13805531D01*
X8181967Y-13805531D02*
X8191491Y-13796008D01*
X8191491Y-13796008D02*
X8210539Y-13786484D01*
X8362920Y-13986484D02*
X8362920Y-13853150D01*
X8362920Y-13872198D02*
X8372443Y-13862674D01*
X8372443Y-13862674D02*
X8391491Y-13853150D01*
X8391491Y-13853150D02*
X8420063Y-13853150D01*
X8420063Y-13853150D02*
X8439110Y-13862674D01*
X8439110Y-13862674D02*
X8448634Y-13881722D01*
X8448634Y-13881722D02*
X8448634Y-13986484D01*
X8448634Y-13881722D02*
X8458158Y-13862674D01*
X8458158Y-13862674D02*
X8477205Y-13853150D01*
X8477205Y-13853150D02*
X8505777Y-13853150D01*
X8505777Y-13853150D02*
X8524825Y-13862674D01*
X8524825Y-13862674D02*
X8534348Y-13881722D01*
X8534348Y-13881722D02*
X8534348Y-13986484D01*
X8629586Y-13986484D02*
X8629586Y-13853150D01*
X8629586Y-13872198D02*
X8639110Y-13862674D01*
X8639110Y-13862674D02*
X8658158Y-13853150D01*
X8658158Y-13853150D02*
X8686729Y-13853150D01*
X8686729Y-13853150D02*
X8705777Y-13862674D01*
X8705777Y-13862674D02*
X8715301Y-13881722D01*
X8715301Y-13881722D02*
X8715301Y-13986484D01*
X8715301Y-13881722D02*
X8724825Y-13862674D01*
X8724825Y-13862674D02*
X8743872Y-13853150D01*
X8743872Y-13853150D02*
X8772444Y-13853150D01*
X8772444Y-13853150D02*
X8791491Y-13862674D01*
X8791491Y-13862674D02*
X8801015Y-13881722D01*
X8801015Y-13881722D02*
X8801015Y-13986484D01*
X9191491Y-13776960D02*
X9020063Y-14034103D01*
X9448634Y-13786484D02*
X9467682Y-13786484D01*
X9467682Y-13786484D02*
X9486729Y-13796008D01*
X9486729Y-13796008D02*
X9496253Y-13805531D01*
X9496253Y-13805531D02*
X9505777Y-13824579D01*
X9505777Y-13824579D02*
X9515301Y-13862674D01*
X9515301Y-13862674D02*
X9515301Y-13910293D01*
X9515301Y-13910293D02*
X9505777Y-13948388D01*
X9505777Y-13948388D02*
X9496253Y-13967436D01*
X9496253Y-13967436D02*
X9486729Y-13976960D01*
X9486729Y-13976960D02*
X9467682Y-13986484D01*
X9467682Y-13986484D02*
X9448634Y-13986484D01*
X9448634Y-13986484D02*
X9429587Y-13976960D01*
X9429587Y-13976960D02*
X9420063Y-13967436D01*
X9420063Y-13967436D02*
X9410539Y-13948388D01*
X9410539Y-13948388D02*
X9401015Y-13910293D01*
X9401015Y-13910293D02*
X9401015Y-13862674D01*
X9401015Y-13862674D02*
X9410539Y-13824579D01*
X9410539Y-13824579D02*
X9420063Y-13805531D01*
X9420063Y-13805531D02*
X9429587Y-13796008D01*
X9429587Y-13796008D02*
X9448634Y-13786484D01*
X9601015Y-13967436D02*
X9610539Y-13976960D01*
X9610539Y-13976960D02*
X9601015Y-13986484D01*
X9601015Y-13986484D02*
X9591491Y-13976960D01*
X9591491Y-13976960D02*
X9601015Y-13967436D01*
X9601015Y-13967436D02*
X9601015Y-13986484D01*
X9801015Y-13986484D02*
X9686729Y-13986484D01*
X9743872Y-13986484D02*
X9743872Y-13786484D01*
X9743872Y-13786484D02*
X9724825Y-13815055D01*
X9724825Y-13815055D02*
X9705777Y-13834103D01*
X9705777Y-13834103D02*
X9686729Y-13843627D01*
X9877206Y-13805531D02*
X9886729Y-13796008D01*
X9886729Y-13796008D02*
X9905777Y-13786484D01*
X9905777Y-13786484D02*
X9953396Y-13786484D01*
X9953396Y-13786484D02*
X9972444Y-13796008D01*
X9972444Y-13796008D02*
X9981968Y-13805531D01*
X9981968Y-13805531D02*
X9991491Y-13824579D01*
X9991491Y-13824579D02*
X9991491Y-13843627D01*
X9991491Y-13843627D02*
X9981968Y-13872198D01*
X9981968Y-13872198D02*
X9867682Y-13986484D01*
X9867682Y-13986484D02*
X9991491Y-13986484D01*
X10162920Y-13786484D02*
X10124825Y-13786484D01*
X10124825Y-13786484D02*
X10105777Y-13796008D01*
X10105777Y-13796008D02*
X10096253Y-13805531D01*
X10096253Y-13805531D02*
X10077206Y-13834103D01*
X10077206Y-13834103D02*
X10067682Y-13872198D01*
X10067682Y-13872198D02*
X10067682Y-13948388D01*
X10067682Y-13948388D02*
X10077206Y-13967436D01*
X10077206Y-13967436D02*
X10086729Y-13976960D01*
X10086729Y-13976960D02*
X10105777Y-13986484D01*
X10105777Y-13986484D02*
X10143872Y-13986484D01*
X10143872Y-13986484D02*
X10162920Y-13976960D01*
X10162920Y-13976960D02*
X10172444Y-13967436D01*
X10172444Y-13967436D02*
X10181968Y-13948388D01*
X10181968Y-13948388D02*
X10181968Y-13900769D01*
X10181968Y-13900769D02*
X10172444Y-13881722D01*
X10172444Y-13881722D02*
X10162920Y-13872198D01*
X10162920Y-13872198D02*
X10143872Y-13862674D01*
X10143872Y-13862674D02*
X10105777Y-13862674D01*
X10105777Y-13862674D02*
X10086729Y-13872198D01*
X10086729Y-13872198D02*
X10077206Y-13881722D01*
X10077206Y-13881722D02*
X10067682Y-13900769D01*
X10305777Y-13786484D02*
X10324825Y-13786484D01*
X10324825Y-13786484D02*
X10343872Y-13796008D01*
X10343872Y-13796008D02*
X10353396Y-13805531D01*
X10353396Y-13805531D02*
X10362920Y-13824579D01*
X10362920Y-13824579D02*
X10372444Y-13862674D01*
X10372444Y-13862674D02*
X10372444Y-13910293D01*
X10372444Y-13910293D02*
X10362920Y-13948388D01*
X10362920Y-13948388D02*
X10353396Y-13967436D01*
X10353396Y-13967436D02*
X10343872Y-13976960D01*
X10343872Y-13976960D02*
X10324825Y-13986484D01*
X10324825Y-13986484D02*
X10305777Y-13986484D01*
X10305777Y-13986484D02*
X10286729Y-13976960D01*
X10286729Y-13976960D02*
X10277206Y-13967436D01*
X10277206Y-13967436D02*
X10267682Y-13948388D01*
X10267682Y-13948388D02*
X10258158Y-13910293D01*
X10258158Y-13910293D02*
X10258158Y-13862674D01*
X10258158Y-13862674D02*
X10267682Y-13824579D01*
X10267682Y-13824579D02*
X10277206Y-13805531D01*
X10277206Y-13805531D02*
X10286729Y-13796008D01*
X10286729Y-13796008D02*
X10305777Y-13786484D01*
X10448634Y-13786484D02*
X10448634Y-13824579D01*
X10524825Y-13786484D02*
X10524825Y-13824579D01*
X10820063Y-14062674D02*
X10810539Y-14053150D01*
X10810539Y-14053150D02*
X10791491Y-14024579D01*
X10791491Y-14024579D02*
X10781968Y-14005531D01*
X10781968Y-14005531D02*
X10772444Y-13976960D01*
X10772444Y-13976960D02*
X10762920Y-13929341D01*
X10762920Y-13929341D02*
X10762920Y-13891246D01*
X10762920Y-13891246D02*
X10772444Y-13843627D01*
X10772444Y-13843627D02*
X10781968Y-13815055D01*
X10781968Y-13815055D02*
X10791491Y-13796008D01*
X10791491Y-13796008D02*
X10810539Y-13767436D01*
X10810539Y-13767436D02*
X10820063Y-13757912D01*
X10981968Y-13853150D02*
X10981968Y-13986484D01*
X10934349Y-13776960D02*
X10886730Y-13919817D01*
X10886730Y-13919817D02*
X11010539Y-13919817D01*
X11239110Y-13986484D02*
X11239110Y-13786484D01*
X11324825Y-13986484D02*
X11324825Y-13881722D01*
X11324825Y-13881722D02*
X11315301Y-13862674D01*
X11315301Y-13862674D02*
X11296253Y-13853150D01*
X11296253Y-13853150D02*
X11267682Y-13853150D01*
X11267682Y-13853150D02*
X11248634Y-13862674D01*
X11248634Y-13862674D02*
X11239110Y-13872198D01*
X11448634Y-13986484D02*
X11429587Y-13976960D01*
X11429587Y-13976960D02*
X11420063Y-13967436D01*
X11420063Y-13967436D02*
X11410539Y-13948388D01*
X11410539Y-13948388D02*
X11410539Y-13891246D01*
X11410539Y-13891246D02*
X11420063Y-13872198D01*
X11420063Y-13872198D02*
X11429587Y-13862674D01*
X11429587Y-13862674D02*
X11448634Y-13853150D01*
X11448634Y-13853150D02*
X11477206Y-13853150D01*
X11477206Y-13853150D02*
X11496253Y-13862674D01*
X11496253Y-13862674D02*
X11505777Y-13872198D01*
X11505777Y-13872198D02*
X11515301Y-13891246D01*
X11515301Y-13891246D02*
X11515301Y-13948388D01*
X11515301Y-13948388D02*
X11505777Y-13967436D01*
X11505777Y-13967436D02*
X11496253Y-13976960D01*
X11496253Y-13976960D02*
X11477206Y-13986484D01*
X11477206Y-13986484D02*
X11448634Y-13986484D01*
X11629587Y-13986484D02*
X11610539Y-13976960D01*
X11610539Y-13976960D02*
X11601015Y-13957912D01*
X11601015Y-13957912D02*
X11601015Y-13786484D01*
X11781968Y-13976960D02*
X11762920Y-13986484D01*
X11762920Y-13986484D02*
X11724825Y-13986484D01*
X11724825Y-13986484D02*
X11705777Y-13976960D01*
X11705777Y-13976960D02*
X11696253Y-13957912D01*
X11696253Y-13957912D02*
X11696253Y-13881722D01*
X11696253Y-13881722D02*
X11705777Y-13862674D01*
X11705777Y-13862674D02*
X11724825Y-13853150D01*
X11724825Y-13853150D02*
X11762920Y-13853150D01*
X11762920Y-13853150D02*
X11781968Y-13862674D01*
X11781968Y-13862674D02*
X11791491Y-13881722D01*
X11791491Y-13881722D02*
X11791491Y-13900769D01*
X11791491Y-13900769D02*
X11696253Y-13919817D01*
X11867682Y-13976960D02*
X11886730Y-13986484D01*
X11886730Y-13986484D02*
X11924825Y-13986484D01*
X11924825Y-13986484D02*
X11943872Y-13976960D01*
X11943872Y-13976960D02*
X11953396Y-13957912D01*
X11953396Y-13957912D02*
X11953396Y-13948388D01*
X11953396Y-13948388D02*
X11943872Y-13929341D01*
X11943872Y-13929341D02*
X11924825Y-13919817D01*
X11924825Y-13919817D02*
X11896253Y-13919817D01*
X11896253Y-13919817D02*
X11877206Y-13910293D01*
X11877206Y-13910293D02*
X11867682Y-13891246D01*
X11867682Y-13891246D02*
X11867682Y-13881722D01*
X11867682Y-13881722D02*
X11877206Y-13862674D01*
X11877206Y-13862674D02*
X11896253Y-13853150D01*
X11896253Y-13853150D02*
X11924825Y-13853150D01*
X11924825Y-13853150D02*
X11943872Y-13862674D01*
X12020063Y-14062674D02*
X12029587Y-14053150D01*
X12029587Y-14053150D02*
X12048634Y-14024579D01*
X12048634Y-14024579D02*
X12058158Y-14005531D01*
X12058158Y-14005531D02*
X12067682Y-13976960D01*
X12067682Y-13976960D02*
X12077206Y-13929341D01*
X12077206Y-13929341D02*
X12077206Y-13891246D01*
X12077206Y-13891246D02*
X12067682Y-13843627D01*
X12067682Y-13843627D02*
X12058158Y-13815055D01*
X12058158Y-13815055D02*
X12048634Y-13796008D01*
X12048634Y-13796008D02*
X12029587Y-13767436D01*
X12029587Y-13767436D02*
X12020063Y-13757912D01*
X12381968Y-14062674D02*
X12372444Y-14053150D01*
X12372444Y-14053150D02*
X12353396Y-14024579D01*
X12353396Y-14024579D02*
X12343872Y-14005531D01*
X12343872Y-14005531D02*
X12334349Y-13976960D01*
X12334349Y-13976960D02*
X12324825Y-13929341D01*
X12324825Y-13929341D02*
X12324825Y-13891246D01*
X12324825Y-13891246D02*
X12334349Y-13843627D01*
X12334349Y-13843627D02*
X12343872Y-13815055D01*
X12343872Y-13815055D02*
X12353396Y-13796008D01*
X12353396Y-13796008D02*
X12372444Y-13767436D01*
X12372444Y-13767436D02*
X12381968Y-13757912D01*
X12458158Y-13853150D02*
X12458158Y-13986484D01*
X12458158Y-13872198D02*
X12467682Y-13862674D01*
X12467682Y-13862674D02*
X12486730Y-13853150D01*
X12486730Y-13853150D02*
X12515301Y-13853150D01*
X12515301Y-13853150D02*
X12534349Y-13862674D01*
X12534349Y-13862674D02*
X12543872Y-13881722D01*
X12543872Y-13881722D02*
X12543872Y-13986484D01*
X12667682Y-13986484D02*
X12648634Y-13976960D01*
X12648634Y-13976960D02*
X12639111Y-13967436D01*
X12639111Y-13967436D02*
X12629587Y-13948388D01*
X12629587Y-13948388D02*
X12629587Y-13891246D01*
X12629587Y-13891246D02*
X12639111Y-13872198D01*
X12639111Y-13872198D02*
X12648634Y-13862674D01*
X12648634Y-13862674D02*
X12667682Y-13853150D01*
X12667682Y-13853150D02*
X12696253Y-13853150D01*
X12696253Y-13853150D02*
X12715301Y-13862674D01*
X12715301Y-13862674D02*
X12724825Y-13872198D01*
X12724825Y-13872198D02*
X12734349Y-13891246D01*
X12734349Y-13891246D02*
X12734349Y-13948388D01*
X12734349Y-13948388D02*
X12724825Y-13967436D01*
X12724825Y-13967436D02*
X12715301Y-13976960D01*
X12715301Y-13976960D02*
X12696253Y-13986484D01*
X12696253Y-13986484D02*
X12667682Y-13986484D01*
X12791492Y-13853150D02*
X12867682Y-13853150D01*
X12820063Y-13786484D02*
X12820063Y-13957912D01*
X12820063Y-13957912D02*
X12829587Y-13976960D01*
X12829587Y-13976960D02*
X12848634Y-13986484D01*
X12848634Y-13986484D02*
X12867682Y-13986484D01*
X13086730Y-13853150D02*
X13086730Y-14053150D01*
X13086730Y-13862674D02*
X13105777Y-13853150D01*
X13105777Y-13853150D02*
X13143873Y-13853150D01*
X13143873Y-13853150D02*
X13162920Y-13862674D01*
X13162920Y-13862674D02*
X13172444Y-13872198D01*
X13172444Y-13872198D02*
X13181968Y-13891246D01*
X13181968Y-13891246D02*
X13181968Y-13948388D01*
X13181968Y-13948388D02*
X13172444Y-13967436D01*
X13172444Y-13967436D02*
X13162920Y-13976960D01*
X13162920Y-13976960D02*
X13143873Y-13986484D01*
X13143873Y-13986484D02*
X13105777Y-13986484D01*
X13105777Y-13986484D02*
X13086730Y-13976960D01*
X13296253Y-13986484D02*
X13277206Y-13976960D01*
X13277206Y-13976960D02*
X13267682Y-13957912D01*
X13267682Y-13957912D02*
X13267682Y-13786484D01*
X13458158Y-13986484D02*
X13458158Y-13881722D01*
X13458158Y-13881722D02*
X13448634Y-13862674D01*
X13448634Y-13862674D02*
X13429587Y-13853150D01*
X13429587Y-13853150D02*
X13391492Y-13853150D01*
X13391492Y-13853150D02*
X13372444Y-13862674D01*
X13458158Y-13976960D02*
X13439111Y-13986484D01*
X13439111Y-13986484D02*
X13391492Y-13986484D01*
X13391492Y-13986484D02*
X13372444Y-13976960D01*
X13372444Y-13976960D02*
X13362920Y-13957912D01*
X13362920Y-13957912D02*
X13362920Y-13938865D01*
X13362920Y-13938865D02*
X13372444Y-13919817D01*
X13372444Y-13919817D02*
X13391492Y-13910293D01*
X13391492Y-13910293D02*
X13439111Y-13910293D01*
X13439111Y-13910293D02*
X13458158Y-13900769D01*
X13524825Y-13853150D02*
X13601015Y-13853150D01*
X13553396Y-13786484D02*
X13553396Y-13957912D01*
X13553396Y-13957912D02*
X13562920Y-13976960D01*
X13562920Y-13976960D02*
X13581968Y-13986484D01*
X13581968Y-13986484D02*
X13601015Y-13986484D01*
X13743873Y-13976960D02*
X13724825Y-13986484D01*
X13724825Y-13986484D02*
X13686730Y-13986484D01*
X13686730Y-13986484D02*
X13667682Y-13976960D01*
X13667682Y-13976960D02*
X13658158Y-13957912D01*
X13658158Y-13957912D02*
X13658158Y-13881722D01*
X13658158Y-13881722D02*
X13667682Y-13862674D01*
X13667682Y-13862674D02*
X13686730Y-13853150D01*
X13686730Y-13853150D02*
X13724825Y-13853150D01*
X13724825Y-13853150D02*
X13743873Y-13862674D01*
X13743873Y-13862674D02*
X13753396Y-13881722D01*
X13753396Y-13881722D02*
X13753396Y-13900769D01*
X13753396Y-13900769D02*
X13658158Y-13919817D01*
X13924825Y-13986484D02*
X13924825Y-13786484D01*
X13924825Y-13976960D02*
X13905777Y-13986484D01*
X13905777Y-13986484D02*
X13867682Y-13986484D01*
X13867682Y-13986484D02*
X13848634Y-13976960D01*
X13848634Y-13976960D02*
X13839111Y-13967436D01*
X13839111Y-13967436D02*
X13829587Y-13948388D01*
X13829587Y-13948388D02*
X13829587Y-13891246D01*
X13829587Y-13891246D02*
X13839111Y-13872198D01*
X13839111Y-13872198D02*
X13848634Y-13862674D01*
X13848634Y-13862674D02*
X13867682Y-13853150D01*
X13867682Y-13853150D02*
X13905777Y-13853150D01*
X13905777Y-13853150D02*
X13924825Y-13862674D01*
X14001015Y-14062674D02*
X14010539Y-14053150D01*
X14010539Y-14053150D02*
X14029587Y-14024579D01*
X14029587Y-14024579D02*
X14039111Y-14005531D01*
X14039111Y-14005531D02*
X14048634Y-13976960D01*
X14048634Y-13976960D02*
X14058158Y-13929341D01*
X14058158Y-13929341D02*
X14058158Y-13891246D01*
X14058158Y-13891246D02*
X14048634Y-13843627D01*
X14048634Y-13843627D02*
X14039111Y-13815055D01*
X14039111Y-13815055D02*
X14029587Y-13796008D01*
X14029587Y-13796008D02*
X14010539Y-13767436D01*
X14010539Y-13767436D02*
X14001015Y-13757912D01*
M02*
