G04 #@! TF.GenerationSoftware,KiCad,Pcbnew,7.0.7*
G04 #@! TF.CreationDate,2023-09-24T13:56:50+10:00*
G04 #@! TF.ProjectId,fyp_nubots_ssl,6679705f-6e75-4626-9f74-735f73736c2e,rev?*
G04 #@! TF.SameCoordinates,Original*
G04 #@! TF.FileFunction,Soldermask,Bot*
G04 #@! TF.FilePolarity,Negative*
%FSLAX46Y46*%
G04 Gerber Fmt 4.6, Leading zero omitted, Abs format (unit mm)*
G04 Created by KiCad (PCBNEW 7.0.7) date 2023-09-24 13:56:50*
%MOMM*%
%LPD*%
G01*
G04 APERTURE LIST*
G04 APERTURE END LIST*
G36*
X105059975Y-126866720D02*
G01*
X105122394Y-126866720D01*
X105190598Y-126877000D01*
X105256240Y-126882166D01*
X105309150Y-126894868D01*
X105364459Y-126903205D01*
X105436734Y-126925499D01*
X105506170Y-126942169D01*
X105551064Y-126960765D01*
X105598374Y-126975358D01*
X105672654Y-127011129D01*
X105743636Y-127040531D01*
X105780069Y-127062857D01*
X105818935Y-127081574D01*
X105892862Y-127131977D01*
X105962792Y-127174830D01*
X105990794Y-127198746D01*
X106021186Y-127219467D01*
X106092152Y-127285314D01*
X106158241Y-127341759D01*
X106178308Y-127365255D01*
X106200635Y-127385971D01*
X106265909Y-127467823D01*
X106325170Y-127537208D01*
X106338203Y-127558476D01*
X106353264Y-127577362D01*
X106410064Y-127675743D01*
X106459469Y-127756364D01*
X106466725Y-127773882D01*
X106475659Y-127789356D01*
X106521213Y-127905427D01*
X106557831Y-127993830D01*
X106560859Y-128006445D01*
X106565095Y-128017237D01*
X106596800Y-128156151D01*
X106617834Y-128243760D01*
X106618379Y-128250695D01*
X106619565Y-128255888D01*
X106635047Y-128462486D01*
X106638000Y-128500000D01*
X106635047Y-128537516D01*
X106619565Y-128744111D01*
X106618379Y-128749303D01*
X106617834Y-128756240D01*
X106596796Y-128843867D01*
X106565095Y-128982762D01*
X106560860Y-128993551D01*
X106557831Y-129006170D01*
X106521205Y-129094590D01*
X106475659Y-129210643D01*
X106466727Y-129226113D01*
X106459469Y-129243636D01*
X106410054Y-129324272D01*
X106353264Y-129422637D01*
X106338206Y-129441519D01*
X106325170Y-129462792D01*
X106265897Y-129532190D01*
X106200635Y-129614028D01*
X106178312Y-129634740D01*
X106158241Y-129658241D01*
X106092139Y-129714697D01*
X106021186Y-129780532D01*
X105990800Y-129801248D01*
X105962792Y-129825170D01*
X105892848Y-129868031D01*
X105818935Y-129918425D01*
X105780076Y-129937137D01*
X105743636Y-129959469D01*
X105672639Y-129988876D01*
X105598374Y-130024641D01*
X105551074Y-130039231D01*
X105506170Y-130057831D01*
X105436719Y-130074504D01*
X105364459Y-130096794D01*
X105309158Y-130105129D01*
X105256240Y-130117834D01*
X105190594Y-130123000D01*
X105122394Y-130133280D01*
X105059975Y-130133280D01*
X105000000Y-130138000D01*
X104940025Y-130133280D01*
X104877606Y-130133280D01*
X104809405Y-130123000D01*
X104743760Y-130117834D01*
X104690842Y-130105129D01*
X104635540Y-130096794D01*
X104563275Y-130074503D01*
X104493830Y-130057831D01*
X104448928Y-130039232D01*
X104401625Y-130024641D01*
X104327355Y-129988874D01*
X104256364Y-129959469D01*
X104219923Y-129937138D01*
X104181065Y-129918425D01*
X104107148Y-129868029D01*
X104037208Y-129825170D01*
X104009203Y-129801251D01*
X103978813Y-129780532D01*
X103907848Y-129714686D01*
X103841759Y-129658241D01*
X103821691Y-129634744D01*
X103799364Y-129614028D01*
X103734087Y-129532173D01*
X103674830Y-129462792D01*
X103661797Y-129441524D01*
X103646735Y-129422637D01*
X103589928Y-129324244D01*
X103540531Y-129243636D01*
X103533275Y-129226119D01*
X103524340Y-129210643D01*
X103478775Y-129094544D01*
X103442169Y-129006170D01*
X103439141Y-128993558D01*
X103434904Y-128982762D01*
X103403183Y-128843783D01*
X103382166Y-128756240D01*
X103381620Y-128749309D01*
X103380434Y-128744111D01*
X103364932Y-128537267D01*
X103362000Y-128500000D01*
X103364930Y-128462769D01*
X103380434Y-128255888D01*
X103381620Y-128250688D01*
X103382166Y-128243760D01*
X103403178Y-128156235D01*
X103434904Y-128017237D01*
X103439141Y-128006439D01*
X103442169Y-127993830D01*
X103478767Y-127905473D01*
X103524340Y-127789356D01*
X103533276Y-127773876D01*
X103540531Y-127756364D01*
X103589918Y-127675771D01*
X103646735Y-127577362D01*
X103661799Y-127558471D01*
X103674830Y-127537208D01*
X103734075Y-127467840D01*
X103799364Y-127385971D01*
X103821695Y-127365250D01*
X103841759Y-127341759D01*
X103907834Y-127285324D01*
X103978813Y-127219467D01*
X104009209Y-127198743D01*
X104037208Y-127174830D01*
X104107133Y-127131979D01*
X104181065Y-127081574D01*
X104219931Y-127062856D01*
X104256364Y-127040531D01*
X104327341Y-127011131D01*
X104401625Y-126975358D01*
X104448938Y-126960763D01*
X104493830Y-126942169D01*
X104563260Y-126925500D01*
X104635540Y-126903205D01*
X104690851Y-126894868D01*
X104743760Y-126882166D01*
X104809401Y-126877000D01*
X104877606Y-126866720D01*
X104940025Y-126866720D01*
X105000000Y-126862000D01*
X105059975Y-126866720D01*
G37*
G36*
X75115281Y-128441892D02*
G01*
X75145685Y-128451270D01*
X75173252Y-128455234D01*
X75203881Y-128469222D01*
X75240041Y-128480376D01*
X75263852Y-128496609D01*
X75286522Y-128506963D01*
X75314144Y-128530898D01*
X75347916Y-128553923D01*
X75364017Y-128574113D01*
X75380628Y-128588507D01*
X75401936Y-128621663D01*
X75429319Y-128656000D01*
X75437656Y-128677243D01*
X75447951Y-128693262D01*
X75459857Y-128733810D01*
X75477018Y-128777536D01*
X75478499Y-128797298D01*
X75483033Y-128812740D01*
X75483033Y-128857799D01*
X75486775Y-128907732D01*
X75483033Y-128924127D01*
X75483033Y-128937259D01*
X75469573Y-128983097D01*
X75457723Y-129035019D01*
X75450814Y-129046984D01*
X75447951Y-129056737D01*
X75420728Y-129099095D01*
X75392442Y-129148089D01*
X75384514Y-129155444D01*
X75380628Y-129161492D01*
X75340837Y-129195970D01*
X75296734Y-129236893D01*
X75289704Y-129240278D01*
X75286522Y-129243036D01*
X75237291Y-129265519D01*
X75179103Y-129293541D01*
X75174370Y-129294254D01*
X75173252Y-129294765D01*
X75123999Y-129301846D01*
X75050000Y-129313000D01*
X75046425Y-129313000D01*
X74553575Y-129313000D01*
X74550000Y-129313000D01*
X74484719Y-129308108D01*
X74454310Y-129298727D01*
X74426747Y-129294765D01*
X74396122Y-129280779D01*
X74359959Y-129269624D01*
X74336145Y-129253388D01*
X74313477Y-129243036D01*
X74285856Y-129219102D01*
X74252084Y-129196077D01*
X74235982Y-129175885D01*
X74219371Y-129161492D01*
X74198061Y-129128334D01*
X74170681Y-129094000D01*
X74162344Y-129072757D01*
X74152048Y-129056737D01*
X74140141Y-129016185D01*
X74122982Y-128972464D01*
X74121500Y-128952700D01*
X74116967Y-128937259D01*
X74116967Y-128892200D01*
X74113225Y-128842268D01*
X74116967Y-128825872D01*
X74116967Y-128812740D01*
X74130428Y-128766892D01*
X74142277Y-128714981D01*
X74149183Y-128703019D01*
X74152048Y-128693262D01*
X74179286Y-128650879D01*
X74207558Y-128601911D01*
X74215481Y-128594559D01*
X74219371Y-128588507D01*
X74259192Y-128554000D01*
X74303266Y-128513107D01*
X74310290Y-128509724D01*
X74313477Y-128506963D01*
X74362767Y-128484452D01*
X74420897Y-128456459D01*
X74425625Y-128455746D01*
X74426747Y-128455234D01*
X74476100Y-128448138D01*
X74550000Y-128437000D01*
X75050000Y-128437000D01*
X75115281Y-128441892D01*
G37*
G36*
X75115281Y-127191892D02*
G01*
X75145685Y-127201270D01*
X75173252Y-127205234D01*
X75203881Y-127219222D01*
X75240041Y-127230376D01*
X75263852Y-127246609D01*
X75286522Y-127256963D01*
X75314144Y-127280898D01*
X75347916Y-127303923D01*
X75364017Y-127324113D01*
X75380628Y-127338507D01*
X75401936Y-127371663D01*
X75429319Y-127406000D01*
X75437656Y-127427243D01*
X75447951Y-127443262D01*
X75459857Y-127483810D01*
X75477018Y-127527536D01*
X75478499Y-127547298D01*
X75483033Y-127562740D01*
X75483033Y-127607799D01*
X75486775Y-127657732D01*
X75483033Y-127674127D01*
X75483033Y-127687259D01*
X75469573Y-127733097D01*
X75457723Y-127785019D01*
X75450814Y-127796984D01*
X75447951Y-127806737D01*
X75420728Y-127849095D01*
X75392442Y-127898089D01*
X75384514Y-127905444D01*
X75380628Y-127911492D01*
X75340837Y-127945970D01*
X75296734Y-127986893D01*
X75289704Y-127990278D01*
X75286522Y-127993036D01*
X75237291Y-128015519D01*
X75179103Y-128043541D01*
X75174370Y-128044254D01*
X75173252Y-128044765D01*
X75123999Y-128051846D01*
X75050000Y-128063000D01*
X75046425Y-128063000D01*
X74553575Y-128063000D01*
X74550000Y-128063000D01*
X74484719Y-128058108D01*
X74454310Y-128048727D01*
X74426747Y-128044765D01*
X74396122Y-128030779D01*
X74359959Y-128019624D01*
X74336145Y-128003388D01*
X74313477Y-127993036D01*
X74285856Y-127969102D01*
X74252084Y-127946077D01*
X74235982Y-127925885D01*
X74219371Y-127911492D01*
X74198061Y-127878334D01*
X74170681Y-127844000D01*
X74162344Y-127822757D01*
X74152048Y-127806737D01*
X74140141Y-127766185D01*
X74122982Y-127722464D01*
X74121500Y-127702700D01*
X74116967Y-127687259D01*
X74116967Y-127642200D01*
X74113225Y-127592268D01*
X74116967Y-127575872D01*
X74116967Y-127562740D01*
X74130428Y-127516892D01*
X74142277Y-127464981D01*
X74149183Y-127453019D01*
X74152048Y-127443262D01*
X74179286Y-127400879D01*
X74207558Y-127351911D01*
X74215481Y-127344559D01*
X74219371Y-127338507D01*
X74259192Y-127304000D01*
X74303266Y-127263107D01*
X74310290Y-127259724D01*
X74313477Y-127256963D01*
X74362767Y-127234452D01*
X74420897Y-127206459D01*
X74425625Y-127205746D01*
X74426747Y-127205234D01*
X74476100Y-127198138D01*
X74550000Y-127187000D01*
X75050000Y-127187000D01*
X75115281Y-127191892D01*
G37*
G36*
X75115281Y-125941892D02*
G01*
X75145685Y-125951270D01*
X75173252Y-125955234D01*
X75203881Y-125969222D01*
X75240041Y-125980376D01*
X75263852Y-125996609D01*
X75286522Y-126006963D01*
X75314144Y-126030898D01*
X75347916Y-126053923D01*
X75364017Y-126074113D01*
X75380628Y-126088507D01*
X75401936Y-126121663D01*
X75429319Y-126156000D01*
X75437656Y-126177243D01*
X75447951Y-126193262D01*
X75459857Y-126233810D01*
X75477018Y-126277536D01*
X75478499Y-126297298D01*
X75483033Y-126312740D01*
X75483033Y-126357799D01*
X75486775Y-126407732D01*
X75483033Y-126424127D01*
X75483033Y-126437259D01*
X75469573Y-126483097D01*
X75457723Y-126535019D01*
X75450814Y-126546984D01*
X75447951Y-126556737D01*
X75420728Y-126599095D01*
X75392442Y-126648089D01*
X75384514Y-126655444D01*
X75380628Y-126661492D01*
X75340837Y-126695970D01*
X75296734Y-126736893D01*
X75289704Y-126740278D01*
X75286522Y-126743036D01*
X75237291Y-126765519D01*
X75179103Y-126793541D01*
X75174370Y-126794254D01*
X75173252Y-126794765D01*
X75123999Y-126801846D01*
X75050000Y-126813000D01*
X75046425Y-126813000D01*
X74553575Y-126813000D01*
X74550000Y-126813000D01*
X74484719Y-126808108D01*
X74454310Y-126798727D01*
X74426747Y-126794765D01*
X74396122Y-126780779D01*
X74359959Y-126769624D01*
X74336145Y-126753388D01*
X74313477Y-126743036D01*
X74285856Y-126719102D01*
X74252084Y-126696077D01*
X74235982Y-126675885D01*
X74219371Y-126661492D01*
X74198061Y-126628334D01*
X74170681Y-126594000D01*
X74162344Y-126572757D01*
X74152048Y-126556737D01*
X74140141Y-126516185D01*
X74122982Y-126472464D01*
X74121500Y-126452700D01*
X74116967Y-126437259D01*
X74116967Y-126392200D01*
X74113225Y-126342268D01*
X74116967Y-126325872D01*
X74116967Y-126312740D01*
X74130428Y-126266892D01*
X74142277Y-126214981D01*
X74149183Y-126203019D01*
X74152048Y-126193262D01*
X74179286Y-126150879D01*
X74207558Y-126101911D01*
X74215481Y-126094559D01*
X74219371Y-126088507D01*
X74259192Y-126054000D01*
X74303266Y-126013107D01*
X74310290Y-126009724D01*
X74313477Y-126006963D01*
X74362767Y-125984452D01*
X74420897Y-125956459D01*
X74425625Y-125955746D01*
X74426747Y-125955234D01*
X74476100Y-125948138D01*
X74550000Y-125937000D01*
X75050000Y-125937000D01*
X75115281Y-125941892D01*
G37*
G36*
X75254047Y-124687805D02*
G01*
X75302661Y-124693445D01*
X75319271Y-124700779D01*
X75341079Y-124705117D01*
X75364425Y-124720716D01*
X75384012Y-124729365D01*
X75397390Y-124742743D01*
X75418291Y-124756709D01*
X75432256Y-124777609D01*
X75445634Y-124790987D01*
X75454281Y-124810572D01*
X75469883Y-124833921D01*
X75474221Y-124855731D01*
X75481554Y-124872338D01*
X75487192Y-124920942D01*
X75488000Y-124925000D01*
X75488000Y-125325000D01*
X75487192Y-125329059D01*
X75481554Y-125377661D01*
X75474221Y-125394266D01*
X75469883Y-125416079D01*
X75454280Y-125439429D01*
X75445634Y-125459012D01*
X75432258Y-125472387D01*
X75418291Y-125493291D01*
X75397387Y-125507258D01*
X75384012Y-125520634D01*
X75364429Y-125529280D01*
X75341079Y-125544883D01*
X75319266Y-125549221D01*
X75302661Y-125556554D01*
X75254059Y-125562192D01*
X75250000Y-125563000D01*
X74350000Y-125563000D01*
X74345942Y-125562192D01*
X74297338Y-125556554D01*
X74280731Y-125549221D01*
X74258921Y-125544883D01*
X74235572Y-125529281D01*
X74215987Y-125520634D01*
X74202609Y-125507256D01*
X74181709Y-125493291D01*
X74167743Y-125472390D01*
X74154365Y-125459012D01*
X74145716Y-125439425D01*
X74130117Y-125416079D01*
X74125779Y-125394271D01*
X74118445Y-125377661D01*
X74112805Y-125329047D01*
X74112000Y-125325000D01*
X74112000Y-124925000D01*
X74112804Y-124920954D01*
X74118445Y-124872338D01*
X74125779Y-124855727D01*
X74130117Y-124833921D01*
X74145715Y-124810576D01*
X74154365Y-124790987D01*
X74167745Y-124777606D01*
X74181709Y-124756709D01*
X74202606Y-124742745D01*
X74215987Y-124729365D01*
X74235576Y-124720715D01*
X74258921Y-124705117D01*
X74280727Y-124700779D01*
X74297338Y-124693445D01*
X74345954Y-124687804D01*
X74350000Y-124687000D01*
X75250000Y-124687000D01*
X75254047Y-124687805D01*
G37*
G36*
X75115281Y-120691892D02*
G01*
X75145685Y-120701270D01*
X75173252Y-120705234D01*
X75203881Y-120719222D01*
X75240041Y-120730376D01*
X75263852Y-120746609D01*
X75286522Y-120756963D01*
X75314144Y-120780898D01*
X75347916Y-120803923D01*
X75364017Y-120824113D01*
X75380628Y-120838507D01*
X75401936Y-120871663D01*
X75429319Y-120906000D01*
X75437656Y-120927243D01*
X75447951Y-120943262D01*
X75459857Y-120983810D01*
X75477018Y-121027536D01*
X75478499Y-121047298D01*
X75483033Y-121062740D01*
X75483033Y-121107799D01*
X75486775Y-121157732D01*
X75483033Y-121174127D01*
X75483033Y-121187259D01*
X75469573Y-121233097D01*
X75457723Y-121285019D01*
X75450814Y-121296984D01*
X75447951Y-121306737D01*
X75420728Y-121349095D01*
X75392442Y-121398089D01*
X75384514Y-121405444D01*
X75380628Y-121411492D01*
X75340837Y-121445970D01*
X75296734Y-121486893D01*
X75289704Y-121490278D01*
X75286522Y-121493036D01*
X75237291Y-121515519D01*
X75179103Y-121543541D01*
X75174370Y-121544254D01*
X75173252Y-121544765D01*
X75123999Y-121551846D01*
X75050000Y-121563000D01*
X75046425Y-121563000D01*
X74553575Y-121563000D01*
X74550000Y-121563000D01*
X74484719Y-121558108D01*
X74454310Y-121548727D01*
X74426747Y-121544765D01*
X74396122Y-121530779D01*
X74359959Y-121519624D01*
X74336145Y-121503388D01*
X74313477Y-121493036D01*
X74285856Y-121469102D01*
X74252084Y-121446077D01*
X74235982Y-121425885D01*
X74219371Y-121411492D01*
X74198061Y-121378334D01*
X74170681Y-121344000D01*
X74162344Y-121322757D01*
X74152048Y-121306737D01*
X74140141Y-121266185D01*
X74122982Y-121222464D01*
X74121500Y-121202700D01*
X74116967Y-121187259D01*
X74116967Y-121142200D01*
X74113225Y-121092268D01*
X74116967Y-121075872D01*
X74116967Y-121062740D01*
X74130428Y-121016892D01*
X74142277Y-120964981D01*
X74149183Y-120953019D01*
X74152048Y-120943262D01*
X74179286Y-120900879D01*
X74207558Y-120851911D01*
X74215481Y-120844559D01*
X74219371Y-120838507D01*
X74259192Y-120804000D01*
X74303266Y-120763107D01*
X74310290Y-120759724D01*
X74313477Y-120756963D01*
X74362767Y-120734452D01*
X74420897Y-120706459D01*
X74425625Y-120705746D01*
X74426747Y-120705234D01*
X74476100Y-120698138D01*
X74550000Y-120687000D01*
X75050000Y-120687000D01*
X75115281Y-120691892D01*
G37*
G36*
X75115281Y-119441892D02*
G01*
X75145685Y-119451270D01*
X75173252Y-119455234D01*
X75203881Y-119469222D01*
X75240041Y-119480376D01*
X75263852Y-119496609D01*
X75286522Y-119506963D01*
X75314144Y-119530898D01*
X75347916Y-119553923D01*
X75364017Y-119574113D01*
X75380628Y-119588507D01*
X75401936Y-119621663D01*
X75429319Y-119656000D01*
X75437656Y-119677243D01*
X75447951Y-119693262D01*
X75459857Y-119733810D01*
X75477018Y-119777536D01*
X75478499Y-119797298D01*
X75483033Y-119812740D01*
X75483033Y-119857799D01*
X75486775Y-119907732D01*
X75483033Y-119924127D01*
X75483033Y-119937259D01*
X75469573Y-119983097D01*
X75457723Y-120035019D01*
X75450814Y-120046984D01*
X75447951Y-120056737D01*
X75420728Y-120099095D01*
X75392442Y-120148089D01*
X75384514Y-120155444D01*
X75380628Y-120161492D01*
X75340837Y-120195970D01*
X75296734Y-120236893D01*
X75289704Y-120240278D01*
X75286522Y-120243036D01*
X75237291Y-120265519D01*
X75179103Y-120293541D01*
X75174370Y-120294254D01*
X75173252Y-120294765D01*
X75123999Y-120301846D01*
X75050000Y-120313000D01*
X75046425Y-120313000D01*
X74553575Y-120313000D01*
X74550000Y-120313000D01*
X74484719Y-120308108D01*
X74454310Y-120298727D01*
X74426747Y-120294765D01*
X74396122Y-120280779D01*
X74359959Y-120269624D01*
X74336145Y-120253388D01*
X74313477Y-120243036D01*
X74285856Y-120219102D01*
X74252084Y-120196077D01*
X74235982Y-120175885D01*
X74219371Y-120161492D01*
X74198061Y-120128334D01*
X74170681Y-120094000D01*
X74162344Y-120072757D01*
X74152048Y-120056737D01*
X74140141Y-120016185D01*
X74122982Y-119972464D01*
X74121500Y-119952700D01*
X74116967Y-119937259D01*
X74116967Y-119892200D01*
X74113225Y-119842268D01*
X74116967Y-119825872D01*
X74116967Y-119812740D01*
X74130428Y-119766892D01*
X74142277Y-119714981D01*
X74149183Y-119703019D01*
X74152048Y-119693262D01*
X74179286Y-119650879D01*
X74207558Y-119601911D01*
X74215481Y-119594559D01*
X74219371Y-119588507D01*
X74259192Y-119554000D01*
X74303266Y-119513107D01*
X74310290Y-119509724D01*
X74313477Y-119506963D01*
X74362767Y-119484452D01*
X74420897Y-119456459D01*
X74425625Y-119455746D01*
X74426747Y-119455234D01*
X74476100Y-119448138D01*
X74550000Y-119437000D01*
X75050000Y-119437000D01*
X75115281Y-119441892D01*
G37*
G36*
X75115281Y-118191892D02*
G01*
X75145685Y-118201270D01*
X75173252Y-118205234D01*
X75203881Y-118219222D01*
X75240041Y-118230376D01*
X75263852Y-118246609D01*
X75286522Y-118256963D01*
X75314144Y-118280898D01*
X75347916Y-118303923D01*
X75364017Y-118324113D01*
X75380628Y-118338507D01*
X75401936Y-118371663D01*
X75429319Y-118406000D01*
X75437656Y-118427243D01*
X75447951Y-118443262D01*
X75459857Y-118483810D01*
X75477018Y-118527536D01*
X75478499Y-118547298D01*
X75483033Y-118562740D01*
X75483033Y-118607799D01*
X75486775Y-118657732D01*
X75483033Y-118674127D01*
X75483033Y-118687259D01*
X75469573Y-118733097D01*
X75457723Y-118785019D01*
X75450814Y-118796984D01*
X75447951Y-118806737D01*
X75420728Y-118849095D01*
X75392442Y-118898089D01*
X75384514Y-118905444D01*
X75380628Y-118911492D01*
X75340837Y-118945970D01*
X75296734Y-118986893D01*
X75289704Y-118990278D01*
X75286522Y-118993036D01*
X75237291Y-119015519D01*
X75179103Y-119043541D01*
X75174370Y-119044254D01*
X75173252Y-119044765D01*
X75123999Y-119051846D01*
X75050000Y-119063000D01*
X75046425Y-119063000D01*
X74553575Y-119063000D01*
X74550000Y-119063000D01*
X74484719Y-119058108D01*
X74454310Y-119048727D01*
X74426747Y-119044765D01*
X74396122Y-119030779D01*
X74359959Y-119019624D01*
X74336145Y-119003388D01*
X74313477Y-118993036D01*
X74285856Y-118969102D01*
X74252084Y-118946077D01*
X74235982Y-118925885D01*
X74219371Y-118911492D01*
X74198061Y-118878334D01*
X74170681Y-118844000D01*
X74162344Y-118822757D01*
X74152048Y-118806737D01*
X74140141Y-118766185D01*
X74122982Y-118722464D01*
X74121500Y-118702700D01*
X74116967Y-118687259D01*
X74116967Y-118642200D01*
X74113225Y-118592268D01*
X74116967Y-118575872D01*
X74116967Y-118562740D01*
X74130428Y-118516892D01*
X74142277Y-118464981D01*
X74149183Y-118453019D01*
X74152048Y-118443262D01*
X74179286Y-118400879D01*
X74207558Y-118351911D01*
X74215481Y-118344559D01*
X74219371Y-118338507D01*
X74259192Y-118304000D01*
X74303266Y-118263107D01*
X74310290Y-118259724D01*
X74313477Y-118256963D01*
X74362767Y-118234452D01*
X74420897Y-118206459D01*
X74425625Y-118205746D01*
X74426747Y-118205234D01*
X74476100Y-118198138D01*
X74550000Y-118187000D01*
X75050000Y-118187000D01*
X75115281Y-118191892D01*
G37*
G36*
X75254047Y-116937805D02*
G01*
X75302661Y-116943445D01*
X75319271Y-116950779D01*
X75341079Y-116955117D01*
X75364425Y-116970716D01*
X75384012Y-116979365D01*
X75397390Y-116992743D01*
X75418291Y-117006709D01*
X75432256Y-117027609D01*
X75445634Y-117040987D01*
X75454281Y-117060572D01*
X75469883Y-117083921D01*
X75474221Y-117105731D01*
X75481554Y-117122338D01*
X75487192Y-117170942D01*
X75488000Y-117175000D01*
X75488000Y-117575000D01*
X75487192Y-117579059D01*
X75481554Y-117627661D01*
X75474221Y-117644266D01*
X75469883Y-117666079D01*
X75454280Y-117689429D01*
X75445634Y-117709012D01*
X75432258Y-117722387D01*
X75418291Y-117743291D01*
X75397387Y-117757258D01*
X75384012Y-117770634D01*
X75364429Y-117779280D01*
X75341079Y-117794883D01*
X75319266Y-117799221D01*
X75302661Y-117806554D01*
X75254059Y-117812192D01*
X75250000Y-117813000D01*
X74350000Y-117813000D01*
X74345942Y-117812192D01*
X74297338Y-117806554D01*
X74280731Y-117799221D01*
X74258921Y-117794883D01*
X74235572Y-117779281D01*
X74215987Y-117770634D01*
X74202609Y-117757256D01*
X74181709Y-117743291D01*
X74167743Y-117722390D01*
X74154365Y-117709012D01*
X74145716Y-117689425D01*
X74130117Y-117666079D01*
X74125779Y-117644271D01*
X74118445Y-117627661D01*
X74112805Y-117579047D01*
X74112000Y-117575000D01*
X74112000Y-117175000D01*
X74112804Y-117170954D01*
X74118445Y-117122338D01*
X74125779Y-117105727D01*
X74130117Y-117083921D01*
X74145715Y-117060576D01*
X74154365Y-117040987D01*
X74167745Y-117027606D01*
X74181709Y-117006709D01*
X74202606Y-116992745D01*
X74215987Y-116979365D01*
X74235576Y-116970715D01*
X74258921Y-116955117D01*
X74280727Y-116950779D01*
X74297338Y-116943445D01*
X74345954Y-116937804D01*
X74350000Y-116937000D01*
X75250000Y-116937000D01*
X75254047Y-116937805D01*
G37*
G36*
X75115281Y-112941892D02*
G01*
X75145685Y-112951270D01*
X75173252Y-112955234D01*
X75203881Y-112969222D01*
X75240041Y-112980376D01*
X75263852Y-112996609D01*
X75286522Y-113006963D01*
X75314144Y-113030898D01*
X75347916Y-113053923D01*
X75364017Y-113074113D01*
X75380628Y-113088507D01*
X75401936Y-113121663D01*
X75429319Y-113156000D01*
X75437656Y-113177243D01*
X75447951Y-113193262D01*
X75459857Y-113233810D01*
X75477018Y-113277536D01*
X75478499Y-113297298D01*
X75483033Y-113312740D01*
X75483033Y-113357799D01*
X75486775Y-113407732D01*
X75483033Y-113424127D01*
X75483033Y-113437259D01*
X75469573Y-113483097D01*
X75457723Y-113535019D01*
X75450814Y-113546984D01*
X75447951Y-113556737D01*
X75420728Y-113599095D01*
X75392442Y-113648089D01*
X75384514Y-113655444D01*
X75380628Y-113661492D01*
X75340837Y-113695970D01*
X75296734Y-113736893D01*
X75289704Y-113740278D01*
X75286522Y-113743036D01*
X75237291Y-113765519D01*
X75179103Y-113793541D01*
X75174370Y-113794254D01*
X75173252Y-113794765D01*
X75123999Y-113801846D01*
X75050000Y-113813000D01*
X75046425Y-113813000D01*
X74553575Y-113813000D01*
X74550000Y-113813000D01*
X74484719Y-113808108D01*
X74454310Y-113798727D01*
X74426747Y-113794765D01*
X74396122Y-113780779D01*
X74359959Y-113769624D01*
X74336145Y-113753388D01*
X74313477Y-113743036D01*
X74285856Y-113719102D01*
X74252084Y-113696077D01*
X74235982Y-113675885D01*
X74219371Y-113661492D01*
X74198061Y-113628334D01*
X74170681Y-113594000D01*
X74162344Y-113572757D01*
X74152048Y-113556737D01*
X74140141Y-113516185D01*
X74122982Y-113472464D01*
X74121500Y-113452700D01*
X74116967Y-113437259D01*
X74116967Y-113392200D01*
X74113225Y-113342268D01*
X74116967Y-113325872D01*
X74116967Y-113312740D01*
X74130428Y-113266892D01*
X74142277Y-113214981D01*
X74149183Y-113203019D01*
X74152048Y-113193262D01*
X74179286Y-113150879D01*
X74207558Y-113101911D01*
X74215481Y-113094559D01*
X74219371Y-113088507D01*
X74259192Y-113054000D01*
X74303266Y-113013107D01*
X74310290Y-113009724D01*
X74313477Y-113006963D01*
X74362767Y-112984452D01*
X74420897Y-112956459D01*
X74425625Y-112955746D01*
X74426747Y-112955234D01*
X74476100Y-112948138D01*
X74550000Y-112937000D01*
X75050000Y-112937000D01*
X75115281Y-112941892D01*
G37*
G36*
X126034542Y-110904893D02*
G01*
X126046870Y-110913130D01*
X126055107Y-110925458D01*
X126058000Y-110940000D01*
X126058000Y-112640000D01*
X126055107Y-112654542D01*
X126046870Y-112666870D01*
X126034542Y-112675107D01*
X126020000Y-112678000D01*
X124320000Y-112678000D01*
X124305458Y-112675107D01*
X124293130Y-112666870D01*
X124284893Y-112654542D01*
X124282000Y-112640000D01*
X124282000Y-110940000D01*
X124284893Y-110925458D01*
X124293130Y-110913130D01*
X124305458Y-110904893D01*
X124320000Y-110902000D01*
X126020000Y-110902000D01*
X126034542Y-110904893D01*
G37*
G36*
X127984407Y-110945462D02*
G01*
X128154000Y-111020969D01*
X128304188Y-111130087D01*
X128428407Y-111268047D01*
X128521228Y-111428818D01*
X128578595Y-111605374D01*
X128598000Y-111790000D01*
X128578595Y-111974626D01*
X128521228Y-112151182D01*
X128428407Y-112311953D01*
X128304188Y-112449913D01*
X128154000Y-112559031D01*
X127984407Y-112634538D01*
X127802821Y-112673135D01*
X127617179Y-112673135D01*
X127435593Y-112634538D01*
X127266000Y-112559031D01*
X127115812Y-112449913D01*
X126991593Y-112311953D01*
X126898772Y-112151182D01*
X126841405Y-111974626D01*
X126822000Y-111790000D01*
X126841405Y-111605374D01*
X126898772Y-111428818D01*
X126991593Y-111268047D01*
X127115812Y-111130087D01*
X127266000Y-111020969D01*
X127435593Y-110945462D01*
X127617179Y-110906865D01*
X127802821Y-110906865D01*
X127984407Y-110945462D01*
G37*
G36*
X130524407Y-110945462D02*
G01*
X130694000Y-111020969D01*
X130844188Y-111130087D01*
X130968407Y-111268047D01*
X131061228Y-111428818D01*
X131118595Y-111605374D01*
X131138000Y-111790000D01*
X131118595Y-111974626D01*
X131061228Y-112151182D01*
X130968407Y-112311953D01*
X130844188Y-112449913D01*
X130694000Y-112559031D01*
X130524407Y-112634538D01*
X130342821Y-112673135D01*
X130157179Y-112673135D01*
X129975593Y-112634538D01*
X129806000Y-112559031D01*
X129655812Y-112449913D01*
X129531593Y-112311953D01*
X129438772Y-112151182D01*
X129381405Y-111974626D01*
X129362000Y-111790000D01*
X129381405Y-111605374D01*
X129438772Y-111428818D01*
X129531593Y-111268047D01*
X129655812Y-111130087D01*
X129806000Y-111020969D01*
X129975593Y-110945462D01*
X130157179Y-110906865D01*
X130342821Y-110906865D01*
X130524407Y-110945462D01*
G37*
G36*
X133064407Y-110945462D02*
G01*
X133234000Y-111020969D01*
X133384188Y-111130087D01*
X133508407Y-111268047D01*
X133601228Y-111428818D01*
X133658595Y-111605374D01*
X133678000Y-111790000D01*
X133658595Y-111974626D01*
X133601228Y-112151182D01*
X133508407Y-112311953D01*
X133384188Y-112449913D01*
X133234000Y-112559031D01*
X133064407Y-112634538D01*
X132882821Y-112673135D01*
X132697179Y-112673135D01*
X132515593Y-112634538D01*
X132346000Y-112559031D01*
X132195812Y-112449913D01*
X132071593Y-112311953D01*
X131978772Y-112151182D01*
X131921405Y-111974626D01*
X131902000Y-111790000D01*
X131921405Y-111605374D01*
X131978772Y-111428818D01*
X132071593Y-111268047D01*
X132195812Y-111130087D01*
X132346000Y-111020969D01*
X132515593Y-110945462D01*
X132697179Y-110906865D01*
X132882821Y-110906865D01*
X133064407Y-110945462D01*
G37*
G36*
X135604407Y-110945462D02*
G01*
X135774000Y-111020969D01*
X135924188Y-111130087D01*
X136048407Y-111268047D01*
X136141228Y-111428818D01*
X136198595Y-111605374D01*
X136218000Y-111790000D01*
X136198595Y-111974626D01*
X136141228Y-112151182D01*
X136048407Y-112311953D01*
X135924188Y-112449913D01*
X135774000Y-112559031D01*
X135604407Y-112634538D01*
X135422821Y-112673135D01*
X135237179Y-112673135D01*
X135055593Y-112634538D01*
X134886000Y-112559031D01*
X134735812Y-112449913D01*
X134611593Y-112311953D01*
X134518772Y-112151182D01*
X134461405Y-111974626D01*
X134442000Y-111790000D01*
X134461405Y-111605374D01*
X134518772Y-111428818D01*
X134611593Y-111268047D01*
X134735812Y-111130087D01*
X134886000Y-111020969D01*
X135055593Y-110945462D01*
X135237179Y-110906865D01*
X135422821Y-110906865D01*
X135604407Y-110945462D01*
G37*
G36*
X138144407Y-110945462D02*
G01*
X138314000Y-111020969D01*
X138464188Y-111130087D01*
X138588407Y-111268047D01*
X138681228Y-111428818D01*
X138738595Y-111605374D01*
X138758000Y-111790000D01*
X138738595Y-111974626D01*
X138681228Y-112151182D01*
X138588407Y-112311953D01*
X138464188Y-112449913D01*
X138314000Y-112559031D01*
X138144407Y-112634538D01*
X137962821Y-112673135D01*
X137777179Y-112673135D01*
X137595593Y-112634538D01*
X137426000Y-112559031D01*
X137275812Y-112449913D01*
X137151593Y-112311953D01*
X137058772Y-112151182D01*
X137001405Y-111974626D01*
X136982000Y-111790000D01*
X137001405Y-111605374D01*
X137058772Y-111428818D01*
X137151593Y-111268047D01*
X137275812Y-111130087D01*
X137426000Y-111020969D01*
X137595593Y-110945462D01*
X137777179Y-110906865D01*
X137962821Y-110906865D01*
X138144407Y-110945462D01*
G37*
G36*
X171059975Y-109366720D02*
G01*
X171122394Y-109366720D01*
X171190598Y-109377000D01*
X171256240Y-109382166D01*
X171309150Y-109394868D01*
X171364459Y-109403205D01*
X171436734Y-109425499D01*
X171506170Y-109442169D01*
X171551064Y-109460765D01*
X171598374Y-109475358D01*
X171672654Y-109511129D01*
X171743636Y-109540531D01*
X171780069Y-109562857D01*
X171818935Y-109581574D01*
X171892862Y-109631977D01*
X171962792Y-109674830D01*
X171990794Y-109698746D01*
X172021186Y-109719467D01*
X172092152Y-109785314D01*
X172158241Y-109841759D01*
X172178308Y-109865255D01*
X172200635Y-109885971D01*
X172265909Y-109967823D01*
X172325170Y-110037208D01*
X172338203Y-110058476D01*
X172353264Y-110077362D01*
X172410064Y-110175743D01*
X172459469Y-110256364D01*
X172466725Y-110273882D01*
X172475659Y-110289356D01*
X172521213Y-110405427D01*
X172557831Y-110493830D01*
X172560859Y-110506445D01*
X172565095Y-110517237D01*
X172596800Y-110656151D01*
X172617834Y-110743760D01*
X172618379Y-110750695D01*
X172619565Y-110755888D01*
X172635047Y-110962486D01*
X172638000Y-111000000D01*
X172635047Y-111037516D01*
X172619565Y-111244111D01*
X172618379Y-111249303D01*
X172617834Y-111256240D01*
X172596796Y-111343867D01*
X172565095Y-111482762D01*
X172560860Y-111493551D01*
X172557831Y-111506170D01*
X172521205Y-111594590D01*
X172475659Y-111710643D01*
X172466727Y-111726113D01*
X172459469Y-111743636D01*
X172410054Y-111824272D01*
X172353264Y-111922637D01*
X172338206Y-111941519D01*
X172325170Y-111962792D01*
X172265897Y-112032190D01*
X172200635Y-112114028D01*
X172178312Y-112134740D01*
X172158241Y-112158241D01*
X172092139Y-112214697D01*
X172021186Y-112280532D01*
X171990800Y-112301248D01*
X171962792Y-112325170D01*
X171892848Y-112368031D01*
X171818935Y-112418425D01*
X171780076Y-112437137D01*
X171743636Y-112459469D01*
X171672639Y-112488876D01*
X171598374Y-112524641D01*
X171551074Y-112539231D01*
X171506170Y-112557831D01*
X171436719Y-112574504D01*
X171364459Y-112596794D01*
X171309158Y-112605129D01*
X171256240Y-112617834D01*
X171190594Y-112623000D01*
X171122394Y-112633280D01*
X171059975Y-112633280D01*
X171000000Y-112638000D01*
X170940025Y-112633280D01*
X170877606Y-112633280D01*
X170809405Y-112623000D01*
X170743760Y-112617834D01*
X170690842Y-112605129D01*
X170635540Y-112596794D01*
X170563275Y-112574503D01*
X170493830Y-112557831D01*
X170448928Y-112539232D01*
X170401625Y-112524641D01*
X170327355Y-112488874D01*
X170256364Y-112459469D01*
X170219923Y-112437138D01*
X170181065Y-112418425D01*
X170107148Y-112368029D01*
X170037208Y-112325170D01*
X170009203Y-112301251D01*
X169978813Y-112280532D01*
X169907848Y-112214686D01*
X169841759Y-112158241D01*
X169821691Y-112134744D01*
X169799364Y-112114028D01*
X169734087Y-112032173D01*
X169674830Y-111962792D01*
X169661797Y-111941524D01*
X169646735Y-111922637D01*
X169589928Y-111824244D01*
X169540531Y-111743636D01*
X169533275Y-111726119D01*
X169524340Y-111710643D01*
X169478775Y-111594544D01*
X169442169Y-111506170D01*
X169439141Y-111493558D01*
X169434904Y-111482762D01*
X169403183Y-111343783D01*
X169382166Y-111256240D01*
X169381620Y-111249309D01*
X169380434Y-111244111D01*
X169364931Y-111037250D01*
X169362000Y-111000000D01*
X169364931Y-110962752D01*
X169380434Y-110755888D01*
X169381620Y-110750688D01*
X169382166Y-110743760D01*
X169403178Y-110656235D01*
X169434904Y-110517237D01*
X169439141Y-110506439D01*
X169442169Y-110493830D01*
X169478767Y-110405473D01*
X169524340Y-110289356D01*
X169533276Y-110273876D01*
X169540531Y-110256364D01*
X169589918Y-110175771D01*
X169646735Y-110077362D01*
X169661799Y-110058471D01*
X169674830Y-110037208D01*
X169734075Y-109967840D01*
X169799364Y-109885971D01*
X169821695Y-109865250D01*
X169841759Y-109841759D01*
X169907834Y-109785324D01*
X169978813Y-109719467D01*
X170009209Y-109698743D01*
X170037208Y-109674830D01*
X170107133Y-109631979D01*
X170181065Y-109581574D01*
X170219931Y-109562856D01*
X170256364Y-109540531D01*
X170327341Y-109511131D01*
X170401625Y-109475358D01*
X170448938Y-109460763D01*
X170493830Y-109442169D01*
X170563260Y-109425500D01*
X170635540Y-109403205D01*
X170690851Y-109394868D01*
X170743760Y-109382166D01*
X170809401Y-109377000D01*
X170877606Y-109366720D01*
X170940025Y-109366720D01*
X171000000Y-109362000D01*
X171059975Y-109366720D01*
G37*
G36*
X148215869Y-110916967D02*
G01*
X148269450Y-110916967D01*
X148285721Y-110921744D01*
X148299189Y-110922666D01*
X148348293Y-110940117D01*
X148402723Y-110956100D01*
X148414427Y-110963622D01*
X148424295Y-110967129D01*
X148469128Y-110998776D01*
X148519572Y-111031194D01*
X148526687Y-111039405D01*
X148532764Y-111043695D01*
X148569026Y-111088267D01*
X148610532Y-111136167D01*
X148613777Y-111143272D01*
X148616554Y-111146686D01*
X148640259Y-111201261D01*
X148668233Y-111262515D01*
X148668909Y-111267219D01*
X148669452Y-111268469D01*
X148677332Y-111325807D01*
X148688000Y-111400000D01*
X148688000Y-112100000D01*
X148687777Y-112101545D01*
X148683456Y-112164714D01*
X148673678Y-112199611D01*
X148668233Y-112237485D01*
X148654865Y-112266756D01*
X148647167Y-112294232D01*
X148627692Y-112326257D01*
X148610532Y-112363833D01*
X148591451Y-112385852D01*
X148578182Y-112407674D01*
X148548620Y-112435282D01*
X148519572Y-112468806D01*
X148497618Y-112482914D01*
X148481148Y-112498297D01*
X148442612Y-112518264D01*
X148402723Y-112543900D01*
X148380605Y-112550394D01*
X148363264Y-112559380D01*
X148317900Y-112568806D01*
X148269450Y-112583033D01*
X148249437Y-112583033D01*
X148233268Y-112586393D01*
X148184145Y-112583033D01*
X148130550Y-112583033D01*
X148114274Y-112578253D01*
X148100810Y-112577333D01*
X148051717Y-112559885D01*
X147997277Y-112543900D01*
X147985570Y-112536376D01*
X147975704Y-112532870D01*
X147930875Y-112501226D01*
X147880428Y-112468806D01*
X147873311Y-112460593D01*
X147867235Y-112456304D01*
X147830970Y-112411728D01*
X147789468Y-112363833D01*
X147786223Y-112356727D01*
X147783445Y-112353313D01*
X147759728Y-112298712D01*
X147731767Y-112237485D01*
X147731090Y-112232782D01*
X147730547Y-112231530D01*
X147722657Y-112174123D01*
X147712000Y-112100000D01*
X147712000Y-111400000D01*
X147712221Y-111398456D01*
X147716543Y-111335285D01*
X147726323Y-111300379D01*
X147731767Y-111262515D01*
X147745131Y-111233250D01*
X147752832Y-111205767D01*
X147772312Y-111173732D01*
X147789468Y-111136167D01*
X147808542Y-111114153D01*
X147821817Y-111092325D01*
X147851388Y-111064707D01*
X147880428Y-111031194D01*
X147902374Y-111017089D01*
X147918851Y-111001702D01*
X147957399Y-110981727D01*
X147997277Y-110956100D01*
X148019388Y-110949607D01*
X148036735Y-110940619D01*
X148082113Y-110931189D01*
X148130550Y-110916967D01*
X148150557Y-110916967D01*
X148166731Y-110913606D01*
X148215869Y-110916967D01*
G37*
G36*
X154815869Y-110916967D02*
G01*
X154869450Y-110916967D01*
X154885721Y-110921744D01*
X154899189Y-110922666D01*
X154948293Y-110940117D01*
X155002723Y-110956100D01*
X155014427Y-110963622D01*
X155024295Y-110967129D01*
X155069128Y-110998776D01*
X155119572Y-111031194D01*
X155126687Y-111039405D01*
X155132764Y-111043695D01*
X155169026Y-111088267D01*
X155210532Y-111136167D01*
X155213777Y-111143272D01*
X155216554Y-111146686D01*
X155240259Y-111201261D01*
X155268233Y-111262515D01*
X155268909Y-111267219D01*
X155269452Y-111268469D01*
X155277332Y-111325807D01*
X155288000Y-111400000D01*
X155288000Y-112100000D01*
X155287777Y-112101545D01*
X155283456Y-112164714D01*
X155273678Y-112199611D01*
X155268233Y-112237485D01*
X155254865Y-112266756D01*
X155247167Y-112294232D01*
X155227692Y-112326257D01*
X155210532Y-112363833D01*
X155191451Y-112385852D01*
X155178182Y-112407674D01*
X155148620Y-112435282D01*
X155119572Y-112468806D01*
X155097618Y-112482914D01*
X155081148Y-112498297D01*
X155042612Y-112518264D01*
X155002723Y-112543900D01*
X154980605Y-112550394D01*
X154963264Y-112559380D01*
X154917900Y-112568806D01*
X154869450Y-112583033D01*
X154849437Y-112583033D01*
X154833268Y-112586393D01*
X154784145Y-112583033D01*
X154730550Y-112583033D01*
X154714274Y-112578253D01*
X154700810Y-112577333D01*
X154651717Y-112559885D01*
X154597277Y-112543900D01*
X154585570Y-112536376D01*
X154575704Y-112532870D01*
X154530875Y-112501226D01*
X154480428Y-112468806D01*
X154473311Y-112460593D01*
X154467235Y-112456304D01*
X154430970Y-112411728D01*
X154389468Y-112363833D01*
X154386223Y-112356727D01*
X154383445Y-112353313D01*
X154359728Y-112298712D01*
X154331767Y-112237485D01*
X154331090Y-112232782D01*
X154330547Y-112231530D01*
X154322657Y-112174123D01*
X154312000Y-112100000D01*
X154312000Y-111400000D01*
X154312221Y-111398456D01*
X154316543Y-111335285D01*
X154326323Y-111300379D01*
X154331767Y-111262515D01*
X154345131Y-111233250D01*
X154352832Y-111205767D01*
X154372312Y-111173732D01*
X154389468Y-111136167D01*
X154408542Y-111114153D01*
X154421817Y-111092325D01*
X154451388Y-111064707D01*
X154480428Y-111031194D01*
X154502374Y-111017089D01*
X154518851Y-111001702D01*
X154557399Y-110981727D01*
X154597277Y-110956100D01*
X154619388Y-110949607D01*
X154636735Y-110940619D01*
X154682113Y-110931189D01*
X154730550Y-110916967D01*
X154750557Y-110916967D01*
X154766731Y-110913606D01*
X154815869Y-110916967D01*
G37*
G36*
X75115281Y-111691892D02*
G01*
X75145685Y-111701270D01*
X75173252Y-111705234D01*
X75203881Y-111719222D01*
X75240041Y-111730376D01*
X75263852Y-111746609D01*
X75286522Y-111756963D01*
X75314144Y-111780898D01*
X75347916Y-111803923D01*
X75364017Y-111824113D01*
X75380628Y-111838507D01*
X75401936Y-111871663D01*
X75429319Y-111906000D01*
X75437656Y-111927243D01*
X75447951Y-111943262D01*
X75459857Y-111983810D01*
X75477018Y-112027536D01*
X75478499Y-112047298D01*
X75483033Y-112062740D01*
X75483033Y-112107799D01*
X75486775Y-112157732D01*
X75483033Y-112174127D01*
X75483033Y-112187259D01*
X75469573Y-112233097D01*
X75457723Y-112285019D01*
X75450814Y-112296984D01*
X75447951Y-112306737D01*
X75420728Y-112349095D01*
X75392442Y-112398089D01*
X75384514Y-112405444D01*
X75380628Y-112411492D01*
X75340837Y-112445970D01*
X75296734Y-112486893D01*
X75289704Y-112490278D01*
X75286522Y-112493036D01*
X75237291Y-112515519D01*
X75179103Y-112543541D01*
X75174370Y-112544254D01*
X75173252Y-112544765D01*
X75123999Y-112551846D01*
X75050000Y-112563000D01*
X75046425Y-112563000D01*
X74553575Y-112563000D01*
X74550000Y-112563000D01*
X74484719Y-112558108D01*
X74454310Y-112548727D01*
X74426747Y-112544765D01*
X74396122Y-112530779D01*
X74359959Y-112519624D01*
X74336145Y-112503388D01*
X74313477Y-112493036D01*
X74285856Y-112469102D01*
X74252084Y-112446077D01*
X74235982Y-112425885D01*
X74219371Y-112411492D01*
X74198061Y-112378334D01*
X74170681Y-112344000D01*
X74162344Y-112322757D01*
X74152048Y-112306737D01*
X74140141Y-112266185D01*
X74122982Y-112222464D01*
X74121500Y-112202700D01*
X74116967Y-112187259D01*
X74116967Y-112142200D01*
X74113225Y-112092268D01*
X74116967Y-112075872D01*
X74116967Y-112062740D01*
X74130428Y-112016892D01*
X74142277Y-111964981D01*
X74149183Y-111953019D01*
X74152048Y-111943262D01*
X74179286Y-111900879D01*
X74207558Y-111851911D01*
X74215481Y-111844559D01*
X74219371Y-111838507D01*
X74259192Y-111804000D01*
X74303266Y-111763107D01*
X74310290Y-111759724D01*
X74313477Y-111756963D01*
X74362767Y-111734452D01*
X74420897Y-111706459D01*
X74425625Y-111705746D01*
X74426747Y-111705234D01*
X74476100Y-111698138D01*
X74550000Y-111687000D01*
X75050000Y-111687000D01*
X75115281Y-111691892D01*
G37*
G36*
X75115281Y-110441892D02*
G01*
X75145685Y-110451270D01*
X75173252Y-110455234D01*
X75203881Y-110469222D01*
X75240041Y-110480376D01*
X75263852Y-110496609D01*
X75286522Y-110506963D01*
X75314144Y-110530898D01*
X75347916Y-110553923D01*
X75364017Y-110574113D01*
X75380628Y-110588507D01*
X75401936Y-110621663D01*
X75429319Y-110656000D01*
X75437656Y-110677243D01*
X75447951Y-110693262D01*
X75459857Y-110733810D01*
X75477018Y-110777536D01*
X75478499Y-110797298D01*
X75483033Y-110812740D01*
X75483033Y-110857799D01*
X75486775Y-110907732D01*
X75483033Y-110924127D01*
X75483033Y-110937259D01*
X75469573Y-110983097D01*
X75457723Y-111035019D01*
X75450814Y-111046984D01*
X75447951Y-111056737D01*
X75420728Y-111099095D01*
X75392442Y-111148089D01*
X75384514Y-111155444D01*
X75380628Y-111161492D01*
X75340837Y-111195970D01*
X75296734Y-111236893D01*
X75289704Y-111240278D01*
X75286522Y-111243036D01*
X75237291Y-111265519D01*
X75179103Y-111293541D01*
X75174370Y-111294254D01*
X75173252Y-111294765D01*
X75123999Y-111301846D01*
X75050000Y-111313000D01*
X75046425Y-111313000D01*
X74553575Y-111313000D01*
X74550000Y-111313000D01*
X74484719Y-111308108D01*
X74454310Y-111298727D01*
X74426747Y-111294765D01*
X74396122Y-111280779D01*
X74359959Y-111269624D01*
X74336145Y-111253388D01*
X74313477Y-111243036D01*
X74285856Y-111219102D01*
X74252084Y-111196077D01*
X74235982Y-111175885D01*
X74219371Y-111161492D01*
X74198061Y-111128334D01*
X74170681Y-111094000D01*
X74162344Y-111072757D01*
X74152048Y-111056737D01*
X74140141Y-111016185D01*
X74122982Y-110972464D01*
X74121500Y-110952700D01*
X74116967Y-110937259D01*
X74116967Y-110892200D01*
X74113225Y-110842268D01*
X74116967Y-110825872D01*
X74116967Y-110812740D01*
X74130428Y-110766892D01*
X74142277Y-110714981D01*
X74149183Y-110703019D01*
X74152048Y-110693262D01*
X74179286Y-110650879D01*
X74207558Y-110601911D01*
X74215481Y-110594559D01*
X74219371Y-110588507D01*
X74259192Y-110554000D01*
X74303266Y-110513107D01*
X74310290Y-110509724D01*
X74313477Y-110506963D01*
X74362767Y-110484452D01*
X74420897Y-110456459D01*
X74425625Y-110455746D01*
X74426747Y-110455234D01*
X74476100Y-110448138D01*
X74550000Y-110437000D01*
X75050000Y-110437000D01*
X75115281Y-110441892D01*
G37*
G36*
X125444407Y-108405462D02*
G01*
X125614000Y-108480969D01*
X125764188Y-108590087D01*
X125888407Y-108728047D01*
X125981228Y-108888818D01*
X126038595Y-109065374D01*
X126058000Y-109250000D01*
X126038595Y-109434626D01*
X125981228Y-109611182D01*
X125888407Y-109771953D01*
X125764188Y-109909913D01*
X125614000Y-110019031D01*
X125444407Y-110094538D01*
X125262821Y-110133135D01*
X125077179Y-110133135D01*
X124895593Y-110094538D01*
X124726000Y-110019031D01*
X124575812Y-109909913D01*
X124451593Y-109771953D01*
X124358772Y-109611182D01*
X124301405Y-109434626D01*
X124282000Y-109250000D01*
X124301405Y-109065374D01*
X124358772Y-108888818D01*
X124451593Y-108728047D01*
X124575812Y-108590087D01*
X124726000Y-108480969D01*
X124895593Y-108405462D01*
X125077179Y-108366865D01*
X125262821Y-108366865D01*
X125444407Y-108405462D01*
G37*
G36*
X127984407Y-108405462D02*
G01*
X128154000Y-108480969D01*
X128304188Y-108590087D01*
X128428407Y-108728047D01*
X128521228Y-108888818D01*
X128578595Y-109065374D01*
X128598000Y-109250000D01*
X128578595Y-109434626D01*
X128521228Y-109611182D01*
X128428407Y-109771953D01*
X128304188Y-109909913D01*
X128154000Y-110019031D01*
X127984407Y-110094538D01*
X127802821Y-110133135D01*
X127617179Y-110133135D01*
X127435593Y-110094538D01*
X127266000Y-110019031D01*
X127115812Y-109909913D01*
X126991593Y-109771953D01*
X126898772Y-109611182D01*
X126841405Y-109434626D01*
X126822000Y-109250000D01*
X126841405Y-109065374D01*
X126898772Y-108888818D01*
X126991593Y-108728047D01*
X127115812Y-108590087D01*
X127266000Y-108480969D01*
X127435593Y-108405462D01*
X127617179Y-108366865D01*
X127802821Y-108366865D01*
X127984407Y-108405462D01*
G37*
G36*
X130524407Y-108405462D02*
G01*
X130694000Y-108480969D01*
X130844188Y-108590087D01*
X130968407Y-108728047D01*
X131061228Y-108888818D01*
X131118595Y-109065374D01*
X131138000Y-109250000D01*
X131118595Y-109434626D01*
X131061228Y-109611182D01*
X130968407Y-109771953D01*
X130844188Y-109909913D01*
X130694000Y-110019031D01*
X130524407Y-110094538D01*
X130342821Y-110133135D01*
X130157179Y-110133135D01*
X129975593Y-110094538D01*
X129806000Y-110019031D01*
X129655812Y-109909913D01*
X129531593Y-109771953D01*
X129438772Y-109611182D01*
X129381405Y-109434626D01*
X129362000Y-109250000D01*
X129381405Y-109065374D01*
X129438772Y-108888818D01*
X129531593Y-108728047D01*
X129655812Y-108590087D01*
X129806000Y-108480969D01*
X129975593Y-108405462D01*
X130157179Y-108366865D01*
X130342821Y-108366865D01*
X130524407Y-108405462D01*
G37*
G36*
X133064407Y-108405462D02*
G01*
X133234000Y-108480969D01*
X133384188Y-108590087D01*
X133508407Y-108728047D01*
X133601228Y-108888818D01*
X133658595Y-109065374D01*
X133678000Y-109250000D01*
X133658595Y-109434626D01*
X133601228Y-109611182D01*
X133508407Y-109771953D01*
X133384188Y-109909913D01*
X133234000Y-110019031D01*
X133064407Y-110094538D01*
X132882821Y-110133135D01*
X132697179Y-110133135D01*
X132515593Y-110094538D01*
X132346000Y-110019031D01*
X132195812Y-109909913D01*
X132071593Y-109771953D01*
X131978772Y-109611182D01*
X131921405Y-109434626D01*
X131902000Y-109250000D01*
X131921405Y-109065374D01*
X131978772Y-108888818D01*
X132071593Y-108728047D01*
X132195812Y-108590087D01*
X132346000Y-108480969D01*
X132515593Y-108405462D01*
X132697179Y-108366865D01*
X132882821Y-108366865D01*
X133064407Y-108405462D01*
G37*
G36*
X135604407Y-108405462D02*
G01*
X135774000Y-108480969D01*
X135924188Y-108590087D01*
X136048407Y-108728047D01*
X136141228Y-108888818D01*
X136198595Y-109065374D01*
X136218000Y-109250000D01*
X136198595Y-109434626D01*
X136141228Y-109611182D01*
X136048407Y-109771953D01*
X135924188Y-109909913D01*
X135774000Y-110019031D01*
X135604407Y-110094538D01*
X135422821Y-110133135D01*
X135237179Y-110133135D01*
X135055593Y-110094538D01*
X134886000Y-110019031D01*
X134735812Y-109909913D01*
X134611593Y-109771953D01*
X134518772Y-109611182D01*
X134461405Y-109434626D01*
X134442000Y-109250000D01*
X134461405Y-109065374D01*
X134518772Y-108888818D01*
X134611593Y-108728047D01*
X134735812Y-108590087D01*
X134886000Y-108480969D01*
X135055593Y-108405462D01*
X135237179Y-108366865D01*
X135422821Y-108366865D01*
X135604407Y-108405462D01*
G37*
G36*
X138144407Y-108405462D02*
G01*
X138314000Y-108480969D01*
X138464188Y-108590087D01*
X138588407Y-108728047D01*
X138681228Y-108888818D01*
X138738595Y-109065374D01*
X138758000Y-109250000D01*
X138738595Y-109434626D01*
X138681228Y-109611182D01*
X138588407Y-109771953D01*
X138464188Y-109909913D01*
X138314000Y-110019031D01*
X138144407Y-110094538D01*
X137962821Y-110133135D01*
X137777179Y-110133135D01*
X137595593Y-110094538D01*
X137426000Y-110019031D01*
X137275812Y-109909913D01*
X137151593Y-109771953D01*
X137058772Y-109611182D01*
X137001405Y-109434626D01*
X136982000Y-109250000D01*
X137001405Y-109065374D01*
X137058772Y-108888818D01*
X137151593Y-108728047D01*
X137275812Y-108590087D01*
X137426000Y-108480969D01*
X137595593Y-108405462D01*
X137777179Y-108366865D01*
X137962821Y-108366865D01*
X138144407Y-108405462D01*
G37*
G36*
X75254047Y-109187805D02*
G01*
X75302661Y-109193445D01*
X75319271Y-109200779D01*
X75341079Y-109205117D01*
X75364425Y-109220716D01*
X75384012Y-109229365D01*
X75397390Y-109242743D01*
X75418291Y-109256709D01*
X75432256Y-109277609D01*
X75445634Y-109290987D01*
X75454281Y-109310572D01*
X75469883Y-109333921D01*
X75474221Y-109355731D01*
X75481554Y-109372338D01*
X75487192Y-109420942D01*
X75488000Y-109425000D01*
X75488000Y-109825000D01*
X75487192Y-109829059D01*
X75481554Y-109877661D01*
X75474221Y-109894266D01*
X75469883Y-109916079D01*
X75454280Y-109939429D01*
X75445634Y-109959012D01*
X75432258Y-109972387D01*
X75418291Y-109993291D01*
X75397387Y-110007258D01*
X75384012Y-110020634D01*
X75364429Y-110029280D01*
X75341079Y-110044883D01*
X75319266Y-110049221D01*
X75302661Y-110056554D01*
X75254059Y-110062192D01*
X75250000Y-110063000D01*
X74350000Y-110063000D01*
X74345942Y-110062192D01*
X74297338Y-110056554D01*
X74280731Y-110049221D01*
X74258921Y-110044883D01*
X74235572Y-110029281D01*
X74215987Y-110020634D01*
X74202609Y-110007256D01*
X74181709Y-109993291D01*
X74167743Y-109972390D01*
X74154365Y-109959012D01*
X74145716Y-109939425D01*
X74130117Y-109916079D01*
X74125779Y-109894271D01*
X74118445Y-109877661D01*
X74112805Y-109829047D01*
X74112000Y-109825000D01*
X74112000Y-109425000D01*
X74112804Y-109420954D01*
X74118445Y-109372338D01*
X74125779Y-109355727D01*
X74130117Y-109333921D01*
X74145715Y-109310576D01*
X74154365Y-109290987D01*
X74167745Y-109277606D01*
X74181709Y-109256709D01*
X74202606Y-109242745D01*
X74215987Y-109229365D01*
X74235576Y-109220715D01*
X74258921Y-109205117D01*
X74280727Y-109200779D01*
X74297338Y-109193445D01*
X74345954Y-109187804D01*
X74350000Y-109187000D01*
X75250000Y-109187000D01*
X75254047Y-109187805D01*
G37*
G36*
X75115281Y-105191892D02*
G01*
X75145685Y-105201270D01*
X75173252Y-105205234D01*
X75203881Y-105219222D01*
X75240041Y-105230376D01*
X75263852Y-105246609D01*
X75286522Y-105256963D01*
X75314144Y-105280898D01*
X75347916Y-105303923D01*
X75364017Y-105324113D01*
X75380628Y-105338507D01*
X75401936Y-105371663D01*
X75429319Y-105406000D01*
X75437656Y-105427243D01*
X75447951Y-105443262D01*
X75459857Y-105483810D01*
X75477018Y-105527536D01*
X75478499Y-105547298D01*
X75483033Y-105562740D01*
X75483033Y-105607799D01*
X75486775Y-105657732D01*
X75483033Y-105674127D01*
X75483033Y-105687259D01*
X75469573Y-105733097D01*
X75457723Y-105785019D01*
X75450814Y-105796984D01*
X75447951Y-105806737D01*
X75420728Y-105849095D01*
X75392442Y-105898089D01*
X75384514Y-105905444D01*
X75380628Y-105911492D01*
X75340837Y-105945970D01*
X75296734Y-105986893D01*
X75289704Y-105990278D01*
X75286522Y-105993036D01*
X75237291Y-106015519D01*
X75179103Y-106043541D01*
X75174370Y-106044254D01*
X75173252Y-106044765D01*
X75123999Y-106051846D01*
X75050000Y-106063000D01*
X75046425Y-106063000D01*
X74553575Y-106063000D01*
X74550000Y-106063000D01*
X74484719Y-106058108D01*
X74454310Y-106048727D01*
X74426747Y-106044765D01*
X74396122Y-106030779D01*
X74359959Y-106019624D01*
X74336145Y-106003388D01*
X74313477Y-105993036D01*
X74285856Y-105969102D01*
X74252084Y-105946077D01*
X74235982Y-105925885D01*
X74219371Y-105911492D01*
X74198061Y-105878334D01*
X74170681Y-105844000D01*
X74162344Y-105822757D01*
X74152048Y-105806737D01*
X74140141Y-105766185D01*
X74122982Y-105722464D01*
X74121500Y-105702700D01*
X74116967Y-105687259D01*
X74116967Y-105642200D01*
X74113225Y-105592268D01*
X74116967Y-105575872D01*
X74116967Y-105562740D01*
X74130428Y-105516892D01*
X74142277Y-105464981D01*
X74149183Y-105453019D01*
X74152048Y-105443262D01*
X74179286Y-105400879D01*
X74207558Y-105351911D01*
X74215481Y-105344559D01*
X74219371Y-105338507D01*
X74259192Y-105304000D01*
X74303266Y-105263107D01*
X74310290Y-105259724D01*
X74313477Y-105256963D01*
X74362767Y-105234452D01*
X74420897Y-105206459D01*
X74425625Y-105205746D01*
X74426747Y-105205234D01*
X74476100Y-105198138D01*
X74550000Y-105187000D01*
X75050000Y-105187000D01*
X75115281Y-105191892D01*
G37*
G36*
X75115281Y-103941892D02*
G01*
X75145685Y-103951270D01*
X75173252Y-103955234D01*
X75203881Y-103969222D01*
X75240041Y-103980376D01*
X75263852Y-103996609D01*
X75286522Y-104006963D01*
X75314144Y-104030898D01*
X75347916Y-104053923D01*
X75364017Y-104074113D01*
X75380628Y-104088507D01*
X75401936Y-104121663D01*
X75429319Y-104156000D01*
X75437656Y-104177243D01*
X75447951Y-104193262D01*
X75459857Y-104233810D01*
X75477018Y-104277536D01*
X75478499Y-104297298D01*
X75483033Y-104312740D01*
X75483033Y-104357799D01*
X75486775Y-104407732D01*
X75483033Y-104424127D01*
X75483033Y-104437259D01*
X75469573Y-104483097D01*
X75457723Y-104535019D01*
X75450814Y-104546984D01*
X75447951Y-104556737D01*
X75420728Y-104599095D01*
X75392442Y-104648089D01*
X75384514Y-104655444D01*
X75380628Y-104661492D01*
X75340837Y-104695970D01*
X75296734Y-104736893D01*
X75289704Y-104740278D01*
X75286522Y-104743036D01*
X75237291Y-104765519D01*
X75179103Y-104793541D01*
X75174370Y-104794254D01*
X75173252Y-104794765D01*
X75123999Y-104801846D01*
X75050000Y-104813000D01*
X75046425Y-104813000D01*
X74553575Y-104813000D01*
X74550000Y-104813000D01*
X74484719Y-104808108D01*
X74454310Y-104798727D01*
X74426747Y-104794765D01*
X74396122Y-104780779D01*
X74359959Y-104769624D01*
X74336145Y-104753388D01*
X74313477Y-104743036D01*
X74285856Y-104719102D01*
X74252084Y-104696077D01*
X74235982Y-104675885D01*
X74219371Y-104661492D01*
X74198061Y-104628334D01*
X74170681Y-104594000D01*
X74162344Y-104572757D01*
X74152048Y-104556737D01*
X74140141Y-104516185D01*
X74122982Y-104472464D01*
X74121500Y-104452700D01*
X74116967Y-104437259D01*
X74116967Y-104392200D01*
X74113225Y-104342268D01*
X74116967Y-104325872D01*
X74116967Y-104312740D01*
X74130428Y-104266892D01*
X74142277Y-104214981D01*
X74149183Y-104203019D01*
X74152048Y-104193262D01*
X74179286Y-104150879D01*
X74207558Y-104101911D01*
X74215481Y-104094559D01*
X74219371Y-104088507D01*
X74259192Y-104054000D01*
X74303266Y-104013107D01*
X74310290Y-104009724D01*
X74313477Y-104006963D01*
X74362767Y-103984452D01*
X74420897Y-103956459D01*
X74425625Y-103955746D01*
X74426747Y-103955234D01*
X74476100Y-103948138D01*
X74550000Y-103937000D01*
X75050000Y-103937000D01*
X75115281Y-103941892D01*
G37*
G36*
X75115281Y-102691892D02*
G01*
X75145685Y-102701270D01*
X75173252Y-102705234D01*
X75203881Y-102719222D01*
X75240041Y-102730376D01*
X75263852Y-102746609D01*
X75286522Y-102756963D01*
X75314144Y-102780898D01*
X75347916Y-102803923D01*
X75364017Y-102824113D01*
X75380628Y-102838507D01*
X75401936Y-102871663D01*
X75429319Y-102906000D01*
X75437656Y-102927243D01*
X75447951Y-102943262D01*
X75459857Y-102983810D01*
X75477018Y-103027536D01*
X75478499Y-103047298D01*
X75483033Y-103062740D01*
X75483033Y-103107799D01*
X75486775Y-103157732D01*
X75483033Y-103174127D01*
X75483033Y-103187259D01*
X75469573Y-103233097D01*
X75457723Y-103285019D01*
X75450814Y-103296984D01*
X75447951Y-103306737D01*
X75420728Y-103349095D01*
X75392442Y-103398089D01*
X75384514Y-103405444D01*
X75380628Y-103411492D01*
X75340837Y-103445970D01*
X75296734Y-103486893D01*
X75289704Y-103490278D01*
X75286522Y-103493036D01*
X75237291Y-103515519D01*
X75179103Y-103543541D01*
X75174370Y-103544254D01*
X75173252Y-103544765D01*
X75123999Y-103551846D01*
X75050000Y-103563000D01*
X75046425Y-103563000D01*
X74553575Y-103563000D01*
X74550000Y-103563000D01*
X74484719Y-103558108D01*
X74454310Y-103548727D01*
X74426747Y-103544765D01*
X74396122Y-103530779D01*
X74359959Y-103519624D01*
X74336145Y-103503388D01*
X74313477Y-103493036D01*
X74285856Y-103469102D01*
X74252084Y-103446077D01*
X74235982Y-103425885D01*
X74219371Y-103411492D01*
X74198061Y-103378334D01*
X74170681Y-103344000D01*
X74162344Y-103322757D01*
X74152048Y-103306737D01*
X74140141Y-103266185D01*
X74122982Y-103222464D01*
X74121500Y-103202700D01*
X74116967Y-103187259D01*
X74116967Y-103142200D01*
X74113225Y-103092268D01*
X74116967Y-103075872D01*
X74116967Y-103062740D01*
X74130428Y-103016892D01*
X74142277Y-102964981D01*
X74149183Y-102953019D01*
X74152048Y-102943262D01*
X74179286Y-102900879D01*
X74207558Y-102851911D01*
X74215481Y-102844559D01*
X74219371Y-102838507D01*
X74259192Y-102804000D01*
X74303266Y-102763107D01*
X74310290Y-102759724D01*
X74313477Y-102756963D01*
X74362767Y-102734452D01*
X74420897Y-102706459D01*
X74425625Y-102705746D01*
X74426747Y-102705234D01*
X74476100Y-102698138D01*
X74550000Y-102687000D01*
X75050000Y-102687000D01*
X75115281Y-102691892D01*
G37*
G36*
X75254047Y-101437805D02*
G01*
X75302661Y-101443445D01*
X75319271Y-101450779D01*
X75341079Y-101455117D01*
X75364425Y-101470716D01*
X75384012Y-101479365D01*
X75397390Y-101492743D01*
X75418291Y-101506709D01*
X75432256Y-101527609D01*
X75445634Y-101540987D01*
X75454281Y-101560572D01*
X75469883Y-101583921D01*
X75474221Y-101605731D01*
X75481554Y-101622338D01*
X75487192Y-101670942D01*
X75488000Y-101675000D01*
X75488000Y-102075000D01*
X75487192Y-102079059D01*
X75481554Y-102127661D01*
X75474221Y-102144266D01*
X75469883Y-102166079D01*
X75454280Y-102189429D01*
X75445634Y-102209012D01*
X75432258Y-102222387D01*
X75418291Y-102243291D01*
X75397387Y-102257258D01*
X75384012Y-102270634D01*
X75364429Y-102279280D01*
X75341079Y-102294883D01*
X75319266Y-102299221D01*
X75302661Y-102306554D01*
X75254059Y-102312192D01*
X75250000Y-102313000D01*
X74350000Y-102313000D01*
X74345942Y-102312192D01*
X74297338Y-102306554D01*
X74280731Y-102299221D01*
X74258921Y-102294883D01*
X74235572Y-102279281D01*
X74215987Y-102270634D01*
X74202609Y-102257256D01*
X74181709Y-102243291D01*
X74167743Y-102222390D01*
X74154365Y-102209012D01*
X74145716Y-102189425D01*
X74130117Y-102166079D01*
X74125779Y-102144271D01*
X74118445Y-102127661D01*
X74112805Y-102079047D01*
X74112000Y-102075000D01*
X74112000Y-101675000D01*
X74112804Y-101670954D01*
X74118445Y-101622338D01*
X74125779Y-101605727D01*
X74130117Y-101583921D01*
X74145715Y-101560576D01*
X74154365Y-101540987D01*
X74167745Y-101527606D01*
X74181709Y-101506709D01*
X74202606Y-101492745D01*
X74215987Y-101479365D01*
X74235576Y-101470715D01*
X74258921Y-101455117D01*
X74280727Y-101450779D01*
X74297338Y-101443445D01*
X74345954Y-101437804D01*
X74350000Y-101437000D01*
X75250000Y-101437000D01*
X75254047Y-101437805D01*
G37*
G36*
X75115281Y-97441892D02*
G01*
X75145685Y-97451270D01*
X75173252Y-97455234D01*
X75203881Y-97469222D01*
X75240041Y-97480376D01*
X75263852Y-97496609D01*
X75286522Y-97506963D01*
X75314144Y-97530898D01*
X75347916Y-97553923D01*
X75364017Y-97574113D01*
X75380628Y-97588507D01*
X75401936Y-97621663D01*
X75429319Y-97656000D01*
X75437656Y-97677243D01*
X75447951Y-97693262D01*
X75459857Y-97733810D01*
X75477018Y-97777536D01*
X75478499Y-97797298D01*
X75483033Y-97812740D01*
X75483033Y-97857799D01*
X75486775Y-97907732D01*
X75483033Y-97924127D01*
X75483033Y-97937259D01*
X75469573Y-97983097D01*
X75457723Y-98035019D01*
X75450814Y-98046984D01*
X75447951Y-98056737D01*
X75420728Y-98099095D01*
X75392442Y-98148089D01*
X75384514Y-98155444D01*
X75380628Y-98161492D01*
X75340837Y-98195970D01*
X75296734Y-98236893D01*
X75289704Y-98240278D01*
X75286522Y-98243036D01*
X75237291Y-98265519D01*
X75179103Y-98293541D01*
X75174370Y-98294254D01*
X75173252Y-98294765D01*
X75123999Y-98301846D01*
X75050000Y-98313000D01*
X75046425Y-98313000D01*
X74553575Y-98313000D01*
X74550000Y-98313000D01*
X74484719Y-98308108D01*
X74454310Y-98298727D01*
X74426747Y-98294765D01*
X74396122Y-98280779D01*
X74359959Y-98269624D01*
X74336145Y-98253388D01*
X74313477Y-98243036D01*
X74285856Y-98219102D01*
X74252084Y-98196077D01*
X74235982Y-98175885D01*
X74219371Y-98161492D01*
X74198061Y-98128334D01*
X74170681Y-98094000D01*
X74162344Y-98072757D01*
X74152048Y-98056737D01*
X74140141Y-98016185D01*
X74122982Y-97972464D01*
X74121500Y-97952700D01*
X74116967Y-97937259D01*
X74116967Y-97892200D01*
X74113225Y-97842268D01*
X74116967Y-97825872D01*
X74116967Y-97812740D01*
X74130428Y-97766892D01*
X74142277Y-97714981D01*
X74149183Y-97703019D01*
X74152048Y-97693262D01*
X74179286Y-97650879D01*
X74207558Y-97601911D01*
X74215481Y-97594559D01*
X74219371Y-97588507D01*
X74259192Y-97554000D01*
X74303266Y-97513107D01*
X74310290Y-97509724D01*
X74313477Y-97506963D01*
X74362767Y-97484452D01*
X74420897Y-97456459D01*
X74425625Y-97455746D01*
X74426747Y-97455234D01*
X74476100Y-97448138D01*
X74550000Y-97437000D01*
X75050000Y-97437000D01*
X75115281Y-97441892D01*
G37*
G36*
X75115281Y-96191892D02*
G01*
X75145685Y-96201270D01*
X75173252Y-96205234D01*
X75203881Y-96219222D01*
X75240041Y-96230376D01*
X75263852Y-96246609D01*
X75286522Y-96256963D01*
X75314144Y-96280898D01*
X75347916Y-96303923D01*
X75364017Y-96324113D01*
X75380628Y-96338507D01*
X75401936Y-96371663D01*
X75429319Y-96406000D01*
X75437656Y-96427243D01*
X75447951Y-96443262D01*
X75459857Y-96483810D01*
X75477018Y-96527536D01*
X75478499Y-96547298D01*
X75483033Y-96562740D01*
X75483033Y-96607799D01*
X75486775Y-96657732D01*
X75483033Y-96674127D01*
X75483033Y-96687259D01*
X75469573Y-96733097D01*
X75457723Y-96785019D01*
X75450814Y-96796984D01*
X75447951Y-96806737D01*
X75420728Y-96849095D01*
X75392442Y-96898089D01*
X75384514Y-96905444D01*
X75380628Y-96911492D01*
X75340837Y-96945970D01*
X75296734Y-96986893D01*
X75289704Y-96990278D01*
X75286522Y-96993036D01*
X75237291Y-97015519D01*
X75179103Y-97043541D01*
X75174370Y-97044254D01*
X75173252Y-97044765D01*
X75123999Y-97051846D01*
X75050000Y-97063000D01*
X75046425Y-97063000D01*
X74553575Y-97063000D01*
X74550000Y-97063000D01*
X74484719Y-97058108D01*
X74454310Y-97048727D01*
X74426747Y-97044765D01*
X74396122Y-97030779D01*
X74359959Y-97019624D01*
X74336145Y-97003388D01*
X74313477Y-96993036D01*
X74285856Y-96969102D01*
X74252084Y-96946077D01*
X74235982Y-96925885D01*
X74219371Y-96911492D01*
X74198061Y-96878334D01*
X74170681Y-96844000D01*
X74162344Y-96822757D01*
X74152048Y-96806737D01*
X74140141Y-96766185D01*
X74122982Y-96722464D01*
X74121500Y-96702700D01*
X74116967Y-96687259D01*
X74116967Y-96642200D01*
X74113225Y-96592268D01*
X74116967Y-96575872D01*
X74116967Y-96562740D01*
X74130428Y-96516892D01*
X74142277Y-96464981D01*
X74149183Y-96453019D01*
X74152048Y-96443262D01*
X74179286Y-96400879D01*
X74207558Y-96351911D01*
X74215481Y-96344559D01*
X74219371Y-96338507D01*
X74259192Y-96304000D01*
X74303266Y-96263107D01*
X74310290Y-96259724D01*
X74313477Y-96256963D01*
X74362767Y-96234452D01*
X74420897Y-96206459D01*
X74425625Y-96205746D01*
X74426747Y-96205234D01*
X74476100Y-96198138D01*
X74550000Y-96187000D01*
X75050000Y-96187000D01*
X75115281Y-96191892D01*
G37*
G36*
X121006409Y-95288274D02*
G01*
X121066852Y-95296232D01*
X121082057Y-95303322D01*
X121100646Y-95307020D01*
X121125266Y-95323470D01*
X121150407Y-95335194D01*
X121165702Y-95350489D01*
X121185969Y-95364031D01*
X121199510Y-95384297D01*
X121214805Y-95399592D01*
X121226527Y-95424730D01*
X121242980Y-95449354D01*
X121246677Y-95467944D01*
X121253767Y-95483147D01*
X121261722Y-95543577D01*
X121263000Y-95550000D01*
X121263000Y-96000000D01*
X121261722Y-96006424D01*
X121253767Y-96066852D01*
X121246678Y-96082054D01*
X121242980Y-96100646D01*
X121226525Y-96125271D01*
X121214805Y-96150407D01*
X121199512Y-96165699D01*
X121185969Y-96185969D01*
X121165699Y-96199512D01*
X121150407Y-96214805D01*
X121125271Y-96226525D01*
X121100646Y-96242980D01*
X121082054Y-96246678D01*
X121066852Y-96253767D01*
X121006424Y-96261722D01*
X121000000Y-96263000D01*
X120500000Y-96263000D01*
X120493577Y-96261722D01*
X120433147Y-96253767D01*
X120417944Y-96246677D01*
X120399354Y-96242980D01*
X120374730Y-96226527D01*
X120349592Y-96214805D01*
X120334297Y-96199510D01*
X120314031Y-96185969D01*
X120300489Y-96165702D01*
X120285194Y-96150407D01*
X120273470Y-96125266D01*
X120257020Y-96100646D01*
X120253322Y-96082057D01*
X120246232Y-96066852D01*
X120238274Y-96006409D01*
X120237000Y-96000000D01*
X120237000Y-95550000D01*
X120238274Y-95543592D01*
X120246232Y-95483147D01*
X120253322Y-95467940D01*
X120257020Y-95449354D01*
X120273469Y-95424735D01*
X120285194Y-95399592D01*
X120300491Y-95384294D01*
X120314031Y-95364031D01*
X120334294Y-95350491D01*
X120349592Y-95335194D01*
X120374735Y-95323469D01*
X120399354Y-95307020D01*
X120417940Y-95303322D01*
X120433147Y-95296232D01*
X120493592Y-95288274D01*
X120500000Y-95287000D01*
X121000000Y-95287000D01*
X121006409Y-95288274D01*
G37*
G36*
X75115281Y-94941892D02*
G01*
X75145685Y-94951270D01*
X75173252Y-94955234D01*
X75203881Y-94969222D01*
X75240041Y-94980376D01*
X75263852Y-94996609D01*
X75286522Y-95006963D01*
X75314144Y-95030898D01*
X75347916Y-95053923D01*
X75364017Y-95074113D01*
X75380628Y-95088507D01*
X75401936Y-95121663D01*
X75429319Y-95156000D01*
X75437656Y-95177243D01*
X75447951Y-95193262D01*
X75459857Y-95233810D01*
X75477018Y-95277536D01*
X75478499Y-95297298D01*
X75483033Y-95312740D01*
X75483033Y-95357799D01*
X75486775Y-95407732D01*
X75483033Y-95424127D01*
X75483033Y-95437259D01*
X75469573Y-95483097D01*
X75457723Y-95535019D01*
X75450814Y-95546984D01*
X75447951Y-95556737D01*
X75420728Y-95599095D01*
X75392442Y-95648089D01*
X75384514Y-95655444D01*
X75380628Y-95661492D01*
X75340837Y-95695970D01*
X75296734Y-95736893D01*
X75289704Y-95740278D01*
X75286522Y-95743036D01*
X75237291Y-95765519D01*
X75179103Y-95793541D01*
X75174370Y-95794254D01*
X75173252Y-95794765D01*
X75123999Y-95801846D01*
X75050000Y-95813000D01*
X75046425Y-95813000D01*
X74553575Y-95813000D01*
X74550000Y-95813000D01*
X74484719Y-95808108D01*
X74454310Y-95798727D01*
X74426747Y-95794765D01*
X74396122Y-95780779D01*
X74359959Y-95769624D01*
X74336145Y-95753388D01*
X74313477Y-95743036D01*
X74285856Y-95719102D01*
X74252084Y-95696077D01*
X74235982Y-95675885D01*
X74219371Y-95661492D01*
X74198061Y-95628334D01*
X74170681Y-95594000D01*
X74162344Y-95572757D01*
X74152048Y-95556737D01*
X74140141Y-95516185D01*
X74122982Y-95472464D01*
X74121500Y-95452700D01*
X74116967Y-95437259D01*
X74116967Y-95392200D01*
X74113225Y-95342268D01*
X74116967Y-95325872D01*
X74116967Y-95312740D01*
X74130428Y-95266892D01*
X74142277Y-95214981D01*
X74149183Y-95203019D01*
X74152048Y-95193262D01*
X74179286Y-95150879D01*
X74207558Y-95101911D01*
X74215481Y-95094559D01*
X74219371Y-95088507D01*
X74259192Y-95054000D01*
X74303266Y-95013107D01*
X74310290Y-95009724D01*
X74313477Y-95006963D01*
X74362767Y-94984452D01*
X74420897Y-94956459D01*
X74425625Y-94955746D01*
X74426747Y-94955234D01*
X74476100Y-94948138D01*
X74550000Y-94937000D01*
X75050000Y-94937000D01*
X75115281Y-94941892D01*
G37*
G36*
X121006409Y-93738274D02*
G01*
X121066852Y-93746232D01*
X121082057Y-93753322D01*
X121100646Y-93757020D01*
X121125266Y-93773470D01*
X121150407Y-93785194D01*
X121165702Y-93800489D01*
X121185969Y-93814031D01*
X121199510Y-93834297D01*
X121214805Y-93849592D01*
X121226527Y-93874730D01*
X121242980Y-93899354D01*
X121246677Y-93917944D01*
X121253767Y-93933147D01*
X121261722Y-93993577D01*
X121263000Y-94000000D01*
X121263000Y-94450000D01*
X121261722Y-94456424D01*
X121253767Y-94516852D01*
X121246678Y-94532054D01*
X121242980Y-94550646D01*
X121226525Y-94575271D01*
X121214805Y-94600407D01*
X121199512Y-94615699D01*
X121185969Y-94635969D01*
X121165699Y-94649512D01*
X121150407Y-94664805D01*
X121125271Y-94676525D01*
X121100646Y-94692980D01*
X121082054Y-94696678D01*
X121066852Y-94703767D01*
X121006424Y-94711722D01*
X121000000Y-94713000D01*
X120500000Y-94713000D01*
X120493577Y-94711722D01*
X120433147Y-94703767D01*
X120417944Y-94696677D01*
X120399354Y-94692980D01*
X120374730Y-94676527D01*
X120349592Y-94664805D01*
X120334297Y-94649510D01*
X120314031Y-94635969D01*
X120300489Y-94615702D01*
X120285194Y-94600407D01*
X120273470Y-94575266D01*
X120257020Y-94550646D01*
X120253322Y-94532057D01*
X120246232Y-94516852D01*
X120238274Y-94456409D01*
X120237000Y-94450000D01*
X120237000Y-94000000D01*
X120238274Y-93993592D01*
X120246232Y-93933147D01*
X120253322Y-93917940D01*
X120257020Y-93899354D01*
X120273469Y-93874735D01*
X120285194Y-93849592D01*
X120300491Y-93834294D01*
X120314031Y-93814031D01*
X120334294Y-93800491D01*
X120349592Y-93785194D01*
X120374735Y-93773469D01*
X120399354Y-93757020D01*
X120417940Y-93753322D01*
X120433147Y-93746232D01*
X120493592Y-93738274D01*
X120500000Y-93737000D01*
X121000000Y-93737000D01*
X121006409Y-93738274D01*
G37*
G36*
X75254047Y-93687805D02*
G01*
X75302661Y-93693445D01*
X75319271Y-93700779D01*
X75341079Y-93705117D01*
X75364425Y-93720716D01*
X75384012Y-93729365D01*
X75397390Y-93742743D01*
X75418291Y-93756709D01*
X75432256Y-93777609D01*
X75445634Y-93790987D01*
X75454281Y-93810572D01*
X75469883Y-93833921D01*
X75474221Y-93855731D01*
X75481554Y-93872338D01*
X75487192Y-93920942D01*
X75488000Y-93925000D01*
X75488000Y-94325000D01*
X75487192Y-94329059D01*
X75481554Y-94377661D01*
X75474221Y-94394266D01*
X75469883Y-94416079D01*
X75454280Y-94439429D01*
X75445634Y-94459012D01*
X75432258Y-94472387D01*
X75418291Y-94493291D01*
X75397387Y-94507258D01*
X75384012Y-94520634D01*
X75364429Y-94529280D01*
X75341079Y-94544883D01*
X75319266Y-94549221D01*
X75302661Y-94556554D01*
X75254059Y-94562192D01*
X75250000Y-94563000D01*
X74350000Y-94563000D01*
X74345942Y-94562192D01*
X74297338Y-94556554D01*
X74280731Y-94549221D01*
X74258921Y-94544883D01*
X74235572Y-94529281D01*
X74215987Y-94520634D01*
X74202609Y-94507256D01*
X74181709Y-94493291D01*
X74167743Y-94472390D01*
X74154365Y-94459012D01*
X74145716Y-94439425D01*
X74130117Y-94416079D01*
X74125779Y-94394271D01*
X74118445Y-94377661D01*
X74112805Y-94329047D01*
X74112000Y-94325000D01*
X74112000Y-93925000D01*
X74112804Y-93920954D01*
X74118445Y-93872338D01*
X74125779Y-93855727D01*
X74130117Y-93833921D01*
X74145715Y-93810576D01*
X74154365Y-93790987D01*
X74167745Y-93777606D01*
X74181709Y-93756709D01*
X74202606Y-93742745D01*
X74215987Y-93729365D01*
X74235576Y-93720715D01*
X74258921Y-93705117D01*
X74280727Y-93700779D01*
X74297338Y-93693445D01*
X74345954Y-93687804D01*
X74350000Y-93687000D01*
X75250000Y-93687000D01*
X75254047Y-93687805D01*
G37*
G36*
X111756409Y-90063274D02*
G01*
X111816852Y-90071232D01*
X111832057Y-90078322D01*
X111850646Y-90082020D01*
X111875266Y-90098470D01*
X111900407Y-90110194D01*
X111915702Y-90125489D01*
X111935969Y-90139031D01*
X111949510Y-90159297D01*
X111964805Y-90174592D01*
X111976527Y-90199730D01*
X111992980Y-90224354D01*
X111996677Y-90242944D01*
X112003767Y-90258147D01*
X112011722Y-90318577D01*
X112013000Y-90325000D01*
X112013000Y-90775000D01*
X112011722Y-90781424D01*
X112003767Y-90841852D01*
X111996678Y-90857054D01*
X111992980Y-90875646D01*
X111976525Y-90900271D01*
X111964805Y-90925407D01*
X111949512Y-90940699D01*
X111935969Y-90960969D01*
X111915699Y-90974512D01*
X111900407Y-90989805D01*
X111875271Y-91001525D01*
X111850646Y-91017980D01*
X111832054Y-91021678D01*
X111816852Y-91028767D01*
X111756424Y-91036722D01*
X111750000Y-91038000D01*
X111250000Y-91038000D01*
X111243577Y-91036722D01*
X111183147Y-91028767D01*
X111167944Y-91021677D01*
X111149354Y-91017980D01*
X111124730Y-91001527D01*
X111099592Y-90989805D01*
X111084297Y-90974510D01*
X111064031Y-90960969D01*
X111050489Y-90940702D01*
X111035194Y-90925407D01*
X111023470Y-90900266D01*
X111007020Y-90875646D01*
X111003322Y-90857057D01*
X110996232Y-90841852D01*
X110988274Y-90781409D01*
X110987000Y-90775000D01*
X110987000Y-90325000D01*
X110988274Y-90318592D01*
X110996232Y-90258147D01*
X111003322Y-90242940D01*
X111007020Y-90224354D01*
X111023469Y-90199735D01*
X111035194Y-90174592D01*
X111050491Y-90159294D01*
X111064031Y-90139031D01*
X111084294Y-90125491D01*
X111099592Y-90110194D01*
X111124735Y-90098469D01*
X111149354Y-90082020D01*
X111167940Y-90078322D01*
X111183147Y-90071232D01*
X111243592Y-90063274D01*
X111250000Y-90062000D01*
X111750000Y-90062000D01*
X111756409Y-90063274D01*
G37*
G36*
X116006409Y-90063274D02*
G01*
X116066852Y-90071232D01*
X116082057Y-90078322D01*
X116100646Y-90082020D01*
X116125266Y-90098470D01*
X116150407Y-90110194D01*
X116165702Y-90125489D01*
X116185969Y-90139031D01*
X116199510Y-90159297D01*
X116214805Y-90174592D01*
X116226527Y-90199730D01*
X116242980Y-90224354D01*
X116246677Y-90242944D01*
X116253767Y-90258147D01*
X116261722Y-90318577D01*
X116263000Y-90325000D01*
X116263000Y-90775000D01*
X116261722Y-90781424D01*
X116253767Y-90841852D01*
X116246678Y-90857054D01*
X116242980Y-90875646D01*
X116226525Y-90900271D01*
X116214805Y-90925407D01*
X116199512Y-90940699D01*
X116185969Y-90960969D01*
X116165699Y-90974512D01*
X116150407Y-90989805D01*
X116125271Y-91001525D01*
X116100646Y-91017980D01*
X116082054Y-91021678D01*
X116066852Y-91028767D01*
X116006424Y-91036722D01*
X116000000Y-91038000D01*
X115500000Y-91038000D01*
X115493577Y-91036722D01*
X115433147Y-91028767D01*
X115417944Y-91021677D01*
X115399354Y-91017980D01*
X115374730Y-91001527D01*
X115349592Y-90989805D01*
X115334297Y-90974510D01*
X115314031Y-90960969D01*
X115300489Y-90940702D01*
X115285194Y-90925407D01*
X115273470Y-90900266D01*
X115257020Y-90875646D01*
X115253322Y-90857057D01*
X115246232Y-90841852D01*
X115238274Y-90781409D01*
X115237000Y-90775000D01*
X115237000Y-90325000D01*
X115238274Y-90318592D01*
X115246232Y-90258147D01*
X115253322Y-90242940D01*
X115257020Y-90224354D01*
X115273469Y-90199735D01*
X115285194Y-90174592D01*
X115300491Y-90159294D01*
X115314031Y-90139031D01*
X115334294Y-90125491D01*
X115349592Y-90110194D01*
X115374735Y-90098469D01*
X115399354Y-90082020D01*
X115417940Y-90078322D01*
X115433147Y-90071232D01*
X115493592Y-90063274D01*
X115500000Y-90062000D01*
X116000000Y-90062000D01*
X116006409Y-90063274D01*
G37*
G36*
X117506409Y-90063274D02*
G01*
X117566852Y-90071232D01*
X117582057Y-90078322D01*
X117600646Y-90082020D01*
X117625266Y-90098470D01*
X117650407Y-90110194D01*
X117665702Y-90125489D01*
X117685969Y-90139031D01*
X117699510Y-90159297D01*
X117714805Y-90174592D01*
X117726527Y-90199730D01*
X117742980Y-90224354D01*
X117746677Y-90242944D01*
X117753767Y-90258147D01*
X117761722Y-90318577D01*
X117763000Y-90325000D01*
X117763000Y-90775000D01*
X117761722Y-90781424D01*
X117753767Y-90841852D01*
X117746678Y-90857054D01*
X117742980Y-90875646D01*
X117726525Y-90900271D01*
X117714805Y-90925407D01*
X117699512Y-90940699D01*
X117685969Y-90960969D01*
X117665699Y-90974512D01*
X117650407Y-90989805D01*
X117625271Y-91001525D01*
X117600646Y-91017980D01*
X117582054Y-91021678D01*
X117566852Y-91028767D01*
X117506424Y-91036722D01*
X117500000Y-91038000D01*
X117000000Y-91038000D01*
X116993577Y-91036722D01*
X116933147Y-91028767D01*
X116917944Y-91021677D01*
X116899354Y-91017980D01*
X116874730Y-91001527D01*
X116849592Y-90989805D01*
X116834297Y-90974510D01*
X116814031Y-90960969D01*
X116800489Y-90940702D01*
X116785194Y-90925407D01*
X116773470Y-90900266D01*
X116757020Y-90875646D01*
X116753322Y-90857057D01*
X116746232Y-90841852D01*
X116738274Y-90781409D01*
X116737000Y-90775000D01*
X116737000Y-90325000D01*
X116738274Y-90318592D01*
X116746232Y-90258147D01*
X116753322Y-90242940D01*
X116757020Y-90224354D01*
X116773469Y-90199735D01*
X116785194Y-90174592D01*
X116800491Y-90159294D01*
X116814031Y-90139031D01*
X116834294Y-90125491D01*
X116849592Y-90110194D01*
X116874735Y-90098469D01*
X116899354Y-90082020D01*
X116917940Y-90078322D01*
X116933147Y-90071232D01*
X116993592Y-90063274D01*
X117000000Y-90062000D01*
X117500000Y-90062000D01*
X117506409Y-90063274D01*
G37*
G36*
X75115281Y-89691892D02*
G01*
X75145685Y-89701270D01*
X75173252Y-89705234D01*
X75203881Y-89719222D01*
X75240041Y-89730376D01*
X75263852Y-89746609D01*
X75286522Y-89756963D01*
X75314144Y-89780898D01*
X75347916Y-89803923D01*
X75364017Y-89824113D01*
X75380628Y-89838507D01*
X75401936Y-89871663D01*
X75429319Y-89906000D01*
X75437656Y-89927243D01*
X75447951Y-89943262D01*
X75459857Y-89983810D01*
X75477018Y-90027536D01*
X75478499Y-90047298D01*
X75483033Y-90062740D01*
X75483033Y-90107799D01*
X75486775Y-90157732D01*
X75483033Y-90174127D01*
X75483033Y-90187259D01*
X75469573Y-90233097D01*
X75457723Y-90285019D01*
X75450814Y-90296984D01*
X75447951Y-90306737D01*
X75420728Y-90349095D01*
X75392442Y-90398089D01*
X75384514Y-90405444D01*
X75380628Y-90411492D01*
X75340837Y-90445970D01*
X75296734Y-90486893D01*
X75289704Y-90490278D01*
X75286522Y-90493036D01*
X75237291Y-90515519D01*
X75179103Y-90543541D01*
X75174370Y-90544254D01*
X75173252Y-90544765D01*
X75123999Y-90551846D01*
X75050000Y-90563000D01*
X75046425Y-90563000D01*
X74553575Y-90563000D01*
X74550000Y-90563000D01*
X74484719Y-90558108D01*
X74454310Y-90548727D01*
X74426747Y-90544765D01*
X74396122Y-90530779D01*
X74359959Y-90519624D01*
X74336145Y-90503388D01*
X74313477Y-90493036D01*
X74285856Y-90469102D01*
X74252084Y-90446077D01*
X74235982Y-90425885D01*
X74219371Y-90411492D01*
X74198061Y-90378334D01*
X74170681Y-90344000D01*
X74162344Y-90322757D01*
X74152048Y-90306737D01*
X74140141Y-90266185D01*
X74122982Y-90222464D01*
X74121500Y-90202700D01*
X74116967Y-90187259D01*
X74116967Y-90142200D01*
X74113225Y-90092268D01*
X74116967Y-90075872D01*
X74116967Y-90062740D01*
X74130428Y-90016892D01*
X74142277Y-89964981D01*
X74149183Y-89953019D01*
X74152048Y-89943262D01*
X74179286Y-89900879D01*
X74207558Y-89851911D01*
X74215481Y-89844559D01*
X74219371Y-89838507D01*
X74259192Y-89804000D01*
X74303266Y-89763107D01*
X74310290Y-89759724D01*
X74313477Y-89756963D01*
X74362767Y-89734452D01*
X74420897Y-89706459D01*
X74425625Y-89705746D01*
X74426747Y-89705234D01*
X74476100Y-89698138D01*
X74550000Y-89687000D01*
X75050000Y-89687000D01*
X75115281Y-89691892D01*
G37*
G36*
X111756409Y-88513274D02*
G01*
X111816852Y-88521232D01*
X111832057Y-88528322D01*
X111850646Y-88532020D01*
X111875266Y-88548470D01*
X111900407Y-88560194D01*
X111915702Y-88575489D01*
X111935969Y-88589031D01*
X111949510Y-88609297D01*
X111964805Y-88624592D01*
X111976527Y-88649730D01*
X111992980Y-88674354D01*
X111996677Y-88692944D01*
X112003767Y-88708147D01*
X112011722Y-88768577D01*
X112013000Y-88775000D01*
X112013000Y-89225000D01*
X112011722Y-89231424D01*
X112003767Y-89291852D01*
X111996678Y-89307054D01*
X111992980Y-89325646D01*
X111976525Y-89350271D01*
X111964805Y-89375407D01*
X111949512Y-89390699D01*
X111935969Y-89410969D01*
X111915699Y-89424512D01*
X111900407Y-89439805D01*
X111875271Y-89451525D01*
X111850646Y-89467980D01*
X111832054Y-89471678D01*
X111816852Y-89478767D01*
X111756424Y-89486722D01*
X111750000Y-89488000D01*
X111250000Y-89488000D01*
X111243577Y-89486722D01*
X111183147Y-89478767D01*
X111167944Y-89471677D01*
X111149354Y-89467980D01*
X111124730Y-89451527D01*
X111099592Y-89439805D01*
X111084297Y-89424510D01*
X111064031Y-89410969D01*
X111050489Y-89390702D01*
X111035194Y-89375407D01*
X111023470Y-89350266D01*
X111007020Y-89325646D01*
X111003322Y-89307057D01*
X110996232Y-89291852D01*
X110988274Y-89231409D01*
X110987000Y-89225000D01*
X110987000Y-88775000D01*
X110988274Y-88768592D01*
X110996232Y-88708147D01*
X111003322Y-88692940D01*
X111007020Y-88674354D01*
X111023469Y-88649735D01*
X111035194Y-88624592D01*
X111050491Y-88609294D01*
X111064031Y-88589031D01*
X111084294Y-88575491D01*
X111099592Y-88560194D01*
X111124735Y-88548469D01*
X111149354Y-88532020D01*
X111167940Y-88528322D01*
X111183147Y-88521232D01*
X111243592Y-88513274D01*
X111250000Y-88512000D01*
X111750000Y-88512000D01*
X111756409Y-88513274D01*
G37*
G36*
X116006409Y-88513274D02*
G01*
X116066852Y-88521232D01*
X116082057Y-88528322D01*
X116100646Y-88532020D01*
X116125266Y-88548470D01*
X116150407Y-88560194D01*
X116165702Y-88575489D01*
X116185969Y-88589031D01*
X116199510Y-88609297D01*
X116214805Y-88624592D01*
X116226527Y-88649730D01*
X116242980Y-88674354D01*
X116246677Y-88692944D01*
X116253767Y-88708147D01*
X116261722Y-88768577D01*
X116263000Y-88775000D01*
X116263000Y-89225000D01*
X116261722Y-89231424D01*
X116253767Y-89291852D01*
X116246678Y-89307054D01*
X116242980Y-89325646D01*
X116226525Y-89350271D01*
X116214805Y-89375407D01*
X116199512Y-89390699D01*
X116185969Y-89410969D01*
X116165699Y-89424512D01*
X116150407Y-89439805D01*
X116125271Y-89451525D01*
X116100646Y-89467980D01*
X116082054Y-89471678D01*
X116066852Y-89478767D01*
X116006424Y-89486722D01*
X116000000Y-89488000D01*
X115500000Y-89488000D01*
X115493577Y-89486722D01*
X115433147Y-89478767D01*
X115417944Y-89471677D01*
X115399354Y-89467980D01*
X115374730Y-89451527D01*
X115349592Y-89439805D01*
X115334297Y-89424510D01*
X115314031Y-89410969D01*
X115300489Y-89390702D01*
X115285194Y-89375407D01*
X115273470Y-89350266D01*
X115257020Y-89325646D01*
X115253322Y-89307057D01*
X115246232Y-89291852D01*
X115238274Y-89231409D01*
X115237000Y-89225000D01*
X115237000Y-88775000D01*
X115238274Y-88768592D01*
X115246232Y-88708147D01*
X115253322Y-88692940D01*
X115257020Y-88674354D01*
X115273469Y-88649735D01*
X115285194Y-88624592D01*
X115300491Y-88609294D01*
X115314031Y-88589031D01*
X115334294Y-88575491D01*
X115349592Y-88560194D01*
X115374735Y-88548469D01*
X115399354Y-88532020D01*
X115417940Y-88528322D01*
X115433147Y-88521232D01*
X115493592Y-88513274D01*
X115500000Y-88512000D01*
X116000000Y-88512000D01*
X116006409Y-88513274D01*
G37*
G36*
X117506409Y-88513274D02*
G01*
X117566852Y-88521232D01*
X117582057Y-88528322D01*
X117600646Y-88532020D01*
X117625266Y-88548470D01*
X117650407Y-88560194D01*
X117665702Y-88575489D01*
X117685969Y-88589031D01*
X117699510Y-88609297D01*
X117714805Y-88624592D01*
X117726527Y-88649730D01*
X117742980Y-88674354D01*
X117746677Y-88692944D01*
X117753767Y-88708147D01*
X117761722Y-88768577D01*
X117763000Y-88775000D01*
X117763000Y-89225000D01*
X117761722Y-89231424D01*
X117753767Y-89291852D01*
X117746678Y-89307054D01*
X117742980Y-89325646D01*
X117726525Y-89350271D01*
X117714805Y-89375407D01*
X117699512Y-89390699D01*
X117685969Y-89410969D01*
X117665699Y-89424512D01*
X117650407Y-89439805D01*
X117625271Y-89451525D01*
X117600646Y-89467980D01*
X117582054Y-89471678D01*
X117566852Y-89478767D01*
X117506424Y-89486722D01*
X117500000Y-89488000D01*
X117000000Y-89488000D01*
X116993577Y-89486722D01*
X116933147Y-89478767D01*
X116917944Y-89471677D01*
X116899354Y-89467980D01*
X116874730Y-89451527D01*
X116849592Y-89439805D01*
X116834297Y-89424510D01*
X116814031Y-89410969D01*
X116800489Y-89390702D01*
X116785194Y-89375407D01*
X116773470Y-89350266D01*
X116757020Y-89325646D01*
X116753322Y-89307057D01*
X116746232Y-89291852D01*
X116738274Y-89231409D01*
X116737000Y-89225000D01*
X116737000Y-88775000D01*
X116738274Y-88768592D01*
X116746232Y-88708147D01*
X116753322Y-88692940D01*
X116757020Y-88674354D01*
X116773469Y-88649735D01*
X116785194Y-88624592D01*
X116800491Y-88609294D01*
X116814031Y-88589031D01*
X116834294Y-88575491D01*
X116849592Y-88560194D01*
X116874735Y-88548469D01*
X116899354Y-88532020D01*
X116917940Y-88528322D01*
X116933147Y-88521232D01*
X116993592Y-88513274D01*
X117000000Y-88512000D01*
X117500000Y-88512000D01*
X117506409Y-88513274D01*
G37*
G36*
X75115281Y-88441892D02*
G01*
X75145685Y-88451270D01*
X75173252Y-88455234D01*
X75203881Y-88469222D01*
X75240041Y-88480376D01*
X75263852Y-88496609D01*
X75286522Y-88506963D01*
X75314144Y-88530898D01*
X75347916Y-88553923D01*
X75364017Y-88574113D01*
X75380628Y-88588507D01*
X75401936Y-88621663D01*
X75429319Y-88656000D01*
X75437656Y-88677243D01*
X75447951Y-88693262D01*
X75459857Y-88733810D01*
X75477018Y-88777536D01*
X75478499Y-88797298D01*
X75483033Y-88812740D01*
X75483033Y-88857799D01*
X75486775Y-88907732D01*
X75483033Y-88924127D01*
X75483033Y-88937259D01*
X75469573Y-88983097D01*
X75457723Y-89035019D01*
X75450814Y-89046984D01*
X75447951Y-89056737D01*
X75420728Y-89099095D01*
X75392442Y-89148089D01*
X75384514Y-89155444D01*
X75380628Y-89161492D01*
X75340837Y-89195970D01*
X75296734Y-89236893D01*
X75289704Y-89240278D01*
X75286522Y-89243036D01*
X75237291Y-89265519D01*
X75179103Y-89293541D01*
X75174370Y-89294254D01*
X75173252Y-89294765D01*
X75123999Y-89301846D01*
X75050000Y-89313000D01*
X75046425Y-89313000D01*
X74553575Y-89313000D01*
X74550000Y-89313000D01*
X74484719Y-89308108D01*
X74454310Y-89298727D01*
X74426747Y-89294765D01*
X74396122Y-89280779D01*
X74359959Y-89269624D01*
X74336145Y-89253388D01*
X74313477Y-89243036D01*
X74285856Y-89219102D01*
X74252084Y-89196077D01*
X74235982Y-89175885D01*
X74219371Y-89161492D01*
X74198061Y-89128334D01*
X74170681Y-89094000D01*
X74162344Y-89072757D01*
X74152048Y-89056737D01*
X74140141Y-89016185D01*
X74122982Y-88972464D01*
X74121500Y-88952700D01*
X74116967Y-88937259D01*
X74116967Y-88892200D01*
X74113225Y-88842268D01*
X74116967Y-88825872D01*
X74116967Y-88812740D01*
X74130428Y-88766892D01*
X74142277Y-88714981D01*
X74149183Y-88703019D01*
X74152048Y-88693262D01*
X74179286Y-88650879D01*
X74207558Y-88601911D01*
X74215481Y-88594559D01*
X74219371Y-88588507D01*
X74259192Y-88554000D01*
X74303266Y-88513107D01*
X74310290Y-88509724D01*
X74313477Y-88506963D01*
X74362767Y-88484452D01*
X74420897Y-88456459D01*
X74425625Y-88455746D01*
X74426747Y-88455234D01*
X74476100Y-88448138D01*
X74550000Y-88437000D01*
X75050000Y-88437000D01*
X75115281Y-88441892D01*
G37*
G36*
X75115281Y-87191892D02*
G01*
X75145685Y-87201270D01*
X75173252Y-87205234D01*
X75203881Y-87219222D01*
X75240041Y-87230376D01*
X75263852Y-87246609D01*
X75286522Y-87256963D01*
X75314144Y-87280898D01*
X75347916Y-87303923D01*
X75364017Y-87324113D01*
X75380628Y-87338507D01*
X75401936Y-87371663D01*
X75429319Y-87406000D01*
X75437656Y-87427243D01*
X75447951Y-87443262D01*
X75459857Y-87483810D01*
X75477018Y-87527536D01*
X75478499Y-87547298D01*
X75483033Y-87562740D01*
X75483033Y-87607799D01*
X75486775Y-87657732D01*
X75483033Y-87674127D01*
X75483033Y-87687259D01*
X75469573Y-87733097D01*
X75457723Y-87785019D01*
X75450814Y-87796984D01*
X75447951Y-87806737D01*
X75420728Y-87849095D01*
X75392442Y-87898089D01*
X75384514Y-87905444D01*
X75380628Y-87911492D01*
X75340837Y-87945970D01*
X75296734Y-87986893D01*
X75289704Y-87990278D01*
X75286522Y-87993036D01*
X75237291Y-88015519D01*
X75179103Y-88043541D01*
X75174370Y-88044254D01*
X75173252Y-88044765D01*
X75123999Y-88051846D01*
X75050000Y-88063000D01*
X75046425Y-88063000D01*
X74553575Y-88063000D01*
X74550000Y-88063000D01*
X74484719Y-88058108D01*
X74454310Y-88048727D01*
X74426747Y-88044765D01*
X74396122Y-88030779D01*
X74359959Y-88019624D01*
X74336145Y-88003388D01*
X74313477Y-87993036D01*
X74285856Y-87969102D01*
X74252084Y-87946077D01*
X74235982Y-87925885D01*
X74219371Y-87911492D01*
X74198061Y-87878334D01*
X74170681Y-87844000D01*
X74162344Y-87822757D01*
X74152048Y-87806737D01*
X74140141Y-87766185D01*
X74122982Y-87722464D01*
X74121500Y-87702700D01*
X74116967Y-87687259D01*
X74116967Y-87642200D01*
X74113225Y-87592268D01*
X74116967Y-87575872D01*
X74116967Y-87562740D01*
X74130428Y-87516892D01*
X74142277Y-87464981D01*
X74149183Y-87453019D01*
X74152048Y-87443262D01*
X74179286Y-87400879D01*
X74207558Y-87351911D01*
X74215481Y-87344559D01*
X74219371Y-87338507D01*
X74259192Y-87304000D01*
X74303266Y-87263107D01*
X74310290Y-87259724D01*
X74313477Y-87256963D01*
X74362767Y-87234452D01*
X74420897Y-87206459D01*
X74425625Y-87205746D01*
X74426747Y-87205234D01*
X74476100Y-87198138D01*
X74550000Y-87187000D01*
X75050000Y-87187000D01*
X75115281Y-87191892D01*
G37*
G36*
X75254047Y-85937805D02*
G01*
X75302661Y-85943445D01*
X75319271Y-85950779D01*
X75341079Y-85955117D01*
X75364425Y-85970716D01*
X75384012Y-85979365D01*
X75397390Y-85992743D01*
X75418291Y-86006709D01*
X75432256Y-86027609D01*
X75445634Y-86040987D01*
X75454281Y-86060572D01*
X75469883Y-86083921D01*
X75474221Y-86105731D01*
X75481554Y-86122338D01*
X75487192Y-86170942D01*
X75488000Y-86175000D01*
X75488000Y-86575000D01*
X75487192Y-86579059D01*
X75481554Y-86627661D01*
X75474221Y-86644266D01*
X75469883Y-86666079D01*
X75454280Y-86689429D01*
X75445634Y-86709012D01*
X75432258Y-86722387D01*
X75418291Y-86743291D01*
X75397387Y-86757258D01*
X75384012Y-86770634D01*
X75364429Y-86779280D01*
X75341079Y-86794883D01*
X75319266Y-86799221D01*
X75302661Y-86806554D01*
X75254059Y-86812192D01*
X75250000Y-86813000D01*
X74350000Y-86813000D01*
X74345942Y-86812192D01*
X74297338Y-86806554D01*
X74280731Y-86799221D01*
X74258921Y-86794883D01*
X74235572Y-86779281D01*
X74215987Y-86770634D01*
X74202609Y-86757256D01*
X74181709Y-86743291D01*
X74167743Y-86722390D01*
X74154365Y-86709012D01*
X74145716Y-86689425D01*
X74130117Y-86666079D01*
X74125779Y-86644271D01*
X74118445Y-86627661D01*
X74112805Y-86579047D01*
X74112000Y-86575000D01*
X74112000Y-86175000D01*
X74112804Y-86170954D01*
X74118445Y-86122338D01*
X74125779Y-86105727D01*
X74130117Y-86083921D01*
X74145715Y-86060576D01*
X74154365Y-86040987D01*
X74167745Y-86027606D01*
X74181709Y-86006709D01*
X74202606Y-85992745D01*
X74215987Y-85979365D01*
X74235576Y-85970715D01*
X74258921Y-85955117D01*
X74280727Y-85950779D01*
X74297338Y-85943445D01*
X74345954Y-85937804D01*
X74350000Y-85937000D01*
X75250000Y-85937000D01*
X75254047Y-85937805D01*
G37*
G36*
X75115281Y-81941892D02*
G01*
X75145685Y-81951270D01*
X75173252Y-81955234D01*
X75203881Y-81969222D01*
X75240041Y-81980376D01*
X75263852Y-81996609D01*
X75286522Y-82006963D01*
X75314144Y-82030898D01*
X75347916Y-82053923D01*
X75364017Y-82074113D01*
X75380628Y-82088507D01*
X75401936Y-82121663D01*
X75429319Y-82156000D01*
X75437656Y-82177243D01*
X75447951Y-82193262D01*
X75459857Y-82233810D01*
X75477018Y-82277536D01*
X75478499Y-82297298D01*
X75483033Y-82312740D01*
X75483033Y-82357799D01*
X75486775Y-82407732D01*
X75483033Y-82424127D01*
X75483033Y-82437259D01*
X75469573Y-82483097D01*
X75457723Y-82535019D01*
X75450814Y-82546984D01*
X75447951Y-82556737D01*
X75420728Y-82599095D01*
X75392442Y-82648089D01*
X75384514Y-82655444D01*
X75380628Y-82661492D01*
X75340837Y-82695970D01*
X75296734Y-82736893D01*
X75289704Y-82740278D01*
X75286522Y-82743036D01*
X75237291Y-82765519D01*
X75179103Y-82793541D01*
X75174370Y-82794254D01*
X75173252Y-82794765D01*
X75123999Y-82801846D01*
X75050000Y-82813000D01*
X75046425Y-82813000D01*
X74553575Y-82813000D01*
X74550000Y-82813000D01*
X74484719Y-82808108D01*
X74454310Y-82798727D01*
X74426747Y-82794765D01*
X74396122Y-82780779D01*
X74359959Y-82769624D01*
X74336145Y-82753388D01*
X74313477Y-82743036D01*
X74285856Y-82719102D01*
X74252084Y-82696077D01*
X74235982Y-82675885D01*
X74219371Y-82661492D01*
X74198061Y-82628334D01*
X74170681Y-82594000D01*
X74162344Y-82572757D01*
X74152048Y-82556737D01*
X74140141Y-82516185D01*
X74122982Y-82472464D01*
X74121500Y-82452700D01*
X74116967Y-82437259D01*
X74116967Y-82392200D01*
X74113225Y-82342268D01*
X74116967Y-82325872D01*
X74116967Y-82312740D01*
X74130428Y-82266892D01*
X74142277Y-82214981D01*
X74149183Y-82203019D01*
X74152048Y-82193262D01*
X74179286Y-82150879D01*
X74207558Y-82101911D01*
X74215481Y-82094559D01*
X74219371Y-82088507D01*
X74259192Y-82054000D01*
X74303266Y-82013107D01*
X74310290Y-82009724D01*
X74313477Y-82006963D01*
X74362767Y-81984452D01*
X74420897Y-81956459D01*
X74425625Y-81955746D01*
X74426747Y-81955234D01*
X74476100Y-81948138D01*
X74550000Y-81937000D01*
X75050000Y-81937000D01*
X75115281Y-81941892D01*
G37*
G36*
X75115281Y-80691892D02*
G01*
X75145685Y-80701270D01*
X75173252Y-80705234D01*
X75203881Y-80719222D01*
X75240041Y-80730376D01*
X75263852Y-80746609D01*
X75286522Y-80756963D01*
X75314144Y-80780898D01*
X75347916Y-80803923D01*
X75364017Y-80824113D01*
X75380628Y-80838507D01*
X75401936Y-80871663D01*
X75429319Y-80906000D01*
X75437656Y-80927243D01*
X75447951Y-80943262D01*
X75459857Y-80983810D01*
X75477018Y-81027536D01*
X75478499Y-81047298D01*
X75483033Y-81062740D01*
X75483033Y-81107799D01*
X75486775Y-81157732D01*
X75483033Y-81174127D01*
X75483033Y-81187259D01*
X75469573Y-81233097D01*
X75457723Y-81285019D01*
X75450814Y-81296984D01*
X75447951Y-81306737D01*
X75420728Y-81349095D01*
X75392442Y-81398089D01*
X75384514Y-81405444D01*
X75380628Y-81411492D01*
X75340837Y-81445970D01*
X75296734Y-81486893D01*
X75289704Y-81490278D01*
X75286522Y-81493036D01*
X75237291Y-81515519D01*
X75179103Y-81543541D01*
X75174370Y-81544254D01*
X75173252Y-81544765D01*
X75123999Y-81551846D01*
X75050000Y-81563000D01*
X75046425Y-81563000D01*
X74553575Y-81563000D01*
X74550000Y-81563000D01*
X74484719Y-81558108D01*
X74454310Y-81548727D01*
X74426747Y-81544765D01*
X74396122Y-81530779D01*
X74359959Y-81519624D01*
X74336145Y-81503388D01*
X74313477Y-81493036D01*
X74285856Y-81469102D01*
X74252084Y-81446077D01*
X74235982Y-81425885D01*
X74219371Y-81411492D01*
X74198061Y-81378334D01*
X74170681Y-81344000D01*
X74162344Y-81322757D01*
X74152048Y-81306737D01*
X74140141Y-81266185D01*
X74122982Y-81222464D01*
X74121500Y-81202700D01*
X74116967Y-81187259D01*
X74116967Y-81142200D01*
X74113225Y-81092268D01*
X74116967Y-81075872D01*
X74116967Y-81062740D01*
X74130428Y-81016892D01*
X74142277Y-80964981D01*
X74149183Y-80953019D01*
X74152048Y-80943262D01*
X74179286Y-80900879D01*
X74207558Y-80851911D01*
X74215481Y-80844559D01*
X74219371Y-80838507D01*
X74259192Y-80804000D01*
X74303266Y-80763107D01*
X74310290Y-80759724D01*
X74313477Y-80756963D01*
X74362767Y-80734452D01*
X74420897Y-80706459D01*
X74425625Y-80705746D01*
X74426747Y-80705234D01*
X74476100Y-80698138D01*
X74550000Y-80687000D01*
X75050000Y-80687000D01*
X75115281Y-80691892D01*
G37*
G36*
X75115281Y-79441892D02*
G01*
X75145685Y-79451270D01*
X75173252Y-79455234D01*
X75203881Y-79469222D01*
X75240041Y-79480376D01*
X75263852Y-79496609D01*
X75286522Y-79506963D01*
X75314144Y-79530898D01*
X75347916Y-79553923D01*
X75364017Y-79574113D01*
X75380628Y-79588507D01*
X75401936Y-79621663D01*
X75429319Y-79656000D01*
X75437656Y-79677243D01*
X75447951Y-79693262D01*
X75459857Y-79733810D01*
X75477018Y-79777536D01*
X75478499Y-79797298D01*
X75483033Y-79812740D01*
X75483033Y-79857799D01*
X75486775Y-79907732D01*
X75483033Y-79924127D01*
X75483033Y-79937259D01*
X75469573Y-79983097D01*
X75457723Y-80035019D01*
X75450814Y-80046984D01*
X75447951Y-80056737D01*
X75420728Y-80099095D01*
X75392442Y-80148089D01*
X75384514Y-80155444D01*
X75380628Y-80161492D01*
X75340837Y-80195970D01*
X75296734Y-80236893D01*
X75289704Y-80240278D01*
X75286522Y-80243036D01*
X75237291Y-80265519D01*
X75179103Y-80293541D01*
X75174370Y-80294254D01*
X75173252Y-80294765D01*
X75123999Y-80301846D01*
X75050000Y-80313000D01*
X75046425Y-80313000D01*
X74553575Y-80313000D01*
X74550000Y-80313000D01*
X74484719Y-80308108D01*
X74454310Y-80298727D01*
X74426747Y-80294765D01*
X74396122Y-80280779D01*
X74359959Y-80269624D01*
X74336145Y-80253388D01*
X74313477Y-80243036D01*
X74285856Y-80219102D01*
X74252084Y-80196077D01*
X74235982Y-80175885D01*
X74219371Y-80161492D01*
X74198061Y-80128334D01*
X74170681Y-80094000D01*
X74162344Y-80072757D01*
X74152048Y-80056737D01*
X74140141Y-80016185D01*
X74122982Y-79972464D01*
X74121500Y-79952700D01*
X74116967Y-79937259D01*
X74116967Y-79892200D01*
X74113225Y-79842268D01*
X74116967Y-79825872D01*
X74116967Y-79812740D01*
X74130428Y-79766892D01*
X74142277Y-79714981D01*
X74149183Y-79703019D01*
X74152048Y-79693262D01*
X74179286Y-79650879D01*
X74207558Y-79601911D01*
X74215481Y-79594559D01*
X74219371Y-79588507D01*
X74259192Y-79554000D01*
X74303266Y-79513107D01*
X74310290Y-79509724D01*
X74313477Y-79506963D01*
X74362767Y-79484452D01*
X74420897Y-79456459D01*
X74425625Y-79455746D01*
X74426747Y-79455234D01*
X74476100Y-79448138D01*
X74550000Y-79437000D01*
X75050000Y-79437000D01*
X75115281Y-79441892D01*
G37*
G36*
X75254047Y-78187805D02*
G01*
X75302661Y-78193445D01*
X75319271Y-78200779D01*
X75341079Y-78205117D01*
X75364425Y-78220716D01*
X75384012Y-78229365D01*
X75397390Y-78242743D01*
X75418291Y-78256709D01*
X75432256Y-78277609D01*
X75445634Y-78290987D01*
X75454281Y-78310572D01*
X75469883Y-78333921D01*
X75474221Y-78355731D01*
X75481554Y-78372338D01*
X75487192Y-78420942D01*
X75488000Y-78425000D01*
X75488000Y-78825000D01*
X75487192Y-78829059D01*
X75481554Y-78877661D01*
X75474221Y-78894266D01*
X75469883Y-78916079D01*
X75454280Y-78939429D01*
X75445634Y-78959012D01*
X75432258Y-78972387D01*
X75418291Y-78993291D01*
X75397387Y-79007258D01*
X75384012Y-79020634D01*
X75364429Y-79029280D01*
X75341079Y-79044883D01*
X75319266Y-79049221D01*
X75302661Y-79056554D01*
X75254059Y-79062192D01*
X75250000Y-79063000D01*
X74350000Y-79063000D01*
X74345942Y-79062192D01*
X74297338Y-79056554D01*
X74280731Y-79049221D01*
X74258921Y-79044883D01*
X74235572Y-79029281D01*
X74215987Y-79020634D01*
X74202609Y-79007256D01*
X74181709Y-78993291D01*
X74167743Y-78972390D01*
X74154365Y-78959012D01*
X74145716Y-78939425D01*
X74130117Y-78916079D01*
X74125779Y-78894271D01*
X74118445Y-78877661D01*
X74112805Y-78829047D01*
X74112000Y-78825000D01*
X74112000Y-78425000D01*
X74112804Y-78420954D01*
X74118445Y-78372338D01*
X74125779Y-78355727D01*
X74130117Y-78333921D01*
X74145715Y-78310576D01*
X74154365Y-78290987D01*
X74167745Y-78277606D01*
X74181709Y-78256709D01*
X74202606Y-78242745D01*
X74215987Y-78229365D01*
X74235576Y-78220715D01*
X74258921Y-78205117D01*
X74280727Y-78200779D01*
X74297338Y-78193445D01*
X74345954Y-78187804D01*
X74350000Y-78187000D01*
X75250000Y-78187000D01*
X75254047Y-78187805D01*
G37*
G36*
X75115281Y-74191892D02*
G01*
X75145685Y-74201270D01*
X75173252Y-74205234D01*
X75203881Y-74219222D01*
X75240041Y-74230376D01*
X75263852Y-74246609D01*
X75286522Y-74256963D01*
X75314144Y-74280898D01*
X75347916Y-74303923D01*
X75364017Y-74324113D01*
X75380628Y-74338507D01*
X75401936Y-74371663D01*
X75429319Y-74406000D01*
X75437656Y-74427243D01*
X75447951Y-74443262D01*
X75459857Y-74483810D01*
X75477018Y-74527536D01*
X75478499Y-74547298D01*
X75483033Y-74562740D01*
X75483033Y-74607799D01*
X75486775Y-74657732D01*
X75483033Y-74674127D01*
X75483033Y-74687259D01*
X75469573Y-74733097D01*
X75457723Y-74785019D01*
X75450814Y-74796984D01*
X75447951Y-74806737D01*
X75420728Y-74849095D01*
X75392442Y-74898089D01*
X75384514Y-74905444D01*
X75380628Y-74911492D01*
X75340837Y-74945970D01*
X75296734Y-74986893D01*
X75289704Y-74990278D01*
X75286522Y-74993036D01*
X75237291Y-75015519D01*
X75179103Y-75043541D01*
X75174370Y-75044254D01*
X75173252Y-75044765D01*
X75123999Y-75051846D01*
X75050000Y-75063000D01*
X75046425Y-75063000D01*
X74553575Y-75063000D01*
X74550000Y-75063000D01*
X74484719Y-75058108D01*
X74454310Y-75048727D01*
X74426747Y-75044765D01*
X74396122Y-75030779D01*
X74359959Y-75019624D01*
X74336145Y-75003388D01*
X74313477Y-74993036D01*
X74285856Y-74969102D01*
X74252084Y-74946077D01*
X74235982Y-74925885D01*
X74219371Y-74911492D01*
X74198061Y-74878334D01*
X74170681Y-74844000D01*
X74162344Y-74822757D01*
X74152048Y-74806737D01*
X74140141Y-74766185D01*
X74122982Y-74722464D01*
X74121500Y-74702700D01*
X74116967Y-74687259D01*
X74116967Y-74642200D01*
X74113225Y-74592268D01*
X74116967Y-74575872D01*
X74116967Y-74562740D01*
X74130428Y-74516892D01*
X74142277Y-74464981D01*
X74149183Y-74453019D01*
X74152048Y-74443262D01*
X74179286Y-74400879D01*
X74207558Y-74351911D01*
X74215481Y-74344559D01*
X74219371Y-74338507D01*
X74259192Y-74304000D01*
X74303266Y-74263107D01*
X74310290Y-74259724D01*
X74313477Y-74256963D01*
X74362767Y-74234452D01*
X74420897Y-74206459D01*
X74425625Y-74205746D01*
X74426747Y-74205234D01*
X74476100Y-74198138D01*
X74550000Y-74187000D01*
X75050000Y-74187000D01*
X75115281Y-74191892D01*
G37*
G36*
X75115281Y-72941892D02*
G01*
X75145685Y-72951270D01*
X75173252Y-72955234D01*
X75203881Y-72969222D01*
X75240041Y-72980376D01*
X75263852Y-72996609D01*
X75286522Y-73006963D01*
X75314144Y-73030898D01*
X75347916Y-73053923D01*
X75364017Y-73074113D01*
X75380628Y-73088507D01*
X75401936Y-73121663D01*
X75429319Y-73156000D01*
X75437656Y-73177243D01*
X75447951Y-73193262D01*
X75459857Y-73233810D01*
X75477018Y-73277536D01*
X75478499Y-73297298D01*
X75483033Y-73312740D01*
X75483033Y-73357799D01*
X75486775Y-73407732D01*
X75483033Y-73424127D01*
X75483033Y-73437259D01*
X75469573Y-73483097D01*
X75457723Y-73535019D01*
X75450814Y-73546984D01*
X75447951Y-73556737D01*
X75420728Y-73599095D01*
X75392442Y-73648089D01*
X75384514Y-73655444D01*
X75380628Y-73661492D01*
X75340837Y-73695970D01*
X75296734Y-73736893D01*
X75289704Y-73740278D01*
X75286522Y-73743036D01*
X75237291Y-73765519D01*
X75179103Y-73793541D01*
X75174370Y-73794254D01*
X75173252Y-73794765D01*
X75123999Y-73801846D01*
X75050000Y-73813000D01*
X75046425Y-73813000D01*
X74553575Y-73813000D01*
X74550000Y-73813000D01*
X74484719Y-73808108D01*
X74454310Y-73798727D01*
X74426747Y-73794765D01*
X74396122Y-73780779D01*
X74359959Y-73769624D01*
X74336145Y-73753388D01*
X74313477Y-73743036D01*
X74285856Y-73719102D01*
X74252084Y-73696077D01*
X74235982Y-73675885D01*
X74219371Y-73661492D01*
X74198061Y-73628334D01*
X74170681Y-73594000D01*
X74162344Y-73572757D01*
X74152048Y-73556737D01*
X74140141Y-73516185D01*
X74122982Y-73472464D01*
X74121500Y-73452700D01*
X74116967Y-73437259D01*
X74116967Y-73392200D01*
X74113225Y-73342268D01*
X74116967Y-73325872D01*
X74116967Y-73312740D01*
X74130428Y-73266892D01*
X74142277Y-73214981D01*
X74149183Y-73203019D01*
X74152048Y-73193262D01*
X74179286Y-73150879D01*
X74207558Y-73101911D01*
X74215481Y-73094559D01*
X74219371Y-73088507D01*
X74259192Y-73054000D01*
X74303266Y-73013107D01*
X74310290Y-73009724D01*
X74313477Y-73006963D01*
X74362767Y-72984452D01*
X74420897Y-72956459D01*
X74425625Y-72955746D01*
X74426747Y-72955234D01*
X74476100Y-72948138D01*
X74550000Y-72937000D01*
X75050000Y-72937000D01*
X75115281Y-72941892D01*
G37*
G36*
X165274407Y-71815462D02*
G01*
X165444000Y-71890969D01*
X165594188Y-72000087D01*
X165718407Y-72138047D01*
X165811228Y-72298818D01*
X165868595Y-72475374D01*
X165888000Y-72660000D01*
X165868595Y-72844626D01*
X165811228Y-73021182D01*
X165718407Y-73181953D01*
X165594188Y-73319913D01*
X165444000Y-73429031D01*
X165274407Y-73504538D01*
X165092821Y-73543135D01*
X164907179Y-73543135D01*
X164725593Y-73504538D01*
X164556000Y-73429031D01*
X164405812Y-73319913D01*
X164281593Y-73181953D01*
X164188772Y-73021182D01*
X164131405Y-72844626D01*
X164112000Y-72660000D01*
X164131405Y-72475374D01*
X164188772Y-72298818D01*
X164281593Y-72138047D01*
X164405812Y-72000087D01*
X164556000Y-71890969D01*
X164725593Y-71815462D01*
X164907179Y-71776865D01*
X165092821Y-71776865D01*
X165274407Y-71815462D01*
G37*
G36*
X167814407Y-71815462D02*
G01*
X167984000Y-71890969D01*
X168134188Y-72000087D01*
X168258407Y-72138047D01*
X168351228Y-72298818D01*
X168408595Y-72475374D01*
X168428000Y-72660000D01*
X168408595Y-72844626D01*
X168351228Y-73021182D01*
X168258407Y-73181953D01*
X168134188Y-73319913D01*
X167984000Y-73429031D01*
X167814407Y-73504538D01*
X167632821Y-73543135D01*
X167447179Y-73543135D01*
X167265593Y-73504538D01*
X167096000Y-73429031D01*
X166945812Y-73319913D01*
X166821593Y-73181953D01*
X166728772Y-73021182D01*
X166671405Y-72844626D01*
X166652000Y-72660000D01*
X166671405Y-72475374D01*
X166728772Y-72298818D01*
X166821593Y-72138047D01*
X166945812Y-72000087D01*
X167096000Y-71890969D01*
X167265593Y-71815462D01*
X167447179Y-71776865D01*
X167632821Y-71776865D01*
X167814407Y-71815462D01*
G37*
G36*
X75115281Y-71691892D02*
G01*
X75145685Y-71701270D01*
X75173252Y-71705234D01*
X75203881Y-71719222D01*
X75240041Y-71730376D01*
X75263852Y-71746609D01*
X75286522Y-71756963D01*
X75314144Y-71780898D01*
X75347916Y-71803923D01*
X75364017Y-71824113D01*
X75380628Y-71838507D01*
X75401936Y-71871663D01*
X75429319Y-71906000D01*
X75437656Y-71927243D01*
X75447951Y-71943262D01*
X75459857Y-71983810D01*
X75477018Y-72027536D01*
X75478499Y-72047298D01*
X75483033Y-72062740D01*
X75483033Y-72107799D01*
X75486775Y-72157732D01*
X75483033Y-72174127D01*
X75483033Y-72187259D01*
X75469573Y-72233097D01*
X75457723Y-72285019D01*
X75450814Y-72296984D01*
X75447951Y-72306737D01*
X75420728Y-72349095D01*
X75392442Y-72398089D01*
X75384514Y-72405444D01*
X75380628Y-72411492D01*
X75340837Y-72445970D01*
X75296734Y-72486893D01*
X75289704Y-72490278D01*
X75286522Y-72493036D01*
X75237291Y-72515519D01*
X75179103Y-72543541D01*
X75174370Y-72544254D01*
X75173252Y-72544765D01*
X75123999Y-72551846D01*
X75050000Y-72563000D01*
X75046425Y-72563000D01*
X74553575Y-72563000D01*
X74550000Y-72563000D01*
X74484719Y-72558108D01*
X74454310Y-72548727D01*
X74426747Y-72544765D01*
X74396122Y-72530779D01*
X74359959Y-72519624D01*
X74336145Y-72503388D01*
X74313477Y-72493036D01*
X74285856Y-72469102D01*
X74252084Y-72446077D01*
X74235982Y-72425885D01*
X74219371Y-72411492D01*
X74198061Y-72378334D01*
X74170681Y-72344000D01*
X74162344Y-72322757D01*
X74152048Y-72306737D01*
X74140141Y-72266185D01*
X74122982Y-72222464D01*
X74121500Y-72202700D01*
X74116967Y-72187259D01*
X74116967Y-72142200D01*
X74113225Y-72092268D01*
X74116967Y-72075872D01*
X74116967Y-72062740D01*
X74130428Y-72016892D01*
X74142277Y-71964981D01*
X74149183Y-71953019D01*
X74152048Y-71943262D01*
X74179286Y-71900879D01*
X74207558Y-71851911D01*
X74215481Y-71844559D01*
X74219371Y-71838507D01*
X74259192Y-71804000D01*
X74303266Y-71763107D01*
X74310290Y-71759724D01*
X74313477Y-71756963D01*
X74362767Y-71734452D01*
X74420897Y-71706459D01*
X74425625Y-71705746D01*
X74426747Y-71705234D01*
X74476100Y-71698138D01*
X74550000Y-71687000D01*
X75050000Y-71687000D01*
X75115281Y-71691892D01*
G37*
G36*
X75254047Y-70437805D02*
G01*
X75302661Y-70443445D01*
X75319271Y-70450779D01*
X75341079Y-70455117D01*
X75364425Y-70470716D01*
X75384012Y-70479365D01*
X75397390Y-70492743D01*
X75418291Y-70506709D01*
X75432256Y-70527609D01*
X75445634Y-70540987D01*
X75454281Y-70560572D01*
X75469883Y-70583921D01*
X75474221Y-70605731D01*
X75481554Y-70622338D01*
X75487192Y-70670942D01*
X75488000Y-70675000D01*
X75488000Y-71075000D01*
X75487192Y-71079059D01*
X75481554Y-71127661D01*
X75474221Y-71144266D01*
X75469883Y-71166079D01*
X75454280Y-71189429D01*
X75445634Y-71209012D01*
X75432258Y-71222387D01*
X75418291Y-71243291D01*
X75397387Y-71257258D01*
X75384012Y-71270634D01*
X75364429Y-71279280D01*
X75341079Y-71294883D01*
X75319266Y-71299221D01*
X75302661Y-71306554D01*
X75254059Y-71312192D01*
X75250000Y-71313000D01*
X74350000Y-71313000D01*
X74345942Y-71312192D01*
X74297338Y-71306554D01*
X74280731Y-71299221D01*
X74258921Y-71294883D01*
X74235572Y-71279281D01*
X74215987Y-71270634D01*
X74202609Y-71257256D01*
X74181709Y-71243291D01*
X74167743Y-71222390D01*
X74154365Y-71209012D01*
X74145716Y-71189425D01*
X74130117Y-71166079D01*
X74125779Y-71144271D01*
X74118445Y-71127661D01*
X74112805Y-71079047D01*
X74112000Y-71075000D01*
X74112000Y-70675000D01*
X74112804Y-70670954D01*
X74118445Y-70622338D01*
X74125779Y-70605727D01*
X74130117Y-70583921D01*
X74145715Y-70560576D01*
X74154365Y-70540987D01*
X74167745Y-70527606D01*
X74181709Y-70506709D01*
X74202606Y-70492745D01*
X74215987Y-70479365D01*
X74235576Y-70470715D01*
X74258921Y-70455117D01*
X74280727Y-70450779D01*
X74297338Y-70443445D01*
X74345954Y-70437804D01*
X74350000Y-70437000D01*
X75250000Y-70437000D01*
X75254047Y-70437805D01*
G37*
G36*
X165274407Y-69275462D02*
G01*
X165444000Y-69350969D01*
X165594188Y-69460087D01*
X165718407Y-69598047D01*
X165811228Y-69758818D01*
X165868595Y-69935374D01*
X165888000Y-70120000D01*
X165868595Y-70304626D01*
X165811228Y-70481182D01*
X165718407Y-70641953D01*
X165594188Y-70779913D01*
X165444000Y-70889031D01*
X165274407Y-70964538D01*
X165092821Y-71003135D01*
X164907179Y-71003135D01*
X164725593Y-70964538D01*
X164556000Y-70889031D01*
X164405812Y-70779913D01*
X164281593Y-70641953D01*
X164188772Y-70481182D01*
X164131405Y-70304626D01*
X164112000Y-70120000D01*
X164131405Y-69935374D01*
X164188772Y-69758818D01*
X164281593Y-69598047D01*
X164405812Y-69460087D01*
X164556000Y-69350969D01*
X164725593Y-69275462D01*
X164907179Y-69236865D01*
X165092821Y-69236865D01*
X165274407Y-69275462D01*
G37*
G36*
X167814407Y-69275462D02*
G01*
X167984000Y-69350969D01*
X168134188Y-69460087D01*
X168258407Y-69598047D01*
X168351228Y-69758818D01*
X168408595Y-69935374D01*
X168428000Y-70120000D01*
X168408595Y-70304626D01*
X168351228Y-70481182D01*
X168258407Y-70641953D01*
X168134188Y-70779913D01*
X167984000Y-70889031D01*
X167814407Y-70964538D01*
X167632821Y-71003135D01*
X167447179Y-71003135D01*
X167265593Y-70964538D01*
X167096000Y-70889031D01*
X166945812Y-70779913D01*
X166821593Y-70641953D01*
X166728772Y-70481182D01*
X166671405Y-70304626D01*
X166652000Y-70120000D01*
X166671405Y-69935374D01*
X166728772Y-69758818D01*
X166821593Y-69598047D01*
X166945812Y-69460087D01*
X167096000Y-69350969D01*
X167265593Y-69275462D01*
X167447179Y-69236865D01*
X167632821Y-69236865D01*
X167814407Y-69275462D01*
G37*
G36*
X165274407Y-66735462D02*
G01*
X165444000Y-66810969D01*
X165594188Y-66920087D01*
X165718407Y-67058047D01*
X165811228Y-67218818D01*
X165868595Y-67395374D01*
X165888000Y-67580000D01*
X165868595Y-67764626D01*
X165811228Y-67941182D01*
X165718407Y-68101953D01*
X165594188Y-68239913D01*
X165444000Y-68349031D01*
X165274407Y-68424538D01*
X165092821Y-68463135D01*
X164907179Y-68463135D01*
X164725593Y-68424538D01*
X164556000Y-68349031D01*
X164405812Y-68239913D01*
X164281593Y-68101953D01*
X164188772Y-67941182D01*
X164131405Y-67764626D01*
X164112000Y-67580000D01*
X164131405Y-67395374D01*
X164188772Y-67218818D01*
X164281593Y-67058047D01*
X164405812Y-66920087D01*
X164556000Y-66810969D01*
X164725593Y-66735462D01*
X164907179Y-66696865D01*
X165092821Y-66696865D01*
X165274407Y-66735462D01*
G37*
G36*
X167814407Y-66735462D02*
G01*
X167984000Y-66810969D01*
X168134188Y-66920087D01*
X168258407Y-67058047D01*
X168351228Y-67218818D01*
X168408595Y-67395374D01*
X168428000Y-67580000D01*
X168408595Y-67764626D01*
X168351228Y-67941182D01*
X168258407Y-68101953D01*
X168134188Y-68239913D01*
X167984000Y-68349031D01*
X167814407Y-68424538D01*
X167632821Y-68463135D01*
X167447179Y-68463135D01*
X167265593Y-68424538D01*
X167096000Y-68349031D01*
X166945812Y-68239913D01*
X166821593Y-68101953D01*
X166728772Y-67941182D01*
X166671405Y-67764626D01*
X166652000Y-67580000D01*
X166671405Y-67395374D01*
X166728772Y-67218818D01*
X166821593Y-67058047D01*
X166945812Y-66920087D01*
X167096000Y-66810969D01*
X167265593Y-66735462D01*
X167447179Y-66696865D01*
X167632821Y-66696865D01*
X167814407Y-66735462D01*
G37*
G36*
X165274407Y-64195462D02*
G01*
X165444000Y-64270969D01*
X165594188Y-64380087D01*
X165718407Y-64518047D01*
X165811228Y-64678818D01*
X165868595Y-64855374D01*
X165888000Y-65040000D01*
X165868595Y-65224626D01*
X165811228Y-65401182D01*
X165718407Y-65561953D01*
X165594188Y-65699913D01*
X165444000Y-65809031D01*
X165274407Y-65884538D01*
X165092821Y-65923135D01*
X164907179Y-65923135D01*
X164725593Y-65884538D01*
X164556000Y-65809031D01*
X164405812Y-65699913D01*
X164281593Y-65561953D01*
X164188772Y-65401182D01*
X164131405Y-65224626D01*
X164112000Y-65040000D01*
X164131405Y-64855374D01*
X164188772Y-64678818D01*
X164281593Y-64518047D01*
X164405812Y-64380087D01*
X164556000Y-64270969D01*
X164725593Y-64195462D01*
X164907179Y-64156865D01*
X165092821Y-64156865D01*
X165274407Y-64195462D01*
G37*
G36*
X167814407Y-64195462D02*
G01*
X167984000Y-64270969D01*
X168134188Y-64380087D01*
X168258407Y-64518047D01*
X168351228Y-64678818D01*
X168408595Y-64855374D01*
X168428000Y-65040000D01*
X168408595Y-65224626D01*
X168351228Y-65401182D01*
X168258407Y-65561953D01*
X168134188Y-65699913D01*
X167984000Y-65809031D01*
X167814407Y-65884538D01*
X167632821Y-65923135D01*
X167447179Y-65923135D01*
X167265593Y-65884538D01*
X167096000Y-65809031D01*
X166945812Y-65699913D01*
X166821593Y-65561953D01*
X166728772Y-65401182D01*
X166671405Y-65224626D01*
X166652000Y-65040000D01*
X166671405Y-64855374D01*
X166728772Y-64678818D01*
X166821593Y-64518047D01*
X166945812Y-64380087D01*
X167096000Y-64270969D01*
X167265593Y-64195462D01*
X167447179Y-64156865D01*
X167632821Y-64156865D01*
X167814407Y-64195462D01*
G37*
G36*
X87665938Y-63794650D02*
G01*
X87670653Y-63796732D01*
X87673326Y-63797084D01*
X87706770Y-63812679D01*
X87762759Y-63837401D01*
X87837599Y-63912241D01*
X87862330Y-63968251D01*
X87877915Y-64001673D01*
X87878266Y-64004343D01*
X87880350Y-64009062D01*
X87888000Y-64075000D01*
X87888000Y-65425000D01*
X87880350Y-65490938D01*
X87878266Y-65495656D01*
X87877915Y-65498326D01*
X87862338Y-65531730D01*
X87837599Y-65587759D01*
X87762759Y-65662599D01*
X87706730Y-65687338D01*
X87673326Y-65702915D01*
X87670656Y-65703266D01*
X87665938Y-65705350D01*
X87600000Y-65713000D01*
X86400000Y-65713000D01*
X86334062Y-65705350D01*
X86329343Y-65703266D01*
X86326673Y-65702915D01*
X86293251Y-65687330D01*
X86237241Y-65662599D01*
X86162401Y-65587759D01*
X86137679Y-65531770D01*
X86122084Y-65498326D01*
X86121732Y-65495653D01*
X86119650Y-65490938D01*
X86112000Y-65425000D01*
X86112000Y-64075000D01*
X86119650Y-64009062D01*
X86121732Y-64004346D01*
X86122084Y-64001673D01*
X86137687Y-63968210D01*
X86162401Y-63912241D01*
X86237241Y-63837401D01*
X86293210Y-63812687D01*
X86326673Y-63797084D01*
X86329346Y-63796732D01*
X86334062Y-63794650D01*
X86400000Y-63787000D01*
X87600000Y-63787000D01*
X87665938Y-63794650D01*
G37*
G36*
X89774407Y-63830462D02*
G01*
X89944000Y-63905969D01*
X90094188Y-64015087D01*
X90218407Y-64153047D01*
X90311228Y-64313818D01*
X90368595Y-64490374D01*
X90388000Y-64675000D01*
X90388000Y-64825000D01*
X90368595Y-65009626D01*
X90311228Y-65186182D01*
X90218407Y-65346953D01*
X90094188Y-65484913D01*
X89944000Y-65594031D01*
X89774407Y-65669538D01*
X89592821Y-65708135D01*
X89407179Y-65708135D01*
X89225593Y-65669538D01*
X89056000Y-65594031D01*
X88905812Y-65484913D01*
X88781593Y-65346953D01*
X88688772Y-65186182D01*
X88631405Y-65009626D01*
X88612000Y-64825000D01*
X88612000Y-64675000D01*
X88631405Y-64490374D01*
X88688772Y-64313818D01*
X88781593Y-64153047D01*
X88905812Y-64015087D01*
X89056000Y-63905969D01*
X89225593Y-63830462D01*
X89407179Y-63791865D01*
X89592821Y-63791865D01*
X89774407Y-63830462D01*
G37*
G36*
X92274407Y-63830462D02*
G01*
X92444000Y-63905969D01*
X92594188Y-64015087D01*
X92718407Y-64153047D01*
X92811228Y-64313818D01*
X92868595Y-64490374D01*
X92888000Y-64675000D01*
X92888000Y-64825000D01*
X92868595Y-65009626D01*
X92811228Y-65186182D01*
X92718407Y-65346953D01*
X92594188Y-65484913D01*
X92444000Y-65594031D01*
X92274407Y-65669538D01*
X92092821Y-65708135D01*
X91907179Y-65708135D01*
X91725593Y-65669538D01*
X91556000Y-65594031D01*
X91405812Y-65484913D01*
X91281593Y-65346953D01*
X91188772Y-65186182D01*
X91131405Y-65009626D01*
X91112000Y-64825000D01*
X91112000Y-64675000D01*
X91131405Y-64490374D01*
X91188772Y-64313818D01*
X91281593Y-64153047D01*
X91405812Y-64015087D01*
X91556000Y-63905969D01*
X91725593Y-63830462D01*
X91907179Y-63791865D01*
X92092821Y-63791865D01*
X92274407Y-63830462D01*
G37*
G36*
X94774407Y-63830462D02*
G01*
X94944000Y-63905969D01*
X95094188Y-64015087D01*
X95218407Y-64153047D01*
X95311228Y-64313818D01*
X95368595Y-64490374D01*
X95388000Y-64675000D01*
X95388000Y-64825000D01*
X95368595Y-65009626D01*
X95311228Y-65186182D01*
X95218407Y-65346953D01*
X95094188Y-65484913D01*
X94944000Y-65594031D01*
X94774407Y-65669538D01*
X94592821Y-65708135D01*
X94407179Y-65708135D01*
X94225593Y-65669538D01*
X94056000Y-65594031D01*
X93905812Y-65484913D01*
X93781593Y-65346953D01*
X93688772Y-65186182D01*
X93631405Y-65009626D01*
X93612000Y-64825000D01*
X93612000Y-64675000D01*
X93631405Y-64490374D01*
X93688772Y-64313818D01*
X93781593Y-64153047D01*
X93905812Y-64015087D01*
X94056000Y-63905969D01*
X94225593Y-63830462D01*
X94407179Y-63791865D01*
X94592821Y-63791865D01*
X94774407Y-63830462D01*
G37*
G36*
X75950596Y-62580935D02*
G01*
X76185268Y-62637275D01*
X76408237Y-62729632D01*
X76614014Y-62855732D01*
X76797530Y-63012470D01*
X76954268Y-63195986D01*
X77080368Y-63401763D01*
X77172725Y-63624732D01*
X77229065Y-63859404D01*
X77248000Y-64100000D01*
X77229065Y-64340596D01*
X77172725Y-64575268D01*
X77080368Y-64798237D01*
X76954268Y-65004014D01*
X76797530Y-65187530D01*
X76614014Y-65344268D01*
X76408237Y-65470368D01*
X76185268Y-65562725D01*
X75950596Y-65619065D01*
X75710000Y-65638000D01*
X75469404Y-65619065D01*
X75234732Y-65562725D01*
X75011763Y-65470368D01*
X74805986Y-65344268D01*
X74622470Y-65187530D01*
X74465732Y-65004014D01*
X74339632Y-64798237D01*
X74247275Y-64575268D01*
X74190935Y-64340596D01*
X74172000Y-64100000D01*
X74190935Y-63859404D01*
X74247275Y-63624732D01*
X74339632Y-63401763D01*
X74465732Y-63195986D01*
X74622470Y-63012470D01*
X74805986Y-62855732D01*
X75011763Y-62729632D01*
X75234732Y-62637275D01*
X75469404Y-62580935D01*
X75710000Y-62562000D01*
X75950596Y-62580935D01*
G37*
G36*
X82304542Y-62564893D02*
G01*
X82316870Y-62573130D01*
X82325107Y-62585458D01*
X82328000Y-62600000D01*
X82328000Y-65600000D01*
X82325107Y-65614542D01*
X82316870Y-65626870D01*
X82304542Y-65635107D01*
X82290000Y-65638000D01*
X79290000Y-65638000D01*
X79275458Y-65635107D01*
X79263130Y-65626870D01*
X79254893Y-65614542D01*
X79252000Y-65600000D01*
X79252000Y-62600000D01*
X79254893Y-62585458D01*
X79263130Y-62573130D01*
X79275458Y-62564893D01*
X79290000Y-62562000D01*
X82290000Y-62562000D01*
X82304542Y-62564893D01*
G37*
G36*
X165864542Y-61614893D02*
G01*
X165876870Y-61623130D01*
X165885107Y-61635458D01*
X165888000Y-61650000D01*
X165888000Y-63350000D01*
X165885107Y-63364542D01*
X165876870Y-63376870D01*
X165864542Y-63385107D01*
X165850000Y-63388000D01*
X164150000Y-63388000D01*
X164135458Y-63385107D01*
X164123130Y-63376870D01*
X164114893Y-63364542D01*
X164112000Y-63350000D01*
X164112000Y-61650000D01*
X164114893Y-61635458D01*
X164123130Y-61623130D01*
X164135458Y-61614893D01*
X164150000Y-61612000D01*
X165850000Y-61612000D01*
X165864542Y-61614893D01*
G37*
G36*
X167814407Y-61655462D02*
G01*
X167984000Y-61730969D01*
X168134188Y-61840087D01*
X168258407Y-61978047D01*
X168351228Y-62138818D01*
X168408595Y-62315374D01*
X168428000Y-62500000D01*
X168408595Y-62684626D01*
X168351228Y-62861182D01*
X168258407Y-63021953D01*
X168134188Y-63159913D01*
X167984000Y-63269031D01*
X167814407Y-63344538D01*
X167632821Y-63383135D01*
X167447179Y-63383135D01*
X167265593Y-63344538D01*
X167096000Y-63269031D01*
X166945812Y-63159913D01*
X166821593Y-63021953D01*
X166728772Y-62861182D01*
X166671405Y-62684626D01*
X166652000Y-62500000D01*
X166671405Y-62315374D01*
X166728772Y-62138818D01*
X166821593Y-61978047D01*
X166945812Y-61840087D01*
X167096000Y-61730969D01*
X167265593Y-61655462D01*
X167447179Y-61616865D01*
X167632821Y-61616865D01*
X167814407Y-61655462D01*
G37*
G36*
X76559975Y-54866720D02*
G01*
X76622394Y-54866720D01*
X76690598Y-54877000D01*
X76756240Y-54882166D01*
X76809150Y-54894868D01*
X76864459Y-54903205D01*
X76936734Y-54925499D01*
X77006170Y-54942169D01*
X77051064Y-54960765D01*
X77098374Y-54975358D01*
X77172654Y-55011129D01*
X77243636Y-55040531D01*
X77280069Y-55062857D01*
X77318935Y-55081574D01*
X77392862Y-55131977D01*
X77462792Y-55174830D01*
X77490794Y-55198746D01*
X77521186Y-55219467D01*
X77592152Y-55285314D01*
X77658241Y-55341759D01*
X77678308Y-55365255D01*
X77700635Y-55385971D01*
X77765909Y-55467823D01*
X77825170Y-55537208D01*
X77838203Y-55558476D01*
X77853264Y-55577362D01*
X77910064Y-55675743D01*
X77959469Y-55756364D01*
X77966725Y-55773882D01*
X77975659Y-55789356D01*
X78021213Y-55905427D01*
X78057831Y-55993830D01*
X78060859Y-56006445D01*
X78065095Y-56017237D01*
X78096800Y-56156151D01*
X78117834Y-56243760D01*
X78118379Y-56250695D01*
X78119565Y-56255888D01*
X78135047Y-56462486D01*
X78138000Y-56500000D01*
X78135047Y-56537516D01*
X78119565Y-56744111D01*
X78118379Y-56749303D01*
X78117834Y-56756240D01*
X78096796Y-56843867D01*
X78065095Y-56982762D01*
X78060860Y-56993551D01*
X78057831Y-57006170D01*
X78021205Y-57094590D01*
X77975659Y-57210643D01*
X77966727Y-57226113D01*
X77959469Y-57243636D01*
X77910054Y-57324272D01*
X77853264Y-57422637D01*
X77838206Y-57441519D01*
X77825170Y-57462792D01*
X77765897Y-57532190D01*
X77700635Y-57614028D01*
X77678312Y-57634740D01*
X77658241Y-57658241D01*
X77592139Y-57714697D01*
X77521186Y-57780532D01*
X77490800Y-57801248D01*
X77462792Y-57825170D01*
X77392848Y-57868031D01*
X77318935Y-57918425D01*
X77280076Y-57937137D01*
X77243636Y-57959469D01*
X77172639Y-57988876D01*
X77098374Y-58024641D01*
X77051074Y-58039231D01*
X77006170Y-58057831D01*
X76936719Y-58074504D01*
X76864459Y-58096794D01*
X76809158Y-58105129D01*
X76756240Y-58117834D01*
X76690594Y-58123000D01*
X76622394Y-58133280D01*
X76559975Y-58133280D01*
X76500000Y-58138000D01*
X76440025Y-58133280D01*
X76377606Y-58133280D01*
X76309405Y-58123000D01*
X76243760Y-58117834D01*
X76190842Y-58105129D01*
X76135540Y-58096794D01*
X76063275Y-58074503D01*
X75993830Y-58057831D01*
X75948928Y-58039232D01*
X75901625Y-58024641D01*
X75827355Y-57988874D01*
X75756364Y-57959469D01*
X75719923Y-57937138D01*
X75681065Y-57918425D01*
X75607148Y-57868029D01*
X75537208Y-57825170D01*
X75509203Y-57801251D01*
X75478813Y-57780532D01*
X75407848Y-57714686D01*
X75341759Y-57658241D01*
X75321691Y-57634744D01*
X75299364Y-57614028D01*
X75234087Y-57532173D01*
X75174830Y-57462792D01*
X75161797Y-57441524D01*
X75146735Y-57422637D01*
X75089928Y-57324244D01*
X75040531Y-57243636D01*
X75033275Y-57226119D01*
X75024340Y-57210643D01*
X74978775Y-57094544D01*
X74942169Y-57006170D01*
X74939141Y-56993558D01*
X74934904Y-56982762D01*
X74903183Y-56843783D01*
X74882166Y-56756240D01*
X74881620Y-56749309D01*
X74880434Y-56744111D01*
X74864932Y-56537267D01*
X74862000Y-56500000D01*
X74864930Y-56462769D01*
X74880434Y-56255888D01*
X74881620Y-56250688D01*
X74882166Y-56243760D01*
X74903178Y-56156235D01*
X74934904Y-56017237D01*
X74939141Y-56006439D01*
X74942169Y-55993830D01*
X74978767Y-55905473D01*
X75024340Y-55789356D01*
X75033276Y-55773876D01*
X75040531Y-55756364D01*
X75089918Y-55675771D01*
X75146735Y-55577362D01*
X75161799Y-55558471D01*
X75174830Y-55537208D01*
X75234075Y-55467840D01*
X75299364Y-55385971D01*
X75321695Y-55365250D01*
X75341759Y-55341759D01*
X75407834Y-55285324D01*
X75478813Y-55219467D01*
X75509209Y-55198743D01*
X75537208Y-55174830D01*
X75607133Y-55131979D01*
X75681065Y-55081574D01*
X75719931Y-55062856D01*
X75756364Y-55040531D01*
X75827341Y-55011131D01*
X75901625Y-54975358D01*
X75948938Y-54960763D01*
X75993830Y-54942169D01*
X76063260Y-54925500D01*
X76135540Y-54903205D01*
X76190851Y-54894868D01*
X76243760Y-54882166D01*
X76309401Y-54877000D01*
X76377606Y-54866720D01*
X76440025Y-54866720D01*
X76500000Y-54862000D01*
X76559975Y-54866720D01*
G37*
G36*
X171059975Y-54866720D02*
G01*
X171122394Y-54866720D01*
X171190598Y-54877000D01*
X171256240Y-54882166D01*
X171309150Y-54894868D01*
X171364459Y-54903205D01*
X171436734Y-54925499D01*
X171506170Y-54942169D01*
X171551064Y-54960765D01*
X171598374Y-54975358D01*
X171672654Y-55011129D01*
X171743636Y-55040531D01*
X171780069Y-55062857D01*
X171818935Y-55081574D01*
X171892862Y-55131977D01*
X171962792Y-55174830D01*
X171990794Y-55198746D01*
X172021186Y-55219467D01*
X172092152Y-55285314D01*
X172158241Y-55341759D01*
X172178308Y-55365255D01*
X172200635Y-55385971D01*
X172265909Y-55467823D01*
X172325170Y-55537208D01*
X172338203Y-55558476D01*
X172353264Y-55577362D01*
X172410064Y-55675743D01*
X172459469Y-55756364D01*
X172466725Y-55773882D01*
X172475659Y-55789356D01*
X172521213Y-55905427D01*
X172557831Y-55993830D01*
X172560859Y-56006445D01*
X172565095Y-56017237D01*
X172596800Y-56156151D01*
X172617834Y-56243760D01*
X172618379Y-56250695D01*
X172619565Y-56255888D01*
X172635049Y-56462503D01*
X172638000Y-56500000D01*
X172635046Y-56537533D01*
X172619565Y-56744111D01*
X172618379Y-56749303D01*
X172617834Y-56756240D01*
X172596796Y-56843867D01*
X172565095Y-56982762D01*
X172560860Y-56993551D01*
X172557831Y-57006170D01*
X172521205Y-57094590D01*
X172475659Y-57210643D01*
X172466727Y-57226113D01*
X172459469Y-57243636D01*
X172410054Y-57324272D01*
X172353264Y-57422637D01*
X172338206Y-57441519D01*
X172325170Y-57462792D01*
X172265897Y-57532190D01*
X172200635Y-57614028D01*
X172178312Y-57634740D01*
X172158241Y-57658241D01*
X172092139Y-57714697D01*
X172021186Y-57780532D01*
X171990800Y-57801248D01*
X171962792Y-57825170D01*
X171892848Y-57868031D01*
X171818935Y-57918425D01*
X171780076Y-57937137D01*
X171743636Y-57959469D01*
X171672639Y-57988876D01*
X171598374Y-58024641D01*
X171551074Y-58039231D01*
X171506170Y-58057831D01*
X171436719Y-58074504D01*
X171364459Y-58096794D01*
X171309158Y-58105129D01*
X171256240Y-58117834D01*
X171190594Y-58123000D01*
X171122394Y-58133280D01*
X171059975Y-58133280D01*
X171000000Y-58138000D01*
X170940025Y-58133280D01*
X170877606Y-58133280D01*
X170809405Y-58123000D01*
X170743760Y-58117834D01*
X170690842Y-58105129D01*
X170635540Y-58096794D01*
X170563275Y-58074503D01*
X170493830Y-58057831D01*
X170448928Y-58039232D01*
X170401625Y-58024641D01*
X170327355Y-57988874D01*
X170256364Y-57959469D01*
X170219923Y-57937138D01*
X170181065Y-57918425D01*
X170107148Y-57868029D01*
X170037208Y-57825170D01*
X170009203Y-57801251D01*
X169978813Y-57780532D01*
X169907848Y-57714686D01*
X169841759Y-57658241D01*
X169821691Y-57634744D01*
X169799364Y-57614028D01*
X169734087Y-57532173D01*
X169674830Y-57462792D01*
X169661797Y-57441524D01*
X169646735Y-57422637D01*
X169589928Y-57324244D01*
X169540531Y-57243636D01*
X169533275Y-57226119D01*
X169524340Y-57210643D01*
X169478775Y-57094544D01*
X169442169Y-57006170D01*
X169439141Y-56993558D01*
X169434904Y-56982762D01*
X169403183Y-56843783D01*
X169382166Y-56756240D01*
X169381620Y-56749309D01*
X169380434Y-56744111D01*
X169364932Y-56537267D01*
X169362000Y-56500000D01*
X169364930Y-56462769D01*
X169380434Y-56255888D01*
X169381620Y-56250688D01*
X169382166Y-56243760D01*
X169403178Y-56156235D01*
X169434904Y-56017237D01*
X169439141Y-56006439D01*
X169442169Y-55993830D01*
X169478767Y-55905473D01*
X169524340Y-55789356D01*
X169533276Y-55773876D01*
X169540531Y-55756364D01*
X169589918Y-55675771D01*
X169646735Y-55577362D01*
X169661799Y-55558471D01*
X169674830Y-55537208D01*
X169734075Y-55467840D01*
X169799364Y-55385971D01*
X169821695Y-55365250D01*
X169841759Y-55341759D01*
X169907834Y-55285324D01*
X169978813Y-55219467D01*
X170009209Y-55198743D01*
X170037208Y-55174830D01*
X170107133Y-55131979D01*
X170181065Y-55081574D01*
X170219931Y-55062856D01*
X170256364Y-55040531D01*
X170327341Y-55011131D01*
X170401625Y-54975358D01*
X170448938Y-54960763D01*
X170493830Y-54942169D01*
X170563260Y-54925500D01*
X170635540Y-54903205D01*
X170690851Y-54894868D01*
X170743760Y-54882166D01*
X170809401Y-54877000D01*
X170877606Y-54866720D01*
X170940025Y-54866720D01*
X171000000Y-54862000D01*
X171059975Y-54866720D01*
G37*
M02*
