G04 #@! TF.GenerationSoftware,KiCad,Pcbnew,7.0.7*
G04 #@! TF.CreationDate,2023-09-24T13:56:50+10:00*
G04 #@! TF.ProjectId,fyp_nubots_ssl,6679705f-6e75-4626-9f74-735f73736c2e,rev?*
G04 #@! TF.SameCoordinates,Original*
G04 #@! TF.FileFunction,Paste,Top*
G04 #@! TF.FilePolarity,Positive*
%FSLAX46Y46*%
G04 Gerber Fmt 4.6, Leading zero omitted, Abs format (unit mm)*
G04 Created by KiCad (PCBNEW 7.0.7) date 2023-09-24 13:56:50*
%MOMM*%
%LPD*%
G01*
G04 APERTURE LIST*
G04 Aperture macros list*
%AMRoundRect*
0 Rectangle with rounded corners*
0 $1 Rounding radius*
0 $2 $3 $4 $5 $6 $7 $8 $9 X,Y pos of 4 corners*
0 Add a 4 corners polygon primitive as box body*
4,1,4,$2,$3,$4,$5,$6,$7,$8,$9,$2,$3,0*
0 Add four circle primitives for the rounded corners*
1,1,$1+$1,$2,$3*
1,1,$1+$1,$4,$5*
1,1,$1+$1,$6,$7*
1,1,$1+$1,$8,$9*
0 Add four rect primitives between the rounded corners*
20,1,$1+$1,$2,$3,$4,$5,0*
20,1,$1+$1,$4,$5,$6,$7,0*
20,1,$1+$1,$6,$7,$8,$9,0*
20,1,$1+$1,$8,$9,$2,$3,0*%
G04 Aperture macros list end*
%ADD10RoundRect,0.225000X-0.225000X-0.250000X0.225000X-0.250000X0.225000X0.250000X-0.225000X0.250000X0*%
%ADD11RoundRect,0.135000X-0.185000X0.135000X-0.185000X-0.135000X0.185000X-0.135000X0.185000X0.135000X0*%
%ADD12RoundRect,0.200000X0.200000X0.275000X-0.200000X0.275000X-0.200000X-0.275000X0.200000X-0.275000X0*%
%ADD13RoundRect,0.250000X0.475000X-0.250000X0.475000X0.250000X-0.475000X0.250000X-0.475000X-0.250000X0*%
%ADD14RoundRect,0.250000X0.350000X-0.850000X0.350000X0.850000X-0.350000X0.850000X-0.350000X-0.850000X0*%
%ADD15RoundRect,0.250000X1.125000X-1.275000X1.125000X1.275000X-1.125000X1.275000X-1.125000X-1.275000X0*%
%ADD16RoundRect,0.075000X0.075000X-0.700000X0.075000X0.700000X-0.075000X0.700000X-0.075000X-0.700000X0*%
%ADD17RoundRect,0.075000X0.700000X-0.075000X0.700000X0.075000X-0.700000X0.075000X-0.700000X-0.075000X0*%
%ADD18RoundRect,0.225000X0.250000X-0.225000X0.250000X0.225000X-0.250000X0.225000X-0.250000X-0.225000X0*%
%ADD19RoundRect,0.225000X-0.250000X0.225000X-0.250000X-0.225000X0.250000X-0.225000X0.250000X0.225000X0*%
%ADD20R,1.560000X0.650000*%
%ADD21RoundRect,0.200000X-0.275000X0.200000X-0.275000X-0.200000X0.275000X-0.200000X0.275000X0.200000X0*%
%ADD22RoundRect,0.200000X-0.200000X-0.275000X0.200000X-0.275000X0.200000X0.275000X-0.200000X0.275000X0*%
%ADD23RoundRect,0.100000X-0.100000X0.712500X-0.100000X-0.712500X0.100000X-0.712500X0.100000X0.712500X0*%
%ADD24RoundRect,0.100000X-0.100000X-0.575000X0.100000X-0.575000X0.100000X0.575000X-0.100000X0.575000X0*%
%ADD25O,0.900000X1.600000*%
%ADD26RoundRect,0.250000X-0.550000X-0.450000X0.550000X-0.450000X0.550000X0.450000X-0.550000X0.450000X0*%
%ADD27RoundRect,0.250000X-0.700000X-0.700000X0.700000X-0.700000X0.700000X0.700000X-0.700000X0.700000X0*%
%ADD28R,1.000000X1.150000*%
%ADD29RoundRect,0.250000X-0.475000X0.250000X-0.475000X-0.250000X0.475000X-0.250000X0.475000X0.250000X0*%
%ADD30RoundRect,0.200000X0.275000X-0.200000X0.275000X0.200000X-0.275000X0.200000X-0.275000X-0.200000X0*%
%ADD31RoundRect,0.075000X-0.075000X0.725000X-0.075000X-0.725000X0.075000X-0.725000X0.075000X0.725000X0*%
%ADD32RoundRect,0.075000X-0.725000X0.075000X-0.725000X-0.075000X0.725000X-0.075000X0.725000X0.075000X0*%
%ADD33RoundRect,0.250000X0.625000X-0.312500X0.625000X0.312500X-0.625000X0.312500X-0.625000X-0.312500X0*%
%ADD34RoundRect,0.250000X-0.650000X0.325000X-0.650000X-0.325000X0.650000X-0.325000X0.650000X0.325000X0*%
%ADD35RoundRect,0.225000X0.225000X0.250000X-0.225000X0.250000X-0.225000X-0.250000X0.225000X-0.250000X0*%
%ADD36RoundRect,0.100000X-0.712500X-0.100000X0.712500X-0.100000X0.712500X0.100000X-0.712500X0.100000X0*%
%ADD37RoundRect,0.140000X0.170000X-0.140000X0.170000X0.140000X-0.170000X0.140000X-0.170000X-0.140000X0*%
%ADD38R,1.600000X1.400000*%
%ADD39RoundRect,0.250000X-0.312500X-0.625000X0.312500X-0.625000X0.312500X0.625000X-0.312500X0.625000X0*%
%ADD40RoundRect,0.243750X0.243750X0.456250X-0.243750X0.456250X-0.243750X-0.456250X0.243750X-0.456250X0*%
%ADD41RoundRect,0.243750X-0.243750X-0.456250X0.243750X-0.456250X0.243750X0.456250X-0.243750X0.456250X0*%
%ADD42RoundRect,0.250000X-0.250000X-0.475000X0.250000X-0.475000X0.250000X0.475000X-0.250000X0.475000X0*%
G04 APERTURE END LIST*
D10*
X100225000Y-89000000D03*
X101775000Y-89000000D03*
D11*
X147750000Y-79740000D03*
X147750000Y-80760000D03*
D12*
X85825000Y-99000000D03*
X84175000Y-99000000D03*
D13*
X110250000Y-86700000D03*
X110250000Y-84800000D03*
D14*
X105220000Y-64200000D03*
D15*
X105975000Y-59575000D03*
X109025000Y-59575000D03*
X105975000Y-56225000D03*
X109025000Y-56225000D03*
D14*
X109780000Y-64200000D03*
D12*
X85825000Y-83500000D03*
X84175000Y-83500000D03*
D16*
X111250000Y-100675000D03*
X111750000Y-100675000D03*
X112250000Y-100675000D03*
X112750000Y-100675000D03*
X113250000Y-100675000D03*
X113750000Y-100675000D03*
X114250000Y-100675000D03*
X114750000Y-100675000D03*
X115250000Y-100675000D03*
X115750000Y-100675000D03*
X116250000Y-100675000D03*
X116750000Y-100675000D03*
X117250000Y-100675000D03*
X117750000Y-100675000D03*
X118250000Y-100675000D03*
X118750000Y-100675000D03*
D17*
X120675000Y-98750000D03*
X120675000Y-98250000D03*
X120675000Y-97750000D03*
X120675000Y-97250000D03*
X120675000Y-96750000D03*
X120675000Y-96250000D03*
X120675000Y-95750000D03*
X120675000Y-95250000D03*
X120675000Y-94750000D03*
X120675000Y-94250000D03*
X120675000Y-93750000D03*
X120675000Y-93250000D03*
X120675000Y-92750000D03*
X120675000Y-92250000D03*
X120675000Y-91750000D03*
X120675000Y-91250000D03*
D16*
X118750000Y-89325000D03*
X118250000Y-89325000D03*
X117750000Y-89325000D03*
X117250000Y-89325000D03*
X116750000Y-89325000D03*
X116250000Y-89325000D03*
X115750000Y-89325000D03*
X115250000Y-89325000D03*
X114750000Y-89325000D03*
X114250000Y-89325000D03*
X113750000Y-89325000D03*
X113250000Y-89325000D03*
X112750000Y-89325000D03*
X112250000Y-89325000D03*
X111750000Y-89325000D03*
X111250000Y-89325000D03*
D17*
X109325000Y-91250000D03*
X109325000Y-91750000D03*
X109325000Y-92250000D03*
X109325000Y-92750000D03*
X109325000Y-93250000D03*
X109325000Y-93750000D03*
X109325000Y-94250000D03*
X109325000Y-94750000D03*
X109325000Y-95250000D03*
X109325000Y-95750000D03*
X109325000Y-96250000D03*
X109325000Y-96750000D03*
X109325000Y-97250000D03*
X109325000Y-97750000D03*
X109325000Y-98250000D03*
X109325000Y-98750000D03*
D18*
X92250000Y-80025000D03*
X92250000Y-78475000D03*
D19*
X82750000Y-111475000D03*
X82750000Y-113025000D03*
D10*
X79725000Y-111500000D03*
X81275000Y-111500000D03*
X79725000Y-103500000D03*
X81275000Y-103500000D03*
D12*
X104825000Y-87500000D03*
X103175000Y-87500000D03*
D20*
X122850000Y-73950000D03*
X122850000Y-73000000D03*
X122850000Y-72050000D03*
X120150000Y-72050000D03*
X120150000Y-73950000D03*
D12*
X85775000Y-74125000D03*
X84125000Y-74125000D03*
D10*
X79725000Y-117500000D03*
X81275000Y-117500000D03*
D21*
X109750000Y-112425000D03*
X109750000Y-114075000D03*
D12*
X104825000Y-93500000D03*
X103175000Y-93500000D03*
D21*
X111250000Y-112425000D03*
X111250000Y-114075000D03*
D12*
X85825000Y-105000000D03*
X84175000Y-105000000D03*
D21*
X118750000Y-108425000D03*
X118750000Y-110075000D03*
D22*
X100175000Y-93500000D03*
X101825000Y-93500000D03*
D10*
X109725000Y-103000000D03*
X111275000Y-103000000D03*
D12*
X160825000Y-97500000D03*
X159175000Y-97500000D03*
D22*
X84175000Y-103500000D03*
X85825000Y-103500000D03*
D12*
X85825000Y-130000000D03*
X84175000Y-130000000D03*
D23*
X90725000Y-122387500D03*
X90075000Y-122387500D03*
X89425000Y-122387500D03*
X88775000Y-122387500D03*
X88775000Y-126612500D03*
X89425000Y-126612500D03*
X90075000Y-126612500D03*
X90725000Y-126612500D03*
X90725000Y-106887500D03*
X90075000Y-106887500D03*
X89425000Y-106887500D03*
X88775000Y-106887500D03*
X88775000Y-111112500D03*
X89425000Y-111112500D03*
X90075000Y-111112500D03*
X90725000Y-111112500D03*
D10*
X100225000Y-83000000D03*
X101775000Y-83000000D03*
X79725000Y-128480000D03*
X81275000Y-128480000D03*
D24*
X150200000Y-109075000D03*
X150850000Y-109075000D03*
X151500000Y-109075000D03*
X152150000Y-109075000D03*
X152800000Y-109075000D03*
D25*
X148200000Y-111750000D03*
D26*
X148300000Y-109300000D03*
D27*
X150300000Y-111750000D03*
X152700000Y-111750000D03*
D26*
X154700000Y-109300000D03*
D25*
X154800000Y-111750000D03*
D28*
X149200000Y-78375000D03*
X149200000Y-76625000D03*
X147800000Y-76625000D03*
X147800000Y-78375000D03*
D22*
X84125000Y-71125000D03*
X85775000Y-71125000D03*
X84175000Y-80500000D03*
X85825000Y-80500000D03*
D10*
X79725000Y-127000000D03*
X81275000Y-127000000D03*
D29*
X112250000Y-84800000D03*
X112250000Y-86700000D03*
D12*
X161075000Y-104250000D03*
X159425000Y-104250000D03*
D30*
X120000000Y-86575000D03*
X120000000Y-84925000D03*
D10*
X79725000Y-119000000D03*
X81275000Y-119000000D03*
D12*
X171825000Y-67500000D03*
X170175000Y-67500000D03*
D19*
X117250000Y-108475000D03*
X117250000Y-110025000D03*
D30*
X115750000Y-110075000D03*
X115750000Y-108425000D03*
D19*
X82750000Y-126975000D03*
X82750000Y-128525000D03*
D10*
X148475000Y-83000000D03*
X150025000Y-83000000D03*
D19*
X124750000Y-72725000D03*
X124750000Y-74275000D03*
D31*
X153500000Y-84825000D03*
X153000000Y-84825000D03*
X152500000Y-84825000D03*
X152000000Y-84825000D03*
X151500000Y-84825000D03*
X151000000Y-84825000D03*
X150500000Y-84825000D03*
X150000000Y-84825000D03*
X149500000Y-84825000D03*
X149000000Y-84825000D03*
X148500000Y-84825000D03*
X148000000Y-84825000D03*
X147500000Y-84825000D03*
X147000000Y-84825000D03*
X146500000Y-84825000D03*
X146000000Y-84825000D03*
X145500000Y-84825000D03*
X145000000Y-84825000D03*
X144500000Y-84825000D03*
X144000000Y-84825000D03*
X143500000Y-84825000D03*
X143000000Y-84825000D03*
X142500000Y-84825000D03*
X142000000Y-84825000D03*
X141500000Y-84825000D03*
D32*
X139825000Y-86500000D03*
X139825000Y-87000000D03*
X139825000Y-87500000D03*
X139825000Y-88000000D03*
X139825000Y-88500000D03*
X139825000Y-89000000D03*
X139825000Y-89500000D03*
X139825000Y-90000000D03*
X139825000Y-90500000D03*
X139825000Y-91000000D03*
X139825000Y-91500000D03*
X139825000Y-92000000D03*
X139825000Y-92500000D03*
X139825000Y-93000000D03*
X139825000Y-93500000D03*
X139825000Y-94000000D03*
X139825000Y-94500000D03*
X139825000Y-95000000D03*
X139825000Y-95500000D03*
X139825000Y-96000000D03*
X139825000Y-96500000D03*
X139825000Y-97000000D03*
X139825000Y-97500000D03*
X139825000Y-98000000D03*
X139825000Y-98500000D03*
D31*
X141500000Y-100175000D03*
X142000000Y-100175000D03*
X142500000Y-100175000D03*
X143000000Y-100175000D03*
X143500000Y-100175000D03*
X144000000Y-100175000D03*
X144500000Y-100175000D03*
X145000000Y-100175000D03*
X145500000Y-100175000D03*
X146000000Y-100175000D03*
X146500000Y-100175000D03*
X147000000Y-100175000D03*
X147500000Y-100175000D03*
X148000000Y-100175000D03*
X148500000Y-100175000D03*
X149000000Y-100175000D03*
X149500000Y-100175000D03*
X150000000Y-100175000D03*
X150500000Y-100175000D03*
X151000000Y-100175000D03*
X151500000Y-100175000D03*
X152000000Y-100175000D03*
X152500000Y-100175000D03*
X153000000Y-100175000D03*
X153500000Y-100175000D03*
D32*
X155175000Y-98500000D03*
X155175000Y-98000000D03*
X155175000Y-97500000D03*
X155175000Y-97000000D03*
X155175000Y-96500000D03*
X155175000Y-96000000D03*
X155175000Y-95500000D03*
X155175000Y-95000000D03*
X155175000Y-94500000D03*
X155175000Y-94000000D03*
X155175000Y-93500000D03*
X155175000Y-93000000D03*
X155175000Y-92500000D03*
X155175000Y-92000000D03*
X155175000Y-91500000D03*
X155175000Y-91000000D03*
X155175000Y-90500000D03*
X155175000Y-90000000D03*
X155175000Y-89500000D03*
X155175000Y-89000000D03*
X155175000Y-88500000D03*
X155175000Y-88000000D03*
X155175000Y-87500000D03*
X155175000Y-87000000D03*
X155175000Y-86500000D03*
D10*
X79725000Y-82000000D03*
X81275000Y-82000000D03*
D22*
X84175000Y-88250000D03*
X85825000Y-88250000D03*
D12*
X104825000Y-90500000D03*
X103175000Y-90500000D03*
D10*
X100225000Y-86000000D03*
X101775000Y-86000000D03*
D18*
X138000000Y-87025000D03*
X138000000Y-85475000D03*
D12*
X85825000Y-114500000D03*
X84175000Y-114500000D03*
D22*
X100175000Y-96500000D03*
X101825000Y-96500000D03*
D10*
X79675000Y-72625000D03*
X81225000Y-72625000D03*
X143225000Y-83000000D03*
X144775000Y-83000000D03*
D19*
X82750000Y-80475000D03*
X82750000Y-82025000D03*
D22*
X84175000Y-82000000D03*
X85825000Y-82000000D03*
X89425000Y-82000000D03*
X91075000Y-82000000D03*
D33*
X125250000Y-69462500D03*
X125250000Y-66537500D03*
D34*
X112250000Y-61275000D03*
X112250000Y-64225000D03*
D22*
X84175000Y-96000000D03*
X85825000Y-96000000D03*
D19*
X82750000Y-101975000D03*
X82750000Y-103525000D03*
D22*
X84175000Y-117500000D03*
X85825000Y-117500000D03*
X100175000Y-105500000D03*
X101825000Y-105500000D03*
X84175000Y-119000000D03*
X85825000Y-119000000D03*
D12*
X104825000Y-84500000D03*
X103175000Y-84500000D03*
D22*
X89425000Y-113000000D03*
X91075000Y-113000000D03*
D35*
X106275000Y-75750000D03*
X104725000Y-75750000D03*
D22*
X100175000Y-90500000D03*
X101825000Y-90500000D03*
D10*
X79725000Y-80500000D03*
X81275000Y-80500000D03*
D19*
X118250000Y-70475000D03*
X118250000Y-72025000D03*
D22*
X84175000Y-97500000D03*
X85825000Y-97500000D03*
D36*
X102137500Y-77275000D03*
X102137500Y-77925000D03*
X102137500Y-78575000D03*
X102137500Y-79225000D03*
X106362500Y-79225000D03*
X106362500Y-78575000D03*
X106362500Y-77925000D03*
X106362500Y-77275000D03*
D18*
X151750000Y-83025000D03*
X151750000Y-81475000D03*
D22*
X89425000Y-97500000D03*
X91075000Y-97500000D03*
X100175000Y-84500000D03*
X101825000Y-84500000D03*
D19*
X82700000Y-71100000D03*
X82700000Y-72650000D03*
D37*
X146500000Y-77230000D03*
X146500000Y-76270000D03*
D19*
X82750000Y-95975000D03*
X82750000Y-97525000D03*
D34*
X102750000Y-61275000D03*
X102750000Y-64225000D03*
D22*
X84175000Y-102000000D03*
X85825000Y-102000000D03*
X155175000Y-81250000D03*
X156825000Y-81250000D03*
X90175000Y-89500000D03*
X91825000Y-89500000D03*
D12*
X171825000Y-70000000D03*
X170175000Y-70000000D03*
D18*
X138000000Y-100025000D03*
X138000000Y-98475000D03*
D10*
X100225000Y-101000000D03*
X101775000Y-101000000D03*
D38*
X141000000Y-62750000D03*
X149000000Y-62750000D03*
X141000000Y-67250000D03*
X149000000Y-67250000D03*
D34*
X132250000Y-61275000D03*
X132250000Y-64225000D03*
D12*
X104825000Y-102500000D03*
X103175000Y-102500000D03*
D39*
X112037500Y-66250000D03*
X114962500Y-66250000D03*
D18*
X118250000Y-75525000D03*
X118250000Y-73975000D03*
D22*
X129175000Y-77500000D03*
X130825000Y-77500000D03*
D19*
X82750000Y-117475000D03*
X82750000Y-119025000D03*
D22*
X84175000Y-86750000D03*
X85825000Y-86750000D03*
D10*
X79725000Y-86750000D03*
X81275000Y-86750000D03*
D40*
X164187500Y-97500000D03*
X162312500Y-97500000D03*
D10*
X100225000Y-92000000D03*
X101775000Y-92000000D03*
D35*
X154525000Y-102000000D03*
X152975000Y-102000000D03*
D22*
X84175000Y-127000000D03*
X85825000Y-127000000D03*
D38*
X153500000Y-62750000D03*
X161500000Y-62750000D03*
X153500000Y-67250000D03*
X161500000Y-67250000D03*
D39*
X119787500Y-66250000D03*
X122712500Y-66250000D03*
D22*
X90175000Y-120500000D03*
X91825000Y-120500000D03*
D29*
X118250000Y-84800000D03*
X118250000Y-86700000D03*
D23*
X90725000Y-75887500D03*
X90075000Y-75887500D03*
X89425000Y-75887500D03*
X88775000Y-75887500D03*
X88775000Y-80112500D03*
X89425000Y-80112500D03*
X90075000Y-80112500D03*
X90725000Y-80112500D03*
D12*
X85825000Y-120500000D03*
X84175000Y-120500000D03*
D34*
X122750000Y-61275000D03*
X122750000Y-64225000D03*
D10*
X79675000Y-71125000D03*
X81225000Y-71125000D03*
D21*
X108250000Y-112425000D03*
X108250000Y-114075000D03*
D22*
X90175000Y-105000000D03*
X91825000Y-105000000D03*
D18*
X92250000Y-111025000D03*
X92250000Y-109475000D03*
D37*
X150750000Y-77980000D03*
X150750000Y-77020000D03*
D41*
X125812500Y-77500000D03*
X127687500Y-77500000D03*
D12*
X144825000Y-79500000D03*
X143175000Y-79500000D03*
D22*
X158175000Y-110000000D03*
X159825000Y-110000000D03*
D14*
X125220000Y-64200000D03*
D15*
X125975000Y-59575000D03*
X129025000Y-59575000D03*
X125975000Y-56225000D03*
X129025000Y-56225000D03*
D14*
X129780000Y-64200000D03*
D30*
X115750000Y-114075000D03*
X115750000Y-112425000D03*
D12*
X171825000Y-62500000D03*
X170175000Y-62500000D03*
D21*
X114250000Y-112425000D03*
X114250000Y-114075000D03*
D12*
X85825000Y-89750000D03*
X84175000Y-89750000D03*
D18*
X139000000Y-65775000D03*
X139000000Y-64225000D03*
D12*
X104825000Y-105500000D03*
X103175000Y-105500000D03*
D19*
X157000000Y-85975000D03*
X157000000Y-87525000D03*
D10*
X136475000Y-97000000D03*
X138025000Y-97000000D03*
D22*
X100175000Y-99500000D03*
X101825000Y-99500000D03*
D33*
X115000000Y-74462500D03*
X115000000Y-71537500D03*
D29*
X116250000Y-84800000D03*
X116250000Y-86700000D03*
D23*
X90725000Y-91387500D03*
X90075000Y-91387500D03*
X89425000Y-91387500D03*
X88775000Y-91387500D03*
X88775000Y-95612500D03*
X89425000Y-95612500D03*
X90075000Y-95612500D03*
X90725000Y-95612500D03*
D12*
X104825000Y-99500000D03*
X103175000Y-99500000D03*
D10*
X79725000Y-97500000D03*
X81275000Y-97500000D03*
D22*
X100175000Y-87500000D03*
X101825000Y-87500000D03*
D18*
X92250000Y-126525000D03*
X92250000Y-124975000D03*
D10*
X152975000Y-104250000D03*
X154525000Y-104250000D03*
D22*
X84175000Y-113000000D03*
X85825000Y-113000000D03*
D40*
X118187500Y-78000000D03*
X116312500Y-78000000D03*
D10*
X158225000Y-108500000D03*
X159775000Y-108500000D03*
D22*
X100175000Y-102500000D03*
X101825000Y-102500000D03*
D10*
X100200000Y-98000000D03*
X101750000Y-98000000D03*
X79725000Y-88250000D03*
X81275000Y-88250000D03*
D12*
X114825000Y-78000000D03*
X113175000Y-78000000D03*
D30*
X112750000Y-114075000D03*
X112750000Y-112425000D03*
D12*
X104825000Y-96500000D03*
X103175000Y-96500000D03*
D13*
X114250000Y-86700000D03*
X114250000Y-84800000D03*
D10*
X79725000Y-113000000D03*
X81275000Y-113000000D03*
X79725000Y-102000000D03*
X81275000Y-102000000D03*
D11*
X149250000Y-79740000D03*
X149250000Y-80760000D03*
D10*
X79725000Y-96000000D03*
X81275000Y-96000000D03*
D22*
X170175000Y-65000000D03*
X171825000Y-65000000D03*
D18*
X92250000Y-95525000D03*
X92250000Y-93975000D03*
D22*
X84175000Y-128500000D03*
X85825000Y-128500000D03*
D10*
X100225000Y-95000000D03*
X101775000Y-95000000D03*
D42*
X143050000Y-81250000D03*
X144950000Y-81250000D03*
D12*
X158575000Y-90750000D03*
X156925000Y-90750000D03*
D22*
X89425000Y-128500000D03*
X91075000Y-128500000D03*
X84125000Y-72625000D03*
X85775000Y-72625000D03*
D29*
X158750000Y-85800000D03*
X158750000Y-87700000D03*
D22*
X90175000Y-74000000D03*
X91825000Y-74000000D03*
X84175000Y-111500000D03*
X85825000Y-111500000D03*
D10*
X100225000Y-104000000D03*
X101775000Y-104000000D03*
D19*
X82750000Y-86725000D03*
X82750000Y-88275000D03*
M02*
