G04 #@! TF.GenerationSoftware,KiCad,Pcbnew,7.0.7*
G04 #@! TF.CreationDate,2023-09-24T13:34:41+10:00*
G04 #@! TF.ProjectId,fyp_breakout,6679705f-6272-4656-916b-6f75742e6b69,rev?*
G04 #@! TF.SameCoordinates,Original*
G04 #@! TF.FileFunction,Soldermask,Top*
G04 #@! TF.FilePolarity,Negative*
%FSLAX46Y46*%
G04 Gerber Fmt 4.6, Leading zero omitted, Abs format (unit mm)*
G04 Created by KiCad (PCBNEW 7.0.7) date 2023-09-24 13:34:41*
%MOMM*%
%LPD*%
G01*
G04 APERTURE LIST*
G04 APERTURE END LIST*
G36*
X141559975Y-116366720D02*
G01*
X141622394Y-116366720D01*
X141690598Y-116377000D01*
X141756240Y-116382166D01*
X141809150Y-116394868D01*
X141864459Y-116403205D01*
X141936734Y-116425499D01*
X142006170Y-116442169D01*
X142051064Y-116460765D01*
X142098374Y-116475358D01*
X142172654Y-116511129D01*
X142243636Y-116540531D01*
X142280069Y-116562857D01*
X142318935Y-116581574D01*
X142392862Y-116631977D01*
X142462792Y-116674830D01*
X142490794Y-116698746D01*
X142521186Y-116719467D01*
X142592152Y-116785314D01*
X142658241Y-116841759D01*
X142678308Y-116865255D01*
X142700635Y-116885971D01*
X142765909Y-116967823D01*
X142825170Y-117037208D01*
X142838203Y-117058476D01*
X142853264Y-117077362D01*
X142910064Y-117175743D01*
X142959469Y-117256364D01*
X142966725Y-117273882D01*
X142975659Y-117289356D01*
X143021213Y-117405427D01*
X143057831Y-117493830D01*
X143060859Y-117506445D01*
X143065095Y-117517237D01*
X143096800Y-117656151D01*
X143117834Y-117743760D01*
X143118379Y-117750695D01*
X143119565Y-117755888D01*
X143135047Y-117962486D01*
X143138000Y-118000000D01*
X143135047Y-118037516D01*
X143119565Y-118244111D01*
X143118379Y-118249303D01*
X143117834Y-118256240D01*
X143096796Y-118343867D01*
X143065095Y-118482762D01*
X143060860Y-118493551D01*
X143057831Y-118506170D01*
X143021205Y-118594590D01*
X142975659Y-118710643D01*
X142966727Y-118726113D01*
X142959469Y-118743636D01*
X142910054Y-118824272D01*
X142853264Y-118922637D01*
X142838206Y-118941519D01*
X142825170Y-118962792D01*
X142765897Y-119032190D01*
X142700635Y-119114028D01*
X142678312Y-119134740D01*
X142658241Y-119158241D01*
X142592139Y-119214697D01*
X142521186Y-119280532D01*
X142490800Y-119301248D01*
X142462792Y-119325170D01*
X142392848Y-119368031D01*
X142318935Y-119418425D01*
X142280076Y-119437137D01*
X142243636Y-119459469D01*
X142172639Y-119488876D01*
X142098374Y-119524641D01*
X142051074Y-119539231D01*
X142006170Y-119557831D01*
X141936719Y-119574504D01*
X141864459Y-119596794D01*
X141809158Y-119605129D01*
X141756240Y-119617834D01*
X141690594Y-119623000D01*
X141622394Y-119633280D01*
X141559975Y-119633280D01*
X141500000Y-119638000D01*
X141440025Y-119633280D01*
X141377606Y-119633280D01*
X141309405Y-119623000D01*
X141243760Y-119617834D01*
X141190842Y-119605129D01*
X141135540Y-119596794D01*
X141063275Y-119574503D01*
X140993830Y-119557831D01*
X140948928Y-119539232D01*
X140901625Y-119524641D01*
X140827355Y-119488874D01*
X140756364Y-119459469D01*
X140719923Y-119437138D01*
X140681065Y-119418425D01*
X140607148Y-119368029D01*
X140537208Y-119325170D01*
X140509203Y-119301251D01*
X140478813Y-119280532D01*
X140407848Y-119214686D01*
X140341759Y-119158241D01*
X140321691Y-119134744D01*
X140299364Y-119114028D01*
X140234087Y-119032173D01*
X140174830Y-118962792D01*
X140161797Y-118941524D01*
X140146735Y-118922637D01*
X140089928Y-118824244D01*
X140040531Y-118743636D01*
X140033275Y-118726119D01*
X140024340Y-118710643D01*
X139978775Y-118594544D01*
X139942169Y-118506170D01*
X139939141Y-118493558D01*
X139934904Y-118482762D01*
X139903183Y-118343783D01*
X139882166Y-118256240D01*
X139881620Y-118249309D01*
X139880434Y-118244111D01*
X139864931Y-118037250D01*
X139862000Y-118000000D01*
X139864931Y-117962752D01*
X139880434Y-117755888D01*
X139881620Y-117750688D01*
X139882166Y-117743760D01*
X139903178Y-117656235D01*
X139934904Y-117517237D01*
X139939141Y-117506439D01*
X139942169Y-117493830D01*
X139978767Y-117405473D01*
X140024340Y-117289356D01*
X140033276Y-117273876D01*
X140040531Y-117256364D01*
X140089918Y-117175771D01*
X140146735Y-117077362D01*
X140161799Y-117058471D01*
X140174830Y-117037208D01*
X140234075Y-116967840D01*
X140299364Y-116885971D01*
X140321695Y-116865250D01*
X140341759Y-116841759D01*
X140407834Y-116785324D01*
X140478813Y-116719467D01*
X140509209Y-116698743D01*
X140537208Y-116674830D01*
X140607133Y-116631979D01*
X140681065Y-116581574D01*
X140719931Y-116562856D01*
X140756364Y-116540531D01*
X140827341Y-116511131D01*
X140901625Y-116475358D01*
X140948938Y-116460763D01*
X140993830Y-116442169D01*
X141063260Y-116425500D01*
X141135540Y-116403205D01*
X141190851Y-116394868D01*
X141243760Y-116382166D01*
X141309401Y-116377000D01*
X141377606Y-116366720D01*
X141440025Y-116366720D01*
X141500000Y-116362000D01*
X141559975Y-116366720D01*
G37*
G36*
X150579047Y-116112805D02*
G01*
X150627661Y-116118445D01*
X150644271Y-116125779D01*
X150666079Y-116130117D01*
X150689425Y-116145716D01*
X150709012Y-116154365D01*
X150722390Y-116167743D01*
X150743291Y-116181709D01*
X150757256Y-116202609D01*
X150770634Y-116215987D01*
X150779281Y-116235572D01*
X150794883Y-116258921D01*
X150799221Y-116280731D01*
X150806554Y-116297338D01*
X150812192Y-116345942D01*
X150813000Y-116350000D01*
X150813000Y-117250000D01*
X150812192Y-117254059D01*
X150806554Y-117302661D01*
X150799221Y-117319266D01*
X150794883Y-117341079D01*
X150779280Y-117364429D01*
X150770634Y-117384012D01*
X150757258Y-117397387D01*
X150743291Y-117418291D01*
X150722387Y-117432258D01*
X150709012Y-117445634D01*
X150689429Y-117454280D01*
X150666079Y-117469883D01*
X150644266Y-117474221D01*
X150627661Y-117481554D01*
X150579059Y-117487192D01*
X150575000Y-117488000D01*
X150175000Y-117488000D01*
X150170942Y-117487192D01*
X150122338Y-117481554D01*
X150105731Y-117474221D01*
X150083921Y-117469883D01*
X150060572Y-117454281D01*
X150040987Y-117445634D01*
X150027609Y-117432256D01*
X150006709Y-117418291D01*
X149992743Y-117397390D01*
X149979365Y-117384012D01*
X149970716Y-117364425D01*
X149955117Y-117341079D01*
X149950779Y-117319271D01*
X149943445Y-117302661D01*
X149937805Y-117254047D01*
X149937000Y-117250000D01*
X149937000Y-116350000D01*
X149937804Y-116345954D01*
X149943445Y-116297338D01*
X149950779Y-116280727D01*
X149955117Y-116258921D01*
X149970715Y-116235576D01*
X149979365Y-116215987D01*
X149992745Y-116202606D01*
X150006709Y-116181709D01*
X150027606Y-116167745D01*
X150040987Y-116154365D01*
X150060576Y-116145715D01*
X150083921Y-116130117D01*
X150105727Y-116125779D01*
X150122338Y-116118445D01*
X150170954Y-116112804D01*
X150175000Y-116112000D01*
X150575000Y-116112000D01*
X150579047Y-116112805D01*
G37*
G36*
X146674127Y-116116967D02*
G01*
X146687260Y-116116967D01*
X146733106Y-116130428D01*
X146785019Y-116142277D01*
X146796981Y-116149183D01*
X146806737Y-116152048D01*
X146849110Y-116179280D01*
X146898089Y-116207558D01*
X146905442Y-116215483D01*
X146911492Y-116219371D01*
X146945984Y-116259176D01*
X146986893Y-116303266D01*
X146990277Y-116310292D01*
X146993036Y-116313477D01*
X147015527Y-116362727D01*
X147043541Y-116420897D01*
X147044254Y-116425628D01*
X147044765Y-116426747D01*
X147051849Y-116476020D01*
X147063000Y-116550000D01*
X147063000Y-117050000D01*
X147058108Y-117115281D01*
X147048727Y-117145690D01*
X147044765Y-117173252D01*
X147030780Y-117203874D01*
X147019624Y-117240041D01*
X147003387Y-117263856D01*
X146993036Y-117286522D01*
X146969105Y-117314139D01*
X146946077Y-117347916D01*
X146925882Y-117364020D01*
X146911492Y-117380628D01*
X146878341Y-117401933D01*
X146844000Y-117429319D01*
X146822753Y-117437657D01*
X146806737Y-117447951D01*
X146766191Y-117459856D01*
X146722464Y-117477018D01*
X146702701Y-117478499D01*
X146687260Y-117483033D01*
X146642201Y-117483033D01*
X146592268Y-117486775D01*
X146575873Y-117483033D01*
X146562740Y-117483033D01*
X146516898Y-117469572D01*
X146464981Y-117457723D01*
X146453016Y-117450815D01*
X146443262Y-117447951D01*
X146400894Y-117420722D01*
X146351911Y-117392442D01*
X146344556Y-117384515D01*
X146338507Y-117380628D01*
X146304013Y-117340821D01*
X146263107Y-117296734D01*
X146259723Y-117289707D01*
X146256963Y-117286522D01*
X146234461Y-117237250D01*
X146206459Y-117179103D01*
X146205746Y-117174373D01*
X146205234Y-117173252D01*
X146198140Y-117123911D01*
X146187000Y-117050000D01*
X146187000Y-116550000D01*
X146191892Y-116484719D01*
X146201270Y-116454315D01*
X146205234Y-116426747D01*
X146219222Y-116396115D01*
X146230376Y-116359959D01*
X146246608Y-116336149D01*
X146256963Y-116313477D01*
X146280901Y-116285850D01*
X146303923Y-116252084D01*
X146324110Y-116235984D01*
X146338507Y-116219371D01*
X146371669Y-116198058D01*
X146406000Y-116170681D01*
X146427239Y-116162345D01*
X146443262Y-116152048D01*
X146483817Y-116140140D01*
X146527536Y-116122982D01*
X146547298Y-116121501D01*
X146562740Y-116116967D01*
X146607799Y-116116967D01*
X146657732Y-116113225D01*
X146674127Y-116116967D01*
G37*
G36*
X147924127Y-116116967D02*
G01*
X147937260Y-116116967D01*
X147983106Y-116130428D01*
X148035019Y-116142277D01*
X148046981Y-116149183D01*
X148056737Y-116152048D01*
X148099110Y-116179280D01*
X148148089Y-116207558D01*
X148155442Y-116215483D01*
X148161492Y-116219371D01*
X148195984Y-116259176D01*
X148236893Y-116303266D01*
X148240277Y-116310292D01*
X148243036Y-116313477D01*
X148265527Y-116362727D01*
X148293541Y-116420897D01*
X148294254Y-116425628D01*
X148294765Y-116426747D01*
X148301849Y-116476020D01*
X148313000Y-116550000D01*
X148313000Y-117050000D01*
X148308108Y-117115281D01*
X148298727Y-117145690D01*
X148294765Y-117173252D01*
X148280780Y-117203874D01*
X148269624Y-117240041D01*
X148253387Y-117263856D01*
X148243036Y-117286522D01*
X148219105Y-117314139D01*
X148196077Y-117347916D01*
X148175882Y-117364020D01*
X148161492Y-117380628D01*
X148128341Y-117401933D01*
X148094000Y-117429319D01*
X148072753Y-117437657D01*
X148056737Y-117447951D01*
X148016191Y-117459856D01*
X147972464Y-117477018D01*
X147952701Y-117478499D01*
X147937260Y-117483033D01*
X147892201Y-117483033D01*
X147842268Y-117486775D01*
X147825873Y-117483033D01*
X147812740Y-117483033D01*
X147766898Y-117469572D01*
X147714981Y-117457723D01*
X147703016Y-117450815D01*
X147693262Y-117447951D01*
X147650894Y-117420722D01*
X147601911Y-117392442D01*
X147594556Y-117384515D01*
X147588507Y-117380628D01*
X147554013Y-117340821D01*
X147513107Y-117296734D01*
X147509723Y-117289707D01*
X147506963Y-117286522D01*
X147484461Y-117237250D01*
X147456459Y-117179103D01*
X147455746Y-117174373D01*
X147455234Y-117173252D01*
X147448140Y-117123911D01*
X147437000Y-117050000D01*
X147437000Y-116550000D01*
X147441892Y-116484719D01*
X147451270Y-116454315D01*
X147455234Y-116426747D01*
X147469222Y-116396115D01*
X147480376Y-116359959D01*
X147496608Y-116336149D01*
X147506963Y-116313477D01*
X147530901Y-116285850D01*
X147553923Y-116252084D01*
X147574110Y-116235984D01*
X147588507Y-116219371D01*
X147621669Y-116198058D01*
X147656000Y-116170681D01*
X147677239Y-116162345D01*
X147693262Y-116152048D01*
X147733817Y-116140140D01*
X147777536Y-116122982D01*
X147797298Y-116121501D01*
X147812740Y-116116967D01*
X147857799Y-116116967D01*
X147907732Y-116113225D01*
X147924127Y-116116967D01*
G37*
G36*
X149174127Y-116116967D02*
G01*
X149187260Y-116116967D01*
X149233106Y-116130428D01*
X149285019Y-116142277D01*
X149296981Y-116149183D01*
X149306737Y-116152048D01*
X149349110Y-116179280D01*
X149398089Y-116207558D01*
X149405442Y-116215483D01*
X149411492Y-116219371D01*
X149445984Y-116259176D01*
X149486893Y-116303266D01*
X149490277Y-116310292D01*
X149493036Y-116313477D01*
X149515527Y-116362727D01*
X149543541Y-116420897D01*
X149544254Y-116425628D01*
X149544765Y-116426747D01*
X149551849Y-116476020D01*
X149563000Y-116550000D01*
X149563000Y-117050000D01*
X149558108Y-117115281D01*
X149548727Y-117145690D01*
X149544765Y-117173252D01*
X149530780Y-117203874D01*
X149519624Y-117240041D01*
X149503387Y-117263856D01*
X149493036Y-117286522D01*
X149469105Y-117314139D01*
X149446077Y-117347916D01*
X149425882Y-117364020D01*
X149411492Y-117380628D01*
X149378341Y-117401933D01*
X149344000Y-117429319D01*
X149322753Y-117437657D01*
X149306737Y-117447951D01*
X149266191Y-117459856D01*
X149222464Y-117477018D01*
X149202701Y-117478499D01*
X149187260Y-117483033D01*
X149142201Y-117483033D01*
X149092268Y-117486775D01*
X149075873Y-117483033D01*
X149062740Y-117483033D01*
X149016898Y-117469572D01*
X148964981Y-117457723D01*
X148953016Y-117450815D01*
X148943262Y-117447951D01*
X148900894Y-117420722D01*
X148851911Y-117392442D01*
X148844556Y-117384515D01*
X148838507Y-117380628D01*
X148804013Y-117340821D01*
X148763107Y-117296734D01*
X148759723Y-117289707D01*
X148756963Y-117286522D01*
X148734461Y-117237250D01*
X148706459Y-117179103D01*
X148705746Y-117174373D01*
X148705234Y-117173252D01*
X148698140Y-117123911D01*
X148687000Y-117050000D01*
X148687000Y-116550000D01*
X148691892Y-116484719D01*
X148701270Y-116454315D01*
X148705234Y-116426747D01*
X148719222Y-116396115D01*
X148730376Y-116359959D01*
X148746608Y-116336149D01*
X148756963Y-116313477D01*
X148780901Y-116285850D01*
X148803923Y-116252084D01*
X148824110Y-116235984D01*
X148838507Y-116219371D01*
X148871669Y-116198058D01*
X148906000Y-116170681D01*
X148927239Y-116162345D01*
X148943262Y-116152048D01*
X148983817Y-116140140D01*
X149027536Y-116122982D01*
X149047298Y-116121501D01*
X149062740Y-116116967D01*
X149107799Y-116116967D01*
X149157732Y-116113225D01*
X149174127Y-116116967D01*
G37*
G36*
X149456409Y-113988274D02*
G01*
X149516852Y-113996232D01*
X149532057Y-114003322D01*
X149550646Y-114007020D01*
X149575266Y-114023470D01*
X149600407Y-114035194D01*
X149615702Y-114050489D01*
X149635969Y-114064031D01*
X149649510Y-114084297D01*
X149664805Y-114099592D01*
X149676527Y-114124730D01*
X149692980Y-114149354D01*
X149696677Y-114167944D01*
X149703767Y-114183147D01*
X149711722Y-114243577D01*
X149713000Y-114250000D01*
X149713000Y-114750000D01*
X149711722Y-114756424D01*
X149703767Y-114816852D01*
X149696678Y-114832054D01*
X149692980Y-114850646D01*
X149676525Y-114875271D01*
X149664805Y-114900407D01*
X149649512Y-114915699D01*
X149635969Y-114935969D01*
X149615699Y-114949512D01*
X149600407Y-114964805D01*
X149575271Y-114976525D01*
X149550646Y-114992980D01*
X149532054Y-114996678D01*
X149516852Y-115003767D01*
X149456424Y-115011722D01*
X149450000Y-115013000D01*
X149000000Y-115013000D01*
X148993577Y-115011722D01*
X148933147Y-115003767D01*
X148917944Y-114996677D01*
X148899354Y-114992980D01*
X148874730Y-114976527D01*
X148849592Y-114964805D01*
X148834297Y-114949510D01*
X148814031Y-114935969D01*
X148800489Y-114915702D01*
X148785194Y-114900407D01*
X148773470Y-114875266D01*
X148757020Y-114850646D01*
X148753322Y-114832057D01*
X148746232Y-114816852D01*
X148738274Y-114756409D01*
X148737000Y-114750000D01*
X148737000Y-114250000D01*
X148738274Y-114243592D01*
X148746232Y-114183147D01*
X148753322Y-114167940D01*
X148757020Y-114149354D01*
X148773469Y-114124735D01*
X148785194Y-114099592D01*
X148800491Y-114084294D01*
X148814031Y-114064031D01*
X148834294Y-114050491D01*
X148849592Y-114035194D01*
X148874735Y-114023469D01*
X148899354Y-114007020D01*
X148917940Y-114003322D01*
X148933147Y-113996232D01*
X148993592Y-113988274D01*
X149000000Y-113987000D01*
X149450000Y-113987000D01*
X149456409Y-113988274D01*
G37*
G36*
X151006409Y-113988274D02*
G01*
X151066852Y-113996232D01*
X151082057Y-114003322D01*
X151100646Y-114007020D01*
X151125266Y-114023470D01*
X151150407Y-114035194D01*
X151165702Y-114050489D01*
X151185969Y-114064031D01*
X151199510Y-114084297D01*
X151214805Y-114099592D01*
X151226527Y-114124730D01*
X151242980Y-114149354D01*
X151246677Y-114167944D01*
X151253767Y-114183147D01*
X151261722Y-114243577D01*
X151263000Y-114250000D01*
X151263000Y-114750000D01*
X151261722Y-114756424D01*
X151253767Y-114816852D01*
X151246678Y-114832054D01*
X151242980Y-114850646D01*
X151226525Y-114875271D01*
X151214805Y-114900407D01*
X151199512Y-114915699D01*
X151185969Y-114935969D01*
X151165699Y-114949512D01*
X151150407Y-114964805D01*
X151125271Y-114976525D01*
X151100646Y-114992980D01*
X151082054Y-114996678D01*
X151066852Y-115003767D01*
X151006424Y-115011722D01*
X151000000Y-115013000D01*
X150550000Y-115013000D01*
X150543577Y-115011722D01*
X150483147Y-115003767D01*
X150467944Y-114996677D01*
X150449354Y-114992980D01*
X150424730Y-114976527D01*
X150399592Y-114964805D01*
X150384297Y-114949510D01*
X150364031Y-114935969D01*
X150350489Y-114915702D01*
X150335194Y-114900407D01*
X150323470Y-114875266D01*
X150307020Y-114850646D01*
X150303322Y-114832057D01*
X150296232Y-114816852D01*
X150288274Y-114756409D01*
X150287000Y-114750000D01*
X150287000Y-114250000D01*
X150288274Y-114243592D01*
X150296232Y-114183147D01*
X150303322Y-114167940D01*
X150307020Y-114149354D01*
X150323469Y-114124735D01*
X150335194Y-114099592D01*
X150350491Y-114084294D01*
X150364031Y-114064031D01*
X150384294Y-114050491D01*
X150399592Y-114035194D01*
X150424735Y-114023469D01*
X150449354Y-114007020D01*
X150467940Y-114003322D01*
X150483147Y-113996232D01*
X150543592Y-113988274D01*
X150550000Y-113987000D01*
X151000000Y-113987000D01*
X151006409Y-113988274D01*
G37*
G36*
X146506409Y-113538274D02*
G01*
X146566852Y-113546232D01*
X146582057Y-113553322D01*
X146600646Y-113557020D01*
X146625266Y-113573470D01*
X146650407Y-113585194D01*
X146665702Y-113600489D01*
X146685969Y-113614031D01*
X146699510Y-113634297D01*
X146714805Y-113649592D01*
X146726527Y-113674730D01*
X146742980Y-113699354D01*
X146746677Y-113717944D01*
X146753767Y-113733147D01*
X146761722Y-113793577D01*
X146763000Y-113800000D01*
X146763000Y-114250000D01*
X146761722Y-114256424D01*
X146753767Y-114316852D01*
X146746678Y-114332054D01*
X146742980Y-114350646D01*
X146726525Y-114375271D01*
X146714805Y-114400407D01*
X146699512Y-114415699D01*
X146685969Y-114435969D01*
X146665699Y-114449512D01*
X146650407Y-114464805D01*
X146625271Y-114476525D01*
X146600646Y-114492980D01*
X146582054Y-114496678D01*
X146566852Y-114503767D01*
X146506424Y-114511722D01*
X146500000Y-114513000D01*
X146000000Y-114513000D01*
X145993577Y-114511722D01*
X145933147Y-114503767D01*
X145917944Y-114496677D01*
X145899354Y-114492980D01*
X145874730Y-114476527D01*
X145849592Y-114464805D01*
X145834297Y-114449510D01*
X145814031Y-114435969D01*
X145800489Y-114415702D01*
X145785194Y-114400407D01*
X145773470Y-114375266D01*
X145757020Y-114350646D01*
X145753322Y-114332057D01*
X145746232Y-114316852D01*
X145738274Y-114256409D01*
X145737000Y-114250000D01*
X145737000Y-113800000D01*
X145738274Y-113793592D01*
X145746232Y-113733147D01*
X145753322Y-113717940D01*
X145757020Y-113699354D01*
X145773469Y-113674735D01*
X145785194Y-113649592D01*
X145800491Y-113634294D01*
X145814031Y-113614031D01*
X145834294Y-113600491D01*
X145849592Y-113585194D01*
X145874735Y-113573469D01*
X145899354Y-113557020D01*
X145917940Y-113553322D01*
X145933147Y-113546232D01*
X145993592Y-113538274D01*
X146000000Y-113537000D01*
X146500000Y-113537000D01*
X146506409Y-113538274D01*
G37*
G36*
X148006409Y-113538274D02*
G01*
X148066852Y-113546232D01*
X148082057Y-113553322D01*
X148100646Y-113557020D01*
X148125266Y-113573470D01*
X148150407Y-113585194D01*
X148165702Y-113600489D01*
X148185969Y-113614031D01*
X148199510Y-113634297D01*
X148214805Y-113649592D01*
X148226527Y-113674730D01*
X148242980Y-113699354D01*
X148246677Y-113717944D01*
X148253767Y-113733147D01*
X148261722Y-113793577D01*
X148263000Y-113800000D01*
X148263000Y-114250000D01*
X148261722Y-114256424D01*
X148253767Y-114316852D01*
X148246678Y-114332054D01*
X148242980Y-114350646D01*
X148226525Y-114375271D01*
X148214805Y-114400407D01*
X148199512Y-114415699D01*
X148185969Y-114435969D01*
X148165699Y-114449512D01*
X148150407Y-114464805D01*
X148125271Y-114476525D01*
X148100646Y-114492980D01*
X148082054Y-114496678D01*
X148066852Y-114503767D01*
X148006424Y-114511722D01*
X148000000Y-114513000D01*
X147500000Y-114513000D01*
X147493577Y-114511722D01*
X147433147Y-114503767D01*
X147417944Y-114496677D01*
X147399354Y-114492980D01*
X147374730Y-114476527D01*
X147349592Y-114464805D01*
X147334297Y-114449510D01*
X147314031Y-114435969D01*
X147300489Y-114415702D01*
X147285194Y-114400407D01*
X147273470Y-114375266D01*
X147257020Y-114350646D01*
X147253322Y-114332057D01*
X147246232Y-114316852D01*
X147238274Y-114256409D01*
X147237000Y-114250000D01*
X147237000Y-113800000D01*
X147238274Y-113793592D01*
X147246232Y-113733147D01*
X147253322Y-113717940D01*
X147257020Y-113699354D01*
X147273469Y-113674735D01*
X147285194Y-113649592D01*
X147300491Y-113634294D01*
X147314031Y-113614031D01*
X147334294Y-113600491D01*
X147349592Y-113585194D01*
X147374735Y-113573469D01*
X147399354Y-113557020D01*
X147417940Y-113553322D01*
X147433147Y-113546232D01*
X147493592Y-113538274D01*
X147500000Y-113537000D01*
X148000000Y-113537000D01*
X148006409Y-113538274D01*
G37*
G36*
X143506409Y-112388274D02*
G01*
X143566852Y-112396232D01*
X143582057Y-112403322D01*
X143600646Y-112407020D01*
X143625266Y-112423470D01*
X143650407Y-112435194D01*
X143665702Y-112450489D01*
X143685969Y-112464031D01*
X143699510Y-112484297D01*
X143714805Y-112499592D01*
X143726527Y-112524730D01*
X143742980Y-112549354D01*
X143746677Y-112567944D01*
X143753767Y-112583147D01*
X143761722Y-112643577D01*
X143763000Y-112650000D01*
X143763000Y-113100000D01*
X143761722Y-113106424D01*
X143753767Y-113166852D01*
X143746678Y-113182054D01*
X143742980Y-113200646D01*
X143726525Y-113225271D01*
X143714805Y-113250407D01*
X143699512Y-113265699D01*
X143685969Y-113285969D01*
X143665699Y-113299512D01*
X143650407Y-113314805D01*
X143625271Y-113326525D01*
X143600646Y-113342980D01*
X143582054Y-113346678D01*
X143566852Y-113353767D01*
X143506424Y-113361722D01*
X143500000Y-113363000D01*
X143000000Y-113363000D01*
X142993577Y-113361722D01*
X142933147Y-113353767D01*
X142917944Y-113346677D01*
X142899354Y-113342980D01*
X142874730Y-113326527D01*
X142849592Y-113314805D01*
X142834297Y-113299510D01*
X142814031Y-113285969D01*
X142800489Y-113265702D01*
X142785194Y-113250407D01*
X142773470Y-113225266D01*
X142757020Y-113200646D01*
X142753322Y-113182057D01*
X142746232Y-113166852D01*
X142738274Y-113106409D01*
X142737000Y-113100000D01*
X142737000Y-112650000D01*
X142738274Y-112643592D01*
X142746232Y-112583147D01*
X142753322Y-112567940D01*
X142757020Y-112549354D01*
X142773469Y-112524735D01*
X142785194Y-112499592D01*
X142800491Y-112484294D01*
X142814031Y-112464031D01*
X142834294Y-112450491D01*
X142849592Y-112435194D01*
X142874735Y-112423469D01*
X142899354Y-112407020D01*
X142917940Y-112403322D01*
X142933147Y-112396232D01*
X142993592Y-112388274D01*
X143000000Y-112387000D01*
X143500000Y-112387000D01*
X143506409Y-112388274D01*
G37*
G36*
X145006409Y-112388274D02*
G01*
X145066852Y-112396232D01*
X145082057Y-112403322D01*
X145100646Y-112407020D01*
X145125266Y-112423470D01*
X145150407Y-112435194D01*
X145165702Y-112450489D01*
X145185969Y-112464031D01*
X145199510Y-112484297D01*
X145214805Y-112499592D01*
X145226527Y-112524730D01*
X145242980Y-112549354D01*
X145246677Y-112567944D01*
X145253767Y-112583147D01*
X145261722Y-112643577D01*
X145263000Y-112650000D01*
X145263000Y-113100000D01*
X145261722Y-113106424D01*
X145253767Y-113166852D01*
X145246678Y-113182054D01*
X145242980Y-113200646D01*
X145226525Y-113225271D01*
X145214805Y-113250407D01*
X145199512Y-113265699D01*
X145185969Y-113285969D01*
X145165699Y-113299512D01*
X145150407Y-113314805D01*
X145125271Y-113326525D01*
X145100646Y-113342980D01*
X145082054Y-113346678D01*
X145066852Y-113353767D01*
X145006424Y-113361722D01*
X145000000Y-113363000D01*
X144500000Y-113363000D01*
X144493577Y-113361722D01*
X144433147Y-113353767D01*
X144417944Y-113346677D01*
X144399354Y-113342980D01*
X144374730Y-113326527D01*
X144349592Y-113314805D01*
X144334297Y-113299510D01*
X144314031Y-113285969D01*
X144300489Y-113265702D01*
X144285194Y-113250407D01*
X144273470Y-113225266D01*
X144257020Y-113200646D01*
X144253322Y-113182057D01*
X144246232Y-113166852D01*
X144238274Y-113106409D01*
X144237000Y-113100000D01*
X144237000Y-112650000D01*
X144238274Y-112643592D01*
X144246232Y-112583147D01*
X144253322Y-112567940D01*
X144257020Y-112549354D01*
X144273469Y-112524735D01*
X144285194Y-112499592D01*
X144300491Y-112484294D01*
X144314031Y-112464031D01*
X144334294Y-112450491D01*
X144349592Y-112435194D01*
X144374735Y-112423469D01*
X144399354Y-112407020D01*
X144417940Y-112403322D01*
X144433147Y-112396232D01*
X144493592Y-112388274D01*
X144500000Y-112387000D01*
X145000000Y-112387000D01*
X145006409Y-112388274D01*
G37*
G36*
X146506409Y-111988274D02*
G01*
X146566852Y-111996232D01*
X146582057Y-112003322D01*
X146600646Y-112007020D01*
X146625266Y-112023470D01*
X146650407Y-112035194D01*
X146665702Y-112050489D01*
X146685969Y-112064031D01*
X146699510Y-112084297D01*
X146714805Y-112099592D01*
X146726527Y-112124730D01*
X146742980Y-112149354D01*
X146746677Y-112167944D01*
X146753767Y-112183147D01*
X146761722Y-112243577D01*
X146763000Y-112250000D01*
X146763000Y-112700000D01*
X146761722Y-112706424D01*
X146753767Y-112766852D01*
X146746678Y-112782054D01*
X146742980Y-112800646D01*
X146726525Y-112825271D01*
X146714805Y-112850407D01*
X146699512Y-112865699D01*
X146685969Y-112885969D01*
X146665699Y-112899512D01*
X146650407Y-112914805D01*
X146625271Y-112926525D01*
X146600646Y-112942980D01*
X146582054Y-112946678D01*
X146566852Y-112953767D01*
X146506424Y-112961722D01*
X146500000Y-112963000D01*
X146000000Y-112963000D01*
X145993577Y-112961722D01*
X145933147Y-112953767D01*
X145917944Y-112946677D01*
X145899354Y-112942980D01*
X145874730Y-112926527D01*
X145849592Y-112914805D01*
X145834297Y-112899510D01*
X145814031Y-112885969D01*
X145800489Y-112865702D01*
X145785194Y-112850407D01*
X145773470Y-112825266D01*
X145757020Y-112800646D01*
X145753322Y-112782057D01*
X145746232Y-112766852D01*
X145738274Y-112706409D01*
X145737000Y-112700000D01*
X145737000Y-112250000D01*
X145738274Y-112243592D01*
X145746232Y-112183147D01*
X145753322Y-112167940D01*
X145757020Y-112149354D01*
X145773469Y-112124735D01*
X145785194Y-112099592D01*
X145800491Y-112084294D01*
X145814031Y-112064031D01*
X145834294Y-112050491D01*
X145849592Y-112035194D01*
X145874735Y-112023469D01*
X145899354Y-112007020D01*
X145917940Y-112003322D01*
X145933147Y-111996232D01*
X145993592Y-111988274D01*
X146000000Y-111987000D01*
X146500000Y-111987000D01*
X146506409Y-111988274D01*
G37*
G36*
X148006409Y-111988274D02*
G01*
X148066852Y-111996232D01*
X148082057Y-112003322D01*
X148100646Y-112007020D01*
X148125266Y-112023470D01*
X148150407Y-112035194D01*
X148165702Y-112050489D01*
X148185969Y-112064031D01*
X148199510Y-112084297D01*
X148214805Y-112099592D01*
X148226527Y-112124730D01*
X148242980Y-112149354D01*
X148246677Y-112167944D01*
X148253767Y-112183147D01*
X148261722Y-112243577D01*
X148263000Y-112250000D01*
X148263000Y-112700000D01*
X148261722Y-112706424D01*
X148253767Y-112766852D01*
X148246678Y-112782054D01*
X148242980Y-112800646D01*
X148226525Y-112825271D01*
X148214805Y-112850407D01*
X148199512Y-112865699D01*
X148185969Y-112885969D01*
X148165699Y-112899512D01*
X148150407Y-112914805D01*
X148125271Y-112926525D01*
X148100646Y-112942980D01*
X148082054Y-112946678D01*
X148066852Y-112953767D01*
X148006424Y-112961722D01*
X148000000Y-112963000D01*
X147500000Y-112963000D01*
X147493577Y-112961722D01*
X147433147Y-112953767D01*
X147417944Y-112946677D01*
X147399354Y-112942980D01*
X147374730Y-112926527D01*
X147349592Y-112914805D01*
X147334297Y-112899510D01*
X147314031Y-112885969D01*
X147300489Y-112865702D01*
X147285194Y-112850407D01*
X147273470Y-112825266D01*
X147257020Y-112800646D01*
X147253322Y-112782057D01*
X147246232Y-112766852D01*
X147238274Y-112706409D01*
X147237000Y-112700000D01*
X147237000Y-112250000D01*
X147238274Y-112243592D01*
X147246232Y-112183147D01*
X147253322Y-112167940D01*
X147257020Y-112149354D01*
X147273469Y-112124735D01*
X147285194Y-112099592D01*
X147300491Y-112084294D01*
X147314031Y-112064031D01*
X147334294Y-112050491D01*
X147349592Y-112035194D01*
X147374735Y-112023469D01*
X147399354Y-112007020D01*
X147417940Y-112003322D01*
X147433147Y-111996232D01*
X147493592Y-111988274D01*
X147500000Y-111987000D01*
X148000000Y-111987000D01*
X148006409Y-111988274D01*
G37*
G36*
X143506409Y-110838274D02*
G01*
X143566852Y-110846232D01*
X143582057Y-110853322D01*
X143600646Y-110857020D01*
X143625266Y-110873470D01*
X143650407Y-110885194D01*
X143665702Y-110900489D01*
X143685969Y-110914031D01*
X143699510Y-110934297D01*
X143714805Y-110949592D01*
X143726527Y-110974730D01*
X143742980Y-110999354D01*
X143746677Y-111017944D01*
X143753767Y-111033147D01*
X143761722Y-111093577D01*
X143763000Y-111100000D01*
X143763000Y-111550000D01*
X143761722Y-111556424D01*
X143753767Y-111616852D01*
X143746678Y-111632054D01*
X143742980Y-111650646D01*
X143726525Y-111675271D01*
X143714805Y-111700407D01*
X143699512Y-111715699D01*
X143685969Y-111735969D01*
X143665699Y-111749512D01*
X143650407Y-111764805D01*
X143625271Y-111776525D01*
X143600646Y-111792980D01*
X143582054Y-111796678D01*
X143566852Y-111803767D01*
X143506424Y-111811722D01*
X143500000Y-111813000D01*
X143000000Y-111813000D01*
X142993577Y-111811722D01*
X142933147Y-111803767D01*
X142917944Y-111796677D01*
X142899354Y-111792980D01*
X142874730Y-111776527D01*
X142849592Y-111764805D01*
X142834297Y-111749510D01*
X142814031Y-111735969D01*
X142800489Y-111715702D01*
X142785194Y-111700407D01*
X142773470Y-111675266D01*
X142757020Y-111650646D01*
X142753322Y-111632057D01*
X142746232Y-111616852D01*
X142738274Y-111556409D01*
X142737000Y-111550000D01*
X142737000Y-111100000D01*
X142738274Y-111093592D01*
X142746232Y-111033147D01*
X142753322Y-111017940D01*
X142757020Y-110999354D01*
X142773469Y-110974735D01*
X142785194Y-110949592D01*
X142800491Y-110934294D01*
X142814031Y-110914031D01*
X142834294Y-110900491D01*
X142849592Y-110885194D01*
X142874735Y-110873469D01*
X142899354Y-110857020D01*
X142917940Y-110853322D01*
X142933147Y-110846232D01*
X142993592Y-110838274D01*
X143000000Y-110837000D01*
X143500000Y-110837000D01*
X143506409Y-110838274D01*
G37*
G36*
X145006409Y-110838274D02*
G01*
X145066852Y-110846232D01*
X145082057Y-110853322D01*
X145100646Y-110857020D01*
X145125266Y-110873470D01*
X145150407Y-110885194D01*
X145165702Y-110900489D01*
X145185969Y-110914031D01*
X145199510Y-110934297D01*
X145214805Y-110949592D01*
X145226527Y-110974730D01*
X145242980Y-110999354D01*
X145246677Y-111017944D01*
X145253767Y-111033147D01*
X145261722Y-111093577D01*
X145263000Y-111100000D01*
X145263000Y-111550000D01*
X145261722Y-111556424D01*
X145253767Y-111616852D01*
X145246678Y-111632054D01*
X145242980Y-111650646D01*
X145226525Y-111675271D01*
X145214805Y-111700407D01*
X145199512Y-111715699D01*
X145185969Y-111735969D01*
X145165699Y-111749512D01*
X145150407Y-111764805D01*
X145125271Y-111776525D01*
X145100646Y-111792980D01*
X145082054Y-111796678D01*
X145066852Y-111803767D01*
X145006424Y-111811722D01*
X145000000Y-111813000D01*
X144500000Y-111813000D01*
X144493577Y-111811722D01*
X144433147Y-111803767D01*
X144417944Y-111796677D01*
X144399354Y-111792980D01*
X144374730Y-111776527D01*
X144349592Y-111764805D01*
X144334297Y-111749510D01*
X144314031Y-111735969D01*
X144300489Y-111715702D01*
X144285194Y-111700407D01*
X144273470Y-111675266D01*
X144257020Y-111650646D01*
X144253322Y-111632057D01*
X144246232Y-111616852D01*
X144238274Y-111556409D01*
X144237000Y-111550000D01*
X144237000Y-111100000D01*
X144238274Y-111093592D01*
X144246232Y-111033147D01*
X144253322Y-111017940D01*
X144257020Y-110999354D01*
X144273469Y-110974735D01*
X144285194Y-110949592D01*
X144300491Y-110934294D01*
X144314031Y-110914031D01*
X144334294Y-110900491D01*
X144349592Y-110885194D01*
X144374735Y-110873469D01*
X144399354Y-110857020D01*
X144417940Y-110853322D01*
X144433147Y-110846232D01*
X144493592Y-110838274D01*
X144500000Y-110837000D01*
X145000000Y-110837000D01*
X145006409Y-110838274D01*
G37*
G36*
X150256409Y-110038274D02*
G01*
X150316852Y-110046232D01*
X150332057Y-110053322D01*
X150350646Y-110057020D01*
X150375266Y-110073470D01*
X150400407Y-110085194D01*
X150415702Y-110100489D01*
X150435969Y-110114031D01*
X150449510Y-110134297D01*
X150464805Y-110149592D01*
X150476527Y-110174730D01*
X150492980Y-110199354D01*
X150496677Y-110217944D01*
X150503767Y-110233147D01*
X150511722Y-110293577D01*
X150513000Y-110300000D01*
X150513000Y-110750000D01*
X150511722Y-110756424D01*
X150503767Y-110816852D01*
X150496678Y-110832054D01*
X150492980Y-110850646D01*
X150476525Y-110875271D01*
X150464805Y-110900407D01*
X150449512Y-110915699D01*
X150435969Y-110935969D01*
X150415699Y-110949512D01*
X150400407Y-110964805D01*
X150375271Y-110976525D01*
X150350646Y-110992980D01*
X150332054Y-110996678D01*
X150316852Y-111003767D01*
X150256424Y-111011722D01*
X150250000Y-111013000D01*
X149750000Y-111013000D01*
X149743577Y-111011722D01*
X149683147Y-111003767D01*
X149667944Y-110996677D01*
X149649354Y-110992980D01*
X149624730Y-110976527D01*
X149599592Y-110964805D01*
X149584297Y-110949510D01*
X149564031Y-110935969D01*
X149550489Y-110915702D01*
X149535194Y-110900407D01*
X149523470Y-110875266D01*
X149507020Y-110850646D01*
X149503322Y-110832057D01*
X149496232Y-110816852D01*
X149488274Y-110756409D01*
X149487000Y-110750000D01*
X149487000Y-110300000D01*
X149488274Y-110293592D01*
X149496232Y-110233147D01*
X149503322Y-110217940D01*
X149507020Y-110199354D01*
X149523469Y-110174735D01*
X149535194Y-110149592D01*
X149550491Y-110134294D01*
X149564031Y-110114031D01*
X149584294Y-110100491D01*
X149599592Y-110085194D01*
X149624735Y-110073469D01*
X149649354Y-110057020D01*
X149667940Y-110053322D01*
X149683147Y-110046232D01*
X149743592Y-110038274D01*
X149750000Y-110037000D01*
X150250000Y-110037000D01*
X150256409Y-110038274D01*
G37*
G36*
X143850960Y-109494650D02*
G01*
X143883564Y-109516436D01*
X143905350Y-109549040D01*
X143913000Y-109587500D01*
X143913000Y-110287500D01*
X143905350Y-110325960D01*
X143883564Y-110358564D01*
X143850960Y-110380350D01*
X143812500Y-110388000D01*
X143687500Y-110388000D01*
X143649040Y-110380350D01*
X143616436Y-110358564D01*
X143594650Y-110325960D01*
X143587000Y-110287500D01*
X143587000Y-109587500D01*
X143594650Y-109549040D01*
X143616436Y-109516436D01*
X143649040Y-109494650D01*
X143687500Y-109487000D01*
X143812500Y-109487000D01*
X143850960Y-109494650D01*
G37*
G36*
X144350960Y-109494650D02*
G01*
X144383564Y-109516436D01*
X144405350Y-109549040D01*
X144413000Y-109587500D01*
X144413000Y-110287500D01*
X144405350Y-110325960D01*
X144383564Y-110358564D01*
X144350960Y-110380350D01*
X144312500Y-110388000D01*
X144187500Y-110388000D01*
X144149040Y-110380350D01*
X144116436Y-110358564D01*
X144094650Y-110325960D01*
X144087000Y-110287500D01*
X144087000Y-109587500D01*
X144094650Y-109549040D01*
X144116436Y-109516436D01*
X144149040Y-109494650D01*
X144187500Y-109487000D01*
X144312500Y-109487000D01*
X144350960Y-109494650D01*
G37*
G36*
X144850960Y-109494650D02*
G01*
X144883564Y-109516436D01*
X144905350Y-109549040D01*
X144913000Y-109587500D01*
X144913000Y-110287500D01*
X144905350Y-110325960D01*
X144883564Y-110358564D01*
X144850960Y-110380350D01*
X144812500Y-110388000D01*
X144687500Y-110388000D01*
X144649040Y-110380350D01*
X144616436Y-110358564D01*
X144594650Y-110325960D01*
X144587000Y-110287500D01*
X144587000Y-109587500D01*
X144594650Y-109549040D01*
X144616436Y-109516436D01*
X144649040Y-109494650D01*
X144687500Y-109487000D01*
X144812500Y-109487000D01*
X144850960Y-109494650D01*
G37*
G36*
X145350960Y-109494650D02*
G01*
X145383564Y-109516436D01*
X145405350Y-109549040D01*
X145413000Y-109587500D01*
X145413000Y-110287500D01*
X145405350Y-110325960D01*
X145383564Y-110358564D01*
X145350960Y-110380350D01*
X145312500Y-110388000D01*
X145187500Y-110388000D01*
X145149040Y-110380350D01*
X145116436Y-110358564D01*
X145094650Y-110325960D01*
X145087000Y-110287500D01*
X145087000Y-109587500D01*
X145094650Y-109549040D01*
X145116436Y-109516436D01*
X145149040Y-109494650D01*
X145187500Y-109487000D01*
X145312500Y-109487000D01*
X145350960Y-109494650D01*
G37*
G36*
X145850960Y-109494650D02*
G01*
X145883564Y-109516436D01*
X145905350Y-109549040D01*
X145913000Y-109587500D01*
X145913000Y-110287500D01*
X145905350Y-110325960D01*
X145883564Y-110358564D01*
X145850960Y-110380350D01*
X145812500Y-110388000D01*
X145687500Y-110388000D01*
X145649040Y-110380350D01*
X145616436Y-110358564D01*
X145594650Y-110325960D01*
X145587000Y-110287500D01*
X145587000Y-109587500D01*
X145594650Y-109549040D01*
X145616436Y-109516436D01*
X145649040Y-109494650D01*
X145687500Y-109487000D01*
X145812500Y-109487000D01*
X145850960Y-109494650D01*
G37*
G36*
X146350960Y-109494650D02*
G01*
X146383564Y-109516436D01*
X146405350Y-109549040D01*
X146413000Y-109587500D01*
X146413000Y-110287500D01*
X146405350Y-110325960D01*
X146383564Y-110358564D01*
X146350960Y-110380350D01*
X146312500Y-110388000D01*
X146187500Y-110388000D01*
X146149040Y-110380350D01*
X146116436Y-110358564D01*
X146094650Y-110325960D01*
X146087000Y-110287500D01*
X146087000Y-109587500D01*
X146094650Y-109549040D01*
X146116436Y-109516436D01*
X146149040Y-109494650D01*
X146187500Y-109487000D01*
X146312500Y-109487000D01*
X146350960Y-109494650D01*
G37*
G36*
X140256409Y-109388274D02*
G01*
X140316852Y-109396232D01*
X140332057Y-109403322D01*
X140350646Y-109407020D01*
X140375266Y-109423470D01*
X140400407Y-109435194D01*
X140415702Y-109450489D01*
X140435969Y-109464031D01*
X140449510Y-109484297D01*
X140464805Y-109499592D01*
X140476527Y-109524730D01*
X140492980Y-109549354D01*
X140496677Y-109567944D01*
X140503767Y-109583147D01*
X140511722Y-109643577D01*
X140513000Y-109650000D01*
X140513000Y-110100000D01*
X140511722Y-110106424D01*
X140503767Y-110166852D01*
X140496678Y-110182054D01*
X140492980Y-110200646D01*
X140476525Y-110225271D01*
X140464805Y-110250407D01*
X140449512Y-110265699D01*
X140435969Y-110285969D01*
X140415699Y-110299512D01*
X140400407Y-110314805D01*
X140375271Y-110326525D01*
X140350646Y-110342980D01*
X140332054Y-110346678D01*
X140316852Y-110353767D01*
X140256424Y-110361722D01*
X140250000Y-110363000D01*
X139750000Y-110363000D01*
X139743577Y-110361722D01*
X139683147Y-110353767D01*
X139667944Y-110346677D01*
X139649354Y-110342980D01*
X139624730Y-110326527D01*
X139599592Y-110314805D01*
X139584297Y-110299510D01*
X139564031Y-110285969D01*
X139550489Y-110265702D01*
X139535194Y-110250407D01*
X139523470Y-110225266D01*
X139507020Y-110200646D01*
X139503322Y-110182057D01*
X139496232Y-110166852D01*
X139488274Y-110106409D01*
X139487000Y-110100000D01*
X139487000Y-109650000D01*
X139488274Y-109643592D01*
X139496232Y-109583147D01*
X139503322Y-109567940D01*
X139507020Y-109549354D01*
X139523469Y-109524735D01*
X139535194Y-109499592D01*
X139550491Y-109484294D01*
X139564031Y-109464031D01*
X139584294Y-109450491D01*
X139599592Y-109435194D01*
X139624735Y-109423469D01*
X139649354Y-109407020D01*
X139667940Y-109403322D01*
X139683147Y-109396232D01*
X139743592Y-109388274D01*
X139750000Y-109387000D01*
X140250000Y-109387000D01*
X140256409Y-109388274D01*
G37*
G36*
X141756409Y-109388274D02*
G01*
X141816852Y-109396232D01*
X141832057Y-109403322D01*
X141850646Y-109407020D01*
X141875266Y-109423470D01*
X141900407Y-109435194D01*
X141915702Y-109450489D01*
X141935969Y-109464031D01*
X141949510Y-109484297D01*
X141964805Y-109499592D01*
X141976527Y-109524730D01*
X141992980Y-109549354D01*
X141996677Y-109567944D01*
X142003767Y-109583147D01*
X142011722Y-109643577D01*
X142013000Y-109650000D01*
X142013000Y-110100000D01*
X142011722Y-110106424D01*
X142003767Y-110166852D01*
X141996678Y-110182054D01*
X141992980Y-110200646D01*
X141976525Y-110225271D01*
X141964805Y-110250407D01*
X141949512Y-110265699D01*
X141935969Y-110285969D01*
X141915699Y-110299512D01*
X141900407Y-110314805D01*
X141875271Y-110326525D01*
X141850646Y-110342980D01*
X141832054Y-110346678D01*
X141816852Y-110353767D01*
X141756424Y-110361722D01*
X141750000Y-110363000D01*
X141250000Y-110363000D01*
X141243577Y-110361722D01*
X141183147Y-110353767D01*
X141167944Y-110346677D01*
X141149354Y-110342980D01*
X141124730Y-110326527D01*
X141099592Y-110314805D01*
X141084297Y-110299510D01*
X141064031Y-110285969D01*
X141050489Y-110265702D01*
X141035194Y-110250407D01*
X141023470Y-110225266D01*
X141007020Y-110200646D01*
X141003322Y-110182057D01*
X140996232Y-110166852D01*
X140988274Y-110106409D01*
X140987000Y-110100000D01*
X140987000Y-109650000D01*
X140988274Y-109643592D01*
X140996232Y-109583147D01*
X141003322Y-109567940D01*
X141007020Y-109549354D01*
X141023469Y-109524735D01*
X141035194Y-109499592D01*
X141050491Y-109484294D01*
X141064031Y-109464031D01*
X141084294Y-109450491D01*
X141099592Y-109435194D01*
X141124735Y-109423469D01*
X141149354Y-109407020D01*
X141167940Y-109403322D01*
X141183147Y-109396232D01*
X141243592Y-109388274D01*
X141250000Y-109387000D01*
X141750000Y-109387000D01*
X141756409Y-109388274D01*
G37*
G36*
X148756409Y-108538274D02*
G01*
X148816852Y-108546232D01*
X148832057Y-108553322D01*
X148850646Y-108557020D01*
X148875266Y-108573470D01*
X148900407Y-108585194D01*
X148915702Y-108600489D01*
X148935969Y-108614031D01*
X148949510Y-108634297D01*
X148964805Y-108649592D01*
X148976527Y-108674730D01*
X148992980Y-108699354D01*
X148996677Y-108717944D01*
X149003767Y-108733147D01*
X149011722Y-108793577D01*
X149013000Y-108800000D01*
X149013000Y-109250000D01*
X149011722Y-109256424D01*
X149003767Y-109316852D01*
X148996678Y-109332054D01*
X148992980Y-109350646D01*
X148976525Y-109375271D01*
X148964805Y-109400407D01*
X148949512Y-109415699D01*
X148935969Y-109435969D01*
X148915699Y-109449512D01*
X148900407Y-109464805D01*
X148875271Y-109476525D01*
X148850646Y-109492980D01*
X148832054Y-109496678D01*
X148816852Y-109503767D01*
X148756424Y-109511722D01*
X148750000Y-109513000D01*
X148250000Y-109513000D01*
X148243577Y-109511722D01*
X148183147Y-109503767D01*
X148167944Y-109496677D01*
X148149354Y-109492980D01*
X148124730Y-109476527D01*
X148099592Y-109464805D01*
X148084297Y-109449510D01*
X148064031Y-109435969D01*
X148050489Y-109415702D01*
X148035194Y-109400407D01*
X148023470Y-109375266D01*
X148007020Y-109350646D01*
X148003322Y-109332057D01*
X147996232Y-109316852D01*
X147988274Y-109256409D01*
X147987000Y-109250000D01*
X147987000Y-108800000D01*
X147988274Y-108793592D01*
X147996232Y-108733147D01*
X148003322Y-108717940D01*
X148007020Y-108699354D01*
X148023469Y-108674735D01*
X148035194Y-108649592D01*
X148050491Y-108634294D01*
X148064031Y-108614031D01*
X148084294Y-108600491D01*
X148099592Y-108585194D01*
X148124735Y-108573469D01*
X148149354Y-108557020D01*
X148167940Y-108553322D01*
X148183147Y-108546232D01*
X148243592Y-108538274D01*
X148250000Y-108537000D01*
X148750000Y-108537000D01*
X148756409Y-108538274D01*
G37*
G36*
X150256409Y-108488274D02*
G01*
X150316852Y-108496232D01*
X150332057Y-108503322D01*
X150350646Y-108507020D01*
X150375266Y-108523470D01*
X150400407Y-108535194D01*
X150415702Y-108550489D01*
X150435969Y-108564031D01*
X150449510Y-108584297D01*
X150464805Y-108599592D01*
X150476527Y-108624730D01*
X150492980Y-108649354D01*
X150496677Y-108667944D01*
X150503767Y-108683147D01*
X150511722Y-108743577D01*
X150513000Y-108750000D01*
X150513000Y-109200000D01*
X150511722Y-109206424D01*
X150503767Y-109266852D01*
X150496678Y-109282054D01*
X150492980Y-109300646D01*
X150476525Y-109325271D01*
X150464805Y-109350407D01*
X150449512Y-109365699D01*
X150435969Y-109385969D01*
X150415699Y-109399512D01*
X150400407Y-109414805D01*
X150375271Y-109426525D01*
X150350646Y-109442980D01*
X150332054Y-109446678D01*
X150316852Y-109453767D01*
X150256424Y-109461722D01*
X150250000Y-109463000D01*
X149750000Y-109463000D01*
X149743577Y-109461722D01*
X149683147Y-109453767D01*
X149667944Y-109446677D01*
X149649354Y-109442980D01*
X149624730Y-109426527D01*
X149599592Y-109414805D01*
X149584297Y-109399510D01*
X149564031Y-109385969D01*
X149550489Y-109365702D01*
X149535194Y-109350407D01*
X149523470Y-109325266D01*
X149507020Y-109300646D01*
X149503322Y-109282057D01*
X149496232Y-109266852D01*
X149488274Y-109206409D01*
X149487000Y-109200000D01*
X149487000Y-108750000D01*
X149488274Y-108743592D01*
X149496232Y-108683147D01*
X149503322Y-108667940D01*
X149507020Y-108649354D01*
X149523469Y-108624735D01*
X149535194Y-108599592D01*
X149550491Y-108584294D01*
X149564031Y-108564031D01*
X149584294Y-108550491D01*
X149599592Y-108535194D01*
X149624735Y-108523469D01*
X149649354Y-108507020D01*
X149667940Y-108503322D01*
X149683147Y-108496232D01*
X149743592Y-108488274D01*
X149750000Y-108487000D01*
X150250000Y-108487000D01*
X150256409Y-108488274D01*
G37*
G36*
X143450960Y-109094650D02*
G01*
X143483564Y-109116436D01*
X143505350Y-109149040D01*
X143513000Y-109187500D01*
X143513000Y-109312500D01*
X143505350Y-109350960D01*
X143483564Y-109383564D01*
X143450960Y-109405350D01*
X143412500Y-109413000D01*
X142712500Y-109413000D01*
X142674040Y-109405350D01*
X142641436Y-109383564D01*
X142619650Y-109350960D01*
X142612000Y-109312500D01*
X142612000Y-109187500D01*
X142619650Y-109149040D01*
X142641436Y-109116436D01*
X142674040Y-109094650D01*
X142712500Y-109087000D01*
X143412500Y-109087000D01*
X143450960Y-109094650D01*
G37*
G36*
X147325960Y-109094650D02*
G01*
X147358564Y-109116436D01*
X147380350Y-109149040D01*
X147388000Y-109187500D01*
X147388000Y-109312500D01*
X147380350Y-109350960D01*
X147358564Y-109383564D01*
X147325960Y-109405350D01*
X147287500Y-109413000D01*
X146587500Y-109413000D01*
X146549040Y-109405350D01*
X146516436Y-109383564D01*
X146494650Y-109350960D01*
X146487000Y-109312500D01*
X146487000Y-109187500D01*
X146494650Y-109149040D01*
X146516436Y-109116436D01*
X146549040Y-109094650D01*
X146587500Y-109087000D01*
X147287500Y-109087000D01*
X147325960Y-109094650D01*
G37*
G36*
X146314542Y-106664893D02*
G01*
X146326870Y-106673130D01*
X146335107Y-106685458D01*
X146338000Y-106700000D01*
X146338000Y-109300000D01*
X146335107Y-109314542D01*
X146326870Y-109326870D01*
X146314542Y-109335107D01*
X146300000Y-109338000D01*
X143700000Y-109338000D01*
X143685458Y-109335107D01*
X143673130Y-109326870D01*
X143664893Y-109314542D01*
X143662000Y-109300000D01*
X143662000Y-106700000D01*
X143664893Y-106685458D01*
X143673130Y-106673130D01*
X143685458Y-106664893D01*
X143700000Y-106662000D01*
X146300000Y-106662000D01*
X146314542Y-106664893D01*
G37*
G36*
X143450960Y-108594650D02*
G01*
X143483564Y-108616436D01*
X143505350Y-108649040D01*
X143513000Y-108687500D01*
X143513000Y-108812500D01*
X143505350Y-108850960D01*
X143483564Y-108883564D01*
X143450960Y-108905350D01*
X143412500Y-108913000D01*
X142712500Y-108913000D01*
X142674040Y-108905350D01*
X142641436Y-108883564D01*
X142619650Y-108850960D01*
X142612000Y-108812500D01*
X142612000Y-108687500D01*
X142619650Y-108649040D01*
X142641436Y-108616436D01*
X142674040Y-108594650D01*
X142712500Y-108587000D01*
X143412500Y-108587000D01*
X143450960Y-108594650D01*
G37*
G36*
X147325960Y-108594650D02*
G01*
X147358564Y-108616436D01*
X147380350Y-108649040D01*
X147388000Y-108687500D01*
X147388000Y-108812500D01*
X147380350Y-108850960D01*
X147358564Y-108883564D01*
X147325960Y-108905350D01*
X147287500Y-108913000D01*
X146587500Y-108913000D01*
X146549040Y-108905350D01*
X146516436Y-108883564D01*
X146494650Y-108850960D01*
X146487000Y-108812500D01*
X146487000Y-108687500D01*
X146494650Y-108649040D01*
X146516436Y-108616436D01*
X146549040Y-108594650D01*
X146587500Y-108587000D01*
X147287500Y-108587000D01*
X147325960Y-108594650D01*
G37*
G36*
X140256409Y-107838274D02*
G01*
X140316852Y-107846232D01*
X140332057Y-107853322D01*
X140350646Y-107857020D01*
X140375266Y-107873470D01*
X140400407Y-107885194D01*
X140415702Y-107900489D01*
X140435969Y-107914031D01*
X140449510Y-107934297D01*
X140464805Y-107949592D01*
X140476527Y-107974730D01*
X140492980Y-107999354D01*
X140496677Y-108017944D01*
X140503767Y-108033147D01*
X140511722Y-108093577D01*
X140513000Y-108100000D01*
X140513000Y-108550000D01*
X140511722Y-108556424D01*
X140503767Y-108616852D01*
X140496678Y-108632054D01*
X140492980Y-108650646D01*
X140476525Y-108675271D01*
X140464805Y-108700407D01*
X140449512Y-108715699D01*
X140435969Y-108735969D01*
X140415699Y-108749512D01*
X140400407Y-108764805D01*
X140375271Y-108776525D01*
X140350646Y-108792980D01*
X140332054Y-108796678D01*
X140316852Y-108803767D01*
X140256424Y-108811722D01*
X140250000Y-108813000D01*
X139750000Y-108813000D01*
X139743577Y-108811722D01*
X139683147Y-108803767D01*
X139667944Y-108796677D01*
X139649354Y-108792980D01*
X139624730Y-108776527D01*
X139599592Y-108764805D01*
X139584297Y-108749510D01*
X139564031Y-108735969D01*
X139550489Y-108715702D01*
X139535194Y-108700407D01*
X139523470Y-108675266D01*
X139507020Y-108650646D01*
X139503322Y-108632057D01*
X139496232Y-108616852D01*
X139488274Y-108556409D01*
X139487000Y-108550000D01*
X139487000Y-108100000D01*
X139488274Y-108093592D01*
X139496232Y-108033147D01*
X139503322Y-108017940D01*
X139507020Y-107999354D01*
X139523469Y-107974735D01*
X139535194Y-107949592D01*
X139550491Y-107934294D01*
X139564031Y-107914031D01*
X139584294Y-107900491D01*
X139599592Y-107885194D01*
X139624735Y-107873469D01*
X139649354Y-107857020D01*
X139667940Y-107853322D01*
X139683147Y-107846232D01*
X139743592Y-107838274D01*
X139750000Y-107837000D01*
X140250000Y-107837000D01*
X140256409Y-107838274D01*
G37*
G36*
X141756409Y-107838274D02*
G01*
X141816852Y-107846232D01*
X141832057Y-107853322D01*
X141850646Y-107857020D01*
X141875266Y-107873470D01*
X141900407Y-107885194D01*
X141915702Y-107900489D01*
X141935969Y-107914031D01*
X141949510Y-107934297D01*
X141964805Y-107949592D01*
X141976527Y-107974730D01*
X141992980Y-107999354D01*
X141996677Y-108017944D01*
X142003767Y-108033147D01*
X142011722Y-108093577D01*
X142013000Y-108100000D01*
X142013000Y-108550000D01*
X142011722Y-108556424D01*
X142003767Y-108616852D01*
X141996678Y-108632054D01*
X141992980Y-108650646D01*
X141976525Y-108675271D01*
X141964805Y-108700407D01*
X141949512Y-108715699D01*
X141935969Y-108735969D01*
X141915699Y-108749512D01*
X141900407Y-108764805D01*
X141875271Y-108776525D01*
X141850646Y-108792980D01*
X141832054Y-108796678D01*
X141816852Y-108803767D01*
X141756424Y-108811722D01*
X141750000Y-108813000D01*
X141250000Y-108813000D01*
X141243577Y-108811722D01*
X141183147Y-108803767D01*
X141167944Y-108796677D01*
X141149354Y-108792980D01*
X141124730Y-108776527D01*
X141099592Y-108764805D01*
X141084297Y-108749510D01*
X141064031Y-108735969D01*
X141050489Y-108715702D01*
X141035194Y-108700407D01*
X141023470Y-108675266D01*
X141007020Y-108650646D01*
X141003322Y-108632057D01*
X140996232Y-108616852D01*
X140988274Y-108556409D01*
X140987000Y-108550000D01*
X140987000Y-108100000D01*
X140988274Y-108093592D01*
X140996232Y-108033147D01*
X141003322Y-108017940D01*
X141007020Y-107999354D01*
X141023469Y-107974735D01*
X141035194Y-107949592D01*
X141050491Y-107934294D01*
X141064031Y-107914031D01*
X141084294Y-107900491D01*
X141099592Y-107885194D01*
X141124735Y-107873469D01*
X141149354Y-107857020D01*
X141167940Y-107853322D01*
X141183147Y-107846232D01*
X141243592Y-107838274D01*
X141250000Y-107837000D01*
X141750000Y-107837000D01*
X141756409Y-107838274D01*
G37*
G36*
X143450960Y-108094650D02*
G01*
X143483564Y-108116436D01*
X143505350Y-108149040D01*
X143513000Y-108187500D01*
X143513000Y-108312500D01*
X143505350Y-108350960D01*
X143483564Y-108383564D01*
X143450960Y-108405350D01*
X143412500Y-108413000D01*
X142712500Y-108413000D01*
X142674040Y-108405350D01*
X142641436Y-108383564D01*
X142619650Y-108350960D01*
X142612000Y-108312500D01*
X142612000Y-108187500D01*
X142619650Y-108149040D01*
X142641436Y-108116436D01*
X142674040Y-108094650D01*
X142712500Y-108087000D01*
X143412500Y-108087000D01*
X143450960Y-108094650D01*
G37*
G36*
X147325960Y-108094650D02*
G01*
X147358564Y-108116436D01*
X147380350Y-108149040D01*
X147388000Y-108187500D01*
X147388000Y-108312500D01*
X147380350Y-108350960D01*
X147358564Y-108383564D01*
X147325960Y-108405350D01*
X147287500Y-108413000D01*
X146587500Y-108413000D01*
X146549040Y-108405350D01*
X146516436Y-108383564D01*
X146494650Y-108350960D01*
X146487000Y-108312500D01*
X146487000Y-108187500D01*
X146494650Y-108149040D01*
X146516436Y-108116436D01*
X146549040Y-108094650D01*
X146587500Y-108087000D01*
X147287500Y-108087000D01*
X147325960Y-108094650D01*
G37*
G36*
X150256409Y-107038274D02*
G01*
X150316852Y-107046232D01*
X150332057Y-107053322D01*
X150350646Y-107057020D01*
X150375266Y-107073470D01*
X150400407Y-107085194D01*
X150415702Y-107100489D01*
X150435969Y-107114031D01*
X150449510Y-107134297D01*
X150464805Y-107149592D01*
X150476527Y-107174730D01*
X150492980Y-107199354D01*
X150496677Y-107217944D01*
X150503767Y-107233147D01*
X150511722Y-107293577D01*
X150513000Y-107300000D01*
X150513000Y-107750000D01*
X150511722Y-107756424D01*
X150503767Y-107816852D01*
X150496678Y-107832054D01*
X150492980Y-107850646D01*
X150476525Y-107875271D01*
X150464805Y-107900407D01*
X150449512Y-107915699D01*
X150435969Y-107935969D01*
X150415699Y-107949512D01*
X150400407Y-107964805D01*
X150375271Y-107976525D01*
X150350646Y-107992980D01*
X150332054Y-107996678D01*
X150316852Y-108003767D01*
X150256424Y-108011722D01*
X150250000Y-108013000D01*
X149750000Y-108013000D01*
X149743577Y-108011722D01*
X149683147Y-108003767D01*
X149667944Y-107996677D01*
X149649354Y-107992980D01*
X149624730Y-107976527D01*
X149599592Y-107964805D01*
X149584297Y-107949510D01*
X149564031Y-107935969D01*
X149550489Y-107915702D01*
X149535194Y-107900407D01*
X149523470Y-107875266D01*
X149507020Y-107850646D01*
X149503322Y-107832057D01*
X149496232Y-107816852D01*
X149488274Y-107756409D01*
X149487000Y-107750000D01*
X149487000Y-107300000D01*
X149488274Y-107293592D01*
X149496232Y-107233147D01*
X149503322Y-107217940D01*
X149507020Y-107199354D01*
X149523469Y-107174735D01*
X149535194Y-107149592D01*
X149550491Y-107134294D01*
X149564031Y-107114031D01*
X149584294Y-107100491D01*
X149599592Y-107085194D01*
X149624735Y-107073469D01*
X149649354Y-107057020D01*
X149667940Y-107053322D01*
X149683147Y-107046232D01*
X149743592Y-107038274D01*
X149750000Y-107037000D01*
X150250000Y-107037000D01*
X150256409Y-107038274D01*
G37*
G36*
X148756409Y-106988274D02*
G01*
X148816852Y-106996232D01*
X148832057Y-107003322D01*
X148850646Y-107007020D01*
X148875266Y-107023470D01*
X148900407Y-107035194D01*
X148915702Y-107050489D01*
X148935969Y-107064031D01*
X148949510Y-107084297D01*
X148964805Y-107099592D01*
X148976527Y-107124730D01*
X148992980Y-107149354D01*
X148996677Y-107167944D01*
X149003767Y-107183147D01*
X149011722Y-107243577D01*
X149013000Y-107250000D01*
X149013000Y-107700000D01*
X149011722Y-107706424D01*
X149003767Y-107766852D01*
X148996678Y-107782054D01*
X148992980Y-107800646D01*
X148976525Y-107825271D01*
X148964805Y-107850407D01*
X148949512Y-107865699D01*
X148935969Y-107885969D01*
X148915699Y-107899512D01*
X148900407Y-107914805D01*
X148875271Y-107926525D01*
X148850646Y-107942980D01*
X148832054Y-107946678D01*
X148816852Y-107953767D01*
X148756424Y-107961722D01*
X148750000Y-107963000D01*
X148250000Y-107963000D01*
X148243577Y-107961722D01*
X148183147Y-107953767D01*
X148167944Y-107946677D01*
X148149354Y-107942980D01*
X148124730Y-107926527D01*
X148099592Y-107914805D01*
X148084297Y-107899510D01*
X148064031Y-107885969D01*
X148050489Y-107865702D01*
X148035194Y-107850407D01*
X148023470Y-107825266D01*
X148007020Y-107800646D01*
X148003322Y-107782057D01*
X147996232Y-107766852D01*
X147988274Y-107706409D01*
X147987000Y-107700000D01*
X147987000Y-107250000D01*
X147988274Y-107243592D01*
X147996232Y-107183147D01*
X148003322Y-107167940D01*
X148007020Y-107149354D01*
X148023469Y-107124735D01*
X148035194Y-107099592D01*
X148050491Y-107084294D01*
X148064031Y-107064031D01*
X148084294Y-107050491D01*
X148099592Y-107035194D01*
X148124735Y-107023469D01*
X148149354Y-107007020D01*
X148167940Y-107003322D01*
X148183147Y-106996232D01*
X148243592Y-106988274D01*
X148250000Y-106987000D01*
X148750000Y-106987000D01*
X148756409Y-106988274D01*
G37*
G36*
X143450960Y-107594650D02*
G01*
X143483564Y-107616436D01*
X143505350Y-107649040D01*
X143513000Y-107687500D01*
X143513000Y-107812500D01*
X143505350Y-107850960D01*
X143483564Y-107883564D01*
X143450960Y-107905350D01*
X143412500Y-107913000D01*
X142712500Y-107913000D01*
X142674040Y-107905350D01*
X142641436Y-107883564D01*
X142619650Y-107850960D01*
X142612000Y-107812500D01*
X142612000Y-107687500D01*
X142619650Y-107649040D01*
X142641436Y-107616436D01*
X142674040Y-107594650D01*
X142712500Y-107587000D01*
X143412500Y-107587000D01*
X143450960Y-107594650D01*
G37*
G36*
X147325960Y-107594650D02*
G01*
X147358564Y-107616436D01*
X147380350Y-107649040D01*
X147388000Y-107687500D01*
X147388000Y-107812500D01*
X147380350Y-107850960D01*
X147358564Y-107883564D01*
X147325960Y-107905350D01*
X147287500Y-107913000D01*
X146587500Y-107913000D01*
X146549040Y-107905350D01*
X146516436Y-107883564D01*
X146494650Y-107850960D01*
X146487000Y-107812500D01*
X146487000Y-107687500D01*
X146494650Y-107649040D01*
X146516436Y-107616436D01*
X146549040Y-107594650D01*
X146587500Y-107587000D01*
X147287500Y-107587000D01*
X147325960Y-107594650D01*
G37*
G36*
X143450960Y-107094650D02*
G01*
X143483564Y-107116436D01*
X143505350Y-107149040D01*
X143513000Y-107187500D01*
X143513000Y-107312500D01*
X143505350Y-107350960D01*
X143483564Y-107383564D01*
X143450960Y-107405350D01*
X143412500Y-107413000D01*
X142712500Y-107413000D01*
X142674040Y-107405350D01*
X142641436Y-107383564D01*
X142619650Y-107350960D01*
X142612000Y-107312500D01*
X142612000Y-107187500D01*
X142619650Y-107149040D01*
X142641436Y-107116436D01*
X142674040Y-107094650D01*
X142712500Y-107087000D01*
X143412500Y-107087000D01*
X143450960Y-107094650D01*
G37*
G36*
X147325960Y-107094650D02*
G01*
X147358564Y-107116436D01*
X147380350Y-107149040D01*
X147388000Y-107187500D01*
X147388000Y-107312500D01*
X147380350Y-107350960D01*
X147358564Y-107383564D01*
X147325960Y-107405350D01*
X147287500Y-107413000D01*
X146587500Y-107413000D01*
X146549040Y-107405350D01*
X146516436Y-107383564D01*
X146494650Y-107350960D01*
X146487000Y-107312500D01*
X146487000Y-107187500D01*
X146494650Y-107149040D01*
X146516436Y-107116436D01*
X146549040Y-107094650D01*
X146587500Y-107087000D01*
X147287500Y-107087000D01*
X147325960Y-107094650D01*
G37*
G36*
X140256409Y-106288274D02*
G01*
X140316852Y-106296232D01*
X140332057Y-106303322D01*
X140350646Y-106307020D01*
X140375266Y-106323470D01*
X140400407Y-106335194D01*
X140415702Y-106350489D01*
X140435969Y-106364031D01*
X140449510Y-106384297D01*
X140464805Y-106399592D01*
X140476527Y-106424730D01*
X140492980Y-106449354D01*
X140496677Y-106467944D01*
X140503767Y-106483147D01*
X140511722Y-106543577D01*
X140513000Y-106550000D01*
X140513000Y-107000000D01*
X140511722Y-107006424D01*
X140503767Y-107066852D01*
X140496678Y-107082054D01*
X140492980Y-107100646D01*
X140476525Y-107125271D01*
X140464805Y-107150407D01*
X140449512Y-107165699D01*
X140435969Y-107185969D01*
X140415699Y-107199512D01*
X140400407Y-107214805D01*
X140375271Y-107226525D01*
X140350646Y-107242980D01*
X140332054Y-107246678D01*
X140316852Y-107253767D01*
X140256424Y-107261722D01*
X140250000Y-107263000D01*
X139750000Y-107263000D01*
X139743577Y-107261722D01*
X139683147Y-107253767D01*
X139667944Y-107246677D01*
X139649354Y-107242980D01*
X139624730Y-107226527D01*
X139599592Y-107214805D01*
X139584297Y-107199510D01*
X139564031Y-107185969D01*
X139550489Y-107165702D01*
X139535194Y-107150407D01*
X139523470Y-107125266D01*
X139507020Y-107100646D01*
X139503322Y-107082057D01*
X139496232Y-107066852D01*
X139488274Y-107006409D01*
X139487000Y-107000000D01*
X139487000Y-106550000D01*
X139488274Y-106543592D01*
X139496232Y-106483147D01*
X139503322Y-106467940D01*
X139507020Y-106449354D01*
X139523469Y-106424735D01*
X139535194Y-106399592D01*
X139550491Y-106384294D01*
X139564031Y-106364031D01*
X139584294Y-106350491D01*
X139599592Y-106335194D01*
X139624735Y-106323469D01*
X139649354Y-106307020D01*
X139667940Y-106303322D01*
X139683147Y-106296232D01*
X139743592Y-106288274D01*
X139750000Y-106287000D01*
X140250000Y-106287000D01*
X140256409Y-106288274D01*
G37*
G36*
X143450960Y-106594650D02*
G01*
X143483564Y-106616436D01*
X143505350Y-106649040D01*
X143513000Y-106687500D01*
X143513000Y-106812500D01*
X143505350Y-106850960D01*
X143483564Y-106883564D01*
X143450960Y-106905350D01*
X143412500Y-106913000D01*
X142712500Y-106913000D01*
X142674040Y-106905350D01*
X142641436Y-106883564D01*
X142619650Y-106850960D01*
X142612000Y-106812500D01*
X142612000Y-106687500D01*
X142619650Y-106649040D01*
X142641436Y-106616436D01*
X142674040Y-106594650D01*
X142712500Y-106587000D01*
X143412500Y-106587000D01*
X143450960Y-106594650D01*
G37*
G36*
X147325960Y-106594650D02*
G01*
X147358564Y-106616436D01*
X147380350Y-106649040D01*
X147388000Y-106687500D01*
X147388000Y-106812500D01*
X147380350Y-106850960D01*
X147358564Y-106883564D01*
X147325960Y-106905350D01*
X147287500Y-106913000D01*
X146587500Y-106913000D01*
X146549040Y-106905350D01*
X146516436Y-106883564D01*
X146494650Y-106850960D01*
X146487000Y-106812500D01*
X146487000Y-106687500D01*
X146494650Y-106649040D01*
X146516436Y-106616436D01*
X146549040Y-106594650D01*
X146587500Y-106587000D01*
X147287500Y-106587000D01*
X147325960Y-106594650D01*
G37*
G36*
X143850960Y-105619650D02*
G01*
X143883564Y-105641436D01*
X143905350Y-105674040D01*
X143913000Y-105712500D01*
X143913000Y-106412500D01*
X143905350Y-106450960D01*
X143883564Y-106483564D01*
X143850960Y-106505350D01*
X143812500Y-106513000D01*
X143687500Y-106513000D01*
X143649040Y-106505350D01*
X143616436Y-106483564D01*
X143594650Y-106450960D01*
X143587000Y-106412500D01*
X143587000Y-105712500D01*
X143594650Y-105674040D01*
X143616436Y-105641436D01*
X143649040Y-105619650D01*
X143687500Y-105612000D01*
X143812500Y-105612000D01*
X143850960Y-105619650D01*
G37*
G36*
X144350960Y-105619650D02*
G01*
X144383564Y-105641436D01*
X144405350Y-105674040D01*
X144413000Y-105712500D01*
X144413000Y-106412500D01*
X144405350Y-106450960D01*
X144383564Y-106483564D01*
X144350960Y-106505350D01*
X144312500Y-106513000D01*
X144187500Y-106513000D01*
X144149040Y-106505350D01*
X144116436Y-106483564D01*
X144094650Y-106450960D01*
X144087000Y-106412500D01*
X144087000Y-105712500D01*
X144094650Y-105674040D01*
X144116436Y-105641436D01*
X144149040Y-105619650D01*
X144187500Y-105612000D01*
X144312500Y-105612000D01*
X144350960Y-105619650D01*
G37*
G36*
X144850960Y-105619650D02*
G01*
X144883564Y-105641436D01*
X144905350Y-105674040D01*
X144913000Y-105712500D01*
X144913000Y-106412500D01*
X144905350Y-106450960D01*
X144883564Y-106483564D01*
X144850960Y-106505350D01*
X144812500Y-106513000D01*
X144687500Y-106513000D01*
X144649040Y-106505350D01*
X144616436Y-106483564D01*
X144594650Y-106450960D01*
X144587000Y-106412500D01*
X144587000Y-105712500D01*
X144594650Y-105674040D01*
X144616436Y-105641436D01*
X144649040Y-105619650D01*
X144687500Y-105612000D01*
X144812500Y-105612000D01*
X144850960Y-105619650D01*
G37*
G36*
X145350960Y-105619650D02*
G01*
X145383564Y-105641436D01*
X145405350Y-105674040D01*
X145413000Y-105712500D01*
X145413000Y-106412500D01*
X145405350Y-106450960D01*
X145383564Y-106483564D01*
X145350960Y-106505350D01*
X145312500Y-106513000D01*
X145187500Y-106513000D01*
X145149040Y-106505350D01*
X145116436Y-106483564D01*
X145094650Y-106450960D01*
X145087000Y-106412500D01*
X145087000Y-105712500D01*
X145094650Y-105674040D01*
X145116436Y-105641436D01*
X145149040Y-105619650D01*
X145187500Y-105612000D01*
X145312500Y-105612000D01*
X145350960Y-105619650D01*
G37*
G36*
X145850960Y-105619650D02*
G01*
X145883564Y-105641436D01*
X145905350Y-105674040D01*
X145913000Y-105712500D01*
X145913000Y-106412500D01*
X145905350Y-106450960D01*
X145883564Y-106483564D01*
X145850960Y-106505350D01*
X145812500Y-106513000D01*
X145687500Y-106513000D01*
X145649040Y-106505350D01*
X145616436Y-106483564D01*
X145594650Y-106450960D01*
X145587000Y-106412500D01*
X145587000Y-105712500D01*
X145594650Y-105674040D01*
X145616436Y-105641436D01*
X145649040Y-105619650D01*
X145687500Y-105612000D01*
X145812500Y-105612000D01*
X145850960Y-105619650D01*
G37*
G36*
X146350960Y-105619650D02*
G01*
X146383564Y-105641436D01*
X146405350Y-105674040D01*
X146413000Y-105712500D01*
X146413000Y-106412500D01*
X146405350Y-106450960D01*
X146383564Y-106483564D01*
X146350960Y-106505350D01*
X146312500Y-106513000D01*
X146187500Y-106513000D01*
X146149040Y-106505350D01*
X146116436Y-106483564D01*
X146094650Y-106450960D01*
X146087000Y-106412500D01*
X146087000Y-105712500D01*
X146094650Y-105674040D01*
X146116436Y-105641436D01*
X146149040Y-105619650D01*
X146187500Y-105612000D01*
X146312500Y-105612000D01*
X146350960Y-105619650D01*
G37*
G36*
X150256409Y-105488274D02*
G01*
X150316852Y-105496232D01*
X150332057Y-105503322D01*
X150350646Y-105507020D01*
X150375266Y-105523470D01*
X150400407Y-105535194D01*
X150415702Y-105550489D01*
X150435969Y-105564031D01*
X150449510Y-105584297D01*
X150464805Y-105599592D01*
X150476527Y-105624730D01*
X150492980Y-105649354D01*
X150496677Y-105667944D01*
X150503767Y-105683147D01*
X150511722Y-105743577D01*
X150513000Y-105750000D01*
X150513000Y-106200000D01*
X150511722Y-106206424D01*
X150503767Y-106266852D01*
X150496678Y-106282054D01*
X150492980Y-106300646D01*
X150476525Y-106325271D01*
X150464805Y-106350407D01*
X150449512Y-106365699D01*
X150435969Y-106385969D01*
X150415699Y-106399512D01*
X150400407Y-106414805D01*
X150375271Y-106426525D01*
X150350646Y-106442980D01*
X150332054Y-106446678D01*
X150316852Y-106453767D01*
X150256424Y-106461722D01*
X150250000Y-106463000D01*
X149750000Y-106463000D01*
X149743577Y-106461722D01*
X149683147Y-106453767D01*
X149667944Y-106446677D01*
X149649354Y-106442980D01*
X149624730Y-106426527D01*
X149599592Y-106414805D01*
X149584297Y-106399510D01*
X149564031Y-106385969D01*
X149550489Y-106365702D01*
X149535194Y-106350407D01*
X149523470Y-106325266D01*
X149507020Y-106300646D01*
X149503322Y-106282057D01*
X149496232Y-106266852D01*
X149488274Y-106206409D01*
X149487000Y-106200000D01*
X149487000Y-105750000D01*
X149488274Y-105743592D01*
X149496232Y-105683147D01*
X149503322Y-105667940D01*
X149507020Y-105649354D01*
X149523469Y-105624735D01*
X149535194Y-105599592D01*
X149550491Y-105584294D01*
X149564031Y-105564031D01*
X149584294Y-105550491D01*
X149599592Y-105535194D01*
X149624735Y-105523469D01*
X149649354Y-105507020D01*
X149667940Y-105503322D01*
X149683147Y-105496232D01*
X149743592Y-105488274D01*
X149750000Y-105487000D01*
X150250000Y-105487000D01*
X150256409Y-105488274D01*
G37*
G36*
X140256409Y-104738274D02*
G01*
X140316852Y-104746232D01*
X140332057Y-104753322D01*
X140350646Y-104757020D01*
X140375266Y-104773470D01*
X140400407Y-104785194D01*
X140415702Y-104800489D01*
X140435969Y-104814031D01*
X140449510Y-104834297D01*
X140464805Y-104849592D01*
X140476527Y-104874730D01*
X140492980Y-104899354D01*
X140496677Y-104917944D01*
X140503767Y-104933147D01*
X140511722Y-104993577D01*
X140513000Y-105000000D01*
X140513000Y-105450000D01*
X140511722Y-105456424D01*
X140503767Y-105516852D01*
X140496678Y-105532054D01*
X140492980Y-105550646D01*
X140476525Y-105575271D01*
X140464805Y-105600407D01*
X140449512Y-105615699D01*
X140435969Y-105635969D01*
X140415699Y-105649512D01*
X140400407Y-105664805D01*
X140375271Y-105676525D01*
X140350646Y-105692980D01*
X140332054Y-105696678D01*
X140316852Y-105703767D01*
X140256424Y-105711722D01*
X140250000Y-105713000D01*
X139750000Y-105713000D01*
X139743577Y-105711722D01*
X139683147Y-105703767D01*
X139667944Y-105696677D01*
X139649354Y-105692980D01*
X139624730Y-105676527D01*
X139599592Y-105664805D01*
X139584297Y-105649510D01*
X139564031Y-105635969D01*
X139550489Y-105615702D01*
X139535194Y-105600407D01*
X139523470Y-105575266D01*
X139507020Y-105550646D01*
X139503322Y-105532057D01*
X139496232Y-105516852D01*
X139488274Y-105456409D01*
X139487000Y-105450000D01*
X139487000Y-105000000D01*
X139488274Y-104993592D01*
X139496232Y-104933147D01*
X139503322Y-104917940D01*
X139507020Y-104899354D01*
X139523469Y-104874735D01*
X139535194Y-104849592D01*
X139550491Y-104834294D01*
X139564031Y-104814031D01*
X139584294Y-104800491D01*
X139599592Y-104785194D01*
X139624735Y-104773469D01*
X139649354Y-104757020D01*
X139667940Y-104753322D01*
X139683147Y-104746232D01*
X139743592Y-104738274D01*
X139750000Y-104737000D01*
X140250000Y-104737000D01*
X140256409Y-104738274D01*
G37*
G36*
X146106409Y-104088274D02*
G01*
X146166852Y-104096232D01*
X146182057Y-104103322D01*
X146200646Y-104107020D01*
X146225266Y-104123470D01*
X146250407Y-104135194D01*
X146265702Y-104150489D01*
X146285969Y-104164031D01*
X146299510Y-104184297D01*
X146314805Y-104199592D01*
X146326527Y-104224730D01*
X146342980Y-104249354D01*
X146346677Y-104267944D01*
X146353767Y-104283147D01*
X146361722Y-104343577D01*
X146363000Y-104350000D01*
X146363000Y-104850000D01*
X146361722Y-104856424D01*
X146353767Y-104916852D01*
X146346678Y-104932054D01*
X146342980Y-104950646D01*
X146326525Y-104975271D01*
X146314805Y-105000407D01*
X146299512Y-105015699D01*
X146285969Y-105035969D01*
X146265699Y-105049512D01*
X146250407Y-105064805D01*
X146225271Y-105076525D01*
X146200646Y-105092980D01*
X146182054Y-105096678D01*
X146166852Y-105103767D01*
X146106424Y-105111722D01*
X146100000Y-105113000D01*
X145650000Y-105113000D01*
X145643577Y-105111722D01*
X145583147Y-105103767D01*
X145567944Y-105096677D01*
X145549354Y-105092980D01*
X145524730Y-105076527D01*
X145499592Y-105064805D01*
X145484297Y-105049510D01*
X145464031Y-105035969D01*
X145450489Y-105015702D01*
X145435194Y-105000407D01*
X145423470Y-104975266D01*
X145407020Y-104950646D01*
X145403322Y-104932057D01*
X145396232Y-104916852D01*
X145388274Y-104856409D01*
X145387000Y-104850000D01*
X145387000Y-104350000D01*
X145388274Y-104343592D01*
X145396232Y-104283147D01*
X145403322Y-104267940D01*
X145407020Y-104249354D01*
X145423469Y-104224735D01*
X145435194Y-104199592D01*
X145450491Y-104184294D01*
X145464031Y-104164031D01*
X145484294Y-104150491D01*
X145499592Y-104135194D01*
X145524735Y-104123469D01*
X145549354Y-104107020D01*
X145567940Y-104103322D01*
X145583147Y-104096232D01*
X145643592Y-104088274D01*
X145650000Y-104087000D01*
X146100000Y-104087000D01*
X146106409Y-104088274D01*
G37*
G36*
X147656409Y-104088274D02*
G01*
X147716852Y-104096232D01*
X147732057Y-104103322D01*
X147750646Y-104107020D01*
X147775266Y-104123470D01*
X147800407Y-104135194D01*
X147815702Y-104150489D01*
X147835969Y-104164031D01*
X147849510Y-104184297D01*
X147864805Y-104199592D01*
X147876527Y-104224730D01*
X147892980Y-104249354D01*
X147896677Y-104267944D01*
X147903767Y-104283147D01*
X147911722Y-104343577D01*
X147913000Y-104350000D01*
X147913000Y-104850000D01*
X147911722Y-104856424D01*
X147903767Y-104916852D01*
X147896678Y-104932054D01*
X147892980Y-104950646D01*
X147876525Y-104975271D01*
X147864805Y-105000407D01*
X147849512Y-105015699D01*
X147835969Y-105035969D01*
X147815699Y-105049512D01*
X147800407Y-105064805D01*
X147775271Y-105076525D01*
X147750646Y-105092980D01*
X147732054Y-105096678D01*
X147716852Y-105103767D01*
X147656424Y-105111722D01*
X147650000Y-105113000D01*
X147200000Y-105113000D01*
X147193577Y-105111722D01*
X147133147Y-105103767D01*
X147117944Y-105096677D01*
X147099354Y-105092980D01*
X147074730Y-105076527D01*
X147049592Y-105064805D01*
X147034297Y-105049510D01*
X147014031Y-105035969D01*
X147000489Y-105015702D01*
X146985194Y-105000407D01*
X146973470Y-104975266D01*
X146957020Y-104950646D01*
X146953322Y-104932057D01*
X146946232Y-104916852D01*
X146938274Y-104856409D01*
X146937000Y-104850000D01*
X146937000Y-104350000D01*
X146938274Y-104343592D01*
X146946232Y-104283147D01*
X146953322Y-104267940D01*
X146957020Y-104249354D01*
X146973469Y-104224735D01*
X146985194Y-104199592D01*
X147000491Y-104184294D01*
X147014031Y-104164031D01*
X147034294Y-104150491D01*
X147049592Y-104135194D01*
X147074735Y-104123469D01*
X147099354Y-104107020D01*
X147117940Y-104103322D01*
X147133147Y-104096232D01*
X147193592Y-104088274D01*
X147200000Y-104087000D01*
X147650000Y-104087000D01*
X147656409Y-104088274D01*
G37*
G36*
X143506409Y-102288274D02*
G01*
X143566852Y-102296232D01*
X143582057Y-102303322D01*
X143600646Y-102307020D01*
X143625266Y-102323470D01*
X143650407Y-102335194D01*
X143665702Y-102350489D01*
X143685969Y-102364031D01*
X143699510Y-102384297D01*
X143714805Y-102399592D01*
X143726527Y-102424730D01*
X143742980Y-102449354D01*
X143746677Y-102467944D01*
X143753767Y-102483147D01*
X143761722Y-102543577D01*
X143763000Y-102550000D01*
X143763000Y-103000000D01*
X143761722Y-103006424D01*
X143753767Y-103066852D01*
X143746678Y-103082054D01*
X143742980Y-103100646D01*
X143726525Y-103125271D01*
X143714805Y-103150407D01*
X143699512Y-103165699D01*
X143685969Y-103185969D01*
X143665699Y-103199512D01*
X143650407Y-103214805D01*
X143625271Y-103226525D01*
X143600646Y-103242980D01*
X143582054Y-103246678D01*
X143566852Y-103253767D01*
X143506424Y-103261722D01*
X143500000Y-103263000D01*
X143000000Y-103263000D01*
X142993577Y-103261722D01*
X142933147Y-103253767D01*
X142917944Y-103246677D01*
X142899354Y-103242980D01*
X142874730Y-103226527D01*
X142849592Y-103214805D01*
X142834297Y-103199510D01*
X142814031Y-103185969D01*
X142800489Y-103165702D01*
X142785194Y-103150407D01*
X142773470Y-103125266D01*
X142757020Y-103100646D01*
X142753322Y-103082057D01*
X142746232Y-103066852D01*
X142738274Y-103006409D01*
X142737000Y-103000000D01*
X142737000Y-102550000D01*
X142738274Y-102543592D01*
X142746232Y-102483147D01*
X142753322Y-102467940D01*
X142757020Y-102449354D01*
X142773469Y-102424735D01*
X142785194Y-102399592D01*
X142800491Y-102384294D01*
X142814031Y-102364031D01*
X142834294Y-102350491D01*
X142849592Y-102335194D01*
X142874735Y-102323469D01*
X142899354Y-102307020D01*
X142917940Y-102303322D01*
X142933147Y-102296232D01*
X142993592Y-102288274D01*
X143000000Y-102287000D01*
X143500000Y-102287000D01*
X143506409Y-102288274D01*
G37*
G36*
X145506409Y-102288274D02*
G01*
X145566852Y-102296232D01*
X145582057Y-102303322D01*
X145600646Y-102307020D01*
X145625266Y-102323470D01*
X145650407Y-102335194D01*
X145665702Y-102350489D01*
X145685969Y-102364031D01*
X145699510Y-102384297D01*
X145714805Y-102399592D01*
X145726527Y-102424730D01*
X145742980Y-102449354D01*
X145746677Y-102467944D01*
X145753767Y-102483147D01*
X145761722Y-102543577D01*
X145763000Y-102550000D01*
X145763000Y-103000000D01*
X145761722Y-103006424D01*
X145753767Y-103066852D01*
X145746678Y-103082054D01*
X145742980Y-103100646D01*
X145726525Y-103125271D01*
X145714805Y-103150407D01*
X145699512Y-103165699D01*
X145685969Y-103185969D01*
X145665699Y-103199512D01*
X145650407Y-103214805D01*
X145625271Y-103226525D01*
X145600646Y-103242980D01*
X145582054Y-103246678D01*
X145566852Y-103253767D01*
X145506424Y-103261722D01*
X145500000Y-103263000D01*
X145000000Y-103263000D01*
X144993577Y-103261722D01*
X144933147Y-103253767D01*
X144917944Y-103246677D01*
X144899354Y-103242980D01*
X144874730Y-103226527D01*
X144849592Y-103214805D01*
X144834297Y-103199510D01*
X144814031Y-103185969D01*
X144800489Y-103165702D01*
X144785194Y-103150407D01*
X144773470Y-103125266D01*
X144757020Y-103100646D01*
X144753322Y-103082057D01*
X144746232Y-103066852D01*
X144738274Y-103006409D01*
X144737000Y-103000000D01*
X144737000Y-102550000D01*
X144738274Y-102543592D01*
X144746232Y-102483147D01*
X144753322Y-102467940D01*
X144757020Y-102449354D01*
X144773469Y-102424735D01*
X144785194Y-102399592D01*
X144800491Y-102384294D01*
X144814031Y-102364031D01*
X144834294Y-102350491D01*
X144849592Y-102335194D01*
X144874735Y-102323469D01*
X144899354Y-102307020D01*
X144917940Y-102303322D01*
X144933147Y-102296232D01*
X144993592Y-102288274D01*
X145000000Y-102287000D01*
X145500000Y-102287000D01*
X145506409Y-102288274D01*
G37*
G36*
X143506409Y-100738274D02*
G01*
X143566852Y-100746232D01*
X143582057Y-100753322D01*
X143600646Y-100757020D01*
X143625266Y-100773470D01*
X143650407Y-100785194D01*
X143665702Y-100800489D01*
X143685969Y-100814031D01*
X143699510Y-100834297D01*
X143714805Y-100849592D01*
X143726527Y-100874730D01*
X143742980Y-100899354D01*
X143746677Y-100917944D01*
X143753767Y-100933147D01*
X143761722Y-100993577D01*
X143763000Y-101000000D01*
X143763000Y-101450000D01*
X143761722Y-101456424D01*
X143753767Y-101516852D01*
X143746678Y-101532054D01*
X143742980Y-101550646D01*
X143726525Y-101575271D01*
X143714805Y-101600407D01*
X143699512Y-101615699D01*
X143685969Y-101635969D01*
X143665699Y-101649512D01*
X143650407Y-101664805D01*
X143625271Y-101676525D01*
X143600646Y-101692980D01*
X143582054Y-101696678D01*
X143566852Y-101703767D01*
X143506424Y-101711722D01*
X143500000Y-101713000D01*
X143000000Y-101713000D01*
X142993577Y-101711722D01*
X142933147Y-101703767D01*
X142917944Y-101696677D01*
X142899354Y-101692980D01*
X142874730Y-101676527D01*
X142849592Y-101664805D01*
X142834297Y-101649510D01*
X142814031Y-101635969D01*
X142800489Y-101615702D01*
X142785194Y-101600407D01*
X142773470Y-101575266D01*
X142757020Y-101550646D01*
X142753322Y-101532057D01*
X142746232Y-101516852D01*
X142738274Y-101456409D01*
X142737000Y-101450000D01*
X142737000Y-101000000D01*
X142738274Y-100993592D01*
X142746232Y-100933147D01*
X142753322Y-100917940D01*
X142757020Y-100899354D01*
X142773469Y-100874735D01*
X142785194Y-100849592D01*
X142800491Y-100834294D01*
X142814031Y-100814031D01*
X142834294Y-100800491D01*
X142849592Y-100785194D01*
X142874735Y-100773469D01*
X142899354Y-100757020D01*
X142917940Y-100753322D01*
X142933147Y-100746232D01*
X142993592Y-100738274D01*
X143000000Y-100737000D01*
X143500000Y-100737000D01*
X143506409Y-100738274D01*
G37*
G36*
X145506409Y-100738274D02*
G01*
X145566852Y-100746232D01*
X145582057Y-100753322D01*
X145600646Y-100757020D01*
X145625266Y-100773470D01*
X145650407Y-100785194D01*
X145665702Y-100800489D01*
X145685969Y-100814031D01*
X145699510Y-100834297D01*
X145714805Y-100849592D01*
X145726527Y-100874730D01*
X145742980Y-100899354D01*
X145746677Y-100917944D01*
X145753767Y-100933147D01*
X145761722Y-100993577D01*
X145763000Y-101000000D01*
X145763000Y-101450000D01*
X145761722Y-101456424D01*
X145753767Y-101516852D01*
X145746678Y-101532054D01*
X145742980Y-101550646D01*
X145726525Y-101575271D01*
X145714805Y-101600407D01*
X145699512Y-101615699D01*
X145685969Y-101635969D01*
X145665699Y-101649512D01*
X145650407Y-101664805D01*
X145625271Y-101676525D01*
X145600646Y-101692980D01*
X145582054Y-101696678D01*
X145566852Y-101703767D01*
X145506424Y-101711722D01*
X145500000Y-101713000D01*
X145000000Y-101713000D01*
X144993577Y-101711722D01*
X144933147Y-101703767D01*
X144917944Y-101696677D01*
X144899354Y-101692980D01*
X144874730Y-101676527D01*
X144849592Y-101664805D01*
X144834297Y-101649510D01*
X144814031Y-101635969D01*
X144800489Y-101615702D01*
X144785194Y-101600407D01*
X144773470Y-101575266D01*
X144757020Y-101550646D01*
X144753322Y-101532057D01*
X144746232Y-101516852D01*
X144738274Y-101456409D01*
X144737000Y-101450000D01*
X144737000Y-101000000D01*
X144738274Y-100993592D01*
X144746232Y-100933147D01*
X144753322Y-100917940D01*
X144757020Y-100899354D01*
X144773469Y-100874735D01*
X144785194Y-100849592D01*
X144800491Y-100834294D01*
X144814031Y-100814031D01*
X144834294Y-100800491D01*
X144849592Y-100785194D01*
X144874735Y-100773469D01*
X144899354Y-100757020D01*
X144917940Y-100753322D01*
X144933147Y-100746232D01*
X144993592Y-100738274D01*
X145000000Y-100737000D01*
X145500000Y-100737000D01*
X145506409Y-100738274D01*
G37*
G36*
X143691542Y-98802893D02*
G01*
X143703870Y-98811130D01*
X143712107Y-98823458D01*
X143715000Y-98838000D01*
X143715000Y-99870000D01*
X143712107Y-99884542D01*
X143703870Y-99896870D01*
X143691542Y-99905107D01*
X143677000Y-99908000D01*
X143055000Y-99908000D01*
X143040458Y-99905107D01*
X143028130Y-99896870D01*
X143019893Y-99884542D01*
X143017000Y-99870000D01*
X143017000Y-98838000D01*
X143019893Y-98823458D01*
X143028130Y-98811130D01*
X143040458Y-98802893D01*
X143055000Y-98800000D01*
X143677000Y-98800000D01*
X143691542Y-98802893D01*
G37*
G36*
X144514542Y-98802893D02*
G01*
X144526870Y-98811130D01*
X144535107Y-98823458D01*
X144538000Y-98838000D01*
X144538000Y-99870000D01*
X144535107Y-99884542D01*
X144526870Y-99896870D01*
X144514542Y-99905107D01*
X144500000Y-99908000D01*
X144000000Y-99908000D01*
X143985458Y-99905107D01*
X143973130Y-99896870D01*
X143964893Y-99884542D01*
X143962000Y-99870000D01*
X143962000Y-98838000D01*
X143964893Y-98823458D01*
X143973130Y-98811130D01*
X143985458Y-98802893D01*
X144000000Y-98800000D01*
X144500000Y-98800000D01*
X144514542Y-98802893D01*
G37*
G36*
X145459542Y-98802893D02*
G01*
X145471870Y-98811130D01*
X145480107Y-98823458D01*
X145483000Y-98838000D01*
X145483000Y-99745600D01*
X145480107Y-99760142D01*
X145471870Y-99772470D01*
X145347470Y-99896870D01*
X145335142Y-99905107D01*
X145320600Y-99908000D01*
X145315679Y-99908000D01*
X144827924Y-99908000D01*
X144823000Y-99908000D01*
X144808458Y-99905107D01*
X144796130Y-99896870D01*
X144787893Y-99884542D01*
X144785000Y-99870000D01*
X144785000Y-98838000D01*
X144787893Y-98823458D01*
X144796130Y-98811130D01*
X144808458Y-98802893D01*
X144823000Y-98800000D01*
X145445000Y-98800000D01*
X145459542Y-98802893D01*
G37*
G36*
X147006409Y-98538274D02*
G01*
X147066852Y-98546232D01*
X147082057Y-98553322D01*
X147100646Y-98557020D01*
X147125266Y-98573470D01*
X147150407Y-98585194D01*
X147165702Y-98600489D01*
X147185969Y-98614031D01*
X147199510Y-98634297D01*
X147214805Y-98649592D01*
X147226527Y-98674730D01*
X147242980Y-98699354D01*
X147246677Y-98717944D01*
X147253767Y-98733147D01*
X147261722Y-98793577D01*
X147263000Y-98800000D01*
X147263000Y-99250000D01*
X147261722Y-99256424D01*
X147253767Y-99316852D01*
X147246678Y-99332054D01*
X147242980Y-99350646D01*
X147226525Y-99375271D01*
X147214805Y-99400407D01*
X147199512Y-99415699D01*
X147185969Y-99435969D01*
X147165699Y-99449512D01*
X147150407Y-99464805D01*
X147125271Y-99476525D01*
X147100646Y-99492980D01*
X147082054Y-99496678D01*
X147066852Y-99503767D01*
X147006424Y-99511722D01*
X147000000Y-99513000D01*
X146500000Y-99513000D01*
X146493577Y-99511722D01*
X146433147Y-99503767D01*
X146417944Y-99496677D01*
X146399354Y-99492980D01*
X146374730Y-99476527D01*
X146349592Y-99464805D01*
X146334297Y-99449510D01*
X146314031Y-99435969D01*
X146300489Y-99415702D01*
X146285194Y-99400407D01*
X146273470Y-99375266D01*
X146257020Y-99350646D01*
X146253322Y-99332057D01*
X146246232Y-99316852D01*
X146238274Y-99256409D01*
X146237000Y-99250000D01*
X146237000Y-98800000D01*
X146238274Y-98793592D01*
X146246232Y-98733147D01*
X146253322Y-98717940D01*
X146257020Y-98699354D01*
X146273469Y-98674735D01*
X146285194Y-98649592D01*
X146300491Y-98634294D01*
X146314031Y-98614031D01*
X146334294Y-98600491D01*
X146349592Y-98585194D01*
X146374735Y-98573469D01*
X146399354Y-98557020D01*
X146417940Y-98553322D01*
X146433147Y-98546232D01*
X146493592Y-98538274D01*
X146500000Y-98537000D01*
X147000000Y-98537000D01*
X147006409Y-98538274D01*
G37*
G36*
X147006409Y-96988274D02*
G01*
X147066852Y-96996232D01*
X147082057Y-97003322D01*
X147100646Y-97007020D01*
X147125266Y-97023470D01*
X147150407Y-97035194D01*
X147165702Y-97050489D01*
X147185969Y-97064031D01*
X147199510Y-97084297D01*
X147214805Y-97099592D01*
X147226527Y-97124730D01*
X147242980Y-97149354D01*
X147246677Y-97167944D01*
X147253767Y-97183147D01*
X147261722Y-97243577D01*
X147263000Y-97250000D01*
X147263000Y-97700000D01*
X147261722Y-97706424D01*
X147253767Y-97766852D01*
X147246678Y-97782054D01*
X147242980Y-97800646D01*
X147226525Y-97825271D01*
X147214805Y-97850407D01*
X147199512Y-97865699D01*
X147185969Y-97885969D01*
X147165699Y-97899512D01*
X147150407Y-97914805D01*
X147125271Y-97926525D01*
X147100646Y-97942980D01*
X147082054Y-97946678D01*
X147066852Y-97953767D01*
X147006424Y-97961722D01*
X147000000Y-97963000D01*
X146500000Y-97963000D01*
X146493577Y-97961722D01*
X146433147Y-97953767D01*
X146417944Y-97946677D01*
X146399354Y-97942980D01*
X146374730Y-97926527D01*
X146349592Y-97914805D01*
X146334297Y-97899510D01*
X146314031Y-97885969D01*
X146300489Y-97865702D01*
X146285194Y-97850407D01*
X146273470Y-97825266D01*
X146257020Y-97800646D01*
X146253322Y-97782057D01*
X146246232Y-97766852D01*
X146238274Y-97706409D01*
X146237000Y-97700000D01*
X146237000Y-97250000D01*
X146238274Y-97243592D01*
X146246232Y-97183147D01*
X146253322Y-97167940D01*
X146257020Y-97149354D01*
X146273469Y-97124735D01*
X146285194Y-97099592D01*
X146300491Y-97084294D01*
X146314031Y-97064031D01*
X146334294Y-97050491D01*
X146349592Y-97035194D01*
X146374735Y-97023469D01*
X146399354Y-97007020D01*
X146417940Y-97003322D01*
X146433147Y-96996232D01*
X146493592Y-96988274D01*
X146500000Y-96987000D01*
X147000000Y-96987000D01*
X147006409Y-96988274D01*
G37*
G36*
X143691542Y-96594893D02*
G01*
X143703870Y-96603130D01*
X143712107Y-96615458D01*
X143715000Y-96630000D01*
X143715000Y-97662000D01*
X143712107Y-97676542D01*
X143703870Y-97688870D01*
X143691542Y-97697107D01*
X143677000Y-97700000D01*
X143055000Y-97700000D01*
X143040458Y-97697107D01*
X143028130Y-97688870D01*
X143019893Y-97676542D01*
X143017000Y-97662000D01*
X143017000Y-96630000D01*
X143019893Y-96615458D01*
X143028130Y-96603130D01*
X143040458Y-96594893D01*
X143055000Y-96592000D01*
X143677000Y-96592000D01*
X143691542Y-96594893D01*
G37*
G36*
X144514542Y-96594893D02*
G01*
X144526870Y-96603130D01*
X144535107Y-96615458D01*
X144538000Y-96630000D01*
X144538000Y-97662000D01*
X144535107Y-97676542D01*
X144526870Y-97688870D01*
X144514542Y-97697107D01*
X144500000Y-97700000D01*
X144000000Y-97700000D01*
X143985458Y-97697107D01*
X143973130Y-97688870D01*
X143964893Y-97676542D01*
X143962000Y-97662000D01*
X143962000Y-96630000D01*
X143964893Y-96615458D01*
X143973130Y-96603130D01*
X143985458Y-96594893D01*
X144000000Y-96592000D01*
X144500000Y-96592000D01*
X144514542Y-96594893D01*
G37*
G36*
X145459542Y-96594893D02*
G01*
X145471870Y-96603130D01*
X145480107Y-96615458D01*
X145483000Y-96630000D01*
X145483000Y-97662000D01*
X145480107Y-97676542D01*
X145471870Y-97688870D01*
X145459542Y-97697107D01*
X145445000Y-97700000D01*
X144823000Y-97700000D01*
X144808458Y-97697107D01*
X144796130Y-97688870D01*
X144787893Y-97676542D01*
X144785000Y-97662000D01*
X144785000Y-96630000D01*
X144787893Y-96615458D01*
X144796130Y-96603130D01*
X144808458Y-96594893D01*
X144823000Y-96592000D01*
X145445000Y-96592000D01*
X145459542Y-96594893D01*
G37*
M02*
