G04 #@! TF.GenerationSoftware,KiCad,Pcbnew,7.0.7*
G04 #@! TF.CreationDate,2023-09-24T13:34:41+10:00*
G04 #@! TF.ProjectId,fyp_breakout,6679705f-6272-4656-916b-6f75742e6b69,rev?*
G04 #@! TF.SameCoordinates,Original*
G04 #@! TF.FileFunction,Legend,Top*
G04 #@! TF.FilePolarity,Positive*
%FSLAX46Y46*%
G04 Gerber Fmt 4.6, Leading zero omitted, Abs format (unit mm)*
G04 Created by KiCad (PCBNEW 7.0.7) date 2023-09-24 13:34:41*
%MOMM*%
%LPD*%
G01*
G04 APERTURE LIST*
G04 Aperture macros list*
%AMRoundRect*
0 Rectangle with rounded corners*
0 $1 Rounding radius*
0 $2 $3 $4 $5 $6 $7 $8 $9 X,Y pos of 4 corners*
0 Add a 4 corners polygon primitive as box body*
4,1,4,$2,$3,$4,$5,$6,$7,$8,$9,$2,$3,0*
0 Add four circle primitives for the rounded corners*
1,1,$1+$1,$2,$3*
1,1,$1+$1,$4,$5*
1,1,$1+$1,$6,$7*
1,1,$1+$1,$8,$9*
0 Add four rect primitives between the rounded corners*
20,1,$1+$1,$2,$3,$4,$5,0*
20,1,$1+$1,$4,$5,$6,$7,0*
20,1,$1+$1,$6,$7,$8,$9,0*
20,1,$1+$1,$8,$9,$2,$3,0*%
%AMFreePoly0*
4,1,14,0.418470,0.337870,0.542870,0.213470,0.554000,0.186600,0.554000,-0.311000,0.542870,-0.337870,0.516000,-0.349000,-0.516000,-0.349000,-0.542870,-0.337870,-0.554000,-0.311000,-0.554000,0.311000,-0.542870,0.337870,-0.516000,0.349000,0.391600,0.349000,0.418470,0.337870,0.418470,0.337870,$1*%
G04 Aperture macros list end*
%ADD10C,0.150000*%
%ADD11C,0.160000*%
%ADD12C,0.120000*%
%ADD13RoundRect,0.263000X-0.250000X0.225000X-0.250000X-0.225000X0.250000X-0.225000X0.250000X0.225000X0*%
%ADD14RoundRect,0.263000X0.250000X-0.225000X0.250000X0.225000X-0.250000X0.225000X-0.250000X-0.225000X0*%
%ADD15C,3.276000*%
%ADD16RoundRect,0.263000X-0.225000X-0.250000X0.225000X-0.250000X0.225000X0.250000X-0.225000X0.250000X0*%
%ADD17RoundRect,0.038000X-0.311000X0.516000X-0.311000X-0.516000X0.311000X-0.516000X0.311000X0.516000X0*%
%ADD18RoundRect,0.038000X-0.250000X0.516000X-0.250000X-0.516000X0.250000X-0.516000X0.250000X0.516000X0*%
%ADD19FreePoly0,270.000000*%
%ADD20RoundRect,0.100500X-0.062500X0.350000X-0.062500X-0.350000X0.062500X-0.350000X0.062500X0.350000X0*%
%ADD21RoundRect,0.100500X-0.350000X0.062500X-0.350000X-0.062500X0.350000X-0.062500X0.350000X0.062500X0*%
%ADD22RoundRect,0.038000X-1.300000X1.300000X-1.300000X-1.300000X1.300000X-1.300000X1.300000X1.300000X0*%
%ADD23RoundRect,0.238000X0.200000X0.450000X-0.200000X0.450000X-0.200000X-0.450000X0.200000X-0.450000X0*%
%ADD24O,0.876000X1.376000*%
G04 APERTURE END LIST*
D10*
X149539580Y-112916666D02*
X149587200Y-112964285D01*
X149587200Y-112964285D02*
X149634819Y-113107142D01*
X149634819Y-113107142D02*
X149634819Y-113202380D01*
X149634819Y-113202380D02*
X149587200Y-113345237D01*
X149587200Y-113345237D02*
X149491961Y-113440475D01*
X149491961Y-113440475D02*
X149396723Y-113488094D01*
X149396723Y-113488094D02*
X149206247Y-113535713D01*
X149206247Y-113535713D02*
X149063390Y-113535713D01*
X149063390Y-113535713D02*
X148872914Y-113488094D01*
X148872914Y-113488094D02*
X148777676Y-113440475D01*
X148777676Y-113440475D02*
X148682438Y-113345237D01*
X148682438Y-113345237D02*
X148634819Y-113202380D01*
X148634819Y-113202380D02*
X148634819Y-113107142D01*
X148634819Y-113107142D02*
X148682438Y-112964285D01*
X148682438Y-112964285D02*
X148730057Y-112916666D01*
X148634819Y-112011904D02*
X148634819Y-112488094D01*
X148634819Y-112488094D02*
X149111009Y-112535713D01*
X149111009Y-112535713D02*
X149063390Y-112488094D01*
X149063390Y-112488094D02*
X149015771Y-112392856D01*
X149015771Y-112392856D02*
X149015771Y-112154761D01*
X149015771Y-112154761D02*
X149063390Y-112059523D01*
X149063390Y-112059523D02*
X149111009Y-112011904D01*
X149111009Y-112011904D02*
X149206247Y-111964285D01*
X149206247Y-111964285D02*
X149444342Y-111964285D01*
X149444342Y-111964285D02*
X149539580Y-112011904D01*
X149539580Y-112011904D02*
X149587200Y-112059523D01*
X149587200Y-112059523D02*
X149634819Y-112154761D01*
X149634819Y-112154761D02*
X149634819Y-112392856D01*
X149634819Y-112392856D02*
X149587200Y-112488094D01*
X149587200Y-112488094D02*
X149539580Y-112535713D01*
X140359580Y-111766666D02*
X140407200Y-111814285D01*
X140407200Y-111814285D02*
X140454819Y-111957142D01*
X140454819Y-111957142D02*
X140454819Y-112052380D01*
X140454819Y-112052380D02*
X140407200Y-112195237D01*
X140407200Y-112195237D02*
X140311961Y-112290475D01*
X140311961Y-112290475D02*
X140216723Y-112338094D01*
X140216723Y-112338094D02*
X140026247Y-112385713D01*
X140026247Y-112385713D02*
X139883390Y-112385713D01*
X139883390Y-112385713D02*
X139692914Y-112338094D01*
X139692914Y-112338094D02*
X139597676Y-112290475D01*
X139597676Y-112290475D02*
X139502438Y-112195237D01*
X139502438Y-112195237D02*
X139454819Y-112052380D01*
X139454819Y-112052380D02*
X139454819Y-111957142D01*
X139454819Y-111957142D02*
X139502438Y-111814285D01*
X139502438Y-111814285D02*
X139550057Y-111766666D01*
X139454819Y-111433332D02*
X139454819Y-110814285D01*
X139454819Y-110814285D02*
X139835771Y-111147618D01*
X139835771Y-111147618D02*
X139835771Y-111004761D01*
X139835771Y-111004761D02*
X139883390Y-110909523D01*
X139883390Y-110909523D02*
X139931009Y-110861904D01*
X139931009Y-110861904D02*
X140026247Y-110814285D01*
X140026247Y-110814285D02*
X140264342Y-110814285D01*
X140264342Y-110814285D02*
X140359580Y-110861904D01*
X140359580Y-110861904D02*
X140407200Y-110909523D01*
X140407200Y-110909523D02*
X140454819Y-111004761D01*
X140454819Y-111004761D02*
X140454819Y-111290475D01*
X140454819Y-111290475D02*
X140407200Y-111385713D01*
X140407200Y-111385713D02*
X140359580Y-111433332D01*
X148859580Y-110916666D02*
X148907200Y-110964285D01*
X148907200Y-110964285D02*
X148954819Y-111107142D01*
X148954819Y-111107142D02*
X148954819Y-111202380D01*
X148954819Y-111202380D02*
X148907200Y-111345237D01*
X148907200Y-111345237D02*
X148811961Y-111440475D01*
X148811961Y-111440475D02*
X148716723Y-111488094D01*
X148716723Y-111488094D02*
X148526247Y-111535713D01*
X148526247Y-111535713D02*
X148383390Y-111535713D01*
X148383390Y-111535713D02*
X148192914Y-111488094D01*
X148192914Y-111488094D02*
X148097676Y-111440475D01*
X148097676Y-111440475D02*
X148002438Y-111345237D01*
X148002438Y-111345237D02*
X147954819Y-111202380D01*
X147954819Y-111202380D02*
X147954819Y-111107142D01*
X147954819Y-111107142D02*
X148002438Y-110964285D01*
X148002438Y-110964285D02*
X148050057Y-110916666D01*
X148050057Y-110535713D02*
X148002438Y-110488094D01*
X148002438Y-110488094D02*
X147954819Y-110392856D01*
X147954819Y-110392856D02*
X147954819Y-110154761D01*
X147954819Y-110154761D02*
X148002438Y-110059523D01*
X148002438Y-110059523D02*
X148050057Y-110011904D01*
X148050057Y-110011904D02*
X148145295Y-109964285D01*
X148145295Y-109964285D02*
X148240533Y-109964285D01*
X148240533Y-109964285D02*
X148383390Y-110011904D01*
X148383390Y-110011904D02*
X148954819Y-110583332D01*
X148954819Y-110583332D02*
X148954819Y-109964285D01*
X143107142Y-104859580D02*
X143059523Y-104907200D01*
X143059523Y-104907200D02*
X142916666Y-104954819D01*
X142916666Y-104954819D02*
X142821428Y-104954819D01*
X142821428Y-104954819D02*
X142678571Y-104907200D01*
X142678571Y-104907200D02*
X142583333Y-104811961D01*
X142583333Y-104811961D02*
X142535714Y-104716723D01*
X142535714Y-104716723D02*
X142488095Y-104526247D01*
X142488095Y-104526247D02*
X142488095Y-104383390D01*
X142488095Y-104383390D02*
X142535714Y-104192914D01*
X142535714Y-104192914D02*
X142583333Y-104097676D01*
X142583333Y-104097676D02*
X142678571Y-104002438D01*
X142678571Y-104002438D02*
X142821428Y-103954819D01*
X142821428Y-103954819D02*
X142916666Y-103954819D01*
X142916666Y-103954819D02*
X143059523Y-104002438D01*
X143059523Y-104002438D02*
X143107142Y-104050057D01*
X144059523Y-104954819D02*
X143488095Y-104954819D01*
X143773809Y-104954819D02*
X143773809Y-103954819D01*
X143773809Y-103954819D02*
X143678571Y-104097676D01*
X143678571Y-104097676D02*
X143583333Y-104192914D01*
X143583333Y-104192914D02*
X143488095Y-104240533D01*
X145011904Y-104954819D02*
X144440476Y-104954819D01*
X144726190Y-104954819D02*
X144726190Y-103954819D01*
X144726190Y-103954819D02*
X144630952Y-104097676D01*
X144630952Y-104097676D02*
X144535714Y-104192914D01*
X144535714Y-104192914D02*
X144440476Y-104240533D01*
X147109580Y-100916666D02*
X147157200Y-100964285D01*
X147157200Y-100964285D02*
X147204819Y-101107142D01*
X147204819Y-101107142D02*
X147204819Y-101202380D01*
X147204819Y-101202380D02*
X147157200Y-101345237D01*
X147157200Y-101345237D02*
X147061961Y-101440475D01*
X147061961Y-101440475D02*
X146966723Y-101488094D01*
X146966723Y-101488094D02*
X146776247Y-101535713D01*
X146776247Y-101535713D02*
X146633390Y-101535713D01*
X146633390Y-101535713D02*
X146442914Y-101488094D01*
X146442914Y-101488094D02*
X146347676Y-101440475D01*
X146347676Y-101440475D02*
X146252438Y-101345237D01*
X146252438Y-101345237D02*
X146204819Y-101202380D01*
X146204819Y-101202380D02*
X146204819Y-101107142D01*
X146204819Y-101107142D02*
X146252438Y-100964285D01*
X146252438Y-100964285D02*
X146300057Y-100916666D01*
X146538152Y-100059523D02*
X147204819Y-100059523D01*
X146157200Y-100297618D02*
X146871485Y-100535713D01*
X146871485Y-100535713D02*
X146871485Y-99916666D01*
D11*
X146488095Y-95704299D02*
X146488095Y-96513822D01*
X146488095Y-96513822D02*
X146535714Y-96609060D01*
X146535714Y-96609060D02*
X146583333Y-96656680D01*
X146583333Y-96656680D02*
X146678571Y-96704299D01*
X146678571Y-96704299D02*
X146869047Y-96704299D01*
X146869047Y-96704299D02*
X146964285Y-96656680D01*
X146964285Y-96656680D02*
X147011904Y-96609060D01*
X147011904Y-96609060D02*
X147059523Y-96513822D01*
X147059523Y-96513822D02*
X147059523Y-95704299D01*
X148059523Y-96704299D02*
X147488095Y-96704299D01*
X147773809Y-96704299D02*
X147773809Y-95704299D01*
X147773809Y-95704299D02*
X147678571Y-95847156D01*
X147678571Y-95847156D02*
X147583333Y-95942394D01*
X147583333Y-95942394D02*
X147488095Y-95990013D01*
D10*
X140954819Y-107011904D02*
X141764342Y-107011904D01*
X141764342Y-107011904D02*
X141859580Y-106964285D01*
X141859580Y-106964285D02*
X141907200Y-106916666D01*
X141907200Y-106916666D02*
X141954819Y-106821428D01*
X141954819Y-106821428D02*
X141954819Y-106630952D01*
X141954819Y-106630952D02*
X141907200Y-106535714D01*
X141907200Y-106535714D02*
X141859580Y-106488095D01*
X141859580Y-106488095D02*
X141764342Y-106440476D01*
X141764342Y-106440476D02*
X140954819Y-106440476D01*
X141050057Y-106011904D02*
X141002438Y-105964285D01*
X141002438Y-105964285D02*
X140954819Y-105869047D01*
X140954819Y-105869047D02*
X140954819Y-105630952D01*
X140954819Y-105630952D02*
X141002438Y-105535714D01*
X141002438Y-105535714D02*
X141050057Y-105488095D01*
X141050057Y-105488095D02*
X141145295Y-105440476D01*
X141145295Y-105440476D02*
X141240533Y-105440476D01*
X141240533Y-105440476D02*
X141383390Y-105488095D01*
X141383390Y-105488095D02*
X141954819Y-106059523D01*
X141954819Y-106059523D02*
X141954819Y-105440476D01*
X142109580Y-112916666D02*
X142157200Y-112964285D01*
X142157200Y-112964285D02*
X142204819Y-113107142D01*
X142204819Y-113107142D02*
X142204819Y-113202380D01*
X142204819Y-113202380D02*
X142157200Y-113345237D01*
X142157200Y-113345237D02*
X142061961Y-113440475D01*
X142061961Y-113440475D02*
X141966723Y-113488094D01*
X141966723Y-113488094D02*
X141776247Y-113535713D01*
X141776247Y-113535713D02*
X141633390Y-113535713D01*
X141633390Y-113535713D02*
X141442914Y-113488094D01*
X141442914Y-113488094D02*
X141347676Y-113440475D01*
X141347676Y-113440475D02*
X141252438Y-113345237D01*
X141252438Y-113345237D02*
X141204819Y-113202380D01*
X141204819Y-113202380D02*
X141204819Y-113107142D01*
X141204819Y-113107142D02*
X141252438Y-112964285D01*
X141252438Y-112964285D02*
X141300057Y-112916666D01*
X141633390Y-112345237D02*
X141585771Y-112440475D01*
X141585771Y-112440475D02*
X141538152Y-112488094D01*
X141538152Y-112488094D02*
X141442914Y-112535713D01*
X141442914Y-112535713D02*
X141395295Y-112535713D01*
X141395295Y-112535713D02*
X141300057Y-112488094D01*
X141300057Y-112488094D02*
X141252438Y-112440475D01*
X141252438Y-112440475D02*
X141204819Y-112345237D01*
X141204819Y-112345237D02*
X141204819Y-112154761D01*
X141204819Y-112154761D02*
X141252438Y-112059523D01*
X141252438Y-112059523D02*
X141300057Y-112011904D01*
X141300057Y-112011904D02*
X141395295Y-111964285D01*
X141395295Y-111964285D02*
X141442914Y-111964285D01*
X141442914Y-111964285D02*
X141538152Y-112011904D01*
X141538152Y-112011904D02*
X141585771Y-112059523D01*
X141585771Y-112059523D02*
X141633390Y-112154761D01*
X141633390Y-112154761D02*
X141633390Y-112345237D01*
X141633390Y-112345237D02*
X141681009Y-112440475D01*
X141681009Y-112440475D02*
X141728628Y-112488094D01*
X141728628Y-112488094D02*
X141823866Y-112535713D01*
X141823866Y-112535713D02*
X142014342Y-112535713D01*
X142014342Y-112535713D02*
X142109580Y-112488094D01*
X142109580Y-112488094D02*
X142157200Y-112440475D01*
X142157200Y-112440475D02*
X142204819Y-112345237D01*
X142204819Y-112345237D02*
X142204819Y-112154761D01*
X142204819Y-112154761D02*
X142157200Y-112059523D01*
X142157200Y-112059523D02*
X142109580Y-112011904D01*
X142109580Y-112011904D02*
X142014342Y-111964285D01*
X142014342Y-111964285D02*
X141823866Y-111964285D01*
X141823866Y-111964285D02*
X141728628Y-112011904D01*
X141728628Y-112011904D02*
X141681009Y-112059523D01*
X141681009Y-112059523D02*
X141633390Y-112154761D01*
X147109580Y-102916666D02*
X147157200Y-102964285D01*
X147157200Y-102964285D02*
X147204819Y-103107142D01*
X147204819Y-103107142D02*
X147204819Y-103202380D01*
X147204819Y-103202380D02*
X147157200Y-103345237D01*
X147157200Y-103345237D02*
X147061961Y-103440475D01*
X147061961Y-103440475D02*
X146966723Y-103488094D01*
X146966723Y-103488094D02*
X146776247Y-103535713D01*
X146776247Y-103535713D02*
X146633390Y-103535713D01*
X146633390Y-103535713D02*
X146442914Y-103488094D01*
X146442914Y-103488094D02*
X146347676Y-103440475D01*
X146347676Y-103440475D02*
X146252438Y-103345237D01*
X146252438Y-103345237D02*
X146204819Y-103202380D01*
X146204819Y-103202380D02*
X146204819Y-103107142D01*
X146204819Y-103107142D02*
X146252438Y-102964285D01*
X146252438Y-102964285D02*
X146300057Y-102916666D01*
X147204819Y-102440475D02*
X147204819Y-102249999D01*
X147204819Y-102249999D02*
X147157200Y-102154761D01*
X147157200Y-102154761D02*
X147109580Y-102107142D01*
X147109580Y-102107142D02*
X146966723Y-102011904D01*
X146966723Y-102011904D02*
X146776247Y-101964285D01*
X146776247Y-101964285D02*
X146395295Y-101964285D01*
X146395295Y-101964285D02*
X146300057Y-102011904D01*
X146300057Y-102011904D02*
X146252438Y-102059523D01*
X146252438Y-102059523D02*
X146204819Y-102154761D01*
X146204819Y-102154761D02*
X146204819Y-102345237D01*
X146204819Y-102345237D02*
X146252438Y-102440475D01*
X146252438Y-102440475D02*
X146300057Y-102488094D01*
X146300057Y-102488094D02*
X146395295Y-102535713D01*
X146395295Y-102535713D02*
X146633390Y-102535713D01*
X146633390Y-102535713D02*
X146728628Y-102488094D01*
X146728628Y-102488094D02*
X146776247Y-102440475D01*
X146776247Y-102440475D02*
X146823866Y-102345237D01*
X146823866Y-102345237D02*
X146823866Y-102154761D01*
X146823866Y-102154761D02*
X146776247Y-102059523D01*
X146776247Y-102059523D02*
X146728628Y-102011904D01*
X146728628Y-102011904D02*
X146633390Y-101964285D01*
X150583333Y-113429580D02*
X150535714Y-113477200D01*
X150535714Y-113477200D02*
X150392857Y-113524819D01*
X150392857Y-113524819D02*
X150297619Y-113524819D01*
X150297619Y-113524819D02*
X150154762Y-113477200D01*
X150154762Y-113477200D02*
X150059524Y-113381961D01*
X150059524Y-113381961D02*
X150011905Y-113286723D01*
X150011905Y-113286723D02*
X149964286Y-113096247D01*
X149964286Y-113096247D02*
X149964286Y-112953390D01*
X149964286Y-112953390D02*
X150011905Y-112762914D01*
X150011905Y-112762914D02*
X150059524Y-112667676D01*
X150059524Y-112667676D02*
X150154762Y-112572438D01*
X150154762Y-112572438D02*
X150297619Y-112524819D01*
X150297619Y-112524819D02*
X150392857Y-112524819D01*
X150392857Y-112524819D02*
X150535714Y-112572438D01*
X150535714Y-112572438D02*
X150583333Y-112620057D01*
X151535714Y-113524819D02*
X150964286Y-113524819D01*
X151250000Y-113524819D02*
X151250000Y-112524819D01*
X151250000Y-112524819D02*
X151154762Y-112667676D01*
X151154762Y-112667676D02*
X151059524Y-112762914D01*
X151059524Y-112762914D02*
X150964286Y-112810533D01*
D12*
X148260000Y-113109420D02*
X148260000Y-113390580D01*
X147240000Y-113109420D02*
X147240000Y-113390580D01*
X150510000Y-106609420D02*
X150510000Y-106890580D01*
X149490000Y-106609420D02*
X149490000Y-106890580D01*
X140990000Y-109240580D02*
X140990000Y-108959420D01*
X142010000Y-109240580D02*
X142010000Y-108959420D01*
X149010000Y-108109420D02*
X149010000Y-108390580D01*
X147990000Y-108109420D02*
X147990000Y-108390580D01*
X146509420Y-104090000D02*
X146790580Y-104090000D01*
X146509420Y-105110000D02*
X146790580Y-105110000D01*
X147260000Y-98109420D02*
X147260000Y-98390580D01*
X146240000Y-98109420D02*
X146240000Y-98390580D01*
X143760000Y-101859420D02*
X143760000Y-102140580D01*
X142740000Y-101859420D02*
X142740000Y-102140580D01*
X149490000Y-109890580D02*
X149490000Y-109609420D01*
X150510000Y-109890580D02*
X150510000Y-109609420D01*
D11*
X145750000Y-96250000D02*
X142750000Y-96250000D01*
X142750000Y-96250000D02*
X142750000Y-100250000D01*
X142750000Y-100250000D02*
X145750000Y-100250000D01*
X145750000Y-100250000D02*
X145750000Y-96250000D01*
X144500000Y-95750000D02*
G75*
G03*
X144500000Y-95750000I-250000J0D01*
G01*
D12*
X139490000Y-109240580D02*
X139490000Y-108959420D01*
X140510000Y-109240580D02*
X140510000Y-108959420D01*
X139490000Y-106140580D02*
X139490000Y-105859420D01*
X140510000Y-106140580D02*
X140510000Y-105859420D01*
X142890000Y-105890000D02*
X143365000Y-105890000D01*
X147110000Y-106365000D02*
X147110000Y-105890000D01*
X142890000Y-106365000D02*
X142890000Y-105890000D01*
X147110000Y-109635000D02*
X147110000Y-110110000D01*
X142890000Y-109635000D02*
X142890000Y-110110000D01*
X147110000Y-110110000D02*
X146635000Y-110110000D01*
X142890000Y-110110000D02*
X143365000Y-110110000D01*
X145260000Y-111959420D02*
X145260000Y-112240580D01*
X144240000Y-111959420D02*
X144240000Y-112240580D01*
X146760000Y-113109420D02*
X146760000Y-113390580D01*
X145740000Y-113109420D02*
X145740000Y-113390580D01*
X143760000Y-111959420D02*
X143760000Y-112240580D01*
X142740000Y-111959420D02*
X142740000Y-112240580D01*
X145760000Y-101859420D02*
X145760000Y-102140580D01*
X144740000Y-101859420D02*
X144740000Y-102140580D01*
X149859420Y-113990000D02*
X150140580Y-113990000D01*
X149859420Y-115010000D02*
X150140580Y-115010000D01*
%LPC*%
D13*
X147750000Y-112475000D03*
X147750000Y-114025000D03*
X150000000Y-105975000D03*
X150000000Y-107525000D03*
D14*
X141500000Y-109875000D03*
X141500000Y-108325000D03*
D13*
X148500000Y-107475000D03*
X148500000Y-109025000D03*
D15*
X141500000Y-118000000D03*
D16*
X145875000Y-104600000D03*
X147425000Y-104600000D03*
D13*
X146750000Y-97475000D03*
X146750000Y-99025000D03*
X143250000Y-101225000D03*
X143250000Y-102775000D03*
D14*
X150000000Y-110525000D03*
X150000000Y-108975000D03*
D17*
X145134000Y-97146000D03*
D18*
X144250000Y-97146000D03*
D17*
X143366000Y-97146000D03*
X143366000Y-99354000D03*
D18*
X144250000Y-99354000D03*
D19*
X145134000Y-99354000D03*
D14*
X140000000Y-109875000D03*
X140000000Y-108325000D03*
X140000000Y-106775000D03*
X140000000Y-105225000D03*
D20*
X146250000Y-106062500D03*
X145750000Y-106062500D03*
X145250000Y-106062500D03*
X144750000Y-106062500D03*
X144250000Y-106062500D03*
X143750000Y-106062500D03*
D21*
X143062500Y-106750000D03*
X143062500Y-107250000D03*
X143062500Y-107750000D03*
X143062500Y-108250000D03*
X143062500Y-108750000D03*
X143062500Y-109250000D03*
D20*
X143750000Y-109937500D03*
X144250000Y-109937500D03*
X144750000Y-109937500D03*
X145250000Y-109937500D03*
X145750000Y-109937500D03*
X146250000Y-109937500D03*
D21*
X146937500Y-109250000D03*
X146937500Y-108750000D03*
X146937500Y-108250000D03*
X146937500Y-107750000D03*
X146937500Y-107250000D03*
X146937500Y-106750000D03*
D22*
X145000000Y-108000000D03*
D13*
X144750000Y-111325000D03*
X144750000Y-112875000D03*
X146250000Y-112475000D03*
X146250000Y-114025000D03*
X143250000Y-111325000D03*
X143250000Y-112875000D03*
X145250000Y-101225000D03*
X145250000Y-102775000D03*
D16*
X149225000Y-114500000D03*
X150775000Y-114500000D03*
D23*
X150375000Y-116800000D03*
D24*
X149125000Y-116800000D03*
X147875000Y-116800000D03*
X146625000Y-116800000D03*
%LPD*%
M02*
