%TF.GenerationSoftware,KiCad,Pcbnew,7.0.7*%
%TF.CreationDate,2023-09-24T13:38:28+10:00*%
%TF.ProjectId,fyp_breakout,6679705f-6272-4656-916b-6f75742e6b69,rev?*%
%TF.SameCoordinates,Original*%
%TF.FileFunction,Drillmap*%
%TF.FilePolarity,Positive*%
%FSLAX45Y45*%
G04 Gerber Fmt 4.5, Leading zero omitted, Abs format (unit mm)*
G04 Created by KiCad (PCBNEW 7.0.7) date 2023-09-24 13:38:28*
%MOMM*%
%LPD*%
G01*
G04 APERTURE LIST*
%ADD10C,0.100000*%
%ADD11C,0.200000*%
%ADD12C,0.320000*%
G04 APERTURE END LIST*
D10*
X14875000Y-10400000D02*
X15250000Y-10400000D01*
X15250000Y-12200000D01*
X13750000Y-12200000D01*
X13750000Y-10400000D01*
X14125000Y-10400000D01*
X14125000Y-9500000D01*
X14875000Y-9500000D01*
X14875000Y-10400000D01*
D11*
D12*
X13990000Y-11640000D02*
X14310000Y-11960000D01*
X14310000Y-11640000D02*
X13990000Y-11960000D01*
D11*
X14005777Y-12516484D02*
X14005777Y-12316484D01*
X14005777Y-12316484D02*
X14053396Y-12316484D01*
X14053396Y-12316484D02*
X14081967Y-12326008D01*
X14081967Y-12326008D02*
X14101015Y-12345055D01*
X14101015Y-12345055D02*
X14110539Y-12364103D01*
X14110539Y-12364103D02*
X14120062Y-12402198D01*
X14120062Y-12402198D02*
X14120062Y-12430769D01*
X14120062Y-12430769D02*
X14110539Y-12468865D01*
X14110539Y-12468865D02*
X14101015Y-12487912D01*
X14101015Y-12487912D02*
X14081967Y-12506960D01*
X14081967Y-12506960D02*
X14053396Y-12516484D01*
X14053396Y-12516484D02*
X14005777Y-12516484D01*
X14205777Y-12516484D02*
X14205777Y-12383150D01*
X14205777Y-12421246D02*
X14215301Y-12402198D01*
X14215301Y-12402198D02*
X14224824Y-12392674D01*
X14224824Y-12392674D02*
X14243872Y-12383150D01*
X14243872Y-12383150D02*
X14262920Y-12383150D01*
X14329586Y-12516484D02*
X14329586Y-12383150D01*
X14329586Y-12316484D02*
X14320062Y-12326008D01*
X14320062Y-12326008D02*
X14329586Y-12335531D01*
X14329586Y-12335531D02*
X14339110Y-12326008D01*
X14339110Y-12326008D02*
X14329586Y-12316484D01*
X14329586Y-12316484D02*
X14329586Y-12335531D01*
X14453396Y-12516484D02*
X14434348Y-12506960D01*
X14434348Y-12506960D02*
X14424824Y-12487912D01*
X14424824Y-12487912D02*
X14424824Y-12316484D01*
X14558158Y-12516484D02*
X14539110Y-12506960D01*
X14539110Y-12506960D02*
X14529586Y-12487912D01*
X14529586Y-12487912D02*
X14529586Y-12316484D01*
X14786729Y-12516484D02*
X14786729Y-12316484D01*
X14786729Y-12316484D02*
X14853396Y-12459341D01*
X14853396Y-12459341D02*
X14920062Y-12316484D01*
X14920062Y-12316484D02*
X14920062Y-12516484D01*
X15101015Y-12516484D02*
X15101015Y-12411722D01*
X15101015Y-12411722D02*
X15091491Y-12392674D01*
X15091491Y-12392674D02*
X15072443Y-12383150D01*
X15072443Y-12383150D02*
X15034348Y-12383150D01*
X15034348Y-12383150D02*
X15015301Y-12392674D01*
X15101015Y-12506960D02*
X15081967Y-12516484D01*
X15081967Y-12516484D02*
X15034348Y-12516484D01*
X15034348Y-12516484D02*
X15015301Y-12506960D01*
X15015301Y-12506960D02*
X15005777Y-12487912D01*
X15005777Y-12487912D02*
X15005777Y-12468865D01*
X15005777Y-12468865D02*
X15015301Y-12449817D01*
X15015301Y-12449817D02*
X15034348Y-12440293D01*
X15034348Y-12440293D02*
X15081967Y-12440293D01*
X15081967Y-12440293D02*
X15101015Y-12430769D01*
X15196253Y-12383150D02*
X15196253Y-12583150D01*
X15196253Y-12392674D02*
X15215301Y-12383150D01*
X15215301Y-12383150D02*
X15253396Y-12383150D01*
X15253396Y-12383150D02*
X15272443Y-12392674D01*
X15272443Y-12392674D02*
X15281967Y-12402198D01*
X15281967Y-12402198D02*
X15291491Y-12421246D01*
X15291491Y-12421246D02*
X15291491Y-12478388D01*
X15291491Y-12478388D02*
X15281967Y-12497436D01*
X15281967Y-12497436D02*
X15272443Y-12506960D01*
X15272443Y-12506960D02*
X15253396Y-12516484D01*
X15253396Y-12516484D02*
X15215301Y-12516484D01*
X15215301Y-12516484D02*
X15196253Y-12506960D01*
X15377205Y-12497436D02*
X15386729Y-12506960D01*
X15386729Y-12506960D02*
X15377205Y-12516484D01*
X15377205Y-12516484D02*
X15367682Y-12506960D01*
X15367682Y-12506960D02*
X15377205Y-12497436D01*
X15377205Y-12497436D02*
X15377205Y-12516484D01*
X15377205Y-12392674D02*
X15386729Y-12402198D01*
X15386729Y-12402198D02*
X15377205Y-12411722D01*
X15377205Y-12411722D02*
X15367682Y-12402198D01*
X15367682Y-12402198D02*
X15377205Y-12392674D01*
X15377205Y-12392674D02*
X15377205Y-12411722D01*
X13545000Y-12745000D02*
X13745000Y-12945000D01*
X13745000Y-12745000D02*
X13545000Y-12945000D01*
X13986729Y-12736484D02*
X14110539Y-12736484D01*
X14110539Y-12736484D02*
X14043872Y-12812674D01*
X14043872Y-12812674D02*
X14072443Y-12812674D01*
X14072443Y-12812674D02*
X14091491Y-12822198D01*
X14091491Y-12822198D02*
X14101015Y-12831722D01*
X14101015Y-12831722D02*
X14110539Y-12850769D01*
X14110539Y-12850769D02*
X14110539Y-12898388D01*
X14110539Y-12898388D02*
X14101015Y-12917436D01*
X14101015Y-12917436D02*
X14091491Y-12926960D01*
X14091491Y-12926960D02*
X14072443Y-12936484D01*
X14072443Y-12936484D02*
X14015301Y-12936484D01*
X14015301Y-12936484D02*
X13996253Y-12926960D01*
X13996253Y-12926960D02*
X13986729Y-12917436D01*
X14196253Y-12917436D02*
X14205777Y-12926960D01*
X14205777Y-12926960D02*
X14196253Y-12936484D01*
X14196253Y-12936484D02*
X14186729Y-12926960D01*
X14186729Y-12926960D02*
X14196253Y-12917436D01*
X14196253Y-12917436D02*
X14196253Y-12936484D01*
X14281967Y-12755531D02*
X14291491Y-12746008D01*
X14291491Y-12746008D02*
X14310539Y-12736484D01*
X14310539Y-12736484D02*
X14358158Y-12736484D01*
X14358158Y-12736484D02*
X14377205Y-12746008D01*
X14377205Y-12746008D02*
X14386729Y-12755531D01*
X14386729Y-12755531D02*
X14396253Y-12774579D01*
X14396253Y-12774579D02*
X14396253Y-12793627D01*
X14396253Y-12793627D02*
X14386729Y-12822198D01*
X14386729Y-12822198D02*
X14272443Y-12936484D01*
X14272443Y-12936484D02*
X14396253Y-12936484D01*
X14520062Y-12736484D02*
X14539110Y-12736484D01*
X14539110Y-12736484D02*
X14558158Y-12746008D01*
X14558158Y-12746008D02*
X14567682Y-12755531D01*
X14567682Y-12755531D02*
X14577205Y-12774579D01*
X14577205Y-12774579D02*
X14586729Y-12812674D01*
X14586729Y-12812674D02*
X14586729Y-12860293D01*
X14586729Y-12860293D02*
X14577205Y-12898388D01*
X14577205Y-12898388D02*
X14567682Y-12917436D01*
X14567682Y-12917436D02*
X14558158Y-12926960D01*
X14558158Y-12926960D02*
X14539110Y-12936484D01*
X14539110Y-12936484D02*
X14520062Y-12936484D01*
X14520062Y-12936484D02*
X14501015Y-12926960D01*
X14501015Y-12926960D02*
X14491491Y-12917436D01*
X14491491Y-12917436D02*
X14481967Y-12898388D01*
X14481967Y-12898388D02*
X14472443Y-12860293D01*
X14472443Y-12860293D02*
X14472443Y-12812674D01*
X14472443Y-12812674D02*
X14481967Y-12774579D01*
X14481967Y-12774579D02*
X14491491Y-12755531D01*
X14491491Y-12755531D02*
X14501015Y-12746008D01*
X14501015Y-12746008D02*
X14520062Y-12736484D01*
X14710539Y-12736484D02*
X14729586Y-12736484D01*
X14729586Y-12736484D02*
X14748634Y-12746008D01*
X14748634Y-12746008D02*
X14758158Y-12755531D01*
X14758158Y-12755531D02*
X14767682Y-12774579D01*
X14767682Y-12774579D02*
X14777205Y-12812674D01*
X14777205Y-12812674D02*
X14777205Y-12860293D01*
X14777205Y-12860293D02*
X14767682Y-12898388D01*
X14767682Y-12898388D02*
X14758158Y-12917436D01*
X14758158Y-12917436D02*
X14748634Y-12926960D01*
X14748634Y-12926960D02*
X14729586Y-12936484D01*
X14729586Y-12936484D02*
X14710539Y-12936484D01*
X14710539Y-12936484D02*
X14691491Y-12926960D01*
X14691491Y-12926960D02*
X14681967Y-12917436D01*
X14681967Y-12917436D02*
X14672443Y-12898388D01*
X14672443Y-12898388D02*
X14662920Y-12860293D01*
X14662920Y-12860293D02*
X14662920Y-12812674D01*
X14662920Y-12812674D02*
X14672443Y-12774579D01*
X14672443Y-12774579D02*
X14681967Y-12755531D01*
X14681967Y-12755531D02*
X14691491Y-12746008D01*
X14691491Y-12746008D02*
X14710539Y-12736484D01*
X14862920Y-12936484D02*
X14862920Y-12803150D01*
X14862920Y-12822198D02*
X14872443Y-12812674D01*
X14872443Y-12812674D02*
X14891491Y-12803150D01*
X14891491Y-12803150D02*
X14920063Y-12803150D01*
X14920063Y-12803150D02*
X14939110Y-12812674D01*
X14939110Y-12812674D02*
X14948634Y-12831722D01*
X14948634Y-12831722D02*
X14948634Y-12936484D01*
X14948634Y-12831722D02*
X14958158Y-12812674D01*
X14958158Y-12812674D02*
X14977205Y-12803150D01*
X14977205Y-12803150D02*
X15005777Y-12803150D01*
X15005777Y-12803150D02*
X15024824Y-12812674D01*
X15024824Y-12812674D02*
X15034348Y-12831722D01*
X15034348Y-12831722D02*
X15034348Y-12936484D01*
X15129586Y-12936484D02*
X15129586Y-12803150D01*
X15129586Y-12822198D02*
X15139110Y-12812674D01*
X15139110Y-12812674D02*
X15158158Y-12803150D01*
X15158158Y-12803150D02*
X15186729Y-12803150D01*
X15186729Y-12803150D02*
X15205777Y-12812674D01*
X15205777Y-12812674D02*
X15215301Y-12831722D01*
X15215301Y-12831722D02*
X15215301Y-12936484D01*
X15215301Y-12831722D02*
X15224824Y-12812674D01*
X15224824Y-12812674D02*
X15243872Y-12803150D01*
X15243872Y-12803150D02*
X15272443Y-12803150D01*
X15272443Y-12803150D02*
X15291491Y-12812674D01*
X15291491Y-12812674D02*
X15301015Y-12831722D01*
X15301015Y-12831722D02*
X15301015Y-12936484D01*
X15691491Y-12726960D02*
X15520063Y-12984103D01*
X15948634Y-12736484D02*
X15967682Y-12736484D01*
X15967682Y-12736484D02*
X15986729Y-12746008D01*
X15986729Y-12746008D02*
X15996253Y-12755531D01*
X15996253Y-12755531D02*
X16005777Y-12774579D01*
X16005777Y-12774579D02*
X16015301Y-12812674D01*
X16015301Y-12812674D02*
X16015301Y-12860293D01*
X16015301Y-12860293D02*
X16005777Y-12898388D01*
X16005777Y-12898388D02*
X15996253Y-12917436D01*
X15996253Y-12917436D02*
X15986729Y-12926960D01*
X15986729Y-12926960D02*
X15967682Y-12936484D01*
X15967682Y-12936484D02*
X15948634Y-12936484D01*
X15948634Y-12936484D02*
X15929586Y-12926960D01*
X15929586Y-12926960D02*
X15920063Y-12917436D01*
X15920063Y-12917436D02*
X15910539Y-12898388D01*
X15910539Y-12898388D02*
X15901015Y-12860293D01*
X15901015Y-12860293D02*
X15901015Y-12812674D01*
X15901015Y-12812674D02*
X15910539Y-12774579D01*
X15910539Y-12774579D02*
X15920063Y-12755531D01*
X15920063Y-12755531D02*
X15929586Y-12746008D01*
X15929586Y-12746008D02*
X15948634Y-12736484D01*
X16101015Y-12917436D02*
X16110539Y-12926960D01*
X16110539Y-12926960D02*
X16101015Y-12936484D01*
X16101015Y-12936484D02*
X16091491Y-12926960D01*
X16091491Y-12926960D02*
X16101015Y-12917436D01*
X16101015Y-12917436D02*
X16101015Y-12936484D01*
X16301015Y-12936484D02*
X16186729Y-12936484D01*
X16243872Y-12936484D02*
X16243872Y-12736484D01*
X16243872Y-12736484D02*
X16224825Y-12765055D01*
X16224825Y-12765055D02*
X16205777Y-12784103D01*
X16205777Y-12784103D02*
X16186729Y-12793627D01*
X16377206Y-12755531D02*
X16386729Y-12746008D01*
X16386729Y-12746008D02*
X16405777Y-12736484D01*
X16405777Y-12736484D02*
X16453396Y-12736484D01*
X16453396Y-12736484D02*
X16472444Y-12746008D01*
X16472444Y-12746008D02*
X16481967Y-12755531D01*
X16481967Y-12755531D02*
X16491491Y-12774579D01*
X16491491Y-12774579D02*
X16491491Y-12793627D01*
X16491491Y-12793627D02*
X16481967Y-12822198D01*
X16481967Y-12822198D02*
X16367682Y-12936484D01*
X16367682Y-12936484D02*
X16491491Y-12936484D01*
X16662920Y-12736484D02*
X16624825Y-12736484D01*
X16624825Y-12736484D02*
X16605777Y-12746008D01*
X16605777Y-12746008D02*
X16596253Y-12755531D01*
X16596253Y-12755531D02*
X16577206Y-12784103D01*
X16577206Y-12784103D02*
X16567682Y-12822198D01*
X16567682Y-12822198D02*
X16567682Y-12898388D01*
X16567682Y-12898388D02*
X16577206Y-12917436D01*
X16577206Y-12917436D02*
X16586729Y-12926960D01*
X16586729Y-12926960D02*
X16605777Y-12936484D01*
X16605777Y-12936484D02*
X16643872Y-12936484D01*
X16643872Y-12936484D02*
X16662920Y-12926960D01*
X16662920Y-12926960D02*
X16672444Y-12917436D01*
X16672444Y-12917436D02*
X16681967Y-12898388D01*
X16681967Y-12898388D02*
X16681967Y-12850769D01*
X16681967Y-12850769D02*
X16672444Y-12831722D01*
X16672444Y-12831722D02*
X16662920Y-12822198D01*
X16662920Y-12822198D02*
X16643872Y-12812674D01*
X16643872Y-12812674D02*
X16605777Y-12812674D01*
X16605777Y-12812674D02*
X16586729Y-12822198D01*
X16586729Y-12822198D02*
X16577206Y-12831722D01*
X16577206Y-12831722D02*
X16567682Y-12850769D01*
X16805777Y-12736484D02*
X16824825Y-12736484D01*
X16824825Y-12736484D02*
X16843872Y-12746008D01*
X16843872Y-12746008D02*
X16853396Y-12755531D01*
X16853396Y-12755531D02*
X16862920Y-12774579D01*
X16862920Y-12774579D02*
X16872444Y-12812674D01*
X16872444Y-12812674D02*
X16872444Y-12860293D01*
X16872444Y-12860293D02*
X16862920Y-12898388D01*
X16862920Y-12898388D02*
X16853396Y-12917436D01*
X16853396Y-12917436D02*
X16843872Y-12926960D01*
X16843872Y-12926960D02*
X16824825Y-12936484D01*
X16824825Y-12936484D02*
X16805777Y-12936484D01*
X16805777Y-12936484D02*
X16786729Y-12926960D01*
X16786729Y-12926960D02*
X16777206Y-12917436D01*
X16777206Y-12917436D02*
X16767682Y-12898388D01*
X16767682Y-12898388D02*
X16758158Y-12860293D01*
X16758158Y-12860293D02*
X16758158Y-12812674D01*
X16758158Y-12812674D02*
X16767682Y-12774579D01*
X16767682Y-12774579D02*
X16777206Y-12755531D01*
X16777206Y-12755531D02*
X16786729Y-12746008D01*
X16786729Y-12746008D02*
X16805777Y-12736484D01*
X16948634Y-12736484D02*
X16948634Y-12774579D01*
X17024825Y-12736484D02*
X17024825Y-12774579D01*
X17320063Y-13012674D02*
X17310539Y-13003150D01*
X17310539Y-13003150D02*
X17291491Y-12974579D01*
X17291491Y-12974579D02*
X17281968Y-12955531D01*
X17281968Y-12955531D02*
X17272444Y-12926960D01*
X17272444Y-12926960D02*
X17262920Y-12879341D01*
X17262920Y-12879341D02*
X17262920Y-12841246D01*
X17262920Y-12841246D02*
X17272444Y-12793627D01*
X17272444Y-12793627D02*
X17281968Y-12765055D01*
X17281968Y-12765055D02*
X17291491Y-12746008D01*
X17291491Y-12746008D02*
X17310539Y-12717436D01*
X17310539Y-12717436D02*
X17320063Y-12707912D01*
X17501015Y-12936484D02*
X17386730Y-12936484D01*
X17443872Y-12936484D02*
X17443872Y-12736484D01*
X17443872Y-12736484D02*
X17424825Y-12765055D01*
X17424825Y-12765055D02*
X17405777Y-12784103D01*
X17405777Y-12784103D02*
X17386730Y-12793627D01*
X17739111Y-12936484D02*
X17739111Y-12736484D01*
X17824825Y-12936484D02*
X17824825Y-12831722D01*
X17824825Y-12831722D02*
X17815301Y-12812674D01*
X17815301Y-12812674D02*
X17796253Y-12803150D01*
X17796253Y-12803150D02*
X17767682Y-12803150D01*
X17767682Y-12803150D02*
X17748634Y-12812674D01*
X17748634Y-12812674D02*
X17739111Y-12822198D01*
X17948634Y-12936484D02*
X17929587Y-12926960D01*
X17929587Y-12926960D02*
X17920063Y-12917436D01*
X17920063Y-12917436D02*
X17910539Y-12898388D01*
X17910539Y-12898388D02*
X17910539Y-12841246D01*
X17910539Y-12841246D02*
X17920063Y-12822198D01*
X17920063Y-12822198D02*
X17929587Y-12812674D01*
X17929587Y-12812674D02*
X17948634Y-12803150D01*
X17948634Y-12803150D02*
X17977206Y-12803150D01*
X17977206Y-12803150D02*
X17996253Y-12812674D01*
X17996253Y-12812674D02*
X18005777Y-12822198D01*
X18005777Y-12822198D02*
X18015301Y-12841246D01*
X18015301Y-12841246D02*
X18015301Y-12898388D01*
X18015301Y-12898388D02*
X18005777Y-12917436D01*
X18005777Y-12917436D02*
X17996253Y-12926960D01*
X17996253Y-12926960D02*
X17977206Y-12936484D01*
X17977206Y-12936484D02*
X17948634Y-12936484D01*
X18129587Y-12936484D02*
X18110539Y-12926960D01*
X18110539Y-12926960D02*
X18101015Y-12907912D01*
X18101015Y-12907912D02*
X18101015Y-12736484D01*
X18281968Y-12926960D02*
X18262920Y-12936484D01*
X18262920Y-12936484D02*
X18224825Y-12936484D01*
X18224825Y-12936484D02*
X18205777Y-12926960D01*
X18205777Y-12926960D02*
X18196253Y-12907912D01*
X18196253Y-12907912D02*
X18196253Y-12831722D01*
X18196253Y-12831722D02*
X18205777Y-12812674D01*
X18205777Y-12812674D02*
X18224825Y-12803150D01*
X18224825Y-12803150D02*
X18262920Y-12803150D01*
X18262920Y-12803150D02*
X18281968Y-12812674D01*
X18281968Y-12812674D02*
X18291492Y-12831722D01*
X18291492Y-12831722D02*
X18291492Y-12850769D01*
X18291492Y-12850769D02*
X18196253Y-12869817D01*
X18358158Y-13012674D02*
X18367682Y-13003150D01*
X18367682Y-13003150D02*
X18386730Y-12974579D01*
X18386730Y-12974579D02*
X18396253Y-12955531D01*
X18396253Y-12955531D02*
X18405777Y-12926960D01*
X18405777Y-12926960D02*
X18415301Y-12879341D01*
X18415301Y-12879341D02*
X18415301Y-12841246D01*
X18415301Y-12841246D02*
X18405777Y-12793627D01*
X18405777Y-12793627D02*
X18396253Y-12765055D01*
X18396253Y-12765055D02*
X18386730Y-12746008D01*
X18386730Y-12746008D02*
X18367682Y-12717436D01*
X18367682Y-12717436D02*
X18358158Y-12707912D01*
X18720063Y-13012674D02*
X18710539Y-13003150D01*
X18710539Y-13003150D02*
X18691492Y-12974579D01*
X18691492Y-12974579D02*
X18681968Y-12955531D01*
X18681968Y-12955531D02*
X18672444Y-12926960D01*
X18672444Y-12926960D02*
X18662920Y-12879341D01*
X18662920Y-12879341D02*
X18662920Y-12841246D01*
X18662920Y-12841246D02*
X18672444Y-12793627D01*
X18672444Y-12793627D02*
X18681968Y-12765055D01*
X18681968Y-12765055D02*
X18691492Y-12746008D01*
X18691492Y-12746008D02*
X18710539Y-12717436D01*
X18710539Y-12717436D02*
X18720063Y-12707912D01*
X18796253Y-12803150D02*
X18796253Y-12936484D01*
X18796253Y-12822198D02*
X18805777Y-12812674D01*
X18805777Y-12812674D02*
X18824825Y-12803150D01*
X18824825Y-12803150D02*
X18853396Y-12803150D01*
X18853396Y-12803150D02*
X18872444Y-12812674D01*
X18872444Y-12812674D02*
X18881968Y-12831722D01*
X18881968Y-12831722D02*
X18881968Y-12936484D01*
X19005777Y-12936484D02*
X18986730Y-12926960D01*
X18986730Y-12926960D02*
X18977206Y-12917436D01*
X18977206Y-12917436D02*
X18967682Y-12898388D01*
X18967682Y-12898388D02*
X18967682Y-12841246D01*
X18967682Y-12841246D02*
X18977206Y-12822198D01*
X18977206Y-12822198D02*
X18986730Y-12812674D01*
X18986730Y-12812674D02*
X19005777Y-12803150D01*
X19005777Y-12803150D02*
X19034349Y-12803150D01*
X19034349Y-12803150D02*
X19053396Y-12812674D01*
X19053396Y-12812674D02*
X19062920Y-12822198D01*
X19062920Y-12822198D02*
X19072444Y-12841246D01*
X19072444Y-12841246D02*
X19072444Y-12898388D01*
X19072444Y-12898388D02*
X19062920Y-12917436D01*
X19062920Y-12917436D02*
X19053396Y-12926960D01*
X19053396Y-12926960D02*
X19034349Y-12936484D01*
X19034349Y-12936484D02*
X19005777Y-12936484D01*
X19129587Y-12803150D02*
X19205777Y-12803150D01*
X19158158Y-12736484D02*
X19158158Y-12907912D01*
X19158158Y-12907912D02*
X19167682Y-12926960D01*
X19167682Y-12926960D02*
X19186730Y-12936484D01*
X19186730Y-12936484D02*
X19205777Y-12936484D01*
X19424825Y-12803150D02*
X19424825Y-13003150D01*
X19424825Y-12812674D02*
X19443873Y-12803150D01*
X19443873Y-12803150D02*
X19481968Y-12803150D01*
X19481968Y-12803150D02*
X19501015Y-12812674D01*
X19501015Y-12812674D02*
X19510539Y-12822198D01*
X19510539Y-12822198D02*
X19520063Y-12841246D01*
X19520063Y-12841246D02*
X19520063Y-12898388D01*
X19520063Y-12898388D02*
X19510539Y-12917436D01*
X19510539Y-12917436D02*
X19501015Y-12926960D01*
X19501015Y-12926960D02*
X19481968Y-12936484D01*
X19481968Y-12936484D02*
X19443873Y-12936484D01*
X19443873Y-12936484D02*
X19424825Y-12926960D01*
X19634349Y-12936484D02*
X19615301Y-12926960D01*
X19615301Y-12926960D02*
X19605777Y-12907912D01*
X19605777Y-12907912D02*
X19605777Y-12736484D01*
X19796254Y-12936484D02*
X19796254Y-12831722D01*
X19796254Y-12831722D02*
X19786730Y-12812674D01*
X19786730Y-12812674D02*
X19767682Y-12803150D01*
X19767682Y-12803150D02*
X19729587Y-12803150D01*
X19729587Y-12803150D02*
X19710539Y-12812674D01*
X19796254Y-12926960D02*
X19777206Y-12936484D01*
X19777206Y-12936484D02*
X19729587Y-12936484D01*
X19729587Y-12936484D02*
X19710539Y-12926960D01*
X19710539Y-12926960D02*
X19701015Y-12907912D01*
X19701015Y-12907912D02*
X19701015Y-12888865D01*
X19701015Y-12888865D02*
X19710539Y-12869817D01*
X19710539Y-12869817D02*
X19729587Y-12860293D01*
X19729587Y-12860293D02*
X19777206Y-12860293D01*
X19777206Y-12860293D02*
X19796254Y-12850769D01*
X19862920Y-12803150D02*
X19939111Y-12803150D01*
X19891492Y-12736484D02*
X19891492Y-12907912D01*
X19891492Y-12907912D02*
X19901015Y-12926960D01*
X19901015Y-12926960D02*
X19920063Y-12936484D01*
X19920063Y-12936484D02*
X19939111Y-12936484D01*
X20081968Y-12926960D02*
X20062920Y-12936484D01*
X20062920Y-12936484D02*
X20024825Y-12936484D01*
X20024825Y-12936484D02*
X20005777Y-12926960D01*
X20005777Y-12926960D02*
X19996254Y-12907912D01*
X19996254Y-12907912D02*
X19996254Y-12831722D01*
X19996254Y-12831722D02*
X20005777Y-12812674D01*
X20005777Y-12812674D02*
X20024825Y-12803150D01*
X20024825Y-12803150D02*
X20062920Y-12803150D01*
X20062920Y-12803150D02*
X20081968Y-12812674D01*
X20081968Y-12812674D02*
X20091492Y-12831722D01*
X20091492Y-12831722D02*
X20091492Y-12850769D01*
X20091492Y-12850769D02*
X19996254Y-12869817D01*
X20262920Y-12936484D02*
X20262920Y-12736484D01*
X20262920Y-12926960D02*
X20243873Y-12936484D01*
X20243873Y-12936484D02*
X20205777Y-12936484D01*
X20205777Y-12936484D02*
X20186730Y-12926960D01*
X20186730Y-12926960D02*
X20177206Y-12917436D01*
X20177206Y-12917436D02*
X20167682Y-12898388D01*
X20167682Y-12898388D02*
X20167682Y-12841246D01*
X20167682Y-12841246D02*
X20177206Y-12822198D01*
X20177206Y-12822198D02*
X20186730Y-12812674D01*
X20186730Y-12812674D02*
X20205777Y-12803150D01*
X20205777Y-12803150D02*
X20243873Y-12803150D01*
X20243873Y-12803150D02*
X20262920Y-12812674D01*
X20339111Y-13012674D02*
X20348635Y-13003150D01*
X20348635Y-13003150D02*
X20367682Y-12974579D01*
X20367682Y-12974579D02*
X20377206Y-12955531D01*
X20377206Y-12955531D02*
X20386730Y-12926960D01*
X20386730Y-12926960D02*
X20396254Y-12879341D01*
X20396254Y-12879341D02*
X20396254Y-12841246D01*
X20396254Y-12841246D02*
X20386730Y-12793627D01*
X20386730Y-12793627D02*
X20377206Y-12765055D01*
X20377206Y-12765055D02*
X20367682Y-12746008D01*
X20367682Y-12746008D02*
X20348635Y-12717436D01*
X20348635Y-12717436D02*
X20339111Y-12707912D01*
M02*
