M48
; DRILL file {KiCad 7.0.7} date Sun 24 Sep 2023 13:37:41
; FORMAT={-:-/ absolute / metric / decimal}
; #@! TF.CreationDate,2023-09-24T13:37:41+10:00
; #@! TF.GenerationSoftware,Kicad,Pcbnew,7.0.7
; #@! TF.FileFunction,Plated,1,2,PTH
FMAT,2
METRIC
; #@! TA.AperFunction,Plated,PTH,ViaDrill
T1C0.200
; #@! TA.AperFunction,Plated,PTH,ViaDrill
T2C0.400
; #@! TA.AperFunction,Plated,PTH,ComponentDrill
T3C0.500
%
G90
G05
T1
X138.75Y-112.75
X138.75Y-114.25
X140.25Y-112.75
X141.5Y-106.25
X141.75Y-112.75
X141.75Y-114.25
X142.25Y-96.25
X143.0Y-104.25
X143.25Y-114.25
X143.5Y-95.75
X144.75Y-114.25
X145.0Y-95.75
X146.25Y-118.75
X146.75Y-100.25
X146.75Y-101.5
X146.75Y-102.75
X147.5Y-110.5
X147.75Y-120.25
X149.25Y-118.75
X150.75Y-120.25
X151.25Y-111.0
X151.25Y-112.5
X151.5Y-106.0
T2
X138.75Y-110.75
X141.5Y-111.25
X142.25Y-98.25
X146.75Y-96.0
X147.5Y-103.5
X148.5Y-106.25
X149.15Y-113.25
T3
X146.625Y-116.8
X147.875Y-116.8
X149.125Y-116.8
X150.375Y-116.8
T0
M30
