%TF.GenerationSoftware,KiCad,Pcbnew,7.0.7*%
%TF.CreationDate,2023-09-24T13:38:28+10:00*%
%TF.ProjectId,fyp_breakout,6679705f-6272-4656-916b-6f75742e6b69,rev?*%
%TF.SameCoordinates,Original*%
%TF.FileFunction,Drillmap*%
%TF.FilePolarity,Positive*%
%FSLAX45Y45*%
G04 Gerber Fmt 4.5, Leading zero omitted, Abs format (unit mm)*
G04 Created by KiCad (PCBNEW 7.0.7) date 2023-09-24 13:38:28*
%MOMM*%
%LPD*%
G01*
G04 APERTURE LIST*
%ADD10C,0.100000*%
%ADD11C,0.200000*%
%ADD12C,0.020000*%
%ADD13C,0.040000*%
%ADD14C,0.050000*%
G04 APERTURE END LIST*
D10*
X14875000Y-10400000D02*
X15250000Y-10400000D01*
X15250000Y-12200000D01*
X13750000Y-12200000D01*
X13750000Y-10400000D01*
X14125000Y-10400000D01*
X14125000Y-9500000D01*
X14875000Y-9500000D01*
X14875000Y-10400000D01*
D11*
D12*
X13865000Y-11265000D02*
X13885000Y-11285000D01*
X13885000Y-11265000D02*
X13865000Y-11285000D01*
X13865000Y-11415000D02*
X13885000Y-11435000D01*
X13885000Y-11415000D02*
X13865000Y-11435000D01*
X14015000Y-11265000D02*
X14035000Y-11285000D01*
X14035000Y-11265000D02*
X14015000Y-11285000D01*
X14140000Y-10615000D02*
X14160000Y-10635000D01*
X14160000Y-10615000D02*
X14140000Y-10635000D01*
X14165000Y-11265000D02*
X14185000Y-11285000D01*
X14185000Y-11265000D02*
X14165000Y-11285000D01*
X14165000Y-11415000D02*
X14185000Y-11435000D01*
X14185000Y-11415000D02*
X14165000Y-11435000D01*
X14215000Y-9615000D02*
X14235000Y-9635000D01*
X14235000Y-9615000D02*
X14215000Y-9635000D01*
X14290000Y-10415000D02*
X14310000Y-10435000D01*
X14310000Y-10415000D02*
X14290000Y-10435000D01*
X14315000Y-11415000D02*
X14335000Y-11435000D01*
X14335000Y-11415000D02*
X14315000Y-11435000D01*
X14340000Y-9565000D02*
X14360000Y-9585000D01*
X14360000Y-9565000D02*
X14340000Y-9585000D01*
X14465000Y-11415000D02*
X14485000Y-11435000D01*
X14485000Y-11415000D02*
X14465000Y-11435000D01*
X14490000Y-9565000D02*
X14510000Y-9585000D01*
X14510000Y-9565000D02*
X14490000Y-9585000D01*
X14615000Y-11865000D02*
X14635000Y-11885000D01*
X14635000Y-11865000D02*
X14615000Y-11885000D01*
X14665000Y-10015000D02*
X14685000Y-10035000D01*
X14685000Y-10015000D02*
X14665000Y-10035000D01*
X14665000Y-10140000D02*
X14685000Y-10160000D01*
X14685000Y-10140000D02*
X14665000Y-10160000D01*
X14665000Y-10265000D02*
X14685000Y-10285000D01*
X14685000Y-10265000D02*
X14665000Y-10285000D01*
X14740000Y-11040000D02*
X14760000Y-11060000D01*
X14760000Y-11040000D02*
X14740000Y-11060000D01*
X14765000Y-12015000D02*
X14785000Y-12035000D01*
X14785000Y-12015000D02*
X14765000Y-12035000D01*
X14915000Y-11865000D02*
X14935000Y-11885000D01*
X14935000Y-11865000D02*
X14915000Y-11885000D01*
X15065000Y-12015000D02*
X15085000Y-12035000D01*
X15085000Y-12015000D02*
X15065000Y-12035000D01*
X15115000Y-11090000D02*
X15135000Y-11110000D01*
X15135000Y-11090000D02*
X15115000Y-11110000D01*
X15115000Y-11240000D02*
X15135000Y-11260000D01*
X15135000Y-11240000D02*
X15115000Y-11260000D01*
X15140000Y-10590000D02*
X15160000Y-10610000D01*
X15160000Y-10590000D02*
X15140000Y-10610000D01*
D13*
X13895000Y-11075000D02*
G75*
G03*
X13895000Y-11075000I-20000J0D01*
G01*
X14170000Y-11125000D02*
G75*
G03*
X14170000Y-11125000I-20000J0D01*
G01*
X14245000Y-9825000D02*
G75*
G03*
X14245000Y-9825000I-20000J0D01*
G01*
X14695000Y-9600000D02*
G75*
G03*
X14695000Y-9600000I-20000J0D01*
G01*
X14770000Y-10350000D02*
G75*
G03*
X14770000Y-10350000I-20000J0D01*
G01*
X14870000Y-10625000D02*
G75*
G03*
X14870000Y-10625000I-20000J0D01*
G01*
X14935050Y-11325000D02*
G75*
G03*
X14935050Y-11325000I-20000J0D01*
G01*
D14*
X14662500Y-11655000D02*
X14662500Y-11705000D01*
X14637500Y-11680000D02*
X14687500Y-11680000D01*
X14787500Y-11655000D02*
X14787500Y-11705000D01*
X14762500Y-11680000D02*
X14812500Y-11680000D01*
X14912500Y-11655000D02*
X14912500Y-11705000D01*
X14887500Y-11680000D02*
X14937500Y-11680000D01*
X15037500Y-11655000D02*
X15037500Y-11705000D01*
X15012500Y-11680000D02*
X15062500Y-11680000D01*
D11*
X14005777Y-12516484D02*
X14005777Y-12316484D01*
X14005777Y-12316484D02*
X14053396Y-12316484D01*
X14053396Y-12316484D02*
X14081967Y-12326008D01*
X14081967Y-12326008D02*
X14101015Y-12345055D01*
X14101015Y-12345055D02*
X14110539Y-12364103D01*
X14110539Y-12364103D02*
X14120062Y-12402198D01*
X14120062Y-12402198D02*
X14120062Y-12430769D01*
X14120062Y-12430769D02*
X14110539Y-12468865D01*
X14110539Y-12468865D02*
X14101015Y-12487912D01*
X14101015Y-12487912D02*
X14081967Y-12506960D01*
X14081967Y-12506960D02*
X14053396Y-12516484D01*
X14053396Y-12516484D02*
X14005777Y-12516484D01*
X14205777Y-12516484D02*
X14205777Y-12383150D01*
X14205777Y-12421246D02*
X14215301Y-12402198D01*
X14215301Y-12402198D02*
X14224824Y-12392674D01*
X14224824Y-12392674D02*
X14243872Y-12383150D01*
X14243872Y-12383150D02*
X14262920Y-12383150D01*
X14329586Y-12516484D02*
X14329586Y-12383150D01*
X14329586Y-12316484D02*
X14320062Y-12326008D01*
X14320062Y-12326008D02*
X14329586Y-12335531D01*
X14329586Y-12335531D02*
X14339110Y-12326008D01*
X14339110Y-12326008D02*
X14329586Y-12316484D01*
X14329586Y-12316484D02*
X14329586Y-12335531D01*
X14453396Y-12516484D02*
X14434348Y-12506960D01*
X14434348Y-12506960D02*
X14424824Y-12487912D01*
X14424824Y-12487912D02*
X14424824Y-12316484D01*
X14558158Y-12516484D02*
X14539110Y-12506960D01*
X14539110Y-12506960D02*
X14529586Y-12487912D01*
X14529586Y-12487912D02*
X14529586Y-12316484D01*
X14786729Y-12516484D02*
X14786729Y-12316484D01*
X14786729Y-12316484D02*
X14853396Y-12459341D01*
X14853396Y-12459341D02*
X14920062Y-12316484D01*
X14920062Y-12316484D02*
X14920062Y-12516484D01*
X15101015Y-12516484D02*
X15101015Y-12411722D01*
X15101015Y-12411722D02*
X15091491Y-12392674D01*
X15091491Y-12392674D02*
X15072443Y-12383150D01*
X15072443Y-12383150D02*
X15034348Y-12383150D01*
X15034348Y-12383150D02*
X15015301Y-12392674D01*
X15101015Y-12506960D02*
X15081967Y-12516484D01*
X15081967Y-12516484D02*
X15034348Y-12516484D01*
X15034348Y-12516484D02*
X15015301Y-12506960D01*
X15015301Y-12506960D02*
X15005777Y-12487912D01*
X15005777Y-12487912D02*
X15005777Y-12468865D01*
X15005777Y-12468865D02*
X15015301Y-12449817D01*
X15015301Y-12449817D02*
X15034348Y-12440293D01*
X15034348Y-12440293D02*
X15081967Y-12440293D01*
X15081967Y-12440293D02*
X15101015Y-12430769D01*
X15196253Y-12383150D02*
X15196253Y-12583150D01*
X15196253Y-12392674D02*
X15215301Y-12383150D01*
X15215301Y-12383150D02*
X15253396Y-12383150D01*
X15253396Y-12383150D02*
X15272443Y-12392674D01*
X15272443Y-12392674D02*
X15281967Y-12402198D01*
X15281967Y-12402198D02*
X15291491Y-12421246D01*
X15291491Y-12421246D02*
X15291491Y-12478388D01*
X15291491Y-12478388D02*
X15281967Y-12497436D01*
X15281967Y-12497436D02*
X15272443Y-12506960D01*
X15272443Y-12506960D02*
X15253396Y-12516484D01*
X15253396Y-12516484D02*
X15215301Y-12516484D01*
X15215301Y-12516484D02*
X15196253Y-12506960D01*
X15377205Y-12497436D02*
X15386729Y-12506960D01*
X15386729Y-12506960D02*
X15377205Y-12516484D01*
X15377205Y-12516484D02*
X15367682Y-12506960D01*
X15367682Y-12506960D02*
X15377205Y-12497436D01*
X15377205Y-12497436D02*
X15377205Y-12516484D01*
X15377205Y-12392674D02*
X15386729Y-12402198D01*
X15386729Y-12402198D02*
X15377205Y-12411722D01*
X15377205Y-12411722D02*
X15367682Y-12402198D01*
X15367682Y-12402198D02*
X15377205Y-12392674D01*
X15377205Y-12392674D02*
X15377205Y-12411722D01*
D12*
X13725000Y-12835000D02*
X13745000Y-12855000D01*
X13745000Y-12835000D02*
X13725000Y-12855000D01*
D11*
X14043872Y-12736484D02*
X14062920Y-12736484D01*
X14062920Y-12736484D02*
X14081967Y-12746008D01*
X14081967Y-12746008D02*
X14091491Y-12755531D01*
X14091491Y-12755531D02*
X14101015Y-12774579D01*
X14101015Y-12774579D02*
X14110539Y-12812674D01*
X14110539Y-12812674D02*
X14110539Y-12860293D01*
X14110539Y-12860293D02*
X14101015Y-12898388D01*
X14101015Y-12898388D02*
X14091491Y-12917436D01*
X14091491Y-12917436D02*
X14081967Y-12926960D01*
X14081967Y-12926960D02*
X14062920Y-12936484D01*
X14062920Y-12936484D02*
X14043872Y-12936484D01*
X14043872Y-12936484D02*
X14024824Y-12926960D01*
X14024824Y-12926960D02*
X14015301Y-12917436D01*
X14015301Y-12917436D02*
X14005777Y-12898388D01*
X14005777Y-12898388D02*
X13996253Y-12860293D01*
X13996253Y-12860293D02*
X13996253Y-12812674D01*
X13996253Y-12812674D02*
X14005777Y-12774579D01*
X14005777Y-12774579D02*
X14015301Y-12755531D01*
X14015301Y-12755531D02*
X14024824Y-12746008D01*
X14024824Y-12746008D02*
X14043872Y-12736484D01*
X14196253Y-12917436D02*
X14205777Y-12926960D01*
X14205777Y-12926960D02*
X14196253Y-12936484D01*
X14196253Y-12936484D02*
X14186729Y-12926960D01*
X14186729Y-12926960D02*
X14196253Y-12917436D01*
X14196253Y-12917436D02*
X14196253Y-12936484D01*
X14281967Y-12755531D02*
X14291491Y-12746008D01*
X14291491Y-12746008D02*
X14310539Y-12736484D01*
X14310539Y-12736484D02*
X14358158Y-12736484D01*
X14358158Y-12736484D02*
X14377205Y-12746008D01*
X14377205Y-12746008D02*
X14386729Y-12755531D01*
X14386729Y-12755531D02*
X14396253Y-12774579D01*
X14396253Y-12774579D02*
X14396253Y-12793627D01*
X14396253Y-12793627D02*
X14386729Y-12822198D01*
X14386729Y-12822198D02*
X14272443Y-12936484D01*
X14272443Y-12936484D02*
X14396253Y-12936484D01*
X14520062Y-12736484D02*
X14539110Y-12736484D01*
X14539110Y-12736484D02*
X14558158Y-12746008D01*
X14558158Y-12746008D02*
X14567682Y-12755531D01*
X14567682Y-12755531D02*
X14577205Y-12774579D01*
X14577205Y-12774579D02*
X14586729Y-12812674D01*
X14586729Y-12812674D02*
X14586729Y-12860293D01*
X14586729Y-12860293D02*
X14577205Y-12898388D01*
X14577205Y-12898388D02*
X14567682Y-12917436D01*
X14567682Y-12917436D02*
X14558158Y-12926960D01*
X14558158Y-12926960D02*
X14539110Y-12936484D01*
X14539110Y-12936484D02*
X14520062Y-12936484D01*
X14520062Y-12936484D02*
X14501015Y-12926960D01*
X14501015Y-12926960D02*
X14491491Y-12917436D01*
X14491491Y-12917436D02*
X14481967Y-12898388D01*
X14481967Y-12898388D02*
X14472443Y-12860293D01*
X14472443Y-12860293D02*
X14472443Y-12812674D01*
X14472443Y-12812674D02*
X14481967Y-12774579D01*
X14481967Y-12774579D02*
X14491491Y-12755531D01*
X14491491Y-12755531D02*
X14501015Y-12746008D01*
X14501015Y-12746008D02*
X14520062Y-12736484D01*
X14710539Y-12736484D02*
X14729586Y-12736484D01*
X14729586Y-12736484D02*
X14748634Y-12746008D01*
X14748634Y-12746008D02*
X14758158Y-12755531D01*
X14758158Y-12755531D02*
X14767682Y-12774579D01*
X14767682Y-12774579D02*
X14777205Y-12812674D01*
X14777205Y-12812674D02*
X14777205Y-12860293D01*
X14777205Y-12860293D02*
X14767682Y-12898388D01*
X14767682Y-12898388D02*
X14758158Y-12917436D01*
X14758158Y-12917436D02*
X14748634Y-12926960D01*
X14748634Y-12926960D02*
X14729586Y-12936484D01*
X14729586Y-12936484D02*
X14710539Y-12936484D01*
X14710539Y-12936484D02*
X14691491Y-12926960D01*
X14691491Y-12926960D02*
X14681967Y-12917436D01*
X14681967Y-12917436D02*
X14672443Y-12898388D01*
X14672443Y-12898388D02*
X14662920Y-12860293D01*
X14662920Y-12860293D02*
X14662920Y-12812674D01*
X14662920Y-12812674D02*
X14672443Y-12774579D01*
X14672443Y-12774579D02*
X14681967Y-12755531D01*
X14681967Y-12755531D02*
X14691491Y-12746008D01*
X14691491Y-12746008D02*
X14710539Y-12736484D01*
X14862920Y-12936484D02*
X14862920Y-12803150D01*
X14862920Y-12822198D02*
X14872443Y-12812674D01*
X14872443Y-12812674D02*
X14891491Y-12803150D01*
X14891491Y-12803150D02*
X14920063Y-12803150D01*
X14920063Y-12803150D02*
X14939110Y-12812674D01*
X14939110Y-12812674D02*
X14948634Y-12831722D01*
X14948634Y-12831722D02*
X14948634Y-12936484D01*
X14948634Y-12831722D02*
X14958158Y-12812674D01*
X14958158Y-12812674D02*
X14977205Y-12803150D01*
X14977205Y-12803150D02*
X15005777Y-12803150D01*
X15005777Y-12803150D02*
X15024824Y-12812674D01*
X15024824Y-12812674D02*
X15034348Y-12831722D01*
X15034348Y-12831722D02*
X15034348Y-12936484D01*
X15129586Y-12936484D02*
X15129586Y-12803150D01*
X15129586Y-12822198D02*
X15139110Y-12812674D01*
X15139110Y-12812674D02*
X15158158Y-12803150D01*
X15158158Y-12803150D02*
X15186729Y-12803150D01*
X15186729Y-12803150D02*
X15205777Y-12812674D01*
X15205777Y-12812674D02*
X15215301Y-12831722D01*
X15215301Y-12831722D02*
X15215301Y-12936484D01*
X15215301Y-12831722D02*
X15224824Y-12812674D01*
X15224824Y-12812674D02*
X15243872Y-12803150D01*
X15243872Y-12803150D02*
X15272443Y-12803150D01*
X15272443Y-12803150D02*
X15291491Y-12812674D01*
X15291491Y-12812674D02*
X15301015Y-12831722D01*
X15301015Y-12831722D02*
X15301015Y-12936484D01*
X15691491Y-12726960D02*
X15520063Y-12984103D01*
X15948634Y-12736484D02*
X15967682Y-12736484D01*
X15967682Y-12736484D02*
X15986729Y-12746008D01*
X15986729Y-12746008D02*
X15996253Y-12755531D01*
X15996253Y-12755531D02*
X16005777Y-12774579D01*
X16005777Y-12774579D02*
X16015301Y-12812674D01*
X16015301Y-12812674D02*
X16015301Y-12860293D01*
X16015301Y-12860293D02*
X16005777Y-12898388D01*
X16005777Y-12898388D02*
X15996253Y-12917436D01*
X15996253Y-12917436D02*
X15986729Y-12926960D01*
X15986729Y-12926960D02*
X15967682Y-12936484D01*
X15967682Y-12936484D02*
X15948634Y-12936484D01*
X15948634Y-12936484D02*
X15929586Y-12926960D01*
X15929586Y-12926960D02*
X15920063Y-12917436D01*
X15920063Y-12917436D02*
X15910539Y-12898388D01*
X15910539Y-12898388D02*
X15901015Y-12860293D01*
X15901015Y-12860293D02*
X15901015Y-12812674D01*
X15901015Y-12812674D02*
X15910539Y-12774579D01*
X15910539Y-12774579D02*
X15920063Y-12755531D01*
X15920063Y-12755531D02*
X15929586Y-12746008D01*
X15929586Y-12746008D02*
X15948634Y-12736484D01*
X16101015Y-12917436D02*
X16110539Y-12926960D01*
X16110539Y-12926960D02*
X16101015Y-12936484D01*
X16101015Y-12936484D02*
X16091491Y-12926960D01*
X16091491Y-12926960D02*
X16101015Y-12917436D01*
X16101015Y-12917436D02*
X16101015Y-12936484D01*
X16234348Y-12736484D02*
X16253396Y-12736484D01*
X16253396Y-12736484D02*
X16272444Y-12746008D01*
X16272444Y-12746008D02*
X16281967Y-12755531D01*
X16281967Y-12755531D02*
X16291491Y-12774579D01*
X16291491Y-12774579D02*
X16301015Y-12812674D01*
X16301015Y-12812674D02*
X16301015Y-12860293D01*
X16301015Y-12860293D02*
X16291491Y-12898388D01*
X16291491Y-12898388D02*
X16281967Y-12917436D01*
X16281967Y-12917436D02*
X16272444Y-12926960D01*
X16272444Y-12926960D02*
X16253396Y-12936484D01*
X16253396Y-12936484D02*
X16234348Y-12936484D01*
X16234348Y-12936484D02*
X16215301Y-12926960D01*
X16215301Y-12926960D02*
X16205777Y-12917436D01*
X16205777Y-12917436D02*
X16196253Y-12898388D01*
X16196253Y-12898388D02*
X16186729Y-12860293D01*
X16186729Y-12860293D02*
X16186729Y-12812674D01*
X16186729Y-12812674D02*
X16196253Y-12774579D01*
X16196253Y-12774579D02*
X16205777Y-12755531D01*
X16205777Y-12755531D02*
X16215301Y-12746008D01*
X16215301Y-12746008D02*
X16234348Y-12736484D01*
X16424825Y-12736484D02*
X16443872Y-12736484D01*
X16443872Y-12736484D02*
X16462920Y-12746008D01*
X16462920Y-12746008D02*
X16472444Y-12755531D01*
X16472444Y-12755531D02*
X16481967Y-12774579D01*
X16481967Y-12774579D02*
X16491491Y-12812674D01*
X16491491Y-12812674D02*
X16491491Y-12860293D01*
X16491491Y-12860293D02*
X16481967Y-12898388D01*
X16481967Y-12898388D02*
X16472444Y-12917436D01*
X16472444Y-12917436D02*
X16462920Y-12926960D01*
X16462920Y-12926960D02*
X16443872Y-12936484D01*
X16443872Y-12936484D02*
X16424825Y-12936484D01*
X16424825Y-12936484D02*
X16405777Y-12926960D01*
X16405777Y-12926960D02*
X16396253Y-12917436D01*
X16396253Y-12917436D02*
X16386729Y-12898388D01*
X16386729Y-12898388D02*
X16377206Y-12860293D01*
X16377206Y-12860293D02*
X16377206Y-12812674D01*
X16377206Y-12812674D02*
X16386729Y-12774579D01*
X16386729Y-12774579D02*
X16396253Y-12755531D01*
X16396253Y-12755531D02*
X16405777Y-12746008D01*
X16405777Y-12746008D02*
X16424825Y-12736484D01*
X16558158Y-12736484D02*
X16691491Y-12736484D01*
X16691491Y-12736484D02*
X16605777Y-12936484D01*
X16777206Y-12936484D02*
X16815301Y-12936484D01*
X16815301Y-12936484D02*
X16834349Y-12926960D01*
X16834349Y-12926960D02*
X16843872Y-12917436D01*
X16843872Y-12917436D02*
X16862920Y-12888865D01*
X16862920Y-12888865D02*
X16872444Y-12850769D01*
X16872444Y-12850769D02*
X16872444Y-12774579D01*
X16872444Y-12774579D02*
X16862920Y-12755531D01*
X16862920Y-12755531D02*
X16853396Y-12746008D01*
X16853396Y-12746008D02*
X16834349Y-12736484D01*
X16834349Y-12736484D02*
X16796253Y-12736484D01*
X16796253Y-12736484D02*
X16777206Y-12746008D01*
X16777206Y-12746008D02*
X16767682Y-12755531D01*
X16767682Y-12755531D02*
X16758158Y-12774579D01*
X16758158Y-12774579D02*
X16758158Y-12822198D01*
X16758158Y-12822198D02*
X16767682Y-12841246D01*
X16767682Y-12841246D02*
X16777206Y-12850769D01*
X16777206Y-12850769D02*
X16796253Y-12860293D01*
X16796253Y-12860293D02*
X16834349Y-12860293D01*
X16834349Y-12860293D02*
X16853396Y-12850769D01*
X16853396Y-12850769D02*
X16862920Y-12841246D01*
X16862920Y-12841246D02*
X16872444Y-12822198D01*
X16948634Y-12736484D02*
X16948634Y-12774579D01*
X17024825Y-12736484D02*
X17024825Y-12774579D01*
X17320063Y-13012674D02*
X17310539Y-13003150D01*
X17310539Y-13003150D02*
X17291491Y-12974579D01*
X17291491Y-12974579D02*
X17281968Y-12955531D01*
X17281968Y-12955531D02*
X17272444Y-12926960D01*
X17272444Y-12926960D02*
X17262920Y-12879341D01*
X17262920Y-12879341D02*
X17262920Y-12841246D01*
X17262920Y-12841246D02*
X17272444Y-12793627D01*
X17272444Y-12793627D02*
X17281968Y-12765055D01*
X17281968Y-12765055D02*
X17291491Y-12746008D01*
X17291491Y-12746008D02*
X17310539Y-12717436D01*
X17310539Y-12717436D02*
X17320063Y-12707912D01*
X17386730Y-12755531D02*
X17396253Y-12746008D01*
X17396253Y-12746008D02*
X17415301Y-12736484D01*
X17415301Y-12736484D02*
X17462920Y-12736484D01*
X17462920Y-12736484D02*
X17481968Y-12746008D01*
X17481968Y-12746008D02*
X17491491Y-12755531D01*
X17491491Y-12755531D02*
X17501015Y-12774579D01*
X17501015Y-12774579D02*
X17501015Y-12793627D01*
X17501015Y-12793627D02*
X17491491Y-12822198D01*
X17491491Y-12822198D02*
X17377206Y-12936484D01*
X17377206Y-12936484D02*
X17501015Y-12936484D01*
X17567682Y-12736484D02*
X17691491Y-12736484D01*
X17691491Y-12736484D02*
X17624825Y-12812674D01*
X17624825Y-12812674D02*
X17653396Y-12812674D01*
X17653396Y-12812674D02*
X17672444Y-12822198D01*
X17672444Y-12822198D02*
X17681968Y-12831722D01*
X17681968Y-12831722D02*
X17691491Y-12850769D01*
X17691491Y-12850769D02*
X17691491Y-12898388D01*
X17691491Y-12898388D02*
X17681968Y-12917436D01*
X17681968Y-12917436D02*
X17672444Y-12926960D01*
X17672444Y-12926960D02*
X17653396Y-12936484D01*
X17653396Y-12936484D02*
X17596253Y-12936484D01*
X17596253Y-12936484D02*
X17577206Y-12926960D01*
X17577206Y-12926960D02*
X17567682Y-12917436D01*
X17929587Y-12936484D02*
X17929587Y-12736484D01*
X18015301Y-12936484D02*
X18015301Y-12831722D01*
X18015301Y-12831722D02*
X18005777Y-12812674D01*
X18005777Y-12812674D02*
X17986730Y-12803150D01*
X17986730Y-12803150D02*
X17958158Y-12803150D01*
X17958158Y-12803150D02*
X17939111Y-12812674D01*
X17939111Y-12812674D02*
X17929587Y-12822198D01*
X18139111Y-12936484D02*
X18120063Y-12926960D01*
X18120063Y-12926960D02*
X18110539Y-12917436D01*
X18110539Y-12917436D02*
X18101015Y-12898388D01*
X18101015Y-12898388D02*
X18101015Y-12841246D01*
X18101015Y-12841246D02*
X18110539Y-12822198D01*
X18110539Y-12822198D02*
X18120063Y-12812674D01*
X18120063Y-12812674D02*
X18139111Y-12803150D01*
X18139111Y-12803150D02*
X18167682Y-12803150D01*
X18167682Y-12803150D02*
X18186730Y-12812674D01*
X18186730Y-12812674D02*
X18196253Y-12822198D01*
X18196253Y-12822198D02*
X18205777Y-12841246D01*
X18205777Y-12841246D02*
X18205777Y-12898388D01*
X18205777Y-12898388D02*
X18196253Y-12917436D01*
X18196253Y-12917436D02*
X18186730Y-12926960D01*
X18186730Y-12926960D02*
X18167682Y-12936484D01*
X18167682Y-12936484D02*
X18139111Y-12936484D01*
X18320063Y-12936484D02*
X18301015Y-12926960D01*
X18301015Y-12926960D02*
X18291492Y-12907912D01*
X18291492Y-12907912D02*
X18291492Y-12736484D01*
X18472444Y-12926960D02*
X18453396Y-12936484D01*
X18453396Y-12936484D02*
X18415301Y-12936484D01*
X18415301Y-12936484D02*
X18396253Y-12926960D01*
X18396253Y-12926960D02*
X18386730Y-12907912D01*
X18386730Y-12907912D02*
X18386730Y-12831722D01*
X18386730Y-12831722D02*
X18396253Y-12812674D01*
X18396253Y-12812674D02*
X18415301Y-12803150D01*
X18415301Y-12803150D02*
X18453396Y-12803150D01*
X18453396Y-12803150D02*
X18472444Y-12812674D01*
X18472444Y-12812674D02*
X18481968Y-12831722D01*
X18481968Y-12831722D02*
X18481968Y-12850769D01*
X18481968Y-12850769D02*
X18386730Y-12869817D01*
X18558158Y-12926960D02*
X18577206Y-12936484D01*
X18577206Y-12936484D02*
X18615301Y-12936484D01*
X18615301Y-12936484D02*
X18634349Y-12926960D01*
X18634349Y-12926960D02*
X18643873Y-12907912D01*
X18643873Y-12907912D02*
X18643873Y-12898388D01*
X18643873Y-12898388D02*
X18634349Y-12879341D01*
X18634349Y-12879341D02*
X18615301Y-12869817D01*
X18615301Y-12869817D02*
X18586730Y-12869817D01*
X18586730Y-12869817D02*
X18567682Y-12860293D01*
X18567682Y-12860293D02*
X18558158Y-12841246D01*
X18558158Y-12841246D02*
X18558158Y-12831722D01*
X18558158Y-12831722D02*
X18567682Y-12812674D01*
X18567682Y-12812674D02*
X18586730Y-12803150D01*
X18586730Y-12803150D02*
X18615301Y-12803150D01*
X18615301Y-12803150D02*
X18634349Y-12812674D01*
X18710539Y-13012674D02*
X18720063Y-13003150D01*
X18720063Y-13003150D02*
X18739111Y-12974579D01*
X18739111Y-12974579D02*
X18748634Y-12955531D01*
X18748634Y-12955531D02*
X18758158Y-12926960D01*
X18758158Y-12926960D02*
X18767682Y-12879341D01*
X18767682Y-12879341D02*
X18767682Y-12841246D01*
X18767682Y-12841246D02*
X18758158Y-12793627D01*
X18758158Y-12793627D02*
X18748634Y-12765055D01*
X18748634Y-12765055D02*
X18739111Y-12746008D01*
X18739111Y-12746008D02*
X18720063Y-12717436D01*
X18720063Y-12717436D02*
X18710539Y-12707912D01*
D13*
X13745000Y-13109000D02*
G75*
G03*
X13745000Y-13109000I-20000J0D01*
G01*
D11*
X14043872Y-13000484D02*
X14062920Y-13000484D01*
X14062920Y-13000484D02*
X14081967Y-13010008D01*
X14081967Y-13010008D02*
X14091491Y-13019531D01*
X14091491Y-13019531D02*
X14101015Y-13038579D01*
X14101015Y-13038579D02*
X14110539Y-13076674D01*
X14110539Y-13076674D02*
X14110539Y-13124293D01*
X14110539Y-13124293D02*
X14101015Y-13162388D01*
X14101015Y-13162388D02*
X14091491Y-13181436D01*
X14091491Y-13181436D02*
X14081967Y-13190960D01*
X14081967Y-13190960D02*
X14062920Y-13200484D01*
X14062920Y-13200484D02*
X14043872Y-13200484D01*
X14043872Y-13200484D02*
X14024824Y-13190960D01*
X14024824Y-13190960D02*
X14015301Y-13181436D01*
X14015301Y-13181436D02*
X14005777Y-13162388D01*
X14005777Y-13162388D02*
X13996253Y-13124293D01*
X13996253Y-13124293D02*
X13996253Y-13076674D01*
X13996253Y-13076674D02*
X14005777Y-13038579D01*
X14005777Y-13038579D02*
X14015301Y-13019531D01*
X14015301Y-13019531D02*
X14024824Y-13010008D01*
X14024824Y-13010008D02*
X14043872Y-13000484D01*
X14196253Y-13181436D02*
X14205777Y-13190960D01*
X14205777Y-13190960D02*
X14196253Y-13200484D01*
X14196253Y-13200484D02*
X14186729Y-13190960D01*
X14186729Y-13190960D02*
X14196253Y-13181436D01*
X14196253Y-13181436D02*
X14196253Y-13200484D01*
X14377205Y-13067150D02*
X14377205Y-13200484D01*
X14329586Y-12990960D02*
X14281967Y-13133817D01*
X14281967Y-13133817D02*
X14405777Y-13133817D01*
X14520062Y-13000484D02*
X14539110Y-13000484D01*
X14539110Y-13000484D02*
X14558158Y-13010008D01*
X14558158Y-13010008D02*
X14567682Y-13019531D01*
X14567682Y-13019531D02*
X14577205Y-13038579D01*
X14577205Y-13038579D02*
X14586729Y-13076674D01*
X14586729Y-13076674D02*
X14586729Y-13124293D01*
X14586729Y-13124293D02*
X14577205Y-13162388D01*
X14577205Y-13162388D02*
X14567682Y-13181436D01*
X14567682Y-13181436D02*
X14558158Y-13190960D01*
X14558158Y-13190960D02*
X14539110Y-13200484D01*
X14539110Y-13200484D02*
X14520062Y-13200484D01*
X14520062Y-13200484D02*
X14501015Y-13190960D01*
X14501015Y-13190960D02*
X14491491Y-13181436D01*
X14491491Y-13181436D02*
X14481967Y-13162388D01*
X14481967Y-13162388D02*
X14472443Y-13124293D01*
X14472443Y-13124293D02*
X14472443Y-13076674D01*
X14472443Y-13076674D02*
X14481967Y-13038579D01*
X14481967Y-13038579D02*
X14491491Y-13019531D01*
X14491491Y-13019531D02*
X14501015Y-13010008D01*
X14501015Y-13010008D02*
X14520062Y-13000484D01*
X14710539Y-13000484D02*
X14729586Y-13000484D01*
X14729586Y-13000484D02*
X14748634Y-13010008D01*
X14748634Y-13010008D02*
X14758158Y-13019531D01*
X14758158Y-13019531D02*
X14767682Y-13038579D01*
X14767682Y-13038579D02*
X14777205Y-13076674D01*
X14777205Y-13076674D02*
X14777205Y-13124293D01*
X14777205Y-13124293D02*
X14767682Y-13162388D01*
X14767682Y-13162388D02*
X14758158Y-13181436D01*
X14758158Y-13181436D02*
X14748634Y-13190960D01*
X14748634Y-13190960D02*
X14729586Y-13200484D01*
X14729586Y-13200484D02*
X14710539Y-13200484D01*
X14710539Y-13200484D02*
X14691491Y-13190960D01*
X14691491Y-13190960D02*
X14681967Y-13181436D01*
X14681967Y-13181436D02*
X14672443Y-13162388D01*
X14672443Y-13162388D02*
X14662920Y-13124293D01*
X14662920Y-13124293D02*
X14662920Y-13076674D01*
X14662920Y-13076674D02*
X14672443Y-13038579D01*
X14672443Y-13038579D02*
X14681967Y-13019531D01*
X14681967Y-13019531D02*
X14691491Y-13010008D01*
X14691491Y-13010008D02*
X14710539Y-13000484D01*
X14862920Y-13200484D02*
X14862920Y-13067150D01*
X14862920Y-13086198D02*
X14872443Y-13076674D01*
X14872443Y-13076674D02*
X14891491Y-13067150D01*
X14891491Y-13067150D02*
X14920063Y-13067150D01*
X14920063Y-13067150D02*
X14939110Y-13076674D01*
X14939110Y-13076674D02*
X14948634Y-13095722D01*
X14948634Y-13095722D02*
X14948634Y-13200484D01*
X14948634Y-13095722D02*
X14958158Y-13076674D01*
X14958158Y-13076674D02*
X14977205Y-13067150D01*
X14977205Y-13067150D02*
X15005777Y-13067150D01*
X15005777Y-13067150D02*
X15024824Y-13076674D01*
X15024824Y-13076674D02*
X15034348Y-13095722D01*
X15034348Y-13095722D02*
X15034348Y-13200484D01*
X15129586Y-13200484D02*
X15129586Y-13067150D01*
X15129586Y-13086198D02*
X15139110Y-13076674D01*
X15139110Y-13076674D02*
X15158158Y-13067150D01*
X15158158Y-13067150D02*
X15186729Y-13067150D01*
X15186729Y-13067150D02*
X15205777Y-13076674D01*
X15205777Y-13076674D02*
X15215301Y-13095722D01*
X15215301Y-13095722D02*
X15215301Y-13200484D01*
X15215301Y-13095722D02*
X15224824Y-13076674D01*
X15224824Y-13076674D02*
X15243872Y-13067150D01*
X15243872Y-13067150D02*
X15272443Y-13067150D01*
X15272443Y-13067150D02*
X15291491Y-13076674D01*
X15291491Y-13076674D02*
X15301015Y-13095722D01*
X15301015Y-13095722D02*
X15301015Y-13200484D01*
X15691491Y-12990960D02*
X15520063Y-13248103D01*
X15948634Y-13000484D02*
X15967682Y-13000484D01*
X15967682Y-13000484D02*
X15986729Y-13010008D01*
X15986729Y-13010008D02*
X15996253Y-13019531D01*
X15996253Y-13019531D02*
X16005777Y-13038579D01*
X16005777Y-13038579D02*
X16015301Y-13076674D01*
X16015301Y-13076674D02*
X16015301Y-13124293D01*
X16015301Y-13124293D02*
X16005777Y-13162388D01*
X16005777Y-13162388D02*
X15996253Y-13181436D01*
X15996253Y-13181436D02*
X15986729Y-13190960D01*
X15986729Y-13190960D02*
X15967682Y-13200484D01*
X15967682Y-13200484D02*
X15948634Y-13200484D01*
X15948634Y-13200484D02*
X15929586Y-13190960D01*
X15929586Y-13190960D02*
X15920063Y-13181436D01*
X15920063Y-13181436D02*
X15910539Y-13162388D01*
X15910539Y-13162388D02*
X15901015Y-13124293D01*
X15901015Y-13124293D02*
X15901015Y-13076674D01*
X15901015Y-13076674D02*
X15910539Y-13038579D01*
X15910539Y-13038579D02*
X15920063Y-13019531D01*
X15920063Y-13019531D02*
X15929586Y-13010008D01*
X15929586Y-13010008D02*
X15948634Y-13000484D01*
X16101015Y-13181436D02*
X16110539Y-13190960D01*
X16110539Y-13190960D02*
X16101015Y-13200484D01*
X16101015Y-13200484D02*
X16091491Y-13190960D01*
X16091491Y-13190960D02*
X16101015Y-13181436D01*
X16101015Y-13181436D02*
X16101015Y-13200484D01*
X16234348Y-13000484D02*
X16253396Y-13000484D01*
X16253396Y-13000484D02*
X16272444Y-13010008D01*
X16272444Y-13010008D02*
X16281967Y-13019531D01*
X16281967Y-13019531D02*
X16291491Y-13038579D01*
X16291491Y-13038579D02*
X16301015Y-13076674D01*
X16301015Y-13076674D02*
X16301015Y-13124293D01*
X16301015Y-13124293D02*
X16291491Y-13162388D01*
X16291491Y-13162388D02*
X16281967Y-13181436D01*
X16281967Y-13181436D02*
X16272444Y-13190960D01*
X16272444Y-13190960D02*
X16253396Y-13200484D01*
X16253396Y-13200484D02*
X16234348Y-13200484D01*
X16234348Y-13200484D02*
X16215301Y-13190960D01*
X16215301Y-13190960D02*
X16205777Y-13181436D01*
X16205777Y-13181436D02*
X16196253Y-13162388D01*
X16196253Y-13162388D02*
X16186729Y-13124293D01*
X16186729Y-13124293D02*
X16186729Y-13076674D01*
X16186729Y-13076674D02*
X16196253Y-13038579D01*
X16196253Y-13038579D02*
X16205777Y-13019531D01*
X16205777Y-13019531D02*
X16215301Y-13010008D01*
X16215301Y-13010008D02*
X16234348Y-13000484D01*
X16491491Y-13200484D02*
X16377206Y-13200484D01*
X16434348Y-13200484D02*
X16434348Y-13000484D01*
X16434348Y-13000484D02*
X16415301Y-13029055D01*
X16415301Y-13029055D02*
X16396253Y-13048103D01*
X16396253Y-13048103D02*
X16377206Y-13057627D01*
X16672444Y-13000484D02*
X16577206Y-13000484D01*
X16577206Y-13000484D02*
X16567682Y-13095722D01*
X16567682Y-13095722D02*
X16577206Y-13086198D01*
X16577206Y-13086198D02*
X16596253Y-13076674D01*
X16596253Y-13076674D02*
X16643872Y-13076674D01*
X16643872Y-13076674D02*
X16662920Y-13086198D01*
X16662920Y-13086198D02*
X16672444Y-13095722D01*
X16672444Y-13095722D02*
X16681967Y-13114769D01*
X16681967Y-13114769D02*
X16681967Y-13162388D01*
X16681967Y-13162388D02*
X16672444Y-13181436D01*
X16672444Y-13181436D02*
X16662920Y-13190960D01*
X16662920Y-13190960D02*
X16643872Y-13200484D01*
X16643872Y-13200484D02*
X16596253Y-13200484D01*
X16596253Y-13200484D02*
X16577206Y-13190960D01*
X16577206Y-13190960D02*
X16567682Y-13181436D01*
X16748634Y-13000484D02*
X16881968Y-13000484D01*
X16881968Y-13000484D02*
X16796253Y-13200484D01*
X16948634Y-13000484D02*
X16948634Y-13038579D01*
X17024825Y-13000484D02*
X17024825Y-13038579D01*
X17320063Y-13276674D02*
X17310539Y-13267150D01*
X17310539Y-13267150D02*
X17291491Y-13238579D01*
X17291491Y-13238579D02*
X17281968Y-13219531D01*
X17281968Y-13219531D02*
X17272444Y-13190960D01*
X17272444Y-13190960D02*
X17262920Y-13143341D01*
X17262920Y-13143341D02*
X17262920Y-13105246D01*
X17262920Y-13105246D02*
X17272444Y-13057627D01*
X17272444Y-13057627D02*
X17281968Y-13029055D01*
X17281968Y-13029055D02*
X17291491Y-13010008D01*
X17291491Y-13010008D02*
X17310539Y-12981436D01*
X17310539Y-12981436D02*
X17320063Y-12971912D01*
X17377206Y-13000484D02*
X17510539Y-13000484D01*
X17510539Y-13000484D02*
X17424825Y-13200484D01*
X17739111Y-13200484D02*
X17739111Y-13000484D01*
X17824825Y-13200484D02*
X17824825Y-13095722D01*
X17824825Y-13095722D02*
X17815301Y-13076674D01*
X17815301Y-13076674D02*
X17796253Y-13067150D01*
X17796253Y-13067150D02*
X17767682Y-13067150D01*
X17767682Y-13067150D02*
X17748634Y-13076674D01*
X17748634Y-13076674D02*
X17739111Y-13086198D01*
X17948634Y-13200484D02*
X17929587Y-13190960D01*
X17929587Y-13190960D02*
X17920063Y-13181436D01*
X17920063Y-13181436D02*
X17910539Y-13162388D01*
X17910539Y-13162388D02*
X17910539Y-13105246D01*
X17910539Y-13105246D02*
X17920063Y-13086198D01*
X17920063Y-13086198D02*
X17929587Y-13076674D01*
X17929587Y-13076674D02*
X17948634Y-13067150D01*
X17948634Y-13067150D02*
X17977206Y-13067150D01*
X17977206Y-13067150D02*
X17996253Y-13076674D01*
X17996253Y-13076674D02*
X18005777Y-13086198D01*
X18005777Y-13086198D02*
X18015301Y-13105246D01*
X18015301Y-13105246D02*
X18015301Y-13162388D01*
X18015301Y-13162388D02*
X18005777Y-13181436D01*
X18005777Y-13181436D02*
X17996253Y-13190960D01*
X17996253Y-13190960D02*
X17977206Y-13200484D01*
X17977206Y-13200484D02*
X17948634Y-13200484D01*
X18129587Y-13200484D02*
X18110539Y-13190960D01*
X18110539Y-13190960D02*
X18101015Y-13171912D01*
X18101015Y-13171912D02*
X18101015Y-13000484D01*
X18281968Y-13190960D02*
X18262920Y-13200484D01*
X18262920Y-13200484D02*
X18224825Y-13200484D01*
X18224825Y-13200484D02*
X18205777Y-13190960D01*
X18205777Y-13190960D02*
X18196253Y-13171912D01*
X18196253Y-13171912D02*
X18196253Y-13095722D01*
X18196253Y-13095722D02*
X18205777Y-13076674D01*
X18205777Y-13076674D02*
X18224825Y-13067150D01*
X18224825Y-13067150D02*
X18262920Y-13067150D01*
X18262920Y-13067150D02*
X18281968Y-13076674D01*
X18281968Y-13076674D02*
X18291492Y-13095722D01*
X18291492Y-13095722D02*
X18291492Y-13114769D01*
X18291492Y-13114769D02*
X18196253Y-13133817D01*
X18367682Y-13190960D02*
X18386730Y-13200484D01*
X18386730Y-13200484D02*
X18424825Y-13200484D01*
X18424825Y-13200484D02*
X18443873Y-13190960D01*
X18443873Y-13190960D02*
X18453396Y-13171912D01*
X18453396Y-13171912D02*
X18453396Y-13162388D01*
X18453396Y-13162388D02*
X18443873Y-13143341D01*
X18443873Y-13143341D02*
X18424825Y-13133817D01*
X18424825Y-13133817D02*
X18396253Y-13133817D01*
X18396253Y-13133817D02*
X18377206Y-13124293D01*
X18377206Y-13124293D02*
X18367682Y-13105246D01*
X18367682Y-13105246D02*
X18367682Y-13095722D01*
X18367682Y-13095722D02*
X18377206Y-13076674D01*
X18377206Y-13076674D02*
X18396253Y-13067150D01*
X18396253Y-13067150D02*
X18424825Y-13067150D01*
X18424825Y-13067150D02*
X18443873Y-13076674D01*
X18520063Y-13276674D02*
X18529587Y-13267150D01*
X18529587Y-13267150D02*
X18548634Y-13238579D01*
X18548634Y-13238579D02*
X18558158Y-13219531D01*
X18558158Y-13219531D02*
X18567682Y-13190960D01*
X18567682Y-13190960D02*
X18577206Y-13143341D01*
X18577206Y-13143341D02*
X18577206Y-13105246D01*
X18577206Y-13105246D02*
X18567682Y-13057627D01*
X18567682Y-13057627D02*
X18558158Y-13029055D01*
X18558158Y-13029055D02*
X18548634Y-13010008D01*
X18548634Y-13010008D02*
X18529587Y-12981436D01*
X18529587Y-12981436D02*
X18520063Y-12971912D01*
D14*
X13720000Y-13348000D02*
X13720000Y-13398000D01*
X13695000Y-13373000D02*
X13745000Y-13373000D01*
D11*
X14043872Y-13264484D02*
X14062920Y-13264484D01*
X14062920Y-13264484D02*
X14081967Y-13274008D01*
X14081967Y-13274008D02*
X14091491Y-13283531D01*
X14091491Y-13283531D02*
X14101015Y-13302579D01*
X14101015Y-13302579D02*
X14110539Y-13340674D01*
X14110539Y-13340674D02*
X14110539Y-13388293D01*
X14110539Y-13388293D02*
X14101015Y-13426388D01*
X14101015Y-13426388D02*
X14091491Y-13445436D01*
X14091491Y-13445436D02*
X14081967Y-13454960D01*
X14081967Y-13454960D02*
X14062920Y-13464484D01*
X14062920Y-13464484D02*
X14043872Y-13464484D01*
X14043872Y-13464484D02*
X14024824Y-13454960D01*
X14024824Y-13454960D02*
X14015301Y-13445436D01*
X14015301Y-13445436D02*
X14005777Y-13426388D01*
X14005777Y-13426388D02*
X13996253Y-13388293D01*
X13996253Y-13388293D02*
X13996253Y-13340674D01*
X13996253Y-13340674D02*
X14005777Y-13302579D01*
X14005777Y-13302579D02*
X14015301Y-13283531D01*
X14015301Y-13283531D02*
X14024824Y-13274008D01*
X14024824Y-13274008D02*
X14043872Y-13264484D01*
X14196253Y-13445436D02*
X14205777Y-13454960D01*
X14205777Y-13454960D02*
X14196253Y-13464484D01*
X14196253Y-13464484D02*
X14186729Y-13454960D01*
X14186729Y-13454960D02*
X14196253Y-13445436D01*
X14196253Y-13445436D02*
X14196253Y-13464484D01*
X14386729Y-13264484D02*
X14291491Y-13264484D01*
X14291491Y-13264484D02*
X14281967Y-13359722D01*
X14281967Y-13359722D02*
X14291491Y-13350198D01*
X14291491Y-13350198D02*
X14310539Y-13340674D01*
X14310539Y-13340674D02*
X14358158Y-13340674D01*
X14358158Y-13340674D02*
X14377205Y-13350198D01*
X14377205Y-13350198D02*
X14386729Y-13359722D01*
X14386729Y-13359722D02*
X14396253Y-13378769D01*
X14396253Y-13378769D02*
X14396253Y-13426388D01*
X14396253Y-13426388D02*
X14386729Y-13445436D01*
X14386729Y-13445436D02*
X14377205Y-13454960D01*
X14377205Y-13454960D02*
X14358158Y-13464484D01*
X14358158Y-13464484D02*
X14310539Y-13464484D01*
X14310539Y-13464484D02*
X14291491Y-13454960D01*
X14291491Y-13454960D02*
X14281967Y-13445436D01*
X14520062Y-13264484D02*
X14539110Y-13264484D01*
X14539110Y-13264484D02*
X14558158Y-13274008D01*
X14558158Y-13274008D02*
X14567682Y-13283531D01*
X14567682Y-13283531D02*
X14577205Y-13302579D01*
X14577205Y-13302579D02*
X14586729Y-13340674D01*
X14586729Y-13340674D02*
X14586729Y-13388293D01*
X14586729Y-13388293D02*
X14577205Y-13426388D01*
X14577205Y-13426388D02*
X14567682Y-13445436D01*
X14567682Y-13445436D02*
X14558158Y-13454960D01*
X14558158Y-13454960D02*
X14539110Y-13464484D01*
X14539110Y-13464484D02*
X14520062Y-13464484D01*
X14520062Y-13464484D02*
X14501015Y-13454960D01*
X14501015Y-13454960D02*
X14491491Y-13445436D01*
X14491491Y-13445436D02*
X14481967Y-13426388D01*
X14481967Y-13426388D02*
X14472443Y-13388293D01*
X14472443Y-13388293D02*
X14472443Y-13340674D01*
X14472443Y-13340674D02*
X14481967Y-13302579D01*
X14481967Y-13302579D02*
X14491491Y-13283531D01*
X14491491Y-13283531D02*
X14501015Y-13274008D01*
X14501015Y-13274008D02*
X14520062Y-13264484D01*
X14710539Y-13264484D02*
X14729586Y-13264484D01*
X14729586Y-13264484D02*
X14748634Y-13274008D01*
X14748634Y-13274008D02*
X14758158Y-13283531D01*
X14758158Y-13283531D02*
X14767682Y-13302579D01*
X14767682Y-13302579D02*
X14777205Y-13340674D01*
X14777205Y-13340674D02*
X14777205Y-13388293D01*
X14777205Y-13388293D02*
X14767682Y-13426388D01*
X14767682Y-13426388D02*
X14758158Y-13445436D01*
X14758158Y-13445436D02*
X14748634Y-13454960D01*
X14748634Y-13454960D02*
X14729586Y-13464484D01*
X14729586Y-13464484D02*
X14710539Y-13464484D01*
X14710539Y-13464484D02*
X14691491Y-13454960D01*
X14691491Y-13454960D02*
X14681967Y-13445436D01*
X14681967Y-13445436D02*
X14672443Y-13426388D01*
X14672443Y-13426388D02*
X14662920Y-13388293D01*
X14662920Y-13388293D02*
X14662920Y-13340674D01*
X14662920Y-13340674D02*
X14672443Y-13302579D01*
X14672443Y-13302579D02*
X14681967Y-13283531D01*
X14681967Y-13283531D02*
X14691491Y-13274008D01*
X14691491Y-13274008D02*
X14710539Y-13264484D01*
X14862920Y-13464484D02*
X14862920Y-13331150D01*
X14862920Y-13350198D02*
X14872443Y-13340674D01*
X14872443Y-13340674D02*
X14891491Y-13331150D01*
X14891491Y-13331150D02*
X14920063Y-13331150D01*
X14920063Y-13331150D02*
X14939110Y-13340674D01*
X14939110Y-13340674D02*
X14948634Y-13359722D01*
X14948634Y-13359722D02*
X14948634Y-13464484D01*
X14948634Y-13359722D02*
X14958158Y-13340674D01*
X14958158Y-13340674D02*
X14977205Y-13331150D01*
X14977205Y-13331150D02*
X15005777Y-13331150D01*
X15005777Y-13331150D02*
X15024824Y-13340674D01*
X15024824Y-13340674D02*
X15034348Y-13359722D01*
X15034348Y-13359722D02*
X15034348Y-13464484D01*
X15129586Y-13464484D02*
X15129586Y-13331150D01*
X15129586Y-13350198D02*
X15139110Y-13340674D01*
X15139110Y-13340674D02*
X15158158Y-13331150D01*
X15158158Y-13331150D02*
X15186729Y-13331150D01*
X15186729Y-13331150D02*
X15205777Y-13340674D01*
X15205777Y-13340674D02*
X15215301Y-13359722D01*
X15215301Y-13359722D02*
X15215301Y-13464484D01*
X15215301Y-13359722D02*
X15224824Y-13340674D01*
X15224824Y-13340674D02*
X15243872Y-13331150D01*
X15243872Y-13331150D02*
X15272443Y-13331150D01*
X15272443Y-13331150D02*
X15291491Y-13340674D01*
X15291491Y-13340674D02*
X15301015Y-13359722D01*
X15301015Y-13359722D02*
X15301015Y-13464484D01*
X15691491Y-13254960D02*
X15520063Y-13512103D01*
X15948634Y-13264484D02*
X15967682Y-13264484D01*
X15967682Y-13264484D02*
X15986729Y-13274008D01*
X15986729Y-13274008D02*
X15996253Y-13283531D01*
X15996253Y-13283531D02*
X16005777Y-13302579D01*
X16005777Y-13302579D02*
X16015301Y-13340674D01*
X16015301Y-13340674D02*
X16015301Y-13388293D01*
X16015301Y-13388293D02*
X16005777Y-13426388D01*
X16005777Y-13426388D02*
X15996253Y-13445436D01*
X15996253Y-13445436D02*
X15986729Y-13454960D01*
X15986729Y-13454960D02*
X15967682Y-13464484D01*
X15967682Y-13464484D02*
X15948634Y-13464484D01*
X15948634Y-13464484D02*
X15929586Y-13454960D01*
X15929586Y-13454960D02*
X15920063Y-13445436D01*
X15920063Y-13445436D02*
X15910539Y-13426388D01*
X15910539Y-13426388D02*
X15901015Y-13388293D01*
X15901015Y-13388293D02*
X15901015Y-13340674D01*
X15901015Y-13340674D02*
X15910539Y-13302579D01*
X15910539Y-13302579D02*
X15920063Y-13283531D01*
X15920063Y-13283531D02*
X15929586Y-13274008D01*
X15929586Y-13274008D02*
X15948634Y-13264484D01*
X16101015Y-13445436D02*
X16110539Y-13454960D01*
X16110539Y-13454960D02*
X16101015Y-13464484D01*
X16101015Y-13464484D02*
X16091491Y-13454960D01*
X16091491Y-13454960D02*
X16101015Y-13445436D01*
X16101015Y-13445436D02*
X16101015Y-13464484D01*
X16234348Y-13264484D02*
X16253396Y-13264484D01*
X16253396Y-13264484D02*
X16272444Y-13274008D01*
X16272444Y-13274008D02*
X16281967Y-13283531D01*
X16281967Y-13283531D02*
X16291491Y-13302579D01*
X16291491Y-13302579D02*
X16301015Y-13340674D01*
X16301015Y-13340674D02*
X16301015Y-13388293D01*
X16301015Y-13388293D02*
X16291491Y-13426388D01*
X16291491Y-13426388D02*
X16281967Y-13445436D01*
X16281967Y-13445436D02*
X16272444Y-13454960D01*
X16272444Y-13454960D02*
X16253396Y-13464484D01*
X16253396Y-13464484D02*
X16234348Y-13464484D01*
X16234348Y-13464484D02*
X16215301Y-13454960D01*
X16215301Y-13454960D02*
X16205777Y-13445436D01*
X16205777Y-13445436D02*
X16196253Y-13426388D01*
X16196253Y-13426388D02*
X16186729Y-13388293D01*
X16186729Y-13388293D02*
X16186729Y-13340674D01*
X16186729Y-13340674D02*
X16196253Y-13302579D01*
X16196253Y-13302579D02*
X16205777Y-13283531D01*
X16205777Y-13283531D02*
X16215301Y-13274008D01*
X16215301Y-13274008D02*
X16234348Y-13264484D01*
X16491491Y-13464484D02*
X16377206Y-13464484D01*
X16434348Y-13464484D02*
X16434348Y-13264484D01*
X16434348Y-13264484D02*
X16415301Y-13293055D01*
X16415301Y-13293055D02*
X16396253Y-13312103D01*
X16396253Y-13312103D02*
X16377206Y-13321627D01*
X16586729Y-13464484D02*
X16624825Y-13464484D01*
X16624825Y-13464484D02*
X16643872Y-13454960D01*
X16643872Y-13454960D02*
X16653396Y-13445436D01*
X16653396Y-13445436D02*
X16672444Y-13416865D01*
X16672444Y-13416865D02*
X16681967Y-13378769D01*
X16681967Y-13378769D02*
X16681967Y-13302579D01*
X16681967Y-13302579D02*
X16672444Y-13283531D01*
X16672444Y-13283531D02*
X16662920Y-13274008D01*
X16662920Y-13274008D02*
X16643872Y-13264484D01*
X16643872Y-13264484D02*
X16605777Y-13264484D01*
X16605777Y-13264484D02*
X16586729Y-13274008D01*
X16586729Y-13274008D02*
X16577206Y-13283531D01*
X16577206Y-13283531D02*
X16567682Y-13302579D01*
X16567682Y-13302579D02*
X16567682Y-13350198D01*
X16567682Y-13350198D02*
X16577206Y-13369246D01*
X16577206Y-13369246D02*
X16586729Y-13378769D01*
X16586729Y-13378769D02*
X16605777Y-13388293D01*
X16605777Y-13388293D02*
X16643872Y-13388293D01*
X16643872Y-13388293D02*
X16662920Y-13378769D01*
X16662920Y-13378769D02*
X16672444Y-13369246D01*
X16672444Y-13369246D02*
X16681967Y-13350198D01*
X16748634Y-13264484D02*
X16881968Y-13264484D01*
X16881968Y-13264484D02*
X16796253Y-13464484D01*
X16948634Y-13264484D02*
X16948634Y-13302579D01*
X17024825Y-13264484D02*
X17024825Y-13302579D01*
X17320063Y-13540674D02*
X17310539Y-13531150D01*
X17310539Y-13531150D02*
X17291491Y-13502579D01*
X17291491Y-13502579D02*
X17281968Y-13483531D01*
X17281968Y-13483531D02*
X17272444Y-13454960D01*
X17272444Y-13454960D02*
X17262920Y-13407341D01*
X17262920Y-13407341D02*
X17262920Y-13369246D01*
X17262920Y-13369246D02*
X17272444Y-13321627D01*
X17272444Y-13321627D02*
X17281968Y-13293055D01*
X17281968Y-13293055D02*
X17291491Y-13274008D01*
X17291491Y-13274008D02*
X17310539Y-13245436D01*
X17310539Y-13245436D02*
X17320063Y-13235912D01*
X17481968Y-13331150D02*
X17481968Y-13464484D01*
X17434349Y-13254960D02*
X17386730Y-13397817D01*
X17386730Y-13397817D02*
X17510539Y-13397817D01*
X17739111Y-13464484D02*
X17739111Y-13264484D01*
X17824825Y-13464484D02*
X17824825Y-13359722D01*
X17824825Y-13359722D02*
X17815301Y-13340674D01*
X17815301Y-13340674D02*
X17796253Y-13331150D01*
X17796253Y-13331150D02*
X17767682Y-13331150D01*
X17767682Y-13331150D02*
X17748634Y-13340674D01*
X17748634Y-13340674D02*
X17739111Y-13350198D01*
X17948634Y-13464484D02*
X17929587Y-13454960D01*
X17929587Y-13454960D02*
X17920063Y-13445436D01*
X17920063Y-13445436D02*
X17910539Y-13426388D01*
X17910539Y-13426388D02*
X17910539Y-13369246D01*
X17910539Y-13369246D02*
X17920063Y-13350198D01*
X17920063Y-13350198D02*
X17929587Y-13340674D01*
X17929587Y-13340674D02*
X17948634Y-13331150D01*
X17948634Y-13331150D02*
X17977206Y-13331150D01*
X17977206Y-13331150D02*
X17996253Y-13340674D01*
X17996253Y-13340674D02*
X18005777Y-13350198D01*
X18005777Y-13350198D02*
X18015301Y-13369246D01*
X18015301Y-13369246D02*
X18015301Y-13426388D01*
X18015301Y-13426388D02*
X18005777Y-13445436D01*
X18005777Y-13445436D02*
X17996253Y-13454960D01*
X17996253Y-13454960D02*
X17977206Y-13464484D01*
X17977206Y-13464484D02*
X17948634Y-13464484D01*
X18129587Y-13464484D02*
X18110539Y-13454960D01*
X18110539Y-13454960D02*
X18101015Y-13435912D01*
X18101015Y-13435912D02*
X18101015Y-13264484D01*
X18281968Y-13454960D02*
X18262920Y-13464484D01*
X18262920Y-13464484D02*
X18224825Y-13464484D01*
X18224825Y-13464484D02*
X18205777Y-13454960D01*
X18205777Y-13454960D02*
X18196253Y-13435912D01*
X18196253Y-13435912D02*
X18196253Y-13359722D01*
X18196253Y-13359722D02*
X18205777Y-13340674D01*
X18205777Y-13340674D02*
X18224825Y-13331150D01*
X18224825Y-13331150D02*
X18262920Y-13331150D01*
X18262920Y-13331150D02*
X18281968Y-13340674D01*
X18281968Y-13340674D02*
X18291492Y-13359722D01*
X18291492Y-13359722D02*
X18291492Y-13378769D01*
X18291492Y-13378769D02*
X18196253Y-13397817D01*
X18367682Y-13454960D02*
X18386730Y-13464484D01*
X18386730Y-13464484D02*
X18424825Y-13464484D01*
X18424825Y-13464484D02*
X18443873Y-13454960D01*
X18443873Y-13454960D02*
X18453396Y-13435912D01*
X18453396Y-13435912D02*
X18453396Y-13426388D01*
X18453396Y-13426388D02*
X18443873Y-13407341D01*
X18443873Y-13407341D02*
X18424825Y-13397817D01*
X18424825Y-13397817D02*
X18396253Y-13397817D01*
X18396253Y-13397817D02*
X18377206Y-13388293D01*
X18377206Y-13388293D02*
X18367682Y-13369246D01*
X18367682Y-13369246D02*
X18367682Y-13359722D01*
X18367682Y-13359722D02*
X18377206Y-13340674D01*
X18377206Y-13340674D02*
X18396253Y-13331150D01*
X18396253Y-13331150D02*
X18424825Y-13331150D01*
X18424825Y-13331150D02*
X18443873Y-13340674D01*
X18520063Y-13540674D02*
X18529587Y-13531150D01*
X18529587Y-13531150D02*
X18548634Y-13502579D01*
X18548634Y-13502579D02*
X18558158Y-13483531D01*
X18558158Y-13483531D02*
X18567682Y-13454960D01*
X18567682Y-13454960D02*
X18577206Y-13407341D01*
X18577206Y-13407341D02*
X18577206Y-13369246D01*
X18577206Y-13369246D02*
X18567682Y-13321627D01*
X18567682Y-13321627D02*
X18558158Y-13293055D01*
X18558158Y-13293055D02*
X18548634Y-13274008D01*
X18548634Y-13274008D02*
X18529587Y-13245436D01*
X18529587Y-13245436D02*
X18520063Y-13235912D01*
M02*
